<svg xmlns="http://www.w3.org/2000/svg" xmlns:xlink="http://www.w3.org/1999/xlink" fill="none" version="1.1" width="145" height="49" viewBox="0 0 145 49"><g><g><path d="M16.92031,30.5195Q17.75235,31.3398,18.88906,31.8203Q20.107799999999997,32.3477,21.9184,32.564499999999995Q23.7289,32.7812,26.4008,32.7812Q28.2875,32.7578,29.9809,32.7168Q31.6742,32.675799999999995,33.5727,32.5586L33.5727,32.8281Q32.588300000000004,33.085899999999995,32.0375,33.9297Q31.4867,34.773399999999995,31.3695,35.8281L25.2875,35.8281Q22.768,35.8281,21.127299999999998,35.3477Q19.48672,34.8672,18.40274,33.8711Q17.31875,32.875,16.41641,31.3398Q16.17031,30.9062,15.953520000000001,30.9297Q15.73672,30.9531,15.50235,31.3398Q15.25625,31.7734,14.8168,32.5Q14.37735,33.226600000000005,13.885159999999999,34.0703Q13.39297,34.914100000000005,12.95938,35.675799999999995Q13.02969,36.039100000000005,12.64297,36.261700000000005L10.416409,32.7227Q11.10781,32.3711,11.94571,31.9023Q12.7836,31.4336,13.58047,30.9766Q13.650780000000001,30.9531,13.7211,30.9062L13.7211,22.914099999999998L10.838284,22.914099999999998L10.697659,22.2344L13.33438,22.2344L14.90469,20.1719L18.185940000000002,22.7969Q18.02188,22.960900000000002,17.73477,23.101599999999998Q17.44766,23.2422,16.92031,23.3477L16.92031,30.5195ZM27.5961,20.7812Q27.4789,21.1797,26.7758,21.2852L26.7758,31.0234Q26.7523,31.1406,26.0609,31.4805Q25.369500000000002,31.8203,23.857799999999997,31.8203L23.3188,31.8203L23.3188,23.6055Q20.752299999999998,25.668,17.54141,27.1328L17.342190000000002,26.8984Q19.05313,25.5273,20.518,23.7051Q21.982799999999997,21.8828,23.107799999999997,19.91406Q24.0688,18.17969,24.689799999999998,16.59766L18.23281,16.59766L18.04531,15.92969L28.6508,15.92969L30.3617,13.64453L30.6664,13.89062Q30.9828,14.14844,31.475,14.54688Q31.9672,14.94531,32.4828,15.39062Q32.998400000000004,15.83594,33.432,16.21094Q33.3266,16.59766,32.752300000000005,16.59766L28.8969,16.59766Q27.9359,18.683590000000002,26.4242,20.5352L27.5961,20.7812ZM27.7602,21.3555Q29.8813,21.6602,31.1117,22.334Q32.3422,23.0078,32.887100000000004,23.810499999999998Q33.432,24.613300000000002,33.3969,25.3691Q33.3617,26.125,32.9281,26.6289Q32.4945,27.1328,31.7738,27.209Q31.0531,27.2852,30.2328,26.7227Q29.9984,25.7969,29.5648,24.8594Q29.1313,23.9219,28.6156,23.0547Q28.1,22.1875,27.5727,21.4727L27.7602,21.3555ZM12.18594,14.03125Q14.20156,14.41797,15.391020000000001,15.11523Q16.58047,15.8125,17.07266,16.61523Q17.56485,17.41797,17.51797,18.15039Q17.4711,18.88281,17.02578,19.375Q16.58047,19.86719,15.894919999999999,19.91406Q15.20938,19.96094,14.42422,19.38672Q14.24844,18.472659999999998,13.86758,17.53516Q13.48672,16.59766,12.994530000000001,15.736329999999999Q12.50235,14.875,11.99844,14.14844L12.18594,14.03125ZM51.3547,34.1172Q51.3547,34.210899999999995,50.6926,34.4512Q50.0305,34.6914,48.8586,34.6914L48.2844,34.6914L48.2844,28.1641L46.5852,28.1641L46.5852,34.550799999999995Q46.5617,34.6211,45.9113,34.873000000000005Q45.2609,35.125,44.0891,35.125L43.5266,35.125L43.5266,28.1641L41.8977,28.1641L41.8977,35.2773Q41.8977,35.418,41.4934,35.6465Q41.0891,35.875,40.4621,36.0684Q39.8352,36.261700000000005,39.1906,36.261700000000005L38.733599999999996,36.261700000000005L38.733599999999996,26.1953L42.1203,27.4961L44.6398,27.4961Q44.7102,26.9922,44.8039,26.3711Q44.8508,25.9844,44.8977,25.6445L36.694500000000005,25.6445L36.4953,24.976599999999998L53.9445,24.976599999999998L55.5266,23.0781L56.0305,23.4414Q56.5109,23.8047,57.1848,24.3086Q57.8586,24.8125,58.4094,25.2695Q58.3156,25.6445,57.7414,25.6445L48.6477,25.6445Q48.4484,25.8203,48.2844,25.960900000000002Q47.6633,26.5117,47.007,27.0156Q46.7023,27.2852,46.3859,27.4961L52.8664,27.4961L54.2609,25.9375L57.2609,28.1641Q57.1672,28.3164,56.9387,28.457Q56.7102,28.5977,56.3469,28.668L56.3469,32.7812Q56.3469,33.835899999999995,56.1184,34.5918Q55.8898,35.3477,55.134,35.775400000000005Q54.3781,36.2031,52.8195,36.3555Q52.7961,35.5586,52.7492,34.9844Q52.7023,34.4102,52.5617,34.0469Q52.3859,33.6836,52.1281,33.425799999999995Q51.8586,33.1797,51.3547,33.0625L51.3547,34.1172ZM48.882,23.6055Q48.882,23.699199999999998,48.1496,23.9805Q47.4172,24.261699999999998,46.1047,24.261699999999998L45.4719,24.261699999999998L45.4719,18.70703L39.0383,18.70703Q39.1203,19,39.1672,19.26953Q39.284400000000005,20.4414,38.9855,21.2441Q38.6867,22.0469,38.1125,22.4336Q37.4797,22.8203,36.7121,22.6035Q35.944500000000005,22.386699999999998,35.6867,21.613300000000002Q35.4641,20.875,35.8273,20.335900000000002Q36.1906,19.79688,36.8117,19.48047Q37.2922,19.11719,37.7141,18.33789Q38.1359,17.55859,37.983599999999996,16.69141L38.2766,16.66797Q38.6398,17.39453,38.8742,18.03906L45.4719,18.03906L45.4719,16L38.733599999999996,16L38.534400000000005,15.33203L52.2922,15.33203L53.9211,13.26953L54.2375,13.48047Q54.5188,13.71484,54.9875,14.07812Q55.4563,14.441410000000001,55.9602,14.85156Q56.4641,15.26172,56.8977,15.61328Q56.8039,16,56.2297,16L48.882,16L48.882,18.03906L54.7883,18.03906L56.3703,16.43359L59.1359,19.04688Q58.8898,19.339840000000002,58.1984,19.36328Q57.6008,20.0078,56.675,20.7988Q55.7492,21.5898,54.9055,22.1172L54.718,21.976599999999998Q54.8117,21.4023,54.8703,20.6816Q54.9289,19.96094,54.9758,19.23438Q54.9992,18.97656,54.9992,18.70703L48.882,18.70703L48.882,23.6055ZM51.3547,32.7578L51.6008,32.7578Q51.882,32.7812,52.2336,32.8047Q52.5852,32.8281,52.7492,32.8281Q53.1125,32.8281,53.1125,32.4414L53.1125,28.1641L51.3547,28.1641L51.3547,32.7578ZM44.7336,22.363300000000002L44.7336,23.0312L40.1984,23.0312L40.1984,22.363300000000002L44.7336,22.363300000000002ZM53.9445,22.386699999999998L53.9445,23.0547L49.6555,23.0547L49.6555,22.386699999999998L53.9445,22.386699999999998ZM44.6633,20.2188L44.6633,20.898400000000002L40.5852,20.898400000000002L40.5852,20.2188L44.6633,20.2188ZM53.6164,20.2422L53.6164,20.9219L49.6555,20.9219L49.6555,20.2422L53.6164,20.2422ZM63.4766,22.738300000000002L70.60159999999999,22.738300000000002L70.60159999999999,18.54297L61.8477,18.54297L61.6484,17.875L70.60159999999999,17.875L70.60159999999999,13.50391L75.0195,13.84375Q74.9961,14.10156,74.8262,14.2832Q74.6562,14.464839999999999,74.1523,14.535160000000001L74.1523,17.875L78.0898,17.875L80.0117,15.42578L80.375,15.683589999999999Q80.7031,15.95312,81.2598,16.375Q81.8164,16.79688,82.4023,17.27734Q82.9883,17.75781,83.4922,18.15625Q83.3984,18.54297,82.7773,18.54297L74.1523,18.54297L74.1523,22.738300000000002L75.8398,22.738300000000002L77.8789,20.875L80.9727,23.8047Q80.832,24.0156,80.5918,24.0977Q80.3516,24.1797,79.8477,24.226599999999998Q77.9961,27.6602,74.9727,30.2852Q76.8242,31.1406,78.8633,31.7148Q81.4297,32.4648,84.0664,32.875L84.0195,33.1562Q82.8477,33.4023,82.0684,34.1934Q81.2891,34.9844,80.9258,36.226600000000005Q77.5625,35.2422,74.832,33.613299999999995Q73.6719,32.9219,72.6406,32.0547Q68.1289,35.0781,61.2734,36.2031L61.1445,35.9453Q64.80080000000001,34.6445,67.80080000000001,32.675799999999995Q69.4531,31.5742,70.8711,30.3086Q70.4844,29.875,70.1211,29.3945Q68.2813,26.9453,67.2148,23.418L63.6875,23.418L63.4766,22.738300000000002ZM67.6719,23.418Q68.58590000000001,25.4102,70.07419999999999,26.8984Q71.1289,27.9766,72.3828,28.8203Q72.6406,28.5039,72.9336,28.1875Q74.832,25.960900000000002,75.9336,23.418L67.6719,23.418ZM93.3523,19.96094L101.9422,19.96094L101.9422,13.82031L106.4305,14.21875Q106.407,14.48828,106.2195,14.6582Q106.032,14.82812,105.575,14.89844L105.575,19.55078L106.8641,17.51172L107.157,17.78125Q107.4383,18.0625,107.8719,18.48438Q108.3055,18.90625,108.7859,19.375Q109.2664,19.84375,109.6297,20.2422Q109.5359,20.6289,108.9617,20.6289L105.575,20.6289L105.575,32.125Q105.575,33.332,105.2586,34.1816Q104.9422,35.0312,103.9227,35.5352Q102.9031,36.039100000000005,100.8172,36.226600000000005Q100.7234,35.324200000000005,100.5418,34.6973Q100.3602,34.0703,99.9559,33.666Q99.5516,33.261700000000005,98.9598,32.957Q98.368,32.6523,97.1258,32.418L97.1258,32.125L97.4891,32.148399999999995Q97.8406,32.1719,98.409,32.1953Q98.9773,32.2188,99.575,32.248000000000005Q100.1727,32.2773,100.6648,32.300799999999995Q101.157,32.324200000000005,101.368,32.324200000000005Q101.7078,32.324200000000005,101.825,32.212900000000005Q101.9422,32.101600000000005,101.9422,31.8672L101.9422,20.6289L93.5516,20.6289L93.3523,19.96094ZM90.8328,13.45703L95.4383,14.82812Q95.3445,15.0625,95.1043,15.20898Q94.8641,15.35547,94.4656,15.33203Q93.5281,17.80469,92.3211,19.79688Q92.0633,20.2188,91.7937,20.6055L93.3289,21.1562Q93.282,21.332,93.1121,21.449199999999998Q92.9422,21.5664,92.5906,21.636699999999998L92.5906,35.3477Q92.5672,35.4648,92.1453,35.6934Q91.7234,35.9219,91.0906,36.1152Q90.4578,36.3086,89.7547,36.3086L89.1102,36.3086L89.1102,23.9688Q87.8797,25.1875,86.4734,26.1953L86.2039,26.0312Q87.1648,24.4961,88.0672,22.457Q88.9695,20.418,89.6961,18.10352Q90.4227,15.78906,90.8328,13.45703ZM94.8641,22.5977Q96.8797,23.148400000000002,98.0457,23.9688Q99.2117,24.789099999999998,99.6805,25.662100000000002Q100.1492,26.5352,100.1023,27.3145Q100.0555,28.0938,99.5984,28.5859Q99.1414,29.0781,98.4441,29.1133Q97.7469,29.1484,96.9852,28.5273Q96.8562,27.5195,96.4988,26.4883Q96.1414,25.457,95.6609,24.4844Q95.1805,23.511699999999998,94.6531,22.7148L94.8641,22.5977ZM117.767,33.4961Q116.736,33.4961,116.015,32.787099999999995Q115.295,32.0781,115.295,31.0938Q115.295,30.0625,116.015,29.3301Q116.736,28.5977,117.767,28.5977Q118.822,28.5977,119.531,29.3301Q120.24,30.0625,120.24,31.0938Q120.24,32.0781,119.531,32.787099999999995Q118.822,33.4961,117.767,33.4961ZM117.767,24.425800000000002Q116.736,24.425800000000002,116.015,23.7168Q115.295,23.0078,115.295,22Q115.295,20.9922,116.015,20.2598Q116.736,19.527340000000002,117.767,19.527340000000002Q118.822,19.527340000000002,119.531,20.2598Q120.24,20.9922,120.24,22Q120.24,23.0078,119.531,23.7168Q118.822,24.425800000000002,117.767,24.425800000000002Z" fill="#000000" fill-opacity="1"/></g></g></svg>