<svg xmlns="http://www.w3.org/2000/svg" xmlns:xlink="http://www.w3.org/1999/xlink" fill="none" version="1.1" width="1024" height="91" viewBox="0 0 1024 91"><g><g><path d="M326.096,4.52L328.352,2.696L332,6.008L330.08,7.88L321.44,7.88L321.44,10.808L325.52,10.808L327.776,8.936L331.472,12.248L329.504,14.168L321.44,14.168L321.44,17.144L326.864,17.144L329.12,15.272L332.816,18.584L330.848,20.504L303.296,20.504L302.48,17.144L313.904,17.144L313.904,14.168L305.84,14.168L305.024,10.808L313.904,10.808L313.904,7.88L303.68,7.88L302.864,4.52L313.904,4.52L313.904,0.776001L321.44,1.736L321.44,4.52L326.096,4.52ZM306.128,21.272L313.136,22.088L313.136,23.288L322.928,23.288L325.904,20.696L331.76,25.064L330.416,26.936L330.416,42.008Q330.416,46.328,326.144,46.328L322.352,46.328Q322.352,43.304,317.456,43.304L317.504,40.328Q319.904,40.232,322.016,40.232Q323.072,40.232,323.072,39.08L323.072,38.216L313.136,38.216L313.136,45.656L306.128,46.568L306.128,21.272ZM323.072,34.76L323.072,32.408L313.136,32.408L313.136,34.76L323.072,34.76ZM323.072,28.952L323.072,26.648L313.136,26.648L313.136,28.952L323.072,28.952ZM291.968,2.216Q297.584,4.712,301.04,7.928L296.192,13.4Q292.976,9.368,288.848,6.104L291.968,2.216ZM292.832,17.768L296.192,14.216L302.384,19.064L299.984,20.984L299.984,35.096Q301.712,34.376,303.44,33.512L305.168,37.112Q301.04,41.432,295.184,45.56L291.632,38.024Q292.496,37.784,293.36,37.496L293.36,25.208L293.264,25.208L293.264,21.8L289.184,21.8L288.224,17.768L292.832,17.768ZM363.536,2.552L370.4,4.616Q369.632,6.344,368.816,7.784L371.024,7.784L371.024,1.64L378.656,2.6L378.656,7.784L380.288,7.784L383.024,5.288L387.632,9.32L385.472,11.432L378.656,11.432L378.656,16.424L382.448,16.424L385.184,13.976L389.744,18.008L387.584,20.168L381.872,20.168L381.872,29.144Q381.872,30.008,382.352,30.008L383.312,30.008Q384.272,30.008,384.416,29.432L385.28,25.592L387.92,25.976Q387.872,27.032,387.872,27.8Q387.872,30.92,390.56,31.976Q389.12,35.96,385.28,35.96L379.328,35.96Q375.2,35.96,374.96,31.352L374.96,20.168L371.936,20.168L371.936,22.568Q371.936,32.072,361.136,36.44L359.264,33.8Q365.024,29.288,365.024,21.848L365.024,20.168L359.984,20.168L359.024,16.424L371.024,16.424L371.024,11.432L366.464,11.432Q364.592,13.976,362.576,15.704L359.6,14.072Q362.528,8.552,363.536,2.552ZM350.576,3.416Q356.192,6.536,359.552,9.704L353.744,15.608Q350.72,9.992,347.312,6.44L350.576,3.416ZM350.72,20.648L353.984,17.672L360.176,22.616L358.16,24.632L358.16,34.04Q358.832,38.456,364.832,38.456L390.896,38.456L388.832,44.936L365.072,44.936Q358.112,44.936,354.368,38.504Q353.36,41.24,349.616,46.28L345.152,40.616Q350.912,35.48,350.912,33.848L350.912,24.248L346.592,24.248L345.68,20.648L350.72,20.648ZM439.472,24.632L441.824,22.664L445.712,26.12L443.696,28.088L436.64,28.088L436.64,32.984L440.576,32.984L443.408,30.296L447.968,34.424L446,36.44L436.64,36.44L436.64,44.984L428.768,45.992L428.768,36.44L418.736,36.44L417.872,32.984L428.768,32.984L428.768,28.088L421.664,28.088L420.8,24.632L428.768,24.632L428.768,20.072Q424.736,21.368,419.936,21.704L418.784,18.44Q425.168,17,428.816,15.08Q425.264,12.008,422.72,7.64L420.416,7.64L419.6,4.088L438.08,4.088L440.816,1.448L447.824,6.536L444.992,7.496Q442.544,11.432,439.52,14.168Q442.976,15.128,448.256,15.368L445.904,21.8Q438.848,21.128,433.472,18.248Q432.032,18.968,430.496,19.496L436.64,20.216L436.64,24.632L439.472,24.632ZM427.328,7.64Q430.4,10.088,433.616,11.768Q435.776,9.848,436.88,7.64L427.328,7.64ZM415.76,10.28L418.304,7.736L422.816,11.768L420.656,13.736L415.472,13.736L415.472,22.04Q417.344,21.368,418.736,20.696L420.224,23.768Q418.352,25.496,415.472,27.32L415.472,40.472Q415.472,46.472,410.096,46.472L406.976,46.472Q406.976,42.392,402.944,42.2L403.184,38.6Q405.104,39.464,406.688,39.464Q407.936,39.464,407.936,38.12L407.936,31.496Q406.496,32.168,404.96,32.888L402.704,25.832Q404.912,25.304,407.936,24.392L407.936,13.736L403.856,13.736L402.944,10.28L407.936,10.28L407.936,1.256L415.472,2.216L415.472,10.28L415.76,10.28ZM498.56,3.752L501.2,1.4L505.472,5.24L503.456,7.256L499.616,7.256L503.696,10.904L501.728,12.824L496.208,12.824L502.064,17.288L500.528,18.824L500.528,24.632L495.536,25.496L497.552,26.504Q495.488,27.848,493.424,29L498.608,29L501.44,26.312L506.096,30.488L504.08,32.552L497.072,32.552L503.072,37.16L501.152,38.744L501.152,45.176L493.184,46.52L493.184,44.504L472.448,44.504L472.448,45.704L464.672,46.712L464.672,32.792L472.448,33.704L472.448,34.76L493.952,34.76L495.824,32.552L461.6,32.552L460.736,29L472.976,29Q471.392,27.464,469.376,25.88L469.952,25.352L464.864,25.976L464.864,12.824L463.52,12.824L462.656,9.416L478.256,9.416L478.256,7.256L462.032,7.256L461.168,3.752L478.256,3.752L478.256,1.112L486.608,2.168L486.608,3.752L498.56,3.752ZM492.56,21.032L492.56,18.152L472.592,18.152L472.592,21.032L492.56,21.032ZM472.592,14.6L493.184,14.6L494.864,12.824L466.064,12.824L472.592,13.592L472.592,14.6ZM489.296,24.344L473.12,24.344Q476.432,25.16,480.272,26.84L478.064,29L485.888,29Q487.856,26.696,489.296,24.344ZM486.608,7.256L486.608,9.416L496.88,9.416L499.328,7.256L486.608,7.256ZM493.184,41.192L493.184,38.312L472.448,38.312L472.448,41.192L493.184,41.192ZM521.264,16.376Q525.152,18.824,528.272,21.272Q529.664,16.28,529.952,11.288L520.832,11.288L519.92,7.784L530.288,7.784L532.592,6.008L538.592,10.136L536.624,11.912Q536.096,19.16,533.216,25.64Q536.72,29.24,538.784,32.792L533.888,38.6Q532.304,35.288,529.904,31.784Q526.592,36.872,521.84,41.48L518.576,39.128Q523.472,33.176,526.208,26.888Q523.232,23.192,519.488,19.4L521.264,16.376ZM542.144,1.64L549.728,2.984Q549.008,6.248,547.952,9.176L555.104,9.176L557.984,6.872L563.072,11.528L561.44,12.68L556.88,20.456L553.904,19.88L555.296,12.728L546.56,12.728Q544.064,18.392,540.224,22.808L536.912,20.12Q541.184,11.672,542.144,1.64ZM545.744,15.608L552.896,16.616L552.896,21.512Q552.896,24.536,552.368,27.224Q553.76,29.624,555.488,31.784Q558.128,35.048,562.448,37.448L558.128,45.224Q553.952,42.44,550.832,36.152Q550.256,35.048,549.824,33.944Q549.44,34.568,549.008,35.144Q545.648,40.52,538.928,44.984L534.992,42.248Q545.744,32.648,545.744,21.128L545.744,15.608ZM600.704,1.832L608.48,3.176Q607.52,6.968,605.984,10.328L611.6,10.328L614.672,7.064L620.48,11.912L619.232,13.448L619.232,26.456Q619.232,41.288,616.832,43.352Q615.344,45.512,610.976,45.512L607.472,45.512Q607.472,41.72,601.424,40.76L601.808,37.688L608.96,38.024Q610.736,38.024,611.024,37.256Q612.032,33.896,612.032,29.192L612.032,13.88L604.208,13.88Q601.52,18.632,597.68,22.472L596.48,21.512L596.48,44.12L589.616,44.744L589.616,41.96L584.048,41.96L584.048,44.696L577.472,45.56L577.472,7.544L583.28,8.168Q584.24,4.76,584.48,1.88L591.872,3.464Q589.808,7.064,587.456,9.608L589.808,9.608L592.064,7.016L598.208,11.48L596.48,13.4L596.48,16.904Q599.84,9.848,600.704,1.832ZM584.048,38.792L589.616,38.792L589.616,25.976L584.048,25.976L584.048,38.792ZM584.048,22.904L589.616,22.904L589.616,12.824L584.048,12.824L584.048,22.904ZM603.104,20.408Q607.376,24.2,610.256,28.472L604.016,32.792Q602.192,27.032,599.648,22.664L603.104,20.408ZM635.024,2.792L640.688,3.464L640.688,4.52L647.648,4.52L650.384,2.504L655.616,6.584L653.984,8.264L653.984,34.424L648.128,35.144L648.128,8.12L640.688,8.12L640.688,33.992Q641.792,31.16,641.792,27.32L641.792,9.08L647.024,9.848L647.024,27.224Q647.024,33.608,644.144,37.784Q641.264,42.344,635.552,45.224L633.632,42.488Q637.712,39.416,639.776,35.816Q639.968,35.528,640.112,35.24L635.024,35.864L635.024,2.792ZM647.648,35.432Q651.632,37.256,655.088,40.232L655.088,20.744L662.048,21.56L662.048,1.16L669.2,2.072L669.2,10.28L671.312,10.28L673.904,7.832L678.368,11.768L676.304,13.736L669.2,13.736L669.2,22.616L672.272,19.64L678.704,24.632L676.496,26.696L676.496,45.08L669.392,45.944L669.392,43.256L662.192,43.256L662.192,45.272L655.088,46.184L655.088,41.096L650.48,45.704Q648.128,40.664,645.584,37.544L647.648,35.432ZM662.192,39.704L669.392,39.704L669.392,26.456L662.192,26.456L662.192,39.704ZM703.76,9.416L709.424,12.344L709.424,2.6L716.096,3.464L716.096,5.432Q724.256,4.04,729.2,0.871998L735.488,5.816Q731.552,7.592,726.416,8.6Q726.848,14.12,727.28,18.488L729.056,18.488L731.744,16.04L736.352,20.072L734.192,22.232L727.664,22.232Q729.056,34.568,730.688,37.688Q731.264,37.688,732.224,31.064L735.488,31.976Q734.864,36.68,734.864,38.792Q734.864,40.52,735.824,41.768Q734.864,45.848,730.88,45.848Q726.848,45.848,724.592,41Q722.288,34.808,720.944,22.232L716.096,22.232L716.096,37.592Q718.784,36.632,721.472,35.48L722.96,38.552Q718.112,42.68,711.392,46.616L708.176,39.944Q708.848,39.8,709.424,39.608L709.424,14.6Q705.296,20.696,700.976,25.64Q703.808,24.872,706.544,23.912L708.032,27.032Q702.416,30.872,694.496,34.52L691.328,27.896Q692.768,27.656,694.112,27.32Q696.56,23.768,698.576,20.072Q695.456,20.984,692.912,21.512L691.376,15.704L692.48,15.704Q695.408,9.08,696.416,2.072L703.856,4.28Q701.12,11.048,697.856,15.32Q699.776,15.032,701.456,14.6Q702.704,12.008,703.76,9.416ZM720.56,18.488Q720.224,14.264,719.936,9.56Q718.064,9.752,716.096,9.896L716.096,18.488L720.56,18.488ZM707.024,31.784L708.512,34.856Q702.752,39.56,694.736,44.024L691.568,37.4Q699.248,35.48,707.024,31.784Z" fill="#000000" fill-opacity="1"/></g><g><path d="M363.384,77L365.093,69.1113Q365.531,67.10156,365.797,64.9209Q366.064,62.74023,366.064,60.89453Q366.064,60.4707,366.05,60.14258L367.554,59.45898L367.554,59.8418Q367.554,60.74414,367.39,62.75391Q367.226,64.76367,367.048,65.84375Q367.882,63.88867,369.126,62.21387Q370.37,60.53906,371.676,59.56836Q372.982,58.597656,374.048,58.597656Q375.115,58.597656,375.764,59.45215Q376.413,60.30664,376.413,61.74219Q376.413,63.54688,375.634,65.36523Q374.855,67.18359,373.508,68.7148Q372.161,70.2461,370.555,71.1279Q368.948,72.0098,367.376,72.0098Q367.021,72.0098,366.542,71.9141L367.267,70.9434Q367.937,71.1621,368.634,71.1621Q369.769,71.1621,370.91,70.4033Q372.052,69.6445,372.954,68.2637Q373.788,66.99219,374.376,65.09863Q374.964,63.20508,374.964,61.82422Q374.964,60.67578,374.574,60.0332Q374.185,59.39062,373.488,59.39062Q372.503,59.39062,371.218,60.51855Q369.933,61.64648,368.702,63.57422Q367.814,64.94141,367.219,66.52734Q366.624,68.1133,366.159,70.2051L364.683,77L363.384,77ZM381.929,57.736328L378.333,73.5L378.21,74.0332Q378.032,74.7852,378.032,75.3047Q378.032,75.7285,378.189,75.99510000000001Q378.347,76.2617,378.579,76.2617Q379.003,76.2617,379.932,75.25L380.151,75.4414L380.014,75.5918Q379.235,76.5078,378.866,76.8291Q378.497,77.1504,378.182,77.1504Q377.772,77.1504,377.465,76.69239999999999Q377.157,76.2344,377.157,75.6465Q377.157,75.2363,377.335,74.3477L380.493,58.433594L381.929,57.736328ZM387.827,74.8809L388.073,75.0859Q387.225,76.207,386.418,76.70609999999999Q385.612,77.2051,384.682,77.2051Q383.575,77.2051,382.905,76.4668Q382.235,75.7285,382.235,74.5117Q382.235,73.2812,382.884,72.0166Q383.534,70.752,384.511,69.9248Q385.489,69.0977,386.446,69.0977Q387.006,69.0977,387.369,69.4258Q387.731,69.7539,387.731,70.2734Q387.731,71.3262,386.582,72.3789Q385.434,73.4316,383.452,74.1699Q383.438,74.2793,383.438,74.416Q383.438,75.3594,383.957,75.9541Q384.477,76.5488,385.297,76.5488Q385.94,76.5488,386.541,76.1455Q387.143,75.7422,387.827,74.8809ZM383.452,73.8418Q384.928,73.1855,385.721,72.3789Q386.254,71.832,386.582,71.2031Q386.911,70.5742,386.911,70.0684Q386.911,69.4258,386.323,69.4258Q385.434,69.4258,384.525,70.8271Q383.616,72.2285,383.452,73.8418ZM398.127,68.9199L396.842,73.9238Q396.637,74.7441,396.637,75.209Q396.637,75.6191,396.815,75.9199Q396.992,76.2207,397.252,76.2207Q397.648,76.2207,398.565,75.25L398.756,75.4414L398.606,75.6191Q397.881,76.4531,397.491,76.7881Q397.102,77.123,396.815,77.123Q396.377,77.123,396.056,76.66499999999999Q395.734,76.207,395.734,75.6055Q395.734,75.168,396.063,73.623L396.172,73.1035Q395.666,74.2793,394.818,75.3594Q393.397,77.1641,392.098,77.1641Q391.318,77.1641,390.867,76.6035Q390.416,76.043,390.416,75.0996Q390.416,73.8145,391.148,72.4062Q391.879,70.998,392.966,70.0889Q394.053,69.1797,395.078,69.1797Q396.158,69.1797,396.691,69.9727L396.842,69.4531L398.127,68.9199ZM396.555,70.6699Q396.391,70.1504,396.001,69.85640000000001Q395.611,69.5625,395.106,69.5625Q394.504,69.5625,393.834,70.11619999999999Q393.164,70.6699,392.604,71.6543Q392.166,72.4336,391.872,73.377Q391.578,74.3203,391.578,74.9355Q391.578,75.6328,391.845,76.0293Q392.111,76.4258,392.604,76.4258Q393.232,76.4258,393.916,75.8379Q394.6,75.25,395.27,74.1562Q395.68,73.5273,395.912,72.8984Q396.145,72.2695,396.432,71.1484L396.555,70.6699ZM400.17,76.125L400.935,75.2227Q401.537,76.6445,402.849,76.6445Q403.533,76.6445,404.018,76.2002Q404.504,75.7559,404.504,75.168Q404.504,74.7441,404.271,74.4434Q404.039,74.1426,403.164,73.4316Q402.357,72.7754,402.077,72.3994Q401.797,72.0234,401.797,71.5312Q401.797,70.8887,402.173,70.3418Q402.548,69.7949,403.177,69.46000000000001Q403.806,69.125,404.504,69.125Q405.119,69.125,405.536,69.43260000000001Q405.953,69.7402,405.953,70.2188Q405.953,70.8477,405.42,71.0801Q405.338,70.4375,404.934,70.0752Q404.531,69.7129,403.902,69.7129Q403.341,69.7129,402.924,70.0752Q402.507,70.4375,402.507,70.9023Q402.507,71.4766,403.218,72.0371L404.011,72.6797Q405.173,73.5957,405.173,74.5527Q405.173,75.2637,404.77,75.8857Q404.367,76.5078,403.676,76.877Q402.986,77.2461,402.22,77.2461Q401.004,77.2461,400.17,76.125ZM413.874,74.8809L414.12,75.0859Q413.273,76.207,412.466,76.70609999999999Q411.659,77.2051,410.73,77.2051Q409.622,77.2051,408.952,76.4668Q408.282,75.7285,408.282,74.5117Q408.282,73.2812,408.932,72.0166Q409.581,70.752,410.559,69.9248Q411.536,69.0977,412.493,69.0977Q413.054,69.0977,413.416,69.4258Q413.779,69.7539,413.779,70.2734Q413.779,71.3262,412.63,72.3789Q411.482,73.4316,409.499,74.1699Q409.486,74.2793,409.486,74.416Q409.486,75.3594,410.005,75.9541Q410.525,76.5488,411.345,76.5488Q411.988,76.5488,412.589,76.1455Q413.191,75.7422,413.874,74.8809ZM409.499,73.8418Q410.976,73.1855,411.769,72.3789Q412.302,71.832,412.63,71.2031Q412.958,70.5742,412.958,70.0684Q412.958,69.4258,412.37,69.4258Q411.482,69.4258,410.573,70.8271Q409.663,72.2285,409.499,73.8418ZM428.459,74.9492Q427.625,76.125,426.839,76.66499999999999Q426.053,77.2051,425.096,77.2051Q424.043,77.2051,423.38,76.4668Q422.717,75.7285,422.717,74.5527Q422.717,73.3223,423.36,72.0508Q424.002,70.7793,425.007,69.9453Q426.012,69.1113,426.942,69.1113Q427.571,69.1113,427.954,69.46000000000001Q428.336,69.8086,428.336,70.3965Q428.336,70.9297,427.933,71.41499999999999Q427.53,71.9004,427.065,71.9004Q426.86,71.9004,426.696,71.7363Q427.584,71.3398,427.584,70.2598Q427.584,69.877,427.386,69.66499999999999Q427.188,69.4531,426.86,69.4531Q426.354,69.4531,425.841,69.8633Q425.329,70.2734,424.877,71.00489999999999Q424.426,71.7363,424.173,72.5635Q423.92,73.3906,423.92,74.2383Q423.92,75.25,424.399,75.8789Q424.877,76.5078,425.657,76.5078Q426.327,76.5078,426.956,76.084Q427.584,75.6602,428.268,74.7852L428.459,74.9492ZM430.748,77.1367L434.385,58.433594L435.82,57.736328L432.033,74.3887Q432.088,74.293,432.088,74.2656L432.402,73.5547Q433.209,71.7227,434.426,70.3828Q435.574,69.1387,436.545,69.1387Q437.065,69.1387,437.379,69.4736Q437.693,69.8086,437.693,70.3691Q437.693,70.6836,437.543,71.2578L437.406,71.832L436.982,73.5L436.859,74.0332Q436.654,74.8535,436.654,75.291Q436.654,75.7285,436.805,75.99510000000001Q436.955,76.2617,437.201,76.2617Q437.625,76.2617,438.555,75.25L438.76,75.4414L438.637,75.5918Q437.857,76.5078,437.482,76.8291Q437.106,77.1504,436.805,77.1504Q436.381,77.1504,436.08,76.6992Q435.779,76.248,435.779,75.6465Q435.779,75.2773,435.957,74.3477L436.477,71.4492Q436.6,70.8066,436.6,70.4922Q436.6,70.2051,436.449,70.0547Q436.299,69.9043,436.039,69.9043Q435.533,69.9043,434.877,70.499Q434.221,71.0938,433.558,72.1465Q432.895,73.1992,432.402,74.3955Q431.91,75.5918,431.664,76.8496L430.748,77.1367ZM440.925,74.375Q440.925,73.1445,441.589,71.9209Q442.252,70.6973,443.304,69.9316Q444.357,69.166,445.451,69.166Q446.599,69.166,447.303,69.9248Q448.007,70.6836,448.007,71.8867Q448.007,73.1992,447.358,74.4297Q446.709,75.6602,445.649,76.44630000000001Q444.59,77.2324,443.509,77.2324Q442.347,77.2324,441.636,76.44630000000001Q440.925,75.6602,440.925,74.375ZM446.777,71.3672Q446.777,70.5469,446.374,70.0137Q445.97,69.4805,445.341,69.4805Q444.767,69.4805,444.241,69.8496Q443.715,70.2188,443.277,70.9297Q442.785,71.75,442.464,72.8438Q442.142,73.9375,442.142,74.7852Q442.142,75.7969,442.539,76.3438Q442.935,76.8906,443.673,76.8906Q444.863,76.8906,445.765,75.2363Q446.23,74.3887,446.504,73.3359Q446.777,72.2832,446.777,71.3672ZM450.529,74.375Q450.529,73.1445,451.192,71.9209Q451.855,70.6973,452.907,69.9316Q453.96,69.166,455.054,69.166Q456.202,69.166,456.906,69.9248Q457.611,70.6836,457.611,71.8867Q457.611,73.1992,456.961,74.4297Q456.312,75.6602,455.252,76.44630000000001Q454.193,77.2324,453.113,77.2324Q451.95,77.2324,451.24,76.44630000000001Q450.529,75.6602,450.529,74.375ZM456.38,71.3672Q456.38,70.5469,455.977,70.0137Q455.573,69.4805,454.945,69.4805Q454.37,69.4805,453.844,69.8496Q453.318,70.2188,452.88,70.9297Q452.388,71.75,452.067,72.8438Q451.745,73.9375,451.745,74.7852Q451.745,75.7969,452.142,76.3438Q452.538,76.8906,453.277,76.8906Q454.466,76.8906,455.368,75.2363Q455.833,74.3887,456.107,73.3359Q456.38,72.2832,456.38,71.3672ZM459.38,76.125L460.145,75.2227Q460.747,76.6445,462.059,76.6445Q462.743,76.6445,463.228,76.2002Q463.714,75.7559,463.714,75.168Q463.714,74.7441,463.481,74.4434Q463.249,74.1426,462.374,73.4316Q461.567,72.7754,461.287,72.3994Q461.007,72.0234,461.007,71.5312Q461.007,70.8887,461.383,70.3418Q461.759,69.7949,462.388,69.46000000000001Q463.016,69.125,463.714,69.125Q464.329,69.125,464.746,69.43260000000001Q465.163,69.7402,465.163,70.2188Q465.163,70.8477,464.63,71.0801Q464.548,70.4375,464.144,70.0752Q463.741,69.7129,463.112,69.7129Q462.552,69.7129,462.135,70.0752Q461.718,70.4375,461.718,70.9023Q461.718,71.4766,462.429,72.0371L463.222,72.6797Q464.384,73.5957,464.384,74.5527Q464.384,75.2637,463.98,75.8857Q463.577,76.5078,462.887,76.877Q462.196,77.2461,461.431,77.2461Q460.214,77.2461,459.38,76.125ZM473.084,74.8809L473.331,75.0859Q472.483,76.207,471.676,76.70609999999999Q470.87,77.2051,469.94,77.2051Q468.832,77.2051,468.163,76.4668Q467.493,75.7285,467.493,74.5117Q467.493,73.2812,468.142,72.0166Q468.791,70.752,469.769,69.9248Q470.747,69.0977,471.704,69.0977Q472.264,69.0977,472.626,69.4258Q472.989,69.7539,472.989,70.2734Q472.989,71.3262,471.84,72.3789Q470.692,73.4316,468.709,74.1699Q468.696,74.2793,468.696,74.416Q468.696,75.3594,469.215,75.9541Q469.735,76.5488,470.555,76.5488Q471.198,76.5488,471.799,76.1455Q472.401,75.7422,473.084,74.8809ZM468.709,73.8418Q470.186,73.1855,470.979,72.3789Q471.512,71.832,471.84,71.2031Q472.168,70.5742,472.168,70.0684Q472.168,69.4258,471.581,69.4258Q470.692,69.4258,469.783,70.8271Q468.874,72.2285,468.709,73.8418ZM480.711,81.8535L481.381,80.9512Q482.173,81.7988,483.172,81.7988Q484.224,81.7988,484.867,80.9648Q485.509,80.1309,485.92,78.2305L486.548,75.4004Q485.045,77.1641,483.828,77.1641Q483.117,77.1641,482.714,76.7266Q482.31,76.2891,482.31,75.5508Q482.31,75.0586,482.433,74.4707L483.363,69.5625L484.689,69.002L483.363,74.5117Q483.199,75.1816,483.199,75.5098Q483.199,75.9746,483.479,76.26859999999999Q483.759,76.5625,484.224,76.5625Q484.73,76.5625,485.339,76.1182Q485.947,75.6738,486.699,74.7852L487.875,69.5625L489.16,69.002L487.164,77.041Q486.808,78.4902,486.487,79.3105Q486.166,80.1309,485.742,80.6777Q484.402,82.4004,482.474,82.4004Q481.353,82.4004,480.711,81.8535ZM491.503,74.375Q491.503,73.1445,492.166,71.9209Q492.829,70.6973,493.882,69.9316Q494.935,69.166,496.029,69.166Q497.177,69.166,497.881,69.9248Q498.585,70.6836,498.585,71.8867Q498.585,73.1992,497.936,74.4297Q497.286,75.6602,496.227,76.44630000000001Q495.167,77.2324,494.087,77.2324Q492.925,77.2324,492.214,76.44630000000001Q491.503,75.6602,491.503,74.375ZM497.355,71.3672Q497.355,70.5469,496.951,70.0137Q496.548,69.4805,495.919,69.4805Q495.345,69.4805,494.819,69.8496Q494.292,70.2188,493.855,70.9297Q493.363,71.75,493.041,72.8438Q492.72,73.9375,492.72,74.7852Q492.72,75.7969,493.116,76.3438Q493.513,76.8906,494.251,76.8906Q495.441,76.8906,496.343,75.2363Q496.808,74.3887,497.081,73.3359Q497.355,72.2832,497.355,71.3672ZM503.882,69.002L502.556,74.293Q502.378,75.0039,502.378,75.4961Q502.378,75.9746,502.679,76.2617Q502.979,76.5488,503.458,76.5488Q504.62,76.5488,505.878,74.6484L505.932,74.5664Q505.96,74.4297,505.973,74.3477L506.835,69.5625L508.175,69.002L506.972,73.5Q506.671,74.6074,506.671,75.2773Q506.671,75.7148,506.821,75.9883Q506.972,76.2617,507.218,76.2617Q507.641,76.2617,508.571,75.25L508.79,75.4414L508.653,75.5918Q507.874,76.5078,507.505,76.8291Q507.136,77.1504,506.821,77.1504Q506.397,77.1504,506.103,76.7197Q505.809,76.2891,505.809,75.6465Q505.809,75.4414,505.823,75.2637Q504.401,77.1504,503.007,77.1504Q502.309,77.1504,501.892,76.7471Q501.475,76.3438,501.475,75.6738Q501.475,75.1543,501.626,74.4023L502.556,69.5625L503.882,69.002ZM510.942,73.1172Q512.118,71.6953,512.514,70.4648Q511.407,69.8496,511.407,68.7012Q511.407,68.1543,511.666,67.8125Q511.926,67.4707,512.323,67.4707Q512.733,67.4707,512.993,67.84667999999999Q513.252,68.2227,513.252,68.8242Q513.252,69.248,513.102,69.7676Q513.471,69.8633,513.772,69.8633Q514.62,69.8633,515.166,69.3711L515.823,69.3711L515.727,69.5625Q514.743,71.3672,514.107,73.1104Q513.471,74.8535,513.471,75.7148Q513.471,76.0293,513.635,76.24119999999999Q513.799,76.4531,514.032,76.4531Q514.592,76.4531,515.836,75.2637L516.055,75.5098Q515.672,75.9336,514.866,76.5625Q514.141,77.1367,513.512,77.1367Q512.979,77.1367,512.671,76.7812Q512.364,76.4258,512.364,75.8105Q512.364,74.7852,513.157,73.2129Q513.444,72.625,513.895,71.873Q514.346,71.1211,515.03,70.082L515.166,69.8906Q514.715,70.3008,514.298,70.4717Q513.881,70.6426,513.348,70.6426Q513.102,70.6426,512.829,70.5742Q512.391,71.9141,511.188,73.3359L510.942,73.1172ZM512.815,69.6445Q512.87,69.3027,512.87,69.0703Q512.87,68.5918,512.712,68.3184Q512.555,68.0449,512.309,68.0449Q512.172,68.0449,512.07,68.1748Q511.967,68.3047,511.967,68.4961Q511.967,69.1387,512.815,69.6445ZM526.347,69.6992L525.007,69.6992L525.103,69.2344L526.457,69.2344L527.742,63.23242Q528.07,61.74219,528.412,60.85352Q528.754,59.96484,529.232,59.32227Q530.408,57.75,532.158,57.75Q532.746,57.75,533.238,57.9414062L532.746,59.18555Q532.199,58.419922,531.351,58.419922Q530.709,58.419922,530.305,58.918945Q529.902,59.41797,529.615,60.56641L527.523,69.2344L529.724,69.2344L529.629,69.6992L527.414,69.6992L525.541,77.4648Q525.172,79.0234,524.823,79.7891Q524.474,80.5547,523.873,81.2109Q522.779,82.4004,521.48,82.4004Q520.851,82.4004,520.359,82.1816L521.029,81.1973Q521.603,81.6621,522.273,81.6621Q523.285,81.6621,523.791,80.5957Q524.16,79.8027,524.57,77.9707L526.347,69.6992ZM538.247,68.9199L536.962,73.9238Q536.757,74.7441,536.757,75.209Q536.757,75.6191,536.935,75.9199Q537.113,76.2207,537.372,76.2207Q537.769,76.2207,538.685,75.25L538.876,75.4414L538.726,75.6191Q538.001,76.4531,537.612,76.7881Q537.222,77.123,536.935,77.123Q536.497,77.123,536.176,76.66499999999999Q535.855,76.207,535.855,75.6055Q535.855,75.168,536.183,73.623L536.292,73.1035Q535.786,74.2793,534.939,75.3594Q533.517,77.1641,532.218,77.1641Q531.439,77.1641,530.988,76.6035Q530.536,76.043,530.536,75.0996Q530.536,73.8145,531.268,72.4062Q531.999,70.998,533.086,70.0889Q534.173,69.1797,535.198,69.1797Q536.279,69.1797,536.812,69.9727L536.962,69.4531L538.247,68.9199ZM536.675,70.6699Q536.511,70.1504,536.121,69.85640000000001Q535.732,69.5625,535.226,69.5625Q534.624,69.5625,533.954,70.11619999999999Q533.284,70.6699,532.724,71.6543Q532.286,72.4336,531.992,73.377Q531.698,74.3203,531.698,74.9355Q531.698,75.6328,531.965,76.0293Q532.232,76.4258,532.724,76.4258Q533.353,76.4258,534.036,75.8379Q534.72,75.25,535.39,74.1562Q535.8,73.5273,536.032,72.8984Q536.265,72.2695,536.552,71.1484L536.675,70.6699ZM541.411,69.5625L542.641,69.002L542.641,69.3574Q542.682,71.3535,542.874,73.5547Q542.983,74.7031,543.065,75.2568Q543.147,75.8105,543.257,76.002Q543.366,76.1934,543.557,76.1934Q544.063,76.1934,545.362,74.2656Q546.524,72.5703,546.524,71.1348Q546.524,70.6289,546.401,70.29390000000001Q546.278,69.959,545.936,69.6172L546.962,68.6602Q547.44,69.2891,547.44,70.1914Q547.44,72.0098,545.28,74.9902Q544.624,75.8926,543.886,76.6035Q543.544,76.918,543.332,77.0479Q543.12,77.1777,542.915,77.1777Q542.587,77.1777,542.436,76.918Q542.286,76.6582,542.204,75.9336L541.411,69.5625ZM549.592,74.375Q549.592,73.1445,550.255,71.9209Q550.918,70.6973,551.971,69.9316Q553.024,69.166,554.118,69.166Q555.266,69.166,555.97,69.9248Q556.674,70.6836,556.674,71.8867Q556.674,73.1992,556.025,74.4297Q555.375,75.6602,554.316,76.44630000000001Q553.256,77.2324,552.176,77.2324Q551.014,77.2324,550.303,76.44630000000001Q549.592,75.6602,549.592,74.375ZM555.444,71.3672Q555.444,70.5469,555.04,70.0137Q554.637,69.4805,554.008,69.4805Q553.434,69.4805,552.908,69.8496Q552.381,70.2188,551.944,70.9297Q551.452,71.75,551.13,72.8438Q550.809,73.9375,550.809,74.7852Q550.809,75.7969,551.205,76.3438Q551.602,76.8906,552.34,76.8906Q553.53,76.8906,554.432,75.2363Q554.897,74.3887,555.17,73.3359Q555.444,72.2832,555.444,71.3672ZM561.971,69.002L560.645,74.293Q560.467,75.0039,560.467,75.4961Q560.467,75.9746,560.768,76.2617Q561.068,76.5488,561.547,76.5488Q562.709,76.5488,563.967,74.6484L564.021,74.5664Q564.049,74.4297,564.062,74.3477L564.924,69.5625L566.264,69.002L565.061,73.5Q564.76,74.6074,564.76,75.2773Q564.76,75.7148,564.91,75.9883Q565.061,76.2617,565.307,76.2617Q565.73,76.2617,566.66,75.25L566.879,75.4414L566.742,75.5918Q565.963,76.5078,565.594,76.8291Q565.225,77.1504,564.91,77.1504Q564.486,77.1504,564.192,76.7197Q563.898,76.2891,563.898,75.6465Q563.898,75.4414,563.912,75.2637Q562.49,77.1504,561.096,77.1504Q560.398,77.1504,559.981,76.7471Q559.564,76.3438,559.564,75.6738Q559.564,75.1543,559.715,74.4023L560.645,69.5625L561.971,69.002ZM569.031,73.1172Q570.207,71.6953,570.603,70.4648Q569.496,69.8496,569.496,68.7012Q569.496,68.1543,569.755,67.8125Q570.015,67.4707,570.412,67.4707Q570.822,67.4707,571.082,67.84667999999999Q571.341,68.2227,571.341,68.8242Q571.341,69.248,571.191,69.7676Q571.56,69.8633,571.861,69.8633Q572.709,69.8633,573.255,69.3711L573.912,69.3711L573.816,69.5625Q572.832,71.3672,572.196,73.1104Q571.56,74.8535,571.56,75.7148Q571.56,76.0293,571.724,76.24119999999999Q571.888,76.4531,572.121,76.4531Q572.681,76.4531,573.925,75.2637L574.144,75.5098Q573.761,75.9336,572.955,76.5625Q572.23,77.1367,571.601,77.1367Q571.068,77.1367,570.76,76.7812Q570.453,76.4258,570.453,75.8105Q570.453,74.7852,571.246,73.2129Q571.533,72.625,571.984,71.873Q572.435,71.1211,573.119,70.082L573.255,69.8906Q572.804,70.3008,572.387,70.4717Q571.97,70.6426,571.437,70.6426Q571.191,70.6426,570.918,70.5742Q570.48,71.9141,569.277,73.3359L569.031,73.1172ZM570.904,69.6445Q570.959,69.3027,570.959,69.0703Q570.959,68.5918,570.801,68.3184Q570.644,68.0449,570.398,68.0449Q570.261,68.0449,570.159,68.1748Q570.056,68.3047,570.056,68.4961Q570.056,69.1387,570.904,69.6445ZM579.618,63.64258Q579.974,63.64258,580.193,63.86133Q580.411,64.08008,580.411,64.43555Q580.411,64.77734,580.179,65.00977Q579.946,65.24219,579.618,65.24219Q579.304,65.24219,579.058,64.99609Q578.812,64.75,578.812,64.43555Q578.812,64.10742,579.044,63.875Q579.277,63.64258,579.618,63.64258ZM579.222,69.002L578.019,73.5Q577.718,74.6074,577.718,75.2773Q577.718,75.7148,577.868,75.9883Q578.019,76.2617,578.265,76.2617Q578.689,76.2617,579.618,75.25L579.837,75.4414L579.7,75.5918Q578.921,76.5078,578.552,76.8291Q578.183,77.1504,577.868,77.1504Q577.445,77.1504,577.151,76.7197Q576.857,76.2891,576.857,75.6465Q576.857,75.2363,577.021,74.3477L577.882,69.5625L579.222,69.002ZM584.532,69.6992L583.493,74.252Q583.329,75.0039,583.329,75.3184Q583.329,75.8105,583.561,76.1113Q583.794,76.4121,584.177,76.4121Q584.546,76.4121,584.853,76.2002Q585.161,75.9883,585.79,75.3184L585.954,75.1543L586.159,75.3594Q585.352,76.3438,584.812,76.7471Q584.272,77.1504,583.753,77.1504Q583.096,77.1504,582.707,76.7197Q582.317,76.2891,582.317,75.5918Q582.317,75.0723,582.522,74.0879L583.411,69.6992L582.098,69.6992L582.194,69.2344L583.507,69.2344L584.272,65.54297L585.585,65.02344L584.628,69.2344L586.843,69.2344L586.747,69.6992L584.532,69.6992ZM593.93,74.8809L594.176,75.0859Q593.328,76.207,592.522,76.70609999999999Q591.715,77.2051,590.786,77.2051Q589.678,77.2051,589.008,76.4668Q588.338,75.7285,588.338,74.5117Q588.338,73.2812,588.988,72.0166Q589.637,70.752,590.615,69.9248Q591.592,69.0977,592.549,69.0977Q593.11,69.0977,593.472,69.4258Q593.834,69.7539,593.834,70.2734Q593.834,71.3262,592.686,72.3789Q591.537,73.4316,589.555,74.1699Q589.541,74.2793,589.541,74.416Q589.541,75.3594,590.061,75.9541Q590.58,76.5488,591.401,76.5488Q592.043,76.5488,592.645,76.1455Q593.246,75.7422,593.93,74.8809ZM589.555,73.8418Q591.032,73.1855,591.825,72.3789Q592.358,71.832,592.686,71.2031Q593.014,70.5742,593.014,70.0684Q593.014,69.4258,592.426,69.4258Q591.537,69.4258,590.628,70.8271Q589.719,72.2285,589.555,73.8418ZM602.021,76.125L602.787,75.2227Q603.388,76.6445,604.701,76.6445Q605.384,76.6445,605.87,76.2002Q606.355,75.7559,606.355,75.168Q606.355,74.7441,606.123,74.4434Q605.89,74.1426,605.015,73.4316Q604.209,72.7754,603.928,72.3994Q603.648,72.0234,603.648,71.5312Q603.648,70.8887,604.024,70.3418Q604.4,69.7949,605.029,69.46000000000001Q605.658,69.125,606.355,69.125Q606.97,69.125,607.387,69.43260000000001Q607.804,69.7402,607.804,70.2188Q607.804,70.8477,607.271,71.0801Q607.189,70.4375,606.786,70.0752Q606.382,69.7129,605.753,69.7129Q605.193,69.7129,604.776,70.0752Q604.359,70.4375,604.359,70.9023Q604.359,71.4766,605.07,72.0371L605.863,72.6797Q607.025,73.5957,607.025,74.5527Q607.025,75.2637,606.622,75.8857Q606.218,76.5078,605.528,76.877Q604.837,77.2461,604.072,77.2461Q602.855,77.2461,602.021,76.125ZM612.745,69.6992L611.706,74.252Q611.542,75.0039,611.542,75.3184Q611.542,75.8105,611.775,76.1113Q612.007,76.4121,612.39,76.4121Q612.759,76.4121,613.067,76.2002Q613.374,75.9883,614.003,75.3184L614.167,75.1543L614.372,75.3594Q613.566,76.3438,613.026,76.7471Q612.485,77.1504,611.966,77.1504Q611.31,77.1504,610.92,76.7197Q610.53,76.2891,610.53,75.5918Q610.53,75.0723,610.735,74.0879L611.624,69.6992L610.312,69.6992L610.407,69.2344L611.72,69.2344L612.485,65.54297L613.798,65.02344L612.841,69.2344L615.056,69.2344L614.96,69.6992L612.745,69.6992ZM619.682,63.64258Q620.038,63.64258,620.257,63.86133Q620.475,64.08008,620.475,64.43555Q620.475,64.77734,620.243,65.00977Q620.01,65.24219,619.682,65.24219Q619.368,65.24219,619.122,64.99609Q618.876,64.75,618.876,64.43555Q618.876,64.10742,619.108,63.875Q619.341,63.64258,619.682,63.64258ZM619.286,69.002L618.083,73.5Q617.782,74.6074,617.782,75.2773Q617.782,75.7148,617.932,75.9883Q618.083,76.2617,618.329,76.2617Q618.753,76.2617,619.682,75.25L619.901,75.4414L619.764,75.5918Q618.985,76.5078,618.616,76.8291Q618.247,77.1504,617.932,77.1504Q617.509,77.1504,617.215,76.7197Q616.921,76.2891,616.921,75.6465Q616.921,75.2363,617.085,74.3477L617.946,69.5625L619.286,69.002ZM627.727,74.9492Q626.893,76.125,626.107,76.66499999999999Q625.321,77.2051,624.364,77.2051Q623.311,77.2051,622.648,76.4668Q621.985,75.7285,621.985,74.5527Q621.985,73.3223,622.627,72.0508Q623.27,70.7793,624.275,69.9453Q625.28,69.1113,626.209,69.1113Q626.838,69.1113,627.221,69.46000000000001Q627.604,69.8086,627.604,70.3965Q627.604,70.9297,627.201,71.41499999999999Q626.797,71.9004,626.332,71.9004Q626.127,71.9004,625.963,71.7363Q626.852,71.3398,626.852,70.2598Q626.852,69.877,626.654,69.66499999999999Q626.455,69.4531,626.127,69.4531Q625.621,69.4531,625.109,69.8633Q624.596,70.2734,624.145,71.00489999999999Q623.694,71.7363,623.441,72.5635Q623.188,73.3906,623.188,74.2383Q623.188,75.25,623.666,75.8789Q624.145,76.5078,624.924,76.5078Q625.594,76.5078,626.223,76.084Q626.852,75.6602,627.536,74.7852L627.727,74.9492ZM635.156,57.736328L631.437,73.9102Q631.752,73.1719,632.189,72.4883Q632.627,71.8047,633.187,71.1553Q633.748,70.5059,634.268,70.0957Q634.937,69.5625,635.614,69.3027Q636.291,69.043,637.139,69.002L636.893,70.0957Q636.482,70.0137,636.277,70.0137Q634.664,70.0137,633.269,71.6406Q633.83,73.1445,634.459,74.3477Q634.814,75.0449,635.081,75.4619Q635.348,75.8789,635.573,76.0703Q635.799,76.2617,636.018,76.2617Q636.537,76.2617,637.33,75.4277L637.439,75.3047L637.617,75.5098Q636.236,77.1777,635.607,77.1777Q635.184,77.1777,634.814,76.8086Q634.445,76.4395,633.953,75.5371Q633.092,73.9648,632.545,72.5566Q631.26,74.6758,630.904,76.8359L630.016,77.123L633.68,58.433594L635.156,57.736328ZM645.169,74.8809L645.416,75.0859Q644.568,76.207,643.761,76.70609999999999Q642.955,77.2051,642.025,77.2051Q640.917,77.2051,640.248,76.4668Q639.578,75.7285,639.578,74.5117Q639.578,73.2812,640.227,72.0166Q640.876,70.752,641.854,69.9248Q642.832,69.0977,643.789,69.0977Q644.349,69.0977,644.711,69.4258Q645.074,69.7539,645.074,70.2734Q645.074,71.3262,643.925,72.3789Q642.777,73.4316,640.794,74.1699Q640.781,74.2793,640.781,74.416Q640.781,75.3594,641.3,75.9541Q641.82,76.5488,642.64,76.5488Q643.283,76.5488,643.884,76.1455Q644.486,75.7422,645.169,74.8809ZM640.794,73.8418Q642.271,73.1855,643.064,72.3789Q643.597,71.832,643.925,71.2031Q644.253,70.5742,644.253,70.0684Q644.253,69.4258,643.666,69.4258Q642.777,69.4258,641.868,70.8271Q640.958,72.2285,640.794,73.8418ZM647.759,73.1172Q648.935,71.6953,649.331,70.4648Q648.224,69.8496,648.224,68.7012Q648.224,68.1543,648.484,67.8125Q648.743,67.4707,649.14,67.4707Q649.55,67.4707,649.81,67.84667999999999Q650.069,68.2227,650.069,68.8242Q650.069,69.248,649.919,69.7676Q650.288,69.8633,650.589,69.8633Q651.437,69.8633,651.984,69.3711L652.64,69.3711L652.544,69.5625Q651.56,71.3672,650.924,73.1104Q650.288,74.8535,650.288,75.7148Q650.288,76.0293,650.452,76.24119999999999Q650.616,76.4531,650.849,76.4531Q651.409,76.4531,652.653,75.2637L652.872,75.5098Q652.489,75.9336,651.683,76.5625Q650.958,77.1367,650.329,77.1367Q649.796,77.1367,649.488,76.7812Q649.181,76.4258,649.181,75.8105Q649.181,74.7852,649.974,73.2129Q650.261,72.625,650.712,71.873Q651.163,71.1211,651.847,70.082L651.984,69.8906Q651.532,70.3008,651.115,70.4717Q650.698,70.6426,650.165,70.6426Q649.919,70.6426,649.646,70.5742Q649.208,71.9141,648.005,73.3359L647.759,73.1172ZM649.632,69.6445Q649.687,69.3027,649.687,69.0703Q649.687,68.5918,649.529,68.3184Q649.372,68.0449,649.126,68.0449Q648.989,68.0449,648.887,68.1748Q648.784,68.3047,648.784,68.4961Q648.784,69.1387,649.632,69.6445ZM654.464,76.125L655.229,75.2227Q655.831,76.6445,657.143,76.6445Q657.827,76.6445,658.312,76.2002Q658.798,75.7559,658.798,75.168Q658.798,74.7441,658.565,74.4434Q658.333,74.1426,657.458,73.4316Q656.651,72.7754,656.371,72.3994Q656.091,72.0234,656.091,71.5312Q656.091,70.8887,656.467,70.3418Q656.843,69.7949,657.471,69.46000000000001Q658.1,69.125,658.798,69.125Q659.413,69.125,659.83,69.43260000000001Q660.247,69.7402,660.247,70.2188Q660.247,70.8477,659.714,71.0801Q659.632,70.4375,659.228,70.0752Q658.825,69.7129,658.196,69.7129Q657.635,69.7129,657.219,70.0752Q656.802,70.4375,656.802,70.9023Q656.802,71.4766,657.512,72.0371L658.305,72.6797Q659.468,73.5957,659.468,74.5527Q659.468,75.2637,659.064,75.8857Q658.661,76.5078,657.97,76.877Q657.28,77.2461,656.514,77.2461Q655.298,77.2461,654.464,76.125Z" fill="#000000" fill-opacity="1"/></g></g></svg>