<svg xmlns="http://www.w3.org/2000/svg" xmlns:xlink="http://www.w3.org/1999/xlink" fill="none" version="1.1" width="94" height="22" viewBox="0 0 94 22"><g><path d="M8.65723,2.55762L11.0303,4.87793Q10.8545,5.00098,10.5293,5.00977Q10.2041,5.01855,9.73828,4.84277Q8.62207,5.03613,7.12793,5.18555L7.12793,6.64453L8.36719,6.64453L9.51855,5.15039L9.87891,5.41406Q10.2393,5.7041,10.7271,6.09961Q11.2148,6.49512,11.6104,6.85547Q11.54,7.14551,11.1094,7.14551L7.12793,7.14551L7.12793,13.3945Q8.53418,13.623,9.36035,14.0977Q10.2041,14.5811,10.5732,15.1479Q10.9424,15.7148,10.9248,16.2378Q10.9072,16.7607,10.6216,17.1123Q10.3359,17.4639,9.85693,17.5078Q9.37793,17.5518,8.82422,17.1738Q8.69238,16.5234,8.39795,15.8599Q8.10352,15.1963,7.72559,14.5635Q7.41797,14.1152,7.12793,13.7373L7.12793,19.0635Q7.11035,19.1689,6.61377,19.4326Q6.11719,19.6963,5.29102,19.6963L4.87793,19.6963L4.87793,15.9082Q4.03418,16.6465,3.02344,17.2793Q1.80176,18.0352,0.413086,18.5361L0.290039,18.3428Q1.40625,17.5693,2.37744,16.3345Q3.34863,15.0996,4.08691,13.623Q4.55273,12.6738,4.87793,11.6807L4.87793,7.14551L0.650391,7.14551L0.500977,6.64453L4.87793,6.64453L4.87793,5.37891Q4.42969,5.39648,3.96387,5.41406Q2.32031,5.51074,0.808594,5.51074L0.773438,5.29102Q1.78418,5.05371,2.8916,4.72412Q3.99902,4.39453,5.07568,4.02539Q6.15234,3.65625,7.07959,3.27832Q8.00684,2.90039,8.65723,2.55762ZM14.5283,2.91797L17.5166,3.20801Q17.499,3.40137,17.3452,3.52881Q17.1914,3.65625,16.8486,3.70898L16.8486,16.9893Q16.8486,17.7803,16.6597,18.3472Q16.4707,18.9141,15.8511,19.248Q15.2314,19.582,13.9482,19.6963Q13.9131,19.1162,13.8252,18.7119Q13.7373,18.3076,13.5176,18.0352Q13.2979,17.7627,12.9771,17.5737Q12.6562,17.3848,11.9707,17.2617L11.9707,17.0244L12.2607,17.042Q12.5244,17.0684,12.9111,17.0859Q13.2979,17.1035,13.6582,17.1211Q14.0186,17.1387,14.168,17.1387Q14.3613,17.1387,14.4448,17.064Q14.5283,16.9893,14.5283,16.8311L14.5283,2.91797ZM11.6631,4.05176L14.2559,4.29785Q14.2383,4.46484,14.1108,4.5835Q13.9834,4.70215,13.6582,4.75488L13.6582,14.7568Q13.6582,14.8535,13.4165,14.9854Q13.1748,15.1172,12.7969,15.2271Q12.4189,15.3369,12.041,15.3369L11.6631,15.3369L11.6631,4.05176ZM7.76074,7.59375L9.93164,7.7959Q9.89648,8.17383,9.43066,8.24414L9.43066,9.34277Q9.55371,9.1582,9.70312,8.92969Q10.0283,8.44629,10.2217,8.10352L11.5225,9.65039Q11.4521,9.7207,11.3159,9.72949Q11.1797,9.73828,10.96,9.63281Q10.6523,9.70312,10.1514,9.77344Q9.73828,9.82617,9.43066,9.87891L9.43066,11.0918Q9.43066,11.2148,9.46582,11.2676Q9.50098,11.3203,9.59766,11.3203L9.93164,11.3203Q10.0986,11.3203,10.1865,11.2324Q10.2744,11.1445,10.4019,10.8984Q10.5293,10.6523,10.6348,10.3535L10.8369,10.3535L10.8896,11.25Q11.1973,11.373,11.2939,11.5356Q11.3906,11.6982,11.3906,11.9531Q11.3906,12.4189,10.9512,12.709Q10.5117,12.999,9.55371,12.999L9,12.999Q8.17383,12.999,7.96729,12.6826Q7.76074,12.3662,7.76074,11.5928L7.76074,7.59375ZM2.4873,7.61133L4.6582,7.81348Q4.64062,7.93652,4.55273,8.04639Q4.46484,8.15625,4.20996,8.19141L4.20996,12.9023Q4.20996,12.9814,3.99463,13.0869Q3.7793,13.1924,3.4541,13.2759Q3.12891,13.3594,2.80371,13.3594L2.4873,13.3594L2.4873,11.6631Q2.4082,11.7334,2.35547,11.8301Q2.0127,12.2256,1.58203,12.7441Q1.47656,13.1045,1.13379,13.1572L0.483398,11.2676Q0.826172,11.2324,1.49414,11.1445Q1.97754,11.0918,2.4873,11.0127L2.4873,9.61523L0.878906,9.61523L0.720703,9.10547L2.4873,9.10547L2.4873,7.61133ZM20.3766,12.0938L26.441,12.0938L26.441,9.65039L23.6549,9.65039L23.5055,9.14062L28.5152,9.14062L29.8072,7.45312L30.0621,7.62891Q30.2906,7.83105,30.6598,8.1167Q31.0289,8.40234,31.4376,8.73633Q31.8463,9.07031,32.1627,9.36035Q32.0924,9.65039,31.6441,9.65039L29.2887,9.65039L29.2887,12.0938L31.8639,12.0938L33.2086,10.3887L33.4635,10.5645Q33.7184,10.7666,34.0963,11.0522Q34.4742,11.3379,34.8961,11.6719Q35.318,12.0059,35.6607,12.3135Q35.5816,12.6035,35.1334,12.6035L29.2887,12.6035L29.2887,16.6465Q29.2887,17.5166,29.0514,18.1626Q28.8141,18.8086,28.089,19.2041Q27.3639,19.5996,25.8697,19.7139Q25.8258,19.0635,25.7467,18.5933Q25.6676,18.123,25.4127,17.8418Q25.2018,17.5518,24.859,17.3276Q24.5162,17.1035,23.7428,16.9717L23.7428,16.7783L24.0504,16.7959Q24.3316,16.8135,24.7579,16.8311Q25.1842,16.8486,25.5621,16.8662Q25.94,16.8838,26.0982,16.8838Q26.3004,16.8838,26.3707,16.7959Q26.441,16.708,26.441,16.5762L26.441,12.6035L20.5172,12.6035L20.3766,12.0938ZM28.7789,4.22754Q28.1021,5.27344,27.0562,6.28857Q26.0104,7.30371,24.7228,8.22217Q23.4352,9.14062,22.0509,9.8877Q20.6666,10.6348,19.2955,11.127L19.19,10.9424Q20.359,10.1689,21.484,9.12744Q22.609,8.08594,23.5802,6.92139Q24.5514,5.75684,25.2281,4.62305Q25.9049,3.48926,26.151,2.55762L30.0445,3.56836Q29.9918,3.76172,29.7721,3.86279Q29.5523,3.96387,29.0514,4.0166Q29.6842,4.79004,30.6026,5.36572Q31.5211,5.94141,32.5802,6.3457Q33.6393,6.75,34.7203,7.01807Q35.8014,7.28613,36.7418,7.4707L36.7242,7.76074Q36.1441,7.91895,35.7135,8.34961Q35.2828,8.78027,35.0191,9.32959Q34.7555,9.87891,34.6676,10.4062Q33.4107,9.73828,32.2462,8.86377Q31.0816,7.98926,30.1852,6.84668Q29.2887,5.7041,28.7789,4.22754ZM30.1676,13.7021Q31.9869,13.9307,33.0943,14.48Q34.2018,15.0293,34.7247,15.7148Q35.2477,16.4004,35.2916,17.0376Q35.3355,17.6748,35.0279,18.1362Q34.7203,18.5977,34.1622,18.6943Q33.6041,18.791,32.9186,18.3604Q32.6725,17.5518,32.211,16.7212Q31.7496,15.8906,31.1827,15.1436Q30.6158,14.3965,30.027,13.8076L30.1676,13.7021ZM23.1451,13.2627L26.0455,14.8359Q25.9752,14.959,25.8214,15.0293Q25.6676,15.0996,25.36,15.0645Q24.7184,15.8027,23.8263,16.5234Q22.9342,17.2441,21.8355,17.8462Q20.7369,18.4482,19.4977,18.8613L19.3658,18.6855Q20.2359,17.9648,20.9698,17.02Q21.7037,16.0752,22.275,15.0864Q22.8463,14.0977,23.1451,13.2627ZM50.7199,8.49902Q50.6672,8.6748,50.5046,8.79346Q50.342,8.91211,50.008,8.91211Q49.9816,9.14062,49.9465,9.37793Q50.0959,10.4766,50.4035,11.4258Q50.7814,12.6211,51.4626,13.5835Q52.1438,14.5459,53.1809,15.2754Q54.218,16.0049,55.677,16.4883L55.677,16.708Q54.7014,16.9365,54.1433,17.6396Q53.5852,18.3428,53.4445,19.5293Q52.3635,18.8086,51.6516,17.6748Q50.9397,16.541,50.5354,15.1216Q50.1311,13.7021,49.9289,12.0938Q49.841,11.4258,49.7883,10.749Q49.7355,11.127,49.6828,11.5049Q49.4631,12.7617,48.9885,13.9307Q48.5139,15.0996,47.5954,16.1455Q46.677,17.1914,45.1257,18.0835Q43.5744,18.9756,41.2189,19.6699L41.0783,19.4414Q42.7658,18.4307,43.882,17.3672Q44.9982,16.3037,45.6486,15.1919Q46.299,14.0801,46.611,12.8804Q46.923,11.6807,47.0329,10.4106Q47.1428,9.14062,47.1779,7.77832L50.7199,8.49902ZM49.5686,3.52441Q49.5158,3.70898,49.3356,3.80566Q49.1555,3.90234,48.8479,3.90234Q48.3645,5.15039,47.7932,6.21387L51.8801,6.21387L53.2424,4.86035L55.5451,7.05762Q55.4397,7.18066,55.2858,7.2334Q55.132,7.28613,54.8244,7.30371Q54.4113,7.86621,53.8181,8.50342Q53.2248,9.14062,52.5612,9.73828Q51.8977,10.3359,51.2648,10.7842L51.1418,10.6699Q51.3527,10.0107,51.5417,9.19775Q51.7307,8.38477,51.8801,7.59375Q51.968,7.12793,52.0207,6.71484L47.5031,6.71484Q46.9758,7.61133,46.3693,8.34961Q44.9104,10.1514,42.9855,11.3203L42.801,11.1973Q43.5041,10.1338,44.1457,8.74072Q44.7873,7.34766,45.2883,5.74365Q45.7893,4.13965,46.0441,2.4873L49.5686,3.52441ZM39.0744,12.4893Q39.3293,12.4893,39.4567,12.4453Q39.5842,12.4014,39.76,12.1465Q39.927,11.9531,40.0676,11.7729Q40.2082,11.5928,40.4367,11.2588Q40.6652,10.9248,41.0783,10.2876Q41.4914,9.65039,42.2033,8.56055Q42.9152,7.4707,44.0139,5.73926L44.26,5.83594Q44.0314,6.35449,43.7502,7.01807Q43.4689,7.68164,43.1921,8.38477Q42.9152,9.08789,42.6604,9.72949Q42.4055,10.3711,42.2165,10.8721Q42.0275,11.373,41.9397,11.6455Q41.799,12.0586,41.6716,12.5464Q41.5441,13.0342,41.5617,13.3945Q41.5793,13.8252,41.7155,14.1943Q41.8518,14.5635,42.0144,14.9414Q42.177,15.3193,42.2912,15.7939Q42.4055,16.2686,42.3879,16.9365Q42.3703,17.7627,41.8298,18.2329Q41.2893,18.7031,40.5686,18.7031Q40.2258,18.7031,39.8786,18.4614Q39.5314,18.2197,39.382,17.6572Q39.6018,16.541,39.6457,15.5786Q39.6897,14.6162,39.5798,13.9702Q39.4699,13.3242,39.2238,13.1572Q39.0217,13.0166,38.7624,12.9243Q38.5031,12.832,38.1955,12.8145L38.1955,12.4893L39.0744,12.4893ZM39.092,3.40137Q40.5686,3.58594,41.4079,4.04297Q42.2473,4.5,42.5813,5.04932Q42.9152,5.59863,42.8493,6.13037Q42.7834,6.66211,42.4318,7.00488Q42.0803,7.34766,41.5529,7.37402Q41.0256,7.40039,40.4455,6.96973Q40.3928,6.33691,40.1774,5.71729Q39.9621,5.09766,39.6457,4.52197Q39.3293,3.94629,38.9689,3.48926L39.092,3.40137ZM63.3973,12.6387L64.6189,11.4697L66.6316,13.21Q66.491,13.4297,65.9373,13.5Q65.3924,14.8184,64.5135,15.8906Q64.8914,16.0928,65.1023,16.3301Q65.4979,16.7607,65.5374,17.1738Q65.577,17.5869,65.3484,17.9209Q65.1199,18.2549,64.7332,18.3867Q64.3465,18.5186,63.8982,18.3779Q63.45,17.9297,62.782,17.5166Q62.1141,17.9824,61.3055,18.3779Q59.618,19.2217,57.2977,19.6523L57.1834,19.4238Q59.8465,18.4482,61.4197,16.7607Q61.3055,16.708,61.2,16.6465Q60.3738,16.2686,59.5257,16.0005Q58.6775,15.7324,57.9393,15.5918L58.1414,15.2842Q58.3348,14.9414,58.5897,14.4932Q58.9324,13.8604,59.2752,13.1396L57.5086,13.1396L57.3504,12.6387L59.5037,12.6387Q59.7234,12.1641,59.9256,11.7334Q60.1893,11.0918,60.3387,10.6963L60.7166,10.8193L60.7166,9.17578Q60.5672,9.30762,60.4266,9.41309Q59.0203,10.5117,57.2537,11.25L57.0955,11.0127Q58.1414,10.1689,58.8973,8.98242Q59.5037,8.00684,59.8816,7.02246L57.3856,7.02246L57.2361,6.5127L60.7166,6.5127L60.7166,2.59277L63.6522,2.86523Q63.6258,3.02344,63.5027,3.14209Q63.3797,3.26074,63.0545,3.31348L63.0545,6.5127L64.2586,6.5127L65.2518,5.13281L65.5594,5.37891Q65.8582,5.65137,66.2757,6.0293Q66.6932,6.40723,67.0184,6.73242Q66.9568,7.02246,66.5438,7.02246L63.0545,7.02246L63.0545,7.28613Q64.1707,7.38281,64.8387,7.66406Q65.577,8.00684,65.8802,8.44189Q66.1834,8.87695,66.1482,9.29883Q66.1131,9.7207,65.8274,10.0283Q65.5418,10.3359,65.098,10.3799Q64.6541,10.4238,64.1356,10.0986Q64.0301,9.61523,63.7928,9.11865Q63.5555,8.62207,63.2742,8.15625Q63.16,7.98926,63.0545,7.83105L63.0545,10.3887Q63.0545,10.459,62.7557,10.604Q62.4568,10.749,62.0174,10.8545Q61.5779,10.96,61.1297,10.96L61.0945,10.96L63.0369,11.6455Q62.9666,11.8037,62.7293,11.9004Q62.5711,11.9707,62.2459,11.9355Q62.0789,12.2432,61.8856,12.6387L63.3973,12.6387ZM72.327,5.05371L72.5555,5.23828Q72.7752,5.43164,73.1268,5.72168Q73.4783,6.01172,73.865,6.33691Q74.2518,6.66211,74.577,6.95215Q74.4979,7.2334,74.0496,7.2334L73.1883,7.2334Q73.0037,9.20215,72.5555,10.96Q72.0369,12.9814,70.9734,14.6514Q70.9207,14.7568,70.8504,14.8535Q70.9383,14.9238,71.0262,15.0117Q72.45,16.4531,74.4803,17.3848L74.4275,17.5693Q73.5135,17.7627,72.9817,18.2944Q72.45,18.8262,72.1951,19.7139Q70.5428,18.501,69.5496,16.6816Q69.4969,16.5938,69.4441,16.5234Q68.8465,17.1035,68.1082,17.6221Q66.3152,18.8965,63.5731,19.6963L63.4852,19.5293Q65.4979,18.4131,66.8338,17.0068Q67.8973,15.8906,68.618,14.5986Q68.2752,13.6055,68.0203,12.5068Q67.7918,11.4697,67.6072,10.3359Q66.9217,11.3379,66.0604,12.1465L65.8406,12.0234Q66.2977,10.7842,66.6448,9.23291Q66.992,7.68164,67.2293,5.98096Q67.4666,4.28027,67.5369,2.64551L70.9734,3.40137Q70.9207,3.58594,70.7493,3.7002Q70.5779,3.81445,70.2703,3.83203Q69.91,5.37891,69.409,6.73242L71.0613,6.73242L72.327,5.05371ZM68.0379,9.68555Q68.3279,10.6963,68.7234,11.5752Q69.0135,12.2783,69.3914,12.8848Q69.8045,11.751,70.0418,10.5117Q70.3231,8.92969,70.4022,7.2334L69.2244,7.2334Q68.9432,7.93652,68.6356,8.58691Q68.3455,9.1582,68.0379,9.68555ZM57.9217,3.24316Q59.0027,3.47168,59.5784,3.8584Q60.1541,4.24512,60.3343,4.6626Q60.5145,5.08008,60.409,5.44922Q60.3035,5.81836,59.9959,6.04248Q59.6883,6.2666,59.284,6.24023Q58.8797,6.21387,58.4666,5.85352Q58.449,5.18555,58.2337,4.5Q58.0184,3.81445,57.7635,3.33105L57.9217,3.24316ZM66.491,3.96387Q66.4383,4.12207,66.2669,4.23193Q66.0955,4.3418,65.8055,4.3418Q65.3221,4.84277,64.764,5.34814Q64.2059,5.85352,63.6873,6.21387L63.4324,6.08203Q63.5555,5.5459,63.6917,4.74609Q63.8279,3.94629,63.951,3.16406L66.491,3.96387ZM62.5535,15.2666Q63.1424,14.2734,63.4852,13.1396L61.6131,13.1396Q61.2703,13.79,60.91,14.4316Q60.7166,14.792,60.532,15.0996Q61.1297,15.0996,61.6307,15.1523Q62.1141,15.1963,62.5535,15.2666ZM80.7504,17.6221Q79.977,17.6221,79.4364,17.0903Q78.8959,16.5586,78.8959,15.8203Q78.8959,15.0469,79.4364,14.4976Q79.977,13.9482,80.7504,13.9482Q81.5414,13.9482,82.0732,14.4976Q82.6049,15.0469,82.6049,15.8203Q82.6049,16.5586,82.0732,17.0903Q81.5414,17.6221,80.7504,17.6221ZM80.7504,10.8193Q79.977,10.8193,79.4364,10.2876Q78.8959,9.75586,78.8959,9Q78.8959,8.24414,79.4364,7.69482Q79.977,7.14551,80.7504,7.14551Q81.5414,7.14551,82.0732,7.69482Q82.6049,8.24414,82.6049,9Q82.6049,9.75586,82.0732,10.2876Q81.5414,10.8193,80.7504,10.8193Z" fill="#3D3D3D" fill-opacity="1"/></g></svg>