<svg xmlns="http://www.w3.org/2000/svg" xmlns:xlink="http://www.w3.org/1999/xlink" fill="none" version="1.1" width="1024" height="91" viewBox="0 0 1024 91"><g><g><path d="M354.896,4.52L357.152,2.696L360.8,6.008L358.88,7.88L350.24,7.88L350.24,10.808L354.32,10.808L356.576,8.936L360.272,12.248L358.304,14.168L350.24,14.168L350.24,17.144L355.664,17.144L357.92,15.272L361.616,18.584L359.648,20.504L332.096,20.504L331.28,17.144L342.704,17.144L342.704,14.168L334.64,14.168L333.824,10.808L342.704,10.808L342.704,7.88L332.48,7.88L331.664,4.52L342.704,4.52L342.704,0.776001L350.24,1.736L350.24,4.52L354.896,4.52ZM334.928,21.272L341.936,22.088L341.936,23.288L351.728,23.288L354.704,20.696L360.56,25.064L359.216,26.936L359.216,42.008Q359.216,46.328,354.944,46.328L351.152,46.328Q351.152,43.304,346.256,43.304L346.304,40.328Q348.704,40.232,350.816,40.232Q351.872,40.232,351.872,39.08L351.872,38.216L341.936,38.216L341.936,45.656L334.928,46.568L334.928,21.272ZM351.872,34.76L351.872,32.408L341.936,32.408L341.936,34.76L351.872,34.76ZM351.872,28.952L351.872,26.648L341.936,26.648L341.936,28.952L351.872,28.952ZM320.768,2.216Q326.384,4.712,329.84,7.928L324.992,13.4Q321.776,9.368,317.648,6.104L320.768,2.216ZM321.632,17.768L324.992,14.216L331.184,19.064L328.784,20.984L328.784,35.096Q330.512,34.376,332.24,33.512L333.968,37.112Q329.84,41.432,323.984,45.56L320.432,38.024Q321.296,37.784,322.16,37.496L322.16,25.208L322.064,25.208L322.064,21.8L317.984,21.8L317.024,17.768L321.632,17.768ZM397.04,23.912L401.552,24.44L401.552,25.496L404.288,25.496L406.496,23.768L410.192,27.08L410.192,22.424L409.904,22.76L396.848,22.76L395.936,19.448L400.208,19.448L400.208,15.656L397.28,15.656L396.416,12.488L400.208,12.488L400.208,8.504L405.584,9.176L405.584,12.488L405.68,12.488L407.456,11.096L410.192,13.592L410.192,8.216L395.84,8.216L395.888,26.888Q395.888,39.752,389.6,46.424L386.912,44.264Q387.824,42.2,388.448,39.848Q385.376,42.776,381.632,45.56L378.08,38.024Q378.512,37.88,378.896,37.736L378.896,20.216L375.488,20.216L374.528,16.232L378.848,16.232L382.16,12.728L388.352,17.528L385.664,19.496L385.664,35.096Q387.584,34.232,389.504,33.176Q389.552,32.312,389.552,31.544L389.504,2.36L395.84,3.272L395.84,4.664L409.664,4.664L412.208,2.264L418.784,6.344L416.624,8.12L416.624,41.576Q416.624,45.896,412.64,45.896L409.136,45.896Q409.136,42.248,404.672,42.248L404.816,39.608Q406.784,39.752,409.376,39.752Q410.192,39.752,410.192,38.36L410.192,28.376L408.896,29.624L408.896,38.312L404.336,38.792L404.336,37.112L401.552,37.112L401.552,39.512L397.04,40.088L397.04,23.912ZM404.336,33.704L404.336,28.952L401.552,28.952L401.552,33.704L404.336,33.704ZM410.192,19.832L410.192,14.36L409.088,15.656L405.584,15.656L405.584,19.448L406.544,19.448L408.272,18.152L410.192,19.832ZM380.672,1.4Q383.12,3.32,385.136,5.432Q386.864,7.256,387.344,8.072L380.384,12.584Q379.088,8.168,376.112,3.848L380.672,1.4ZM470.528,5.864L472.832,3.896L476.72,7.352L474.896,9.272L473.12,9.272Q472.784,14.456,470.624,18.248Q474.128,20.504,477.296,21.848L472.736,27.224L475.136,29.384L473.264,31.304L458.72,31.304L458.72,34.664L468.416,34.664L471.056,32.168L475.52,36.104L473.408,38.024L458.72,38.024L458.72,41.768L470.24,41.768L472.88,39.272L477.2,43.16L475.328,45.08L433.04,45.08L432.224,41.768L436.736,41.768L436.736,33.224L443.792,34.136L443.792,41.768L451.04,41.768L451.04,31.304L434.768,31.304L433.904,27.992L468.128,27.992L470.336,25.88Q468.416,24.488,466.832,22.904Q463.328,25.976,458.048,27.752L456.272,24.872Q460.784,22.328,463.472,19.064Q462.128,17.192,461.312,15.176Q460.112,17.288,458.768,19.112L455.984,16.856Q459.008,9.656,459.632,1.112L465.872,2.216Q465.536,4.136,465.056,5.864L470.528,5.864ZM463.424,10.808Q464.432,12.776,466.112,14.552Q467.12,12.056,467.408,9.272L464,9.272Q463.712,10.088,463.424,10.808ZM452.432,5.096L454.832,2.984L458.768,6.488L456.896,8.36L451.952,8.36L457.328,12.488L455.984,13.736L455.984,20.12L453.68,20.504Q455.552,21.512,457.28,22.76L452.816,27.992Q451.52,24.344,448.4,21.656L448.4,26.744L442.4,27.512L442.4,23.096Q439.52,26.264,433.616,27.8L432.032,25.208Q436.352,23.192,437.984,20.552L434.864,20.936L434.864,8.888L440.24,9.512L440.24,10.712L442.4,10.712L442.4,8.36L433.04,8.36L432.224,5.096L442.4,5.096L442.4,1.256L448.4,1.928L448.4,5.096L452.432,5.096ZM448.4,8.36L448.4,10.712L450.032,10.712L451.856,8.36L448.4,8.36ZM440.24,16.808L442.4,16.808L442.4,13.736L440.24,13.736L440.24,16.808ZM448.4,13.736L448.4,16.808L450.32,16.808L450.32,13.736L448.4,13.736ZM491.696,2.504L497.888,3.224L497.888,4.424L500.96,4.424L503.84,2.168L508.736,5.912L508.112,3.56L525.824,3.56L528.8,1.304L534.992,6.008L532.688,7.688Q532.688,15.608,530.912,17.24Q530.432,18.248,529.376,18.776L534.272,22.568L532.448,24.488L532.448,32.456L525.536,33.32L525.536,31.64L516.752,31.64L516.752,33.224L509.936,34.088L509.936,19.928Q509.168,20.264,508.448,20.552L507.44,18.872L507.44,32.072L501.296,32.792L501.296,30.776L497.888,30.776L497.888,32.792L491.696,33.608L491.696,2.504ZM516.752,28.088L525.536,28.088L525.536,24.152L516.752,24.152L516.752,28.088ZM516.752,20.696L525.152,20.696L526.496,19.496Q526.016,19.544,525.536,19.544L522.704,19.544Q522.704,15.656,518.72,15.656L519.296,12.632Q521.216,13.256,524.768,13.256Q526.4,13.256,526.4,10.664L526.592,7.016L520.736,7.016Q519.536,11.912,516.992,14.648Q515.024,17.192,512,18.872L516.752,19.448L516.752,20.696ZM513.92,7.016L508.976,7.016L508.976,6.92L507.44,8.264L507.44,17.576Q510.032,15.176,511.376,13.16Q512.912,10.904,513.92,7.016ZM497.888,27.224L501.296,27.224L501.296,19.064L497.888,19.064L497.888,27.224ZM497.888,15.512L501.296,15.512L501.296,7.928L497.888,7.928L497.888,15.512ZM506.768,33.8Q510.656,39.224,511.808,43.256L504.368,45.992Q504.368,41.288,502.4,34.904L506.768,33.8ZM525.92,33.512Q528.608,35.048,534.56,41.288L527.648,46.616Q525.344,40.04,522.608,36.008L525.92,33.512ZM516.032,34.184Q518.72,36.488,520.88,39.032Q522.752,41.288,523.232,42.248L516.512,46.568Q515.36,41.24,512.576,36.008L516.032,34.184ZM496.064,33.464L500.48,35.096Q498.8,42.536,495.104,46.376L489.104,41.384Q493.568,38.12,496.064,33.464ZM569.696,1.88L578.24,2.936L578.24,13.16L585.056,13.16L587.744,10.712L592.352,14.744L590.192,16.856L559.04,16.856L559.04,24.296L574.928,24.296L578.672,20.696L585.776,26.216L583.28,28.52L583.28,45.656L574.928,46.712L574.928,27.896L558.944,27.896Q558.56,33.368,556.544,37.208Q554.384,41.96,550.064,45.896L547.328,43.976Q551.264,35.24,551.264,24.728L551.264,2.12L559.04,3.272L559.04,13.16L569.696,13.16L569.696,1.88ZM626,13.112L634.16,14.072L634.16,20.552L639.392,20.552L642.752,17.624L649.232,22.424L647.696,24.536L647.696,36.824Q647.696,41.912,642.608,41.912L638.048,41.912Q638.048,37.688,634.832,37.688L634.88,34.28Q636.752,34.712,638.432,34.712Q639.584,34.712,639.584,33.32L639.584,24.2L634.16,24.2L634.16,45.128L626,46.136L626,24.2L621.056,24.2L621.056,41.576L612.944,42.488L612.944,30.008Q610.352,32.744,607.952,34.424L604.736,31.448Q612.272,22.28,616.4,11.528L605.936,11.528L605.072,8.12L617.648,8.12Q618.704,4.904,619.472,1.64L628.688,3.176Q627.776,5.768,626.816,8.12L642.368,8.12L645.2,5.432L649.76,9.56L647.792,11.528L625.328,11.528Q623.36,15.8,621.056,19.352L621.056,20.552L626,20.552L626,13.112ZM695.552,11.528L695.552,7.352L673.472,7.352L673.472,11.528L695.552,11.528ZM673.472,15.176L673.472,18.68L696.8,18.68L700.112,16.088L695.552,16.616L695.552,15.176L673.472,15.176ZM700.832,15.992L707.12,20.888L705.056,22.664Q705.056,38.264,703.28,41.384Q701.6,45.512,696.32,45.944L692.864,45.944Q692.432,41.096,688.256,41.096L688.784,38.12Q692.288,38.792,694.976,38.792Q697.04,38.792,697.04,35.72Q697.472,28.808,697.472,22.328L673.472,22.328L673.472,22.712Q673.472,38.216,665.456,46.232L662.192,43.592Q663.968,40.328,664.88,36.488Q665.984,32.168,665.984,28.232L665.984,1.976L673.472,3.032L673.472,3.848L695.312,3.848L698.576,1.4L704.912,6.296L703.568,8.36L703.568,15.656L700.832,15.992ZM674.624,23.576L681.536,24.344L681.536,25.64L686.816,25.64L689.792,22.904L695.504,27.32L693.68,29.192L693.68,37.016L687.008,37.832L687.008,36.776L681.536,36.776L681.536,38.504L674.624,39.416L674.624,23.576ZM681.536,33.416L687.008,33.416L687.008,28.952L681.536,28.952L681.536,33.416Z" fill="#000000" fill-opacity="1"/></g><g><path d="M388.122,77L389.831,69.1113Q390.268,67.10156,390.535,64.9209Q390.802,62.74023,390.802,60.89453Q390.802,60.4707,390.788,60.14258L392.292,59.45898L392.292,59.8418Q392.292,60.74414,392.128,62.75391Q391.964,64.76367,391.786,65.84375Q392.62,63.88867,393.864,62.21387Q395.108,60.53906,396.414,59.56836Q397.72,58.597656,398.786,58.597656Q399.852,58.597656,400.502,59.45215Q401.151,60.30664,401.151,61.74219Q401.151,63.54688,400.372,65.36523Q399.593,67.18359,398.246,68.7148Q396.899,70.2461,395.293,71.1279Q393.686,72.0098,392.114,72.0098Q391.759,72.0098,391.28,71.9141L392.005,70.9434Q392.675,71.1621,393.372,71.1621Q394.507,71.1621,395.648,70.4033Q396.79,69.6445,397.692,68.2637Q398.526,66.99219,399.114,65.09863Q399.702,63.20508,399.702,61.82422Q399.702,60.67578,399.312,60.0332Q398.923,59.39062,398.225,59.39062Q397.241,59.39062,395.956,60.51855Q394.671,61.64648,393.44,63.57422Q392.552,64.94141,391.957,66.52734Q391.362,68.1133,390.897,70.2051L389.421,77L388.122,77ZM406.666,57.736328L403.071,73.5L402.948,74.0332Q402.77,74.7852,402.77,75.3047Q402.77,75.7285,402.927,75.99510000000001Q403.084,76.2617,403.317,76.2617Q403.741,76.2617,404.67,75.25L404.889,75.4414L404.752,75.5918Q403.973,76.5078,403.604,76.8291Q403.235,77.1504,402.92,77.1504Q402.51,77.1504,402.203,76.69239999999999Q401.895,76.2344,401.895,75.6465Q401.895,75.2363,402.073,74.3477L405.231,58.433594L406.666,57.736328ZM412.564,74.8809L412.811,75.0859Q411.963,76.207,411.156,76.70609999999999Q410.35,77.2051,409.42,77.2051Q408.313,77.2051,407.643,76.4668Q406.973,75.7285,406.973,74.5117Q406.973,73.2812,407.622,72.0166Q408.272,70.752,409.249,69.9248Q410.227,69.0977,411.184,69.0977Q411.744,69.0977,412.106,69.4258Q412.469,69.7539,412.469,70.2734Q412.469,71.3262,411.32,72.3789Q410.172,73.4316,408.189,74.1699Q408.176,74.2793,408.176,74.416Q408.176,75.3594,408.695,75.9541Q409.215,76.5488,410.035,76.5488Q410.678,76.5488,411.279,76.1455Q411.881,75.7422,412.564,74.8809ZM408.189,73.8418Q409.666,73.1855,410.459,72.3789Q410.992,71.832,411.32,71.2031Q411.648,70.5742,411.648,70.0684Q411.648,69.4258,411.061,69.4258Q410.172,69.4258,409.263,70.8271Q408.354,72.2285,408.189,73.8418ZM422.865,68.9199L421.58,73.9238Q421.375,74.7441,421.375,75.209Q421.375,75.6191,421.552,75.9199Q421.73,76.2207,421.99,76.2207Q422.386,76.2207,423.302,75.25L423.494,75.4414L423.343,75.6191Q422.619,76.4531,422.229,76.7881Q421.84,77.123,421.552,77.123Q421.115,77.123,420.794,76.66499999999999Q420.472,76.207,420.472,75.6055Q420.472,75.168,420.8,73.623L420.91,73.1035Q420.404,74.2793,419.556,75.3594Q418.134,77.1641,416.836,77.1641Q416.056,77.1641,415.605,76.6035Q415.154,76.043,415.154,75.0996Q415.154,73.8145,415.885,72.4062Q416.617,70.998,417.704,70.0889Q418.791,69.1797,419.816,69.1797Q420.896,69.1797,421.429,69.9727L421.58,69.4531L422.865,68.9199ZM421.293,70.6699Q421.129,70.1504,420.739,69.85640000000001Q420.349,69.5625,419.843,69.5625Q419.242,69.5625,418.572,70.11619999999999Q417.902,70.6699,417.341,71.6543Q416.904,72.4336,416.61,73.377Q416.316,74.3203,416.316,74.9355Q416.316,75.6328,416.583,76.0293Q416.849,76.4258,417.341,76.4258Q417.97,76.4258,418.654,75.8379Q419.338,75.25,420.007,74.1562Q420.418,73.5273,420.65,72.8984Q420.882,72.2695,421.17,71.1484L421.293,70.6699ZM424.907,76.125L425.673,75.2227Q426.275,76.6445,427.587,76.6445Q428.271,76.6445,428.756,76.2002Q429.241,75.7559,429.241,75.168Q429.241,74.7441,429.009,74.4434Q428.777,74.1426,427.902,73.4316Q427.095,72.7754,426.815,72.3994Q426.534,72.0234,426.534,71.5312Q426.534,70.8887,426.91,70.3418Q427.286,69.7949,427.915,69.46000000000001Q428.544,69.125,429.241,69.125Q429.857,69.125,430.274,69.43260000000001Q430.691,69.7402,430.691,70.2188Q430.691,70.8477,430.157,71.0801Q430.075,70.4375,429.672,70.0752Q429.269,69.7129,428.64,69.7129Q428.079,69.7129,427.662,70.0752Q427.245,70.4375,427.245,70.9023Q427.245,71.4766,427.956,72.0371L428.749,72.6797Q429.911,73.5957,429.911,74.5527Q429.911,75.2637,429.508,75.8857Q429.105,76.5078,428.414,76.877Q427.724,77.2461,426.958,77.2461Q425.741,77.2461,424.907,76.125ZM438.612,74.8809L438.858,75.0859Q438.011,76.207,437.204,76.70609999999999Q436.397,77.2051,435.468,77.2051Q434.36,77.2051,433.69,76.4668Q433.02,75.7285,433.02,74.5117Q433.02,73.2812,433.67,72.0166Q434.319,70.752,435.297,69.9248Q436.274,69.0977,437.231,69.0977Q437.792,69.0977,438.154,69.4258Q438.516,69.7539,438.516,70.2734Q438.516,71.3262,437.368,72.3789Q436.22,73.4316,434.237,74.1699Q434.223,74.2793,434.223,74.416Q434.223,75.3594,434.743,75.9541Q435.263,76.5488,436.083,76.5488Q436.725,76.5488,437.327,76.1455Q437.929,75.7422,438.612,74.8809ZM434.237,73.8418Q435.714,73.1855,436.507,72.3789Q437.04,71.832,437.368,71.2031Q437.696,70.5742,437.696,70.0684Q437.696,69.4258,437.108,69.4258Q436.22,69.4258,435.31,70.8271Q434.401,72.2285,434.237,73.8418ZM455.166,68.9199L453.881,73.9238Q453.676,74.7441,453.676,75.209Q453.676,75.6191,453.854,75.9199Q454.031,76.2207,454.291,76.2207Q454.688,76.2207,455.604,75.25L455.795,75.4414L455.645,75.6191Q454.92,76.4531,454.53,76.7881Q454.141,77.123,453.854,77.123Q453.416,77.123,453.095,76.66499999999999Q452.773,76.207,452.773,75.6055Q452.773,75.168,453.102,73.623L453.211,73.1035Q452.705,74.2793,451.857,75.3594Q450.436,77.1641,449.137,77.1641Q448.357,77.1641,447.906,76.6035Q447.455,76.043,447.455,75.0996Q447.455,73.8145,448.187,72.4062Q448.918,70.998,450.005,70.0889Q451.092,69.1797,452.117,69.1797Q453.197,69.1797,453.731,69.9727L453.881,69.4531L455.166,68.9199ZM453.594,70.6699Q453.43,70.1504,453.04,69.85640000000001Q452.65,69.5625,452.145,69.5625Q451.543,69.5625,450.873,70.11619999999999Q450.203,70.6699,449.643,71.6543Q449.205,72.4336,448.911,73.377Q448.617,74.3203,448.617,74.9355Q448.617,75.6328,448.884,76.0293Q449.15,76.4258,449.643,76.4258Q450.272,76.4258,450.955,75.8379Q451.639,75.25,452.309,74.1562Q452.719,73.5273,452.951,72.8984Q453.184,72.2695,453.471,71.1484L453.594,70.6699ZM467.886,57.736328L464.263,73.5Q463.976,74.7578,463.976,75.25Q463.976,75.6875,464.133,75.9609Q464.291,76.2344,464.564,76.2344Q464.92,76.2344,465.425,75.7012L465.822,75.3047Q465.836,75.291,465.849,75.2773Q465.863,75.2637,465.89,75.25L466.095,75.4414L465.986,75.5645Q465.466,76.1387,465.453,76.1523L465.002,76.6035Q464.66,76.9453,464.503,77.0342Q464.345,77.123,464.154,77.123Q463.703,77.123,463.402,76.6582Q463.101,76.1934,463.101,75.5918Q463.101,75.2363,463.293,74.293L463.443,73.5137Q463.088,74.375,462.322,75.3867Q460.941,77.1641,459.642,77.1641Q458.863,77.1641,458.412,76.5967Q457.961,76.0293,457.961,75.0586Q457.961,73.7051,458.672,72.31739999999999Q459.382,70.9297,460.483,70.0273Q461.584,69.125,462.677,69.125Q463.484,69.125,464.181,69.6035L466.41,58.433594L467.886,57.736328ZM464.058,70.2871Q463.935,69.918,463.552,69.69239999999999Q463.17,69.4668,462.732,69.4668Q462.09,69.4668,461.413,70.041Q460.736,70.6152,460.134,71.668Q459.697,72.4473,459.417,73.37010000000001Q459.136,74.293,459.136,75.0449Q459.136,75.7012,459.417,76.0977Q459.697,76.4941,460.189,76.4941Q460.763,76.4941,461.426,75.9062Q462.09,75.3184,462.759,74.2109Q463.211,73.459,463.47,72.6523Q463.785,71.6133,463.922,70.9844L464.058,70.2871ZM470.982,69.002L468.822,78.1758Q468.562,79.3105,468.343,79.8779Q468.124,80.4453,467.755,80.9375Q467.249,81.6211,466.504,81.9971Q465.759,82.373,464.925,82.373Q464.378,82.373,464.009,82.209L464.665,81.252Q465.226,81.6758,465.841,81.6758Q466.347,81.6758,466.798,81.3545Q467.249,81.0332,467.509,80.459Q467.7,80.0488,467.906,78.9141L469.656,69.5625L470.982,69.002ZM471.378,63.64258Q471.734,63.64258,471.952,63.86133Q472.171,64.08008,472.171,64.43555Q472.171,64.77734,471.939,65.00977Q471.706,65.24219,471.378,65.24219Q471.064,65.24219,470.818,64.99609Q470.572,64.75,470.572,64.43555Q470.572,64.10742,470.804,63.875Q471.036,63.64258,471.378,63.64258ZM476.169,69.002L474.843,74.293Q474.665,75.0039,474.665,75.4961Q474.665,75.9746,474.966,76.2617Q475.266,76.5488,475.745,76.5488Q476.907,76.5488,478.165,74.6484L478.22,74.5664Q478.247,74.4297,478.261,74.3477L479.122,69.5625L480.462,69.002L479.259,73.5Q478.958,74.6074,478.958,75.2773Q478.958,75.7148,479.108,75.9883Q479.259,76.2617,479.505,76.2617Q479.929,76.2617,480.858,75.25L481.077,75.4414L480.94,75.5918Q480.161,76.5078,479.792,76.8291Q479.423,77.1504,479.108,77.1504Q478.684,77.1504,478.39,76.7197Q478.097,76.2891,478.097,75.6465Q478.097,75.4414,478.11,75.2637Q476.688,77.1504,475.294,77.1504Q474.597,77.1504,474.18,76.7471Q473.763,76.3438,473.763,75.6738Q473.763,75.1543,473.913,74.4023L474.843,69.5625L476.169,69.002ZM482.477,76.125L483.243,75.2227Q483.844,76.6445,485.157,76.6445Q485.84,76.6445,486.326,76.2002Q486.811,75.7559,486.811,75.168Q486.811,74.7441,486.579,74.4434Q486.346,74.1426,485.471,73.4316Q484.664,72.7754,484.384,72.3994Q484.104,72.0234,484.104,71.5312Q484.104,70.8887,484.48,70.3418Q484.856,69.7949,485.485,69.46000000000001Q486.114,69.125,486.811,69.125Q487.426,69.125,487.843,69.43260000000001Q488.26,69.7402,488.26,70.2188Q488.26,70.8477,487.727,71.0801Q487.645,70.4375,487.242,70.0752Q486.838,69.7129,486.209,69.7129Q485.649,69.7129,485.232,70.0752Q484.815,70.4375,484.815,70.9023Q484.815,71.4766,485.526,72.0371L486.319,72.6797Q487.481,73.5957,487.481,74.5527Q487.481,75.2637,487.078,75.8857Q486.674,76.5078,485.984,76.877Q485.293,77.2461,484.528,77.2461Q483.311,77.2461,482.477,76.125ZM493.201,69.6992L492.162,74.252Q491.998,75.0039,491.998,75.3184Q491.998,75.8105,492.231,76.1113Q492.463,76.4121,492.846,76.4121Q493.215,76.4121,493.523,76.2002Q493.83,75.9883,494.459,75.3184L494.623,75.1543L494.828,75.3594Q494.022,76.3438,493.482,76.7471Q492.941,77.1504,492.422,77.1504Q491.766,77.1504,491.376,76.7197Q490.986,76.2891,490.986,75.5918Q490.986,75.0723,491.191,74.0879L492.08,69.6992L490.768,69.6992L490.863,69.2344L492.176,69.2344L492.941,65.54297L494.254,65.02344L493.297,69.2344L495.512,69.2344L495.416,69.6992L493.201,69.6992ZM505.872,69.6992L504.833,74.252Q504.669,75.0039,504.669,75.3184Q504.669,75.8105,504.902,76.1113Q505.134,76.4121,505.517,76.4121Q505.886,76.4121,506.194,76.2002Q506.501,75.9883,507.13,75.3184L507.294,75.1543L507.499,75.3594Q506.693,76.3438,506.153,76.7471Q505.613,77.1504,505.093,77.1504Q504.437,77.1504,504.047,76.7197Q503.657,76.2891,503.657,75.5918Q503.657,75.0723,503.863,74.0879L504.751,69.6992L503.439,69.6992L503.534,69.2344L504.847,69.2344L505.613,65.54297L506.925,65.02344L505.968,69.2344L508.183,69.2344L508.087,69.6992L505.872,69.6992ZM509.624,77.1367L513.261,58.433594L514.696,57.736328L510.909,74.3887Q510.964,74.293,510.964,74.2656L511.278,73.5547Q512.085,71.7227,513.302,70.3828Q514.45,69.1387,515.421,69.1387Q515.94,69.1387,516.255,69.4736Q516.569,69.8086,516.569,70.3691Q516.569,70.6836,516.419,71.2578L516.282,71.832L515.858,73.5L515.735,74.0332Q515.53,74.8535,515.53,75.291Q515.53,75.7285,515.681,75.99510000000001Q515.831,76.2617,516.077,76.2617Q516.501,76.2617,517.431,75.25L517.636,75.4414L517.513,75.5918Q516.733,76.5078,516.357,76.8291Q515.981,77.1504,515.681,77.1504Q515.257,77.1504,514.956,76.6992Q514.655,76.248,514.655,75.6465Q514.655,75.2773,514.833,74.3477L515.352,71.4492Q515.475,70.8066,515.475,70.4922Q515.475,70.2051,515.325,70.0547Q515.175,69.9043,514.915,69.9043Q514.409,69.9043,513.753,70.499Q513.097,71.0938,512.433,72.1465Q511.77,73.1992,511.278,74.3955Q510.786,75.5918,510.54,76.8496L509.624,77.1367ZM525.393,74.8809L525.639,75.0859Q524.791,76.207,523.985,76.70609999999999Q523.178,77.2051,522.248,77.2051Q521.141,77.2051,520.471,76.4668Q519.801,75.7285,519.801,74.5117Q519.801,73.2812,520.451,72.0166Q521.1,70.752,522.078,69.9248Q523.055,69.0977,524.012,69.0977Q524.573,69.0977,524.935,69.4258Q525.297,69.7539,525.297,70.2734Q525.297,71.3262,524.149,72.3789Q523,73.4316,521.018,74.1699Q521.004,74.2793,521.004,74.416Q521.004,75.3594,521.524,75.9541Q522.043,76.5488,522.864,76.5488Q523.506,76.5488,524.108,76.1455Q524.709,75.7422,525.393,74.8809ZM521.018,73.8418Q522.495,73.1855,523.288,72.3789Q523.821,71.832,524.149,71.2031Q524.477,70.5742,524.477,70.0684Q524.477,69.4258,523.889,69.4258Q523,69.4258,522.091,70.8271Q521.182,72.2285,521.018,73.8418ZM533.293,82.4277L535.877,69.5625L537.189,69.002L536.287,72.9258Q537.298,70.8887,538.194,69.9932Q539.089,69.0977,540.156,69.0977Q540.976,69.0977,541.455,69.6992Q541.933,70.3008,541.933,71.3535Q541.933,72.4199,541.503,73.541Q541.072,74.6621,540.293,75.5781Q538.884,77.2734,537.189,77.2734Q536.123,77.2734,535.439,76.7129L534.031,82.4277L533.293,82.4277ZM535.644,75.8105Q536.218,76.9316,537.257,76.9316Q538.761,76.9316,539.882,74.4844Q540.798,72.5156,540.798,71.1758Q540.798,70.4512,540.525,70.0547Q540.252,69.6582,539.746,69.6582Q538.925,69.6582,538.023,70.7383Q537.162,71.8047,536.56,73.1172Q536.328,73.6367,536.13,74.2246Q535.931,74.8125,535.754,75.4277L535.644,75.8105ZM544.413,77.1367L548.05,58.433594L549.486,57.736328L545.698,74.3887Q545.753,74.293,545.753,74.2656L546.068,73.5547Q546.874,71.7227,548.091,70.3828Q549.24,69.1387,550.21,69.1387Q550.73,69.1387,551.044,69.4736Q551.359,69.8086,551.359,70.3691Q551.359,70.6836,551.208,71.2578L551.072,71.832L550.648,73.5L550.525,74.0332Q550.32,74.8535,550.32,75.291Q550.32,75.7285,550.47,75.99510000000001Q550.62,76.2617,550.866,76.2617Q551.29,76.2617,552.22,75.25L552.425,75.4414L552.302,75.5918Q551.523,76.5078,551.147,76.8291Q550.771,77.1504,550.47,77.1504Q550.046,77.1504,549.745,76.6992Q549.445,76.248,549.445,75.6465Q549.445,75.2773,549.622,74.3477L550.142,71.4492Q550.265,70.8066,550.265,70.4922Q550.265,70.2051,550.115,70.0547Q549.964,69.9043,549.704,69.9043Q549.198,69.9043,548.542,70.499Q547.886,71.0938,547.223,72.1465Q546.56,73.1992,546.068,74.3955Q545.575,75.5918,545.329,76.8496L544.413,77.1367ZM554.591,74.375Q554.591,73.1445,555.254,71.9209Q555.917,70.6973,556.97,69.9316Q558.022,69.166,559.116,69.166Q560.264,69.166,560.969,69.9248Q561.673,70.6836,561.673,71.8867Q561.673,73.1992,561.023,74.4297Q560.374,75.6602,559.314,76.44630000000001Q558.255,77.2324,557.175,77.2324Q556.013,77.2324,555.302,76.44630000000001Q554.591,75.6602,554.591,74.375ZM560.442,71.3672Q560.442,70.5469,560.039,70.0137Q559.636,69.4805,559.007,69.4805Q558.432,69.4805,557.906,69.8496Q557.38,70.2188,556.942,70.9297Q556.45,71.75,556.129,72.8438Q555.807,73.9375,555.807,74.7852Q555.807,75.7969,556.204,76.3438Q556.6,76.8906,557.339,76.8906Q558.528,76.8906,559.43,75.2363Q559.895,74.3887,560.169,73.3359Q560.442,72.2832,560.442,71.3672ZM566.805,69.6992L565.766,74.252Q565.602,75.0039,565.602,75.3184Q565.602,75.8105,565.834,76.1113Q566.067,76.4121,566.45,76.4121Q566.819,76.4121,567.126,76.2002Q567.434,75.9883,568.063,75.3184L568.227,75.1543L568.432,75.3594Q567.625,76.3438,567.085,76.7471Q566.545,77.1504,566.026,77.1504Q565.37,77.1504,564.98,76.7197Q564.59,76.2891,564.59,75.5918Q564.59,75.0723,564.795,74.0879L565.684,69.6992L564.372,69.6992L564.467,69.2344L565.78,69.2344L566.545,65.54297L567.858,65.02344L566.901,69.2344L569.116,69.2344L569.02,69.6992L566.805,69.6992ZM570.611,74.375Q570.611,73.1445,571.274,71.9209Q571.938,70.6973,572.99,69.9316Q574.043,69.166,575.137,69.166Q576.285,69.166,576.989,69.9248Q577.693,70.6836,577.693,71.8867Q577.693,73.1992,577.044,74.4297Q576.395,75.6602,575.335,76.44630000000001Q574.275,77.2324,573.195,77.2324Q572.033,77.2324,571.322,76.44630000000001Q570.611,75.6602,570.611,74.375ZM576.463,71.3672Q576.463,70.5469,576.06,70.0137Q575.656,69.4805,575.027,69.4805Q574.453,69.4805,573.927,69.8496Q573.4,70.2188,572.963,70.9297Q572.471,71.75,572.149,72.8438Q571.828,73.9375,571.828,74.7852Q571.828,75.7969,572.225,76.3438Q572.621,76.8906,573.359,76.8906Q574.549,76.8906,575.451,75.2363Q575.916,74.3887,576.189,73.3359Q576.463,72.2832,576.463,71.3672ZM591.595,57.736328L587.999,73.5L587.876,74.0332Q587.698,74.7852,587.698,75.3047Q587.698,75.7285,587.856,75.99510000000001Q588.013,76.2617,588.245,76.2617Q588.669,76.2617,589.599,75.25L589.818,75.4414L589.681,75.5918Q588.902,76.5078,588.532,76.8291Q588.163,77.1504,587.849,77.1504Q587.439,77.1504,587.131,76.69239999999999Q586.823,76.2344,586.823,75.6465Q586.823,75.2363,587.001,74.3477L590.159,58.433594L591.595,57.736328ZM599.612,68.9199L598.327,73.9238Q598.122,74.7441,598.122,75.209Q598.122,75.6191,598.3,75.9199Q598.477,76.2207,598.737,76.2207Q599.134,76.2207,600.05,75.25L600.241,75.4414L600.091,75.6191Q599.366,76.4531,598.976,76.7881Q598.587,77.123,598.3,77.123Q597.862,77.123,597.541,76.66499999999999Q597.22,76.207,597.22,75.6055Q597.22,75.168,597.548,73.623L597.657,73.1035Q597.151,74.2793,596.304,75.3594Q594.882,77.1641,593.583,77.1641Q592.804,77.1641,592.352,76.6035Q591.901,76.043,591.901,75.0996Q591.901,73.8145,592.633,72.4062Q593.364,70.998,594.451,70.0889Q595.538,69.1797,596.563,69.1797Q597.643,69.1797,598.177,69.9727L598.327,69.4531L599.612,68.9199ZM598.04,70.6699Q597.876,70.1504,597.486,69.85640000000001Q597.096,69.5625,596.591,69.5625Q595.989,69.5625,595.319,70.11619999999999Q594.649,70.6699,594.089,71.6543Q593.651,72.4336,593.357,73.377Q593.063,74.3203,593.063,74.9355Q593.063,75.6328,593.33,76.0293Q593.596,76.4258,594.089,76.4258Q594.718,76.4258,595.401,75.8379Q596.085,75.25,596.755,74.1562Q597.165,73.5273,597.397,72.8984Q597.63,72.2695,597.917,71.1484L598.04,70.6699ZM601.19,81.8535L601.86,80.9512Q602.653,81.7988,603.651,81.7988Q604.703,81.7988,605.346,80.9648Q605.989,80.1309,606.399,78.2305L607.028,75.4004Q605.524,77.1641,604.307,77.1641Q603.596,77.1641,603.193,76.7266Q602.789,76.2891,602.789,75.5508Q602.789,75.0586,602.912,74.4707L603.842,69.5625L605.168,69.002L603.842,74.5117Q603.678,75.1816,603.678,75.5098Q603.678,75.9746,603.958,76.26859999999999Q604.239,76.5625,604.703,76.5625Q605.209,76.5625,605.818,76.1182Q606.426,75.6738,607.178,74.7852L608.354,69.5625L609.639,69.002L607.643,77.041Q607.287,78.4902,606.966,79.3105Q606.645,80.1309,606.221,80.6777Q604.881,82.4004,602.953,82.4004Q601.832,82.4004,601.19,81.8535ZM611.982,74.375Q611.982,73.1445,612.646,71.9209Q613.309,70.6973,614.361,69.9316Q615.414,69.166,616.508,69.166Q617.656,69.166,618.36,69.9248Q619.064,70.6836,619.064,71.8867Q619.064,73.1992,618.415,74.4297Q617.766,75.6602,616.706,76.44630000000001Q615.646,77.2324,614.566,77.2324Q613.404,77.2324,612.693,76.44630000000001Q611.982,75.6602,611.982,74.375ZM617.834,71.3672Q617.834,70.5469,617.431,70.0137Q617.027,69.4805,616.398,69.4805Q615.824,69.4805,615.298,69.8496Q614.771,70.2188,614.334,70.9297Q613.842,71.75,613.521,72.8438Q613.199,73.9375,613.199,74.7852Q613.199,75.7969,613.596,76.3438Q613.992,76.8906,614.73,76.8906Q615.92,76.8906,616.822,75.2363Q617.287,74.3887,617.561,73.3359Q617.834,72.2832,617.834,71.3672ZM624.361,69.002L623.035,74.293Q622.857,75.0039,622.857,75.4961Q622.857,75.9746,623.158,76.2617Q623.459,76.5488,623.937,76.5488Q625.099,76.5488,626.357,74.6484L626.412,74.5664Q626.439,74.4297,626.453,74.3477L627.314,69.5625L628.654,69.002L627.451,73.5Q627.15,74.6074,627.15,75.2773Q627.15,75.7148,627.3,75.9883Q627.451,76.2617,627.697,76.2617Q628.121,76.2617,629.05,75.25L629.269,75.4414L629.132,75.5918Q628.353,76.5078,627.984,76.8291Q627.615,77.1504,627.3,77.1504Q626.877,77.1504,626.583,76.7197Q626.289,76.2891,626.289,75.6465Q626.289,75.4414,626.302,75.2637Q624.88,77.1504,623.486,77.1504Q622.789,77.1504,622.372,76.7471Q621.955,76.3438,621.955,75.6738Q621.955,75.1543,622.105,74.4023L623.035,69.5625L624.361,69.002ZM634.032,69.6992L632.993,74.252Q632.829,75.0039,632.829,75.3184Q632.829,75.8105,633.062,76.1113Q633.294,76.4121,633.677,76.4121Q634.046,76.4121,634.354,76.2002Q634.661,75.9883,635.29,75.3184L635.454,75.1543L635.659,75.3594Q634.853,76.3438,634.313,76.7471Q633.773,77.1504,633.253,77.1504Q632.597,77.1504,632.207,76.7197Q631.818,76.2891,631.818,75.5918Q631.818,75.0723,632.023,74.0879L632.911,69.6992L631.599,69.6992L631.695,69.2344L633.007,69.2344L633.773,65.54297L635.085,65.02344L634.128,69.2344L636.343,69.2344L636.247,69.6992L634.032,69.6992Z" fill="#000000" fill-opacity="1"/></g></g></svg>