<svg xmlns="http://www.w3.org/2000/svg" xmlns:xlink="http://www.w3.org/1999/xlink" fill="none" version="1.1" width="50" height="50" viewBox="0 0 50 50"><defs><clipPath id="master_svg0_41_40893/41_40842"><rect x="0" y="0" width="50" height="50" rx="0"/></clipPath></defs><g clip-path="url(#master_svg0_41_40893/41_40842)"><g><path d="M34.998999999999995,29.7651L29.5312,25.6646C28.7026,25.0435,27.5479,25.0435,26.7192,25.6646L21.9058,29.2739L15.4883,24.1401C14.6836,23.4961,13.5703,23.4473,12.71436,24.0234L6.25,28.3701L6.25,10.9375L40.625,10.9375L40.625,28.125C40.625,28.9878,41.3247,29.6875,42.1875,29.6875C43.0503,29.6875,43.75,28.9878,43.75,28.125L43.75,10.80615C43.75,9.15527,42.4072,7.8125,40.7563,7.8125L6.118650000000001,7.8125C4.46777,7.8125,3.125,9.15527,3.125,10.80615L3.125,39.193799999999996C3.125,40.8447,4.46777,42.1875,6.118650000000001,42.1875L29.6875,42.1875C30.5503,42.1875,31.25,41.4878,31.25,40.625C31.25,39.7622,30.5503,39.0625,29.6875,39.0625L6.25,39.0625L6.25,32.136700000000005L13.9824,26.9375L21.8447,33.226600000000005L28.125,28.5156L33.123999999999995,32.264700000000005C33.816900000000004,32.7856,34.7954,32.6421,35.3115,31.9526C35.8291,31.2622,35.6895,30.2827,34.998999999999995,29.7651Z" fill="#FFFFFF" fill-opacity="1" style="mix-blend-mode:passthrough"/></g><g><path d="M28.125,18.75C28.125,21.33496,30.22754,23.4375,32.8125,23.4375C35.39746,23.4375,37.5,21.33496,37.5,18.75C37.5,16.16504,35.39746,14.0625,32.8125,14.0625C30.22754,14.0625,28.125,16.16504,28.125,18.75ZM34.375,18.75C34.375,19.61133,33.67383,20.3125,32.8125,20.3125C31.95117,20.3125,31.25,19.61133,31.25,18.75C31.25,17.88867,31.95117,17.1875,32.8125,17.1875C33.67383,17.1875,34.375,17.88867,34.375,18.75ZM45.3125,37.5L42.1875,37.5L42.1875,34.375C42.1875,33.5122,41.4878,32.8125,40.625,32.8125C39.7622,32.8125,39.0625,33.5122,39.0625,34.375L39.0625,37.5L35.9375,37.5C35.074709999999996,37.5,34.375,38.1997,34.375,39.0625C34.375,39.9253,35.074709999999996,40.625,35.9375,40.625L39.0625,40.625L39.0625,43.75C39.0625,44.6128,39.7622,45.3125,40.625,45.3125C41.4878,45.3125,42.1875,44.6128,42.1875,43.75L42.1875,40.625L45.3125,40.625C46.1753,40.625,46.875,39.9253,46.875,39.0625C46.875,38.1997,46.1753,37.5,45.3125,37.5Z" fill="#FFFFFF" fill-opacity="1" style="mix-blend-mode:passthrough"/></g></g></svg>