<svg xmlns="http://www.w3.org/2000/svg" xmlns:xlink="http://www.w3.org/1999/xlink" fill="none" version="1.1" width="225" height="65" viewBox="0 0 225 65"><g><path d="M42.1893,18.2988Q42.0838,18.9053,41.6224,19.314Q41.1609,19.7227,40.2381,19.8281Q40.1326,24.7852,39.9744,29.1094Q39.8162,32.7744,39.3943,36.0176L42.9539,36.334L42.9539,13.7109L30.3768,13.7109L30.3768,40.1309Q30.3768,40.5,28.8343,41.1987Q27.2918,41.8975,24.576,41.8975L23.284,41.8975L23.284,9.33398L30.9568,12.208L42.743,12.208L46.2498,8.2002L52.6043,13.1836Q52.3406,13.5527,51.8265,13.856Q51.3123,14.1592,50.3895,14.3174L50.3895,39.4717Q50.3895,39.7354,48.7415,40.5Q47.0936,41.2646,44.2459,41.2646L42.9539,41.2646L42.9539,37.5205Q42.6111,37.7051,42.1893,37.7578L42.1893,50.5986Q42.1893,51.0732,42.3738,51.271Q42.5584,51.4688,43.2703,51.4688L47.5418,51.4688Q48.2273,51.416,48.6229,50.7568Q48.8865,50.2822,49.2425,49.2803Q49.5984,48.2783,50.0203,46.8413Q50.4422,45.4043,50.9432,43.8486L51.5232,43.8486L51.7078,51.0732Q52.8416,51.627,53.158,52.2202Q53.4744,52.8135,53.4744,53.7363Q53.4744,54.9756,52.6439,55.8853Q51.8133,56.7949,49.9148,57.2563Q48.0164,57.7178,44.826,57.7178L41.3719,57.7178Q38.9988,57.7178,37.8123,57.23Q36.6258,56.7422,36.2171,55.582Q35.8084,54.4219,35.8084,52.3916L35.8084,46.3271Q34.5164,48.3311,32.6443,50.124Q29.7703,52.8135,25.2352,55.002Q20.7,57.1904,14.0555,58.9043L13.6336,58.166Q19.8299,55.5029,23.6136,52.4312Q27.3973,49.3594,29.3353,45.7339Q31.2732,42.1084,32.0115,37.8237Q32.7498,33.5391,32.8289,28.4897Q32.908,23.4404,32.908,17.5078L42.1893,18.2988ZM0.924614,47.25Q2.71758,46.8809,6.06622,46.0107Q6.77813,45.8525,7.46368,45.6943L7.46368,30.665L2.40118,30.665L1.95293,29.1621L7.46368,29.1621L7.46368,15.0557L1.742,15.0557L1.32012,13.5527L13.2908,13.5527L16.824,8.75391L17.4568,9.28125Q18.116,9.83496,19.0784,10.6655Q20.0408,11.4961,21.1219,12.4453Q22.2029,13.3945,23.0731,14.2119Q22.8621,15.0557,21.5701,15.0557L14.9783,15.0557L14.9783,29.1621L15.4529,29.1621L18.0106,24.7852L18.8016,25.6553Q19.5662,26.5254,20.6209,27.6855Q21.6756,28.8457,22.4402,29.7949Q22.2029,30.665,21.0164,30.665L14.9783,30.665L14.9783,43.7432Q18.5906,42.7676,22.2557,41.7393L22.3611,42.2402Q20.0408,44.2705,16.0726,47.3291Q12.1043,50.3877,6.27715,54.2109Q5.96075,55.3975,4.82696,55.8457L0.924614,47.25ZM96.0943,12.3135L99.3902,8.64844L106.668,14.5811Q106.14,15.293,104.611,15.5566Q103.873,15.7148,103.108,15.7676Q101.658,17.165,99.3902,19.1162Q96.9908,21.1729,94.3277,23.3877Q91.6647,25.6025,89.1598,27.5273Q87.9733,28.5029,86.8922,29.3203L100.524,29.3203L104.189,25.708L110.333,31.0078Q109.753,31.7461,108.065,32.0889Q107.749,40.0781,107.208,45.0352Q106.668,49.9922,105.718,52.7476Q104.769,55.5029,103.213,56.7422Q101.816,57.9551,100.036,58.522Q98.2565,59.0889,95.8043,59.0098Q95.8043,57.4541,95.6197,56.2148Q95.4352,54.9756,94.8551,54.2637Q94.1959,53.5254,93.0885,52.9321Q91.9811,52.3389,90.3727,51.9434L90.4254,51.3105Q91.3219,51.3633,92.482,51.416Q93.6422,51.4688,94.6969,51.5215Q95.7516,51.5742,96.3053,51.5742Q97.4918,51.5742,98.0719,51.0205Q99.3111,49.9395,100.023,44.666Q100.682,39.7881,101.051,30.8232L100.735,30.8232Q99.1002,37.1514,95.857,42.293Q92.4029,47.6719,86.7867,51.7061Q81.1705,55.7402,72.8649,58.3242L72.443,57.665Q81.8297,53.1826,87.024,45.9053Q91.7174,39.2607,93.5367,30.8232L93.1149,30.8232Q90.6363,37.2568,85.7584,42.0557Q80.5904,47.1445,72.8121,50.4932L72.3111,49.834Q77.7691,46.0635,81.3551,40.6582Q84.4664,36.0176,86.1539,30.8232L85.3365,30.8232L82.1461,33.1436L76.2662,27.7646Q77.1891,27.2637,78.7447,26.8418Q79.3512,26.6836,79.9313,26.6309Q81.2233,25.6553,82.6998,24.4688Q85.3365,22.4121,88.0655,20.1445Q90.7945,17.877,93.1149,15.8203Q94.3014,14.7393,95.2242,13.8164L78.2701,13.8164L77.7691,12.3135L96.0943,12.3135ZM58.0201,42.0557Q59.7867,41.7393,63.1354,41.1064Q63.8473,40.9219,64.6119,40.8164L64.6119,24.5742L58.7057,24.5742L58.2838,23.0449L64.6119,23.0449L64.6119,8.5957L74.1568,9.38672Q74.1041,9.94043,73.6954,10.3755Q73.2867,10.8105,72.1529,10.9688L72.1529,23.0449L73.0231,23.0449L75.9498,17.7715L76.4772,18.3516Q77.0309,18.958,77.8351,19.8677Q78.6393,20.7773,79.483,21.8057Q80.3268,22.834,80.9596,23.7041Q80.7486,24.5742,79.5094,24.5742L72.1529,24.5742L72.1529,39.2607Q75.607,38.4961,79.2457,37.626L79.3512,38.127Q77.0309,40.0781,73.1944,42.8599Q69.358,45.6416,63.5836,49.2539Q63.1354,50.3877,62.0543,50.7568L58.0201,42.0557ZM115.142,20.25L121.576,20.25L121.576,7.77832L130.857,8.64844Q130.804,9.22852,130.343,9.63721Q129.881,10.0459,128.853,10.2041L128.853,19.8809L131.674,15.3457L132.254,15.873Q132.808,16.4268,133.639,17.3101Q134.469,18.1934,135.392,19.1162Q136.104,19.9336,136.684,20.6191L136.684,16.084L144.462,19.2217L145.227,19.2217Q145.385,17.9297,145.543,16.374Q145.754,14.2119,145.978,11.9443Q146.203,9.67676,146.308,7.83105L156.618,9.43945Q156.301,10.8105,154.403,10.9688Q153.427,12.2607,152.003,13.9351Q150.579,15.6094,149.156,17.2178Q148.206,18.3516,147.389,19.2217L155.747,19.2217L159.307,15.1611L166.505,20.8564Q166.11,21.2256,165.49,21.6079Q164.871,21.9902,163.895,22.2012L163.895,56.1621Q163.895,56.4258,162.88,56.9399Q161.865,57.4541,160.401,57.8628Q158.938,58.2715,157.593,58.2715L156.407,58.2715L156.407,53.5781L144.146,53.5781L144.146,55.9512Q144.146,56.373,143.249,56.9927Q142.353,57.6123,140.955,58.1001Q139.558,58.5879,137.871,58.5879L136.684,58.5879L136.684,30.665Q134.1,32.458,129.776,35.042Q129.354,35.3057,128.853,35.5957L128.853,50.8623Q128.853,53.3408,128.286,55.0679Q127.719,56.7949,125.887,57.7969Q124.054,58.7988,120.284,59.1416Q120.231,57.4014,120.007,56.1094Q119.783,54.8174,119.255,53.9473Q118.754,53.1299,117.924,52.563Q117.093,51.9961,115.353,51.627L115.353,50.915L116.012,50.9678Q116.645,51.0205,117.568,51.0469Q118.491,51.0732,119.361,51.1392Q120.231,51.2051,120.6,51.2051Q121.206,51.2051,121.391,51.0073Q121.576,50.8096,121.576,50.3877L121.576,39.5771Q120.336,40.2363,119.044,40.9219Q118.807,41.4756,118.359,41.8843Q117.911,42.293,117.357,42.3984L114.667,33.2754Q116.487,33.0381,119.941,32.5635Q120.758,32.5107,121.576,32.3525L121.576,21.7529L115.59,21.7529L115.142,20.25ZM156.407,52.0488L156.407,36.4922L144.146,36.4922L144.146,52.0488L156.407,52.0488ZM156.407,34.9893L156.407,20.7246L144.146,20.7246L144.146,34.9893L156.407,34.9893ZM128.853,21.7529L128.853,31.3242Q132.755,30.7178,136.684,30.1377L136.684,21.3311Q136.315,21.7529,135.445,21.7529L128.853,21.7529ZM217.035,23.7041L218.064,24.4688Q219.039,25.2598,220.45,26.3672Q221.861,27.4746,222.942,28.5029Q222.757,29.4258,221.412,29.5312L214.768,29.9268L214.768,33.4863Q214.715,33.6973,213.265,34.2905Q211.815,34.8838,209.152,34.8838L207.912,34.8838L207.912,30.2959L189.877,31.2715L189.35,29.5312L193.938,29.2676L193.938,13.2363L189.772,13.2363L189.35,11.707L212.948,11.707L216.297,7.56738L217.378,8.30566Q218.406,9.12305,219.83,10.2305Q221.254,11.3379,222.388,12.3662Q222.23,13.2363,220.938,13.2363L214.768,13.2363L214.768,26.8418L217.035,23.7041ZM189.455,39.8936Q193.384,40.6582,196.153,41.8447Q196.733,39.6826,197.075,37.3623L190.194,37.3623L189.719,35.8594L196.68,35.8594L199.87,32.6162L204.827,36.7822L204.564,35.8594L213.054,35.8594L216.403,32.458L222.335,37.415Q222.124,37.8105,221.689,37.9951Q221.254,38.1797,220.331,38.2852Q219.092,43.084,216.613,47.0918Q216.139,47.8564,215.585,48.542Q215.954,48.7529,216.403,48.9902Q219.698,50.7568,223.574,51.5742L223.522,52.3389Q221.412,53.5254,220.094,55.1602Q218.776,56.7949,218.565,58.957Q214.399,56.6367,211.762,52.6553Q210.839,53.3408,209.916,54.0527Q205.697,57.0322,199.343,58.7988L199,58.166Q203.694,55.793,206.726,52.3916Q208.308,50.5986,209.547,48.542Q207.49,43.8486,206.409,37.3623L205.592,37.3623Q205.381,37.7578,204.92,37.9424Q204.458,38.127,203.588,38.2324Q202.744,41.792,201.11,45.0352Q201.663,45.5098,202.085,46.0107Q203.588,47.9092,203.891,49.6626Q204.195,51.416,203.522,52.6553Q202.85,53.8945,201.518,54.2109Q200.187,54.5273,198.526,53.5254Q198.077,52.1543,197.392,50.7568Q195.942,52.4443,194.096,53.8945Q190.273,56.9795,184.419,58.9043L184.103,58.2188Q188.374,55.7402,191.064,52.2598Q193.226,49.5176,194.623,46.2744Q193.331,44.5605,191.934,43.0312Q190.431,41.4756,188.954,40.2891L189.455,39.8936ZM171.526,33.5391Q173.134,33.0908,176.272,32.0889Q177.3,31.6934,178.487,31.3242L178.487,22.3066L172.396,22.3066L171.947,20.7773L178.487,20.7773L178.487,7.83105L187.61,8.70117Q187.557,9.28125,187.095,9.68994Q186.634,10.0986,185.606,10.2041L185.606,20.0918L188.005,16.084L188.849,17.0068Q189.719,17.9297,190.853,19.1689Q191.987,20.4082,192.804,21.4365Q192.593,22.3066,191.327,22.3066L185.606,22.3066L185.606,28.8984Q188.374,27.9229,191.169,26.8945L191.327,27.3691Q189.192,29.4258,185.606,32.458L185.606,50.3877Q185.606,52.9189,185.065,54.7515Q184.525,56.584,182.718,57.6387Q180.912,58.6934,177.195,59.0889Q177.142,57.1904,176.918,55.7798Q176.694,54.3691,176.166,53.4727Q175.692,52.5498,174.848,51.9565Q174.004,51.3633,172.343,50.9678L172.343,50.2295L172.976,50.2822Q173.635,50.335,174.545,50.3613Q175.454,50.3877,176.298,50.4404Q177.142,50.4932,177.511,50.4932Q178.117,50.4932,178.302,50.269Q178.487,50.0449,178.487,49.6758L178.487,38.1797Q177.3,39.1025,176.061,40.0254Q175.797,41.2646,174.663,41.6865L171.526,33.5391ZM207.912,28.5557L207.912,24.3633L200.582,24.3633L200.582,28.9512L207.912,28.5557ZM207.912,22.834L207.912,18.7998L200.582,18.7998L200.582,22.834L207.912,22.834ZM207.912,17.2705L207.912,13.2363L200.582,13.2363L200.582,17.2705L207.912,17.2705ZM207.543,37.3623Q208.73,41.4229,210.786,44.0596Q211.05,44.5078,211.314,44.877Q211.314,44.877,211.366,44.8242Q212.711,41.3174,213.423,37.3623L207.543,37.3623Z" fill="#060606" fill-opacity="1"/></g></svg>