<svg xmlns="http://www.w3.org/2000/svg" xmlns:xlink="http://www.w3.org/1999/xlink" fill="none" version="1.1" width="150" height="43" viewBox="0 0 150 43"><g><path d="M14.2043,5.80078L21.2883,6.45117Q21.2531,6.83789,20.9807,7.11035Q20.7082,7.38281,19.9523,7.48828L19.9523,19.6875L24.6281,19.6875L27.5812,15.873L28.1262,16.2773Q28.6711,16.6992,29.4973,17.3496Q30.3234,18,31.2199,18.7383Q32.1164,19.4766,32.8723,20.127Q32.7316,20.707,31.8352,20.707L19.9523,20.707L19.9523,36.4746L27.0187,36.4746L30.0422,32.6074L30.5695,33.0117Q31.1144,33.4512,31.9758,34.1104Q32.8371,34.7695,33.7775,35.5078Q34.718,36.2461,35.4738,36.8965Q35.3332,37.4766,34.384,37.4766L1.49531,37.4766L1.19648,36.4746L14.2043,36.4746L14.2043,5.80078ZM64.0277,24.6973L66.9633,21.8496L71.8324,26.4902Q71.5863,26.7539,71.2611,26.8594Q70.9359,26.9648,70.3207,27.0352Q69.1957,28.1074,67.6312,29.373Q66.0668,30.6387,64.3793,31.7812Q64.0629,32.0449,63.7289,32.2559Q64.2035,32.4668,64.5902,32.7305Q66.3305,33.8379,67.0336,35.0947Q67.7367,36.3516,67.5697,37.415Q67.4027,38.4785,66.5414,39.0234Q65.6801,39.5684,64.2738,39.2344Q63.307,38.0215,61.9184,36.791Q60.5297,35.5605,58.8949,34.4268Q57.2602,33.293,55.5463,32.3613Q53.8324,31.4297,52.2504,30.8145L52.4613,30.4629Q56.8559,30.2695,59.8441,30.9199Q61.0043,31.2188,61.9711,31.5352Q62.1469,31.1484,62.3227,30.7441Q62.973,29.127,63.5531,27.5098Q63.9047,26.5254,64.1684,25.6992L58.3324,25.6992L56.5043,27.8965L51.7406,25.1719Q52.1801,24.7676,52.8656,24.3281Q52.9359,24.293,52.9711,24.2578Q53.393,23.0801,53.8676,21.6035Q54.1488,20.707,54.4477,19.7227L48.2953,19.7227L47.9965,18.7207L54.7289,18.7207Q54.9398,17.9648,55.1684,17.209Q55.7484,15.0469,56.2406,12.8848L50.3695,12.8848L50.0883,11.8828L56.5043,11.8828Q56.9613,9.9668,57.3305,8.31445Q57.7172,6.41602,57.893,5.18555L64.4496,6.55664Q64.3441,6.9082,63.9926,7.17188Q63.6234,7.41797,62.9379,7.41797Q62.7269,8.38477,62.393,9.61523Q62.1117,10.6875,61.8305,11.8828L64.9945,11.8828L67.3676,8.68359L67.8422,9.03516Q68.2641,9.4043,68.932,9.95801Q69.6,10.5117,70.3559,11.1445Q71.1117,11.7773,71.6918,12.3047Q71.5863,12.8848,70.6723,12.8848L61.5668,12.8848Q61.4613,13.2891,61.391,13.6406Q60.8109,15.8379,60.2484,18.0703Q60.1254,18.4043,60.0551,18.7207L66.6117,18.7207L69.1254,15.2578L69.6,15.627Q70.0746,16.0137,70.8129,16.6289Q71.5512,17.2441,72.3246,17.9121Q73.098,18.5801,73.7484,19.1602Q73.5902,19.7227,72.6937,19.7227L59.7738,19.7227Q59.4047,21.0586,59.0883,22.2891Q58.684,23.6074,58.3676,24.6973L64.0277,24.6973ZM52.3559,7.34766Q52.2152,7.69922,51.8725,7.90137Q51.5297,8.10352,50.8793,8.10352Q49.473,11.8477,47.7152,14.8711Q47.4516,15.2578,47.2055,15.6973L48.9281,16.3125Q48.8578,16.5586,48.6117,16.7432Q48.3656,16.9277,47.8207,17.0332L47.8207,38.0215Q47.7855,38.1973,47.1527,38.5576Q46.5199,38.918,45.5707,39.208Q44.6215,39.498,43.5668,39.498L42.6,39.498L42.6,21.498Q40.9477,23.1504,39.0316,24.4863L38.6801,24.2227Q40.016,21.8848,41.2553,18.8086Q42.4945,15.7324,43.5228,12.2432Q44.5512,8.75391,45.0785,5.25586L52.3559,7.34766ZM92.107,7.38281L104.816,7.38281L107.084,5.25586L111.074,8.49023Q110.67,9,109.703,9.14062Q109.492,12.7441,108.947,14.5811Q108.402,16.418,107.189,17.1738Q106.644,17.4902,106.029,17.7188L109.879,20.5137Q109.738,20.707,109.413,20.9004Q109.088,21.0938,108.595,21.1992L108.595,28.1602Q108.595,28.2656,107.875,28.5293Q107.154,28.793,106.196,29.0127Q105.238,29.2324,104.447,29.2324L103.586,29.2324L103.586,27.2812L98.8043,27.2812L98.8043,28.1602Q98.8043,28.3359,98.1891,28.6963Q97.5738,29.0566,96.6334,29.3203Q95.693,29.584,94.691,29.584L94.0055,29.584L94.0055,18.4043Q92.898,18.9668,91.5973,19.4766L91.4918,19.3359L91.4918,27.4746Q91.4918,27.6152,90.8414,27.9229Q90.191,28.2305,89.2945,28.459Q88.398,28.6875,87.5719,28.6875L86.7633,28.6875L86.7633,25.8398L83.898,25.8398L83.898,28.6875Q83.898,28.9512,83.3355,29.3291Q82.773,29.707,81.8766,30.0059Q80.9801,30.3047,79.9254,30.3047L79.2047,30.3047L79.2047,6.62695L84.0387,8.56055L86.4117,8.56055L88.5738,6.1875L92.9332,9.58008Q92.7926,9.79102,92.4322,10.0107Q92.0719,10.2305,91.4918,10.3359L91.4918,18.8613Q93.0738,17.4551,93.9703,16.0488Q94.9371,14.5371,95.3941,13.043Q95.8512,11.5488,95.9918,10.1074Q96.0621,9.21094,96.1324,8.38477L92.4234,8.38477L92.107,7.38281ZM101.494,8.38477Q101.353,9.47461,100.984,10.582Q100.492,12.2344,99.3932,13.8428Q98.2945,15.4512,96.4137,16.8926Q95.693,17.4199,94.8316,17.9297L98.9801,19.5117L103.216,19.5117L104.588,18.0352Q103.867,18.1406,103.005,18.1406Q103.005,17.209,102.9,16.4355Q102.795,15.6621,102.434,15.1963Q102.074,14.7305,101.494,14.4053Q100.914,14.0801,99.982,13.8516L99.982,13.4297Q100.492,13.4648,101.098,13.5Q101.705,13.5352,102.285,13.5527Q102.865,13.5703,103.146,13.5703Q103.867,13.5703,104.095,13.3594Q104.482,13.0605,104.763,11.584Q104.992,10.4062,105.097,8.38477L101.494,8.38477ZM101.459,29.8125Q104.816,30.4277,106.811,31.5439Q108.806,32.6602,109.703,33.9521Q110.599,35.2441,110.634,36.4482Q110.67,37.6523,110.046,38.4785Q109.421,39.3047,108.358,39.4541Q107.295,39.6035,106.029,38.7773Q105.642,37.2305,104.869,35.6396Q104.095,34.0488,103.137,32.6162Q102.179,31.1836,101.177,30.0234L101.459,29.8125ZM83.1422,29.8477L83.5641,29.8477Q84.4254,32.291,84.2145,34.1982Q84.0035,36.1055,83.1334,37.3447Q82.2633,38.584,81.1207,39.1289Q79.9254,39.709,78.7213,39.2959Q77.5172,38.8828,77.1305,37.6523Q76.8316,36.5098,77.4293,35.6748Q78.027,34.8398,78.9938,34.418Q79.9254,34.1367,80.8307,33.5039Q81.7359,32.8711,82.3863,31.9307Q83.0367,30.9902,83.1422,29.8477ZM93.7594,30.3398Q96.6773,30.9551,98.3473,32.001Q100.017,33.0469,100.685,34.251Q101.353,35.4551,101.248,36.5361Q101.142,37.6172,100.457,38.3203Q99.7711,39.0234,98.7604,39.0762Q97.7496,39.1289,96.6422,38.2324Q96.5367,36.8613,96.0621,35.4727Q95.5875,34.084,94.9195,32.8096Q94.2516,31.5352,93.4605,30.5332L93.7594,30.3398ZM87.2379,30.0938Q89.6461,31.2188,90.8941,32.5107Q92.1422,33.8027,92.485,35.042Q92.8277,36.2812,92.485,37.292Q92.1422,38.3027,91.3863,38.8477Q90.6305,39.3926,89.6373,39.2432Q88.6441,39.0938,87.7125,38.0566Q87.8883,36.7207,87.8004,35.3496Q87.7125,33.9785,87.4752,32.6689Q87.2379,31.3594,86.8863,30.2344L87.2379,30.0938ZM103.586,26.2793L103.586,20.5137L98.8043,20.5137L98.8043,26.2793L103.586,26.2793ZM86.7633,24.8379L86.7633,17.5254L83.898,17.5254L83.898,24.8379L86.7633,24.8379ZM86.7633,16.5234L86.7633,9.58008L83.898,9.58008L83.898,16.5234L86.7633,16.5234ZM120.397,6.01172L126.848,6.62695Q126.796,6.97852,126.514,7.25098Q126.233,7.52344,125.513,7.62891L125.513,15.7324L132.104,15.7324L132.104,5.25586L138.977,5.76562Q138.942,6.15234,138.652,6.4248Q138.362,6.69727,137.536,6.83789L137.536,15.7324L141.175,15.7324L143.864,11.9883L144.374,12.3926Q144.848,12.8145,145.622,13.4648Q146.395,14.1152,147.221,14.8359Q148.048,15.5566,148.698,16.1719Q148.663,16.4531,148.355,16.5938Q148.048,16.7344,147.643,16.7344L125.513,16.7344L125.513,19.0723Q125.477,21.0938,125.249,23.0801L133.827,23.0801L136.2,20.4785L141.016,24.1523Q140.841,24.3633,140.498,24.583Q140.155,24.8027,139.593,24.9434L139.593,38.0566Q139.593,38.1973,138.828,38.4873Q138.063,38.7773,137.026,39.0234Q135.989,39.2695,135.093,39.2695L134.179,39.2695L134.179,24.082L125.143,24.082Q125.073,24.5918,125.003,25.0488Q124.493,28.0371,123.324,30.7441Q122.155,33.4512,120.09,35.6572Q118.024,37.8633,114.772,39.3926L114.526,39.1289Q117.005,36.4746,118.27,33.2139Q119.536,29.9531,119.967,26.3496Q120.397,22.7461,120.397,19.0723L120.397,6.01172Z" fill="#FFFFFF" fill-opacity="1"/></g></svg>