<svg xmlns="http://www.w3.org/2000/svg" xmlns:xlink="http://www.w3.org/1999/xlink" fill="none" version="1.1" width="225" height="65" viewBox="0 0 225 65"><g><path d="M21.3064,8.70117L31.9324,9.67676Q31.8797,10.2568,31.471,10.6655Q31.0623,11.0742,29.9285,11.2324L29.9285,29.5312L36.9422,29.5312L41.3719,23.8096L42.1893,24.416Q43.0066,25.0488,44.2459,26.0244Q45.4852,27,46.8299,28.1074Q48.1746,29.2148,49.3084,30.1904Q49.0975,31.0605,47.7527,31.0605L29.9285,31.0605L29.9285,54.7119L40.5281,54.7119L45.0633,48.9111L45.8543,49.5176Q46.6717,50.1768,47.9637,51.1655Q49.2557,52.1543,50.6663,53.2617Q52.077,54.3691,53.2107,55.3447Q52.9998,56.2148,51.576,56.2148L2.24297,56.2148L1.79473,54.7119L21.3064,54.7119L21.3064,8.70117ZM96.0416,37.0459L100.445,32.7744L107.749,39.7354Q107.38,40.1309,106.892,40.2891Q106.404,40.4473,105.481,40.5527Q103.794,42.1611,101.447,44.0596Q99.1002,45.958,96.569,47.6719Q96.0943,48.0674,95.5934,48.3838Q96.3053,48.7002,96.8854,49.0957Q99.4957,50.7568,100.55,52.6421Q101.605,54.5273,101.355,56.1226Q101.104,57.7178,99.8121,58.5352Q98.5201,59.3525,96.4108,58.8516Q94.9606,57.0322,92.8775,55.1865Q90.7945,53.3408,88.3424,51.6401Q85.8902,49.9395,83.3194,48.542Q80.7486,47.1445,78.3756,46.2217L78.692,45.6943Q85.2838,45.4043,89.7662,46.3799Q91.5065,46.8281,92.9566,47.3027Q93.2203,46.7227,93.484,46.1162Q94.4596,43.6904,95.3297,41.2646Q95.857,39.7881,96.2525,38.5488L87.4986,38.5488L84.7565,41.8447L77.6109,37.7578Q78.2701,37.1514,79.2984,36.4922Q79.4039,36.4395,79.4566,36.3867Q80.0895,34.6201,80.8014,32.4053Q81.2233,31.0605,81.6715,29.584L72.443,29.584L71.9947,28.0811L82.0934,28.0811Q82.4098,26.9473,82.7525,25.8135Q83.6227,22.5703,84.3609,19.3271L75.5543,19.3271L75.1324,17.8242L84.7565,17.8242Q85.442,14.9502,85.9957,12.4717Q86.5758,9.62402,86.8395,7.77832L96.6744,9.83496Q96.5162,10.3623,95.9889,10.7578Q95.4352,11.127,94.4068,11.127Q94.0904,12.5771,93.5895,14.4229Q93.1676,16.0312,92.7457,17.8242L97.4918,17.8242L101.051,13.0254L101.763,13.5527Q102.396,14.1064,103.398,14.937Q104.4,15.7676,105.534,16.7168Q106.668,17.666,107.538,18.457Q107.38,19.3271,106.008,19.3271L92.3502,19.3271Q92.192,19.9336,92.0865,20.4609Q91.2164,23.7568,90.3727,27.1055Q90.1881,27.6064,90.0826,28.0811L99.9176,28.0811L103.688,22.8867L104.4,23.4404Q105.112,24.0205,106.219,24.9434Q107.327,25.8662,108.487,26.8682Q109.647,27.8701,110.623,28.7402Q110.385,29.584,109.041,29.584L89.6608,29.584Q89.107,31.5879,88.6324,33.4336Q88.026,35.4111,87.5514,37.0459L96.0416,37.0459ZM78.5338,11.0215Q78.3229,11.5488,77.8087,11.8521Q77.2945,12.1553,76.319,12.1553Q74.2096,17.7715,71.5729,22.3066Q71.1774,22.8867,70.8082,23.5459L73.3922,24.4688Q73.2867,24.8379,72.9176,25.1147Q72.5484,25.3916,71.7311,25.5498L71.7311,57.0322Q71.6783,57.2959,70.7291,57.8364Q69.7799,58.377,68.3561,58.812Q66.9322,59.2471,65.3502,59.2471L63.9,59.2471L63.9,32.2471Q61.4215,34.7256,58.5475,36.7295L58.0201,36.334Q60.024,32.8271,61.8829,28.2129Q63.7418,23.5986,65.2843,18.3647Q66.8268,13.1309,67.6178,7.88379L78.5338,11.0215ZM138.161,11.0742L157.224,11.0742L160.625,7.88379L166.611,12.7354Q166.004,13.5,164.554,13.7109Q164.238,19.1162,163.42,21.8716Q162.603,24.627,160.784,25.7607Q159.966,26.2354,159.043,26.5781L164.818,30.7705Q164.607,31.0605,164.119,31.3506Q163.631,31.6406,162.893,31.7988L162.893,42.2402Q162.893,42.3984,161.812,42.7939Q160.731,43.1895,159.294,43.519Q157.857,43.8486,156.67,43.8486L155.378,43.8486L155.378,40.9219L148.206,40.9219L148.206,42.2402Q148.206,42.5039,147.284,43.0444Q146.361,43.585,144.95,43.9805Q143.539,44.376,142.037,44.376L141.008,44.376L141.008,27.6064Q139.347,28.4502,137.396,29.2148L137.238,29.0039L137.238,41.2119Q137.238,41.4229,136.262,41.8843Q135.287,42.3457,133.942,42.6885Q132.597,43.0312,131.358,43.0312L130.145,43.0312L130.145,38.7598L125.847,38.7598L125.847,43.0312Q125.847,43.4268,125.003,43.9937Q124.16,44.5605,122.815,45.0088Q121.47,45.457,119.888,45.457L118.807,45.457L118.807,9.94043L126.058,12.8408L129.618,12.8408L132.861,9.28125L139.4,14.3701Q139.189,14.6865,138.648,15.0161Q138.108,15.3457,137.238,15.5039L137.238,28.292Q139.611,26.1826,140.955,24.0732Q142.406,21.8057,143.091,19.5645Q143.777,17.3232,143.988,15.1611Q144.093,13.8164,144.199,12.5771L138.635,12.5771L138.161,11.0742ZM152.241,12.5771Q152.03,14.2119,151.476,15.873Q150.738,18.3516,149.09,20.7642Q147.442,23.1768,144.621,25.3389Q143.539,26.1299,142.247,26.8945L148.47,29.2676L154.825,29.2676L156.881,27.0527Q155.8,27.2109,154.508,27.2109Q154.508,25.8135,154.35,24.6533Q154.192,23.4932,153.651,22.7944Q153.111,22.0957,152.241,21.6079Q151.371,21.1201,149.973,20.7773L149.973,20.1445Q150.738,20.1973,151.647,20.25Q152.557,20.3027,153.427,20.3291Q154.297,20.3555,154.719,20.3555Q155.8,20.3555,156.143,20.0391Q156.723,19.5908,157.145,17.376Q157.488,15.6094,157.646,12.5771L152.241,12.5771ZM152.188,44.7188Q157.224,45.6416,160.217,47.3159Q163.209,48.9902,164.554,50.9282Q165.899,52.8662,165.952,54.6724Q166.004,56.4785,165.068,57.7178Q164.132,58.957,162.537,59.1812Q160.942,59.4053,159.043,58.166Q158.463,55.8457,157.303,53.4595Q156.143,51.0732,154.706,48.9243Q153.269,46.7754,151.766,45.0352L152.188,44.7188ZM124.713,44.7715L125.346,44.7715Q126.638,48.4365,126.322,51.2974Q126.005,54.1582,124.7,56.0171Q123.395,57.876,121.681,58.6934Q119.888,59.5635,118.082,58.9438Q116.276,58.3242,115.696,56.4785Q115.247,54.7646,116.144,53.5122Q117.04,52.2598,118.491,51.627Q119.888,51.2051,121.246,50.2559Q122.604,49.3066,123.579,47.896Q124.555,46.4854,124.713,44.7715ZM140.639,45.5098Q145.016,46.4326,147.521,48.0015Q150.026,49.5703,151.028,51.3765Q152.03,53.1826,151.871,54.8042Q151.713,56.4258,150.685,57.4805Q149.657,58.5352,148.141,58.6143Q146.624,58.6934,144.963,57.3486Q144.805,55.292,144.093,53.209Q143.381,51.126,142.379,49.2144Q141.377,47.3027,140.191,45.7998L140.639,45.5098ZM130.857,45.1406Q134.469,46.8281,136.341,48.7661Q138.213,50.7041,138.727,52.563Q139.242,54.4219,138.727,55.938Q138.213,57.4541,137.079,58.2715Q135.946,59.0889,134.456,58.8647Q132.966,58.6406,131.569,57.085Q131.832,55.0811,131.701,53.0244Q131.569,50.9678,131.213,49.0034Q130.857,47.0391,130.329,45.3516L130.857,45.1406ZM155.378,39.4189L155.378,30.7705L148.206,30.7705L148.206,39.4189L155.378,39.4189ZM130.145,37.2568L130.145,26.2881L125.847,26.2881L125.847,37.2568L130.145,37.2568ZM130.145,24.7852L130.145,14.3701L125.847,14.3701L125.847,24.7852L130.145,24.7852ZM180.596,9.01758L190.273,9.94043Q190.194,10.4678,189.772,10.8765Q189.35,11.2852,188.269,11.4434L188.269,23.5986L198.156,23.5986L198.156,7.88379L208.466,8.64844Q208.413,9.22852,207.978,9.63721Q207.543,10.0459,206.304,10.2568L206.304,23.5986L211.762,23.5986L215.796,17.9824L216.561,18.5889Q217.273,19.2217,218.433,20.1973Q219.593,21.1729,220.832,22.2539Q222.071,23.335,223.047,24.2578Q222.994,24.6797,222.533,24.8906Q222.071,25.1016,221.465,25.1016L188.269,25.1016L188.269,28.6084Q188.216,31.6406,187.873,34.6201L200.74,34.6201L204.3,30.7178L211.525,36.2285Q211.261,36.5449,210.747,36.8745Q210.233,37.2041,209.389,37.415L209.389,57.085Q209.389,57.2959,208.242,57.731Q207.095,58.166,205.539,58.5352Q203.984,58.9043,202.639,58.9043L201.268,58.9043L201.268,36.123L187.715,36.123Q187.61,36.8877,187.504,37.5732Q186.739,42.0557,184.986,46.1162Q183.233,50.1768,180.134,53.4858Q177.036,56.7949,172.158,59.0889L171.789,58.6934Q175.507,54.7119,177.405,49.8208Q179.304,44.9297,179.95,39.5244Q180.596,34.1191,180.596,28.6084L180.596,9.01758Z" fill="#060606" fill-opacity="1"/></g></svg>