<svg xmlns="http://www.w3.org/2000/svg" xmlns:xlink="http://www.w3.org/1999/xlink" fill="none" version="1.1" width="1024" height="91" viewBox="0 0 1024 91"><g><g><path d="M354.896,4.52L357.152,2.696L360.8,6.008L358.88,7.88L350.24,7.88L350.24,10.808L354.32,10.808L356.576,8.936L360.272,12.248L358.304,14.168L350.24,14.168L350.24,17.144L355.664,17.144L357.92,15.272L361.616,18.584L359.648,20.504L332.096,20.504L331.28,17.144L342.704,17.144L342.704,14.168L334.64,14.168L333.824,10.808L342.704,10.808L342.704,7.88L332.48,7.88L331.664,4.52L342.704,4.52L342.704,0.776001L350.24,1.736L350.24,4.52L354.896,4.52ZM334.928,21.272L341.936,22.088L341.936,23.288L351.728,23.288L354.704,20.696L360.56,25.064L359.216,26.936L359.216,42.008Q359.216,46.328,354.944,46.328L351.152,46.328Q351.152,43.304,346.256,43.304L346.304,40.328Q348.704,40.232,350.816,40.232Q351.872,40.232,351.872,39.08L351.872,38.216L341.936,38.216L341.936,45.656L334.928,46.568L334.928,21.272ZM351.872,34.76L351.872,32.408L341.936,32.408L341.936,34.76L351.872,34.76ZM351.872,28.952L351.872,26.648L341.936,26.648L341.936,28.952L351.872,28.952ZM320.768,2.216Q326.384,4.712,329.84,7.928L324.992,13.4Q321.776,9.368,317.648,6.104L320.768,2.216ZM321.632,17.768L324.992,14.216L331.184,19.064L328.784,20.984L328.784,35.096Q330.512,34.376,332.24,33.512L333.968,37.112Q329.84,41.432,323.984,45.56L320.432,38.024Q321.296,37.784,322.16,37.496L322.16,25.208L322.064,25.208L322.064,21.8L317.984,21.8L317.024,17.768L321.632,17.768ZM392.336,2.552L399.2,4.616Q398.432,6.344,397.616,7.784L399.824,7.784L399.824,1.64L407.456,2.6L407.456,7.784L409.088,7.784L411.824,5.288L416.432,9.32L414.272,11.432L407.456,11.432L407.456,16.424L411.248,16.424L413.984,13.976L418.544,18.008L416.384,20.168L410.672,20.168L410.672,29.144Q410.672,30.008,411.152,30.008L412.112,30.008Q413.072,30.008,413.216,29.432L414.08,25.592L416.72,25.976Q416.672,27.032,416.672,27.8Q416.672,30.92,419.36,31.976Q417.92,35.96,414.08,35.96L408.128,35.96Q404,35.96,403.76,31.352L403.76,20.168L400.736,20.168L400.736,22.568Q400.736,32.072,389.936,36.44L388.064,33.8Q393.824,29.288,393.824,21.848L393.824,20.168L388.784,20.168L387.824,16.424L399.824,16.424L399.824,11.432L395.264,11.432Q393.392,13.976,391.376,15.704L388.4,14.072Q391.328,8.552,392.336,2.552ZM379.376,3.416Q384.992,6.536,388.352,9.704L382.544,15.608Q379.52,9.992,376.112,6.44L379.376,3.416ZM379.52,20.648L382.784,17.672L388.976,22.616L386.96,24.632L386.96,34.04Q387.632,38.456,393.632,38.456L419.696,38.456L417.632,44.936L393.872,44.936Q386.912,44.936,383.168,38.504Q382.16,41.24,378.416,46.28L373.952,40.616Q379.712,35.48,379.712,33.848L379.712,24.248L375.392,24.248L374.48,20.648L379.52,20.648ZM468.272,24.632L470.624,22.664L474.512,26.12L472.496,28.088L465.44,28.088L465.44,32.984L469.376,32.984L472.208,30.296L476.768,34.424L474.8,36.44L465.44,36.44L465.44,44.984L457.568,45.992L457.568,36.44L447.536,36.44L446.672,32.984L457.568,32.984L457.568,28.088L450.464,28.088L449.6,24.632L457.568,24.632L457.568,20.072Q453.536,21.368,448.736,21.704L447.584,18.44Q453.968,17,457.616,15.08Q454.064,12.008,451.52,7.64L449.216,7.64L448.4,4.088L466.88,4.088L469.616,1.448L476.624,6.536L473.792,7.496Q471.344,11.432,468.32,14.168Q471.776,15.128,477.056,15.368L474.704,21.8Q467.648,21.128,462.272,18.248Q460.832,18.968,459.296,19.496L465.44,20.216L465.44,24.632L468.272,24.632ZM456.128,7.64Q459.2,10.088,462.416,11.768Q464.576,9.848,465.68,7.64L456.128,7.64ZM444.56,10.28L447.104,7.736L451.616,11.768L449.456,13.736L444.272,13.736L444.272,22.04Q446.144,21.368,447.536,20.696L449.024,23.768Q447.152,25.496,444.272,27.32L444.272,40.472Q444.272,46.472,438.896,46.472L435.776,46.472Q435.776,42.392,431.744,42.2L431.984,38.6Q433.904,39.464,435.488,39.464Q436.736,39.464,436.736,38.12L436.736,31.496Q435.296,32.168,433.76,32.888L431.504,25.832Q433.712,25.304,436.736,24.392L436.736,13.736L432.656,13.736L431.744,10.28L436.736,10.28L436.736,1.256L444.272,2.216L444.272,10.28L444.56,10.28ZM494.336,23.432Q493.232,24.68,492.224,25.544L489.2,22.712Q494.576,13.304,496.592,1.352L504.848,2.744Q503.456,7.496,501.68,11.48L501.68,35.288Q508.304,25.016,510.512,14.312L503.84,14.312L502.88,10.664L513.68,10.664L513.68,1.688L520.688,2.504L520.688,10.664L526.256,10.664L528.896,8.072L533.552,12.248L531.344,14.312L522.416,14.312Q527.84,24.92,534.608,32.216L529.904,39.224Q528.416,37.16,527.072,34.904L525.68,36.488L520.688,36.488L520.688,44.696L513.68,45.608L513.68,36.488L508.256,36.488L507.872,35.096Q506.24,37.304,504.464,39.176L501.68,36.824L501.68,45.032L494.336,45.848L494.336,23.432ZM509.648,32.552L513.68,32.552L513.68,25.208Q511.904,29.144,509.648,32.552ZM520.688,32.552L521.36,32.552L523.616,30.776L525.824,32.792Q523.424,28.472,521.456,23.528Q521.024,22.424,520.688,21.416L520.688,32.552ZM550.496,27.224L547.472,27.224Q548.528,17,549.344,9.704L555.008,10.664L553.664,23.528L556.688,23.528L558.368,7.784L549.44,7.784L548.624,4.424L558.272,4.424L560.864,2.504L566.912,6.92L564.368,9.128L562.976,22.376L567.344,25.928L565.52,27.464Q565.328,32.792,565.088,36.056Q564.848,39.848,564.56,40.568Q564.176,43.736,561.968,44.84Q560.912,45.752,556.112,45.752L556.208,44.504Q556.064,41.96,552.56,41.768L552.8,39.128Q555.824,39.704,557.6,39.704Q558.464,39.704,558.656,38.888Q558.944,37.688,559.136,35.432Q559.28,33.944,559.328,32.504Q555.2,35.672,549.92,38.648L546.848,32.168Q553.136,30.824,559.472,28.232L559.472,27.272L550.496,27.272L550.496,27.224ZM573.2,1.544L582.032,3.032Q581.408,4.472,580.688,5.768Q583.136,8.168,585.152,9.704Q588.416,12.296,592.448,13.928L587.36,20.504Q585.2,18.872,581.264,13.976Q579.968,12.344,578.432,9.656Q576.944,12.056,575.216,14.072Q573.296,16.328,571.424,18.056L578.816,18.056L581.024,15.752L584.912,19.592L583.04,21.512L570.464,21.512L569.888,19.4Q567.824,21.176,565.904,22.232L563.648,20.12Q570.656,11.96,573.2,1.544ZM569.504,25.832Q573.2,30.968,575.216,35.864L569.552,39.656Q568.352,33.08,566.432,27.704L569.504,25.832ZM577.76,23.528Q580.112,27.368,581.744,32.264Q583.088,27.464,583.904,22.52L591.296,23.912Q589.856,29.288,587.312,33.416Q585.488,37.256,583.136,40.376L585.008,40.376L587.792,37.976L592.304,41.912L590.288,43.928L566.096,43.928L565.232,40.376L579.104,40.376Q580.16,37.592,581.024,34.808L576.176,36.296Q575.072,28.376,573.824,24.44L577.76,23.528ZM642.368,8.6L645.2,6.008L649.76,10.136L647.648,12.248L623.408,12.248L623.408,19.88L636.128,19.88L639.584,17L646.448,22.232L644.096,24.2Q644.096,28.28,643.76,32.744Q643.28,41.432,640.544,43.544Q638.144,45.8,633.776,45.8L630.176,45.8Q630.176,40.472,624.32,40.328L624.704,37.352Q627.776,38.12,633.248,38.12Q634.4,38.12,634.736,37.016Q635.36,36.2,635.744,31.016Q636.128,27.752,636.128,23.48L623.36,23.48Q622.784,37.304,607.04,45.896L604.64,42.968Q615.248,34.616,615.248,21.656L615.248,12.248L605.6,12.248L604.688,8.6L624.368,8.6Q622.544,5.912,620.672,3.992L624.992,0.919998Q629.84,3.944,632.288,6.248L629.552,8.6L642.368,8.6ZM695.792,2.264Q698.864,4.088,702.32,7.112L696.896,11.048Q694.784,7.4,692.48,4.664L695.792,2.264ZM679.184,21.992L681.824,19.544L686.48,23.672L684.224,25.88L677.648,25.88L677.648,34.376Q681.776,33.32,685.904,32.072L687.728,35.816Q678.704,40.088,666.032,44.12L662.864,37.496Q666.8,36.872,670.688,36.008L670.688,25.88L665.072,25.88L664.016,21.992L679.184,21.992ZM700.256,11.384L703.04,8.84L707.648,12.968L705.488,15.128L692.816,15.128Q693.584,19.352,694.784,23.576Q698.48,35.048,700.784,36.248Q701.552,36.248,703.136,27.944L705.968,29.048Q705.2,31.16,705.2,32.888Q705.2,37.784,706.688,40.52Q705.776,42.872,704.528,44.024Q703.568,45.368,701.216,45.368Q699.248,45.368,696.56,43.352Q694.16,41.336,692.048,37.352Q687.728,28.856,685.472,15.128L663.824,15.128L662.864,11.384L684.896,11.384Q684.272,6.728,683.84,1.592L691.28,2.6Q691.52,6.968,692.192,11.384L700.256,11.384Z" fill="#000000" fill-opacity="1"/></g><g><path d="M363.783,77L365.492,69.1113Q365.93,67.10156,366.196,64.9209Q366.463,62.74023,366.463,60.89453Q366.463,60.4707,366.449,60.14258L367.953,59.45898L367.953,59.8418Q367.953,60.74414,367.789,62.75391Q367.625,64.76367,367.447,65.84375Q368.281,63.88867,369.525,62.21387Q370.77,60.53906,372.075,59.56836Q373.381,58.597656,374.447,58.597656Q375.514,58.597656,376.163,59.45215Q376.813,60.30664,376.813,61.74219Q376.813,63.54688,376.033,65.36523Q375.254,67.18359,373.907,68.7148Q372.561,70.2461,370.954,71.1279Q369.348,72.0098,367.775,72.0098Q367.42,72.0098,366.941,71.9141L367.666,70.9434Q368.336,71.1621,369.033,71.1621Q370.168,71.1621,371.31,70.4033Q372.451,69.6445,373.354,68.2637Q374.188,66.99219,374.775,65.09863Q375.363,63.20508,375.363,61.82422Q375.363,60.67578,374.974,60.0332Q374.584,59.39062,373.887,59.39062Q372.902,59.39062,371.617,60.51855Q370.332,61.64648,369.102,63.57422Q368.213,64.94141,367.618,66.52734Q367.023,68.1133,366.559,70.2051L365.082,77L363.783,77ZM382.328,57.736328L378.732,73.5L378.609,74.0332Q378.431,74.7852,378.431,75.3047Q378.431,75.7285,378.589,75.99510000000001Q378.746,76.2617,378.978,76.2617Q379.402,76.2617,380.332,75.25L380.55,75.4414L380.414,75.5918Q379.634,76.5078,379.265,76.8291Q378.896,77.1504,378.582,77.1504Q378.172,77.1504,377.864,76.69239999999999Q377.556,76.2344,377.556,75.6465Q377.556,75.2363,377.734,74.3477L380.892,58.433594L382.328,57.736328ZM388.226,74.8809L388.472,75.0859Q387.624,76.207,386.818,76.70609999999999Q386.011,77.2051,385.081,77.2051Q383.974,77.2051,383.304,76.4668Q382.634,75.7285,382.634,74.5117Q382.634,73.2812,383.283,72.0166Q383.933,70.752,384.91,69.9248Q385.888,69.0977,386.845,69.0977Q387.406,69.0977,387.768,69.4258Q388.13,69.7539,388.13,70.2734Q388.13,71.3262,386.982,72.3789Q385.833,73.4316,383.851,74.1699Q383.837,74.2793,383.837,74.416Q383.837,75.3594,384.357,75.9541Q384.876,76.5488,385.697,76.5488Q386.339,76.5488,386.941,76.1455Q387.542,75.7422,388.226,74.8809ZM383.851,73.8418Q385.327,73.1855,386.12,72.3789Q386.654,71.832,386.982,71.2031Q387.31,70.5742,387.31,70.0684Q387.31,69.4258,386.722,69.4258Q385.833,69.4258,384.924,70.8271Q384.015,72.2285,383.851,73.8418ZM398.526,68.9199L397.241,73.9238Q397.036,74.7441,397.036,75.209Q397.036,75.6191,397.214,75.9199Q397.391,76.2207,397.651,76.2207Q398.048,76.2207,398.964,75.25L399.155,75.4414L399.005,75.6191Q398.28,76.4531,397.891,76.7881Q397.501,77.123,397.214,77.123Q396.776,77.123,396.455,76.66499999999999Q396.134,76.207,396.134,75.6055Q396.134,75.168,396.462,73.623L396.571,73.1035Q396.065,74.2793,395.218,75.3594Q393.796,77.1641,392.497,77.1641Q391.718,77.1641,391.266,76.6035Q390.815,76.043,390.815,75.0996Q390.815,73.8145,391.547,72.4062Q392.278,70.998,393.365,70.0889Q394.452,69.1797,395.477,69.1797Q396.557,69.1797,397.091,69.9727L397.241,69.4531L398.526,68.9199ZM396.954,70.6699Q396.79,70.1504,396.4,69.85640000000001Q396.011,69.5625,395.505,69.5625Q394.903,69.5625,394.233,70.11619999999999Q393.563,70.6699,393.003,71.6543Q392.565,72.4336,392.271,73.377Q391.977,74.3203,391.977,74.9355Q391.977,75.6328,392.244,76.0293Q392.511,76.4258,393.003,76.4258Q393.632,76.4258,394.315,75.8379Q394.999,75.25,395.669,74.1562Q396.079,73.5273,396.311,72.8984Q396.544,72.2695,396.831,71.1484L396.954,70.6699ZM400.569,76.125L401.334,75.2227Q401.936,76.6445,403.249,76.6445Q403.932,76.6445,404.417,76.2002Q404.903,75.7559,404.903,75.168Q404.903,74.7441,404.67,74.4434Q404.438,74.1426,403.563,73.4316Q402.756,72.7754,402.476,72.3994Q402.196,72.0234,402.196,71.5312Q402.196,70.8887,402.572,70.3418Q402.948,69.7949,403.577,69.46000000000001Q404.206,69.125,404.903,69.125Q405.518,69.125,405.935,69.43260000000001Q406.352,69.7402,406.352,70.2188Q406.352,70.8477,405.819,71.0801Q405.737,70.4375,405.333,70.0752Q404.93,69.7129,404.301,69.7129Q403.741,69.7129,403.324,70.0752Q402.907,70.4375,402.907,70.9023Q402.907,71.4766,403.618,72.0371L404.411,72.6797Q405.573,73.5957,405.573,74.5527Q405.573,75.2637,405.169,75.8857Q404.766,76.5078,404.076,76.877Q403.385,77.2461,402.62,77.2461Q401.403,77.2461,400.569,76.125ZM414.273,74.8809L414.52,75.0859Q413.672,76.207,412.865,76.70609999999999Q412.059,77.2051,411.129,77.2051Q410.022,77.2051,409.352,76.4668Q408.682,75.7285,408.682,74.5117Q408.682,73.2812,409.331,72.0166Q409.981,70.752,410.958,69.9248Q411.936,69.0977,412.893,69.0977Q413.453,69.0977,413.815,69.4258Q414.178,69.7539,414.178,70.2734Q414.178,71.3262,413.029,72.3789Q411.881,73.4316,409.898,74.1699Q409.885,74.2793,409.885,74.416Q409.885,75.3594,410.404,75.9541Q410.924,76.5488,411.744,76.5488Q412.387,76.5488,412.988,76.1455Q413.59,75.7422,414.273,74.8809ZM409.898,73.8418Q411.375,73.1855,412.168,72.3789Q412.701,71.832,413.029,71.2031Q413.357,70.5742,413.357,70.0684Q413.357,69.4258,412.77,69.4258Q411.881,69.4258,410.972,70.8271Q410.063,72.2285,409.898,73.8418ZM428.859,74.9492Q428.025,76.125,427.239,76.66499999999999Q426.452,77.2051,425.495,77.2051Q424.443,77.2051,423.78,76.4668Q423.116,75.7285,423.116,74.5527Q423.116,73.3223,423.759,72.0508Q424.402,70.7793,425.406,69.9453Q426.411,69.1113,427.341,69.1113Q427.97,69.1113,428.353,69.46000000000001Q428.736,69.8086,428.736,70.3965Q428.736,70.9297,428.332,71.41499999999999Q427.929,71.9004,427.464,71.9004Q427.259,71.9004,427.095,71.7363Q427.984,71.3398,427.984,70.2598Q427.984,69.877,427.785,69.66499999999999Q427.587,69.4531,427.259,69.4531Q426.753,69.4531,426.24,69.8633Q425.728,70.2734,425.277,71.00489999999999Q424.825,71.7363,424.573,72.5635Q424.32,73.3906,424.32,74.2383Q424.32,75.25,424.798,75.8789Q425.277,76.5078,426.056,76.5078Q426.726,76.5078,427.355,76.084Q427.984,75.6602,428.667,74.7852L428.859,74.9492ZM431.147,77.1367L434.784,58.433594L436.22,57.736328L432.432,74.3887Q432.487,74.293,432.487,74.2656L432.802,73.5547Q433.608,71.7227,434.825,70.3828Q435.974,69.1387,436.944,69.1387Q437.464,69.1387,437.778,69.4736Q438.093,69.8086,438.093,70.3691Q438.093,70.6836,437.942,71.2578L437.806,71.832L437.382,73.5L437.259,74.0332Q437.054,74.8535,437.054,75.291Q437.054,75.7285,437.204,75.99510000000001Q437.354,76.2617,437.6,76.2617Q438.024,76.2617,438.954,75.25L439.159,75.4414L439.036,75.5918Q438.257,76.5078,437.881,76.8291Q437.505,77.1504,437.204,77.1504Q436.78,77.1504,436.479,76.6992Q436.179,76.248,436.179,75.6465Q436.179,75.2773,436.356,74.3477L436.876,71.4492Q436.999,70.8066,436.999,70.4922Q436.999,70.2051,436.849,70.0547Q436.698,69.9043,436.438,69.9043Q435.932,69.9043,435.276,70.499Q434.62,71.0938,433.957,72.1465Q433.294,73.1992,432.802,74.3955Q432.309,75.5918,432.063,76.8496L431.147,77.1367ZM441.325,74.375Q441.325,73.1445,441.988,71.9209Q442.651,70.6973,443.704,69.9316Q444.756,69.166,445.85,69.166Q446.999,69.166,447.703,69.9248Q448.407,70.6836,448.407,71.8867Q448.407,73.1992,447.757,74.4297Q447.108,75.6602,446.048,76.44630000000001Q444.989,77.2324,443.909,77.2324Q442.747,77.2324,442.036,76.44630000000001Q441.325,75.6602,441.325,74.375ZM447.176,71.3672Q447.176,70.5469,446.773,70.0137Q446.37,69.4805,445.741,69.4805Q445.166,69.4805,444.64,69.8496Q444.114,70.2188,443.676,70.9297Q443.184,71.75,442.863,72.8438Q442.541,73.9375,442.541,74.7852Q442.541,75.7969,442.938,76.3438Q443.334,76.8906,444.073,76.8906Q445.262,76.8906,446.165,75.2363Q446.629,74.3887,446.903,73.3359Q447.176,72.2832,447.176,71.3672ZM450.928,74.375Q450.928,73.1445,451.591,71.9209Q452.254,70.6973,453.307,69.9316Q454.359,69.166,455.453,69.166Q456.602,69.166,457.306,69.9248Q458.01,70.6836,458.01,71.8867Q458.01,73.1992,457.36,74.4297Q456.711,75.6602,455.651,76.44630000000001Q454.592,77.2324,453.512,77.2324Q452.35,77.2324,451.639,76.44630000000001Q450.928,75.6602,450.928,74.375ZM456.779,71.3672Q456.779,70.5469,456.376,70.0137Q455.973,69.4805,455.344,69.4805Q454.77,69.4805,454.243,69.8496Q453.717,70.2188,453.279,70.9297Q452.787,71.75,452.466,72.8438Q452.145,73.9375,452.145,74.7852Q452.145,75.7969,452.541,76.3438Q452.938,76.8906,453.676,76.8906Q454.865,76.8906,455.768,75.2363Q456.232,74.3887,456.506,73.3359Q456.779,72.2832,456.779,71.3672ZM459.779,76.125L460.545,75.2227Q461.146,76.6445,462.459,76.6445Q463.142,76.6445,463.628,76.2002Q464.113,75.7559,464.113,75.168Q464.113,74.7441,463.881,74.4434Q463.648,74.1426,462.773,73.4316Q461.966,72.7754,461.686,72.3994Q461.406,72.0234,461.406,71.5312Q461.406,70.8887,461.782,70.3418Q462.158,69.7949,462.787,69.46000000000001Q463.416,69.125,464.113,69.125Q464.728,69.125,465.145,69.43260000000001Q465.562,69.7402,465.562,70.2188Q465.562,70.8477,465.029,71.0801Q464.947,70.4375,464.544,70.0752Q464.14,69.7129,463.511,69.7129Q462.951,69.7129,462.534,70.0752Q462.117,70.4375,462.117,70.9023Q462.117,71.4766,462.828,72.0371L463.621,72.6797Q464.783,73.5957,464.783,74.5527Q464.783,75.2637,464.38,75.8857Q463.976,76.5078,463.286,76.877Q462.595,77.2461,461.83,77.2461Q460.613,77.2461,459.779,76.125ZM473.484,74.8809L473.73,75.0859Q472.882,76.207,472.075,76.70609999999999Q471.269,77.2051,470.339,77.2051Q469.232,77.2051,468.562,76.4668Q467.892,75.7285,467.892,74.5117Q467.892,73.2812,468.541,72.0166Q469.191,70.752,470.168,69.9248Q471.146,69.0977,472.103,69.0977Q472.663,69.0977,473.026,69.4258Q473.388,69.7539,473.388,70.2734Q473.388,71.3262,472.24,72.3789Q471.091,73.4316,469.109,74.1699Q469.095,74.2793,469.095,74.416Q469.095,75.3594,469.615,75.9541Q470.134,76.5488,470.954,76.5488Q471.597,76.5488,472.199,76.1455Q472.8,75.7422,473.484,74.8809ZM469.109,73.8418Q470.585,73.1855,471.378,72.3789Q471.911,71.832,472.24,71.2031Q472.568,70.5742,472.568,70.0684Q472.568,69.4258,471.98,69.4258Q471.091,69.4258,470.182,70.8271Q469.273,72.2285,469.109,73.8418ZM484.938,69.6992L483.899,74.252Q483.735,75.0039,483.735,75.3184Q483.735,75.8105,483.967,76.1113Q484.2,76.4121,484.582,76.4121Q484.952,76.4121,485.259,76.2002Q485.567,75.9883,486.196,75.3184L486.36,75.1543L486.565,75.3594Q485.758,76.3438,485.218,76.7471Q484.678,77.1504,484.159,77.1504Q483.502,77.1504,483.113,76.7197Q482.723,76.2891,482.723,75.5918Q482.723,75.0723,482.928,74.0879L483.817,69.6992L482.504,69.6992L482.6,69.2344L483.913,69.2344L484.678,65.54297L485.991,65.02344L485.034,69.2344L487.249,69.2344L487.153,69.6992L484.938,69.6992ZM488.69,77.1367L492.326,58.433594L493.762,57.736328L489.975,74.3887Q490.029,74.293,490.029,74.2656L490.344,73.5547Q491.15,71.7227,492.367,70.3828Q493.516,69.1387,494.486,69.1387Q495.006,69.1387,495.32,69.4736Q495.635,69.8086,495.635,70.3691Q495.635,70.6836,495.484,71.2578L495.348,71.832L494.924,73.5L494.801,74.0332Q494.596,74.8535,494.596,75.291Q494.596,75.7285,494.746,75.99510000000001Q494.897,76.2617,495.143,76.2617Q495.566,76.2617,496.496,75.25L496.701,75.4414L496.578,75.5918Q495.799,76.5078,495.423,76.8291Q495.047,77.1504,494.746,77.1504Q494.322,77.1504,494.022,76.6992Q493.721,76.248,493.721,75.6465Q493.721,75.2773,493.898,74.3477L494.418,71.4492Q494.541,70.8066,494.541,70.4922Q494.541,70.2051,494.391,70.0547Q494.24,69.9043,493.981,69.9043Q493.475,69.9043,492.818,70.499Q492.162,71.0938,491.499,72.1465Q490.836,73.1992,490.344,74.3955Q489.852,75.5918,489.606,76.8496L488.69,77.1367ZM504.459,74.8809L504.705,75.0859Q503.857,76.207,503.05,76.70609999999999Q502.244,77.2051,501.314,77.2051Q500.207,77.2051,499.537,76.4668Q498.867,75.7285,498.867,74.5117Q498.867,73.2812,499.516,72.0166Q500.166,70.752,501.143,69.9248Q502.121,69.0977,503.078,69.0977Q503.638,69.0977,504.001,69.4258Q504.363,69.7539,504.363,70.2734Q504.363,71.3262,503.215,72.3789Q502.066,73.4316,500.084,74.1699Q500.07,74.2793,500.07,74.416Q500.07,75.3594,500.59,75.9541Q501.109,76.5488,501.929,76.5488Q502.572,76.5488,503.174,76.1455Q503.775,75.7422,504.459,74.8809ZM500.084,73.8418Q501.56,73.1855,502.353,72.3789Q502.886,71.832,503.215,71.2031Q503.543,70.5742,503.543,70.0684Q503.543,69.4258,502.955,69.4258Q502.066,69.4258,501.157,70.8271Q500.248,72.2285,500.084,73.8418ZM513.671,69.5625L514.901,69.002L514.901,69.248L514.901,69.3574Q514.901,70.3281,514.956,71.1621Q515.011,71.9961,515.161,73.541Q515.352,75.3457,515.448,75.7422Q515.544,76.1387,515.776,76.1387Q516.077,76.1387,516.761,75.1748Q517.444,74.2109,518.1,72.8438L517.677,69.5625L518.921,69.002L518.934,69.3438Q519.044,72.2695,519.167,73.541Q519.208,73.8691,519.249,74.23140000000001Q519.29,74.5938,519.31,74.7988Q519.331,75.0039,519.372,75.2705Q519.413,75.5371,519.427,75.6191Q519.536,76.0703,519.782,76.0703Q520.274,76.0703,521.477,74.1152Q522.612,72.3105,522.612,71.0664Q522.612,70.0684,521.956,69.6172L522.995,68.6602Q523.474,69.207,523.474,70.082Q523.474,71.0391,522.94,72.2559Q522.407,73.4727,521.354,74.9766Q520.698,75.8926,520.151,76.4941Q519.55,77.1777,519.167,77.1777Q518.866,77.1777,518.716,76.89750000000001Q518.565,76.6172,518.483,75.9473L518.182,73.5Q517.581,74.7168,516.802,75.7695Q515.776,77.1777,515.161,77.1777Q514.874,77.1777,514.737,76.9248Q514.6,76.6719,514.491,75.9883L513.671,69.5625ZM533.323,68.9199L532.038,73.9238Q531.832,74.7441,531.832,75.209Q531.832,75.6191,532.01,75.9199Q532.188,76.2207,532.448,76.2207Q532.844,76.2207,533.76,75.25L533.952,75.4414L533.801,75.6191Q533.077,76.4531,532.687,76.7881Q532.297,77.123,532.01,77.123Q531.573,77.123,531.251,76.66499999999999Q530.93,76.207,530.93,75.6055Q530.93,75.168,531.258,73.623L531.368,73.1035Q530.862,74.2793,530.014,75.3594Q528.592,77.1641,527.293,77.1641Q526.514,77.1641,526.063,76.6035Q525.612,76.043,525.612,75.0996Q525.612,73.8145,526.343,72.4062Q527.075,70.998,528.162,70.0889Q529.248,69.1797,530.274,69.1797Q531.354,69.1797,531.887,69.9727L532.038,69.4531L533.323,68.9199ZM531.75,70.6699Q531.586,70.1504,531.197,69.85640000000001Q530.807,69.5625,530.301,69.5625Q529.7,69.5625,529.03,70.11619999999999Q528.36,70.6699,527.799,71.6543Q527.362,72.4336,527.068,73.377Q526.774,74.3203,526.774,74.9355Q526.774,75.6328,527.04,76.0293Q527.307,76.4258,527.799,76.4258Q528.428,76.4258,529.112,75.8379Q529.795,75.25,530.465,74.1562Q530.875,73.5273,531.108,72.8984Q531.34,72.2695,531.627,71.1484L531.75,70.6699ZM534.9,81.8535L535.57,80.9512Q536.363,81.7988,537.361,81.7988Q538.414,81.7988,539.057,80.9648Q539.699,80.1309,540.109,78.2305L540.738,75.4004Q539.234,77.1641,538.018,77.1641Q537.307,77.1641,536.903,76.7266Q536.5,76.2891,536.5,75.5508Q536.5,75.0586,536.623,74.4707L537.553,69.5625L538.879,69.002L537.553,74.5117Q537.389,75.1816,537.389,75.5098Q537.389,75.9746,537.669,76.26859999999999Q537.949,76.5625,538.414,76.5625Q538.92,76.5625,539.528,76.1182Q540.137,75.6738,540.889,74.7852L542.065,69.5625L543.35,69.002L541.354,77.041Q540.998,78.4902,540.677,79.3105Q540.356,80.1309,539.932,80.6777Q538.592,82.4004,536.664,82.4004Q535.543,82.4004,534.9,81.8535ZM551.947,74.375Q551.947,73.1445,552.61,71.9209Q553.273,70.6973,554.325,69.9316Q555.378,69.166,556.472,69.166Q557.62,69.166,558.324,69.9248Q559.029,70.6836,559.029,71.8867Q559.029,73.1992,558.379,74.4297Q557.73,75.6602,556.67,76.44630000000001Q555.611,77.2324,554.531,77.2324Q553.368,77.2324,552.657,76.44630000000001Q551.947,75.6602,551.947,74.375ZM557.798,71.3672Q557.798,70.5469,557.395,70.0137Q556.991,69.4805,556.363,69.4805Q555.788,69.4805,555.262,69.8496Q554.736,70.2188,554.298,70.9297Q553.806,71.75,553.485,72.8438Q553.163,73.9375,553.163,74.7852Q553.163,75.7969,553.56,76.3438Q553.956,76.8906,554.695,76.8906Q555.884,76.8906,556.786,75.2363Q557.251,74.3887,557.525,73.3359Q557.798,72.2832,557.798,71.3672ZM563.245,69.6992L561.905,69.6992L562.001,69.2344L563.354,69.2344L564.639,63.23242Q564.968,61.74219,565.309,60.85352Q565.651,59.96484,566.13,59.32227Q567.305,57.75,569.055,57.75Q569.643,57.75,570.136,57.9414062L569.643,59.18555Q569.096,58.419922,568.249,58.419922Q567.606,58.419922,567.203,58.918945Q566.8,59.41797,566.513,60.56641L564.421,69.2344L566.622,69.2344L566.526,69.6992L564.311,69.6992L562.438,77.4648Q562.069,79.0234,561.721,79.7891Q561.372,80.5547,560.77,81.2109Q559.677,82.4004,558.378,82.4004Q557.749,82.4004,557.257,82.1816L557.927,81.1973Q558.501,81.6621,559.171,81.6621Q560.182,81.6621,560.688,80.5957Q561.057,79.8027,561.468,77.9707L563.245,69.6992ZM576.818,63.64258Q577.174,63.64258,577.393,63.86133Q577.611,64.08008,577.611,64.43555Q577.611,64.77734,577.379,65.00977Q577.146,65.24219,576.818,65.24219Q576.504,65.24219,576.258,64.99609Q576.012,64.75,576.012,64.43555Q576.012,64.10742,576.244,63.875Q576.477,63.64258,576.818,63.64258ZM576.422,69.002L575.219,73.5Q574.918,74.6074,574.918,75.2773Q574.918,75.7148,575.068,75.9883Q575.219,76.2617,575.465,76.2617Q575.889,76.2617,576.818,75.25L577.037,75.4414L576.9,75.5918Q576.121,76.5078,575.752,76.8291Q575.383,77.1504,575.068,77.1504Q574.645,77.1504,574.351,76.7197Q574.057,76.2891,574.057,75.6465Q574.057,75.2363,574.221,74.3477L575.082,69.5625L576.422,69.002ZM579.257,77.1367L580.707,69.5625L582.005,69.002L580.83,74.0195Q581.964,71.627,583.086,70.3828Q584.207,69.1387,585.232,69.1387Q585.738,69.1387,586.052,69.4736Q586.367,69.8086,586.367,70.3691Q586.367,70.6836,586.216,71.2578L586.08,71.832L585.67,73.5L585.533,74.0332Q585.328,74.8535,585.328,75.291Q585.328,75.7285,585.478,75.99510000000001Q585.629,76.2617,585.875,76.2617Q586.298,76.2617,587.228,75.25L587.447,75.4414L587.31,75.5918Q586.531,76.5078,586.162,76.8291Q585.793,77.1504,585.478,77.1504Q585.054,77.1504,584.76,76.7197Q584.466,76.2891,584.466,75.6465Q584.466,75.209,584.63,74.3477L585.164,71.4492Q585.273,70.7656,585.273,70.4922Q585.273,70.2051,585.123,70.0547Q584.972,69.9043,584.713,69.9043Q583.769,69.9043,582.388,71.9277Q581.718,72.8984,581.281,73.8486Q580.843,74.7988,580.297,76.4805L580.173,76.8496L579.257,77.1367ZM592.21,69.6992L591.171,74.252Q591.007,75.0039,591.007,75.3184Q591.007,75.8105,591.239,76.1113Q591.472,76.4121,591.855,76.4121Q592.224,76.4121,592.531,76.2002Q592.839,75.9883,593.468,75.3184L593.632,75.1543L593.837,75.3594Q593.03,76.3438,592.49,76.7471Q591.95,77.1504,591.431,77.1504Q590.775,77.1504,590.385,76.7197Q589.995,76.2891,589.995,75.5918Q589.995,75.0723,590.2,74.0879L591.089,69.6992L589.777,69.6992L589.872,69.2344L591.185,69.2344L591.95,65.54297L593.263,65.02344L592.306,69.2344L594.521,69.2344L594.425,69.6992L592.21,69.6992ZM601.608,74.8809L601.854,75.0859Q601.007,76.207,600.2,76.70609999999999Q599.393,77.2051,598.464,77.2051Q597.356,77.2051,596.686,76.4668Q596.016,75.7285,596.016,74.5117Q596.016,73.2812,596.666,72.0166Q597.315,70.752,598.293,69.9248Q599.27,69.0977,600.227,69.0977Q600.788,69.0977,601.15,69.4258Q601.513,69.7539,601.513,70.2734Q601.513,71.3262,600.364,72.3789Q599.216,73.4316,597.233,74.1699Q597.22,74.2793,597.22,74.416Q597.22,75.3594,597.739,75.9541Q598.259,76.5488,599.079,76.5488Q599.721,76.5488,600.323,76.1455Q600.925,75.7422,601.608,74.8809ZM597.233,73.8418Q598.71,73.1855,599.503,72.3789Q600.036,71.832,600.364,71.2031Q600.692,70.5742,600.692,70.0684Q600.692,69.4258,600.104,69.4258Q599.216,69.4258,598.306,70.8271Q597.397,72.2285,597.233,73.8418ZM604.198,73.1172Q605.373,71.6953,605.77,70.4648Q604.662,69.8496,604.662,68.7012Q604.662,68.1543,604.922,67.8125Q605.182,67.4707,605.578,67.4707Q605.989,67.4707,606.248,67.84667999999999Q606.508,68.2227,606.508,68.8242Q606.508,69.248,606.358,69.7676Q606.727,69.8633,607.028,69.8633Q607.875,69.8633,608.422,69.3711L609.078,69.3711L608.983,69.5625Q607.998,71.3672,607.363,73.1104Q606.727,74.8535,606.727,75.7148Q606.727,76.0293,606.891,76.24119999999999Q607.055,76.4531,607.287,76.4531Q607.848,76.4531,609.092,75.2637L609.311,75.5098Q608.928,75.9336,608.121,76.5625Q607.397,77.1367,606.768,77.1367Q606.235,77.1367,605.927,76.7812Q605.62,76.4258,605.62,75.8105Q605.62,74.7852,606.412,73.2129Q606.7,72.625,607.151,71.873Q607.602,71.1211,608.286,70.082L608.422,69.8906Q607.971,70.3008,607.554,70.4717Q607.137,70.6426,606.604,70.6426Q606.358,70.6426,606.084,70.5742Q605.647,71.9141,604.444,73.3359L604.198,73.1172ZM606.071,69.6445Q606.125,69.3027,606.125,69.0703Q606.125,68.5918,605.968,68.3184Q605.811,68.0449,605.565,68.0449Q605.428,68.0449,605.326,68.1748Q605.223,68.3047,605.223,68.4961Q605.223,69.1387,606.071,69.6445ZM619.365,68.9199L618.08,73.9238Q617.875,74.7441,617.875,75.209Q617.875,75.6191,618.053,75.9199Q618.23,76.2207,618.49,76.2207Q618.887,76.2207,619.803,75.25L619.994,75.4414L619.844,75.6191Q619.119,76.4531,618.729,76.7881Q618.34,77.123,618.053,77.123Q617.615,77.123,617.294,76.66499999999999Q616.973,76.207,616.973,75.6055Q616.973,75.168,617.301,73.623L617.41,73.1035Q616.904,74.2793,616.057,75.3594Q614.635,77.1641,613.336,77.1641Q612.557,77.1641,612.105,76.6035Q611.654,76.043,611.654,75.0996Q611.654,73.8145,612.386,72.4062Q613.117,70.998,614.204,70.0889Q615.291,69.1797,616.316,69.1797Q617.396,69.1797,617.93,69.9727L618.08,69.4531L619.365,68.9199ZM617.793,70.6699Q617.629,70.1504,617.239,69.85640000000001Q616.85,69.5625,616.344,69.5625Q615.742,69.5625,615.072,70.11619999999999Q614.402,70.6699,613.842,71.6543Q613.404,72.4336,613.11,73.377Q612.816,74.3203,612.816,74.9355Q612.816,75.6328,613.083,76.0293Q613.35,76.4258,613.842,76.4258Q614.471,76.4258,615.154,75.8379Q615.838,75.25,616.508,74.1562Q616.918,73.5273,617.15,72.8984Q617.383,72.2695,617.67,71.1484L617.793,70.6699ZM627.902,74.9492Q627.068,76.125,626.282,76.66499999999999Q625.496,77.2051,624.539,77.2051Q623.486,77.2051,622.823,76.4668Q622.16,75.7285,622.16,74.5527Q622.16,73.3223,622.802,72.0508Q623.445,70.7793,624.45,69.9453Q625.455,69.1113,626.384,69.1113Q627.013,69.1113,627.396,69.46000000000001Q627.779,69.8086,627.779,70.3965Q627.779,70.9297,627.376,71.41499999999999Q626.972,71.9004,626.507,71.9004Q626.302,71.9004,626.138,71.7363Q627.027,71.3398,627.027,70.2598Q627.027,69.877,626.829,69.66499999999999Q626.63,69.4531,626.302,69.4531Q625.797,69.4531,625.284,69.8633Q624.771,70.2734,624.32,71.00489999999999Q623.869,71.7363,623.616,72.5635Q623.363,73.3906,623.363,74.2383Q623.363,75.25,623.841,75.8789Q624.32,76.5078,625.099,76.5078Q625.769,76.5078,626.398,76.084Q627.027,75.6602,627.711,74.7852L627.902,74.9492ZM632.857,69.6992L631.818,74.252Q631.654,75.0039,631.654,75.3184Q631.654,75.8105,631.886,76.1113Q632.118,76.4121,632.501,76.4121Q632.87,76.4121,633.178,76.2002Q633.486,75.9883,634.114,75.3184L634.279,75.1543L634.484,75.3594Q633.677,76.3438,633.137,76.7471Q632.597,77.1504,632.077,77.1504Q631.421,77.1504,631.031,76.7197Q630.642,76.2891,630.642,75.5918Q630.642,75.0723,630.847,74.0879L631.736,69.6992L630.423,69.6992L630.519,69.2344L631.831,69.2344L632.597,65.54297L633.909,65.02344L632.952,69.2344L635.167,69.2344L635.071,69.6992L632.857,69.6992ZM639.794,63.64258Q640.149,63.64258,640.368,63.86133Q640.587,64.08008,640.587,64.43555Q640.587,64.77734,640.354,65.00977Q640.122,65.24219,639.794,65.24219Q639.479,65.24219,639.233,64.99609Q638.987,64.75,638.987,64.43555Q638.987,64.10742,639.219,63.875Q639.452,63.64258,639.794,63.64258ZM639.397,69.002L638.194,73.5Q637.893,74.6074,637.893,75.2773Q637.893,75.7148,638.044,75.9883Q638.194,76.2617,638.44,76.2617Q638.864,76.2617,639.794,75.25L640.012,75.4414L639.876,75.5918Q639.096,76.5078,638.727,76.8291Q638.358,77.1504,638.044,77.1504Q637.62,77.1504,637.326,76.7197Q637.032,76.2891,637.032,75.6465Q637.032,75.2363,637.196,74.3477L638.057,69.5625L639.397,69.002ZM642.096,74.375Q642.096,73.1445,642.759,71.9209Q643.422,70.6973,644.475,69.9316Q645.528,69.166,646.621,69.166Q647.77,69.166,648.474,69.9248Q649.178,70.6836,649.178,71.8867Q649.178,73.1992,648.529,74.4297Q647.879,75.6602,646.82,76.44630000000001Q645.76,77.2324,644.68,77.2324Q643.518,77.2324,642.807,76.44630000000001Q642.096,75.6602,642.096,74.375ZM647.948,71.3672Q647.948,70.5469,647.544,70.0137Q647.141,69.4805,646.512,69.4805Q645.938,69.4805,645.411,69.8496Q644.885,70.2188,644.448,70.9297Q643.955,71.75,643.634,72.8438Q643.313,73.9375,643.313,74.7852Q643.313,75.7969,643.709,76.3438Q644.106,76.8906,644.844,76.8906Q646.034,76.8906,646.936,75.2363Q647.401,74.3887,647.674,73.3359Q647.948,72.2832,647.948,71.3672ZM651.836,77.1367L653.285,69.5625L654.584,69.002L653.408,74.0195Q654.543,71.627,655.664,70.3828Q656.785,69.1387,657.811,69.1387Q658.316,69.1387,658.631,69.4736Q658.945,69.8086,658.945,70.3691Q658.945,70.6836,658.795,71.2578L658.658,71.832L658.248,73.5L658.111,74.0332Q657.906,74.8535,657.906,75.291Q657.906,75.7285,658.057,75.99510000000001Q658.207,76.2617,658.453,76.2617Q658.877,76.2617,659.807,75.25L660.025,75.4414L659.889,75.5918Q659.109,76.5078,658.74,76.8291Q658.371,77.1504,658.057,77.1504Q657.633,77.1504,657.339,76.7197Q657.045,76.2891,657.045,75.6465Q657.045,75.209,657.209,74.3477L657.742,71.4492Q657.852,70.7656,657.852,70.4922Q657.852,70.2051,657.701,70.0547Q657.551,69.9043,657.291,69.9043Q656.348,69.9043,654.967,71.9277Q654.297,72.8984,653.859,73.8486Q653.422,74.7988,652.875,76.4805L652.752,76.8496L651.836,77.1367Z" fill="#000000" fill-opacity="1"/></g></g></svg>