<svg xmlns="http://www.w3.org/2000/svg" xmlns:xlink="http://www.w3.org/1999/xlink" fill="none" version="1.1" width="221" height="50" viewBox="0 0 221 50"><g><g><g><path d="M29.178,18.1582Q29.178,18.3076,28.8791,18.5229Q28.5803,18.7383,28.1057,18.9009Q27.6311,19.0635,27.0686,19.0635L26.6555,19.0635L26.6555,4.58789L29.2483,5.65137L31.208199999999998,5.65137L32.4123,4.3418L34.7414,6.16992Q34.644800000000004,6.30176,34.4734,6.39844Q34.302,6.49512,34.0383,6.57422L34.0383,17.6396Q34.020700000000005,17.7451,33.678,17.9517Q33.3352,18.1582,32.8298,18.3384Q32.3244,18.5186,31.8235,18.5186L31.3928,18.5186L31.3928,16.4004L29.178,16.4004L29.178,18.1582ZM17.96312,13.0693Q18.218,12.2959,18.52122,11.2061Q18.82445,10.1162,19.13206,8.89453Q19.29027,8.19141,19.45726,7.50586L17.840073,7.50586L17.67308,7.00488L19.562730000000002,7.00488Q19.61546,6.73242,19.68578,6.45996Q19.94066,5.27344,20.12962,4.26709Q20.31859,3.26074,20.3889,2.62793L23.526600000000002,3.00586Q23.49144,3.18164,23.30687,3.33105Q23.166240000000002,3.4541,22.805889999999998,3.50684Q22.69164,4.06934,22.51585,4.8252Q22.27855,5.77441,22.014879999999998,6.9082Q21.9973,6.96973,21.97972,7.00488L23.07835,7.00488L24.28246,5.7041L26.462139999999998,7.59375Q26.38304,7.76074,26.22044,7.83105Q26.057850000000002,7.90137,25.75902,7.9541Q25.53929,9.79102,25.12621,11.5225Q24.7307,13.1221,23.97484,14.5459Q24.45824,14.792,24.81859,15.0469Q25.67992,15.6797,25.98753,16.2554Q26.29515,16.8311,26.19847,17.2881Q26.10179,17.7451,25.723860000000002,18.0264Q25.34593,18.3076,24.84056,18.334Q24.33519,18.3604,23.86937,18.0703Q23.41234,17.3672,22.75316,16.6465Q22.67406,16.5938,22.62132,16.5234Q22.120350000000002,17.0859,21.52269,17.5869Q20.046129999999998,18.8262,17.778549,19.6963L17.637924,19.4941Q19.21996,18.4658,20.26585,17.1035Q20.89867,16.2861,21.38206,15.3545Q21.32933,15.3193,21.29417,15.2842Q20.48558,14.6162,19.62865,14.0493Q18.77171,13.4824,17.96312,13.0693ZM31.3928,15.8906L31.3928,6.15234L29.178,6.15234L29.178,15.8906L31.3928,15.8906ZM22.08519,13.7373Q22.58617,12.2959,22.87621,10.7139Q23.14867,9.14062,23.25414,7.50586L21.84789,7.50586Q21.63695,8.34961,21.41722,9.2373Q21.09203,10.4414,20.76683,11.5576Q20.50316,12.4189,20.26585,13.1748Q21.276600000000002,13.4473,22.08519,13.7373ZM50.2007,10.4766L51.1939,9.36035L53.3472,10.9775Q53.2769,11.0918,53.0967,11.1973Q52.9165,11.3027,52.6265,11.3555L52.6265,14.7393Q52.6265,15.3545,52.4375,15.8027Q52.2486,16.251,51.6641,16.5146Q51.0796,16.7783,49.8755,16.8662Q49.8579,16.4531,49.7876,16.1279Q49.7173,15.8027,49.5152,15.6094Q49.3394,15.4072,49.0405,15.2534Q48.7417,15.0996,48.1089,15.0117L48.1089,14.7744L48.3638,14.792Q48.6011,14.8184,48.939499999999995,14.8359Q49.2778,14.8535,49.5943,14.8711Q49.9107,14.8887,50.0601,14.8887Q50.2534,14.8887,50.315,14.7964Q50.3765,14.7041,50.3765,14.5635L50.3765,14.0186Q50.3589,14.0537,50.3237,14.0977Q50.0777,14.3613,49.7173,14.3613Q49.3569,14.3613,49.0318,14.001Q49.0845,13.623,49.0669,13.1924Q48.618700000000004,13.4121,48.0737,13.6582Q47.106899999999996,14.0977,45.7183,14.6689Q45.647999999999996,14.8535,45.5029,14.9414Q45.3579,15.0293,45.1997,15.0645L44.4614,13.1221L44.4614,15.9521Q44.4614,16.0576,44.1626,16.229Q43.8638,16.4004,43.4155,16.541Q42.984899999999996,16.6816,42.5103,16.6816Q43.4155,16.9893,44.6548,17.1211Q46.0435,17.2793,48.0386,17.2793Q49.5327,17.2793,50.8643,17.2441Q52.1958,17.209,53.69,17.1387L53.69,17.332Q52.9693,17.5166,52.5737,18.1011Q52.1782,18.6855,52.0903,19.4238L47.2476,19.4238Q45.3228,19.4238,44.0703,19.0898Q42.8179,18.7559,41.9653,18.0615Q41.1128,17.3672,40.3921,16.2686Q40.207499999999996,15.9697,40.0449,15.9961Q39.8823,16.0225,39.7241,16.2686Q39.5659,16.5938,39.2671,17.0991Q38.9683,17.6045,38.634299999999996,18.1802Q38.3003,18.7559,38.0278,19.292Q38.0894,19.5469,37.8345,19.7139L36.2525,17.2617Q36.7183,17.0068,37.2852,16.686Q37.8521,16.3652,38.3882,16.04L38.3882,9.82617L36.5161,9.82617L36.4107,9.30762L38.106899999999996,9.30762L39.2935,7.76074L41.772,9.73828Q41.6489,9.86133,41.4336,9.97119Q41.2183,10.0811,40.8228,10.1514L40.8228,15.75Q41.3941,16.2158,42.1148,16.5234L42.1148,9.51855L42.853,9.80859L42.853,2.90039L45.234899999999996,3.81445L49.4624,3.81445L50.5083,2.68066L52.6616,4.32422Q52.5913,4.42969,52.4024,4.53516Q52.2134,4.64062,51.9497,4.70215L51.9497,8.96484Q51.9497,9.03516,51.6333,9.18018Q51.3169,9.3252,50.8775,9.45264Q50.438,9.58008,50.0337,9.58008L49.6382,9.58008L49.6382,8.79785L48.4341,8.79785L48.4341,10.4766L50.2007,10.4766ZM37.403800000000004,3.02344Q38.8628,3.33105,39.6978,3.854Q40.5327,4.37695,40.893100000000004,4.97021Q41.2534,5.56348,41.2271,6.09521Q41.2007,6.62695,40.884299999999996,6.97852Q40.5679,7.33008,40.0757,7.37402Q39.5835,7.41797,39.021,7.00488Q38.897999999999996,6.31934,38.6167,5.625Q38.335499999999996,4.93066,37.9751,4.28467Q37.6148,3.63867,37.2368,3.11133L37.403800000000004,3.02344ZM46.219300000000004,12.7793L46.219300000000004,10.9775L44.4614,10.9775L44.4614,12.7793L45.647999999999996,12.7793Q45.9116,12.7793,46.219300000000004,12.7793ZM45.120599999999996,9.10547Q45.120599999999996,9.20215,44.835,9.36914Q44.5493,9.53613,44.1055,9.67236Q43.6616,9.80859,43.178200000000004,9.80859L42.853,9.80859L44.5845,10.4766L46.219300000000004,10.4766L46.219300000000004,8.79785L45.120599999999996,8.79785L45.120599999999996,9.10547ZM48.9614,11.5576Q49.8579,12.0059,50.2359,12.4893Q50.3062,12.6035,50.3765,12.7266L50.3765,10.9775L48.4341,10.9775L48.4341,12.7266Q48.7241,12.7266,49.0142,12.709Q48.9966,12.5244,48.9614,12.3311Q48.8648,11.9355,48.7417,11.6279L48.9614,11.5576ZM49.6382,6.54785L48.4341,6.54785L48.4341,8.29688L49.6382,8.29688L49.6382,6.54785ZM48.4341,4.32422L48.4341,6.04688L49.6382,6.04688L49.6382,4.32422L48.4341,4.32422ZM46.219300000000004,8.29688L46.219300000000004,6.54785L45.120599999999996,6.54785L45.120599999999996,8.29688L46.219300000000004,8.29688ZM46.219300000000004,6.04688L46.219300000000004,4.32422L45.120599999999996,4.32422L45.120599999999996,6.04688L46.219300000000004,6.04688ZM55.0603,6.85547L58.1541,6.85547L58.1541,2.7334L61.327,2.98828Q61.3094,3.18164,61.1819,3.31787Q61.0545,3.4541,60.6766,3.50684L60.6766,6.85547L60.8172,6.85547L62.0477,5.2207L62.2762,5.39648Q62.4959,5.58105,62.8387,5.8667Q63.1814,6.15234,63.5594,6.45996Q63.8406,6.73242,64.0955,6.96973Q64.2801,6.31934,64.4383,5.63379Q64.7635,4.15723,64.9041,2.66309L68.4197,3.52441Q68.3582,3.70898,68.178,3.81445Q67.9978,3.91992,67.699,3.94629Q67.1541,5.56348,66.451,6.85547L68.9734,6.85547L70.2127,5.16797L70.45,5.34375Q70.6873,5.5459,71.03450000000001,5.83154Q71.38159999999999,6.11719,71.77279999999999,6.45117Q72.1639,6.78516,72.4803,7.0752Q72.41,7.36523,71.96170000000001,7.36523L70.951,7.36523Q70.70490000000001,9.21973,70.17750000000001,10.9248Q69.5711,12.8848,68.4725,14.5635Q68.45490000000001,14.5811,68.45490000000001,14.5811Q69.0086,15.1523,69.65899999999999,15.6621Q70.8982,16.6641,72.4627,17.3672L72.41,17.5518Q71.47829999999999,17.7451,70.93780000000001,18.2856Q70.3973,18.8262,70.14240000000001,19.7139Q68.4197,18.4482,67.3387,16.6113Q67.2244,16.4355,67.1189,16.2334Q66.4334,16.9365,65.6072,17.5693Q63.8582,18.8789,61.3094,19.749L61.1951,19.582Q63.6824,18.0527,65.15899999999999,16.04Q65.77420000000001,15.2139,66.24000000000001,14.3262Q65.9148,13.4473,65.66,12.4717Q65.2469,10.8369,64.9744,9.01758Q64.0252,10.1338,62.8562,10.9424L62.6541,10.8018Q63.199,9.77344,63.6473,8.44629Q63.823,7.90137,64.0076,7.33008Q63.8758,7.36523,63.7176,7.36523L60.6766,7.36523L60.6766,10.8545L61.4676,10.0107L63.6297,11.6631Q63.5594,11.751,63.4056,11.8521Q63.2518,11.9531,62.9969,12.0059L62.9969,17.2969Q62.9969,17.3672,62.6629,17.5386Q62.3289,17.71,61.8719,17.8462Q61.4148,17.9824,60.9842,17.9824L60.5711,17.9824L60.5711,16.6113L58.3562,16.6113L58.3562,17.8418Q58.3562,17.9648,57.8421,18.2329Q57.3279,18.501,56.4314,18.501L55.992,18.501L55.992,10.1865L58.1541,10.9951L58.1541,7.36523L55.201,7.36523L55.0603,6.85547ZM60.5711,11.6631L58.3562,11.6631L58.3562,16.1104L60.5711,16.1104L60.5711,11.6631ZM66.97829999999999,12.6914Q67.1717,12.1816,67.3211,11.6807Q67.92750000000001,9.58008,68.0945,7.36523L66.1697,7.36523Q65.9324,7.74316,65.6951,8.08594Q65.5018,8.36719,65.282,8.63965Q65.55449999999999,9.63281,65.9148,10.5293Q66.3631,11.6982,66.97829999999999,12.6914ZM83.5362,2.64551Q84.7403,2.59277,85.3907,2.81689Q86.0411,3.04102,86.2476,3.39258Q86.4542,3.74414,86.3179,4.10449Q86.1817,4.46484,85.8389,4.70215L87.8341,4.70215L88.8624,3.27832L89.1876,3.54199Q89.5128,3.81445,89.9522,4.19238Q90.3917,4.57031,90.7345,4.91309Q90.6641,5.20312,90.2511,5.20312L87.043,5.20312L89.0294,5.87109Q88.9678,6.0293,88.8009,6.13916Q88.6339,6.24902,88.3262,6.24902Q87.7813,6.78516,87.1749,7.33008Q86.7794,7.66406,86.419,7.9541L87.9307,7.9541L88.9678,6.57422L89.3106,6.82031Q89.6358,7.09277,90.0885,7.46191Q90.5411,7.83105,90.9014,8.17383Q90.8399,8.46387,90.4093,8.46387L79.7745,8.46387L79.6339,7.9541L83.0352,7.9541Q82.71,7.86621,82.3848,7.55859Q82.42,6.9082,82.2442,6.24902Q82.0772,5.63379,81.8663,5.20312L80.9434,5.20312Q80.72370000000001,5.29102,80.3458,5.30859Q80.047,5.83594,79.6031,6.54346Q79.1593,7.25098,78.6759,7.96289Q78.1925,8.6748,77.7178,9.2373Q79.0538,10.0635,79.691,11.2676Q80.32820000000001,12.4717,80.32820000000001,13.5879Q80.32820000000001,14.8887,79.7525,15.6533Q79.1768,16.418,77.6651,16.4355Q77.6651,15.9697,77.61240000000001,15.4116Q77.5596,14.8535,77.4366,14.6338Q77.3663,14.4756,77.1817,14.3438Q77.12899999999999,14.3086,77.0762,14.2734L77.0762,18.9141Q77.0762,19.0459,76.5797,19.3491Q76.0831,19.6523,75.1866,19.6523L74.7735,19.6523L74.7735,3.24316L77.3048,4.1748L77.81450000000001,4.1748L78.9659,3.05859L80.7501,4.70215L84.2393,4.70215Q84.1339,4.62305,84.0196,4.55273Q84.0372,4.03418,83.8482,3.52881Q83.6593,3.02344,83.4132,2.7334L83.5362,2.64551ZM83.0177,14.3438Q83.0177,14.4316,82.7188,14.603Q82.42,14.7744,81.9542,14.9106Q81.4884,15.0469,80.9962,15.0469L80.67099999999999,15.0469L80.67099999999999,8.70996L83.1055,9.65039L86.92,9.65039L87.9483,8.55176L90.0665,10.1338Q89.9962,10.2217,89.8336,10.3228Q89.671,10.4238,89.4249,10.4766L89.4249,14.0361Q89.4249,14.1152,89.1085,14.2559Q88.7921,14.3965,88.3526,14.5239Q87.9132,14.6514,87.5177,14.6514L87.0958,14.6514L87.0958,14.0361L86.2169,14.0361L86.2169,15.9082L87.8956,15.9082L89.0118,14.4756L89.3721,14.7393Q89.7061,15.0117,90.1851,15.3984Q90.6641,15.7852,91.0421,16.1279Q90.9718,16.418,90.5411,16.418L86.2169,16.418L86.2169,19.2217Q86.2169,19.292,85.7027,19.481Q85.1886,19.6699,84.2921,19.6699L83.8614,19.6699L83.8614,16.418L79.7393,16.418L79.5899,15.9082L83.8614,15.9082L83.8614,14.0361L83.0177,14.0361L83.0177,14.3438ZM77.0762,13.9307L77.5421,13.9307Q77.77940000000001,13.9307,77.9024,13.8428Q78.043,13.7549,78.1265,13.5264Q78.21000000000001,13.2979,78.21000000000001,12.9199Q78.21000000000001,12.0234,77.9947,11.0698Q77.77940000000001,10.1162,77.25200000000001,9.29004Q77.3663,8.79785,77.4893,8.13428Q77.61240000000001,7.4707,77.7222,6.75Q77.8321,6.0293,77.92,5.34375Q77.95519999999999,4.9834,77.99029999999999,4.67578L77.0762,4.67578L77.0762,13.9307ZM83.0177,13.5352L87.0958,13.5352L87.0958,12.0586L83.0177,12.0586L83.0177,13.5352ZM87.0958,11.5576L87.0958,10.1514L83.0177,10.1514L83.0177,11.5576L87.0958,11.5576ZM86.3663,5.20312L82.6749,5.20312Q83.2637,5.37891,83.6417,5.63379Q84.2218,6.0293,84.4019,6.45117Q84.5821,6.87305,84.4459,7.2334Q84.3096,7.59375,83.9845,7.81348Q83.8438,7.90137,83.6593,7.9541L85.7862,7.9541Q85.9093,7.43555,86.0762,6.67969Q86.2169,5.92383,86.3663,5.20312ZM95.0755,18.9756Q94.9701,19.5996,94.4647,20.3467Q93.9593,21.0938,92.8431,21.6562L93.1507,22.2451Q94.3373,21.7441,95.0492,20.918Q95.7611,20.0918,96.0819,19.125Q96.4027,18.1582,96.4027,17.2617Q96.4027,16.2334,95.8534,15.7017Q95.3041,15.1699,94.5658,15.1699Q93.7923,15.1699,93.3177,15.6753Q92.8431,16.1807,92.8431,16.8486Q92.8431,17.5166,93.2298,17.9385Q93.6166,18.3604,94.1483,18.5933Q94.68,18.8262,95.0755,18.9756ZM120.22,18.8613Q120.22,18.9932,119.904,19.1821Q119.588,19.3711,119.104,19.5205Q118.621,19.6699,118.076,19.6699L117.698,19.6699L117.698,9.82617L120.326,10.8545L124.035,10.8545L125.098,9.65039L116.6168,9.65039L116.4762,9.14062L120.581,9.14062L120.581,7.43555L117.698,7.43555L117.557,6.92578L120.581,6.92578L120.581,5.30859L117.056,5.30859L116.9069,4.80762L120.581,4.80762L120.581,2.59277L123.727,2.84766Q123.71,3.02344,123.595,3.14209Q123.481,3.26074,123.156,3.31348L123.156,4.80762L124.615,4.80762L125.854,3.16406L126.091,3.34863Q126.32,3.52441,126.672,3.81445Q127.023,4.10449,127.41,4.4209Q127.797,4.7373,128.122,5.01855Q128.051,5.30859,127.603,5.30859L123.156,5.30859L123.156,6.92578L124.158,6.92578L125.318,5.41406L126.54,6.38965Q127.023,6.78516,127.419,7.14551Q127.348,7.43555,126.918,7.43555L123.156,7.43555L123.156,9.14062L124.756,9.14062L126.03,7.48828L126.267,7.66406Q126.505,7.84863,126.856,8.13428Q127.208,8.41992,127.603,8.74512Q127.999,9.07031,128.324,9.36035Q128.245,9.65039,127.797,9.65039L125.186,9.65039L127.489,11.373Q127.401,11.4873,127.23,11.5928Q127.058,11.6982,126.768,11.7686L126.768,16.9365Q126.768,17.7451,126.57,18.3296Q126.373,18.9141,125.727,19.2568Q125.081,19.5996,123.745,19.7314Q123.727,19.0986,123.657,18.6592Q123.587,18.2197,123.384,17.9297Q123.209,17.6396,122.919,17.4507Q122.629,17.2617,122.005,17.1387L122.005,16.9014L122.233,16.9189Q122.47,16.9365,122.813,16.9453Q123.156,16.9541,123.459,16.9717Q123.762,16.9893,123.894,16.9893Q124.088,16.9893,124.153,16.9014Q124.219,16.8135,124.219,16.6465L124.219,15.4775L120.22,15.4775L120.22,18.8613ZM113.4879,7.48828L114.6041,6.38965L116.6168,8.06836Q116.5465,8.17383,116.3532,8.26172Q116.1686,8.34961,115.8434,8.38477L115.8434,14.7744Q116.5641,14.3789,117.302,13.9658L117.39,14.0977Q117.144,14.5283,116.6828,15.249Q116.2213,15.9697,115.6149,16.8486Q115.3073,17.2969,114.9469,17.7627Q114.8766,18.1582,114.7096,18.4307Q114.4811,18.8262,114.2086,19.0283L112.3893,16.4004Q113.0748,16.0049,113.2638,15.7896Q113.4528,15.5742,113.4528,15.249L113.4528,7.98926L111.4137,7.98926L111.2555,7.48828L113.4879,7.48828ZM112.6266,2.80371Q114.0241,2.91797,114.8371,3.2959Q115.65,3.67383,115.9928,4.15723Q116.3356,4.64062,116.296,5.11963Q116.2565,5.59863,115.9445,5.93262Q115.6325,6.2666,115.1447,6.31934Q114.6569,6.37207,114.1032,6.01172Q113.9713,5.45801,113.7033,4.89111Q113.4352,4.32422,113.1188,3.81006Q112.8024,3.2959,112.4772,2.90039L112.6266,2.80371ZM124.219,14.9766L124.219,13.4121L120.22,13.4121L120.22,14.9766L124.219,14.9766ZM124.219,12.9023L124.219,11.3555L120.22,11.3555L120.22,12.9023L124.219,12.9023ZM136.998,19.0635Q136.98000000000002,19.1689,136.501,19.4326Q136.022,19.6963,135.143,19.6963L134.73000000000002,19.6963L134.73000000000002,15.6797Q133.236,16.418,131.311,17.2793Q131.162,17.6748,130.767,17.7627L129.83499999999998,14.8711Q130.301,14.8184,131.039,14.6865L131.039,4.58789L130.02800000000002,4.58789L129.888,4.08691L135.574,4.08691L136.761,2.61035L137.139,2.88281Q137.499,3.16406,138.013,3.55518Q138.527,3.94629,138.923,4.29785Q138.852,4.58789,138.422,4.58789L136.998,4.58789L136.998,13.5703Q137.965,13.377,138.923,13.1748L138.958,13.3594Q138.149,13.8604,136.998,14.4932L136.998,19.0635ZM146.103,3.34863Q146.068,3.50684,145.906,3.6167Q145.743,3.72656,145.435,3.72656Q145.075,4.22754,144.565,4.84277Q144.05599999999998,5.45801,143.476,6.06445Q143.04500000000002,6.5127,142.614,6.89062L143.748,6.89062L144.882,5.39648L145.242,5.66895Q145.585,5.95898,146.068,6.35449Q146.552,6.75,146.93,7.11035Q146.859,7.40039,146.429,7.40039L143.098,7.40039L143.098,10.7139Q143.098,10.9951,143.07999999999998,11.3027L143.81799999999998,11.3027L145.005,9.68555L145.225,9.86133Q145.435,10.0459,145.778,10.3228Q146.121,10.5996,146.49,10.9248Q146.859,11.25,147.167,11.5225Q147.097,11.8037,146.648,11.8037L143.28199999999998,11.8037Q143.563,12.9463,144.091,13.8779Q144.697,15.0117,145.563,15.8115Q146.429,16.6113,147.457,17.0244L147.439,17.2266Q146.789,17.4199,146.31,18.0352Q145.831,18.6504,145.62,19.5996Q144.732,18.7559,144.20499999999998,17.6309Q143.678,16.5059,143.405,14.9941Q143.168,13.7197,143.04500000000002,12.0762Q143.027,12.3135,142.99200000000002,12.5684Q142.878,13.5527,142.539,14.5415Q142.201,15.5303,141.524,16.4751Q140.848,17.4199,139.723,18.2417Q138.598,19.0635,136.88400000000001,19.6963L136.761,19.5469Q138.026,18.5801,138.78199999999998,17.5078Q139.538,16.4355,139.925,15.293Q140.311,14.1504,140.452,12.999Q140.505,12.4014,140.54000000000002,11.8037L137.358,11.8037L137.209,11.3027L140.558,11.3027Q140.575,10.9951,140.575,10.7139L140.575,7.40039L137.947,7.40039L137.80700000000002,6.89062L142.148,6.89062Q142.289,6.35449,142.412,5.72168Q142.579,4.91309,142.702,4.10449Q142.825,3.2959,142.878,2.62793L146.103,3.34863ZM138.685,2.7334Q139.916,3.04102,140.588,3.52002Q141.261,3.99902,141.502,4.50879Q141.744,5.01855,141.66500000000002,5.47119Q141.586,5.92383,141.269,6.20068Q140.953,6.47754,140.514,6.47754Q140.074,6.47754,139.608,6.08203Q139.591,5.51074,139.437,4.92627Q139.28300000000002,4.3418,139.041,3.80127Q138.8,3.26074,138.527,2.83008L138.685,2.7334ZM134.73000000000002,11.0303L134.73000000000002,8.06836L133.236,8.06836L133.236,11.0303L134.73000000000002,11.0303ZM134.73000000000002,7.55859L134.73000000000002,4.58789L133.236,4.58789L133.236,7.55859L134.73000000000002,7.55859ZM134.73000000000002,14.001L134.73000000000002,11.54L133.236,11.54L133.236,14.291Q133.377,14.2734,133.54399999999998,14.2383Q134.115,14.1328,134.73000000000002,14.001ZM158.574,17.1387Q158.574,17.9297,158.359,18.4966Q158.144,19.0635,157.489,19.3975Q156.834,19.7314,155.463,19.8193Q155.446,19.2568,155.384,18.8525Q155.322,18.4482,155.138,18.2197Q154.98,17.9824,154.698,17.7847Q154.417,17.5869,153.776,17.4814L153.776,17.2793L154.004,17.2969Q154.224,17.3145,154.536,17.3232Q154.848,17.332,155.147,17.3496Q155.446,17.3672,155.569,17.3672Q155.753,17.3672,155.815,17.2881Q155.876,17.209,155.876,17.0859L155.876,13.1924Q153.951,13.5527,151.684,13.9131Q151.482,14.2031,151.236,14.3086L150.031,11.6455L150.409,11.5928Q150.77,11.54,151.016,11.4697Q151.974,11.2324,153.09,10.7842Q154.206,10.3359,155.358,9.73828Q156.439,9.20215,157.441,8.58691Q157.028,8.69238,156.597,8.79785Q154.707,9.30762,152.352,9.82617Q152.185,9.99316,152.009,10.0811L150.822,7.43555L151.086,7.38281Q151.341,7.34766,151.526,7.28613Q152.114,7.16309,152.782,6.83789Q153.45,6.5127,154.092,6.09961Q154.549,5.81836,154.945,5.51074Q153.951,5.5459,152.958,5.56348Q151.069,5.61621,149.346,5.59863L149.311,5.32617Q150.928,5.11523,152.721,4.78125Q154.514,4.44727,156.276,4.06055Q158.038,3.67383,159.568,3.26953Q161.097,2.86523,162.178,2.4873L164.586,4.93066Q164.41,5.05371,164.068,5.05371Q163.725,5.05371,163.224,4.86035Q161.888,5.03613,160.218,5.18555Q158.917,5.29102,157.52,5.37891L158.847,6.11719Q158.777,6.28418,158.504,6.33691Q158.346,6.37207,158.126,6.31934Q157.713,6.49512,157.159,6.67969Q156.368,6.95215,155.459,7.18506Q154.549,7.41797,153.626,7.59375Q153.283,7.66406,152.976,7.72559Q153.213,7.72559,153.486,7.72559Q154.742,7.74316,156.368,7.72559Q157.555,7.72559,158.794,7.70801Q159.137,7.48828,159.445,7.25098Q160.288,6.62695,160.789,6.11719L163.417,8.12109Q163.294,8.26172,163.004,8.31445Q162.811,8.34961,162.538,8.26172Q162.002,8.58691,161.246,8.92969Q160.253,9.37793,159.018,9.84814Q157.783,10.3184,156.443,10.749Q155.103,11.1797,153.776,11.54Q153.283,11.6631,152.8,11.7861Q154.004,11.7686,155.533,11.7334Q157.08,11.6982,158.864,11.6455Q160.104,11.6104,161.387,11.5576Q161.167,11.3027,160.956,11.0742Q160.306,10.3711,159.655,9.86133L159.805,9.73828Q161.563,9.89648,162.661,10.3755Q163.76,10.8545,164.318,11.4653Q164.876,12.0762,164.977,12.6782Q165.078,13.2803,164.823,13.7329Q164.569,14.1855,164.076,14.3086Q163.584,14.4316,162.934,14.0977Q162.644,13.3418,162.125,12.542Q161.923,12.2783,161.73,11.9883Q160.411,12.2959,158.574,12.6738L158.574,17.1387ZM159.348,14.001Q161.202,14.2031,162.349,14.7261Q163.496,15.249,164.063,15.9126Q164.63,16.5762,164.709,17.2178Q164.788,17.8594,164.52,18.3252Q164.252,18.791,163.712,18.9097Q163.171,19.0283,162.503,18.6504Q162.283,18.0352,161.941,17.4155Q161.598,16.7959,161.15,16.2026Q160.701,15.6094,160.205,15.0776Q159.708,14.5459,159.207,14.1328L159.348,14.001ZM155.481,15.4775Q155.41,15.6094,155.257,15.6797Q155.103,15.75,154.778,15.7148Q154.118,16.3652,153.2,17.0024Q152.281,17.6396,151.2,18.1802Q150.119,18.7207,148.933,19.0986L148.801,18.9141Q149.618,18.2197,150.352,17.3188Q151.086,16.418,151.675,15.4907Q152.264,14.5635,152.58,13.79L155.481,15.4775ZM173.735,18.9756Q173.735,19.0635,173.493,19.2437Q173.251,19.4238,172.781,19.5776Q172.311,19.7314,171.661,19.7314L171.195,19.7314L171.195,14.3262Q169.446,14.8359,167.618,15.1172L167.521,14.959Q169.358,14.3789,170.988,13.5615Q172.619,12.7441,173.972,11.7686Q174.368,11.4873,174.746,11.1973Q174.007,10.4062,173.427,9.39551Q172.909,9.82617,172.329,10.1865Q170.527,11.3203,168.602,11.9707L168.461,11.7861Q169.323,11.1094,170.197,10.125Q171.072,9.14062,171.828,7.93652Q172.531,6.83789,173.014,5.63379L170.676,5.63379Q170.694,5.81836,170.711,5.97656Q170.729,6.83789,170.457,7.43115Q170.184,8.02441,169.736,8.31445Q169.411,8.5166,169.024,8.50781Q168.637,8.49902,168.316,8.30127Q167.996,8.10352,167.846,7.70801Q167.67,7.12793,167.947,6.71484Q168.224,6.30176,168.69,6.06445Q168.998,5.90625,169.305,5.59863Q169.613,5.29102,169.819,4.87793Q170.026,4.46484,170.008,4.03418L170.228,4.03418Q170.457,4.60547,170.588,5.13281L175.299,5.13281Q175.194,5.08008,175.106,5.01855Q175.044,4.37695,174.715,3.76172Q174.385,3.14648,173.928,2.78613L174.042,2.69824Q175.405,2.54004,176.178,2.73779Q176.952,2.93555,177.259,3.33105Q177.567,3.72656,177.497,4.16602Q177.426,4.60547,177.083,4.93066Q176.952,5.03613,176.811,5.13281L181.135,5.13281L182.357,3.88477L184.501,5.90625Q184.317,6.11719,183.798,6.13477Q183.289,6.54785,182.541,7.02686Q181.794,7.50586,181.135,7.81348L181.003,7.70801Q181.074,7.33008,181.14,6.85986Q181.206,6.38965,181.258,5.92383Q181.276,5.77441,181.293,5.63379L173.612,5.63379L176.345,6.78516Q176.275,6.95215,176.086,7.04883Q175.897,7.14551,175.572,7.11035Q175.387,7.36523,175.194,7.59375L177.602,7.59375L179.228,6.16992L181.619,8.48145Q181.496,8.60449,181.298,8.6748Q181.1,8.74512,180.74,8.78027Q179.782,9.93164,178.393,10.9424Q178.147,11.127,177.892,11.3027Q179.404,11.8037,181.1,12.0586Q182.823,12.3486,184.554,12.4541L184.537,12.6914Q183.702,12.9023,183.218,13.5264Q182.735,14.1504,182.533,15.082Q181.979,14.959,181.452,14.8359Q181.399,14.8535,181.364,14.8887Q181.241,14.9766,181.003,15.0293L181.003,18.958Q181.003,19.0107,180.634,19.1514Q180.265,19.292,179.773,19.4106Q179.281,19.5293,178.868,19.5293L178.393,19.5293L178.393,18.3076L173.735,18.3076L173.735,18.9756ZM178.393,14.7217L173.735,14.7217L173.735,17.7979L178.393,17.7979L178.393,14.7217ZM178.235,14.2207L178.595,13.8428Q178.49,13.8076,178.375,13.7549Q177.119,13.1924,176.073,12.3838Q175.677,12.6035,175.282,12.7793Q174.113,13.3594,172.838,13.8076L173.99,14.2207L178.235,14.2207ZM175.695,10.3535Q176.02,10.0459,176.31,9.73828Q177.066,8.92969,177.567,8.10352L174.763,8.10352Q174.324,8.58691,173.858,9.01758Q174.368,9.50098,174.974,9.91406Q175.317,10.1514,175.695,10.3535ZM194.09,2.86523L196.77,3.84961L199.741,3.84961L200.954,2.75098L203.019,4.42969Q202.931,4.53516,202.769,4.62744Q202.606,4.71973,202.351,4.75488Q202.334,5.85352,202.255,6.55225Q202.176,7.25098,201.987,7.66846Q201.798,8.08594,201.42,8.31445Q201.024,8.56934,200.519,8.66602Q200.013,8.7627,199.187,8.7627Q199.187,8.2793,199.126,7.9541Q199.064,7.62891,198.844,7.40039Q198.642,7.14551,198.282,6.9917Q197.922,6.83789,197.421,6.71484L197.421,6.5127Q197.711,6.53027,198.08,6.55225Q198.449,6.57422,198.774,6.5918Q199.099,6.60938,199.24,6.60938Q199.442,6.60938,199.521,6.57861Q199.6,6.54785,199.671,6.49512Q199.794,6.37207,199.855,5.72168Q199.89,5.2207,199.908,4.35938L196.524,4.35938L196.524,9.84375L199.961,9.84375L201.182,8.56934L203.362,10.3887Q203.292,10.5293,203.147,10.5996Q203.002,10.6699,202.694,10.7139Q202.369,12.3486,201.666,13.9482Q201.27,14.8535,200.717,15.6973Q201.094,15.9697,201.508,16.1982Q202.518,16.7959,203.635,17.2441L203.599,17.4639Q202.808,17.5869,202.211,18.1538Q201.613,18.7207,201.288,19.6348Q200.356,18.8789,199.653,18.0176Q199.442,17.7627,199.24,17.4814Q198.177,18.501,196.7,19.292L196.559,19.1162Q197.711,17.9473,198.449,16.418Q198.484,16.3301,198.537,16.2334Q198.484,16.1455,198.449,16.0576Q197.948,14.959,197.64,13.4648Q197.35,12.1289,197.166,10.3535L196.524,10.3535L196.524,18.958Q196.524,19.0459,196.291,19.2261Q196.058,19.4062,195.615,19.5601Q195.171,19.7139,194.538,19.7139L194.09,19.7139L194.09,2.86523ZM187.234,3.67383L187.234,2.91797L189.932,3.84961L190.495,3.84961L191.576,2.64551L193.729,4.35938Q193.659,4.44727,193.505,4.54395Q193.351,4.64062,193.105,4.67578L193.105,16.9014Q193.105,17.71,192.925,18.2856Q192.745,18.8613,192.152,19.1865Q191.558,19.5117,190.328,19.6172Q190.31,19.0459,190.249,18.5933Q190.187,18.1406,190.038,17.9121Q189.897,17.6396,189.647,17.4419Q189.396,17.2441,188.869,17.1387L188.869,16.9014L189.071,16.9014Q189.247,16.9189,189.502,16.9365Q189.757,16.9541,189.998,16.9629Q190.24,16.9717,190.345,16.9717Q190.548,16.9717,190.609,16.8838Q190.671,16.7959,190.671,16.6465L190.671,12.8848L189.414,12.8848Q189.326,13.6758,189.159,14.4932Q188.851,15.9258,188.188,17.2617Q187.524,18.5977,186.338,19.7139L186.153,19.5996Q186.716,18.0352,186.94,16.2466Q187.164,14.458,187.199,12.6035Q187.234,10.749,187.234,9.03516L187.234,3.67383ZM199.275,14.3438Q199.46,13.7725,199.6,13.1924Q199.961,11.751,200.101,10.3535L197.456,10.3535Q197.746,11.6982,198.247,12.7266Q198.704,13.6406,199.275,14.3438ZM190.671,12.3838L190.671,8.58691L189.572,8.58691L189.572,9.03516Q189.572,10.2744,189.519,11.6631Q189.502,12.0234,189.467,12.3838L190.671,12.3838ZM190.671,8.08594L190.671,4.35938L189.572,4.35938L189.572,8.08594L190.671,8.08594Z" fill="#000000" fill-opacity="1"/></g></g><g><g><path d="M30.3552,46L30.3552,45.4463L32.3942,45.1211Q32.4294,43.4072,32.4294,41.7373L32.4294,33.83594L30.32,34.08203L30.32,33.43164L35.1804,32.3418L35.4528,32.51758L35.3825,35.45312L35.3825,41.7373Q35.3825,42.7744,35.4177,43.8555Q35.4177,44.488299999999995,35.4353,45.1211L37.3073,45.5166L37.3073,46.0527L30.3552,46ZM45.3687,46.3076Q43.479,46.3076,42.3892,45.441900000000004Q41.2993,44.5762,41.1939,43.0996Q41.3345,42.6865,41.6597,42.4888Q41.9849,42.291,42.3628,42.291Q42.9165,42.291,43.2417,42.625Q43.5669,42.959,43.6372,43.75L43.8921,45.5342Q43.98,45.5693,44.0503,45.5869Q44.3579,45.674800000000005,44.8501,45.674800000000005Q46.0894,45.674800000000005,46.8452,44.7827Q47.6011,43.8906,47.6011,42.1855Q47.6011,40.6387,46.8628,39.7905Q46.1245,38.9424,44.8677,38.9424Q44.3579,38.9424,43.8921,39.0259Q43.4263,39.1094,42.9517,39.25L42.4155,38.8896L42.8462,32.55273L50.2114,32.55273L50.2114,34.78516L43.5845,34.78516L43.3296,38.292Q43.7339,38.1689,44.1294,38.0986Q44.9028,37.97559,45.7642,37.97559Q48.0493,37.97559,49.3633,39.0083Q50.6773,40.041,50.6773,42.0537Q50.6773,43.4424,49.9917,44.3872Q49.3062,45.332,48.1109,45.8198Q46.9155,46.3076,45.3687,46.3076ZM55.3196,46L55.3196,44.3828Q56.1107,43.5303,56.8489,42.6953Q57.5872,41.8604,58.2552,41.1045Q59.2396,39.9883,59.8636,39.1533Q60.4876,38.3184,60.7908,37.514160000000004Q61.0941,36.70996,61.0941,35.74316Q61.0941,34.35449,60.5008,33.60742Q59.9075,32.86035,58.8616,32.86035Q58.5189,32.86035,58.1585,32.93066L57.7982,34.78516Q57.6575,35.70801,57.262,36.00244Q56.8665,36.29688,56.4534,36.29688Q56.0579,36.29688,55.7415,36.081540000000004Q55.4251,35.86621,55.2845,35.52344Q55.3372,34.44238,55.9832,33.71289Q56.6292,32.9834,57.6575,32.61426Q58.6859,32.24512,59.8724,32.24512Q62.0169,32.24512,63.0233,33.28223Q64.0296,34.31934,64.0296,35.91895Q64.0296,36.89453,63.4715,37.75586Q62.9134,38.6172,61.806,39.6016Q60.6985,40.5859,59.0286,41.8955Q58.7034,42.168,58.2728,42.5195Q57.8421,42.8711,57.3675,43.2666Q57.0599,43.5127,56.761,43.7852L64.3548,43.7852L64.3548,46L55.3196,46ZM57.5345,33.13281Q57.4026,33.18555,57.2796,33.23828L57.5345,33.13281ZM68.795,41.4648L68.795,40.1465L74.0509,40.1465L74.0509,41.4648L68.795,41.4648ZM78.623,46L78.623,44.3828Q79.414,43.5303,80.1523,42.6953Q80.8905,41.8604,81.5585,41.1045Q82.5429,39.9883,83.1669,39.1533Q83.7909,38.3184,84.0942,37.514160000000004Q84.3974,36.70996,84.3974,35.74316Q84.3974,34.35449,83.8041,33.60742Q83.2109,32.86035,82.165,32.86035Q81.8222,32.86035,81.4618,32.93066L81.1015,34.78516Q80.9609,35.70801,80.5653,36.00244Q80.1698,36.29688,79.7568,36.29688Q79.3612,36.29688,79.0448,36.081540000000004Q78.7284,35.86621,78.5878,35.52344Q78.6405,34.44238,79.2865,33.71289Q79.9325,32.9834,80.9609,32.61426Q81.9892,32.24512,83.1757,32.24512Q85.3202,32.24512,86.3266,33.28223Q87.3329,34.31934,87.3329,35.91895Q87.3329,36.89453,86.7748,37.75586Q86.2167,38.6172,85.1093,39.6016Q84.0019,40.5859,82.3319,41.8955Q82.0068,42.168,81.5761,42.5195Q81.1454,42.8711,80.6708,43.2666Q80.3632,43.5127,80.0644,43.7852L87.6581,43.7852L87.6581,46L78.623,46ZM80.8378,33.13281Q80.706,33.18555,80.5829,33.23828L80.8378,33.13281ZM92.1511,46L92.1511,45.4463L94.1902,45.1211Q94.2253,43.4072,94.2253,41.7373L94.2253,33.83594L92.1159,34.08203L92.1159,33.43164L96.9763,32.3418L97.2487,32.51758L97.1784,35.45312L97.1784,41.7373Q97.1784,42.7744,97.2136,43.8555Q97.2136,44.488299999999995,97.2312,45.1211L99.1032,45.5166L99.1032,46.0527L92.1511,46ZM107.833,46.3076Q106.584,46.3076,105.508,45.5693Q104.431,44.8311,103.763,43.2666Q103.095,41.7021,103.095,39.25Q103.095,36.79785,103.763,35.25977Q104.431,33.72168,105.508,32.9834Q106.584,32.24512,107.833,32.24512Q109.072,32.24512,110.162,32.9834Q111.251,33.72168,111.915,35.25977Q112.579,36.79785,112.579,39.25Q112.579,41.7021,111.915,43.2666Q111.251,44.8311,110.162,45.5693Q109.072,46.3076,107.833,46.3076ZM107.833,45.674800000000005Q108.228,45.674800000000005,108.588,45.3804Q108.949,45.085899999999995,109.226,44.3564Q109.502,43.627,109.665,42.3833Q109.828,41.1396,109.828,39.25Q109.828,37.37793,109.665,36.134280000000004Q109.502,34.89062,109.226,34.18311Q108.949,33.47559,108.588,33.17676Q108.228,32.87793,107.833,32.87793Q107.437,32.87793,107.077,33.17676Q106.716,33.47559,106.435,34.18311Q106.154,34.89062,106,36.12549Q105.846,37.36035,105.846,39.25Q105.846,41.1396,106,42.3921Q106.154,43.6445,106.435,44.3652Q106.716,45.085899999999995,107.077,45.3804Q107.437,45.674800000000005,107.833,45.674800000000005ZM121.545,46.3076Q120.297,46.3076,119.221,45.5693Q118.144,44.8311,117.476,43.2666Q116.808,41.7021,116.808,39.25Q116.808,36.79785,117.476,35.25977Q118.144,33.72168,119.221,32.9834Q120.297,32.24512,121.545,32.24512Q122.784,32.24512,123.874,32.9834Q124.964,33.72168,125.628,35.25977Q126.291,36.79785,126.291,39.25Q126.291,41.7021,125.628,43.2666Q124.964,44.8311,123.874,45.5693Q122.784,46.3076,121.545,46.3076ZM121.545,45.674800000000005Q121.941,45.674800000000005,122.301,45.3804Q122.661,45.085899999999995,122.938,44.3564Q123.215,43.627,123.378,42.3833Q123.54,41.1396,123.54,39.25Q123.54,37.37793,123.378,36.134280000000004Q123.215,34.89062,122.938,34.18311Q122.661,33.47559,122.301,33.17676Q121.941,32.87793,121.545,32.87793Q121.15,32.87793,120.789,33.17676Q120.429,33.47559,120.148,34.18311Q119.867,34.89062,119.713,36.12549Q119.559,37.36035,119.559,39.25Q119.559,41.1396,119.713,42.3921Q119.867,43.6445,120.148,44.3652Q120.429,45.085899999999995,120.789,45.3804Q121.15,45.674800000000005,121.545,45.674800000000005ZM130.556,41.4648L130.556,40.1465L135.812,40.1465L135.812,41.4648L130.556,41.4648ZM141.245,46.3604L141.14,45.8418Q143.117,45.1562,144.343,44.084Q145.569,43.0117,146.123,41.4121Q146.343,40.7969,146.483,40.0586Q146.272,40.2256,146.035,40.3486Q145.226,40.7793,144.058,40.7793Q142.889,40.7793,141.979,40.3135Q141.069,39.8477,140.546,38.955600000000004Q140.023,38.0635,140.023,36.79785Q140.023,35.28613,140.669,34.271Q141.315,33.25586,142.379,32.75049Q143.442,32.24512,144.699,32.24512Q146.29,32.24512,147.375,32.93066Q148.461,33.61621,149.037,34.90381Q149.612,36.19141,149.612,37.99316Q149.612,40.1289,148.562,41.8604Q147.512,43.5918,145.631,44.7432Q143.75,45.8945,141.245,46.3604ZM146.554,39.5049Q146.685,38.6172,146.685,37.59766Q146.685,35.81348,146.439,34.77637Q146.193,33.73926,145.763,33.2998Q145.332,32.86035,144.778,32.86035Q144.268,32.86035,143.838,33.22949Q143.407,33.59863,143.148,34.38086Q142.889,35.16309,142.889,36.40234Q142.889,38.0635,143.508,38.9995Q144.128,39.9355,145.191,39.9355Q145.745,39.9355,146.158,39.7334Q146.36,39.6455,146.554,39.5049ZM159.062,46.2725L159.062,42.959L153.666,42.959L153.666,41.4473L159.616,32.32422L161.637,32.32422L161.637,41.0869L163.597,41.0869L163.597,42.959L161.637,42.959L161.637,46.2725L159.062,46.2725ZM159.062,41.0869L159.062,34.24902L157.032,37.39551L154.633,41.0869L159.062,41.0869ZM172.292,46.3076Q171.043,46.3076,169.967,45.5693Q168.89,44.8311,168.222,43.2666Q167.554,41.7021,167.554,39.25Q167.554,36.79785,168.222,35.25977Q168.89,33.72168,169.967,32.9834Q171.043,32.24512,172.292,32.24512Q173.531,32.24512,174.621,32.9834Q175.71,33.72168,176.374,35.25977Q177.038,36.79785,177.038,39.25Q177.038,41.7021,176.374,43.2666Q175.71,44.8311,174.621,45.5693Q173.531,46.3076,172.292,46.3076ZM172.292,45.674800000000005Q172.687,45.674800000000005,173.047,45.3804Q173.408,45.085899999999995,173.685,44.3564Q173.961,43.627,174.124,42.3833Q174.287,41.1396,174.287,39.25Q174.287,37.37793,174.124,36.134280000000004Q173.961,34.89062,173.685,34.18311Q173.408,33.47559,173.047,33.17676Q172.687,32.87793,172.292,32.87793Q171.896,32.87793,171.536,33.17676Q171.175,33.47559,170.894,34.18311Q170.613,34.89062,170.459,36.12549Q170.305,37.36035,170.305,39.25Q170.305,41.1396,170.459,42.3921Q170.613,43.6445,170.894,44.3652Q171.175,45.085899999999995,171.536,45.3804Q171.896,45.674800000000005,172.292,45.674800000000005ZM186.488,46.2725L186.488,42.959L181.091,42.959L181.091,41.4473L187.041,32.32422L189.063,32.32422L189.063,41.0869L191.023,41.0869L191.023,42.959L189.063,42.959L189.063,46.2725L186.488,46.2725ZM186.488,41.0869L186.488,34.24902L184.457,37.39551L182.058,41.0869L186.488,41.0869Z" fill="#8945FF" fill-opacity="1"/></g></g></g></svg>