<svg xmlns="http://www.w3.org/2000/svg" xmlns:xlink="http://www.w3.org/1999/xlink" fill="none" version="1.1" width="112" height="43" viewBox="0 0 112 43"><g><path d="M8.37383,37.3711Q8.37383,37.6523,7.77617,38.1006Q7.17851,38.5488,6.21172,38.874Q5.24492,39.1992,4.15508,39.1992L3.3289,39.1992L3.3289,7.01367L8.76054,9.17578L27.4812,9.17578L29.8367,6.55664L34.407,10.2305Q34.2137,10.4414,33.8709,10.6523Q33.5281,10.8633,32.9656,10.9863L32.9656,37.0371Q32.9656,37.2305,32.2801,37.5908Q31.5945,37.9512,30.6014,38.25Q29.6082,38.5488,28.6766,38.5488L27.8504,38.5488L27.8504,33.9434L8.37383,33.9434L8.37383,37.3711ZM16.8992,10.1953Q16.8289,13.1836,16.6883,15.8379Q16.4773,18.9316,15.7391,21.542Q15.0008,24.1523,13.3748,26.2969Q11.7488,28.4414,8.88359,30.1289L8.47929,29.6719Q9.99101,27.6855,10.7469,25.4531Q11.5027,23.2207,11.7752,20.6807Q12.0477,18.1406,12.0828,15.2578Q12.0828,12.8496,12.0828,10.1953L8.37383,10.1953L8.37383,32.9414L27.8504,32.9414L27.8504,27.1758Q27.8152,27.1758,27.7801,27.1758Q26.6551,27.4746,24.827,27.4746L23.1043,27.4746Q21.5926,27.4746,20.8719,27.1318Q20.1512,26.7891,19.9139,25.9805Q19.6766,25.1719,19.6766,23.8008L19.6766,10.1953L16.8992,10.1953ZM24.1062,10.1953L24.1062,22.4648Q24.1062,22.7812,24.2117,22.9307Q24.3172,23.0801,24.6512,23.0801L25.8289,23.0801Q26.0398,23.0801,26.2332,23.0449L26.6551,23.0449Q26.9187,23.0449,27.0594,23.0098Q27.2703,22.9746,27.5516,22.9043L27.8504,22.8516L27.8504,10.1953L24.1062,10.1953ZM62.7676,26.8945L65.0352,24.416L69.7461,27.9316Q69.6055,28.1602,69.2451,28.3887Q68.8848,28.6172,68.3047,28.7227L68.3047,37.8281Q68.3047,37.9863,67.584,38.3115Q66.8633,38.6367,65.8965,38.9004Q64.9297,39.1641,64.0332,39.1641L63.1367,39.1641L63.1367,36.5801L48.8633,36.5801L48.8633,37.7578Q48.8633,37.9863,48.2217,38.3467Q47.5801,38.707,46.5869,39.0059Q45.5937,39.3047,44.5566,39.3047L43.8359,39.3047L43.8359,24.8379L49.1973,26.8945L62.7676,26.8945ZM60.0957,15.2227L62.3281,12.7793L67.0215,16.2773Q66.8633,16.4883,66.5117,16.708Q66.1602,16.9277,65.5801,17.0684L65.5801,23.5371Q65.5801,23.6953,64.877,23.9766Q64.1738,24.2578,63.1982,24.5127Q62.2227,24.7676,61.3613,24.7676L60.4648,24.7676L60.4648,22.9395L51.4297,22.9395L51.4297,23.8008Q51.4297,24.0117,50.7793,24.3721Q50.1289,24.7324,49.1182,25.0225Q48.1074,25.3125,47.0703,25.3125L46.3848,25.3125L46.3848,13.2539L51.6406,15.2227L60.0957,15.2227ZM63.1367,35.5605L63.1367,27.8965L48.8633,27.8965L48.8633,35.5605L63.1367,35.5605ZM52.291,5.11523Q55.209,4.9043,56.8262,5.40527Q58.4434,5.90625,59.0059,6.76758Q59.5684,7.62891,59.3135,8.55176Q59.0586,9.47461,58.2676,10.1074Q57.9512,10.3711,57.582,10.5117L66.3711,10.5117L68.8496,7.96289L73.2441,12.0938Q73.0332,12.3398,72.7432,12.4365Q72.4531,12.5332,71.8379,12.5684Q70.9414,13.3594,69.5352,14.2559Q68.1289,15.1523,66.916,15.7324L66.6523,15.5215Q66.7227,14.8008,66.7402,13.8779Q66.7578,12.9551,66.793,12.0586Q66.793,11.7773,66.793,11.5137L45.0137,11.5137Q45.0488,11.8477,45.084,12.1289Q45.207,13.8516,44.7324,15.0469Q44.2578,16.2422,43.3965,16.8047Q42.7812,17.2441,41.9727,17.2266Q41.1641,17.209,40.4785,16.7783Q39.793,16.3477,39.5117,15.5215Q39.1953,14.3262,39.749,13.4648Q40.3027,12.6035,41.3047,12.1289Q42.0957,11.6367,42.8779,10.5908Q43.6602,9.54492,43.5723,8.34961L44.0117,8.34961Q44.5215,9.50977,44.8027,10.5117L54.8926,10.5117Q54.3828,10.3008,53.873,9.89648Q53.9434,8.56055,53.46,7.28613Q52.9766,6.01172,52.1152,5.29102L52.291,5.11523ZM60.4648,21.9199L60.4648,16.2422L51.4297,16.2422L51.4297,21.9199L60.4648,21.9199ZM87.718,5.73047Q87.6828,6.11719,87.4104,6.38965Q87.1379,6.66211,86.382,6.76758L86.382,14.2207L86.6633,14.2207L88.6848,11.1621L89.3,11.7422Q89.9152,12.3398,90.7766,13.1484Q91.4621,13.8164,91.9719,14.3965Q92.9387,12.498,93.7297,10.3008Q94.591,7.89258,95.1008,5.36133L101.323,7.52344Q101.183,7.89258,100.822,8.06836Q100.462,8.24414,99.8469,8.20898Q99.3371,9.21094,98.8098,10.1074L102.835,10.1074L105.507,7.62891L109.708,11.373Q109.532,11.6719,109.207,11.7949Q108.882,11.918,108.196,11.9883Q106.404,15.5918,103.45,18.5098Q106.948,19.9512,111.554,20.584L111.484,20.9883Q109.937,21.6035,109.198,22.7725Q108.46,23.9414,108.267,25.7344Q107.95,25.6289,107.616,25.5234L109.058,26.5957Q108.882,26.8594,108.574,27.0176Q108.267,27.1758,107.652,27.3164L107.652,37.9512Q107.652,38.0918,106.544,38.5225Q105.437,38.9531,103.486,38.9531L102.589,38.9531L102.589,36.8262L97.2277,36.8262L97.2277,38.2676Q97.2277,38.4785,96.1818,38.9092Q95.1359,39.3398,93.2551,39.3398L92.3938,39.3398L92.3938,25.2422Q90.4602,25.9277,88.298,26.4551L88.0695,26.0332Q91.8137,24.293,94.8371,21.8496Q96.718,20.3379,98.2297,18.6504Q97.9836,18.2812,97.7551,17.8945Q96.6828,16.1719,95.7863,14.1855Q95.6281,14.3613,95.4523,14.5371Q92.9387,17.1387,89.9152,18.791L89.5109,18.5098Q90.5656,17.0684,91.5676,15.1875Q91.427,15.2227,91.2512,15.2227L86.382,15.2227L86.382,17.6836Q88.4387,18.3164,89.5461,19.2305Q90.6711,20.127,91.0139,21.0586Q91.3566,21.9902,91.1193,22.7637Q90.882,23.5371,90.2492,23.9941Q89.6164,24.4512,88.8078,24.3721Q87.9992,24.293,87.2082,23.502Q87.2785,22.5352,87.1203,21.5068Q86.9621,20.4785,86.6633,19.5117Q86.5227,19.0723,86.382,18.6855L86.382,37.916Q86.382,38.127,85.8107,38.4873Q85.2395,38.8477,84.3518,39.1377Q83.4641,39.4277,82.5676,39.4277L81.6359,39.4277L81.6359,25.5938Q79.6145,28.5117,76.802,30.8848L76.4152,30.5332Q77.7512,28.3359,78.718,25.6377Q79.6848,22.9395,80.3352,19.9863Q80.8449,17.5605,81.1613,15.2227L77.1359,15.2227L76.8371,14.2207L81.6359,14.2207L81.6359,5.15039L87.718,5.73047ZM102.589,35.8242L102.589,26.9648L97.2277,26.9648L97.2277,35.8242L102.589,35.8242ZM100.357,21.1289Q97.5793,23.1855,94.0461,24.627L97.6145,25.9629L102.396,25.9629L104.171,23.9766Q102.976,23.291,101.974,22.5Q101.113,21.8496,100.357,21.1289ZM98.1945,11.127Q97.3684,12.3398,96.4719,13.4297Q97.8254,15.2227,99.882,16.6289Q99.9523,16.5234,100.023,16.418Q101.868,13.9043,102.941,11.127L98.1945,11.127Z" fill="#060606" fill-opacity="1"/></g></svg>