<svg xmlns="http://www.w3.org/2000/svg" xmlns:xlink="http://www.w3.org/1999/xlink" fill="none" version="1.1" width="1070" height="91" viewBox="0 0 1070 91"><g><g><path d="M349.096,4.52L351.352,2.696L355,6.008L353.08,7.88L344.44,7.88L344.44,10.808L348.52,10.808L350.776,8.936L354.472,12.248L352.504,14.168L344.44,14.168L344.44,17.144L349.864,17.144L352.12,15.272L355.816,18.584L353.848,20.504L326.296,20.504L325.48,17.144L336.904,17.144L336.904,14.168L328.84,14.168L328.024,10.808L336.904,10.808L336.904,7.88L326.68,7.88L325.864,4.52L336.904,4.52L336.904,0.776001L344.44,1.736L344.44,4.52L349.096,4.52ZM329.128,21.272L336.136,22.088L336.136,23.288L345.928,23.288L348.904,20.696L354.76,25.064L353.416,26.936L353.416,42.008Q353.416,46.328,349.144,46.328L345.352,46.328Q345.352,43.304,340.456,43.304L340.504,40.328Q342.904,40.232,345.016,40.232Q346.072,40.232,346.072,39.08L346.072,38.216L336.136,38.216L336.136,45.656L329.128,46.568L329.128,21.272ZM346.072,34.76L346.072,32.408L336.136,32.408L336.136,34.76L346.072,34.76ZM346.072,28.952L346.072,26.648L336.136,26.648L336.136,28.952L346.072,28.952ZM314.968,2.216Q320.584,4.712,324.04,7.928L319.192,13.4Q315.976,9.368,311.848,6.104L314.968,2.216ZM315.832,17.768L319.192,14.216L325.384,19.064L322.984,20.984L322.984,35.096Q324.712,34.376,326.44,33.512L328.168,37.112Q324.04,41.432,318.184,45.56L314.632,38.024Q315.496,37.784,316.36,37.496L316.36,25.208L316.264,25.208L316.264,21.8L312.184,21.8L311.224,17.768L315.832,17.768ZM386.536,2.552L393.4,4.616Q392.632,6.344,391.816,7.784L394.024,7.784L394.024,1.64L401.656,2.6L401.656,7.784L403.288,7.784L406.024,5.288L410.632,9.32L408.472,11.432L401.656,11.432L401.656,16.424L405.448,16.424L408.184,13.976L412.744,18.008L410.584,20.168L404.872,20.168L404.872,29.144Q404.872,30.008,405.352,30.008L406.312,30.008Q407.272,30.008,407.416,29.432L408.28,25.592L410.92,25.976Q410.872,27.032,410.872,27.8Q410.872,30.92,413.56,31.976Q412.12,35.96,408.28,35.96L402.328,35.96Q398.2,35.96,397.96,31.352L397.96,20.168L394.936,20.168L394.936,22.568Q394.936,32.072,384.136,36.44L382.264,33.8Q388.024,29.288,388.024,21.848L388.024,20.168L382.984,20.168L382.024,16.424L394.024,16.424L394.024,11.432L389.464,11.432Q387.592,13.976,385.576,15.704L382.6,14.072Q385.528,8.552,386.536,2.552ZM373.576,3.416Q379.192,6.536,382.552,9.704L376.744,15.608Q373.72,9.992,370.312,6.44L373.576,3.416ZM373.72,20.648L376.984,17.672L383.176,22.616L381.16,24.632L381.16,34.04Q381.832,38.456,387.832,38.456L413.896,38.456L411.832,44.936L388.072,44.936Q381.112,44.936,377.368,38.504Q376.36,41.24,372.616,46.28L368.152,40.616Q373.912,35.48,373.912,33.848L373.912,24.248L369.592,24.248L368.68,20.648L373.72,20.648ZM462.472,24.632L464.824,22.664L468.712,26.12L466.696,28.088L459.64,28.088L459.64,32.984L463.576,32.984L466.408,30.296L470.968,34.424L469,36.44L459.64,36.44L459.64,44.984L451.768,45.992L451.768,36.44L441.736,36.44L440.872,32.984L451.768,32.984L451.768,28.088L444.664,28.088L443.8,24.632L451.768,24.632L451.768,20.072Q447.736,21.368,442.936,21.704L441.784,18.44Q448.168,17,451.816,15.08Q448.264,12.008,445.72,7.64L443.416,7.64L442.6,4.088L461.08,4.088L463.816,1.448L470.824,6.536L467.992,7.496Q465.544,11.432,462.52,14.168Q465.976,15.128,471.256,15.368L468.904,21.8Q461.848,21.128,456.472,18.248Q455.032,18.968,453.496,19.496L459.64,20.216L459.64,24.632L462.472,24.632ZM450.328,7.64Q453.4,10.088,456.616,11.768Q458.776,9.848,459.88,7.64L450.328,7.64ZM438.76,10.28L441.304,7.736L445.816,11.768L443.656,13.736L438.472,13.736L438.472,22.04Q440.344,21.368,441.736,20.696L443.224,23.768Q441.352,25.496,438.472,27.32L438.472,40.472Q438.472,46.472,433.096,46.472L429.976,46.472Q429.976,42.392,425.944,42.2L426.184,38.6Q428.104,39.464,429.688,39.464Q430.936,39.464,430.936,38.12L430.936,31.496Q429.496,32.168,427.96,32.888L425.704,25.832Q427.912,25.304,430.936,24.392L430.936,13.736L426.856,13.736L425.944,10.28L430.936,10.28L430.936,1.256L438.472,2.216L438.472,10.28L438.76,10.28ZM521.56,3.752L524.2,1.4L528.472,5.24L526.456,7.256L522.616,7.256L526.696,10.904L524.728,12.824L519.208,12.824L525.064,17.288L523.528,18.824L523.528,24.632L518.536,25.496L520.552,26.504Q518.488,27.848,516.424,29L521.608,29L524.44,26.312L529.096,30.488L527.08,32.552L520.072,32.552L526.072,37.16L524.152,38.744L524.152,45.176L516.184,46.52L516.184,44.504L495.448,44.504L495.448,45.704L487.672,46.712L487.672,32.792L495.448,33.704L495.448,34.76L516.952,34.76L518.824,32.552L484.6,32.552L483.736,29L495.976,29Q494.392,27.464,492.376,25.88L492.952,25.352L487.864,25.976L487.864,12.824L486.52,12.824L485.656,9.416L501.256,9.416L501.256,7.256L485.032,7.256L484.168,3.752L501.256,3.752L501.256,1.112L509.608,2.168L509.608,3.752L521.56,3.752ZM515.56,21.032L515.56,18.152L495.592,18.152L495.592,21.032L515.56,21.032ZM495.592,14.6L516.184,14.6L517.864,12.824L489.064,12.824L495.592,13.592L495.592,14.6ZM512.296,24.344L496.12,24.344Q499.432,25.16,503.272,26.84L501.064,29L508.888,29Q510.856,26.696,512.296,24.344ZM509.608,7.256L509.608,9.416L519.88,9.416L522.328,7.256L509.608,7.256ZM516.184,41.192L516.184,38.312L495.448,38.312L495.448,41.192L516.184,41.192ZM544.264,16.376Q548.152,18.824,551.272,21.272Q552.664,16.28,552.952,11.288L543.832,11.288L542.92,7.784L553.288,7.784L555.592,6.008L561.592,10.136L559.624,11.912Q559.096,19.16,556.216,25.64Q559.72,29.24,561.784,32.792L556.888,38.6Q555.304,35.288,552.904,31.784Q549.592,36.872,544.84,41.48L541.576,39.128Q546.472,33.176,549.208,26.888Q546.232,23.192,542.488,19.4L544.264,16.376ZM565.144,1.64L572.728,2.984Q572.008,6.248,570.952,9.176L578.104,9.176L580.984,6.872L586.072,11.528L584.44,12.68L579.88,20.456L576.904,19.88L578.296,12.728L569.56,12.728Q567.064,18.392,563.224,22.808L559.912,20.12Q564.184,11.672,565.144,1.64ZM568.744,15.608L575.896,16.616L575.896,21.512Q575.896,24.536,575.368,27.224Q576.76,29.624,578.488,31.784Q581.128,35.048,585.448,37.448L581.128,45.224Q576.952,42.44,573.832,36.152Q573.256,35.048,572.824,33.944Q572.44,34.568,572.008,35.144Q568.648,40.52,561.928,44.984L557.992,42.248Q568.744,32.648,568.744,21.128L568.744,15.608ZM623.704,1.832L631.48,3.176Q630.52,6.968,628.984,10.328L634.6,10.328L637.672,7.064L643.48,11.912L642.232,13.448L642.232,26.456Q642.232,41.288,639.832,43.352Q638.344,45.512,633.976,45.512L630.472,45.512Q630.472,41.72,624.424,40.76L624.808,37.688L631.96,38.024Q633.736,38.024,634.024,37.256Q635.032,33.896,635.032,29.192L635.032,13.88L627.208,13.88Q624.52,18.632,620.68,22.472L619.48,21.512L619.48,44.12L612.616,44.744L612.616,41.96L607.048,41.96L607.048,44.696L600.472,45.56L600.472,7.544L606.28,8.168Q607.24,4.76,607.48,1.88L614.872,3.464Q612.808,7.064,610.456,9.608L612.808,9.608L615.064,7.016L621.208,11.48L619.48,13.4L619.48,16.904Q622.84,9.848,623.704,1.832ZM607.048,38.792L612.616,38.792L612.616,25.976L607.048,25.976L607.048,38.792ZM607.048,22.904L612.616,22.904L612.616,12.824L607.048,12.824L607.048,22.904ZM626.104,20.408Q630.376,24.2,633.256,28.472L627.016,32.792Q625.192,27.032,622.648,22.664L626.104,20.408ZM661.576,3.944L665.944,5.24Q665.896,5.96,665.8,6.632L676.456,6.632Q675.16,5.288,673.864,4.232L677.752,1.4Q681.016,2.648,684.664,4.76L682.072,6.632L692.68,6.632L695.608,4.04L701.8,8.408L698.968,9.8L694.456,15.224L695.176,15.8L693.016,17.768L693.016,26.6L692.728,26.648L698.632,31.208L696.76,33.416L696.76,44.168L688.456,45.176L688.456,42.92L669.496,42.92L669.496,44.36L661.336,45.416L661.336,27.704L669.496,28.616L669.496,29.48L688.264,29.48L690.856,26.888L686.008,27.464L686.008,25.784L671.704,25.784L671.704,26.792L664.792,27.704L664.792,12.296L671.704,13.112L671.704,13.64L685.96,13.64L689.128,11.096L691.672,13.064L692.584,10.184L665.08,10.184Q664.36,13.448,663.016,17L656.824,13.64Q659.896,9.176,661.576,3.944ZM671.704,22.136L686.008,22.136L686.008,17.288L671.704,17.288L671.704,22.136ZM688.456,39.224L688.456,33.176L669.496,33.176L669.496,39.224L688.456,39.224ZM727.624,11.048L729.976,8.84L733.48,11.96Q735.208,7.592,736.6,2.216L744.184,3.8Q743.608,5.24,742.984,6.584L748.936,6.584L751.48,3.704L758.44,8.456L756.136,10.136Q753.304,15.032,749.464,18.632Q753.544,20.36,759.4,21.32L754.744,28.184Q754.168,27.992,753.688,27.8L757.192,30.488L755.848,32.408L755.848,44.168L748.312,45.128L748.312,42.776L740.056,42.776L740.056,44.6L732.568,45.56L732.568,27.944Q731.416,28.28,730.216,28.568L729.352,26.552L728.104,27.992Q727.576,25.16,726.76,22.76L726.76,44.504L720.184,45.368L720.184,30.104Q718.552,33.656,716.92,36.056L714.328,33.368Q717.496,24.296,718.744,14.504L715.288,14.504L714.376,11.048L720.184,11.048L720.184,2.072L726.76,2.84L726.76,11.048L727.624,11.048ZM750.664,26.504Q747.016,24.824,744.28,22.712Q739.72,25.688,734.152,27.464L740.056,28.136L740.056,28.856L748.216,28.856L750.664,26.504ZM730.84,24.824Q736.456,22.184,740.44,19.112Q738.856,17.288,737.848,15.272Q735.88,17.864,733.624,19.928L730.984,17.432Q731.848,15.8,732.616,14.072L732.136,14.504L726.76,14.504L726.76,14.936Q729.88,17.912,732.856,22.52L730.84,24.824ZM740.296,11.672Q741.88,14.024,744.184,15.752Q746.776,13.016,748.168,10.088L741.208,10.088Q740.776,10.952,740.296,11.672ZM748.312,39.32L748.312,32.456L740.056,32.456L740.056,39.32L748.312,39.32Z" fill="#000000" fill-opacity="1"/></g><g><path d="M399.752,77L401.461,69.1113Q401.899,67.10156,402.165,64.9209Q402.432,62.74023,402.432,60.89453Q402.432,60.4707,402.418,60.14258L403.922,59.45898L403.922,59.8418Q403.922,60.74414,403.758,62.75391Q403.594,64.76367,403.416,65.84375Q404.25,63.88867,405.495,62.21387Q406.739,60.53906,408.044,59.56836Q409.35,58.597656,410.416,58.597656Q411.483,58.597656,412.132,59.45215Q412.782,60.30664,412.782,61.74219Q412.782,63.54688,412.002,65.36523Q411.223,67.18359,409.876,68.7148Q408.53,70.2461,406.923,71.1279Q405.317,72.0098,403.745,72.0098Q403.389,72.0098,402.911,71.9141L403.635,70.9434Q404.305,71.1621,405.002,71.1621Q406.137,71.1621,407.279,70.4033Q408.42,69.6445,409.323,68.2637Q410.157,66.99219,410.745,65.09863Q411.332,63.20508,411.332,61.82422Q411.332,60.67578,410.943,60.0332Q410.553,59.39062,409.856,59.39062Q408.872,59.39062,407.586,60.51855Q406.301,61.64648,405.071,63.57422Q404.182,64.94141,403.587,66.52734Q402.993,68.1133,402.528,70.2051L401.051,77L399.752,77ZM418.297,57.736328L414.701,73.5L414.578,74.0332Q414.4,74.7852,414.4,75.3047Q414.4,75.7285,414.558,75.99510000000001Q414.715,76.2617,414.947,76.2617Q415.371,76.2617,416.301,75.25L416.52,75.4414L416.383,75.5918Q415.604,76.5078,415.234,76.8291Q414.865,77.1504,414.551,77.1504Q414.141,77.1504,413.833,76.69239999999999Q413.525,76.2344,413.525,75.6465Q413.525,75.2363,413.703,74.3477L416.861,58.433594L418.297,57.736328ZM424.195,74.8809L424.441,75.0859Q423.593,76.207,422.787,76.70609999999999Q421.98,77.2051,421.05,77.2051Q419.943,77.2051,419.273,76.4668Q418.603,75.7285,418.603,74.5117Q418.603,73.2812,419.253,72.0166Q419.902,70.752,420.88,69.9248Q421.857,69.0977,422.814,69.0977Q423.375,69.0977,423.737,69.4258Q424.099,69.7539,424.099,70.2734Q424.099,71.3262,422.951,72.3789Q421.802,73.4316,419.82,74.1699Q419.806,74.2793,419.806,74.416Q419.806,75.3594,420.326,75.9541Q420.845,76.5488,421.666,76.5488Q422.308,76.5488,422.91,76.1455Q423.511,75.7422,424.195,74.8809ZM419.82,73.8418Q421.297,73.1855,422.089,72.3789Q422.623,71.832,422.951,71.2031Q423.279,70.5742,423.279,70.0684Q423.279,69.4258,422.691,69.4258Q421.802,69.4258,420.893,70.8271Q419.984,72.2285,419.82,73.8418ZM434.495,68.9199L433.21,73.9238Q433.005,74.7441,433.005,75.209Q433.005,75.6191,433.183,75.9199Q433.361,76.2207,433.62,76.2207Q434.017,76.2207,434.933,75.25L435.124,75.4414L434.974,75.6191Q434.249,76.4531,433.86,76.7881Q433.47,77.123,433.183,77.123Q432.745,77.123,432.424,76.66499999999999Q432.103,76.207,432.103,75.6055Q432.103,75.168,432.431,73.623L432.54,73.1035Q432.034,74.2793,431.187,75.3594Q429.765,77.1641,428.466,77.1641Q427.687,77.1641,427.236,76.6035Q426.784,76.043,426.784,75.0996Q426.784,73.8145,427.516,72.4062Q428.247,70.998,429.334,70.0889Q430.421,69.1797,431.447,69.1797Q432.527,69.1797,433.06,69.9727L433.21,69.4531L434.495,68.9199ZM432.923,70.6699Q432.759,70.1504,432.369,69.85640000000001Q431.98,69.5625,431.474,69.5625Q430.872,69.5625,430.202,70.11619999999999Q429.532,70.6699,428.972,71.6543Q428.534,72.4336,428.24,73.377Q427.947,74.3203,427.947,74.9355Q427.947,75.6328,428.213,76.0293Q428.48,76.4258,428.972,76.4258Q429.601,76.4258,430.284,75.8379Q430.968,75.25,431.638,74.1562Q432.048,73.5273,432.281,72.8984Q432.513,72.2695,432.8,71.1484L432.923,70.6699ZM436.538,76.125L437.304,75.2227Q437.905,76.6445,439.218,76.6445Q439.901,76.6445,440.387,76.2002Q440.872,75.7559,440.872,75.168Q440.872,74.7441,440.639,74.4434Q440.407,74.1426,439.532,73.4316Q438.725,72.7754,438.445,72.3994Q438.165,72.0234,438.165,71.5312Q438.165,70.8887,438.541,70.3418Q438.917,69.7949,439.546,69.46000000000001Q440.175,69.125,440.872,69.125Q441.487,69.125,441.904,69.43260000000001Q442.321,69.7402,442.321,70.2188Q442.321,70.8477,441.788,71.0801Q441.706,70.4375,441.303,70.0752Q440.899,69.7129,440.27,69.7129Q439.71,69.7129,439.293,70.0752Q438.876,70.4375,438.876,70.9023Q438.876,71.4766,439.587,72.0371L440.38,72.6797Q441.542,73.5957,441.542,74.5527Q441.542,75.2637,441.139,75.8857Q440.735,76.5078,440.045,76.877Q439.354,77.2461,438.589,77.2461Q437.372,77.2461,436.538,76.125ZM450.243,74.8809L450.489,75.0859Q449.641,76.207,448.834,76.70609999999999Q448.028,77.2051,447.098,77.2051Q445.991,77.2051,445.321,76.4668Q444.651,75.7285,444.651,74.5117Q444.651,73.2812,445.3,72.0166Q445.95,70.752,446.927,69.9248Q447.905,69.0977,448.862,69.0977Q449.422,69.0977,449.785,69.4258Q450.147,69.7539,450.147,70.2734Q450.147,71.3262,448.998,72.3789Q447.85,73.4316,445.868,74.1699Q445.854,74.2793,445.854,74.416Q445.854,75.3594,446.373,75.9541Q446.893,76.5488,447.713,76.5488Q448.356,76.5488,448.957,76.1455Q449.559,75.7422,450.243,74.8809ZM445.868,73.8418Q447.344,73.1855,448.137,72.3789Q448.67,71.832,448.998,71.2031Q449.327,70.5742,449.327,70.0684Q449.327,69.4258,448.739,69.4258Q447.85,69.4258,446.941,70.8271Q446.032,72.2285,445.868,73.8418ZM464.828,74.9492Q463.994,76.125,463.208,76.66499999999999Q462.422,77.2051,461.464,77.2051Q460.412,77.2051,459.749,76.4668Q459.086,75.7285,459.086,74.5527Q459.086,73.3223,459.728,72.0508Q460.371,70.7793,461.376,69.9453Q462.38,69.1113,463.31,69.1113Q463.939,69.1113,464.322,69.46000000000001Q464.705,69.8086,464.705,70.3965Q464.705,70.9297,464.301,71.41499999999999Q463.898,71.9004,463.433,71.9004Q463.228,71.9004,463.064,71.7363Q463.953,71.3398,463.953,70.2598Q463.953,69.877,463.755,69.66499999999999Q463.556,69.4531,463.228,69.4531Q462.722,69.4531,462.21,69.8633Q461.697,70.2734,461.246,71.00489999999999Q460.795,71.7363,460.542,72.5635Q460.289,73.3906,460.289,74.2383Q460.289,75.25,460.767,75.8789Q461.246,76.5078,462.025,76.5078Q462.695,76.5078,463.324,76.084Q463.953,75.6602,464.636,74.7852L464.828,74.9492ZM467.116,77.1367L470.753,58.433594L472.189,57.736328L468.402,74.3887Q468.456,74.293,468.456,74.2656L468.771,73.5547Q469.577,71.7227,470.794,70.3828Q471.943,69.1387,472.913,69.1387Q473.433,69.1387,473.747,69.4736Q474.062,69.8086,474.062,70.3691Q474.062,70.6836,473.911,71.2578L473.775,71.832L473.351,73.5L473.228,74.0332Q473.023,74.8535,473.023,75.291Q473.023,75.7285,473.173,75.99510000000001Q473.323,76.2617,473.57,76.2617Q473.993,76.2617,474.923,75.25L475.128,75.4414L475.005,75.5918Q474.226,76.5078,473.85,76.8291Q473.474,77.1504,473.173,77.1504Q472.749,77.1504,472.448,76.6992Q472.148,76.248,472.148,75.6465Q472.148,75.2773,472.325,74.3477L472.845,71.4492Q472.968,70.8066,472.968,70.4922Q472.968,70.2051,472.818,70.0547Q472.667,69.9043,472.407,69.9043Q471.902,69.9043,471.245,70.499Q470.589,71.0938,469.926,72.1465Q469.263,73.1992,468.771,74.3955Q468.279,75.5918,468.032,76.8496L467.116,77.1367ZM477.294,74.375Q477.294,73.1445,477.957,71.9209Q478.62,70.6973,479.673,69.9316Q480.725,69.166,481.819,69.166Q482.968,69.166,483.672,69.9248Q484.376,70.6836,484.376,71.8867Q484.376,73.1992,483.726,74.4297Q483.077,75.6602,482.017,76.44630000000001Q480.958,77.2324,479.878,77.2324Q478.716,77.2324,478.005,76.44630000000001Q477.294,75.6602,477.294,74.375ZM483.145,71.3672Q483.145,70.5469,482.742,70.0137Q482.339,69.4805,481.71,69.4805Q481.136,69.4805,480.609,69.8496Q480.083,70.2188,479.645,70.9297Q479.153,71.75,478.832,72.8438Q478.511,73.9375,478.511,74.7852Q478.511,75.7969,478.907,76.3438Q479.304,76.8906,480.042,76.8906Q481.231,76.8906,482.134,75.2363Q482.598,74.3887,482.872,73.3359Q483.145,72.2832,483.145,71.3672ZM486.897,74.375Q486.897,73.1445,487.56,71.9209Q488.223,70.6973,489.276,69.9316Q490.329,69.166,491.422,69.166Q492.571,69.166,493.275,69.9248Q493.979,70.6836,493.979,71.8867Q493.979,73.1992,493.33,74.4297Q492.68,75.6602,491.621,76.44630000000001Q490.561,77.2324,489.481,77.2324Q488.319,77.2324,487.608,76.44630000000001Q486.897,75.6602,486.897,74.375ZM492.748,71.3672Q492.748,70.5469,492.345,70.0137Q491.942,69.4805,491.313,69.4805Q490.739,69.4805,490.212,69.8496Q489.686,70.2188,489.248,70.9297Q488.756,71.75,488.435,72.8438Q488.114,73.9375,488.114,74.7852Q488.114,75.7969,488.51,76.3438Q488.907,76.8906,489.645,76.8906Q490.834,76.8906,491.737,75.2363Q492.202,74.3887,492.475,73.3359Q492.748,72.2832,492.748,71.3672ZM495.748,76.125L496.514,75.2227Q497.115,76.6445,498.428,76.6445Q499.111,76.6445,499.597,76.2002Q500.082,75.7559,500.082,75.168Q500.082,74.7441,499.85,74.4434Q499.617,74.1426,498.742,73.4316Q497.936,72.7754,497.655,72.3994Q497.375,72.0234,497.375,71.5312Q497.375,70.8887,497.751,70.3418Q498.127,69.7949,498.756,69.46000000000001Q499.385,69.125,500.082,69.125Q500.697,69.125,501.114,69.43260000000001Q501.531,69.7402,501.531,70.2188Q501.531,70.8477,500.998,71.0801Q500.916,70.4375,500.513,70.0752Q500.109,69.7129,499.481,69.7129Q498.92,69.7129,498.503,70.0752Q498.086,70.4375,498.086,70.9023Q498.086,71.4766,498.797,72.0371L499.59,72.6797Q500.752,73.5957,500.752,74.5527Q500.752,75.2637,500.349,75.8857Q499.945,76.5078,499.255,76.877Q498.565,77.2461,497.799,77.2461Q496.582,77.2461,495.748,76.125ZM509.453,74.8809L509.699,75.0859Q508.851,76.207,508.045,76.70609999999999Q507.238,77.2051,506.308,77.2051Q505.201,77.2051,504.531,76.4668Q503.861,75.7285,503.861,74.5117Q503.861,73.2812,504.51,72.0166Q505.16,70.752,506.137,69.9248Q507.115,69.0977,508.072,69.0977Q508.632,69.0977,508.995,69.4258Q509.357,69.7539,509.357,70.2734Q509.357,71.3262,508.209,72.3789Q507.06,73.4316,505.078,74.1699Q505.064,74.2793,505.064,74.416Q505.064,75.3594,505.584,75.9541Q506.103,76.5488,506.923,76.5488Q507.566,76.5488,508.168,76.1455Q508.769,75.7422,509.453,74.8809ZM505.078,73.8418Q506.554,73.1855,507.347,72.3789Q507.881,71.832,508.209,71.2031Q508.537,70.5742,508.537,70.0684Q508.537,69.4258,507.949,69.4258Q507.06,69.4258,506.151,70.8271Q505.242,72.2285,505.078,73.8418ZM517.079,81.8535L517.749,80.9512Q518.542,81.7988,519.54,81.7988Q520.593,81.7988,521.235,80.9648Q521.878,80.1309,522.288,78.2305L522.917,75.4004Q521.413,77.1641,520.196,77.1641Q519.485,77.1641,519.082,76.7266Q518.679,76.2891,518.679,75.5508Q518.679,75.0586,518.802,74.4707L519.731,69.5625L521.057,69.002L519.731,74.5117Q519.567,75.1816,519.567,75.5098Q519.567,75.9746,519.848,76.26859999999999Q520.128,76.5625,520.593,76.5625Q521.099,76.5625,521.707,76.1182Q522.315,75.6738,523.067,74.7852L524.243,69.5625L525.528,69.002L523.532,77.041Q523.177,78.4902,522.855,79.3105Q522.534,80.1309,522.11,80.6777Q520.77,82.4004,518.843,82.4004Q517.722,82.4004,517.079,81.8535ZM527.872,74.375Q527.872,73.1445,528.535,71.9209Q529.198,70.6973,530.25,69.9316Q531.303,69.166,532.397,69.166Q533.545,69.166,534.249,69.9248Q534.954,70.6836,534.954,71.8867Q534.954,73.1992,534.304,74.4297Q533.655,75.6602,532.595,76.44630000000001Q531.536,77.2324,530.456,77.2324Q529.293,77.2324,528.582,76.44630000000001Q527.872,75.6602,527.872,74.375ZM533.723,71.3672Q533.723,70.5469,533.32,70.0137Q532.916,69.4805,532.288,69.4805Q531.713,69.4805,531.187,69.8496Q530.661,70.2188,530.223,70.9297Q529.731,71.75,529.41,72.8438Q529.088,73.9375,529.088,74.7852Q529.088,75.7969,529.485,76.3438Q529.881,76.8906,530.62,76.8906Q531.809,76.8906,532.711,75.2363Q533.176,74.3887,533.45,73.3359Q533.723,72.2832,533.723,71.3672ZM540.25,69.002L538.924,74.293Q538.746,75.0039,538.746,75.4961Q538.746,75.9746,539.047,76.2617Q539.348,76.5488,539.826,76.5488Q540.988,76.5488,542.246,74.6484L542.301,74.5664Q542.328,74.4297,542.342,74.3477L543.203,69.5625L544.543,69.002L543.34,73.5Q543.039,74.6074,543.039,75.2773Q543.039,75.7148,543.189,75.9883Q543.34,76.2617,543.586,76.2617Q544.01,76.2617,544.939,75.25L545.158,75.4414L545.021,75.5918Q544.242,76.5078,543.873,76.8291Q543.504,77.1504,543.189,77.1504Q542.766,77.1504,542.472,76.7197Q542.178,76.2891,542.178,75.6465Q542.178,75.4414,542.191,75.2637Q540.77,77.1504,539.375,77.1504Q538.678,77.1504,538.261,76.7471Q537.844,76.3438,537.844,75.6738Q537.844,75.1543,537.994,74.4023L538.924,69.5625L540.25,69.002ZM547.31,73.1172Q548.486,71.6953,548.882,70.4648Q547.775,69.8496,547.775,68.7012Q547.775,68.1543,548.035,67.8125Q548.295,67.4707,548.691,67.4707Q549.101,67.4707,549.361,67.84667999999999Q549.621,68.2227,549.621,68.8242Q549.621,69.248,549.47,69.7676Q549.839,69.8633,550.14,69.8633Q550.988,69.8633,551.535,69.3711L552.191,69.3711L552.095,69.5625Q551.111,71.3672,550.475,73.1104Q549.839,74.8535,549.839,75.7148Q549.839,76.0293,550.004,76.24119999999999Q550.168,76.4531,550.4,76.4531Q550.961,76.4531,552.205,75.2637L552.423,75.5098Q552.041,75.9336,551.234,76.5625Q550.509,77.1367,549.88,77.1367Q549.347,77.1367,549.04,76.7812Q548.732,76.4258,548.732,75.8105Q548.732,74.7852,549.525,73.2129Q549.812,72.625,550.263,71.873Q550.714,71.1211,551.398,70.082L551.535,69.8906Q551.084,70.3008,550.667,70.4717Q550.25,70.6426,549.716,70.6426Q549.47,70.6426,549.197,70.5742Q548.759,71.9141,547.556,73.3359L547.31,73.1172ZM549.183,69.6445Q549.238,69.3027,549.238,69.0703Q549.238,68.5918,549.081,68.3184Q548.923,68.0449,548.677,68.0449Q548.541,68.0449,548.438,68.1748Q548.336,68.3047,548.336,68.4961Q548.336,69.1387,549.183,69.6445ZM562.716,69.6992L561.376,69.6992L561.471,69.2344L562.825,69.2344L564.11,63.23242Q564.438,61.74219,564.78,60.85352Q565.122,59.96484,565.6,59.32227Q566.776,57.75,568.526,57.75Q569.114,57.75,569.606,57.9414062L569.114,59.18555Q568.567,58.419922,567.72,58.419922Q567.077,58.419922,566.674,58.918945Q566.27,59.41797,565.983,60.56641L563.891,69.2344L566.093,69.2344L565.997,69.6992L563.782,69.6992L561.909,77.4648Q561.54,79.0234,561.191,79.7891Q560.843,80.5547,560.241,81.2109Q559.147,82.4004,557.848,82.4004Q557.22,82.4004,556.727,82.1816L557.397,81.1973Q557.971,81.6621,558.641,81.6621Q559.653,81.6621,560.159,80.5957Q560.528,79.8027,560.938,77.9707L562.716,69.6992ZM574.616,68.9199L573.33,73.9238Q573.125,74.7441,573.125,75.209Q573.125,75.6191,573.303,75.9199Q573.481,76.2207,573.741,76.2207Q574.137,76.2207,575.053,75.25L575.245,75.4414L575.094,75.6191Q574.37,76.4531,573.98,76.7881Q573.59,77.123,573.303,77.123Q572.866,77.123,572.544,76.66499999999999Q572.223,76.207,572.223,75.6055Q572.223,75.168,572.551,73.623L572.661,73.1035Q572.155,74.2793,571.307,75.3594Q569.885,77.1641,568.586,77.1641Q567.807,77.1641,567.356,76.6035Q566.905,76.043,566.905,75.0996Q566.905,73.8145,567.636,72.4062Q568.368,70.998,569.454,70.0889Q570.541,69.1797,571.567,69.1797Q572.647,69.1797,573.18,69.9727L573.33,69.4531L574.616,68.9199ZM573.043,70.6699Q572.879,70.1504,572.49,69.85640000000001Q572.1,69.5625,571.594,69.5625Q570.993,69.5625,570.323,70.11619999999999Q569.653,70.6699,569.092,71.6543Q568.655,72.4336,568.361,73.377Q568.067,74.3203,568.067,74.9355Q568.067,75.6328,568.333,76.0293Q568.6,76.4258,569.092,76.4258Q569.721,76.4258,570.405,75.8379Q571.088,75.25,571.758,74.1562Q572.168,73.5273,572.401,72.8984Q572.633,72.2695,572.92,71.1484L573.043,70.6699ZM577.779,69.5625L579.01,69.002L579.01,69.3574Q579.051,71.3535,579.242,73.5547Q579.352,74.7031,579.434,75.2568Q579.516,75.8105,579.625,76.002Q579.734,76.1934,579.926,76.1934Q580.432,76.1934,581.73,74.2656Q582.893,72.5703,582.893,71.1348Q582.893,70.6289,582.77,70.29390000000001Q582.646,69.959,582.305,69.6172L583.33,68.6602Q583.809,69.2891,583.809,70.1914Q583.809,72.0098,581.648,74.9902Q580.992,75.8926,580.254,76.6035Q579.912,76.918,579.7,77.0479Q579.488,77.1777,579.283,77.1777Q578.955,77.1777,578.805,76.918Q578.654,76.6582,578.572,75.9336L577.779,69.5625ZM585.961,74.375Q585.961,73.1445,586.624,71.9209Q587.287,70.6973,588.339,69.9316Q589.392,69.166,590.486,69.166Q591.634,69.166,592.339,69.9248Q593.043,70.6836,593.043,71.8867Q593.043,73.1992,592.393,74.4297Q591.744,75.6602,590.684,76.44630000000001Q589.625,77.2324,588.545,77.2324Q587.382,77.2324,586.672,76.44630000000001Q585.961,75.6602,585.961,74.375ZM591.812,71.3672Q591.812,70.5469,591.409,70.0137Q591.005,69.4805,590.377,69.4805Q589.802,69.4805,589.276,69.8496Q588.75,70.2188,588.312,70.9297Q587.82,71.75,587.499,72.8438Q587.177,73.9375,587.177,74.7852Q587.177,75.7969,587.574,76.3438Q587.97,76.8906,588.709,76.8906Q589.898,76.8906,590.8,75.2363Q591.265,74.3887,591.539,73.3359Q591.812,72.2832,591.812,71.3672ZM598.339,69.002L597.013,74.293Q596.835,75.0039,596.835,75.4961Q596.835,75.9746,597.136,76.2617Q597.437,76.5488,597.915,76.5488Q599.077,76.5488,600.335,74.6484L600.39,74.5664Q600.417,74.4297,600.431,74.3477L601.292,69.5625L602.632,69.002L601.429,73.5Q601.128,74.6074,601.128,75.2773Q601.128,75.7148,601.279,75.9883Q601.429,76.2617,601.675,76.2617Q602.099,76.2617,603.029,75.25L603.247,75.4414L603.111,75.5918Q602.331,76.5078,601.962,76.8291Q601.593,77.1504,601.279,77.1504Q600.855,77.1504,600.561,76.7197Q600.267,76.2891,600.267,75.6465Q600.267,75.4414,600.28,75.2637Q598.859,77.1504,597.464,77.1504Q596.767,77.1504,596.35,76.7471Q595.933,76.3438,595.933,75.6738Q595.933,75.1543,596.083,74.4023L597.013,69.5625L598.339,69.002ZM605.399,73.1172Q606.575,71.6953,606.971,70.4648Q605.864,69.8496,605.864,68.7012Q605.864,68.1543,606.124,67.8125Q606.384,67.4707,606.78,67.4707Q607.19,67.4707,607.45,67.84667999999999Q607.71,68.2227,607.71,68.8242Q607.71,69.248,607.559,69.7676Q607.928,69.8633,608.229,69.8633Q609.077,69.8633,609.624,69.3711L610.28,69.3711L610.184,69.5625Q609.2,71.3672,608.564,73.1104Q607.928,74.8535,607.928,75.7148Q607.928,76.0293,608.093,76.24119999999999Q608.257,76.4531,608.489,76.4531Q609.05,76.4531,610.294,75.2637L610.512,75.5098Q610.13,75.9336,609.323,76.5625Q608.598,77.1367,607.969,77.1367Q607.436,77.1367,607.129,76.7812Q606.821,76.4258,606.821,75.8105Q606.821,74.7852,607.614,73.2129Q607.901,72.625,608.352,71.873Q608.803,71.1211,609.487,70.082L609.624,69.8906Q609.173,70.3008,608.756,70.4717Q608.339,70.6426,607.805,70.6426Q607.559,70.6426,607.286,70.5742Q606.848,71.9141,605.645,73.3359L605.399,73.1172ZM607.272,69.6445Q607.327,69.3027,607.327,69.0703Q607.327,68.5918,607.17,68.3184Q607.012,68.0449,606.766,68.0449Q606.63,68.0449,606.527,68.1748Q606.425,68.3047,606.425,68.4961Q606.425,69.1387,607.272,69.6445ZM615.987,63.64258Q616.342,63.64258,616.561,63.86133Q616.78,64.08008,616.78,64.43555Q616.78,64.77734,616.547,65.00977Q616.315,65.24219,615.987,65.24219Q615.672,65.24219,615.426,64.99609Q615.18,64.75,615.18,64.43555Q615.18,64.10742,615.412,63.875Q615.645,63.64258,615.987,63.64258ZM615.59,69.002L614.387,73.5Q614.086,74.6074,614.086,75.2773Q614.086,75.7148,614.237,75.9883Q614.387,76.2617,614.633,76.2617Q615.057,76.2617,615.987,75.25L616.205,75.4414L616.069,75.5918Q615.289,76.5078,614.92,76.8291Q614.551,77.1504,614.237,77.1504Q613.813,77.1504,613.519,76.7197Q613.225,76.2891,613.225,75.6465Q613.225,75.2363,613.389,74.3477L614.25,69.5625L615.59,69.002ZM620.9,69.6992L619.861,74.252Q619.697,75.0039,619.697,75.3184Q619.697,75.8105,619.93,76.1113Q620.162,76.4121,620.545,76.4121Q620.914,76.4121,621.222,76.2002Q621.529,75.9883,622.158,75.3184L622.322,75.1543L622.527,75.3594Q621.721,76.3438,621.181,76.7471Q620.641,77.1504,620.121,77.1504Q619.465,77.1504,619.075,76.7197Q618.686,76.2891,618.686,75.5918Q618.686,75.0723,618.891,74.0879L619.779,69.6992L618.467,69.6992L618.562,69.2344L619.875,69.2344L620.641,65.54297L621.953,65.02344L620.996,69.2344L623.211,69.2344L623.115,69.6992L620.9,69.6992ZM630.298,74.8809L630.544,75.0859Q629.697,76.207,628.89,76.70609999999999Q628.084,77.2051,627.154,77.2051Q626.046,77.2051,625.377,76.4668Q624.707,75.7285,624.707,74.5117Q624.707,73.2812,625.356,72.0166Q626.005,70.752,626.983,69.9248Q627.961,69.0977,628.918,69.0977Q629.478,69.0977,629.84,69.4258Q630.203,69.7539,630.203,70.2734Q630.203,71.3262,629.054,72.3789Q627.906,73.4316,625.923,74.1699Q625.91,74.2793,625.91,74.416Q625.91,75.3594,626.429,75.9541Q626.949,76.5488,627.769,76.5488Q628.412,76.5488,629.013,76.1455Q629.615,75.7422,630.298,74.8809ZM625.923,73.8418Q627.4,73.1855,628.193,72.3789Q628.726,71.832,629.054,71.2031Q629.382,70.5742,629.382,70.0684Q629.382,69.4258,628.794,69.4258Q627.906,69.4258,626.997,70.8271Q626.087,72.2285,625.923,73.8418ZM646.784,68.9199L644.692,77.2461Q644.378,78.5859,644.138,79.2148Q643.899,79.8438,643.557,80.3633Q642.915,81.3477,641.992,81.874Q641.069,82.4004,640.003,82.4004Q639.032,82.4004,638.294,81.8535L638.991,80.9512Q639.88,81.7988,640.755,81.7988Q641.315,81.7988,641.889,81.4434Q642.464,81.0879,642.737,80.5684Q643.093,79.9395,643.475,78.2852L644.528,73.7734Q642.696,77.1914,640.809,77.1914Q640.044,77.1914,639.572,76.6104Q639.1,76.0293,639.1,75.127Q639.1,73.8418,639.825,72.4473Q640.55,71.0527,641.65,70.12989999999999Q642.751,69.207,643.79,69.207Q644.76,69.207,645.403,69.9316L645.526,69.4531L646.784,68.9199ZM645.253,70.6152Q644.719,69.5898,643.844,69.5898Q642.928,69.5898,642.04,70.6016Q641.315,71.4492,640.802,72.72749999999999Q640.29,74.0059,640.29,75.0176Q640.29,75.7012,640.584,76.0908Q640.878,76.4805,641.411,76.4805Q641.958,76.4805,642.621,75.8789Q643.284,75.2773,643.94,74.1836Q644.692,72.9395,645.102,71.2305L645.253,70.6152ZM649.018,73.1172Q650.194,71.6953,650.59,70.4648Q649.483,69.8496,649.483,68.7012Q649.483,68.1543,649.743,67.8125Q650.002,67.4707,650.399,67.4707Q650.809,67.4707,651.069,67.84667999999999Q651.328,68.2227,651.328,68.8242Q651.328,69.248,651.178,69.7676Q651.547,69.8633,651.848,69.8633Q652.696,69.8633,653.243,69.3711L653.899,69.3711L653.803,69.5625Q652.819,71.3672,652.183,73.1104Q651.547,74.8535,651.547,75.7148Q651.547,76.0293,651.711,76.24119999999999Q651.875,76.4531,652.108,76.4531Q652.668,76.4531,653.912,75.2637L654.131,75.5098Q653.748,75.9336,652.942,76.5625Q652.217,77.1367,651.588,77.1367Q651.055,77.1367,650.747,76.7812Q650.44,76.4258,650.44,75.8105Q650.44,74.7852,651.233,73.2129Q651.52,72.625,651.971,71.873Q652.422,71.1211,653.106,70.082L653.243,69.8906Q652.791,70.3008,652.374,70.4717Q651.957,70.6426,651.424,70.6426Q651.178,70.6426,650.905,70.5742Q650.467,71.9141,649.264,73.3359L649.018,73.1172ZM650.891,69.6445Q650.946,69.3027,650.946,69.0703Q650.946,68.5918,650.788,68.3184Q650.631,68.0449,650.385,68.0449Q650.248,68.0449,650.146,68.1748Q650.043,68.3047,650.043,68.4961Q650.043,69.1387,650.891,69.6445ZM659.605,63.64258Q659.961,63.64258,660.18,63.86133Q660.398,64.08008,660.398,64.43555Q660.398,64.77734,660.166,65.00977Q659.934,65.24219,659.605,65.24219Q659.291,65.24219,659.045,64.99609Q658.799,64.75,658.799,64.43555Q658.799,64.10742,659.031,63.875Q659.264,63.64258,659.605,63.64258ZM659.209,69.002L658.006,73.5Q657.705,74.6074,657.705,75.2773Q657.705,75.7148,657.855,75.9883Q658.006,76.2617,658.252,76.2617Q658.676,76.2617,659.605,75.25L659.824,75.4414L659.687,75.5918Q658.908,76.5078,658.539,76.8291Q658.17,77.1504,657.855,77.1504Q657.432,77.1504,657.138,76.7197Q656.844,76.2891,656.844,75.6465Q656.844,75.2363,657.008,74.3477L657.869,69.5625L659.209,69.002ZM671.833,57.736328L668.21,73.5Q667.923,74.7578,667.923,75.25Q667.923,75.6875,668.081,75.9609Q668.238,76.2344,668.511,76.2344Q668.867,76.2344,669.373,75.7012L669.769,75.3047Q669.783,75.291,669.796,75.2773Q669.81,75.2637,669.837,75.25L670.042,75.4414L669.933,75.5645Q669.414,76.1387,669.4,76.1523L668.949,76.6035Q668.607,76.9453,668.45,77.0342Q668.292,77.123,668.101,77.123Q667.65,77.123,667.349,76.6582Q667.048,76.1934,667.048,75.5918Q667.048,75.2363,667.24,74.293L667.39,73.5137Q667.035,74.375,666.269,75.3867Q664.888,77.1641,663.589,77.1641Q662.81,77.1641,662.359,76.5967Q661.908,76.0293,661.908,75.0586Q661.908,73.7051,662.619,72.31739999999999Q663.33,70.9297,664.43,70.0273Q665.531,69.125,666.625,69.125Q667.431,69.125,668.128,69.6035L670.357,58.433594L671.833,57.736328ZM668.005,70.2871Q667.882,69.918,667.5,69.69239999999999Q667.117,69.4668,666.679,69.4668Q666.037,69.4668,665.36,70.041Q664.683,70.6152,664.082,71.668Q663.644,72.4473,663.364,73.37010000000001Q663.083,74.293,663.083,75.0449Q663.083,75.7012,663.364,76.0977Q663.644,76.4941,664.136,76.4941Q664.71,76.4941,665.374,75.9062Q666.037,75.3184,666.707,74.2109Q667.158,73.459,667.417,72.6523Q667.732,71.6133,667.869,70.9844L668.005,70.2871Z" fill="#000000" fill-opacity="1"/></g></g></svg>