<svg xmlns="http://www.w3.org/2000/svg" xmlns:xlink="http://www.w3.org/1999/xlink" fill="none" version="1.1" width="125" height="29" viewBox="0 0 125 29"><g><path d="M11.543,3.41016L14.707,6.50391Q14.4727,6.66797,14.0391,6.67969Q13.6055,6.69141,12.9844,6.45703Q11.4961,6.71484,9.50391,6.91406L9.50391,8.85938L11.1562,8.85938L12.6914,6.86719L13.1719,7.21875Q13.6523,7.60547,14.3027,8.13281Q14.9531,8.66016,15.4805,9.14062Q15.3867,9.52734,14.8125,9.52734L9.50391,9.52734L9.50391,17.8594Q11.3789,18.1641,12.4805,18.7969Q13.6055,19.4414,14.0977,20.1973Q14.5898,20.9531,14.5664,21.6504Q14.543,22.3477,14.1621,22.8164Q13.7812,23.2852,13.1426,23.3438Q12.5039,23.4023,11.7656,22.8984Q11.5898,22.0312,11.1973,21.1465Q10.8047,20.2617,10.3008,19.418Q9.89062,18.8203,9.50391,18.3164L9.50391,25.418Q9.48047,25.5586,8.81836,25.9102Q8.15625,26.2617,7.05469,26.2617L6.50391,26.2617L6.50391,21.2109Q5.37891,22.1953,4.03125,23.0391Q2.40234,24.0469,0.550781,24.7148L0.386719,24.457Q1.875,23.4258,3.16992,21.7793Q4.46484,20.1328,5.44922,18.1641Q6.07031,16.8984,6.50391,15.5742L6.50391,9.52734L0.867188,9.52734L0.667969,8.85938L6.50391,8.85938L6.50391,7.17188Q5.90625,7.19531,5.28516,7.21875Q3.09375,7.34766,1.07812,7.34766L1.03125,7.05469Q2.37891,6.73828,3.85547,6.29883Q5.33203,5.85938,6.76758,5.36719Q8.20312,4.875,9.43945,4.37109Q10.6758,3.86719,11.543,3.41016ZM19.3711,3.89062L23.3555,4.27734Q23.332,4.53516,23.127,4.70508Q22.9219,4.875,22.4648,4.94531L22.4648,22.6523Q22.4648,23.707,22.2129,24.4629Q21.9609,25.2188,21.1348,25.6641Q20.3086,26.1094,18.5977,26.2617Q18.5508,25.4883,18.4336,24.9492Q18.3164,24.4102,18.0234,24.0469Q17.7305,23.6836,17.3027,23.4316Q16.875,23.1797,15.9609,23.0156L15.9609,22.6992L16.3477,22.7227Q16.6992,22.7578,17.2148,22.7812Q17.7305,22.8047,18.2109,22.8281Q18.6914,22.8516,18.8906,22.8516Q19.1484,22.8516,19.2598,22.752Q19.3711,22.6523,19.3711,22.4414L19.3711,3.89062ZM15.5508,5.40234L19.0078,5.73047Q18.9844,5.95312,18.8145,6.11133Q18.6445,6.26953,18.2109,6.33984L18.2109,19.6758Q18.2109,19.8047,17.8887,19.9805Q17.5664,20.1562,17.0625,20.3027Q16.5586,20.4492,16.0547,20.4492L15.5508,20.4492L15.5508,5.40234ZM10.3477,10.125L13.2422,10.3945Q13.1953,10.8984,12.5742,10.9922L12.5742,12.457Q12.7383,12.2109,12.9375,11.9062Q13.3711,11.2617,13.6289,10.8047L15.3633,12.8672Q15.2695,12.9609,15.0879,12.9727Q14.9062,12.9844,14.6133,12.8438Q14.2031,12.9375,13.5352,13.0312Q12.9844,13.1016,12.5742,13.1719L12.5742,14.7891Q12.5742,14.9531,12.6211,15.0234Q12.668,15.0938,12.7969,15.0938L13.2422,15.0938Q13.4648,15.0938,13.582,14.9766Q13.6992,14.8594,13.8691,14.5312Q14.0391,14.2031,14.1797,13.8047L14.4492,13.8047L14.5195,15Q14.9297,15.1641,15.0586,15.3809Q15.1875,15.5977,15.1875,15.9375Q15.1875,16.5586,14.6016,16.9453Q14.0156,17.332,12.7383,17.332L12,17.332Q10.8984,17.332,10.623,16.9102Q10.3477,16.4883,10.3477,15.457L10.3477,10.125ZM3.31641,10.1484L6.21094,10.418Q6.1875,10.582,6.07031,10.7285Q5.95312,10.875,5.61328,10.9219L5.61328,17.2031Q5.61328,17.3086,5.32617,17.4492Q5.03906,17.5898,4.60547,17.7012Q4.17188,17.8125,3.73828,17.8125L3.31641,17.8125L3.31641,15.5508Q3.21094,15.6445,3.14062,15.7734Q2.68359,16.3008,2.10938,16.9922Q1.96875,17.4727,1.51172,17.543L0.644531,15.0234Q1.10156,14.9766,1.99219,14.8594Q2.63672,14.7891,3.31641,14.6836L3.31641,12.8203L1.17188,12.8203L0.960938,12.1406L3.31641,12.1406L3.31641,10.1484ZM27.1688,16.125L35.2547,16.125L35.2547,12.8672L31.5398,12.8672L31.3406,12.1875L38.0203,12.1875L39.743,9.9375L40.0828,10.1719Q40.3875,10.4414,40.8797,10.8223Q41.3719,11.2031,41.9168,11.6484Q42.4617,12.0938,42.8836,12.4805Q42.7898,12.8672,42.1922,12.8672L39.0516,12.8672L39.0516,16.125L42.4852,16.125L44.2781,13.8516L44.618,14.0859Q44.9578,14.3555,45.4617,14.7363Q45.9656,15.1172,46.5281,15.5625Q47.0906,16.0078,47.5477,16.418Q47.4422,16.8047,46.8445,16.8047L39.0516,16.8047L39.0516,22.1953Q39.0516,23.3555,38.7352,24.2168Q38.4188,25.0781,37.452,25.6055Q36.4852,26.1328,34.493,26.2852Q34.4344,25.418,34.3289,24.791Q34.2234,24.1641,33.8836,23.7891Q33.6023,23.4023,33.1453,23.1035Q32.6883,22.8047,31.657,22.6289L31.657,22.3711L32.0672,22.3945Q32.4422,22.418,33.0105,22.4414Q33.5789,22.4648,34.0828,22.4883Q34.5867,22.5117,34.7977,22.5117Q35.0672,22.5117,35.1609,22.3945Q35.2547,22.2773,35.2547,22.1016L35.2547,16.8047L27.3563,16.8047L27.1688,16.125ZM38.3719,5.63672Q37.4695,7.03125,36.075,8.38477Q34.6805,9.73828,32.9637,10.9629Q31.2469,12.1875,29.4012,13.1836Q27.5555,14.1797,25.7273,14.8359L25.5867,14.5898Q27.1453,13.5586,28.6453,12.1699Q30.1453,10.7812,31.4402,9.22852Q32.7352,7.67578,33.6375,6.16406Q34.5398,4.65234,34.868,3.41016L40.0594,4.75781Q39.9891,5.01562,39.6961,5.15039Q39.4031,5.28516,38.7352,5.35547Q39.5789,6.38672,40.8035,7.1543Q42.0281,7.92188,43.4402,8.46094Q44.8523,9,46.2938,9.35742Q47.7352,9.71484,48.9891,9.96094L48.9656,10.3477Q48.1922,10.5586,47.618,11.1328Q47.0438,11.707,46.6922,12.4395Q46.3406,13.1719,46.2234,13.875Q44.5477,12.9844,42.9949,11.8184Q41.4422,10.6523,40.2469,9.12891Q39.0516,7.60547,38.3719,5.63672ZM40.2234,18.2695Q42.6492,18.5742,44.1258,19.3066Q45.6023,20.0391,46.2996,20.9531Q46.9969,21.8672,47.0555,22.7168Q47.1141,23.5664,46.7039,24.1816Q46.2938,24.7969,45.5496,24.9258Q44.8055,25.0547,43.8914,24.4805Q43.5633,23.4023,42.948,22.2949Q42.3328,21.1875,41.577,20.1914Q40.8211,19.1953,40.0359,18.4102L40.2234,18.2695ZM30.8602,17.6836L34.7273,19.7812Q34.6336,19.9453,34.4285,20.0391Q34.2234,20.1328,33.8133,20.0859Q32.9578,21.0703,31.7684,22.0312Q30.5789,22.9922,29.1141,23.7949Q27.6492,24.5977,25.9969,25.1484L25.8211,24.9141Q26.9813,23.9531,27.9598,22.6934Q28.9383,21.4336,29.7,20.1152Q30.4617,18.7969,30.8602,17.6836ZM67.6266,11.332Q67.5563,11.5664,67.3395,11.7246Q67.1227,11.8828,66.6773,11.8828Q66.6422,12.1875,66.5953,12.5039Q66.7945,13.9688,67.2047,15.2344Q67.7086,16.8281,68.6168,18.1113Q69.525,19.3945,70.9078,20.3672Q72.2906,21.3398,74.2359,21.9844L74.2359,22.2773Q72.9352,22.582,72.191,23.5195Q71.4469,24.457,71.2594,26.0391Q69.818,25.0781,68.8688,23.5664Q67.9195,22.0547,67.3805,20.1621Q66.8414,18.2695,66.5719,16.125Q66.4547,15.2344,66.3844,14.332Q66.3141,14.8359,66.2438,15.3398Q65.9508,17.0156,65.318,18.5742Q64.6852,20.1328,63.4605,21.5273Q62.2359,22.9219,60.1676,24.1113Q58.0992,25.3008,54.9586,26.2266L54.7711,25.9219Q57.0211,24.5742,58.5094,23.1562Q59.9977,21.7383,60.8648,20.2559Q61.732,18.7734,62.148,17.1738Q62.5641,15.5742,62.7105,13.8809Q62.857,12.1875,62.9039,10.3711L67.6266,11.332ZM66.0914,4.69922Q66.0211,4.94531,65.7809,5.07422Q65.5406,5.20312,65.1305,5.20312Q64.4859,6.86719,63.7242,8.28516L69.1734,8.28516L70.9898,6.48047L74.0602,9.41016Q73.9195,9.57422,73.7145,9.64453Q73.5094,9.71484,73.0992,9.73828Q72.5484,10.4883,71.7574,11.3379Q70.9664,12.1875,70.0816,12.9844Q69.1969,13.7812,68.3531,14.3789L68.1891,14.2266Q68.4703,13.3477,68.7223,12.2637Q68.9742,11.1797,69.1734,10.125Q69.2906,9.50391,69.3609,8.95312L63.3375,8.95312Q62.6344,10.1484,61.8258,11.1328Q59.8805,13.5352,57.3141,15.0938L57.068,14.9297Q58.0055,13.5117,58.8609,11.6543Q59.7164,9.79688,60.3844,7.6582Q61.0523,5.51953,61.3922,3.31641L66.0914,4.69922ZM52.0992,16.6523Q52.4391,16.6523,52.609,16.5938Q52.7789,16.5352,53.0133,16.1953Q53.2359,15.9375,53.4234,15.6973Q53.6109,15.457,53.9156,15.0117Q54.2203,14.5664,54.7711,13.7168Q55.3219,12.8672,56.2711,11.4141Q57.2203,9.96094,58.6852,7.65234L59.0133,7.78125Q58.7086,8.47266,58.3336,9.35742Q57.9586,10.2422,57.5895,11.1797Q57.2203,12.1172,56.8805,12.9727Q56.5406,13.8281,56.2887,14.4961Q56.0367,15.1641,55.9195,15.5273Q55.732,16.0781,55.5621,16.7285Q55.3922,17.3789,55.4156,17.8594Q55.4391,18.4336,55.6207,18.9258Q55.8023,19.418,56.0191,19.9219Q56.2359,20.4258,56.3883,21.0586Q56.5406,21.6914,56.5172,22.582Q56.4938,23.6836,55.773,24.3105Q55.0523,24.9375,54.0914,24.9375Q53.6344,24.9375,53.1715,24.6152Q52.7086,24.293,52.5094,23.543Q52.8023,22.0547,52.8609,20.7715Q52.9195,19.4883,52.773,18.627Q52.6266,17.7656,52.2984,17.543Q52.0289,17.3555,51.6832,17.2324Q51.3375,17.1094,50.9273,17.0859L50.9273,16.6523L52.0992,16.6523ZM52.1227,4.53516Q54.0914,4.78125,55.2105,5.39062Q56.3297,6,56.775,6.73242Q57.2203,7.46484,57.1324,8.17383Q57.0445,8.88281,56.5758,9.33984Q56.107,9.79688,55.4039,9.83203Q54.7008,9.86719,53.9273,9.29297Q53.857,8.44922,53.5699,7.62305Q53.2828,6.79688,52.8609,6.0293Q52.4391,5.26172,51.9586,4.65234L52.1227,4.53516ZM84.5297,16.8516L86.1586,15.293L88.8422,17.6133Q88.6547,17.9062,87.9164,18Q87.1898,19.7578,86.018,21.1875Q86.5219,21.457,86.8031,21.7734Q87.3305,22.3477,87.3832,22.8984Q87.4359,23.4492,87.1312,23.8945Q86.8266,24.3398,86.3109,24.5156Q85.7953,24.6914,85.1977,24.5039Q84.6,23.9062,83.7094,23.3555Q82.8187,23.9766,81.7406,24.5039Q79.4906,25.6289,76.3969,26.2031L76.2445,25.8984Q79.7953,24.5977,81.893,22.3477Q81.7406,22.2773,81.6,22.1953Q80.4984,21.6914,79.3676,21.334Q78.2367,20.9766,77.2523,20.7891L77.5219,20.3789Q77.7797,19.9219,78.1195,19.3242Q78.5766,18.4805,79.0336,17.5195L76.6781,17.5195L76.4672,16.8516L79.3383,16.8516Q79.6312,16.2188,79.9008,15.6445Q80.2523,14.7891,80.4516,14.2617L80.9555,14.4258L80.9555,12.2344Q80.7562,12.4102,80.5687,12.5508Q78.6937,14.0156,76.3383,15L76.1273,14.6836Q77.5219,13.5586,78.5297,11.9766Q79.3383,10.6758,79.8422,9.36328L76.5141,9.36328L76.3148,8.68359L80.9555,8.68359L80.9555,3.45703L84.8695,3.82031Q84.8344,4.03125,84.6703,4.18945Q84.5062,4.34766,84.0727,4.41797L84.0727,8.68359L85.6781,8.68359L87.0023,6.84375L87.4125,7.17188Q87.8109,7.53516,88.3676,8.03906Q88.9242,8.54297,89.3578,8.97656Q89.2758,9.36328,88.725,9.36328L84.0727,9.36328L84.0727,9.71484Q85.5609,9.84375,86.4516,10.2188Q87.4359,10.6758,87.8402,11.2559Q88.2445,11.8359,88.1977,12.3984Q88.1508,12.9609,87.7699,13.3711Q87.3891,13.7812,86.7973,13.8398Q86.2055,13.8984,85.5141,13.4648Q85.3734,12.8203,85.057,12.1582Q84.7406,11.4961,84.3656,10.875Q84.2133,10.6523,84.0727,10.4414L84.0727,13.8516Q84.0727,13.9453,83.6742,14.1387Q83.2758,14.332,82.6898,14.4727Q82.1039,14.6133,81.5062,14.6133L81.4594,14.6133L84.0492,15.5273Q83.9555,15.7383,83.6391,15.8672Q83.4281,15.9609,82.9945,15.9141Q82.7719,16.3242,82.5141,16.8516L84.5297,16.8516ZM96.4359,6.73828L96.7406,6.98438Q97.0336,7.24219,97.5023,7.62891Q97.9711,8.01562,98.4867,8.44922Q99.0023,8.88281,99.4359,9.26953Q99.3305,9.64453,98.7328,9.64453L97.5844,9.64453Q97.3383,12.2695,96.7406,14.6133Q96.0492,17.3086,94.6312,19.5352Q94.5609,19.6758,94.4672,19.8047Q94.5844,19.8984,94.7016,20.0156Q96.6,21.9375,99.307,23.1797L99.2367,23.4258Q98.018,23.6836,97.309,24.3926Q96.6,25.1016,96.2602,26.2852Q94.057,24.668,92.7328,22.2422Q92.6625,22.125,92.5922,22.0312Q91.7953,22.8047,90.8109,23.4961Q88.4203,25.1953,84.7641,26.2617L84.6469,26.0391Q87.3305,24.5508,89.1117,22.6758Q90.5297,21.1875,91.4906,19.4648Q91.0336,18.1406,90.6937,16.6758Q90.3891,15.293,90.143,13.7812Q89.2289,15.1172,88.0805,16.1953L87.7875,16.0312Q88.3969,14.3789,88.8598,12.3105Q89.3227,10.2422,89.6391,7.97461Q89.9555,5.70703,90.0492,3.52734L94.6312,4.53516Q94.5609,4.78125,94.3324,4.93359Q94.1039,5.08594,93.6937,5.10938Q93.2133,7.17188,92.5453,8.97656L94.7484,8.97656L96.4359,6.73828ZM90.7172,12.9141Q91.1039,14.2617,91.6312,15.4336Q92.018,16.3711,92.5219,17.1797Q93.0727,15.668,93.3891,14.0156Q93.7641,11.9062,93.8695,9.64453L92.2992,9.64453Q91.9242,10.582,91.5141,11.4492Q91.1273,12.2109,90.7172,12.9141ZM77.2289,4.32422Q78.6703,4.62891,79.4379,5.14453Q80.2055,5.66016,80.4457,6.2168Q80.6859,6.77344,80.5453,7.26562Q80.4047,7.75781,79.9945,8.05664Q79.5844,8.35547,79.0453,8.32031Q78.5062,8.28516,77.9555,7.80469Q77.932,6.91406,77.6449,6Q77.3578,5.08594,77.018,4.44141L77.2289,4.32422ZM88.6547,5.28516Q88.5844,5.49609,88.3559,5.64258Q88.1273,5.78906,87.7406,5.78906Q87.0961,6.45703,86.352,7.13086Q85.6078,7.80469,84.9164,8.28516L84.5766,8.10938Q84.7406,7.39453,84.9223,6.32812Q85.1039,5.26172,85.268,4.21875L88.6547,5.28516ZM83.4047,20.3555Q84.1898,19.0312,84.6469,17.5195L82.1508,17.5195Q81.6937,18.3867,81.2133,19.2422Q80.9555,19.7227,80.7094,20.1328Q81.5062,20.1328,82.1742,20.2031Q82.8187,20.2617,83.4047,20.3555ZM107.667,23.4961Q106.636,23.4961,105.915,22.7871Q105.195,22.0781,105.195,21.0938Q105.195,20.0625,105.915,19.3301Q106.636,18.5977,107.667,18.5977Q108.722,18.5977,109.431,19.3301Q110.14,20.0625,110.14,21.0938Q110.14,22.0781,109.431,22.7871Q108.722,23.4961,107.667,23.4961ZM107.667,14.4258Q106.636,14.4258,105.915,13.7168Q105.195,13.0078,105.195,12Q105.195,10.9922,105.915,10.2598Q106.636,9.52734,107.667,9.52734Q108.722,9.52734,109.431,10.2598Q110.14,10.9922,110.14,12Q110.14,13.0078,109.431,13.7168Q108.722,14.4258,107.667,14.4258Z" fill="#3D3D3D" fill-opacity="1"/></g></svg>