<svg xmlns="http://www.w3.org/2000/svg" xmlns:xlink="http://www.w3.org/1999/xlink" fill="none" version="1.1" width="1024" height="91" viewBox="0 0 1024 91"><g><g><path d="M354.896,4.52L357.152,2.696L360.8,6.008L358.88,7.88L350.24,7.88L350.24,10.808L354.32,10.808L356.576,8.936L360.272,12.248L358.304,14.168L350.24,14.168L350.24,17.144L355.664,17.144L357.92,15.272L361.616,18.584L359.648,20.504L332.096,20.504L331.28,17.144L342.704,17.144L342.704,14.168L334.64,14.168L333.824,10.808L342.704,10.808L342.704,7.88L332.48,7.88L331.664,4.52L342.704,4.52L342.704,0.776001L350.24,1.736L350.24,4.52L354.896,4.52ZM334.928,21.272L341.936,22.088L341.936,23.288L351.728,23.288L354.704,20.696L360.56,25.064L359.216,26.936L359.216,42.008Q359.216,46.328,354.944,46.328L351.152,46.328Q351.152,43.304,346.256,43.304L346.304,40.328Q348.704,40.232,350.816,40.232Q351.872,40.232,351.872,39.08L351.872,38.216L341.936,38.216L341.936,45.656L334.928,46.568L334.928,21.272ZM351.872,34.76L351.872,32.408L341.936,32.408L341.936,34.76L351.872,34.76ZM351.872,28.952L351.872,26.648L341.936,26.648L341.936,28.952L351.872,28.952ZM320.768,2.216Q326.384,4.712,329.84,7.928L324.992,13.4Q321.776,9.368,317.648,6.104L320.768,2.216ZM321.632,17.768L324.992,14.216L331.184,19.064L328.784,20.984L328.784,35.096Q330.512,34.376,332.24,33.512L333.968,37.112Q329.84,41.432,323.984,45.56L320.432,38.024Q321.296,37.784,322.16,37.496L322.16,25.208L322.064,25.208L322.064,21.8L317.984,21.8L317.024,17.768L321.632,17.768ZM412.688,0.584L416.672,6.632Q410.528,8.024,399.728,8.648Q399.152,9.992,398.528,11.192L410.384,11.192L413.024,8.84L417.344,12.68L415.28,14.696L396.704,14.696Q396.416,15.224,396.128,15.704Q395.648,16.568,395.168,17.336L412.832,17.336L415.424,15.128L419.6,18.92L417.488,20.984L412.16,20.984L417.392,25.064L415.664,27.08L415.664,45.032L407.696,46.04L407.696,43.208L389.024,43.208L389.024,45.08L381.392,46.04L381.392,29.576Q378.896,30.776,376.352,31.592L374.096,27.992Q377.744,25.928,380.72,23.096Q381.92,22.136,382.976,20.984L375.488,20.984L374.576,17.336L385.952,17.336Q386,17.24,386,17.24Q386.768,16.232,387.632,14.696L377.024,14.696L376.16,11.192L389.36,11.192Q389.888,10.136,390.272,9.08Q384.176,9.224,377.072,9.224L376.352,6.008Q398.576,4.184,412.688,0.584ZM389.024,39.944L407.696,39.944L407.696,37.592L389.024,37.592L389.024,39.944ZM389.024,34.328L407.696,34.328L407.696,32.168L389.024,32.168L389.024,34.328ZM389.024,28.904L407.696,28.904L407.696,26.792L389.024,26.792L389.024,28.904ZM390.704,23.144L407.936,23.144L410.288,20.984L392.624,20.984Q391.952,21.848,391.28,22.52Q390.992,22.856,390.704,23.144ZM448.688,1.112L457.136,2.216L457.136,15.272L467.36,15.272L470.096,12.728L474.656,16.76L472.544,18.824L457.136,18.824L457.136,41.192L469.376,41.192L472.16,38.6L476.72,42.68L474.656,44.744L432.752,44.744L431.888,41.192L448.688,41.192L448.688,1.112ZM527.168,8.6L530,6.008L534.56,10.136L532.448,12.248L508.208,12.248L508.208,19.88L520.928,19.88L524.384,17L531.248,22.232L528.896,24.2Q528.896,28.28,528.56,32.744Q528.08,41.432,525.344,43.544Q522.944,45.8,518.576,45.8L514.976,45.8Q514.976,40.472,509.12,40.328L509.504,37.352Q512.576,38.12,518.048,38.12Q519.2,38.12,519.536,37.016Q520.16,36.2,520.544,31.016Q520.928,27.752,520.928,23.48L508.16,23.48Q507.584,37.304,491.84,45.896L489.44,42.968Q500.048,34.616,500.048,21.656L500.048,12.248L490.4,12.248L489.488,8.6L509.168,8.6Q507.344,5.912,505.472,3.992L509.792,0.919998Q514.64,3.944,517.088,6.248L514.352,8.6L527.168,8.6ZM552.128,10.712L552.128,1.688L558.704,2.552L558.704,10.088L560.672,8.168L565.184,12.2L563.024,14.168L558.704,14.168L558.704,22.52Q559.904,22.136,560.864,21.752L562.352,24.824Q560.864,26.12,558.704,27.416L558.704,39.608Q558.704,45.608,553.568,45.608L550.592,45.608Q550.592,41.864,547.712,41.672L547.952,38.12Q549.632,38.6,550.976,38.6Q552.128,38.6,552.128,37.256L552.128,30.92Q550.736,31.592,549.2,32.216L547.04,25.544Q549.2,25.112,552.128,24.392L552.128,14.168L548.48,14.168L547.568,10.712L552.128,10.712ZM568.208,26.552L570.896,24.968L573.584,27.272L573.536,26.936L582.8,26.936L583.952,25.64L578.576,26.12L578.576,22.952L562.4,23.768L561.392,20.312L565.856,20.072L565.856,6.824L562.304,6.824L561.44,3.368L584.384,3.368L587.072,0.919998L591.44,4.808L589.424,6.824L584.432,6.824L584.432,19.16L585.488,19.112L587.744,16.808L592.16,20.408L590.24,22.376L584.432,22.664L584.432,25.112L584.96,24.488L591.44,28.52L588.608,31.16Q587.6,34.76,585.728,37.592Q588.464,39.08,591.584,39.656L588.128,46.136Q584.384,44.312,581.84,42.008Q579.008,44.456,575.36,46.04L573.536,43.16Q576.464,40.808,578.48,38.36Q575.936,34.856,574.976,30.488L574.256,30.488L574.256,30.44L573.776,30.68Q572.624,33.8,571.136,36.2Q573.68,38.024,575.12,39.8L570.464,45.368Q569.168,43.208,567.248,41.096Q564.128,43.976,560.096,45.08L559.088,42.536Q561.872,40.376,563.792,37.592Q561.92,35.816,559.712,34.04L561.488,31.016Q564.128,32.168,566.192,33.224Q566.912,31.64,567.392,30.008L561.584,30.008L560.384,26.552L568.208,26.552ZM571.664,19.784L578.576,19.448L578.576,17.864L571.664,17.864L571.664,19.784ZM578.576,6.824L571.664,6.824L571.664,8.792L578.576,8.792L578.576,6.824ZM571.664,14.264L578.576,14.264L578.576,12.392L571.664,12.392L571.664,14.264ZM578.912,30.488Q579.968,32.648,581.408,34.232Q582.608,32.216,582.992,30.488L578.912,30.488ZM608.768,22.904Q608.096,23.528,607.376,24.008L604.352,21.608Q607.04,17.096,609.056,11.336Q610.928,6.008,611.648,1.208L619.136,3.464Q617.648,8.888,615.776,12.92L615.776,45.176L608.768,45.992L608.768,22.904ZM641.312,17.768L641.312,14.6L638.432,14.6Q638.144,16.232,637.232,17.768L641.312,17.768ZM629.6,17.768Q630.656,16.184,631.28,14.6L627.392,14.6L627.392,17.768L629.6,17.768ZM626.096,11.144L632.528,11.144L634.112,8.408L628.928,8.408Q627.632,9.848,626.096,11.144ZM631.568,5.048L634.208,5.048L637.472,2.84L644,7.016L640.976,8.504L637.52,11.144L640.448,11.144L643.616,8.6L649.616,13.304L647.792,15.224L647.792,21.224L641.312,21.992L641.312,21.176L634.544,21.176Q634.208,21.512,633.872,21.8Q636.32,24.152,637.664,27.08Q638.432,26.456,639.104,25.784Q641.216,23.912,642.416,22.232L648.464,25.496Q644.864,28.424,640.4,30.584Q641.936,31.688,643.28,32.456Q646.4,34.328,650.288,35.48L645.008,42.296Q643.04,40.904,639.536,36.92Q639.296,45.896,632.912,45.896L629.744,45.896Q629.744,42.152,626.192,41.672L626.384,40.184Q622.448,41.672,617.6,42.728L616.592,39.656Q626.768,35.672,632.96,30.728Q632.912,30.392,632.816,30.056Q627.44,33.704,617.792,35.96L616.784,32.888Q625.472,29.528,631.136,25.448Q630.896,24.968,630.656,24.488Q625.904,27.944,618.656,30.248L616.4,28.088Q622.4,25.256,626.048,21.848L620.816,22.52L620.816,14.936Q619.376,15.8,617.888,16.52L615.92,13.88Q622.592,8.84,625.664,0.871998L633.008,2.6Q632.336,3.896,631.568,5.048ZM633.536,36.776Q630.992,38.408,627.536,39.752Q629.216,39.896,632.432,40.088Q633.488,40.088,633.536,36.776ZM672.032,2.36Q677.888,5,681.392,7.64L676.112,13.016Q672.8,8.168,669.056,5.048L672.032,2.36ZM667.376,10.664Q673.088,13.592,676.496,16.568L671.12,22.04Q667.952,16.712,664.448,13.352L667.376,10.664ZM699.632,22.856L702.464,20.312L707.024,24.44L704.912,26.6L687.392,26.6Q687.056,27.272,686.672,27.896Q698.288,31.928,706.832,38.504L701.312,45.224Q694.448,37.976,684.176,31.496Q677.936,39.8,665.888,45.176L663.344,41.528Q673.04,35.336,677.888,28.04Q678.416,27.32,678.896,26.6L663.44,26.6L662.528,22.856L680.768,22.856Q682.736,17.72,682.736,11L682.736,2.12L690.896,3.272L690.896,10.856Q690.896,17.48,689.024,22.856L699.632,22.856Z" fill="#000000" fill-opacity="1"/></g><g><path d="M379.738,77L381.447,69.1113Q381.885,67.10156,382.151,64.9209Q382.418,62.74023,382.418,60.89453Q382.418,60.4707,382.404,60.14258L383.908,59.45898L383.908,59.8418Q383.908,60.74414,383.744,62.75391Q383.58,64.76367,383.402,65.84375Q384.236,63.88867,385.481,62.21387Q386.725,60.53906,388.03,59.56836Q389.336,58.597656,390.402,58.597656Q391.469,58.597656,392.118,59.45215Q392.768,60.30664,392.768,61.74219Q392.768,63.54688,391.988,65.36523Q391.209,67.18359,389.862,68.7148Q388.516,70.2461,386.909,71.1279Q385.303,72.0098,383.731,72.0098Q383.375,72.0098,382.897,71.9141L383.621,70.9434Q384.291,71.1621,384.988,71.1621Q386.123,71.1621,387.265,70.4033Q388.406,69.6445,389.309,68.2637Q390.143,66.99219,390.731,65.09863Q391.318,63.20508,391.318,61.82422Q391.318,60.67578,390.929,60.0332Q390.539,59.39062,389.842,59.39062Q388.857,59.39062,387.572,60.51855Q386.287,61.64648,385.057,63.57422Q384.168,64.94141,383.573,66.52734Q382.979,68.1133,382.514,70.2051L381.037,77L379.738,77ZM398.283,57.736328L394.687,73.5L394.564,74.0332Q394.386,74.7852,394.386,75.3047Q394.386,75.7285,394.544,75.99510000000001Q394.701,76.2617,394.933,76.2617Q395.357,76.2617,396.287,75.25L396.506,75.4414L396.369,75.5918Q395.59,76.5078,395.22,76.8291Q394.851,77.1504,394.537,77.1504Q394.127,77.1504,393.819,76.69239999999999Q393.511,76.2344,393.511,75.6465Q393.511,75.2363,393.689,74.3477L396.847,58.433594L398.283,57.736328ZM404.181,74.8809L404.427,75.0859Q403.579,76.207,402.773,76.70609999999999Q401.966,77.2051,401.036,77.2051Q399.929,77.2051,399.259,76.4668Q398.589,75.7285,398.589,74.5117Q398.589,73.2812,399.239,72.0166Q399.888,70.752,400.865,69.9248Q401.843,69.0977,402.8,69.0977Q403.361,69.0977,403.723,69.4258Q404.085,69.7539,404.085,70.2734Q404.085,71.3262,402.937,72.3789Q401.788,73.4316,399.806,74.1699Q399.792,74.2793,399.792,74.416Q399.792,75.3594,400.312,75.9541Q400.831,76.5488,401.652,76.5488Q402.294,76.5488,402.896,76.1455Q403.497,75.7422,404.181,74.8809ZM399.806,73.8418Q401.282,73.1855,402.075,72.3789Q402.609,71.832,402.937,71.2031Q403.265,70.5742,403.265,70.0684Q403.265,69.4258,402.677,69.4258Q401.788,69.4258,400.879,70.8271Q399.97,72.2285,399.806,73.8418ZM414.481,68.9199L413.196,73.9238Q412.991,74.7441,412.991,75.209Q412.991,75.6191,413.169,75.9199Q413.347,76.2207,413.606,76.2207Q414.003,76.2207,414.919,75.25L415.11,75.4414L414.96,75.6191Q414.235,76.4531,413.846,76.7881Q413.456,77.123,413.169,77.123Q412.731,77.123,412.41,76.66499999999999Q412.089,76.207,412.089,75.6055Q412.089,75.168,412.417,73.623L412.526,73.1035Q412.02,74.2793,411.173,75.3594Q409.751,77.1641,408.452,77.1641Q407.673,77.1641,407.222,76.6035Q406.77,76.043,406.77,75.0996Q406.77,73.8145,407.502,72.4062Q408.233,70.998,409.32,70.0889Q410.407,69.1797,411.432,69.1797Q412.513,69.1797,413.046,69.9727L413.196,69.4531L414.481,68.9199ZM412.909,70.6699Q412.745,70.1504,412.355,69.85640000000001Q411.966,69.5625,411.46,69.5625Q410.858,69.5625,410.188,70.11619999999999Q409.518,70.6699,408.958,71.6543Q408.52,72.4336,408.226,73.377Q407.932,74.3203,407.932,74.9355Q407.932,75.6328,408.199,76.0293Q408.466,76.4258,408.958,76.4258Q409.587,76.4258,410.27,75.8379Q410.954,75.25,411.624,74.1562Q412.034,73.5273,412.266,72.8984Q412.499,72.2695,412.786,71.1484L412.909,70.6699ZM416.524,76.125L417.29,75.2227Q417.891,76.6445,419.204,76.6445Q419.887,76.6445,420.373,76.2002Q420.858,75.7559,420.858,75.168Q420.858,74.7441,420.625,74.4434Q420.393,74.1426,419.518,73.4316Q418.711,72.7754,418.431,72.3994Q418.151,72.0234,418.151,71.5312Q418.151,70.8887,418.527,70.3418Q418.903,69.7949,419.532,69.46000000000001Q420.161,69.125,420.858,69.125Q421.473,69.125,421.89,69.43260000000001Q422.307,69.7402,422.307,70.2188Q422.307,70.8477,421.774,71.0801Q421.692,70.4375,421.289,70.0752Q420.885,69.7129,420.256,69.7129Q419.696,69.7129,419.279,70.0752Q418.862,70.4375,418.862,70.9023Q418.862,71.4766,419.573,72.0371L420.366,72.6797Q421.528,73.5957,421.528,74.5527Q421.528,75.2637,421.124,75.8857Q420.721,76.5078,420.031,76.877Q419.34,77.2461,418.575,77.2461Q417.358,77.2461,416.524,76.125ZM430.229,74.8809L430.475,75.0859Q429.627,76.207,428.82,76.70609999999999Q428.014,77.2051,427.084,77.2051Q425.977,77.2051,425.307,76.4668Q424.637,75.7285,424.637,74.5117Q424.637,73.2812,425.286,72.0166Q425.936,70.752,426.913,69.9248Q427.891,69.0977,428.848,69.0977Q429.408,69.0977,429.771,69.4258Q430.133,69.7539,430.133,70.2734Q430.133,71.3262,428.984,72.3789Q427.836,73.4316,425.854,74.1699Q425.84,74.2793,425.84,74.416Q425.84,75.3594,426.359,75.9541Q426.879,76.5488,427.699,76.5488Q428.342,76.5488,428.943,76.1455Q429.545,75.7422,430.229,74.8809ZM425.854,73.8418Q427.33,73.1855,428.123,72.3789Q428.656,71.832,428.984,71.2031Q429.313,70.5742,429.313,70.0684Q429.313,69.4258,428.725,69.4258Q427.836,69.4258,426.927,70.8271Q426.018,72.2285,425.854,73.8418ZM444.198,57.736328L440.603,73.5L440.48,74.0332Q440.302,74.7852,440.302,75.3047Q440.302,75.7285,440.459,75.99510000000001Q440.616,76.2617,440.849,76.2617Q441.273,76.2617,442.202,75.25L442.421,75.4414L442.284,75.5918Q441.505,76.5078,441.136,76.8291Q440.767,77.1504,440.452,77.1504Q440.042,77.1504,439.735,76.69239999999999Q439.427,76.2344,439.427,75.6465Q439.427,75.2363,439.605,74.3477L442.763,58.433594L444.198,57.736328ZM444.505,74.375Q444.505,73.1445,445.168,71.9209Q445.831,70.6973,446.884,69.9316Q447.936,69.166,449.03,69.166Q450.179,69.166,450.883,69.9248Q451.587,70.6836,451.587,71.8867Q451.587,73.1992,450.937,74.4297Q450.288,75.6602,449.228,76.44630000000001Q448.169,77.2324,447.089,77.2324Q445.927,77.2324,445.216,76.44630000000001Q444.505,75.6602,444.505,74.375ZM450.356,71.3672Q450.356,70.5469,449.953,70.0137Q449.55,69.4805,448.921,69.4805Q448.347,69.4805,447.82,69.8496Q447.294,70.2188,446.856,70.9297Q446.364,71.75,446.043,72.8438Q445.722,73.9375,445.722,74.7852Q445.722,75.7969,446.118,76.3438Q446.515,76.8906,447.253,76.8906Q448.442,76.8906,449.345,75.2363Q449.809,74.3887,450.083,73.3359Q450.356,72.2832,450.356,71.3672ZM454.108,74.375Q454.108,73.1445,454.771,71.9209Q455.434,70.6973,456.487,69.9316Q457.54,69.166,458.633,69.166Q459.782,69.166,460.486,69.9248Q461.19,70.6836,461.19,71.8867Q461.19,73.1992,460.54,74.4297Q459.891,75.6602,458.832,76.44630000000001Q457.772,77.2324,456.692,77.2324Q455.53,77.2324,454.819,76.44630000000001Q454.108,75.6602,454.108,74.375ZM459.959,71.3672Q459.959,70.5469,459.556,70.0137Q459.153,69.4805,458.524,69.4805Q457.95,69.4805,457.423,69.8496Q456.897,70.2188,456.459,70.9297Q455.967,71.75,455.646,72.8438Q455.325,73.9375,455.325,74.7852Q455.325,75.7969,455.721,76.3438Q456.118,76.8906,456.856,76.8906Q458.045,76.8906,458.948,75.2363Q459.413,74.3887,459.686,73.3359Q459.959,72.2832,459.959,71.3672ZM468.797,57.736328L465.078,73.9102Q465.393,73.1719,465.83,72.4883Q466.268,71.8047,466.828,71.1553Q467.389,70.5059,467.908,70.0957Q468.578,69.5625,469.255,69.3027Q469.932,69.043,470.779,69.002L470.533,70.0957Q470.123,70.0137,469.918,70.0137Q468.305,70.0137,466.91,71.6406Q467.471,73.1445,468.1,74.3477Q468.455,75.0449,468.722,75.4619Q468.988,75.8789,469.214,76.0703Q469.44,76.2617,469.658,76.2617Q470.178,76.2617,470.971,75.4277L471.08,75.3047L471.258,75.5098Q469.877,77.1777,469.248,77.1777Q468.824,77.1777,468.455,76.8086Q468.086,76.4395,467.594,75.5371Q466.732,73.9648,466.186,72.5566Q464.9,74.6758,464.545,76.8359L463.656,77.123L467.32,58.433594L468.797,57.736328ZM487.183,68.9199L485.898,73.9238Q485.693,74.7441,485.693,75.209Q485.693,75.6191,485.87,75.9199Q486.048,76.2207,486.308,76.2207Q486.704,76.2207,487.62,75.25L487.812,75.4414L487.661,75.6191Q486.937,76.4531,486.547,76.7881Q486.158,77.123,485.87,77.123Q485.433,77.123,485.112,76.66499999999999Q484.79,76.207,484.79,75.6055Q484.79,75.168,485.118,73.623L485.228,73.1035Q484.722,74.2793,483.874,75.3594Q482.452,77.1641,481.154,77.1641Q480.374,77.1641,479.923,76.6035Q479.472,76.043,479.472,75.0996Q479.472,73.8145,480.203,72.4062Q480.935,70.998,482.022,70.0889Q483.109,69.1797,484.134,69.1797Q485.214,69.1797,485.747,69.9727L485.898,69.4531L487.183,68.9199ZM485.611,70.6699Q485.447,70.1504,485.057,69.85640000000001Q484.667,69.5625,484.161,69.5625Q483.56,69.5625,482.89,70.11619999999999Q482.22,70.6699,481.659,71.6543Q481.222,72.4336,480.928,73.377Q480.634,74.3203,480.634,74.9355Q480.634,75.6328,480.901,76.0293Q481.167,76.4258,481.659,76.4258Q482.288,76.4258,482.972,75.8379Q483.656,75.25,484.325,74.1562Q484.736,73.5273,484.968,72.8984Q485.2,72.2695,485.488,71.1484L485.611,70.6699ZM492.589,69.6992L491.55,74.252Q491.386,75.0039,491.386,75.3184Q491.386,75.8105,491.618,76.1113Q491.85,76.4121,492.233,76.4121Q492.602,76.4121,492.91,76.2002Q493.218,75.9883,493.847,75.3184L494.011,75.1543L494.216,75.3594Q493.409,76.3438,492.869,76.7471Q492.329,77.1504,491.809,77.1504Q491.153,77.1504,490.764,76.7197Q490.374,76.2891,490.374,75.5918Q490.374,75.0723,490.579,74.0879L491.468,69.6992L490.155,69.6992L490.251,69.2344L491.563,69.2344L492.329,65.54297L493.641,65.02344L492.684,69.2344L494.899,69.2344L494.804,69.6992L492.589,69.6992ZM505.26,69.6992L504.221,74.252Q504.057,75.0039,504.057,75.3184Q504.057,75.8105,504.289,76.1113Q504.522,76.4121,504.904,76.4121Q505.273,76.4121,505.581,76.2002Q505.889,75.9883,506.518,75.3184L506.682,75.1543L506.887,75.3594Q506.08,76.3438,505.54,76.7471Q505,77.1504,504.481,77.1504Q503.824,77.1504,503.435,76.7197Q503.045,76.2891,503.045,75.5918Q503.045,75.0723,503.25,74.0879L504.139,69.6992L502.826,69.6992L502.922,69.2344L504.234,69.2344L505,65.54297L506.313,65.02344L505.356,69.2344L507.57,69.2344L507.475,69.6992L505.26,69.6992ZM509.011,77.1367L512.648,58.433594L514.084,57.736328L510.297,74.3887Q510.351,74.293,510.351,74.2656L510.666,73.5547Q511.472,71.7227,512.689,70.3828Q513.838,69.1387,514.808,69.1387Q515.328,69.1387,515.642,69.4736Q515.957,69.8086,515.957,70.3691Q515.957,70.6836,515.806,71.2578L515.67,71.832L515.246,73.5L515.123,74.0332Q514.918,74.8535,514.918,75.291Q514.918,75.7285,515.068,75.99510000000001Q515.218,76.2617,515.465,76.2617Q515.888,76.2617,516.818,75.25L517.023,75.4414L516.9,75.5918Q516.121,76.5078,515.745,76.8291Q515.369,77.1504,515.068,77.1504Q514.644,77.1504,514.343,76.6992Q514.043,76.248,514.043,75.6465Q514.043,75.2773,514.22,74.3477L514.74,71.4492Q514.863,70.8066,514.863,70.4922Q514.863,70.2051,514.713,70.0547Q514.562,69.9043,514.302,69.9043Q513.797,69.9043,513.14,70.499Q512.484,71.0938,511.821,72.1465Q511.158,73.1992,510.666,74.3955Q510.174,75.5918,509.927,76.8496L509.011,77.1367ZM524.781,74.8809L525.027,75.0859Q524.179,76.207,523.372,76.70609999999999Q522.566,77.2051,521.636,77.2051Q520.529,77.2051,519.859,76.4668Q519.189,75.7285,519.189,74.5117Q519.189,73.2812,519.838,72.0166Q520.488,70.752,521.465,69.9248Q522.443,69.0977,523.4,69.0977Q523.96,69.0977,524.323,69.4258Q524.685,69.7539,524.685,70.2734Q524.685,71.3262,523.536,72.3789Q522.388,73.4316,520.406,74.1699Q520.392,74.2793,520.392,74.416Q520.392,75.3594,520.911,75.9541Q521.431,76.5488,522.251,76.5488Q522.894,76.5488,523.495,76.1455Q524.097,75.7422,524.781,74.8809ZM520.406,73.8418Q521.882,73.1855,522.675,72.3789Q523.208,71.832,523.536,71.2031Q523.865,70.5742,523.865,70.0684Q523.865,69.4258,523.277,69.4258Q522.388,69.4258,521.479,70.8271Q520.57,72.2285,520.406,73.8418ZM539.366,74.9492Q538.532,76.125,537.746,76.66499999999999Q536.959,77.2051,536.002,77.2051Q534.95,77.2051,534.287,76.4668Q533.623,75.7285,533.623,74.5527Q533.623,73.3223,534.266,72.0508Q534.909,70.7793,535.914,69.9453Q536.918,69.1113,537.848,69.1113Q538.477,69.1113,538.86,69.46000000000001Q539.243,69.8086,539.243,70.3965Q539.243,70.9297,538.839,71.41499999999999Q538.436,71.9004,537.971,71.9004Q537.766,71.9004,537.602,71.7363Q538.491,71.3398,538.491,70.2598Q538.491,69.877,538.292,69.66499999999999Q538.094,69.4531,537.766,69.4531Q537.26,69.4531,536.747,69.8633Q536.235,70.2734,535.784,71.00489999999999Q535.332,71.7363,535.08,72.5635Q534.827,73.3906,534.827,74.2383Q534.827,75.25,535.305,75.8789Q535.784,76.5078,536.563,76.5078Q537.233,76.5078,537.862,76.084Q538.491,75.6602,539.174,74.7852L539.366,74.9492ZM549.42,68.9199L548.135,73.9238Q547.93,74.7441,547.93,75.209Q547.93,75.6191,548.107,75.9199Q548.285,76.2207,548.545,76.2207Q548.941,76.2207,549.857,75.25L550.049,75.4414L549.898,75.6191Q549.174,76.4531,548.784,76.7881Q548.395,77.123,548.107,77.123Q547.67,77.123,547.349,76.66499999999999Q547.027,76.207,547.027,75.6055Q547.027,75.168,547.356,73.623L547.465,73.1035Q546.959,74.2793,546.111,75.3594Q544.69,77.1641,543.391,77.1641Q542.611,77.1641,542.16,76.6035Q541.709,76.043,541.709,75.0996Q541.709,73.8145,542.44,72.4062Q543.172,70.998,544.259,70.0889Q545.346,69.1797,546.371,69.1797Q547.451,69.1797,547.984,69.9727L548.135,69.4531L549.42,68.9199ZM547.848,70.6699Q547.684,70.1504,547.294,69.85640000000001Q546.904,69.5625,546.398,69.5625Q545.797,69.5625,545.127,70.11619999999999Q544.457,70.6699,543.897,71.6543Q543.459,72.4336,543.165,73.377Q542.871,74.3203,542.871,74.9355Q542.871,75.6328,543.138,76.0293Q543.404,76.4258,543.897,76.4258Q544.525,76.4258,545.209,75.8379Q545.893,75.25,546.563,74.1562Q546.973,73.5273,547.205,72.8984Q547.438,72.2695,547.725,71.1484L547.848,70.6699ZM557.724,76.8496L556.822,77.1367L557.902,71.5723Q557.902,71.5723,557.998,71.0938Q558.08,70.6973,558.08,70.4375Q558.08,69.8359,557.601,69.8359Q557.15,69.8359,556.507,70.4443Q555.865,71.0527,555.154,72.2012Q554.689,72.9395,554.354,73.623Q554.019,74.3066,553.739,75.0791Q553.459,75.8516,553.199,76.8496L552.351,77.1367L553.759,69.5625L555.072,69.002L553.882,73.9648Q554.798,71.8457,555.981,70.4854Q557.164,69.125,558.107,69.125Q559.132,69.125,559.132,70.2871Q559.132,70.6836,558.927,71.6953L558.476,73.7324Q559.802,71.1895,560.718,70.14359999999999Q561.634,69.0977,562.537,69.0977Q563.043,69.0977,563.33,69.3984Q563.617,69.6992,563.617,70.2598Q563.617,70.7109,563.343,71.8184L562.92,73.5L562.783,74.0332Q562.591,74.8809,562.591,75.291Q562.591,75.7285,562.742,75.99510000000001Q562.892,76.2617,563.125,76.2617Q563.562,76.2617,564.492,75.25L564.697,75.4414L564.574,75.5918Q563.795,76.5078,563.419,76.8291Q563.043,77.1504,562.728,77.1504Q562.304,77.1504,562.01,76.7197Q561.716,76.2891,561.716,75.6465Q561.716,75.25,561.894,74.3477L562.4,71.5176L562.482,71.0254Q562.564,70.6152,562.564,70.3691Q562.564,70.123,562.414,69.9727Q562.263,69.8223,562.004,69.8223Q561.703,69.8223,561.34,70.0752Q560.978,70.3281,560.568,70.8477Q560.158,71.3672,559.652,72.2148Q558.968,73.377,558.545,74.3818Q558.121,75.3867,557.724,76.8496ZM572.454,74.8809L572.7,75.0859Q571.853,76.207,571.046,76.70609999999999Q570.24,77.2051,569.31,77.2051Q568.202,77.2051,567.532,76.4668Q566.863,75.7285,566.863,74.5117Q566.863,73.2812,567.512,72.0166Q568.161,70.752,569.139,69.9248Q570.116,69.0977,571.073,69.0977Q571.634,69.0977,571.996,69.4258Q572.359,69.7539,572.359,70.2734Q572.359,71.3262,571.21,72.3789Q570.062,73.4316,568.079,74.1699Q568.066,74.2793,568.066,74.416Q568.066,75.3594,568.585,75.9541Q569.105,76.5488,569.925,76.5488Q570.568,76.5488,571.169,76.1455Q571.771,75.7422,572.454,74.8809ZM568.079,73.8418Q569.556,73.1855,570.349,72.3789Q570.882,71.832,571.21,71.2031Q571.538,70.5742,571.538,70.0684Q571.538,69.4258,570.95,69.4258Q570.062,69.4258,569.153,70.8271Q568.243,72.2285,568.079,73.8418ZM575.044,73.1172Q576.22,71.6953,576.616,70.4648Q575.509,69.8496,575.509,68.7012Q575.509,68.1543,575.768,67.8125Q576.028,67.4707,576.425,67.4707Q576.835,67.4707,577.095,67.84667999999999Q577.354,68.2227,577.354,68.8242Q577.354,69.248,577.204,69.7676Q577.573,69.8633,577.874,69.8633Q578.721,69.8633,579.268,69.3711L579.925,69.3711L579.829,69.5625Q578.845,71.3672,578.209,73.1104Q577.573,74.8535,577.573,75.7148Q577.573,76.0293,577.737,76.24119999999999Q577.901,76.4531,578.134,76.4531Q578.694,76.4531,579.938,75.2637L580.157,75.5098Q579.774,75.9336,578.968,76.5625Q578.243,77.1367,577.614,77.1367Q577.081,77.1367,576.773,76.7812Q576.466,76.4258,576.466,75.8105Q576.466,74.7852,577.259,73.2129Q577.546,72.625,577.997,71.873Q578.448,71.1211,579.132,70.082L579.268,69.8906Q578.817,70.3008,578.4,70.4717Q577.983,70.6426,577.45,70.6426Q577.204,70.6426,576.93,70.5742Q576.493,71.9141,575.29,73.3359L575.044,73.1172ZM576.917,69.6445Q576.971,69.3027,576.971,69.0703Q576.971,68.5918,576.814,68.3184Q576.657,68.0449,576.411,68.0449Q576.274,68.0449,576.172,68.1748Q576.069,68.3047,576.069,68.4961Q576.069,69.1387,576.917,69.6445ZM590.211,68.9199L588.926,73.9238Q588.721,74.7441,588.721,75.209Q588.721,75.6191,588.899,75.9199Q589.077,76.2207,589.336,76.2207Q589.733,76.2207,590.649,75.25L590.84,75.4414L590.69,75.6191Q589.965,76.4531,589.576,76.7881Q589.186,77.123,588.899,77.123Q588.461,77.123,588.14,76.66499999999999Q587.819,76.207,587.819,75.6055Q587.819,75.168,588.147,73.623L588.256,73.1035Q587.75,74.2793,586.903,75.3594Q585.481,77.1641,584.182,77.1641Q583.403,77.1641,582.952,76.6035Q582.5,76.043,582.5,75.0996Q582.5,73.8145,583.232,72.4062Q583.963,70.998,585.05,70.0889Q586.137,69.1797,587.163,69.1797Q588.243,69.1797,588.776,69.9727L588.926,69.4531L590.211,68.9199ZM588.639,70.6699Q588.475,70.1504,588.085,69.85640000000001Q587.696,69.5625,587.19,69.5625Q586.588,69.5625,585.918,70.11619999999999Q585.248,70.6699,584.688,71.6543Q584.25,72.4336,583.956,73.377Q583.663,74.3203,583.663,74.9355Q583.663,75.6328,583.929,76.0293Q584.196,76.4258,584.688,76.4258Q585.317,76.4258,586,75.8379Q586.684,75.25,587.354,74.1562Q587.764,73.5273,587.997,72.8984Q588.229,72.2695,588.516,71.1484L588.639,70.6699ZM606.97,68.9199L605.685,73.9238Q605.48,74.7441,605.48,75.209Q605.48,75.6191,605.658,75.9199Q605.836,76.2207,606.095,76.2207Q606.492,76.2207,607.408,75.25L607.599,75.4414L607.449,75.6191Q606.724,76.4531,606.335,76.7881Q605.945,77.123,605.658,77.123Q605.22,77.123,604.899,76.66499999999999Q604.578,76.207,604.578,75.6055Q604.578,75.168,604.906,73.623L605.015,73.1035Q604.509,74.2793,603.662,75.3594Q602.24,77.1641,600.941,77.1641Q600.162,77.1641,599.711,76.6035Q599.259,76.043,599.259,75.0996Q599.259,73.8145,599.991,72.4062Q600.722,70.998,601.809,70.0889Q602.896,69.1797,603.922,69.1797Q605.002,69.1797,605.535,69.9727L605.685,69.4531L606.97,68.9199ZM605.398,70.6699Q605.234,70.1504,604.844,69.85640000000001Q604.455,69.5625,603.949,69.5625Q603.347,69.5625,602.677,70.11619999999999Q602.007,70.6699,601.447,71.6543Q601.009,72.4336,600.715,73.377Q600.422,74.3203,600.422,74.9355Q600.422,75.6328,600.688,76.0293Q600.955,76.4258,601.447,76.4258Q602.076,76.4258,602.759,75.8379Q603.443,75.25,604.113,74.1562Q604.523,73.5273,604.755,72.8984Q604.988,72.2695,605.275,71.1484L605.398,70.6699ZM613.374,58.433594L614.823,57.736328L610.886,74.5938Q613.347,69.0977,615.712,69.0977Q616.191,69.0977,616.567,69.3506Q616.943,69.6035,617.154,70.0957Q617.366,70.5879,617.366,71.1348Q617.366,72.1738,616.874,73.4385Q616.382,74.7031,615.63,75.6055Q614.29,77.2324,612.677,77.2324Q612.171,77.2324,611.706,77.0615Q611.241,76.8906,610.667,76.4941L609.71,77.0684L613.374,58.433594ZM610.886,75.6055Q611.501,76.8906,612.65,76.8906Q613.47,76.8906,614.174,76.1797Q614.878,75.4688,615.425,74.1152Q615.739,73.3496,615.945,72.4541Q616.15,71.5586,616.15,71.0254Q616.15,69.7402,615.247,69.7402Q614.646,69.7402,613.88,70.4785Q613.114,71.2168,612.342,72.5361Q611.57,73.8555,610.886,75.6055ZM619.888,74.375Q619.888,73.1445,620.551,71.9209Q621.214,70.6973,622.266,69.9316Q623.319,69.166,624.413,69.166Q625.561,69.166,626.265,69.9248Q626.97,70.6836,626.97,71.8867Q626.97,73.1992,626.32,74.4297Q625.671,75.6602,624.611,76.44630000000001Q623.552,77.2324,622.471,77.2324Q621.309,77.2324,620.598,76.44630000000001Q619.888,75.6602,619.888,74.375ZM625.739,71.3672Q625.739,70.5469,625.336,70.0137Q624.932,69.4805,624.304,69.4805Q623.729,69.4805,623.203,69.8496Q622.677,70.2188,622.239,70.9297Q621.747,71.75,621.426,72.8438Q621.104,73.9375,621.104,74.7852Q621.104,75.7969,621.501,76.3438Q621.897,76.8906,622.636,76.8906Q623.825,76.8906,624.727,75.2363Q625.192,74.3887,625.466,73.3359Q625.739,72.2832,625.739,71.3672ZM629.86,69.5625L631.09,69.002L631.09,69.3574Q631.131,71.3535,631.323,73.5547Q631.432,74.7031,631.514,75.2568Q631.596,75.8105,631.705,76.002Q631.815,76.1934,632.006,76.1934Q632.512,76.1934,633.811,74.2656Q634.973,72.5703,634.973,71.1348Q634.973,70.6289,634.85,70.29390000000001Q634.727,69.959,634.385,69.6172L635.411,68.6602Q635.889,69.2891,635.889,70.1914Q635.889,72.0098,633.729,74.9902Q633.073,75.8926,632.334,76.6035Q631.993,76.918,631.781,77.0479Q631.569,77.1777,631.364,77.1777Q631.036,77.1777,630.885,76.918Q630.735,76.6582,630.653,75.9336L629.86,69.5625ZM643.633,74.8809L643.879,75.0859Q643.031,76.207,642.225,76.70609999999999Q641.418,77.2051,640.488,77.2051Q639.381,77.2051,638.711,76.4668Q638.041,75.7285,638.041,74.5117Q638.041,73.2812,638.69,72.0166Q639.34,70.752,640.317,69.9248Q641.295,69.0977,642.252,69.0977Q642.812,69.0977,643.175,69.4258Q643.537,69.7539,643.537,70.2734Q643.537,71.3262,642.389,72.3789Q641.24,73.4316,639.258,74.1699Q639.244,74.2793,639.244,74.416Q639.244,75.3594,639.764,75.9541Q640.283,76.5488,641.104,76.5488Q641.746,76.5488,642.348,76.1455Q642.949,75.7422,643.633,74.8809ZM639.258,73.8418Q640.734,73.1855,641.527,72.3789Q642.061,71.832,642.389,71.2031Q642.717,70.5742,642.717,70.0684Q642.717,69.4258,642.129,69.4258Q641.24,69.4258,640.331,70.8271Q639.422,72.2285,639.258,73.8418Z" fill="#000000" fill-opacity="1"/></g></g></svg>