<svg xmlns="http://www.w3.org/2000/svg" xmlns:xlink="http://www.w3.org/1999/xlink" fill="none" version="1.1" width="726" height="43" viewBox="0 0 726 43"><g><path d="M152,21.6035Q151.789,22.0957,150.857,22.3242L150.857,37.9512Q150.822,38.127,150.172,38.4521Q149.521,38.7773,148.563,39.041Q147.605,39.3047,146.568,39.3047L145.566,39.3047L145.566,25.998Q143.07,27.9316,140.047,29.4082L139.766,29.0918Q142.42,26.7188,144.476,23.7656Q146.533,20.8125,148.045,17.5605Q148.941,15.6973,149.662,13.8164L140.908,13.8164L140.627,12.8145L150.031,12.8145Q150.312,11.9883,150.594,11.1621Q151.613,7.96289,152.141,5.11523L159.418,6.94336Q159.348,7.27734,159.058,7.48828Q158.767,7.69922,158.047,7.76953Q157.15,10.2305,155.885,12.8145L165.605,12.8145L168.523,9.10547L169.068,9.50977Q169.578,9.93164,170.404,10.5645Q171.23,11.1973,172.127,11.918Q173.023,12.6387,173.779,13.2539Q173.639,13.8164,172.742,13.8164L155.392,13.8164Q153.881,16.8047,151.754,19.6172Q151.209,20.373,150.594,21.0938L152,21.6035ZM164.92,15.9082Q164.885,16.2773,164.656,16.5059Q164.428,16.7344,163.777,16.8398L163.777,23.9062L164.744,23.9062L167.31,20.6719L167.767,21.0234Q168.242,21.3926,168.963,21.9463Q169.684,22.5,170.475,23.1328Q171.266,23.7656,171.916,24.3281Q171.881,24.627,171.591,24.7676Q171.301,24.9082,170.896,24.9082L163.777,24.9082L163.777,35.9648L166.361,35.9648L169.139,32.4668L169.648,32.8359Q170.141,33.2227,170.914,33.8379Q171.687,34.4531,172.558,35.1211Q173.428,35.7891,174.148,36.4043Q174.008,36.9668,173.059,36.9668L151.42,36.9668L151.139,35.9648L158.486,35.9648L158.486,24.9082L152.334,24.9082L152.035,23.9062L158.486,23.9062L158.486,15.3633L164.92,15.9082ZM194.766,8.2793L197.034,5.83594L200.883,9.28125Q200.672,9.54492,200.294,9.73828Q199.916,9.93164,199.266,10.0371Q199.266,16.1367,199.249,20.4697Q199.231,24.8027,199.161,27.7559Q199.09,30.709,198.915,32.5986Q198.739,34.4883,198.414,35.5869Q198.088,36.6855,197.543,37.3711Q196.682,38.4434,195.496,38.9355Q194.309,39.4277,192.973,39.4277Q192.973,38.2676,192.868,37.5293Q192.762,36.791,192.463,36.3516Q192.112,35.8594,191.514,35.5166Q190.916,35.1738,189.985,34.9277L190.02,34.5234Q189.985,34.5586,189.95,34.5938Q188.157,37.3008,185.01,39.4629L184.624,39.1641Q186.452,36.7207,187.533,34.0576Q188.614,31.3945,189.159,28.582Q189.37,27.5449,189.51,26.4902L188.579,26.4902L188.262,25.4883L189.616,25.4883Q189.809,24.2578,189.879,23.0449Q190.02,20.373,190.02,17.8242L188.473,17.8242L188.157,16.8047L190.02,16.8047L190.02,9.28125L188.104,9.28125L187.788,8.2793L194.766,8.2793ZM206.034,8.24414L208.196,6.08203L212.415,9.86133Q212.01,10.3711,210.868,10.4062Q210.499,11.2676,209.998,12.4014Q209.497,13.5352,208.934,14.7393Q208.372,15.9434,207.783,17.1123Q207.194,18.2812,206.579,19.2305Q208.301,20.5137,209.382,22.1221Q210.463,23.7305,210.956,25.4004Q211.448,27.0703,211.448,28.582Q211.448,31.4297,210.349,32.9414Q209.25,34.4531,206.403,34.5234Q206.403,33.6973,206.297,32.5811Q206.192,31.4648,205.963,31.0254Q205.788,30.709,205.506,30.4629Q205.313,30.3398,205.067,30.2344L205.067,38.0215Q205.067,38.2676,204.17,38.8037Q203.274,39.3398,201.692,39.3398L200.936,39.3398L200.936,6.66211L205.102,8.24414L206.034,8.24414ZM182.18,32.4668Q182.18,32.8008,181.222,33.3193Q180.264,33.8379,178.963,33.8379L178.348,33.8379L178.348,7.62891L182.321,9.31641L183.499,9.31641L185.344,7.27734L189.159,10.2656Q188.719,10.7578,187.647,10.9863L187.647,30.2695Q187.647,30.4277,187.12,30.7441Q186.592,31.0605,185.88,31.3154Q185.168,31.5703,184.483,31.5703L183.868,31.5703L183.868,28.4062L182.18,28.4062L182.18,32.4668ZM205.067,29.6719L206.297,29.6719Q206.684,29.6719,206.86,29.4785Q207.124,29.2324,207.264,28.7666Q207.405,28.3008,207.405,27.4043Q207.405,25.3828,207.027,23.2559Q206.649,21.1289,205.682,19.3359Q205.823,18.2812,205.946,16.8223Q206.069,15.3633,206.183,13.7812Q206.297,12.1992,206.368,10.7227Q206.403,9.93164,206.438,9.24609L205.067,9.24609L205.067,29.6719ZM183.868,27.4043L183.868,10.3359L182.18,10.3359L182.18,27.4043L183.868,27.4043ZM193.219,26.4902Q192.973,27.7559,192.604,28.9863Q191.778,31.8164,190.09,34.418Q190.776,34.4531,191.602,34.4883Q192.463,34.5586,192.973,34.5586Q193.36,34.5586,193.632,34.4531Q193.905,34.3477,194.116,34.084Q194.555,33.5918,194.792,32.0273Q195.03,30.4629,195.135,27.4395Q195.135,27,195.135,26.4902L193.219,26.4902ZM193.975,17.8242Q193.975,20.3379,193.729,23.1504Q193.624,24.293,193.448,25.4883L195.17,25.4883Q195.206,23.0449,195.206,19.7227L195.206,17.8242L193.975,17.8242ZM195.206,16.8047L195.206,9.28125L193.975,9.28125L193.975,16.8047L195.206,16.8047ZM214.997,36.791L229.077,36.791L229.077,30.1641L218.39,30.1641L218.108,29.1621L229.077,29.1621L229.077,23.5723L224.226,23.5723L224.226,24.9082Q224.226,25.1719,223.558,25.6025Q222.89,26.0332,221.844,26.3584Q220.798,26.6836,219.655,26.6836L218.864,26.6836L218.864,6.08203L224.542,8.2793L239.167,8.2793L241.54,5.66016L246.321,9.35156Q246.181,9.58008,245.838,9.79102Q245.495,10.002,244.915,10.1074L244.915,24.1172Q244.915,24.2578,244.159,24.5654Q243.403,24.873,242.384,25.1279Q241.364,25.3828,240.415,25.3828L239.519,25.3828L239.519,23.5723L234.632,23.5723L234.632,29.1621L238.552,29.1621L241.312,25.6289L241.856,25.998Q242.366,26.3848,243.157,27Q243.948,27.6152,244.81,28.3008Q245.671,28.9863,246.392,29.584Q246.321,29.8828,246.031,30.0234Q245.741,30.1641,245.355,30.1641L234.632,30.1641L234.632,36.791L240.819,36.791L243.772,33.0117L244.3,33.416Q244.845,33.8379,245.689,34.4883Q246.532,35.1387,247.438,35.8594Q248.343,36.5801,249.099,37.2305Q248.958,37.793,248.009,37.793L215.296,37.793L214.997,36.791ZM239.519,16.3477L234.632,16.3477L234.632,22.5703L239.519,22.5703L239.519,16.3477ZM229.077,22.5703L229.077,16.3477L224.226,16.3477L224.226,22.5703L229.077,22.5703ZM234.632,9.28125L234.632,15.3281L239.519,15.3281L239.519,9.28125L234.632,9.28125ZM229.077,15.3281L229.077,9.28125L224.226,9.28125L224.226,15.3281L229.077,15.3281ZM270.402,5.50195L276.888,6.15234Q276.853,6.52148,276.598,6.80273Q276.343,7.08398,275.623,7.20703Q275.517,11.3379,275.658,15.1172Q275.658,15.416,275.693,15.6973L279.595,15.2227L281.283,12.2344Q280.949,12.1289,280.597,11.9531Q280.351,11.0566,279.771,10.1514Q279.191,9.24609,278.488,8.45508Q277.785,7.66406,277.099,7.13672L277.363,6.9082Q279.912,6.66211,281.459,7.0752Q283.005,7.48828,283.709,8.24414Q284.412,9,284.447,9.86133Q284.482,10.7227,283.972,11.373Q283.515,11.9883,282.724,12.2344Q283.041,12.4629,283.48,12.709Q284.236,13.2188,285.062,13.7725Q285.888,14.3262,286.574,14.8359Q286.539,15.1172,286.284,15.3018Q286.029,15.4863,285.642,15.5215L275.728,16.6992Q275.957,19.582,276.449,22.1836Q276.677,23.3965,277.029,24.5566Q278.752,21.0938,280.052,16.6992L286.134,19.1074Q285.994,19.4766,285.651,19.6172Q285.308,19.7578,284.587,19.7227Q282.32,24.9082,279.437,28.5117Q279.191,28.793,278.98,29.0566Q280.228,30.9902,282.144,32.3965Q282.548,32.7656,282.812,32.748Q283.076,32.7305,283.375,32.291Q283.832,31.5352,284.57,30.1641Q285.308,28.793,285.853,27.5801L286.205,27.6855L285.343,33.9785Q286.398,35.7188,286.591,36.7383Q286.785,37.7578,286.293,38.3027Q285.607,39.0586,284.702,39.2256Q283.796,39.3926,282.83,39.1377Q281.863,38.8828,280.958,38.3994Q280.052,37.916,279.367,37.3711Q276.853,35.3496,275.201,32.8008Q274.076,33.6973,272.863,34.4883Q269.154,36.8965,264.39,38.4785L264.179,38.0215Q267.923,35.8242,270.912,32.9414Q272.353,31.5352,273.654,29.8828Q272.423,27.1758,271.773,24.0117Q271.087,20.8477,270.806,17.2793L264.9,18L264.461,17.0332L270.736,16.2773Q270.701,15.8027,270.666,15.2578Q270.402,10.6172,270.402,5.50195ZM252.367,13.5L257.095,13.5L257.095,5.2207L263.423,5.80078Q263.388,6.1875,263.098,6.45996Q262.808,6.73242,262.123,6.83789L262.123,13.0605L264.004,9.9668L264.39,10.3711Q264.795,10.7578,265.366,11.373Q265.937,11.9883,266.57,12.6738Q267.203,13.3594,267.677,13.9395Q267.572,14.502,266.693,14.502L262.123,14.502L262.123,20.2676Q262.457,20.1973,262.808,20.127Q265.111,19.6523,267.414,19.1602L267.484,19.4766Q265.656,20.8125,262.597,22.7461Q262.351,22.9043,262.123,23.0449L262.123,33.7676Q262.123,35.4551,261.727,36.6416Q261.332,37.8281,260.057,38.5137Q258.783,39.1992,256.111,39.4629Q256.076,38.2324,255.918,37.3535Q255.759,36.4746,255.355,35.8945Q255.004,35.3145,254.388,34.9189Q253.773,34.5234,252.507,34.2773L252.507,33.8027L253.017,33.8379Q253.492,33.873,254.195,33.8906Q254.898,33.9082,255.522,33.9434Q256.146,33.9785,256.41,33.9785Q256.796,33.9785,256.946,33.8555Q257.095,33.7324,257.095,33.4512L257.095,25.9629Q256.111,26.4902,255.074,27.0703Q254.793,27.8613,253.984,28.1074L252.191,22.1836Q253.123,22.0254,254.74,21.7441Q255.795,21.5684,257.095,21.3047L257.095,14.502L252.666,14.502L252.367,13.5ZM302.885,10.8281Q302.779,11.2324,302.305,11.4785Q302.059,11.584,301.725,11.6367Q300.723,12.6387,299.352,13.6406Q297.699,14.9062,295.924,15.9434Q295.098,16.4531,294.307,16.8398Q294.887,16.8398,295.572,16.8047Q297.84,16.7344,300.723,16.5938Q302.481,16.5234,304.291,16.418Q303.957,15.5215,303.535,14.6602Q302.885,13.3945,302.059,12.4277L302.375,12.1992Q305.188,12.8496,306.787,13.9131Q308.387,14.9766,309.02,16.1631Q309.652,17.3496,309.521,18.4131Q309.389,19.4766,308.73,20.1797Q308.07,20.8828,307.095,20.918Q306.119,20.9531,305.047,20.0566Q305.012,18.791,304.643,17.4902Q303.201,18.0703,301.338,18.791Q299.897,19.3359,298.315,19.8633L303.307,20.2676Q303.272,20.6367,303.061,20.8652Q302.85,21.0938,302.164,21.1992L302.164,25.207L302.955,25.207L305.293,21.8145L305.733,22.1836Q306.154,22.5703,306.822,23.168Q307.49,23.7656,308.194,24.4072Q308.897,25.0488,309.477,25.6289Q309.319,26.209,308.457,26.209L302.164,26.209L302.164,31.2188Q302.92,31.0957,303.746,30.9902Q306.735,30.6387,309.793,30.1992L309.863,30.6035Q307.455,31.9395,303.491,33.6797Q299.527,35.4199,293.551,37.6875Q293.164,38.4082,292.444,38.584L290.07,32.5371Q291.319,32.4316,293.41,32.2207Q295.063,32.0449,297.119,31.8164L297.119,26.209L290.861,26.209L290.563,25.207L297.119,25.207L297.119,20.3027Q295.608,20.8125,293.955,21.3047Q293.551,21.9551,293.024,22.1836L290.756,16.6992L291.248,16.5586Q291.758,16.4531,292.004,16.3125Q292.619,15.9082,293.305,15.082Q293.99,14.2559,294.623,13.21Q295.256,12.1641,295.713,11.1621Q296.117,10.3008,296.328,9.61523L290.633,9.61523L290.352,8.5957L303.236,8.5957L305.645,5.25586L306.119,5.60742Q306.559,6.01172,307.236,6.5918Q307.912,7.17188,308.651,7.81348Q309.389,8.45508,310.004,9.03516Q309.863,9.61523,308.967,9.61523L297.365,9.61523L302.885,10.8281ZM323.873,6.11719Q323.838,6.52148,323.548,6.78516Q323.258,7.04883,322.572,7.17188L322.572,33.873Q322.572,35.5254,322.159,36.7207Q321.746,37.916,320.41,38.5928Q319.074,39.2695,316.35,39.5332Q316.244,38.3379,316.042,37.4766Q315.84,36.6152,315.374,36.0352Q314.908,35.4551,314.17,35.042Q313.432,34.6289,311.955,34.3828L311.955,33.9082L312.606,33.9434Q313.203,33.9785,314.091,34.0312Q314.979,34.084,315.77,34.1279Q316.561,34.1719,316.877,34.1719Q317.317,34.1719,317.475,34.0049Q317.633,33.8379,317.633,33.5215L317.633,5.53711L323.873,6.11719ZM316.455,8.68359Q316.42,9.03516,316.148,9.30762Q315.875,9.58008,315.154,9.68555L315.154,29.9531Q315.154,30.1289,314.566,30.4365Q313.977,30.7441,313.107,30.9814Q312.236,31.2188,311.34,31.2188L310.479,31.2188L310.479,8.13867L316.455,8.68359ZM327.212,16.9277L335.034,16.9277L335.034,11.7773Q334.05,11.8828,333.048,11.9883Q330.094,12.3398,327.247,12.498L327.176,12.1289Q329.55,11.3027,332.09,10.1338Q334.63,8.96484,336.88,7.72559Q339.13,6.48633,340.571,5.43164L345.282,9.54492Q345.247,7.73438,345.247,5.90625L351.663,6.52148Q351.628,6.87305,351.373,7.16309Q351.118,7.45312,350.397,7.55859Q350.327,11.373,350.503,14.9766Q350.538,15.9434,350.643,16.9277L354.212,16.9277L356.62,14.0449Q356.444,14.0449,356.233,14.0449Q355.266,14.0801,354.212,13.2539Q354.212,12.1641,353.886,11.1006Q353.561,10.0371,353.078,9.05273Q352.594,8.06836,351.979,7.34766L352.278,7.17188Q354.897,7.48828,356.374,8.2793Q357.85,9.07031,358.395,10.0459Q358.94,11.0215,358.756,11.9355Q358.571,12.8496,357.885,13.4297Q357.499,13.7812,356.989,13.9395L357.27,14.1504Q357.745,14.502,358.483,15.0469Q359.221,15.5918,360.03,16.1982Q360.839,16.8047,361.524,17.3496Q361.384,17.9297,360.522,17.9297L350.766,17.9297Q350.977,19.916,351.364,21.7793Q351.628,23.1152,352.014,24.293Q353.526,21.4277,354.387,18.6504L360.417,21.3926Q360.259,21.6738,359.933,21.832Q359.608,21.9902,358.975,21.9199Q357.305,25.084,354.757,28.1953Q354.475,28.5469,354.141,28.8633Q355.372,30.6738,357.094,32.0449Q357.499,32.3965,357.762,32.3789Q358.026,32.3613,358.29,31.9395Q358.782,31.2188,359.503,29.8828Q360.223,28.5469,360.803,27.3164L361.12,27.4395L360.259,33.6621Q361.313,35.4199,361.489,36.4658Q361.665,37.5117,361.173,38.0566Q360.487,38.7773,359.564,38.9004Q358.641,39.0234,357.657,38.751Q356.673,38.4785,355.785,37.96Q354.897,37.4414,354.247,36.8965Q351.944,34.9277,350.362,32.502Q349.466,33.2227,348.534,33.873Q344.895,36.4746,339.991,38.0566L339.745,37.6523Q343.63,35.3496,346.548,32.1855Q347.708,30.8848,348.71,29.5488Q347.409,26.7539,346.723,23.5723Q346.108,20.8828,345.792,17.9297L340.132,17.9297L340.132,22.7461Q340.184,22.7461,340.255,22.7109Q343.085,22.3594,346.003,21.9199L346.038,22.3242Q343.77,23.5723,340.132,25.2422L340.132,33.293Q340.132,34.9629,339.683,36.2725Q339.235,37.582,337.873,38.373Q336.51,39.1641,333.733,39.3926Q333.698,38.127,333.478,37.2041Q333.259,36.2812,332.793,35.71Q332.327,35.1387,331.589,34.708Q330.85,34.2773,329.268,34.0137L329.268,33.5918L329.919,33.627Q330.534,33.6621,331.43,33.7148Q332.327,33.7676,333.135,33.8027Q333.944,33.8379,334.278,33.8379Q334.7,33.8379,334.867,33.6445Q335.034,33.4512,335.034,33.1172L335.034,27.4395Q332.907,28.3008,330.464,29.2676Q330.305,29.6367,330.007,29.8652Q329.708,30.0938,329.374,30.1641L327.176,24.293Q328.372,24.1875,330.332,23.9766Q332.292,23.7656,334.841,23.4316Q334.928,23.4316,335.034,23.3965L335.034,17.9297L327.51,17.9297L327.212,16.9277ZM340.132,10.916L340.132,16.9277L345.686,16.9277Q345.616,16.0488,345.546,15.1523Q345.387,12.8496,345.317,10.4062Q345.141,10.4414,344.966,10.4414Q344.315,10.4766,343.348,10.1602Q341.942,10.5469,340.132,10.916ZM370.769,36.2812Q370.769,36.5449,370.233,36.9404Q369.697,37.3359,368.8,37.6436Q367.904,37.9512,366.849,37.9512L366.093,37.9512L366.093,10.4414L370.628,12.3047Q370.699,11.6367,370.769,10.7578Q370.857,9.43945,370.945,7.99805Q371.033,6.55664,371.068,5.39648L378.011,7.04883Q377.765,7.96289,376.464,7.96289Q375.849,8.68359,375.005,9.61523Q374.161,10.5469,373.335,11.4434Q372.861,11.9883,372.474,12.4277L374.847,12.4277L377.079,9.93164L381.509,13.4297Q381.316,13.6758,380.964,13.8779Q380.613,14.0801,380.068,14.2207L380.068,20.2324Q380.859,18.4746,381.65,16.207Q382.476,13.6758,383.179,10.8721Q383.882,8.06836,384.269,5.32617L390.966,7.27734Q390.861,7.62891,390.5,7.83105Q390.14,8.0332,389.525,8.0332Q388.593,10.3008,387.486,12.2695L391.986,12.2695L394.675,9.54492L399.034,13.4297Q398.824,13.6758,398.446,13.8779Q398.068,14.0801,397.417,14.1855Q397.312,19.8281,397.162,23.8623Q397.013,27.8965,396.714,30.5947Q396.415,33.293,395.906,34.9014Q395.396,36.5098,394.605,37.3359Q393.568,38.373,392.214,38.8564Q390.861,39.3398,388.857,39.3398Q388.857,38.0918,388.672,37.1865Q388.488,36.2812,387.978,35.7539Q387.486,35.1387,386.492,34.6729Q385.499,34.207,384.093,33.9082L384.128,33.4863Q384.99,33.5566,386,33.627Q387.011,33.6973,387.89,33.7324Q388.769,33.7676,389.243,33.7676Q389.718,33.7676,390.017,33.6621Q390.316,33.5566,390.579,33.293Q391.265,32.6953,391.608,30.1729Q391.95,27.6504,392.126,23.1855Q392.302,19.0723,392.408,13.2891L386.87,13.2891Q386.22,14.3965,385.499,15.416Q383.161,18.6504,380.279,20.8828L380.068,20.7422L380.068,35.3145Q380.068,35.4551,379.4,35.7803Q378.732,36.1055,377.8,36.3779Q376.868,36.6504,375.99,36.6504L375.199,36.6504L375.199,33.8027L370.769,33.8027L370.769,36.2812ZM375.199,32.8008L375.199,23.3613L370.769,23.3613L370.769,32.8008L375.199,32.8008ZM375.199,22.3594L375.199,13.4297L370.769,13.4297L370.769,22.3594L375.199,22.3594ZM382.652,19.582Q385.499,20.2324,387.081,21.3135Q388.663,22.3945,389.243,23.5811Q389.824,24.7676,389.621,25.8135Q389.419,26.8594,388.681,27.5098Q387.943,28.1602,386.906,28.1602Q385.868,28.1602,384.743,27.1758Q384.708,25.8926,384.383,24.5566Q384.058,23.2207,383.539,21.999Q383.021,20.7773,382.37,19.7578L382.652,19.582ZM425.453,5.80078Q425.383,6.22266,425.057,6.47754Q424.732,6.73242,424.135,6.80273Q424.064,11.3027,424.012,15.293Q423.976,15.4512,423.976,15.5918L429.092,15.5918L431.623,12.2695L432.08,12.6387Q432.555,12.9902,433.258,13.5703Q433.961,14.1504,434.734,14.8008Q435.508,15.4512,436.158,16.0137Q436,16.5938,435.103,16.5938L428.406,16.5938L428.406,32.8359Q428.406,33.2578,428.573,33.4248Q428.74,33.5918,429.232,33.5918L432.08,33.5918Q432.344,33.5566,432.537,33.46Q432.73,33.3633,432.871,33.082Q433.099,32.7305,433.363,31.9922Q433.627,31.2539,433.952,30.2607Q434.277,29.2676,434.611,28.1953L434.963,28.1953L435.103,33.3633Q435.965,33.7676,436.237,34.251Q436.51,34.7344,436.51,35.4551Q436.51,36.4043,435.938,37.0459Q435.367,37.6875,433.978,38.0127Q432.59,38.3379,430.181,38.3379L427.756,38.3379Q425.998,38.3379,425.084,37.9775Q424.17,37.6172,423.845,36.7207Q423.519,35.8242,423.519,34.2422L423.519,22.3945Q423.484,22.6055,423.484,22.7812Q422.974,26.3145,421.753,29.3555Q420.531,32.3965,418.211,34.9365Q415.89,37.4766,412.076,39.5684L411.707,39.0938Q414.08,36.5449,415.486,33.7148Q416.892,30.8848,417.596,27.7207Q418.299,24.5566,418.51,21.0234Q418.65,18.8965,418.685,16.5938L413.465,16.5938L413.183,15.5918L418.685,15.5918Q418.721,14.5723,418.721,13.5352Q418.685,9.61523,418.685,5.18555L425.453,5.80078ZM415.82,7.34766Q415.662,7.69922,415.319,7.90137Q414.976,8.10352,414.344,8.06836Q412.902,11.7422,411.056,14.7305Q410.951,14.9062,410.881,15.0469L413.078,15.873Q412.973,16.1367,412.718,16.3125Q412.463,16.4883,411.918,16.5938L411.918,38.0215Q411.918,38.1621,411.311,38.5049Q410.705,38.8477,409.8,39.1201Q408.894,39.3926,407.928,39.3926L406.996,39.3926L406.996,20.127Q404.799,22.4297,402.162,24.2227L401.775,23.9414Q403.287,21.6738,404.746,18.6504Q406.205,15.627,407.374,12.1729Q408.543,8.71875,409.228,5.18555L415.82,7.34766ZM425.101,6.66211Q427.685,6.97852,429.127,7.75195Q430.568,8.52539,431.078,9.46582Q431.588,10.4062,431.368,11.2676Q431.148,12.1289,430.445,12.6914Q429.742,13.2539,428.775,13.2539Q427.808,13.2539,426.754,12.4277Q426.683,11.4082,426.393,10.4062Q426.103,9.4043,425.69,8.48145Q425.277,7.55859,424.82,6.83789L425.101,6.66211ZM440.551,24.6621Q442.414,24.6973,445.28,24.75Q448.145,24.8027,451.784,24.8027Q452.891,24.8379,454.051,24.8379L454.051,22.0605L449.288,22.0605L449.288,22.2891Q449.288,22.5,448.646,22.8604Q448.004,23.2207,447.011,23.5107Q446.018,23.8008,444.963,23.8008L444.26,23.8008L444.26,10.9863L449.621,12.9902L454.051,12.9902L454.051,10.3359L440.182,10.3359L439.901,9.31641L454.051,9.31641L454.051,5.11523L460.485,5.66016Q460.45,6.04688,460.177,6.31934Q459.905,6.5918,459.149,6.69727L459.149,9.31641L466.76,9.31641L469.239,6.25781L469.696,6.5918Q470.135,6.94336,470.856,7.4707Q471.577,7.99805,472.35,8.60449Q473.123,9.21094,473.774,9.75586Q473.633,10.3359,472.737,10.3359L459.149,10.3359L459.149,12.9902L463.227,12.9902L465.459,10.5469L470.135,14.0449Q469.995,14.2559,469.634,14.4756Q469.274,14.6953,468.694,14.8359L468.694,22.0957Q468.694,22.2188,467.973,22.4648Q467.252,22.7109,466.286,22.9395Q465.881,23.0098,465.53,23.0801Q466.936,23.2207,468.043,23.4668Q470.381,24.0469,471.533,24.8203Q472.684,25.5938,472.904,26.4375Q473.123,27.2812,472.658,27.9844Q472.192,28.6875,471.348,29.0654Q470.504,29.4434,469.511,29.3203Q468.518,29.1973,467.727,28.3359Q467.077,27.2109,465.846,25.9277Q464.264,26.1738,462.436,26.4199Q459.008,26.9297,454.543,27.4746Q454.508,27.4746,454.473,27.4746Q456.881,27.7207,458.217,28.4062Q459.553,29.0918,460.054,29.9707Q460.555,30.8496,460.414,31.6758Q460.274,32.502,459.641,33.0469Q459.008,33.5918,458.112,33.6094Q457.215,33.627,456.248,32.9062Q456.196,31.9746,455.879,30.999Q455.563,30.0234,455.106,29.1621Q454.649,28.3008,454.121,27.6504L454.368,27.5098Q449.938,28.002,444.172,28.6875Q443.75,29.3379,443.1,29.4434L440.551,24.6621ZM454.262,28.9863Q454.157,29.707,453.102,29.918L453.102,33.5918Q453.102,33.9082,453.322,34.04Q453.541,34.1719,454.368,34.1719L460.168,34.1719Q460.995,34.1719,461.452,34.1367Q461.891,34.084,462.128,33.9961Q462.366,33.9082,462.612,33.6621Q463.016,33.2227,463.499,32.3262Q463.983,31.4297,464.668,29.918L464.985,29.918L465.09,33.7324Q466.215,34.084,466.576,34.5586Q466.936,35.0332,466.936,35.6836Q466.936,36.4746,466.505,36.9756Q466.075,37.4766,465.046,37.749Q464.018,38.0215,462.251,38.127Q460.485,38.2324,457.83,38.2324L453.436,38.2324Q451.204,38.2324,449.999,37.9248Q448.795,37.6172,448.338,36.7734Q447.881,35.9297,447.881,34.3828L447.881,28.5469L454.262,28.9863ZM464.844,28.7578Q467.973,29.127,469.845,30.0586Q471.717,30.9902,472.543,32.1592Q473.37,33.3281,473.37,34.4619Q473.37,35.5957,472.781,36.3955Q472.192,37.1953,471.181,37.3359Q470.17,37.4766,468.993,36.6855Q468.729,35.2793,468.061,33.8555Q467.393,32.4316,466.496,31.1748Q465.6,29.918,464.563,28.9863L464.844,28.7578ZM444.717,28.8281Q445.807,31.0957,445.842,32.8975Q445.877,34.6992,445.227,35.9033Q444.577,37.1074,443.539,37.582Q442.414,38.0918,441.246,37.626Q440.077,37.1602,439.707,35.8945Q439.461,34.6289,440.094,33.8027Q440.727,32.9766,441.764,32.5371Q442.379,32.2559,442.977,31.7197Q443.575,31.1836,443.97,30.4453Q444.366,29.707,444.295,28.8633L444.717,28.8281ZM449.288,17.9648L449.288,21.0586L454.051,21.0586L454.051,17.9648L449.288,17.9648ZM454.051,14.0098L449.288,14.0098L449.288,16.9629L454.051,16.9629L454.051,14.0098ZM463.579,21.0586L463.579,17.9648L459.149,17.9648L459.149,21.0586L463.579,21.0586ZM463.579,16.9629L463.579,14.0098L459.149,14.0098L459.149,16.9629L463.579,16.9629ZM461.786,22.8164Q462.717,22.8516,463.579,22.9043L463.579,22.0605L459.149,22.0605L459.149,24.8379Q459.377,24.8379,459.623,24.8379Q462.067,24.873,464.633,24.873Q463.403,23.9766,461.645,23.2207L461.786,22.8164ZM505.888,9.03516Q505.747,9.28125,505.369,9.44824Q504.991,9.61523,504.376,9.54492Q503.145,10.7578,501.493,12.2695Q500.333,13.3242,499.155,14.1855L502.935,14.1855L505.237,10.7578L505.677,11.127Q506.099,11.5137,506.749,12.1113Q507.399,12.709,508.12,13.377Q508.841,14.0449,509.368,14.6074Q509.263,15.1875,508.401,15.1875L493.319,15.1875Q492.282,17.5957,490.735,19.8281L504.112,19.8281L506.644,16.1719L507.101,16.5586Q507.575,16.9629,508.278,17.6045Q508.981,18.2461,509.755,18.9492Q510.528,19.6523,511.144,20.2676Q511.003,20.8477,510.089,20.8477L500.561,20.8477Q501.019,21.2344,501.704,21.6035Q503.181,22.3945,505.633,23.001Q508.085,23.6074,511.495,23.9766L511.495,24.4512Q509.808,24.8379,508.929,25.7607Q508.05,26.6836,507.979,28.7227Q505.853,28.0371,504.27,26.9648Q504.042,27.0352,503.761,27.0703Q503.585,30.4629,503.242,32.7305Q502.899,34.998,502.319,36.3252Q501.739,37.6523,500.772,38.3379Q499.876,38.9531,498.689,39.2607Q497.503,39.5684,495.692,39.5684Q495.692,38.4785,495.552,37.6172Q495.411,36.7559,494.901,36.2109Q494.444,35.6484,493.557,35.209Q492.669,34.7695,491.456,34.5234L491.456,34.1719Q492.212,34.207,493.144,34.2598Q494.075,34.3125,494.884,34.3477Q495.692,34.3828,496.061,34.3828Q496.817,34.3828,497.134,34.084Q497.714,33.627,498.065,31.3594Q498.399,29.4082,498.575,26.209L494.356,26.209Q493.601,29.2676,491.913,31.6758Q489.944,34.5234,486.561,36.4482Q483.177,38.373,478.272,39.4277L478.132,39.0234Q481.577,37.4414,483.792,35.3672Q486.007,33.293,487.202,30.7441Q488.169,28.6172,488.573,26.209L484.179,26.209Q481.155,28.1953,476.972,29.4785L476.726,29.127Q480.364,27.0352,482.843,24.2578Q484.284,22.6406,485.444,20.8477L477.552,20.8477L477.27,19.8281L486.042,19.8281Q486.446,19.1074,486.833,18.3164Q487.554,16.8047,488.134,15.1875L479.38,15.1875L479.099,14.1855L488.503,14.1855Q488.89,12.9551,489.188,11.7422Q490.015,8.31445,490.366,4.85156L497.31,6.36328Q497.239,6.69727,496.958,6.89062Q496.677,7.08398,495.956,7.17188Q495.147,10.582,493.864,13.9395Q493.829,14.0801,493.759,14.1855L497.819,14.1855Q498.188,13.2188,498.575,12.0234Q499.05,10.5469,499.516,9.01758Q499.981,7.48828,500.263,6.1875L505.888,9.03516ZM498.259,25.207L500.597,23.0449Q499.911,21.8496,499.507,20.8477L490.015,20.8477Q488.204,23.2207,485.62,25.207L498.259,25.207ZM481.05,6.29297Q483.845,6.66211,485.4,7.48828Q486.956,8.31445,487.492,9.34277Q488.028,10.3711,487.791,11.3203Q487.554,12.2695,486.798,12.8672Q486.042,13.4648,484.987,13.4473Q483.933,13.4297,482.808,12.5332Q482.772,11.4082,482.482,10.3271Q482.192,9.24609,481.762,8.26172Q481.331,7.27734,480.786,6.48633L481.05,6.29297ZM539.759,7.41797L541.552,5.15039L546.052,8.49023Q545.876,8.71875,545.499,8.91211Q545.121,9.10547,544.576,9.21094Q544.505,10.5117,544.365,12.2432Q544.224,13.9746,544.066,15.8818Q543.908,17.7891,543.714,19.6523Q543.539,21.0938,543.398,22.3945L545.121,20.707L549.164,24.082Q548.759,24.5918,547.687,24.7324Q547.423,30.6387,546.755,33.8027Q546.087,36.9668,544.699,38.0918Q543.785,38.7773,542.616,39.1201Q541.447,39.4629,539.654,39.4629Q539.689,38.4785,539.504,37.6875Q539.32,36.8965,538.828,36.4395Q538.318,35.9297,537.29,35.5166Q536.261,35.1035,535.013,34.8398L535.013,34.418Q535.91,34.4531,536.973,34.5234Q538.037,34.5938,538.951,34.6465Q539.865,34.6992,540.269,34.6992Q540.726,34.6992,540.981,34.6113Q541.236,34.5234,541.482,34.3477Q542.167,33.7676,542.572,30.8145Q542.923,28.1953,543.152,23.9766L534.82,23.9766L533.238,26.0332L528.931,23.6602Q529.318,23.2559,529.933,22.8516Q529.968,22.8164,530.039,22.7812Q530.179,21.8848,530.32,20.707Q530.548,18.9316,530.742,16.9717Q530.935,15.0117,531.049,13.2979Q531.164,11.584,531.164,10.5469L537.052,11.584Q536.982,11.9531,536.666,12.2344Q536.332,12.498,535.734,12.498Q535.699,13.2539,535.628,14.2207Q535.47,15.8027,535.294,17.6045Q535.119,19.4062,534.943,21.0938Q534.82,22.1484,534.714,22.9746L538.757,22.9746Q539.003,21.2695,539.179,19.4062Q539.408,17.2441,539.583,15.0469Q539.759,12.8496,539.9,10.8633Q540.005,9.54492,540.076,8.41992L529.001,8.41992Q529.617,8.92969,530.109,9.4043Q529.968,9.9668,529.107,9.9668L523.921,9.9668Q523.06,15.1172,521.074,19.5469L521.97,19.916L523.552,19.916L525.574,17.7539L529.652,20.8828Q529.318,21.3398,528.351,21.5684L528.351,34.8047Q528.351,34.9629,527.736,35.2266Q527.121,35.4902,526.277,35.7275Q525.433,35.9648,524.677,35.9648L523.921,35.9648L523.921,33.873L521.513,33.873L521.513,36.4746Q521.513,36.6855,520.573,37.2041Q519.632,37.7227,517.98,37.7227L517.224,37.7227L517.224,26.2441Q516.029,27.8965,514.64,29.4082L514.166,29.127Q515.396,26.3848,516.328,22.9482Q517.259,19.5117,517.91,15.873Q518.455,12.8145,518.806,9.9668L514.64,9.9668L514.341,8.96484L523.517,8.96484L525.873,5.97656L526.628,6.52148Q527.332,7.08398,528.351,7.89258Q528.632,8.13867,528.966,8.38477L528.632,7.41797L539.759,7.41797ZM521.513,20.918L521.513,32.8711L523.921,32.8711L523.921,20.918L521.513,20.918ZM538.792,25.4531L539.443,26.0332Q540.076,26.6484,540.928,27.457Q541.781,28.2656,542.431,28.9863Q542.273,29.5488,541.447,29.5488L528.703,29.5488L528.421,28.5469L536.736,28.5469L538.792,25.4531ZM557.512,27.7559Q557.371,26.8945,557.239,25.8838Q557.108,24.873,557.108,24.0117Q557.108,23.0801,557.327,22.2891Q557.547,21.498,558.118,20.6631Q558.69,19.8281,559.744,18.8613Q560.641,18.0352,561.124,17.2969Q561.608,16.5586,561.792,15.8027Q561.977,15.0469,561.977,14.2207Q561.977,11.9883,561.036,10.7666Q560.096,9.54492,558.373,9.54492Q557.863,9.54492,557.512,9.58008Q557.178,11.6367,556.897,12.8848Q556.492,14.3965,556.062,15.1172Q555.631,15.8379,555.077,16.04Q554.524,16.2422,553.768,16.2422Q552.977,16.2422,552.379,15.9521Q551.781,15.6621,551.395,14.8711Q551.465,11.8828,553.715,10.0635Q555.965,8.24414,559.744,8.24414Q562.469,8.24414,564.253,9Q566.037,9.75586,566.925,11.1621Q567.813,12.5684,567.813,14.5107Q567.813,16.4531,566.635,18Q565.457,19.5469,562.803,21.2344Q561.432,22.1484,560.623,22.7549Q559.815,23.3613,559.454,24.0117Q559.094,24.6621,559.024,25.6992L558.883,27.7559L557.512,27.7559ZM558.162,36.5098Q556.861,36.5098,556,35.6396Q555.139,34.7695,555.139,33.5566Q555.139,32.291,556,31.4121Q556.861,30.5332,558.153,30.5332Q559.445,30.5332,560.333,31.4121Q561.221,32.291,561.221,33.5566Q561.221,34.7695,560.333,35.6396Q559.445,36.5098,558.162,36.5098Z" fill="#000000" fill-opacity="1"/></g></svg>