<svg xmlns="http://www.w3.org/2000/svg" xmlns:xlink="http://www.w3.org/1999/xlink" fill="none" version="1.1" width="1024" height="91" viewBox="0 0 1024 91"><g><g><path d="M354.896,4.52L357.152,2.696L360.8,6.008L358.88,7.88L350.24,7.88L350.24,10.808L354.32,10.808L356.576,8.936L360.272,12.248L358.304,14.168L350.24,14.168L350.24,17.144L355.664,17.144L357.92,15.272L361.616,18.584L359.648,20.504L332.096,20.504L331.28,17.144L342.704,17.144L342.704,14.168L334.64,14.168L333.824,10.808L342.704,10.808L342.704,7.88L332.48,7.88L331.664,4.52L342.704,4.52L342.704,0.776001L350.24,1.736L350.24,4.52L354.896,4.52ZM334.928,21.272L341.936,22.088L341.936,23.288L351.728,23.288L354.704,20.696L360.56,25.064L359.216,26.936L359.216,42.008Q359.216,46.328,354.944,46.328L351.152,46.328Q351.152,43.304,346.256,43.304L346.304,40.328Q348.704,40.232,350.816,40.232Q351.872,40.232,351.872,39.08L351.872,38.216L341.936,38.216L341.936,45.656L334.928,46.568L334.928,21.272ZM351.872,34.76L351.872,32.408L341.936,32.408L341.936,34.76L351.872,34.76ZM351.872,28.952L351.872,26.648L341.936,26.648L341.936,28.952L351.872,28.952ZM320.768,2.216Q326.384,4.712,329.84,7.928L324.992,13.4Q321.776,9.368,317.648,6.104L320.768,2.216ZM321.632,17.768L324.992,14.216L331.184,19.064L328.784,20.984L328.784,35.096Q330.512,34.376,332.24,33.512L333.968,37.112Q329.84,41.432,323.984,45.56L320.432,38.024Q321.296,37.784,322.16,37.496L322.16,25.208L322.064,25.208L322.064,21.8L317.984,21.8L317.024,17.768L321.632,17.768ZM400.976,0.871998L408.32,2.696Q407.792,3.608,407.264,4.424Q409.328,5.96,411.632,7.16Q414.896,9.032,419.312,10.28L415.28,16.232Q413.648,15.128,412.16,13.928L411.632,14.504L397.664,14.504L397.472,13.832Q395.696,14.888,393.824,15.656L397.904,16.088L397.904,17.528L399.248,17.528L401.696,15.176L406.16,18.632L406.16,17.72L410.72,18.248L410.72,36.68L406.16,37.256L406.16,19.64L405.104,20.648L405.104,41.624Q405.104,45.656,400.736,45.656L399.392,45.656Q399.392,43.16,397.904,42.392L397.904,45.704L392.72,46.376L392.72,30.44Q390.656,31.784,388.544,32.984L388.544,45.128L382.4,45.896L382.4,36.296Q380.048,37.448,377.6,38.552L374.432,31.928Q378.416,31.16,382.4,30.056L382.4,25.112L380,25.112L380,25.16L374.192,25.16Q375.44,18.152,376.592,12.248L375.008,12.248L374.144,8.696L377.264,8.696Q377.984,5,378.608,1.832L384.512,2.792L383.312,8.696L386.432,8.696L389.168,6.2L393.632,10.184L391.616,12.248L382.592,12.248L380.72,21.56L382.4,21.56L382.4,14.504L388.544,15.224L388.544,21.032L390.416,19.4L392.72,21.416L392.72,16.04Q392.144,16.28,391.616,16.424L390.176,13.976Q393.68,11.672,396.944,7.544Q399.392,4.52,400.976,0.871998ZM388.544,28.136Q390.176,27.608,391.808,26.984L392.72,28.856L392.72,25.016L392.624,25.112L388.544,25.112L388.544,28.136ZM397.904,39.56L398.48,39.656Q400.064,39.656,400.064,38.84L400.064,34.952L397.904,34.952L397.904,39.56ZM400.064,31.544L400.064,27.752L397.904,27.752L397.904,31.544L400.064,31.544ZM400.064,24.248L400.064,20.936L397.904,20.936L397.904,24.248L400.064,24.248ZM401.408,11L407.408,11L408.176,10.328Q406.592,8.744,405.296,7.112Q403.472,9.368,401.408,11ZM411.968,15.8L417.2,16.52L417.2,40.136Q417.2,45.944,413.072,45.944L410.672,45.944Q410.672,41.912,406.688,41.72L406.88,38.888Q409.232,39.128,411.056,39.128Q411.968,39.128,411.968,37.832L411.968,15.8ZM451.904,4.088L454.88,1.112L461.072,5.672L457.712,8.504Q459.584,19.832,467.024,28.808Q471.296,33.56,477.392,37.496L472.352,45.992Q460.688,36.44,456.08,25.448Q455.072,22.808,454.352,20.216Q448.544,35.144,435.2,45.752L432.656,43.448Q445.664,27.464,449.744,7.736L439.136,7.736L438.32,4.088L451.904,4.088ZM493.808,23.624Q492.944,24.248,492.128,24.776L489.536,22.712Q492.704,17.96,495.056,11.912Q497.264,6.296,498.128,1.208L506.048,3.608Q503.984,10.088,501.248,14.84L501.248,45.128L493.808,45.992L493.808,23.624ZM526.832,13.496L529.664,10.952L534.224,15.08L532.112,17.24L518.864,17.24Q518.768,18.776,518.624,20.216L524.288,21.032L524.288,38.12Q524.288,38.984,525.2,38.984L526.976,38.984Q527.888,38.984,527.984,37.832L528.752,30.392L532.016,30.872Q531.92,32.168,531.92,33.08Q531.92,38.984,534.272,41Q532.832,45.08,528.992,45.08L522.272,45.08Q517.664,45.08,517.376,40.328L517.376,26.84Q516.512,30.056,515.168,32.648Q511.424,40.568,503.936,45.656L501.824,42.68Q506.672,36.872,509.12,30.104Q511.184,25.064,511.52,17.24L503.792,17.24L502.832,13.496L511.568,13.496L511.568,1.448L518.96,2.504L518.96,13.496L526.832,13.496ZM523.28,1.88Q527.216,3.944,530.576,7.208L526.112,11.624Q523.328,7.544,520.256,4.952L523.28,1.88ZM584.048,4.232L586.784,1.832L591.296,5.864L589.136,7.976L584,7.976L589.424,12.152L587.12,14.216L587.12,23.816L585.152,24.056Q587.6,26.504,589.424,29.288L582.656,31.88Q582.224,30.584,581.648,29.384Q577.76,30.104,571.424,30.68Q570.752,30.776,570.08,30.824Q572.48,32.024,576.896,35.144L571.664,39.176Q569.072,35.144,566,32.696L568.256,30.968Q560.864,31.544,549.488,31.544L548.72,26.168Q558.032,26.168,565.04,25.976L565.04,23.432L558.176,23.432L558.176,24.824L550.784,25.736L550.784,8.072L558.176,8.936L558.176,10.088L565.04,10.088L565.04,7.976L548.576,7.976L547.664,4.232L565.04,4.232L565.04,1.448L572.816,2.456L572.816,4.232L584.048,4.232ZM572.816,7.976L572.816,10.088L579.776,10.088L582.224,7.976L572.816,7.976ZM572.816,23.432L572.816,25.64Q576.224,25.448,578.768,25.208Q578.192,24.488,577.616,23.912L578.864,23.432L572.816,23.432ZM558.176,19.928L565.04,19.928L565.04,18.296L558.176,18.296L558.176,19.928ZM572.816,18.296L572.816,19.928L579.872,19.928L579.872,18.296L572.816,18.296ZM558.176,15.032L565.04,15.032L565.04,13.496L558.176,13.496L558.176,15.032ZM572.816,13.496L572.816,15.032L579.872,15.032L579.872,13.496L572.816,13.496ZM557.552,31.64L564.8,32.552L564.8,38.216Q564.8,39.416,566.048,39.416L576.032,39.416Q576.992,39.416,577.28,38.6L578.48,33.224L582.032,33.848Q581.648,35.288,581.648,36.488Q581.648,40.04,584.048,41.576Q582.704,45.272,579.2,45.272L562.4,45.272Q557.744,45.272,557.552,40.808L557.552,31.64ZM551.936,32.264L556.16,33.512Q555.728,38.84,553.472,45.176L546.512,41.432Q550.064,37.208,551.936,32.264ZM587.168,31.496Q590.144,36.728,591.968,42.968L584.96,44.6Q584.432,37.496,582.368,32.888L587.168,31.496ZM634.832,27.368L636.704,25.544Q635.072,23.432,634.112,21.128L623.888,21.128Q621.248,24.776,617.84,27.368L634.832,27.368ZM639.872,21.128Q644.288,23.96,649.616,25.448L646.112,32.744Q644.288,31.832,642.8,30.872L642.608,31.064Q642.512,41.288,641.072,43.448Q639.968,45.512,635.12,45.512L631.472,45.512Q631.472,41.816,626.144,41.816L626.336,38.936Q629.024,39.224,631.328,39.224Q633.824,39.224,634.016,38.408Q635.216,36.92,635.216,30.68L626.864,30.68Q622.928,43.208,608.672,45.896L606.704,42.728Q611.984,40.76,614.912,37.256Q616.784,35,618.272,30.68L612.176,30.68Q609.776,31.736,607.232,32.408L605.216,29.096Q611.36,26.024,615.296,21.128L606.368,21.128L605.504,17.72L617.696,17.72Q618.608,16.136,619.376,14.264L607.424,14.264L606.56,10.808L613.28,10.808Q611.792,7.4,609.92,4.808L613.472,2.456Q617.36,5.24,620,8.408L616.544,10.808L620.672,10.808Q622.016,6.728,623.168,1.304L631.28,2.648Q630.416,7.064,629.12,10.808L630.896,10.808Q632.384,8.936,633.824,6.44Q635.264,4.136,636.08,2.024L643.424,5.96Q640.832,8.648,637.712,10.808L640.784,10.808L643.52,8.264L647.984,12.248L646.016,14.264L627.776,14.264Q626.96,16.088,626.048,17.72L642.08,17.72L644.912,15.032L649.472,19.16L647.552,21.128L639.872,21.128ZM675.152,4.808L677.744,2.216L682.352,6.296L680.144,8.264L674.144,8.264Q673.376,13.352,671.744,17.72L674.048,17.72L676.064,15.56L681.632,19.592L680,21.32L680,41.96L674.336,42.584L674.336,39.56L671.408,39.56L671.408,43.112L665.84,43.784L665.84,28.424Q665.024,29.432,664.16,30.392L661.808,28.328Q665.984,19.256,667.424,8.264L663.344,8.264L662.432,4.808L675.152,4.808ZM671.408,35.96L674.336,35.96L674.336,21.176L671.408,21.176L671.408,35.96ZM692.96,31.4L695.312,29.336L698.384,32.072Q698.576,29.48,698.576,26.648L681.68,26.648Q683.408,16.184,684.848,8.696L691.088,9.752L688.832,23.288L693.152,23.288L695.84,7.352L683.6,7.352L682.736,3.8L696.032,3.8L698.72,1.448L704.96,6.008L702.608,8.264L700.4,21.704L701.504,20.84L707.36,25.544L705.296,27.272Q705.104,32.6,704.816,35.816Q704.528,39.608,704.192,40.28Q703.76,43.4,701.216,44.504Q699.968,45.416,694.448,45.416L694.592,43.976Q694.352,40.904,689.12,40.664L689.408,37.496Q693.632,38.648,696.08,38.648Q697.184,38.648,697.52,37.88Q697.856,36.728,698.096,34.52Q698.096,34.376,698.144,34.28L697.424,35L681.776,35L680.816,31.4L692.96,31.4Z" fill="#000000" fill-opacity="1"/></g><g><path d="M397.359,77L399.068,69.1113Q399.505,67.10156,399.772,64.9209Q400.038,62.74023,400.038,60.89453Q400.038,60.4707,400.025,60.14258L401.529,59.45898L401.529,59.8418Q401.529,60.74414,401.364,62.75391Q401.2,64.76367,401.023,65.84375Q401.857,63.88867,403.101,62.21387Q404.345,60.53906,405.651,59.56836Q406.956,58.597656,408.023,58.597656Q409.089,58.597656,409.738,59.45215Q410.388,60.30664,410.388,61.74219Q410.388,63.54688,409.609,65.36523Q408.829,67.18359,407.483,68.7148Q406.136,70.2461,404.53,71.1279Q402.923,72.0098,401.351,72.0098Q400.995,72.0098,400.517,71.9141L401.241,70.9434Q401.911,71.1621,402.609,71.1621Q403.743,71.1621,404.885,70.4033Q406.027,69.6445,406.929,68.2637Q407.763,66.99219,408.351,65.09863Q408.939,63.20508,408.939,61.82422Q408.939,60.67578,408.549,60.0332Q408.159,59.39062,407.462,59.39062Q406.478,59.39062,405.193,60.51855Q403.907,61.64648,402.677,63.57422Q401.788,64.94141,401.194,66.52734Q400.599,68.1133,400.134,70.2051L398.657,77L397.359,77ZM415.903,57.736328L412.307,73.5L412.184,74.0332Q412.007,74.7852,412.007,75.3047Q412.007,75.7285,412.164,75.99510000000001Q412.321,76.2617,412.554,76.2617Q412.977,76.2617,413.907,75.25L414.126,75.4414L413.989,75.5918Q413.21,76.5078,412.841,76.8291Q412.471,77.1504,412.157,77.1504Q411.747,77.1504,411.439,76.69239999999999Q411.132,76.2344,411.132,75.6465Q411.132,75.2363,411.309,74.3477L414.468,58.433594L415.903,57.736328ZM421.801,74.8809L422.047,75.0859Q421.2,76.207,420.393,76.70609999999999Q419.586,77.2051,418.657,77.2051Q417.549,77.2051,416.879,76.4668Q416.209,75.7285,416.209,74.5117Q416.209,73.2812,416.859,72.0166Q417.508,70.752,418.486,69.9248Q419.463,69.0977,420.42,69.0977Q420.981,69.0977,421.343,69.4258Q421.705,69.7539,421.705,70.2734Q421.705,71.3262,420.557,72.3789Q419.409,73.4316,417.426,74.1699Q417.413,74.2793,417.413,74.416Q417.413,75.3594,417.932,75.9541Q418.452,76.5488,419.272,76.5488Q419.914,76.5488,420.516,76.1455Q421.118,75.7422,421.801,74.8809ZM417.426,73.8418Q418.903,73.1855,419.696,72.3789Q420.229,71.832,420.557,71.2031Q420.885,70.5742,420.885,70.0684Q420.885,69.4258,420.297,69.4258Q419.409,69.4258,418.499,70.8271Q417.59,72.2285,417.426,73.8418ZM432.102,68.9199L430.816,73.9238Q430.611,74.7441,430.611,75.209Q430.611,75.6191,430.789,75.9199Q430.967,76.2207,431.227,76.2207Q431.623,76.2207,432.539,75.25L432.73,75.4414L432.58,75.6191Q431.855,76.4531,431.466,76.7881Q431.076,77.123,430.789,77.123Q430.352,77.123,430.03,76.66499999999999Q429.709,76.207,429.709,75.6055Q429.709,75.168,430.037,73.623L430.147,73.1035Q429.641,74.2793,428.793,75.3594Q427.371,77.1641,426.072,77.1641Q425.293,77.1641,424.842,76.6035Q424.391,76.043,424.391,75.0996Q424.391,73.8145,425.122,72.4062Q425.854,70.998,426.94,70.0889Q428.027,69.1797,429.053,69.1797Q430.133,69.1797,430.666,69.9727L430.816,69.4531L432.102,68.9199ZM430.529,70.6699Q430.365,70.1504,429.976,69.85640000000001Q429.586,69.5625,429.08,69.5625Q428.479,69.5625,427.809,70.11619999999999Q427.139,70.6699,426.578,71.6543Q426.141,72.4336,425.847,73.377Q425.553,74.3203,425.553,74.9355Q425.553,75.6328,425.819,76.0293Q426.086,76.4258,426.578,76.4258Q427.207,76.4258,427.891,75.8379Q428.574,75.25,429.244,74.1562Q429.654,73.5273,429.887,72.8984Q430.119,72.2695,430.406,71.1484L430.529,70.6699ZM434.144,76.125L434.91,75.2227Q435.511,76.6445,436.824,76.6445Q437.507,76.6445,437.993,76.2002Q438.478,75.7559,438.478,75.168Q438.478,74.7441,438.246,74.4434Q438.013,74.1426,437.138,73.4316Q436.332,72.7754,436.051,72.3994Q435.771,72.0234,435.771,71.5312Q435.771,70.8887,436.147,70.3418Q436.523,69.7949,437.152,69.46000000000001Q437.781,69.125,438.478,69.125Q439.093,69.125,439.51,69.43260000000001Q439.927,69.7402,439.927,70.2188Q439.927,70.8477,439.394,71.0801Q439.312,70.4375,438.909,70.0752Q438.505,69.7129,437.877,69.7129Q437.316,69.7129,436.899,70.0752Q436.482,70.4375,436.482,70.9023Q436.482,71.4766,437.193,72.0371L437.986,72.6797Q439.148,73.5957,439.148,74.5527Q439.148,75.2637,438.745,75.8857Q438.341,76.5078,437.651,76.877Q436.961,77.2461,436.195,77.2461Q434.978,77.2461,434.144,76.125ZM447.849,74.8809L448.095,75.0859Q447.247,76.207,446.441,76.70609999999999Q445.634,77.2051,444.704,77.2051Q443.597,77.2051,442.927,76.4668Q442.257,75.7285,442.257,74.5117Q442.257,73.2812,442.906,72.0166Q443.556,70.752,444.533,69.9248Q445.511,69.0977,446.468,69.0977Q447.029,69.0977,447.391,69.4258Q447.753,69.7539,447.753,70.2734Q447.753,71.3262,446.605,72.3789Q445.456,73.4316,443.474,74.1699Q443.46,74.2793,443.46,74.416Q443.46,75.3594,443.98,75.9541Q444.499,76.5488,445.32,76.5488Q445.962,76.5488,446.564,76.1455Q447.165,75.7422,447.849,74.8809ZM443.474,73.8418Q444.95,73.1855,445.743,72.3789Q446.277,71.832,446.605,71.2031Q446.933,70.5742,446.933,70.0684Q446.933,69.4258,446.345,69.4258Q445.456,69.4258,444.547,70.8271Q443.638,72.2285,443.474,73.8418ZM462.284,74.8809L462.53,75.0859Q461.682,76.207,460.875,76.70609999999999Q460.069,77.2051,459.139,77.2051Q458.032,77.2051,457.362,76.4668Q456.692,75.7285,456.692,74.5117Q456.692,73.2812,457.341,72.0166Q457.991,70.752,458.968,69.9248Q459.946,69.0977,460.903,69.0977Q461.463,69.0977,461.826,69.4258Q462.188,69.7539,462.188,70.2734Q462.188,71.3262,461.039,72.3789Q459.891,73.4316,457.909,74.1699Q457.895,74.2793,457.895,74.416Q457.895,75.3594,458.414,75.9541Q458.934,76.5488,459.754,76.5488Q460.397,76.5488,460.998,76.1455Q461.6,75.7422,462.284,74.8809ZM457.909,73.8418Q459.385,73.1855,460.178,72.3789Q460.711,71.832,461.039,71.2031Q461.368,70.5742,461.368,70.0684Q461.368,69.4258,460.78,69.4258Q459.891,69.4258,458.982,70.8271Q458.073,72.2285,457.909,73.8418ZM465.01,77.1367L466.459,69.5625L467.758,69.002L466.582,74.0195Q467.717,71.627,468.838,70.3828Q469.959,69.1387,470.984,69.1387Q471.49,69.1387,471.805,69.4736Q472.119,69.8086,472.119,70.3691Q472.119,70.6836,471.969,71.2578L471.832,71.832L471.422,73.5L471.285,74.0332Q471.08,74.8535,471.08,75.291Q471.08,75.7285,471.23,75.99510000000001Q471.381,76.2617,471.627,76.2617Q472.051,76.2617,472.98,75.25L473.199,75.4414L473.063,75.5918Q472.283,76.5078,471.914,76.8291Q471.545,77.1504,471.23,77.1504Q470.807,77.1504,470.513,76.7197Q470.219,76.2891,470.219,75.6465Q470.219,75.209,470.383,74.3477L470.916,71.4492Q471.025,70.7656,471.025,70.4922Q471.025,70.2051,470.875,70.0547Q470.725,69.9043,470.465,69.9043Q469.522,69.9043,468.141,71.9277Q467.471,72.8984,467.033,73.8486Q466.596,74.7988,466.049,76.4805L465.926,76.8496L465.01,77.1367ZM477.963,69.6992L476.923,74.252Q476.759,75.0039,476.759,75.3184Q476.759,75.8105,476.992,76.1113Q477.224,76.4121,477.607,76.4121Q477.976,76.4121,478.284,76.2002Q478.591,75.9883,479.22,75.3184L479.384,75.1543L479.589,75.3594Q478.783,76.3438,478.243,76.7471Q477.703,77.1504,477.183,77.1504Q476.527,77.1504,476.137,76.7197Q475.748,76.2891,475.748,75.5918Q475.748,75.0723,475.953,74.0879L476.841,69.6992L475.529,69.6992L475.625,69.2344L476.937,69.2344L477.703,65.54297L479.015,65.02344L478.058,69.2344L480.273,69.2344L480.177,69.6992L477.963,69.6992ZM487.361,74.8809L487.607,75.0859Q486.759,76.207,485.952,76.70609999999999Q485.146,77.2051,484.216,77.2051Q483.109,77.2051,482.439,76.4668Q481.769,75.7285,481.769,74.5117Q481.769,73.2812,482.418,72.0166Q483.068,70.752,484.045,69.9248Q485.023,69.0977,485.98,69.0977Q486.54,69.0977,486.903,69.4258Q487.265,69.7539,487.265,70.2734Q487.265,71.3262,486.116,72.3789Q484.968,73.4316,482.986,74.1699Q482.972,74.2793,482.972,74.416Q482.972,75.3594,483.491,75.9541Q484.011,76.5488,484.831,76.5488Q485.474,76.5488,486.075,76.1455Q486.677,75.7422,487.361,74.8809ZM482.986,73.8418Q484.462,73.1855,485.255,72.3789Q485.788,71.832,486.116,71.2031Q486.445,70.5742,486.445,70.0684Q486.445,69.4258,485.857,69.4258Q484.968,69.4258,484.059,70.8271Q483.15,72.2285,482.986,73.8418ZM489.95,73.1172Q491.126,71.6953,491.522,70.4648Q490.415,69.8496,490.415,68.7012Q490.415,68.1543,490.675,67.8125Q490.934,67.4707,491.331,67.4707Q491.741,67.4707,492.001,67.84667999999999Q492.261,68.2227,492.261,68.8242Q492.261,69.248,492.11,69.7676Q492.479,69.8633,492.78,69.8633Q493.628,69.8633,494.175,69.3711L494.831,69.3711L494.735,69.5625Q493.751,71.3672,493.115,73.1104Q492.479,74.8535,492.479,75.7148Q492.479,76.0293,492.643,76.24119999999999Q492.807,76.4531,493.04,76.4531Q493.6,76.4531,494.845,75.2637L495.063,75.5098Q494.68,75.9336,493.874,76.5625Q493.149,77.1367,492.52,77.1367Q491.987,77.1367,491.68,76.7812Q491.372,76.4258,491.372,75.8105Q491.372,74.7852,492.165,73.2129Q492.452,72.625,492.903,71.873Q493.354,71.1211,494.038,70.082L494.175,69.8906Q493.723,70.3008,493.306,70.4717Q492.889,70.6426,492.356,70.6426Q492.11,70.6426,491.837,70.5742Q491.399,71.9141,490.196,73.3359L489.95,73.1172ZM491.823,69.6445Q491.878,69.3027,491.878,69.0703Q491.878,68.5918,491.721,68.3184Q491.563,68.0449,491.317,68.0449Q491.18,68.0449,491.078,68.1748Q490.975,68.3047,490.975,68.4961Q490.975,69.1387,491.823,69.6445ZM506.272,69.6992L505.232,74.252Q505.068,75.0039,505.068,75.3184Q505.068,75.8105,505.301,76.1113Q505.533,76.4121,505.916,76.4121Q506.285,76.4121,506.593,76.2002Q506.9,75.9883,507.529,75.3184L507.693,75.1543L507.898,75.3594Q507.092,76.3438,506.552,76.7471Q506.012,77.1504,505.492,77.1504Q504.836,77.1504,504.446,76.7197Q504.057,76.2891,504.057,75.5918Q504.057,75.0723,504.262,74.0879L505.15,69.6992L503.838,69.6992L503.934,69.2344L505.246,69.2344L506.012,65.54297L507.324,65.02344L506.367,69.2344L508.582,69.2344L508.486,69.6992L506.272,69.6992ZM510.023,77.1367L513.66,58.433594L515.095,57.736328L511.308,74.3887Q511.363,74.293,511.363,74.2656L511.677,73.5547Q512.484,71.7227,513.701,70.3828Q514.849,69.1387,515.82,69.1387Q516.339,69.1387,516.654,69.4736Q516.968,69.8086,516.968,70.3691Q516.968,70.6836,516.818,71.2578L516.681,71.832L516.257,73.5L516.134,74.0332Q515.929,74.8535,515.929,75.291Q515.929,75.7285,516.08,75.99510000000001Q516.23,76.2617,516.476,76.2617Q516.9,76.2617,517.83,75.25L518.035,75.4414L517.912,75.5918Q517.132,76.5078,516.756,76.8291Q516.38,77.1504,516.08,77.1504Q515.656,77.1504,515.355,76.6992Q515.054,76.248,515.054,75.6465Q515.054,75.2773,515.232,74.3477L515.752,71.4492Q515.875,70.8066,515.875,70.4922Q515.875,70.2051,515.724,70.0547Q515.574,69.9043,515.314,69.9043Q514.808,69.9043,514.152,70.499Q513.496,71.0938,512.833,72.1465Q512.17,73.1992,511.677,74.3955Q511.185,75.5918,510.939,76.8496L510.023,77.1367ZM525.792,74.8809L526.038,75.0859Q525.191,76.207,524.384,76.70609999999999Q523.577,77.2051,522.648,77.2051Q521.54,77.2051,520.87,76.4668Q520.2,75.7285,520.2,74.5117Q520.2,73.2812,520.85,72.0166Q521.499,70.752,522.477,69.9248Q523.454,69.0977,524.411,69.0977Q524.972,69.0977,525.334,69.4258Q525.697,69.7539,525.697,70.2734Q525.697,71.3262,524.548,72.3789Q523.4,73.4316,521.417,74.1699Q521.404,74.2793,521.404,74.416Q521.404,75.3594,521.923,75.9541Q522.443,76.5488,523.263,76.5488Q523.906,76.5488,524.507,76.1455Q525.109,75.7422,525.792,74.8809ZM521.417,73.8418Q522.894,73.1855,523.687,72.3789Q524.22,71.832,524.548,71.2031Q524.876,70.5742,524.876,70.0684Q524.876,69.4258,524.288,69.4258Q523.4,69.4258,522.49,70.8271Q521.581,72.2285,521.417,73.8418ZM533.692,82.4277L536.276,69.5625L537.588,69.002L536.686,72.9258Q537.698,70.8887,538.593,69.9932Q539.489,69.0977,540.555,69.0977Q541.375,69.0977,541.854,69.6992Q542.332,70.3008,542.332,71.3535Q542.332,72.4199,541.902,73.541Q541.471,74.6621,540.692,75.5781Q539.284,77.2734,537.588,77.2734Q536.522,77.2734,535.838,76.7129L534.43,82.4277L533.692,82.4277ZM536.043,75.8105Q536.618,76.9316,537.657,76.9316Q539.161,76.9316,540.282,74.4844Q541.198,72.5156,541.198,71.1758Q541.198,70.4512,540.924,70.0547Q540.651,69.6582,540.145,69.6582Q539.325,69.6582,538.422,70.7383Q537.561,71.8047,536.959,73.1172Q536.727,73.6367,536.529,74.2246Q536.331,74.8125,536.153,75.4277L536.043,75.8105ZM544.867,73.1172Q546.043,71.6953,546.439,70.4648Q545.332,69.8496,545.332,68.7012Q545.332,68.1543,545.592,67.8125Q545.852,67.4707,546.248,67.4707Q546.658,67.4707,546.918,67.84667999999999Q547.178,68.2227,547.178,68.8242Q547.178,69.248,547.027,69.7676Q547.396,69.8633,547.697,69.8633Q548.545,69.8633,549.092,69.3711L549.748,69.3711L549.652,69.5625Q548.668,71.3672,548.032,73.1104Q547.396,74.8535,547.396,75.7148Q547.396,76.0293,547.561,76.24119999999999Q547.725,76.4531,547.957,76.4531Q548.518,76.4531,549.762,75.2637L549.98,75.5098Q549.598,75.9336,548.791,76.5625Q548.066,77.1367,547.438,77.1367Q546.904,77.1367,546.597,76.7812Q546.289,76.4258,546.289,75.8105Q546.289,74.7852,547.082,73.2129Q547.369,72.625,547.82,71.873Q548.271,71.1211,548.955,70.082L549.092,69.8906Q548.641,70.3008,548.224,70.4717Q547.807,70.6426,547.273,70.6426Q547.027,70.6426,546.754,70.5742Q546.316,71.9141,545.113,73.3359L544.867,73.1172ZM546.74,69.6445Q546.795,69.3027,546.795,69.0703Q546.795,68.5918,546.638,68.3184Q546.48,68.0449,546.234,68.0449Q546.098,68.0449,545.995,68.1748Q545.893,68.3047,545.893,68.4961Q545.893,69.1387,546.74,69.6445ZM552.324,74.375Q552.324,73.1445,552.987,71.9209Q553.65,70.6973,554.703,69.9316Q555.755,69.166,556.849,69.166Q557.998,69.166,558.702,69.9248Q559.406,70.6836,559.406,71.8867Q559.406,73.1992,558.756,74.4297Q558.107,75.6602,557.047,76.44630000000001Q555.988,77.2324,554.908,77.2324Q553.746,77.2324,553.035,76.44630000000001Q552.324,75.6602,552.324,74.375ZM558.175,71.3672Q558.175,70.5469,557.772,70.0137Q557.369,69.4805,556.74,69.4805Q556.166,69.4805,555.639,69.8496Q555.113,70.2188,554.675,70.9297Q554.183,71.75,553.862,72.8438Q553.541,73.9375,553.541,74.7852Q553.541,75.7969,553.937,76.3438Q554.334,76.8906,555.072,76.8906Q556.261,76.8906,557.164,75.2363Q557.629,74.3887,557.902,73.3359Q558.175,72.2832,558.175,71.3672ZM567.437,76.8496L566.534,77.1367L567.614,71.5723Q567.614,71.5723,567.71,71.0938Q567.792,70.6973,567.792,70.4375Q567.792,69.8359,567.314,69.8359Q566.862,69.8359,566.22,70.4443Q565.577,71.0527,564.866,72.2012Q564.402,72.9395,564.067,73.623Q563.732,74.3066,563.451,75.0791Q563.171,75.8516,562.911,76.8496L562.064,77.1367L563.472,69.5625L564.784,69.002L563.595,73.9648Q564.511,71.8457,565.694,70.4854Q566.876,69.125,567.82,69.125Q568.845,69.125,568.845,70.2871Q568.845,70.6836,568.64,71.6953L568.189,73.7324Q569.515,71.1895,570.431,70.14359999999999Q571.347,69.0977,572.249,69.0977Q572.755,69.0977,573.042,69.3984Q573.329,69.6992,573.329,70.2598Q573.329,70.7109,573.056,71.8184L572.632,73.5L572.495,74.0332Q572.304,74.8809,572.304,75.291Q572.304,75.7285,572.454,75.99510000000001Q572.605,76.2617,572.837,76.2617Q573.275,76.2617,574.204,75.25L574.409,75.4414L574.286,75.5918Q573.507,76.5078,573.131,76.8291Q572.755,77.1504,572.441,77.1504Q572.017,77.1504,571.723,76.7197Q571.429,76.2891,571.429,75.6465Q571.429,75.25,571.607,74.3477L572.112,71.5176L572.195,71.0254Q572.277,70.6152,572.277,70.3691Q572.277,70.123,572.126,69.9727Q571.976,69.8223,571.716,69.8223Q571.415,69.8223,571.053,70.0752Q570.691,70.3281,570.28,70.8477Q569.87,71.3672,569.364,72.2148Q568.681,73.377,568.257,74.3818Q567.833,75.3867,567.437,76.8496ZM576.575,74.375Q576.575,73.1445,577.238,71.9209Q577.901,70.6973,578.954,69.9316Q580.007,69.166,581.1,69.166Q582.249,69.166,582.953,69.9248Q583.657,70.6836,583.657,71.8867Q583.657,73.1992,583.008,74.4297Q582.358,75.6602,581.299,76.44630000000001Q580.239,77.2324,579.159,77.2324Q577.997,77.2324,577.286,76.44630000000001Q576.575,75.6602,576.575,74.375ZM582.427,71.3672Q582.427,70.5469,582.023,70.0137Q581.62,69.4805,580.991,69.4805Q580.417,69.4805,579.89,69.8496Q579.364,70.2188,578.927,70.9297Q578.434,71.75,578.113,72.8438Q577.792,73.9375,577.792,74.7852Q577.792,75.7969,578.188,76.3438Q578.585,76.8906,579.323,76.8906Q580.513,76.8906,581.415,75.2363Q581.88,74.3887,582.153,73.3359Q582.427,72.2832,582.427,71.3672ZM598.174,74.9492Q597.34,76.125,596.554,76.66499999999999Q595.768,77.2051,594.811,77.2051Q593.758,77.2051,593.095,76.4668Q592.432,75.7285,592.432,74.5527Q592.432,73.3223,593.074,72.0508Q593.717,70.7793,594.722,69.9453Q595.727,69.1113,596.656,69.1113Q597.285,69.1113,597.668,69.46000000000001Q598.051,69.8086,598.051,70.3965Q598.051,70.9297,597.647,71.41499999999999Q597.244,71.9004,596.779,71.9004Q596.574,71.9004,596.41,71.7363Q597.299,71.3398,597.299,70.2598Q597.299,69.877,597.101,69.66499999999999Q596.902,69.4531,596.574,69.4531Q596.068,69.4531,595.556,69.8633Q595.043,70.2734,594.592,71.00489999999999Q594.141,71.7363,593.888,72.5635Q593.635,73.3906,593.635,74.2383Q593.635,75.25,594.113,75.8789Q594.592,76.5078,595.371,76.5078Q596.041,76.5078,596.67,76.084Q597.299,75.6602,597.982,74.7852L598.174,74.9492ZM600.517,74.375Q600.517,73.1445,601.18,71.9209Q601.843,70.6973,602.896,69.9316Q603.949,69.166,605.043,69.166Q606.191,69.166,606.895,69.9248Q607.599,70.6836,607.599,71.8867Q607.599,73.1992,606.95,74.4297Q606.3,75.6602,605.241,76.44630000000001Q604.181,77.2324,603.101,77.2324Q601.939,77.2324,601.228,76.44630000000001Q600.517,75.6602,600.517,74.375ZM606.369,71.3672Q606.369,70.5469,605.965,70.0137Q605.562,69.4805,604.933,69.4805Q604.359,69.4805,603.833,69.8496Q603.306,70.2188,602.869,70.9297Q602.377,71.75,602.055,72.8438Q601.734,73.9375,601.734,74.7852Q601.734,75.7969,602.13,76.3438Q602.527,76.8906,603.265,76.8906Q604.455,76.8906,605.357,75.2363Q605.822,74.3887,606.095,73.3359Q606.369,72.2832,606.369,71.3672ZM620.046,57.736328L616.423,73.5Q616.136,74.7578,616.136,75.25Q616.136,75.6875,616.293,75.9609Q616.45,76.2344,616.724,76.2344Q617.079,76.2344,617.585,75.7012L617.982,75.3047Q617.995,75.291,618.009,75.2773Q618.023,75.2637,618.05,75.25L618.255,75.4414L618.146,75.5645Q617.626,76.1387,617.612,76.1523L617.161,76.6035Q616.82,76.9453,616.662,77.0342Q616.505,77.123,616.314,77.123Q615.862,77.123,615.562,76.6582Q615.261,76.1934,615.261,75.5918Q615.261,75.2363,615.452,74.293L615.603,73.5137Q615.247,74.375,614.482,75.3867Q613.101,77.1641,611.802,77.1641Q611.023,77.1641,610.571,76.5967Q610.12,76.0293,610.12,75.0586Q610.12,73.7051,610.831,72.31739999999999Q611.542,70.9297,612.643,70.0273Q613.743,69.125,614.837,69.125Q615.644,69.125,616.341,69.6035L618.57,58.433594L620.046,57.736328ZM616.218,70.2871Q616.095,69.918,615.712,69.69239999999999Q615.329,69.4668,614.892,69.4668Q614.249,69.4668,613.572,70.041Q612.896,70.6152,612.294,71.668Q611.857,72.4473,611.576,73.37010000000001Q611.296,74.293,611.296,75.0449Q611.296,75.7012,611.576,76.0977Q611.857,76.4941,612.349,76.4941Q612.923,76.4941,613.586,75.9062Q614.249,75.3184,614.919,74.2109Q615.37,73.459,615.63,72.6523Q615.945,71.6133,616.081,70.9844L616.218,70.2871ZM626.012,74.8809L626.259,75.0859Q625.411,76.207,624.604,76.70609999999999Q623.798,77.2051,622.868,77.2051Q621.76,77.2051,621.091,76.4668Q620.421,75.7285,620.421,74.5117Q620.421,73.2812,621.07,72.0166Q621.719,70.752,622.697,69.9248Q623.675,69.0977,624.632,69.0977Q625.192,69.0977,625.554,69.4258Q625.917,69.7539,625.917,70.2734Q625.917,71.3262,624.768,72.3789Q623.62,73.4316,621.637,74.1699Q621.624,74.2793,621.624,74.416Q621.624,75.3594,622.143,75.9541Q622.663,76.5488,623.483,76.5488Q624.126,76.5488,624.727,76.1455Q625.329,75.7422,626.012,74.8809ZM621.637,73.8418Q623.114,73.1855,623.907,72.3789Q624.44,71.832,624.768,71.2031Q625.096,70.5742,625.096,70.0684Q625.096,69.4258,624.509,69.4258Q623.62,69.4258,622.711,70.8271Q621.802,72.2285,621.637,73.8418Z" fill="#000000" fill-opacity="1"/></g></g></svg>