<svg xmlns="http://www.w3.org/2000/svg" xmlns:xlink="http://www.w3.org/1999/xlink" fill="none" version="1.1" width="1024" height="91" viewBox="0 0 1024 91"><g><g><path d="M326.096,4.52L328.352,2.696L332,6.008L330.08,7.88L321.44,7.88L321.44,10.808L325.52,10.808L327.776,8.936L331.472,12.248L329.504,14.168L321.44,14.168L321.44,17.144L326.864,17.144L329.12,15.272L332.816,18.584L330.848,20.504L303.296,20.504L302.48,17.144L313.904,17.144L313.904,14.168L305.84,14.168L305.024,10.808L313.904,10.808L313.904,7.88L303.68,7.88L302.864,4.52L313.904,4.52L313.904,0.776001L321.44,1.736L321.44,4.52L326.096,4.52ZM306.128,21.272L313.136,22.088L313.136,23.288L322.928,23.288L325.904,20.696L331.76,25.064L330.416,26.936L330.416,42.008Q330.416,46.328,326.144,46.328L322.352,46.328Q322.352,43.304,317.456,43.304L317.504,40.328Q319.904,40.232,322.016,40.232Q323.072,40.232,323.072,39.08L323.072,38.216L313.136,38.216L313.136,45.656L306.128,46.568L306.128,21.272ZM323.072,34.76L323.072,32.408L313.136,32.408L313.136,34.76L323.072,34.76ZM323.072,28.952L323.072,26.648L313.136,26.648L313.136,28.952L323.072,28.952ZM291.968,2.216Q297.584,4.712,301.04,7.928L296.192,13.4Q292.976,9.368,288.848,6.104L291.968,2.216ZM292.832,17.768L296.192,14.216L302.384,19.064L299.984,20.984L299.984,35.096Q301.712,34.376,303.44,33.512L305.168,37.112Q301.04,41.432,295.184,45.56L291.632,38.024Q292.496,37.784,293.36,37.496L293.36,25.208L293.264,25.208L293.264,21.8L289.184,21.8L288.224,17.768L292.832,17.768ZM353.168,1.736L361.472,4.28Q360.944,5.816,360.368,7.256L370.736,7.256L370.736,2.024L378.224,3.032L378.224,7.256L382.928,7.256L385.76,4.904L390.32,8.696L388.352,10.712L378.224,10.712L378.224,14.888L381.056,14.888L384.272,11.768L390.416,16.568L388.64,18.584L388.64,29.96L381.44,30.824L381.44,28.232L377.984,28.232Q377.36,32.744,374.96,36.2Q375.536,36.344,376.112,36.488Q381.392,38.072,390.512,38.072L385.856,45.704Q376.352,44.408,370.304,40.952Q366.176,44.072,359.888,45.944L358.112,42.488Q362.72,40.376,365.6,37.544Q362.96,35.048,361.328,31.976L362.72,30.68L359.84,31.064L359.84,12.632L366.848,13.448L366.848,14.888L370.736,14.888L370.736,10.712L360.08,10.712L359.648,8.984Q358.496,11.672,357.2,13.88L357.2,44.936L349.904,45.752L349.904,22.232Q348.944,22.952,348.08,23.432L345.488,21.416Q348.32,17.048,350.432,11.528Q352.4,6.392,353.168,1.736ZM364.64,30.44Q366.416,32.264,368.672,33.608Q370.16,31.064,370.544,28.232L366.848,28.232L366.848,30.152L364.64,30.44ZM381.44,24.68L381.44,18.344L378.224,18.344L378.224,24.68L381.44,24.68ZM370.736,24.68L370.736,18.344L366.848,18.344L366.848,24.68L370.736,24.68ZM406.832,1.256L414.752,2.408L414.752,4.04L437.6,4.04L440.432,0.776001L447.824,5.432L445.808,7.352L445.808,40.664Q445.808,46.136,440.768,46.136L436.352,46.136Q436.352,41.24,431.6,41.24L431.744,38.216Q433.904,38.36,436.736,38.36Q437.888,38.36,437.888,36.632L437.888,30.728L430.304,30.728L430.304,44.984L421.952,45.752L421.952,30.728L414.464,30.728Q413.936,34.904,412.496,37.928Q410.528,42.584,406.544,46.424L402.896,43.88Q406.832,35.624,406.832,25.688L406.832,1.256ZM414.752,26.792L421.952,26.792L421.952,19.256L414.752,19.256L414.752,26.792ZM430.304,19.256L430.304,26.792L437.888,26.792L437.888,19.256L430.304,19.256ZM414.752,15.32L421.952,15.32L421.952,7.976L414.752,7.976L414.752,15.32ZM430.304,7.976L430.304,15.32L437.888,15.32L437.888,7.976L430.304,7.976ZM498.512,8.264L501.344,5.576L505.904,9.704L503.936,11.672L487.808,11.672L487.808,19.448L492.752,19.448L496.688,16.424L503.936,21.128L500.72,23.72Q498.08,30.584,492.032,35.48Q498.08,37.496,505.904,38.696L500.864,46.184Q491.648,43.592,485.024,40.04Q477.248,43.736,463.136,46.04L460.976,42.344Q471.776,40.088,479.024,36.344Q471.296,30.584,468.8,23L464.144,23L463.328,19.448L479.12,19.448L479.12,11.672L462.128,11.672L461.264,8.264L479.12,8.264L479.12,1.304L487.808,2.408L487.808,8.264L498.512,8.264ZM473.408,23Q477.584,29,484.976,32.552Q490.256,28.376,492.56,23L473.408,23ZM523.52,22.904Q522.32,24.056,521.216,24.824L518.48,22.28Q524.864,13.256,527.168,1.832L535.424,3.224Q533.504,8.792,530.864,13.304L530.864,44.504L523.52,45.32L523.52,22.904ZM547.856,12.584L547.856,1.976L555.92,3.032L555.92,12.056L558.176,10.04L562.784,14.168L560.624,16.328L555.92,16.328L555.92,38.888Q555.92,45.368,549.92,45.368L546.464,45.368Q546.464,41.144,541.232,40.952L541.424,37.736Q544.256,37.784,546.464,37.784Q547.856,37.784,547.856,36.344L547.856,16.328L532.88,16.328L531.968,12.584L547.856,12.584ZM536.72,19.208Q542.624,24.344,545.6,28.184L539.552,33.416Q536.336,26.408,532.976,21.8L536.72,19.208ZM607.328,33.512Q609.536,34.568,614.384,38.84L610.736,41.624L612.656,41.624L615.68,39.08L620.624,43.496L618.128,45.992L578.096,45.992L577.04,41.624L594.128,41.624L594.128,32.84L581.552,32.84L580.4,28.616L594.128,28.616L594.128,21.992L580.16,21.992L579.008,17.72L611.504,17.72L612.608,16.712L610.592,15.848L611.696,11.432L583.712,11.432Q582.752,14.264,581.264,17.24L574.928,13.784Q578.528,9.272,580.448,4.04L585.104,5.432Q585.008,6.44,584.768,7.496L596.048,7.496Q594.56,5.24,593.072,3.464L596.432,1.016Q599.888,2.888,603.776,5.96L601.664,7.496L611.792,7.496L614.912,4.712L621.44,9.512L618.464,11L615.056,15.656L619.472,19.592L617.072,21.992L602.144,21.992L602.144,28.616L609.92,28.616L612.704,26.072L617.648,30.488L615.296,32.84L602.144,32.84L602.144,41.624L607.952,41.624Q606.176,38.12,604.16,35.912L607.328,33.512ZM667.904,5.672L671.408,2.552L677.84,7.544L675.92,9.56L675.92,44.264L668.384,45.224L668.384,42.68L653.216,42.68L652.208,38.456L668.384,38.456L668.384,26.408L653.888,26.408L653.024,22.76L668.384,22.76L668.384,9.464L653.84,9.464L652.88,5.672L667.904,5.672ZM640.064,10.424L640.064,1.256L647.36,2.216L647.36,10.328L649.808,7.88L654.32,11.912L652.16,13.88L647.36,13.88L647.36,23.24Q649.424,22.712,651.008,22.184L652.496,25.256Q650.432,26.744,647.36,28.28L647.36,39.656Q647.36,45.656,641.744,45.656L638.432,45.656Q638.432,41.864,634.112,41.672L634.352,38.12Q636.848,38.648,638.816,38.648Q640.064,38.648,640.064,37.304L640.064,31.448Q637.952,32.264,635.6,33.128L633.344,26.072Q636.128,25.64,640.064,24.824L640.064,13.88L634.832,13.88L633.92,10.424L640.064,10.424ZM703.952,4.808L706.544,2.216L711.152,6.296L708.944,8.264L702.944,8.264Q702.176,13.352,700.544,17.72L702.848,17.72L704.864,15.56L710.432,19.592L708.8,21.32L708.8,41.96L703.136,42.584L703.136,39.56L700.208,39.56L700.208,43.112L694.64,43.784L694.64,28.424Q693.824,29.432,692.96,30.392L690.608,28.328Q694.784,19.256,696.224,8.264L692.144,8.264L691.232,4.808L703.952,4.808ZM700.208,35.96L703.136,35.96L703.136,21.176L700.208,21.176L700.208,35.96ZM721.76,31.4L724.112,29.336L727.184,32.072Q727.376,29.48,727.376,26.648L710.48,26.648Q712.208,16.184,713.648,8.696L719.888,9.752L717.632,23.288L721.952,23.288L724.64,7.352L712.4,7.352L711.536,3.8L724.832,3.8L727.52,1.448L733.76,6.008L731.408,8.264L729.2,21.704L730.304,20.84L736.16,25.544L734.096,27.272Q733.904,32.6,733.616,35.816Q733.328,39.608,732.992,40.28Q732.56,43.4,730.016,44.504Q728.768,45.416,723.248,45.416L723.392,43.976Q723.152,40.904,717.92,40.664L718.208,37.496Q722.432,38.648,724.88,38.648Q725.984,38.648,726.32,37.88Q726.656,36.728,726.896,34.52Q726.896,34.376,726.944,34.28L726.224,35L710.576,35L709.616,31.4L721.76,31.4Z" fill="#000000" fill-opacity="1"/></g><g><path d="M404.596,77L406.305,69.1113Q406.743,67.10156,407.01,64.9209Q407.276,62.74023,407.276,60.89453Q407.276,60.4707,407.263,60.14258L408.766,59.45898L408.766,59.8418Q408.766,60.74414,408.602,62.75391Q408.438,64.76367,408.261,65.84375Q409.095,63.88867,410.339,62.21387Q411.583,60.53906,412.888,59.56836Q414.194,58.597656,415.261,58.597656Q416.327,58.597656,416.976,59.45215Q417.626,60.30664,417.626,61.74219Q417.626,63.54688,416.846,65.36523Q416.067,67.18359,414.721,68.7148Q413.374,70.2461,411.767,71.1279Q410.161,72.0098,408.589,72.0098Q408.233,72.0098,407.755,71.9141L408.479,70.9434Q409.149,71.1621,409.846,71.1621Q410.981,71.1621,412.123,70.4033Q413.264,69.6445,414.167,68.2637Q415.001,66.99219,415.589,65.09863Q416.177,63.20508,416.177,61.82422Q416.177,60.67578,415.787,60.0332Q415.397,59.39062,414.7,59.39062Q413.716,59.39062,412.43,60.51855Q411.145,61.64648,409.915,63.57422Q409.026,64.94141,408.431,66.52734Q407.837,68.1133,407.372,70.2051L405.895,77L404.596,77ZM423.141,57.736328L419.545,73.5L419.422,74.0332Q419.245,74.7852,419.245,75.3047Q419.245,75.7285,419.402,75.99510000000001Q419.559,76.2617,419.791,76.2617Q420.215,76.2617,421.145,75.25L421.364,75.4414L421.227,75.5918Q420.448,76.5078,420.079,76.8291Q419.709,77.1504,419.395,77.1504Q418.985,77.1504,418.677,76.69239999999999Q418.37,76.2344,418.37,75.6465Q418.37,75.2363,418.547,74.3477L421.705,58.433594L423.141,57.736328ZM429.039,74.8809L429.285,75.0859Q428.438,76.207,427.631,76.70609999999999Q426.824,77.2051,425.895,77.2051Q424.787,77.2051,424.117,76.4668Q423.447,75.7285,423.447,74.5117Q423.447,73.2812,424.097,72.0166Q424.746,70.752,425.724,69.9248Q426.701,69.0977,427.658,69.0977Q428.219,69.0977,428.581,69.4258Q428.943,69.7539,428.943,70.2734Q428.943,71.3262,427.795,72.3789Q426.646,73.4316,424.664,74.1699Q424.65,74.2793,424.65,74.416Q424.65,75.3594,425.17,75.9541Q425.689,76.5488,426.51,76.5488Q427.152,76.5488,427.754,76.1455Q428.355,75.7422,429.039,74.8809ZM424.664,73.8418Q426.141,73.1855,426.934,72.3789Q427.467,71.832,427.795,71.2031Q428.123,70.5742,428.123,70.0684Q428.123,69.4258,427.535,69.4258Q426.646,69.4258,425.737,70.8271Q424.828,72.2285,424.664,73.8418ZM439.339,68.9199L438.054,73.9238Q437.849,74.7441,437.849,75.209Q437.849,75.6191,438.027,75.9199Q438.205,76.2207,438.464,76.2207Q438.861,76.2207,439.777,75.25L439.968,75.4414L439.818,75.6191Q439.093,76.4531,438.704,76.7881Q438.314,77.123,438.027,77.123Q437.589,77.123,437.268,76.66499999999999Q436.947,76.207,436.947,75.6055Q436.947,75.168,437.275,73.623L437.384,73.1035Q436.879,74.2793,436.031,75.3594Q434.609,77.1641,433.31,77.1641Q432.531,77.1641,432.08,76.6035Q431.629,76.043,431.629,75.0996Q431.629,73.8145,432.36,72.4062Q433.091,70.998,434.178,70.0889Q435.265,69.1797,436.291,69.1797Q437.371,69.1797,437.904,69.9727L438.054,69.4531L439.339,68.9199ZM437.767,70.6699Q437.603,70.1504,437.214,69.85640000000001Q436.824,69.5625,436.318,69.5625Q435.716,69.5625,435.047,70.11619999999999Q434.377,70.6699,433.816,71.6543Q433.379,72.4336,433.085,73.377Q432.791,74.3203,432.791,74.9355Q432.791,75.6328,433.057,76.0293Q433.324,76.4258,433.816,76.4258Q434.445,76.4258,435.129,75.8379Q435.812,75.25,436.482,74.1562Q436.892,73.5273,437.125,72.8984Q437.357,72.2695,437.644,71.1484L437.767,70.6699ZM441.382,76.125L442.148,75.2227Q442.749,76.6445,444.062,76.6445Q444.745,76.6445,445.231,76.2002Q445.716,75.7559,445.716,75.168Q445.716,74.7441,445.484,74.4434Q445.251,74.1426,444.376,73.4316Q443.57,72.7754,443.289,72.3994Q443.009,72.0234,443.009,71.5312Q443.009,70.8887,443.385,70.3418Q443.761,69.7949,444.39,69.46000000000001Q445.019,69.125,445.716,69.125Q446.331,69.125,446.748,69.43260000000001Q447.165,69.7402,447.165,70.2188Q447.165,70.8477,446.632,71.0801Q446.55,70.4375,446.147,70.0752Q445.743,69.7129,445.114,69.7129Q444.554,69.7129,444.137,70.0752Q443.72,70.4375,443.72,70.9023Q443.72,71.4766,444.431,72.0371L445.224,72.6797Q446.386,73.5957,446.386,74.5527Q446.386,75.2637,445.983,75.8857Q445.579,76.5078,444.889,76.877Q444.198,77.2461,443.433,77.2461Q442.216,77.2461,441.382,76.125ZM455.087,74.8809L455.333,75.0859Q454.485,76.207,453.679,76.70609999999999Q452.872,77.2051,451.942,77.2051Q450.835,77.2051,450.165,76.4668Q449.495,75.7285,449.495,74.5117Q449.495,73.2812,450.144,72.0166Q450.794,70.752,451.771,69.9248Q452.749,69.0977,453.706,69.0977Q454.266,69.0977,454.629,69.4258Q454.991,69.7539,454.991,70.2734Q454.991,71.3262,453.843,72.3789Q452.694,73.4316,450.712,74.1699Q450.698,74.2793,450.698,74.416Q450.698,75.3594,451.218,75.9541Q451.737,76.5488,452.557,76.5488Q453.2,76.5488,453.802,76.1455Q454.403,75.7422,455.087,74.8809ZM450.712,73.8418Q452.188,73.1855,452.981,72.3789Q453.514,71.832,453.843,71.2031Q454.171,70.5742,454.171,70.0684Q454.171,69.4258,453.583,69.4258Q452.694,69.4258,451.785,70.8271Q450.876,72.2285,450.712,73.8418ZM466.705,69.002L465.379,74.293Q465.201,75.0039,465.201,75.4961Q465.201,75.9746,465.502,76.2617Q465.803,76.5488,466.281,76.5488Q467.443,76.5488,468.701,74.6484L468.756,74.5664Q468.783,74.4297,468.797,74.3477L469.658,69.5625L470.998,69.002L469.795,73.5Q469.494,74.6074,469.494,75.2773Q469.494,75.7148,469.645,75.9883Q469.795,76.2617,470.041,76.2617Q470.465,76.2617,471.395,75.25L471.613,75.4414L471.477,75.5918Q470.697,76.5078,470.328,76.8291Q469.959,77.1504,469.645,77.1504Q469.221,77.1504,468.927,76.7197Q468.633,76.2891,468.633,75.6465Q468.633,75.4414,468.646,75.2637Q467.225,77.1504,465.83,77.1504Q465.133,77.1504,464.716,76.7471Q464.299,76.3438,464.299,75.6738Q464.299,75.1543,464.449,74.4023L465.379,69.5625L466.705,69.002ZM473.013,76.125L473.779,75.2227Q474.38,76.6445,475.693,76.6445Q476.377,76.6445,476.862,76.2002Q477.347,75.7559,477.347,75.168Q477.347,74.7441,477.115,74.4434Q476.882,74.1426,476.007,73.4316Q475.201,72.7754,474.921,72.3994Q474.64,72.0234,474.64,71.5312Q474.64,70.8887,475.016,70.3418Q475.392,69.7949,476.021,69.46000000000001Q476.65,69.125,477.347,69.125Q477.963,69.125,478.38,69.43260000000001Q478.797,69.7402,478.797,70.2188Q478.797,70.8477,478.263,71.0801Q478.181,70.4375,477.778,70.0752Q477.375,69.7129,476.746,69.7129Q476.185,69.7129,475.768,70.0752Q475.351,70.4375,475.351,70.9023Q475.351,71.4766,476.062,72.0371L476.855,72.6797Q478.017,73.5957,478.017,74.5527Q478.017,75.2637,477.614,75.8857Q477.211,76.5078,476.52,76.877Q475.83,77.2461,475.064,77.2461Q473.847,77.2461,473.013,76.125ZM486.718,74.8809L486.964,75.0859Q486.116,76.207,485.31,76.70609999999999Q484.503,77.2051,483.573,77.2051Q482.466,77.2051,481.796,76.4668Q481.126,75.7285,481.126,74.5117Q481.126,73.2812,481.776,72.0166Q482.425,70.752,483.403,69.9248Q484.38,69.0977,485.337,69.0977Q485.898,69.0977,486.26,69.4258Q486.622,69.7539,486.622,70.2734Q486.622,71.3262,485.474,72.3789Q484.325,73.4316,482.343,74.1699Q482.329,74.2793,482.329,74.416Q482.329,75.3594,482.849,75.9541Q483.368,76.5488,484.189,76.5488Q484.831,76.5488,485.433,76.1455Q486.034,75.7422,486.718,74.8809ZM482.343,73.8418Q483.82,73.1855,484.613,72.3789Q485.146,71.832,485.474,71.2031Q485.802,70.5742,485.802,70.0684Q485.802,69.4258,485.214,69.4258Q484.325,69.4258,483.416,70.8271Q482.507,72.2285,482.343,73.8418ZM511.858,70.9434L510.559,77L509.684,77Q509.178,75.3867,508.064,73.8691Q506.95,72.3516,505.541,71.3672Q504.612,72.8164,503.463,73.9648Q502.315,75.1133,501.023,75.9336Q499.731,76.7539,498.336,77.2051Q496.942,77.6562,495.602,77.6562Q495.233,77.6562,494.809,77.5879L495.247,76.5488Q495.971,76.6309,496.34,76.6309Q500.086,76.6309,503.012,73.7051Q503.614,73.1035,504.236,72.31739999999999Q504.858,71.5312,505.528,70.4785Q507.018,68.1406,508.071,66.10352L509.356,63.62891Q510.873,60.7168,511.694,59.68457Q512.514,58.652344,513.321,58.652344Q513.581,58.652344,513.779,58.761719Q513.977,58.871094,514.086,59.08301Q514.196,59.29492,514.196,59.55469Q514.196,59.74609,514.127,60.11523Q514.059,60.60742,514.045,60.64844L511.954,70.4785L512.924,70.4785L512.829,70.9434L511.858,70.9434ZM510.573,70.9434L505.801,70.9434L505.856,70.9844Q507.073,71.9141,507.948,72.8984Q508.823,73.8828,509.657,75.25L510.573,70.9434ZM506.17,70.4785L510.668,70.4785L512.61,61.18164Q512.706,60.73047,512.706,60.7168Q512.788,60.44336,512.788,60.22461Q512.788,59.88281,512.487,59.88281Q512.118,59.88281,511.598,60.66211Q511.079,61.44141,509.793,63.86133Q509.602,64.23047,509.014,65.35156Q508.522,66.24023,508.481,66.33594L507.168,68.7285Q506.348,70.2188,506.17,70.4785ZM520.354,57.736328L516.758,73.5L516.635,74.0332Q516.457,74.7852,516.457,75.3047Q516.457,75.7285,516.614,75.99510000000001Q516.771,76.2617,517.004,76.2617Q517.428,76.2617,518.357,75.25L518.576,75.4414L518.439,75.5918Q517.66,76.5078,517.291,76.8291Q516.922,77.1504,516.607,77.1504Q516.197,77.1504,515.89,76.69239999999999Q515.582,76.2344,515.582,75.6465Q515.582,75.2363,515.76,74.3477L518.918,58.433594L520.354,57.736328ZM523.791,63.64258Q524.146,63.64258,524.365,63.86133Q524.584,64.08008,524.584,64.43555Q524.584,64.77734,524.351,65.00977Q524.119,65.24219,523.791,65.24219Q523.476,65.24219,523.23,64.99609Q522.984,64.75,522.984,64.43555Q522.984,64.10742,523.216,63.875Q523.449,63.64258,523.791,63.64258ZM523.394,69.002L522.191,73.5Q521.89,74.6074,521.89,75.2773Q521.89,75.7148,522.041,75.9883Q522.191,76.2617,522.437,76.2617Q522.861,76.2617,523.791,75.25L524.009,75.4414L523.873,75.5918Q523.093,76.5078,522.724,76.8291Q522.355,77.1504,522.041,77.1504Q521.617,77.1504,521.323,76.7197Q521.029,76.2891,521.029,75.6465Q521.029,75.2363,521.193,74.3477L522.054,69.5625L523.394,69.002ZM525.15,82.4277L527.734,69.5625L529.046,69.002L528.144,72.9258Q529.156,70.8887,530.051,69.9932Q530.947,69.0977,532.013,69.0977Q532.833,69.0977,533.312,69.6992Q533.79,70.3008,533.79,71.3535Q533.79,72.4199,533.36,73.541Q532.929,74.6621,532.15,75.5781Q530.741,77.2734,529.046,77.2734Q527.98,77.2734,527.296,76.7129L525.888,82.4277L525.15,82.4277ZM527.501,75.8105Q528.075,76.9316,529.115,76.9316Q530.618,76.9316,531.74,74.4844Q532.656,72.5156,532.656,71.1758Q532.656,70.4512,532.382,70.0547Q532.109,69.6582,531.603,69.6582Q530.782,69.6582,529.88,70.7383Q529.019,71.8047,528.417,73.1172Q528.185,73.6367,527.987,74.2246Q527.788,74.8125,527.611,75.4277L527.501,75.8105ZM544.036,68.9199L542.751,73.9238Q542.546,74.7441,542.546,75.209Q542.546,75.6191,542.723,75.9199Q542.901,76.2207,543.161,76.2207Q543.557,76.2207,544.473,75.25L544.665,75.4414L544.514,75.6191Q543.79,76.4531,543.4,76.7881Q543.011,77.123,542.723,77.123Q542.286,77.123,541.965,76.66499999999999Q541.643,76.207,541.643,75.6055Q541.643,75.168,541.971,73.623L542.081,73.1035Q541.575,74.2793,540.727,75.3594Q539.305,77.1641,538.007,77.1641Q537.227,77.1641,536.776,76.6035Q536.325,76.043,536.325,75.0996Q536.325,73.8145,537.056,72.4062Q537.788,70.998,538.875,70.0889Q539.962,69.1797,540.987,69.1797Q542.067,69.1797,542.6,69.9727L542.751,69.4531L544.036,68.9199ZM542.464,70.6699Q542.3,70.1504,541.91,69.85640000000001Q541.52,69.5625,541.014,69.5625Q540.413,69.5625,539.743,70.11619999999999Q539.073,70.6699,538.513,71.6543Q538.075,72.4336,537.781,73.377Q537.487,74.3203,537.487,74.9355Q537.487,75.6328,537.754,76.0293Q538.02,76.4258,538.513,76.4258Q539.141,76.4258,539.825,75.8379Q540.509,75.25,541.179,74.1562Q541.589,73.5273,541.821,72.8984Q542.054,72.2695,542.341,71.1484L542.464,70.6699ZM545.614,81.8535L546.284,80.9512Q547.077,81.7988,548.075,81.7988Q549.127,81.7988,549.77,80.9648Q550.412,80.1309,550.823,78.2305L551.452,75.4004Q549.948,77.1641,548.731,77.1641Q548.02,77.1641,547.617,76.7266Q547.213,76.2891,547.213,75.5508Q547.213,75.0586,547.336,74.4707L548.266,69.5625L549.592,69.002L548.266,74.5117Q548.102,75.1816,548.102,75.5098Q548.102,75.9746,548.382,76.26859999999999Q548.662,76.5625,549.127,76.5625Q549.633,76.5625,550.242,76.1182Q550.85,75.6738,551.602,74.7852L552.778,69.5625L554.063,69.002L552.067,77.041Q551.711,78.4902,551.39,79.3105Q551.069,80.1309,550.645,80.6777Q549.305,82.4004,547.377,82.4004Q546.256,82.4004,545.614,81.8535ZM565.271,69.6992L564.232,74.252Q564.068,75.0039,564.068,75.3184Q564.068,75.8105,564.3,76.1113Q564.533,76.4121,564.916,76.4121Q565.285,76.4121,565.592,76.2002Q565.9,75.9883,566.529,75.3184L566.693,75.1543L566.898,75.3594Q566.091,76.3438,565.551,76.7471Q565.011,77.1504,564.492,77.1504Q563.836,77.1504,563.446,76.7197Q563.056,76.2891,563.056,75.5918Q563.056,75.0723,563.261,74.0879L564.15,69.6992L562.838,69.6992L562.933,69.2344L564.246,69.2344L565.011,65.54297L566.324,65.02344L565.367,69.2344L567.582,69.2344L567.486,69.6992L565.271,69.6992ZM569.077,74.375Q569.077,73.1445,569.74,71.9209Q570.404,70.6973,571.456,69.9316Q572.509,69.166,573.603,69.166Q574.751,69.166,575.455,69.9248Q576.159,70.6836,576.159,71.8867Q576.159,73.1992,575.51,74.4297Q574.861,75.6602,573.801,76.44630000000001Q572.741,77.2324,571.661,77.2324Q570.499,77.2324,569.788,76.44630000000001Q569.077,75.6602,569.077,74.375ZM574.929,71.3672Q574.929,70.5469,574.526,70.0137Q574.122,69.4805,573.493,69.4805Q572.919,69.4805,572.393,69.8496Q571.866,70.2188,571.429,70.9297Q570.937,71.75,570.615,72.8438Q570.294,73.9375,570.294,74.7852Q570.294,75.7969,570.691,76.3438Q571.087,76.8906,571.825,76.8906Q573.015,76.8906,573.917,75.2363Q574.382,74.3887,574.655,73.3359Q574.929,72.2832,574.929,71.3672ZM584.182,76.125L584.948,75.2227Q585.549,76.6445,586.862,76.6445Q587.545,76.6445,588.031,76.2002Q588.516,75.7559,588.516,75.168Q588.516,74.7441,588.284,74.4434Q588.051,74.1426,587.176,73.4316Q586.37,72.7754,586.089,72.3994Q585.809,72.0234,585.809,71.5312Q585.809,70.8887,586.185,70.3418Q586.561,69.7949,587.19,69.46000000000001Q587.819,69.125,588.516,69.125Q589.131,69.125,589.548,69.43260000000001Q589.965,69.7402,589.965,70.2188Q589.965,70.8477,589.432,71.0801Q589.35,70.4375,588.947,70.0752Q588.543,69.7129,587.914,69.7129Q587.354,69.7129,586.937,70.0752Q586.52,70.4375,586.52,70.9023Q586.52,71.4766,587.231,72.0371L588.024,72.6797Q589.186,73.5957,589.186,74.5527Q589.186,75.2637,588.783,75.8857Q588.379,76.5078,587.689,76.877Q586.998,77.2461,586.233,77.2461Q585.016,77.2461,584.182,76.125ZM598.037,74.9492Q597.203,76.125,596.417,76.66499999999999Q595.631,77.2051,594.674,77.2051Q593.621,77.2051,592.958,76.4668Q592.295,75.7285,592.295,74.5527Q592.295,73.3223,592.938,72.0508Q593.58,70.7793,594.585,69.9453Q595.59,69.1113,596.52,69.1113Q597.148,69.1113,597.531,69.46000000000001Q597.914,69.8086,597.914,70.3965Q597.914,70.9297,597.511,71.41499999999999Q597.107,71.9004,596.643,71.9004Q596.438,71.9004,596.273,71.7363Q597.162,71.3398,597.162,70.2598Q597.162,69.877,596.964,69.66499999999999Q596.766,69.4531,596.438,69.4531Q595.932,69.4531,595.419,69.8633Q594.906,70.2734,594.455,71.00489999999999Q594.004,71.7363,593.751,72.5635Q593.498,73.3906,593.498,74.2383Q593.498,75.25,593.977,75.8789Q594.455,76.5078,595.234,76.5078Q595.904,76.5078,596.533,76.084Q597.162,75.6602,597.846,74.7852L598.037,74.9492ZM608.091,68.9199L606.806,73.9238Q606.601,74.7441,606.601,75.209Q606.601,75.6191,606.779,75.9199Q606.957,76.2207,607.216,76.2207Q607.613,76.2207,608.529,75.25L608.72,75.4414L608.57,75.6191Q607.845,76.4531,607.456,76.7881Q607.066,77.123,606.779,77.123Q606.341,77.123,606.02,76.66499999999999Q605.699,76.207,605.699,75.6055Q605.699,75.168,606.027,73.623L606.136,73.1035Q605.63,74.2793,604.783,75.3594Q603.361,77.1641,602.062,77.1641Q601.283,77.1641,600.832,76.6035Q600.38,76.043,600.38,75.0996Q600.38,73.8145,601.112,72.4062Q601.843,70.998,602.93,70.0889Q604.017,69.1797,605.043,69.1797Q606.123,69.1797,606.656,69.9727L606.806,69.4531L608.091,68.9199ZM606.519,70.6699Q606.355,70.1504,605.965,69.85640000000001Q605.576,69.5625,605.07,69.5625Q604.468,69.5625,603.798,70.11619999999999Q603.128,70.6699,602.568,71.6543Q602.13,72.4336,601.836,73.377Q601.543,74.3203,601.543,74.9355Q601.543,75.6328,601.809,76.0293Q602.076,76.4258,602.568,76.4258Q603.197,76.4258,603.88,75.8379Q604.564,75.25,605.234,74.1562Q605.644,73.5273,605.877,72.8984Q606.109,72.2695,606.396,71.1484L606.519,70.6699ZM611.023,77.1367L612.472,69.5625L613.771,69.002L612.595,74.0195Q613.73,71.627,614.851,70.3828Q615.972,69.1387,616.997,69.1387Q617.503,69.1387,617.818,69.4736Q618.132,69.8086,618.132,70.3691Q618.132,70.6836,617.982,71.2578L617.845,71.832L617.435,73.5L617.298,74.0332Q617.093,74.8535,617.093,75.291Q617.093,75.7285,617.243,75.99510000000001Q617.394,76.2617,617.64,76.2617Q618.064,76.2617,618.993,75.25L619.212,75.4414L619.075,75.5918Q618.296,76.5078,617.927,76.8291Q617.558,77.1504,617.243,77.1504Q616.819,77.1504,616.526,76.7197Q616.232,76.2891,616.232,75.6465Q616.232,75.209,616.396,74.3477L616.929,71.4492Q617.038,70.7656,617.038,70.4922Q617.038,70.2051,616.888,70.0547Q616.737,69.9043,616.478,69.9043Q615.534,69.9043,614.153,71.9277Q613.484,72.8984,613.046,73.8486Q612.609,74.7988,612.062,76.4805L611.939,76.8496L611.023,77.1367Z" fill="#000000" fill-opacity="1"/></g></g></svg>