<svg xmlns="http://www.w3.org/2000/svg" xmlns:xlink="http://www.w3.org/1999/xlink" fill="none" version="1.1" width="1024" height="91" viewBox="0 0 1024 91"><g><g><path d="M354.896,4.52L357.152,2.696L360.8,6.008L358.88,7.88L350.24,7.88L350.24,10.808L354.32,10.808L356.576,8.936L360.272,12.248L358.304,14.168L350.24,14.168L350.24,17.144L355.664,17.144L357.92,15.272L361.616,18.584L359.648,20.504L332.096,20.504L331.28,17.144L342.704,17.144L342.704,14.168L334.64,14.168L333.824,10.808L342.704,10.808L342.704,7.88L332.48,7.88L331.664,4.52L342.704,4.52L342.704,0.776001L350.24,1.736L350.24,4.52L354.896,4.52ZM334.928,21.272L341.936,22.088L341.936,23.288L351.728,23.288L354.704,20.696L360.56,25.064L359.216,26.936L359.216,42.008Q359.216,46.328,354.944,46.328L351.152,46.328Q351.152,43.304,346.256,43.304L346.304,40.328Q348.704,40.232,350.816,40.232Q351.872,40.232,351.872,39.08L351.872,38.216L341.936,38.216L341.936,45.656L334.928,46.568L334.928,21.272ZM351.872,34.76L351.872,32.408L341.936,32.408L341.936,34.76L351.872,34.76ZM351.872,28.952L351.872,26.648L341.936,26.648L341.936,28.952L351.872,28.952ZM320.768,2.216Q326.384,4.712,329.84,7.928L324.992,13.4Q321.776,9.368,317.648,6.104L320.768,2.216ZM321.632,17.768L324.992,14.216L331.184,19.064L328.784,20.984L328.784,35.096Q330.512,34.376,332.24,33.512L333.968,37.112Q329.84,41.432,323.984,45.56L320.432,38.024Q321.296,37.784,322.16,37.496L322.16,25.208L322.064,25.208L322.064,21.8L317.984,21.8L317.024,17.768L321.632,17.768ZM381.968,1.736L390.272,4.28Q389.744,5.816,389.168,7.256L399.536,7.256L399.536,2.024L407.024,3.032L407.024,7.256L411.728,7.256L414.56,4.904L419.12,8.696L417.152,10.712L407.024,10.712L407.024,14.888L409.856,14.888L413.072,11.768L419.216,16.568L417.44,18.584L417.44,29.96L410.24,30.824L410.24,28.232L406.784,28.232Q406.16,32.744,403.76,36.2Q404.336,36.344,404.912,36.488Q410.192,38.072,419.312,38.072L414.656,45.704Q405.152,44.408,399.104,40.952Q394.976,44.072,388.688,45.944L386.912,42.488Q391.52,40.376,394.4,37.544Q391.76,35.048,390.128,31.976L391.52,30.68L388.64,31.064L388.64,12.632L395.648,13.448L395.648,14.888L399.536,14.888L399.536,10.712L388.88,10.712L388.448,8.984Q387.296,11.672,386,13.88L386,44.936L378.704,45.752L378.704,22.232Q377.744,22.952,376.88,23.432L374.288,21.416Q377.12,17.048,379.232,11.528Q381.2,6.392,381.968,1.736ZM393.44,30.44Q395.216,32.264,397.472,33.608Q398.96,31.064,399.344,28.232L395.648,28.232L395.648,30.152L393.44,30.44ZM410.24,24.68L410.24,18.344L407.024,18.344L407.024,24.68L410.24,24.68ZM399.536,24.68L399.536,18.344L395.648,18.344L395.648,24.68L399.536,24.68ZM435.632,1.256L443.552,2.408L443.552,4.04L466.4,4.04L469.232,0.776001L476.624,5.432L474.608,7.352L474.608,40.664Q474.608,46.136,469.568,46.136L465.152,46.136Q465.152,41.24,460.4,41.24L460.544,38.216Q462.704,38.36,465.536,38.36Q466.688,38.36,466.688,36.632L466.688,30.728L459.104,30.728L459.104,44.984L450.752,45.752L450.752,30.728L443.264,30.728Q442.736,34.904,441.296,37.928Q439.328,42.584,435.344,46.424L431.696,43.88Q435.632,35.624,435.632,25.688L435.632,1.256ZM443.552,26.792L450.752,26.792L450.752,19.256L443.552,19.256L443.552,26.792ZM459.104,19.256L459.104,26.792L466.688,26.792L466.688,19.256L459.104,19.256ZM443.552,15.32L450.752,15.32L450.752,7.976L443.552,7.976L443.552,15.32ZM459.104,7.976L459.104,15.32L466.688,15.32L466.688,7.976L459.104,7.976ZM493.328,25.976Q492.464,26.648,491.6,27.272L489.344,25.208Q494.192,19.16,498.032,10.568L502.64,12.488L502.64,2.84L506.912,3.368L506.912,14.264L507.968,14.264L507.968,1.4L512.96,2.024L512.96,14.264L514.016,14.264L514.016,2.984L518.192,3.464L518.192,18.296L514.016,18.824L514.016,17.72L502.64,17.72L502.64,15.944Q501.44,17.816,500.096,19.4L500.096,45.464L493.328,46.232L493.328,25.976ZM496.64,1.256L502.304,3.656Q498.32,9.56,491.888,13.352L489.488,11.144Q493.472,7.064,496.64,1.256ZM514.544,21.128L516.656,19.544L517.664,20.456Q520.448,11.672,521.072,1.448L527.6,2.6Q526.832,6.68,525.584,10.28L528.416,10.28L530.72,8.408L534.608,11.816L532.784,13.832L532.16,13.832Q531.92,25.208,528.608,33.08Q531.248,37.592,534.608,40.28L530.816,46.04Q527.648,42.824,525.488,38.84Q522.272,43.448,517.568,46.28L516.08,43.88Q520.448,39.272,523.04,33.176Q521.264,28.28,520.784,20.312Q520.16,21.272,519.536,22.136L520.112,22.664L518.096,24.584L502.352,24.584L501.488,21.128L514.544,21.128ZM523.376,15.704Q523.952,21.272,525.392,25.88Q526.736,20.312,526.928,13.832L524.24,13.832Q523.808,14.84,523.376,15.704ZM519.056,33.992L520.928,36.488Q517.328,41.096,513.824,44.264L510.656,39.416Q511.088,39.272,511.52,39.08L511.52,30.872L508.88,30.872L508.88,33.416Q508.88,37.928,507.152,40.808Q505.712,43.736,502.736,46.136L500.288,44.456Q502.928,39.32,502.928,33.128L502.928,25.544L508.88,26.408L508.88,27.416L511.52,27.416L513.344,25.208L518.288,28.808L516.944,30.344L516.944,35.768Q518,34.952,519.056,33.992ZM554.864,1.4L562.928,3.848Q562.352,5.768,561.728,7.496L574.112,7.496Q572.912,5.048,571.616,3.08L575.216,0.487999Q577.952,2.36,581.024,5.48L578.24,7.496L584.864,7.496L587.696,4.856L592.256,8.984L590.24,11.048L561.872,11.048L561.296,8.696Q560.288,11.528,559.136,13.832L559.136,45.272L551.792,46.088L551.792,23.72Q550.88,24.488,549.968,25.064L546.512,22.328Q549.584,17.672,551.888,11.816Q554.048,6.344,554.864,1.4ZM584.144,14.552L586.976,11.912L591.584,16.04L589.52,18.104L562.304,18.104L561.44,14.552L584.144,14.552ZM583.952,21.608L586.784,19.016L591.392,23.144L589.28,25.256L562.544,25.256L561.68,21.608L583.952,21.608ZM562.256,27.08L570.128,27.992L570.128,29.72L581.312,29.72L584.624,26.552L591.008,31.448L589.376,33.56L589.376,44.456L581.408,45.416L581.408,42.968L570.128,42.968L570.128,44.984L562.256,45.992L562.256,27.08ZM581.408,39.512L581.408,33.224L570.128,33.224L570.128,39.512L581.408,39.512ZM639.104,5.672L642.608,2.552L649.04,7.544L647.12,9.56L647.12,44.264L639.584,45.224L639.584,42.68L624.416,42.68L623.408,38.456L639.584,38.456L639.584,26.408L625.088,26.408L624.224,22.76L639.584,22.76L639.584,9.464L625.04,9.464L624.08,5.672L639.104,5.672ZM611.264,10.424L611.264,1.256L618.56,2.216L618.56,10.328L621.008,7.88L625.52,11.912L623.36,13.88L618.56,13.88L618.56,23.24Q620.624,22.712,622.208,22.184L623.696,25.256Q621.632,26.744,618.56,28.28L618.56,39.656Q618.56,45.656,612.944,45.656L609.632,45.656Q609.632,41.864,605.312,41.672L605.552,38.12Q608.048,38.648,610.016,38.648Q611.264,38.648,611.264,37.304L611.264,31.448Q609.152,32.264,606.8,33.128L604.544,26.072Q607.328,25.64,611.264,24.824L611.264,13.88L606.032,13.88L605.12,10.424L611.264,10.424ZM675.152,4.808L677.744,2.216L682.352,6.296L680.144,8.264L674.144,8.264Q673.376,13.352,671.744,17.72L674.048,17.72L676.064,15.56L681.632,19.592L680,21.32L680,41.96L674.336,42.584L674.336,39.56L671.408,39.56L671.408,43.112L665.84,43.784L665.84,28.424Q665.024,29.432,664.16,30.392L661.808,28.328Q665.984,19.256,667.424,8.264L663.344,8.264L662.432,4.808L675.152,4.808ZM671.408,35.96L674.336,35.96L674.336,21.176L671.408,21.176L671.408,35.96ZM692.96,31.4L695.312,29.336L698.384,32.072Q698.576,29.48,698.576,26.648L681.68,26.648Q683.408,16.184,684.848,8.696L691.088,9.752L688.832,23.288L693.152,23.288L695.84,7.352L683.6,7.352L682.736,3.8L696.032,3.8L698.72,1.448L704.96,6.008L702.608,8.264L700.4,21.704L701.504,20.84L707.36,25.544L705.296,27.272Q705.104,32.6,704.816,35.816Q704.528,39.608,704.192,40.28Q703.76,43.4,701.216,44.504Q699.968,45.416,694.448,45.416L694.592,43.976Q694.352,40.904,689.12,40.664L689.408,37.496Q693.632,38.648,696.08,38.648Q697.184,38.648,697.52,37.88Q697.856,36.728,698.096,34.52Q698.096,34.376,698.144,34.28L697.424,35L681.776,35L680.816,31.4L692.96,31.4Z" fill="#000000" fill-opacity="1"/></g><g><path d="M398.649,77L400.358,69.1113Q400.796,67.10156,401.062,64.9209Q401.329,62.74023,401.329,60.89453Q401.329,60.4707,401.315,60.14258L402.819,59.45898L402.819,59.8418Q402.819,60.74414,402.655,62.75391Q402.491,64.76367,402.313,65.84375Q403.147,63.88867,404.391,62.21387Q405.636,60.53906,406.941,59.56836Q408.247,58.597656,409.313,58.597656Q410.38,58.597656,411.029,59.45215Q411.679,60.30664,411.679,61.74219Q411.679,63.54688,410.899,65.36523Q410.12,67.18359,408.773,68.7148Q407.427,70.2461,405.82,71.1279Q404.214,72.0098,402.641,72.0098Q402.286,72.0098,401.807,71.9141L402.532,70.9434Q403.202,71.1621,403.899,71.1621Q405.034,71.1621,406.176,70.4033Q407.317,69.6445,408.22,68.2637Q409.054,66.99219,409.641,65.09863Q410.229,63.20508,410.229,61.82422Q410.229,60.67578,409.84,60.0332Q409.45,59.39062,408.753,59.39062Q407.768,59.39062,406.483,60.51855Q405.198,61.64648,403.968,63.57422Q403.079,64.94141,402.484,66.52734Q401.889,68.1133,401.425,70.2051L399.948,77L398.649,77ZM417.194,57.736328L413.598,73.5L413.475,74.0332Q413.297,74.7852,413.297,75.3047Q413.297,75.7285,413.454,75.99510000000001Q413.612,76.2617,413.844,76.2617Q414.268,76.2617,415.198,75.25L415.416,75.4414L415.28,75.5918Q414.5,76.5078,414.131,76.8291Q413.762,77.1504,413.448,77.1504Q413.038,77.1504,412.73,76.69239999999999Q412.422,76.2344,412.422,75.6465Q412.422,75.2363,412.6,74.3477L415.758,58.433594L417.194,57.736328ZM423.092,74.8809L423.338,75.0859Q422.49,76.207,421.684,76.70609999999999Q420.877,77.2051,419.947,77.2051Q418.84,77.2051,418.17,76.4668Q417.5,75.7285,417.5,74.5117Q417.5,73.2812,418.149,72.0166Q418.799,70.752,419.776,69.9248Q420.754,69.0977,421.711,69.0977Q422.271,69.0977,422.634,69.4258Q422.996,69.7539,422.996,70.2734Q422.996,71.3262,421.848,72.3789Q420.699,73.4316,418.717,74.1699Q418.703,74.2793,418.703,74.416Q418.703,75.3594,419.223,75.9541Q419.742,76.5488,420.562,76.5488Q421.205,76.5488,421.807,76.1455Q422.408,75.7422,423.092,74.8809ZM418.717,73.8418Q420.193,73.1855,420.986,72.3789Q421.52,71.832,421.848,71.2031Q422.176,70.5742,422.176,70.0684Q422.176,69.4258,421.588,69.4258Q420.699,69.4258,419.79,70.8271Q418.881,72.2285,418.717,73.8418ZM433.392,68.9199L432.107,73.9238Q431.902,74.7441,431.902,75.209Q431.902,75.6191,432.08,75.9199Q432.257,76.2207,432.517,76.2207Q432.914,76.2207,433.83,75.25L434.021,75.4414L433.871,75.6191Q433.146,76.4531,432.756,76.7881Q432.367,77.123,432.08,77.123Q431.642,77.123,431.321,76.66499999999999Q431,76.207,431,75.6055Q431,75.168,431.328,73.623L431.437,73.1035Q430.931,74.2793,430.084,75.3594Q428.662,77.1641,427.363,77.1641Q426.584,77.1641,426.132,76.6035Q425.681,76.043,425.681,75.0996Q425.681,73.8145,426.413,72.4062Q427.144,70.998,428.231,70.0889Q429.318,69.1797,430.343,69.1797Q431.423,69.1797,431.957,69.9727L432.107,69.4531L433.392,68.9199ZM431.82,70.6699Q431.656,70.1504,431.266,69.85640000000001Q430.877,69.5625,430.371,69.5625Q429.769,69.5625,429.099,70.11619999999999Q428.429,70.6699,427.869,71.6543Q427.431,72.4336,427.137,73.377Q426.843,74.3203,426.843,74.9355Q426.843,75.6328,427.11,76.0293Q427.377,76.4258,427.869,76.4258Q428.498,76.4258,429.181,75.8379Q429.865,75.25,430.535,74.1562Q430.945,73.5273,431.177,72.8984Q431.41,72.2695,431.697,71.1484L431.82,70.6699ZM435.435,76.125L436.2,75.2227Q436.802,76.6445,438.114,76.6445Q438.798,76.6445,439.283,76.2002Q439.769,75.7559,439.769,75.168Q439.769,74.7441,439.536,74.4434Q439.304,74.1426,438.429,73.4316Q437.622,72.7754,437.342,72.3994Q437.062,72.0234,437.062,71.5312Q437.062,70.8887,437.438,70.3418Q437.814,69.7949,438.443,69.46000000000001Q439.072,69.125,439.769,69.125Q440.384,69.125,440.801,69.43260000000001Q441.218,69.7402,441.218,70.2188Q441.218,70.8477,440.685,71.0801Q440.603,70.4375,440.199,70.0752Q439.796,69.7129,439.167,69.7129Q438.607,69.7129,438.19,70.0752Q437.773,70.4375,437.773,70.9023Q437.773,71.4766,438.484,72.0371L439.277,72.6797Q440.439,73.5957,440.439,74.5527Q440.439,75.2637,440.035,75.8857Q439.632,76.5078,438.942,76.877Q438.251,77.2461,437.486,77.2461Q436.269,77.2461,435.435,76.125ZM449.139,74.8809L449.386,75.0859Q448.538,76.207,447.731,76.70609999999999Q446.925,77.2051,445.995,77.2051Q444.888,77.2051,444.218,76.4668Q443.548,75.7285,443.548,74.5117Q443.548,73.2812,444.197,72.0166Q444.846,70.752,445.824,69.9248Q446.802,69.0977,447.759,69.0977Q448.319,69.0977,448.681,69.4258Q449.044,69.7539,449.044,70.2734Q449.044,71.3262,447.895,72.3789Q446.747,73.4316,444.764,74.1699Q444.751,74.2793,444.751,74.416Q444.751,75.3594,445.27,75.9541Q445.79,76.5488,446.61,76.5488Q447.253,76.5488,447.854,76.1455Q448.456,75.7422,449.139,74.8809ZM444.764,73.8418Q446.241,73.1855,447.034,72.3789Q447.567,71.832,447.895,71.2031Q448.223,70.5742,448.223,70.0684Q448.223,69.4258,447.636,69.4258Q446.747,69.4258,445.838,70.8271Q444.929,72.2285,444.764,73.8418ZM460.758,69.002L459.432,74.293Q459.254,75.0039,459.254,75.4961Q459.254,75.9746,459.555,76.2617Q459.855,76.5488,460.334,76.5488Q461.496,76.5488,462.754,74.6484L462.809,74.5664Q462.836,74.4297,462.85,74.3477L463.711,69.5625L465.051,69.002L463.848,73.5Q463.547,74.6074,463.547,75.2773Q463.547,75.7148,463.697,75.9883Q463.848,76.2617,464.094,76.2617Q464.518,76.2617,465.447,75.25L465.666,75.4414L465.529,75.5918Q464.75,76.5078,464.381,76.8291Q464.012,77.1504,463.697,77.1504Q463.273,77.1504,462.979,76.7197Q462.686,76.2891,462.686,75.6465Q462.686,75.4414,462.699,75.2637Q461.277,77.1504,459.883,77.1504Q459.186,77.1504,458.769,76.7471Q458.352,76.3438,458.352,75.6738Q458.352,75.1543,458.502,74.4023L459.432,69.5625L460.758,69.002ZM467.066,76.125L467.832,75.2227Q468.433,76.6445,469.746,76.6445Q470.429,76.6445,470.915,76.2002Q471.4,75.7559,471.4,75.168Q471.4,74.7441,471.168,74.4434Q470.935,74.1426,470.06,73.4316Q469.254,72.7754,468.973,72.3994Q468.693,72.0234,468.693,71.5312Q468.693,70.8887,469.069,70.3418Q469.445,69.7949,470.074,69.46000000000001Q470.703,69.125,471.4,69.125Q472.015,69.125,472.432,69.43260000000001Q472.849,69.7402,472.849,70.2188Q472.849,70.8477,472.316,71.0801Q472.234,70.4375,471.831,70.0752Q471.427,69.7129,470.798,69.7129Q470.238,69.7129,469.821,70.0752Q469.404,70.4375,469.404,70.9023Q469.404,71.4766,470.115,72.0371L470.908,72.6797Q472.07,73.5957,472.07,74.5527Q472.07,75.2637,471.667,75.8857Q471.263,76.5078,470.573,76.877Q469.882,77.2461,469.117,77.2461Q467.9,77.2461,467.066,76.125ZM480.771,74.8809L481.017,75.0859Q480.169,76.207,479.363,76.70609999999999Q478.556,77.2051,477.626,77.2051Q476.519,77.2051,475.849,76.4668Q475.179,75.7285,475.179,74.5117Q475.179,73.2812,475.828,72.0166Q476.478,70.752,477.455,69.9248Q478.433,69.0977,479.39,69.0977Q479.95,69.0977,480.313,69.4258Q480.675,69.7539,480.675,70.2734Q480.675,71.3262,479.527,72.3789Q478.378,73.4316,476.396,74.1699Q476.382,74.2793,476.382,74.416Q476.382,75.3594,476.902,75.9541Q477.421,76.5488,478.241,76.5488Q478.884,76.5488,479.486,76.1455Q480.087,75.7422,480.771,74.8809ZM476.396,73.8418Q477.872,73.1855,478.665,72.3789Q479.198,71.832,479.527,71.2031Q479.855,70.5742,479.855,70.0684Q479.855,69.4258,479.267,69.4258Q478.378,69.4258,477.469,70.8271Q476.56,72.2285,476.396,73.8418ZM510.723,59.67773L511.954,59.1582Q511.913,64.27148,508.973,70.4922Q508.084,72.3652,507.114,73.9443Q506.143,75.5234,505.364,76.3301Q504.858,76.8633,504.489,77.082Q504.12,77.3008,503.764,77.3008Q503.122,77.3008,502.882,76.7539Q502.643,76.207,502.643,74.7305Q502.643,73.5547,502.657,72.9805Q502.657,71.7227,502.766,69.0293Q502.875,66.45898,502.998,65.11914L503.026,64.69531Q502.028,68.6055,499.909,72.4473Q498.569,74.9082,497.215,76.4395Q496.45,77.3281,495.752,77.3281Q494.932,77.3281,494.727,76.4805Q494.672,76.207,494.672,75.3184L494.672,74.9082L495.164,62.08398Q495.206,61.31836,495.206,60.83984Q495.206,59.11719,494.331,59.11719Q493.797,59.11719,493.428,59.62305Q493.059,60.12891,492.676,61.38672Q492.088,63.32812,491.76,65.61133L490.735,64.92773Q491.036,62.97266,491.562,61.55078Q492.088,60.12891,492.792,59.41797Q493.497,58.707031,494.317,58.707031Q496.395,58.707031,496.395,62.38477Q496.395,63.02734,496.381,63.42383L495.944,74.5117Q495.93,74.6621,495.93,74.9902Q495.93,75.6328,496.033,75.8926Q496.135,76.1523,496.395,76.1523Q496.75,76.1523,497.229,75.667Q497.707,75.1816,498.432,74.0742Q499.321,72.7344,500.244,70.8682Q501.166,69.002,501.823,67.16992Q502.137,66.30859,502.452,65.18066Q502.766,64.05273,502.951,63.10938Q503.135,62.16602,503.381,60.40234L503.422,60.07422L504.748,59.5L504.721,59.81445L504.284,64.12109Q504.229,64.79102,504.147,66.0625Q504.065,67.33398,504.031,68.36619999999999Q503.997,69.3984,503.956,70.5879Q503.887,73.0898,503.887,74.3066Q503.887,75.4141,503.99,75.80369999999999Q504.092,76.1934,504.393,76.1934Q504.707,76.1934,505.152,75.7695Q505.596,75.3457,506.239,74.4297Q507.647,72.4199,508.659,70.1367Q509.67,67.85352,510.21,65.42676Q510.75,63,510.75,60.82617Q510.75,60.68945,510.723,59.67773ZM517.838,74.8809L518.084,75.0859Q517.236,76.207,516.43,76.70609999999999Q515.623,77.2051,514.693,77.2051Q513.586,77.2051,512.916,76.4668Q512.246,75.7285,512.246,74.5117Q512.246,73.2812,512.896,72.0166Q513.545,70.752,514.522,69.9248Q515.5,69.0977,516.457,69.0977Q517.018,69.0977,517.38,69.4258Q517.742,69.7539,517.742,70.2734Q517.742,71.3262,516.594,72.3789Q515.445,73.4316,513.463,74.1699Q513.449,74.2793,513.449,74.416Q513.449,75.3594,513.969,75.9541Q514.488,76.5488,515.309,76.5488Q515.951,76.5488,516.553,76.1455Q517.154,75.7422,517.838,74.8809ZM513.463,73.8418Q514.939,73.1855,515.732,72.3789Q516.266,71.832,516.594,71.2031Q516.922,70.5742,516.922,70.0684Q516.922,69.4258,516.334,69.4258Q515.445,69.4258,514.536,70.8271Q513.627,72.2285,513.463,73.8418ZM528.685,66.24023L528.302,65.20117Q529.574,64.83203,530.709,64.06641Q531.843,63.30078,532.493,62.37109Q533.142,61.44141,533.142,60.53906Q533.142,59.86914,532.712,59.48633Q532.281,59.10352,531.556,59.10352Q530.695,59.10352,529.67,59.55469Q528.644,60.00586,527.639,60.8125Q526.634,61.61914,525.718,62.75391Q524.72,63.99805,524.05,65.35156Q523.38,66.70508,523.039,68.10640000000001Q522.697,69.5078,522.697,71.0117Q522.697,73.5684,523.873,75.0654Q525.048,76.5625,527.086,76.5625Q528.398,76.5625,529.635,75.9746Q530.873,75.3867,532.472,74.0059L532.691,73.8281L532.855,74.1289Q531.228,75.7422,529.588,76.5488Q527.947,77.3555,526.279,77.3555Q524.775,77.3555,523.606,76.6377Q522.437,75.9199,521.801,74.6279Q521.166,73.3359,521.166,71.5996Q521.166,70.3418,521.535,68.9746Q521.904,67.60742,522.635,66.20605Q523.367,64.80469,524.365,63.49219Q525.418,62.09766,526.703,60.99707Q527.988,59.89648,529.28,59.29492Q530.572,58.693359,531.597,58.693359Q532.568,58.693359,533.149,59.24707Q533.73,59.80078,533.73,60.74414Q533.73,61.79688,533.033,62.93848Q532.336,64.08008,531.173,64.97559Q530.011,65.87109,528.685,66.24023ZM535.253,77.1367L538.89,58.433594L540.325,57.736328L536.538,74.3887Q536.593,74.293,536.593,74.2656L536.907,73.5547Q537.714,71.7227,538.931,70.3828Q540.079,69.1387,541.05,69.1387Q541.57,69.1387,541.884,69.4736Q542.198,69.8086,542.198,70.3691Q542.198,70.6836,542.048,71.2578L541.911,71.832L541.488,73.5L541.365,74.0332Q541.159,74.8535,541.159,75.291Q541.159,75.7285,541.31,75.99510000000001Q541.46,76.2617,541.706,76.2617Q542.13,76.2617,543.06,75.25L543.265,75.4414L543.142,75.5918Q542.363,76.5078,541.987,76.8291Q541.611,77.1504,541.31,77.1504Q540.886,77.1504,540.585,76.6992Q540.284,76.248,540.284,75.6465Q540.284,75.2773,540.462,74.3477L540.982,71.4492Q541.105,70.8066,541.105,70.4922Q541.105,70.2051,540.954,70.0547Q540.804,69.9043,540.544,69.9043Q540.038,69.9043,539.382,70.499Q538.726,71.0938,538.063,72.1465Q537.4,73.1992,536.907,74.3955Q536.415,75.5918,536.169,76.8496L535.253,77.1367ZM553.141,68.9199L551.856,73.9238Q551.651,74.7441,551.651,75.209Q551.651,75.6191,551.829,75.9199Q552.007,76.2207,552.266,76.2207Q552.663,76.2207,553.579,75.25L553.77,75.4414L553.62,75.6191Q552.895,76.4531,552.506,76.7881Q552.116,77.123,551.829,77.123Q551.391,77.123,551.07,76.66499999999999Q550.749,76.207,550.749,75.6055Q550.749,75.168,551.077,73.623L551.186,73.1035Q550.68,74.2793,549.833,75.3594Q548.411,77.1641,547.112,77.1641Q546.333,77.1641,545.882,76.6035Q545.43,76.043,545.43,75.0996Q545.43,73.8145,546.162,72.4062Q546.893,70.998,547.98,70.0889Q549.067,69.1797,550.093,69.1797Q551.173,69.1797,551.706,69.9727L551.856,69.4531L553.141,68.9199ZM551.569,70.6699Q551.405,70.1504,551.015,69.85640000000001Q550.626,69.5625,550.12,69.5625Q549.518,69.5625,548.848,70.11619999999999Q548.179,70.6699,547.618,71.6543Q547.18,72.4336,546.887,73.377Q546.593,74.3203,546.593,74.9355Q546.593,75.6328,546.859,76.0293Q547.126,76.4258,547.618,76.4258Q548.247,76.4258,548.93,75.8379Q549.614,75.25,550.284,74.1562Q550.694,73.5273,550.927,72.8984Q551.159,72.2695,551.446,71.1484L551.569,70.6699ZM558.547,69.6992L557.508,74.252Q557.344,75.0039,557.344,75.3184Q557.344,75.8105,557.577,76.1113Q557.809,76.4121,558.192,76.4121Q558.561,76.4121,558.869,76.2002Q559.176,75.9883,559.805,75.3184L559.969,75.1543L560.174,75.3594Q559.368,76.3438,558.828,76.7471Q558.287,77.1504,557.768,77.1504Q557.112,77.1504,556.722,76.7197Q556.332,76.2891,556.332,75.5918Q556.332,75.0723,556.537,74.0879L557.426,69.6992L556.114,69.6992L556.209,69.2344L557.522,69.2344L558.287,65.54297L559.6,65.02344L558.643,69.2344L560.858,69.2344L560.762,69.6992L558.547,69.6992ZM571.218,69.6992L570.179,74.252Q570.015,75.0039,570.015,75.3184Q570.015,75.8105,570.248,76.1113Q570.48,76.4121,570.863,76.4121Q571.232,76.4121,571.54,76.2002Q571.847,75.9883,572.476,75.3184L572.64,75.1543L572.845,75.3594Q572.039,76.3438,571.499,76.7471Q570.959,77.1504,570.439,77.1504Q569.783,77.1504,569.393,76.7197Q569.004,76.2891,569.004,75.5918Q569.004,75.0723,569.209,74.0879L570.097,69.6992L568.785,69.6992L568.88,69.2344L570.193,69.2344L570.959,65.54297L572.271,65.02344L571.314,69.2344L573.529,69.2344L573.433,69.6992L571.218,69.6992ZM575.025,74.375Q575.025,73.1445,575.688,71.9209Q576.351,70.6973,577.404,69.9316Q578.456,69.166,579.55,69.166Q580.698,69.166,581.403,69.9248Q582.107,70.6836,582.107,71.8867Q582.107,73.1992,581.457,74.4297Q580.808,75.6602,579.748,76.44630000000001Q578.689,77.2324,577.609,77.2324Q576.446,77.2324,575.736,76.44630000000001Q575.025,75.6602,575.025,74.375ZM580.876,71.3672Q580.876,70.5469,580.473,70.0137Q580.07,69.4805,579.441,69.4805Q578.866,69.4805,578.34,69.8496Q577.814,70.2188,577.376,70.9297Q576.884,71.75,576.563,72.8438Q576.241,73.9375,576.241,74.7852Q576.241,75.7969,576.638,76.3438Q577.034,76.8906,577.773,76.8906Q578.962,76.8906,579.864,75.2363Q580.329,74.3887,580.603,73.3359Q580.876,72.2832,580.876,71.3672ZM590.129,76.125L590.895,75.2227Q591.496,76.6445,592.809,76.6445Q593.493,76.6445,593.978,76.2002Q594.463,75.7559,594.463,75.168Q594.463,74.7441,594.231,74.4434Q593.998,74.1426,593.123,73.4316Q592.317,72.7754,592.036,72.3994Q591.756,72.0234,591.756,71.5312Q591.756,70.8887,592.132,70.3418Q592.508,69.7949,593.137,69.46000000000001Q593.766,69.125,594.463,69.125Q595.078,69.125,595.495,69.43260000000001Q595.912,69.7402,595.912,70.2188Q595.912,70.8477,595.379,71.0801Q595.297,70.4375,594.894,70.0752Q594.491,69.7129,593.862,69.7129Q593.301,69.7129,592.884,70.0752Q592.467,70.4375,592.467,70.9023Q592.467,71.4766,593.178,72.0371L593.971,72.6797Q595.133,73.5957,595.133,74.5527Q595.133,75.2637,594.73,75.8857Q594.327,76.5078,593.636,76.877Q592.946,77.2461,592.18,77.2461Q590.963,77.2461,590.129,76.125ZM603.984,74.9492Q603.15,76.125,602.364,76.66499999999999Q601.578,77.2051,600.621,77.2051Q599.568,77.2051,598.905,76.4668Q598.242,75.7285,598.242,74.5527Q598.242,73.3223,598.885,72.0508Q599.527,70.7793,600.532,69.9453Q601.537,69.1113,602.467,69.1113Q603.096,69.1113,603.479,69.46000000000001Q603.861,69.8086,603.861,70.3965Q603.861,70.9297,603.458,71.41499999999999Q603.055,71.9004,602.59,71.9004Q602.385,71.9004,602.221,71.7363Q603.109,71.3398,603.109,70.2598Q603.109,69.877,602.911,69.66499999999999Q602.713,69.4531,602.385,69.4531Q601.879,69.4531,601.366,69.8633Q600.854,70.2734,600.402,71.00489999999999Q599.951,71.7363,599.698,72.5635Q599.445,73.3906,599.445,74.2383Q599.445,75.25,599.924,75.8789Q600.402,76.5078,601.182,76.5078Q601.852,76.5078,602.48,76.084Q603.109,75.6602,603.793,74.7852L603.984,74.9492ZM614.039,68.9199L612.753,73.9238Q612.548,74.7441,612.548,75.209Q612.548,75.6191,612.726,75.9199Q612.904,76.2207,613.164,76.2207Q613.56,76.2207,614.476,75.25L614.668,75.4414L614.517,75.6191Q613.793,76.4531,613.403,76.7881Q613.013,77.123,612.726,77.123Q612.289,77.123,611.967,76.66499999999999Q611.646,76.207,611.646,75.6055Q611.646,75.168,611.974,73.623L612.084,73.1035Q611.578,74.2793,610.73,75.3594Q609.308,77.1641,608.009,77.1641Q607.23,77.1641,606.779,76.6035Q606.328,76.043,606.328,75.0996Q606.328,73.8145,607.059,72.4062Q607.791,70.998,608.878,70.0889Q609.964,69.1797,610.99,69.1797Q612.07,69.1797,612.603,69.9727L612.753,69.4531L614.039,68.9199ZM612.466,70.6699Q612.302,70.1504,611.913,69.85640000000001Q611.523,69.5625,611.017,69.5625Q610.416,69.5625,609.746,70.11619999999999Q609.076,70.6699,608.515,71.6543Q608.078,72.4336,607.784,73.377Q607.49,74.3203,607.49,74.9355Q607.49,75.6328,607.756,76.0293Q608.023,76.4258,608.515,76.4258Q609.144,76.4258,609.828,75.8379Q610.511,75.25,611.181,74.1562Q611.591,73.5273,611.824,72.8984Q612.056,72.2695,612.343,71.1484L612.466,70.6699ZM616.97,77.1367L618.419,69.5625L619.718,69.002L618.542,74.0195Q619.677,71.627,620.798,70.3828Q621.919,69.1387,622.944,69.1387Q623.45,69.1387,623.765,69.4736Q624.079,69.8086,624.079,70.3691Q624.079,70.6836,623.929,71.2578L623.792,71.832L623.382,73.5L623.245,74.0332Q623.04,74.8535,623.04,75.291Q623.04,75.7285,623.191,75.99510000000001Q623.341,76.2617,623.587,76.2617Q624.011,76.2617,624.941,75.25L625.159,75.4414L625.023,75.5918Q624.243,76.5078,623.874,76.8291Q623.505,77.1504,623.191,77.1504Q622.767,77.1504,622.473,76.7197Q622.179,76.2891,622.179,75.6465Q622.179,75.209,622.343,74.3477L622.876,71.4492Q622.985,70.7656,622.985,70.4922Q622.985,70.2051,622.835,70.0547Q622.685,69.9043,622.425,69.9043Q621.482,69.9043,620.101,71.9277Q619.431,72.8984,618.993,73.8486Q618.556,74.7988,618.009,76.4805L617.886,76.8496L616.97,77.1367Z" fill="#000000" fill-opacity="1"/></g></g></svg>