<svg xmlns="http://www.w3.org/2000/svg" xmlns:xlink="http://www.w3.org/1999/xlink" fill="none" version="1.1" width="250" height="920" viewBox="0 0 250 920"><g><g></g><g></g><g><g><g><path d="M43.678,888.1582Q43.678,888.3076,43.3791,888.5229Q43.0803,888.7383,42.6057,888.9009Q42.1311,889.0635,41.5686,889.0635L41.1555,889.0635L41.1555,874.58789L43.7483,875.65137L45.7082,875.65137L46.9123,874.3418L49.2414,876.16992Q49.144800000000004,876.30176,48.9734,876.39844Q48.802,876.49512,48.5383,876.57422L48.5383,887.6396Q48.520700000000005,887.7451,48.178,887.9517Q47.8352,888.1582,47.3298,888.3384Q46.8244,888.5186,46.323499999999996,888.5186L45.8928,888.5186L45.8928,886.4004L43.678,886.4004L43.678,888.1582ZM32.46312,883.0693Q32.718,882.2959,33.02122,881.2061Q33.32445,880.1162,33.63206,878.89453Q33.79027,878.19141,33.95726,877.50586L32.340073,877.50586L32.17308,877.00488L34.06273,877.00488Q34.11546,876.73242,34.18578,876.45996Q34.44066,875.27344,34.62962,874.26709Q34.81859,873.26074,34.8889,872.62793L38.0266,873.00586Q37.99144,873.18164,37.80687,873.33105Q37.66624,873.4541,37.30589,873.50684Q37.19164,874.06934,37.01585,874.8252Q36.77855,875.77441,36.51488,876.9082Q36.4973,876.96973,36.47972,877.00488L37.57835,877.00488L38.78246,875.7041L40.96214,877.59375Q40.88304,877.76074,40.720439999999996,877.83105Q40.55785,877.90137,40.25902,877.9541Q40.03929,879.79102,39.62621,881.5225Q39.2307,883.1221,38.47484,884.5459Q38.95824,884.792,39.31859,885.0469Q40.179919999999996,885.6797,40.48753,886.2554Q40.79515,886.8311,40.69847,887.2881Q40.60179,887.7451,40.22386,888.0264Q39.845929999999996,888.3076,39.340559999999996,888.334Q38.83519,888.3604,38.36937,888.0703Q37.91234,887.3672,37.25316,886.6465Q37.17406,886.5938,37.12132,886.5234Q36.62035,887.0859,36.02269,887.5869Q34.54613,888.8262,32.278549,889.6963L32.137924,889.4941Q33.71996,888.4658,34.76585,887.1035Q35.39867,886.2861,35.88206,885.3545Q35.82933,885.3193,35.79417,885.2842Q34.98558,884.6162,34.12865,884.0493Q33.27171,883.4824,32.46312,883.0693ZM45.8928,885.8906L45.8928,876.15234L43.678,876.15234L43.678,885.8906L45.8928,885.8906ZM36.58519,883.7373Q37.08617,882.2959,37.37621,880.7139Q37.64867,879.14062,37.75414,877.50586L36.34789,877.50586Q36.13695,878.34961,35.91722,879.2373Q35.59203,880.4414,35.26683,881.5576Q35.00316,882.4189,34.76585,883.1748Q35.7766,883.4473,36.58519,883.7373ZM64.7007,880.4766L65.6939,879.36035L67.8472,880.9775Q67.7769,881.0918,67.5967,881.1973Q67.4165,881.3027,67.1265,881.3555L67.1265,884.7393Q67.1265,885.3545,66.9375,885.8027Q66.74860000000001,886.251,66.16409999999999,886.5146Q65.5796,886.7783,64.3755,886.8662Q64.3579,886.4531,64.2876,886.1279Q64.2173,885.8027,64.0152,885.6094Q63.8394,885.4072,63.5405,885.2534Q63.2417,885.0996,62.6089,885.0117L62.6089,884.7744L62.8638,884.792Q63.1011,884.8184,63.439499999999995,884.8359Q63.7778,884.8535,64.0943,884.8711Q64.41069999999999,884.8887,64.5601,884.8887Q64.7534,884.8887,64.815,884.7964Q64.8765,884.7041,64.8765,884.5635L64.8765,884.0186Q64.8589,884.0537,64.8237,884.0977Q64.5777,884.3613,64.2173,884.3613Q63.8569,884.3613,63.5318,884.001Q63.5845,883.623,63.5669,883.1924Q63.118700000000004,883.4121,62.5737,883.6582Q61.606899999999996,884.0977,60.2183,884.6689Q60.147999999999996,884.8535,60.0029,884.9414Q59.8579,885.0293,59.6997,885.0645L58.9614,883.1221L58.9614,885.9521Q58.9614,886.0576,58.6626,886.229Q58.3638,886.4004,57.9155,886.541Q57.484899999999996,886.6816,57.0103,886.6816Q57.9155,886.9893,59.1548,887.1211Q60.5435,887.2793,62.5386,887.2793Q64.0327,887.2793,65.3643,887.2441Q66.69579999999999,887.209,68.19,887.1387L68.19,887.332Q67.4693,887.5166,67.0737,888.1011Q66.6782,888.6855,66.5903,889.4238L61.7476,889.4238Q59.8228,889.4238,58.5703,889.0898Q57.3179,888.7559,56.4653,888.0615Q55.6128,887.3672,54.8921,886.2686Q54.707499999999996,885.9697,54.5449,885.9961Q54.3823,886.0225,54.2241,886.2686Q54.0659,886.5938,53.7671,887.0991Q53.4683,887.6045,53.134299999999996,888.1802Q52.8003,888.7559,52.5278,889.292Q52.5894,889.5469,52.3345,889.7139L50.7525,887.2617Q51.2183,887.0068,51.7852,886.686Q52.3521,886.3652,52.8882,886.04L52.8882,879.82617L51.0161,879.82617L50.9107,879.30762L52.606899999999996,879.30762L53.7935,877.76074L56.272,879.73828Q56.1489,879.86133,55.9336,879.97119Q55.7183,880.0811,55.3228,880.1514L55.3228,885.75Q55.8941,886.2158,56.6148,886.5234L56.6148,879.51855L57.353,879.80859L57.353,872.90039L59.734899999999996,873.81445L63.9624,873.81445L65.00829999999999,872.68066L67.16159999999999,874.32422Q67.09129999999999,874.42969,66.9024,874.53516Q66.71340000000001,874.64062,66.4497,874.70215L66.4497,878.96484Q66.4497,879.03516,66.13329999999999,879.18018Q65.8169,879.3252,65.3775,879.45264Q64.938,879.58008,64.53370000000001,879.58008L64.1382,879.58008L64.1382,878.79785L62.9341,878.79785L62.9341,880.4766L64.7007,880.4766ZM51.903800000000004,873.02344Q53.3628,873.33105,54.1978,873.854Q55.0327,874.37695,55.393100000000004,874.97021Q55.7534,875.56348,55.7271,876.09521Q55.7007,876.62695,55.384299999999996,876.97852Q55.0679,877.33008,54.5757,877.37402Q54.0835,877.41797,53.521,877.00488Q53.397999999999996,876.31934,53.1167,875.625Q52.835499999999996,874.93066,52.4751,874.28467Q52.1148,873.63867,51.7368,873.11133L51.903800000000004,873.02344ZM60.719300000000004,882.7793L60.719300000000004,880.9775L58.9614,880.9775L58.9614,882.7793L60.147999999999996,882.7793Q60.4116,882.7793,60.719300000000004,882.7793ZM59.620599999999996,879.10547Q59.620599999999996,879.20215,59.335,879.36914Q59.0493,879.53613,58.6055,879.67236Q58.1616,879.80859,57.678200000000004,879.80859L57.353,879.80859L59.0845,880.4766L60.719300000000004,880.4766L60.719300000000004,878.79785L59.620599999999996,878.79785L59.620599999999996,879.10547ZM63.4614,881.5576Q64.3579,882.0059,64.7359,882.4893Q64.80619999999999,882.6035,64.8765,882.7266L64.8765,880.9775L62.9341,880.9775L62.9341,882.7266Q63.2241,882.7266,63.5142,882.709Q63.4966,882.5244,63.4614,882.3311Q63.3648,881.9355,63.2417,881.6279L63.4614,881.5576ZM64.1382,876.54785L62.9341,876.54785L62.9341,878.29688L64.1382,878.29688L64.1382,876.54785ZM62.9341,874.32422L62.9341,876.04688L64.1382,876.04688L64.1382,874.32422L62.9341,874.32422ZM60.719300000000004,878.29688L60.719300000000004,876.54785L59.620599999999996,876.54785L59.620599999999996,878.29688L60.719300000000004,878.29688ZM60.719300000000004,876.04688L60.719300000000004,874.32422L59.620599999999996,874.32422L59.620599999999996,876.04688L60.719300000000004,876.04688ZM69.5603,876.85547L72.6541,876.85547L72.6541,872.7334L75.827,872.98828Q75.8094,873.18164,75.6819,873.31787Q75.55449999999999,873.4541,75.17660000000001,873.50684L75.17660000000001,876.85547L75.3172,876.85547L76.54769999999999,875.2207L76.7762,875.39648Q76.9959,875.58105,77.3387,875.8667Q77.6814,876.15234,78.0594,876.45996Q78.3406,876.73242,78.5955,876.96973Q78.7801,876.31934,78.9383,875.63379Q79.2635,874.15723,79.4041,872.66309L82.9197,873.52441Q82.8582,873.70898,82.678,873.81445Q82.4978,873.91992,82.199,873.94629Q81.6541,875.56348,80.951,876.85547L83.4734,876.85547L84.7127,875.16797L84.95,875.34375Q85.1873,875.5459,85.53450000000001,875.83154Q85.88159999999999,876.11719,86.27279999999999,876.45117Q86.6639,876.78516,86.9803,877.0752Q86.91,877.36523,86.46170000000001,877.36523L85.451,877.36523Q85.20490000000001,879.21973,84.67750000000001,880.9248Q84.0711,882.8848,82.9725,884.5635Q82.95490000000001,884.5811,82.95490000000001,884.5811Q83.5086,885.1523,84.15899999999999,885.6621Q85.3982,886.6641,86.9627,887.3672L86.91,887.5518Q85.97829999999999,887.7451,85.43780000000001,888.2856Q84.8973,888.8262,84.64240000000001,889.7139Q82.9197,888.4482,81.8387,886.6113Q81.7244,886.4355,81.6189,886.2334Q80.9334,886.9365,80.1072,887.5693Q78.3582,888.8789,75.8094,889.749L75.6951,889.582Q78.1824,888.0527,79.65899999999999,886.04Q80.27420000000001,885.2139,80.74000000000001,884.3262Q80.4148,883.4473,80.16,882.4717Q79.7469,880.8369,79.4744,879.01758Q78.5252,880.1338,77.3562,880.9424L77.1541,880.8018Q77.699,879.77344,78.1473,878.44629Q78.32300000000001,877.90137,78.5076,877.33008Q78.3758,877.36523,78.2176,877.36523L75.17660000000001,877.36523L75.17660000000001,880.8545L75.9676,880.0107L78.1297,881.6631Q78.0594,881.751,77.90559999999999,881.8521Q77.7518,881.9531,77.4969,882.0059L77.4969,887.2969Q77.4969,887.3672,77.16290000000001,887.5386Q76.8289,887.71,76.3719,887.8462Q75.9148,887.9824,75.4842,887.9824L75.0711,887.9824L75.0711,886.6113L72.8562,886.6113L72.8562,887.8418Q72.8562,887.9648,72.3421,888.2329Q71.8279,888.501,70.9314,888.501L70.49199999999999,888.501L70.49199999999999,880.1865L72.6541,880.9951L72.6541,877.36523L69.701,877.36523L69.5603,876.85547ZM75.0711,881.6631L72.8562,881.6631L72.8562,886.1104L75.0711,886.1104L75.0711,881.6631ZM81.47829999999999,882.6914Q81.6717,882.1816,81.8211,881.6807Q82.42750000000001,879.58008,82.5945,877.36523L80.6697,877.36523Q80.4324,877.74316,80.1951,878.08594Q80.0018,878.36719,79.782,878.63965Q80.05449999999999,879.63281,80.4148,880.5293Q80.8631,881.6982,81.47829999999999,882.6914ZM98.0362,872.64551Q99.2403,872.59277,99.8907,872.81689Q100.5411,873.04102,100.7476,873.39258Q100.9542,873.74414,100.8179,874.10449Q100.6817,874.46484,100.3389,874.70215L102.3341,874.70215L103.3624,873.27832L103.6876,873.54199Q104.0128,873.81445,104.4522,874.19238Q104.8917,874.57031,105.2345,874.91309Q105.1641,875.20312,104.7511,875.20312L101.543,875.20312L103.5294,875.87109Q103.4678,876.0293,103.3009,876.13916Q103.1339,876.24902,102.8262,876.24902Q102.2813,876.78516,101.6749,877.33008Q101.2794,877.66406,100.919,877.9541L102.4307,877.9541L103.4678,876.57422L103.8106,876.82031Q104.1358,877.09277,104.5885,877.46191Q105.0411,877.83105,105.4014,878.17383Q105.3399,878.46387,104.9093,878.46387L94.2745,878.46387L94.1339,877.9541L97.5352,877.9541Q97.21,877.86621,96.8848,877.55859Q96.92,876.9082,96.7442,876.24902Q96.5772,875.63379,96.3663,875.20312L95.4434,875.20312Q95.22370000000001,875.29102,94.8458,875.30859Q94.547,875.83594,94.1031,876.54346Q93.6593,877.25098,93.1759,877.96289Q92.6925,878.6748,92.2178,879.2373Q93.5538,880.0635,94.191,881.2676Q94.82820000000001,882.4717,94.82820000000001,883.5879Q94.82820000000001,884.8887,94.2525,885.6533Q93.6768,886.418,92.1651,886.4355Q92.1651,885.9697,92.11240000000001,885.4116Q92.0596,884.8535,91.9366,884.6338Q91.8663,884.4756,91.6817,884.3438Q91.62899999999999,884.3086,91.5762,884.2734L91.5762,888.9141Q91.5762,889.0459,91.0797,889.3491Q90.5831,889.6523,89.6866,889.6523L89.2735,889.6523L89.2735,873.24316L91.8048,874.1748L92.31450000000001,874.1748L93.4659,873.05859L95.2501,874.70215L98.7393,874.70215Q98.6339,874.62305,98.5196,874.55273Q98.5372,874.03418,98.3482,873.52881Q98.1593,873.02344,97.9132,872.7334L98.0362,872.64551ZM97.5177,884.3438Q97.5177,884.4316,97.2188,884.603Q96.92,884.7744,96.4542,884.9106Q95.9884,885.0469,95.4962,885.0469L95.17099999999999,885.0469L95.17099999999999,878.70996L97.6055,879.65039L101.42,879.65039L102.4483,878.55176L104.5665,880.1338Q104.4962,880.2217,104.3336,880.3228Q104.171,880.4238,103.9249,880.4766L103.9249,884.0361Q103.9249,884.1152,103.6085,884.2559Q103.2921,884.3965,102.8526,884.5239Q102.4132,884.6514,102.0177,884.6514L101.5958,884.6514L101.5958,884.0361L100.7169,884.0361L100.7169,885.9082L102.3956,885.9082L103.5118,884.4756L103.8721,884.7393Q104.2061,885.0117,104.6851,885.3984Q105.1641,885.7852,105.5421,886.1279Q105.4718,886.418,105.0411,886.418L100.7169,886.418L100.7169,889.2217Q100.7169,889.292,100.2027,889.481Q99.6886,889.6699,98.7921,889.6699L98.3614,889.6699L98.3614,886.418L94.2393,886.418L94.0899,885.9082L98.3614,885.9082L98.3614,884.0361L97.5177,884.0361L97.5177,884.3438ZM91.5762,883.9307L92.0421,883.9307Q92.27940000000001,883.9307,92.4024,883.8428Q92.543,883.7549,92.6265,883.5264Q92.71000000000001,883.2979,92.71000000000001,882.9199Q92.71000000000001,882.0234,92.4947,881.0698Q92.27940000000001,880.1162,91.75200000000001,879.29004Q91.8663,878.79785,91.9893,878.13428Q92.11240000000001,877.4707,92.2222,876.75Q92.3321,876.0293,92.42,875.34375Q92.45519999999999,874.9834,92.49029999999999,874.67578L91.5762,874.67578L91.5762,883.9307ZM97.5177,883.5352L101.5958,883.5352L101.5958,882.0586L97.5177,882.0586L97.5177,883.5352ZM101.5958,881.5576L101.5958,880.1514L97.5177,880.1514L97.5177,881.5576L101.5958,881.5576ZM100.8663,875.20312L97.1749,875.20312Q97.7637,875.37891,98.1417,875.63379Q98.7218,876.0293,98.9019,876.45117Q99.0821,876.87305,98.9459,877.2334Q98.8096,877.59375,98.4845,877.81348Q98.3438,877.90137,98.1593,877.9541L100.2862,877.9541Q100.4093,877.43555,100.5762,876.67969Q100.7169,875.92383,100.8663,875.20312ZM109.5755,888.9756Q109.4701,889.5996,108.9647,890.3467Q108.4593,891.0938,107.3431,891.6562L107.6507,892.2451Q108.8373,891.7441,109.5492,890.918Q110.2611,890.0918,110.5819,889.125Q110.9027,888.1582,110.9027,887.2617Q110.9027,886.2334,110.3534,885.7017Q109.8041,885.1699,109.0658,885.1699Q108.2923,885.1699,107.8177,885.6753Q107.3431,886.1807,107.3431,886.8486Q107.3431,887.5166,107.7298,887.9385Q108.1166,888.3604,108.6483,888.5933Q109.18,888.8262,109.5755,888.9756ZM134.72,888.8613Q134.72,888.9932,134.404,889.1821Q134.088,889.3711,133.60399999999998,889.5205Q133.12099999999998,889.6699,132.576,889.6699L132.19799999999998,889.6699L132.19799999999998,879.82617L134.826,880.8545L138.535,880.8545L139.598,879.65039L131.1168,879.65039L130.9762,879.14062L135.08100000000002,879.14062L135.08100000000002,877.43555L132.19799999999998,877.43555L132.05700000000002,876.92578L135.08100000000002,876.92578L135.08100000000002,875.30859L131.55599999999998,875.30859L131.4069,874.80762L135.08100000000002,874.80762L135.08100000000002,872.59277L138.227,872.84766Q138.20999999999998,873.02344,138.095,873.14209Q137.981,873.26074,137.656,873.31348L137.656,874.80762L139.115,874.80762L140.35399999999998,873.16406L140.591,873.34863Q140.82,873.52441,141.172,873.81445Q141.523,874.10449,141.91,874.4209Q142.297,874.7373,142.622,875.01855Q142.551,875.30859,142.103,875.30859L137.656,875.30859L137.656,876.92578L138.65800000000002,876.92578L139.81799999999998,875.41406L141.04000000000002,876.38965Q141.523,876.78516,141.91899999999998,877.14551Q141.848,877.43555,141.418,877.43555L137.656,877.43555L137.656,879.14062L139.256,879.14062L140.53,877.48828L140.767,877.66406Q141.005,877.84863,141.356,878.13428Q141.708,878.41992,142.103,878.74512Q142.499,879.07031,142.824,879.36035Q142.745,879.65039,142.297,879.65039L139.686,879.65039L141.989,881.373Q141.901,881.4873,141.73000000000002,881.5928Q141.558,881.6982,141.268,881.7686L141.268,886.9365Q141.268,887.7451,141.07,888.3296Q140.873,888.9141,140.227,889.2568Q139.58100000000002,889.5996,138.245,889.7314Q138.227,889.0986,138.15699999999998,888.6592Q138.087,888.2197,137.88400000000001,887.9297Q137.709,887.6396,137.41899999999998,887.4507Q137.12900000000002,887.2617,136.505,887.1387L136.505,886.9014L136.733,886.9189Q136.97,886.9365,137.313,886.9453Q137.656,886.9541,137.959,886.9717Q138.262,886.9893,138.394,886.9893Q138.588,886.9893,138.65300000000002,886.9014Q138.719,886.8135,138.719,886.6465L138.719,885.4775L134.72,885.4775L134.72,888.8613ZM127.9879,877.48828L129.10410000000002,876.38965L131.1168,878.06836Q131.04649999999998,878.17383,130.85320000000002,878.26172Q130.6686,878.34961,130.3434,878.38477L130.3434,884.7744Q131.0641,884.3789,131.80200000000002,883.9658L131.89,884.0977Q131.644,884.5283,131.1828,885.249Q130.72129999999999,885.9697,130.1149,886.8486Q129.8073,887.2969,129.4469,887.7627Q129.3766,888.1582,129.2096,888.4307Q128.9811,888.8262,128.7086,889.0283L126.8893,886.4004Q127.5748,886.0049,127.7638,885.7896Q127.9528,885.5742,127.9528,885.249L127.9528,877.98926L125.9137,877.98926L125.7555,877.48828L127.9879,877.48828ZM127.1266,872.80371Q128.5241,872.91797,129.33710000000002,873.2959Q130.15,873.67383,130.4928,874.15723Q130.8356,874.64062,130.796,875.11963Q130.75650000000002,875.59863,130.4445,875.93262Q130.1325,876.2666,129.6447,876.31934Q129.1569,876.37207,128.60320000000002,876.01172Q128.47129999999999,875.45801,128.2033,874.89111Q127.9352,874.32422,127.6188,873.81006Q127.3024,873.2959,126.9772,872.90039L127.1266,872.80371ZM138.719,884.9766L138.719,883.4121L134.72,883.4121L134.72,884.9766L138.719,884.9766ZM138.719,882.9023L138.719,881.3555L134.72,881.3555L134.72,882.9023L138.719,882.9023ZM151.498,889.0635Q151.48000000000002,889.1689,151.001,889.4326Q150.522,889.6963,149.643,889.6963L149.23000000000002,889.6963L149.23000000000002,885.6797Q147.736,886.418,145.811,887.2793Q145.662,887.6748,145.267,887.7627L144.33499999999998,884.8711Q144.801,884.8184,145.539,884.6865L145.539,874.58789L144.52800000000002,874.58789L144.388,874.08691L150.074,874.08691L151.261,872.61035L151.639,872.88281Q151.999,873.16406,152.513,873.55518Q153.027,873.94629,153.423,874.29785Q153.352,874.58789,152.922,874.58789L151.498,874.58789L151.498,883.5703Q152.465,883.377,153.423,883.1748L153.458,883.3594Q152.649,883.8604,151.498,884.4932L151.498,889.0635ZM160.603,873.34863Q160.568,873.50684,160.406,873.6167Q160.243,873.72656,159.935,873.72656Q159.575,874.22754,159.065,874.84277Q158.55599999999998,875.45801,157.976,876.06445Q157.54500000000002,876.5127,157.114,876.89062L158.248,876.89062L159.382,875.39648L159.742,875.66895Q160.085,875.95898,160.568,876.35449Q161.052,876.75,161.43,877.11035Q161.359,877.40039,160.929,877.40039L157.598,877.40039L157.598,880.7139Q157.598,880.9951,157.57999999999998,881.3027L158.31799999999998,881.3027L159.505,879.68555L159.725,879.86133Q159.935,880.0459,160.278,880.3228Q160.621,880.5996,160.99,880.9248Q161.359,881.25,161.667,881.5225Q161.597,881.8037,161.148,881.8037L157.78199999999998,881.8037Q158.063,882.9463,158.591,883.8779Q159.197,885.0117,160.063,885.8115Q160.929,886.6113,161.957,887.0244L161.939,887.2266Q161.289,887.4199,160.81,888.0352Q160.331,888.6504,160.12,889.5996Q159.232,888.7559,158.70499999999998,887.6309Q158.178,886.5059,157.905,884.9941Q157.668,883.7197,157.54500000000002,882.0762Q157.527,882.3135,157.49200000000002,882.5684Q157.378,883.5527,157.039,884.5415Q156.701,885.5303,156.024,886.4751Q155.348,887.4199,154.223,888.2417Q153.098,889.0635,151.38400000000001,889.6963L151.261,889.5469Q152.526,888.5801,153.28199999999998,887.5078Q154.038,886.4355,154.425,885.293Q154.811,884.1504,154.952,882.999Q155.005,882.4014,155.04000000000002,881.8037L151.858,881.8037L151.709,881.3027L155.058,881.3027Q155.075,880.9951,155.075,880.7139L155.075,877.40039L152.447,877.40039L152.30700000000002,876.89062L156.648,876.89062Q156.789,876.35449,156.912,875.72168Q157.079,874.91309,157.202,874.10449Q157.325,873.2959,157.378,872.62793L160.603,873.34863ZM153.185,872.7334Q154.416,873.04102,155.088,873.52002Q155.761,873.99902,156.002,874.50879Q156.244,875.01855,156.16500000000002,875.47119Q156.086,875.92383,155.769,876.20068Q155.453,876.47754,155.014,876.47754Q154.574,876.47754,154.108,876.08203Q154.091,875.51074,153.937,874.92627Q153.78300000000002,874.3418,153.541,873.80127Q153.3,873.26074,153.027,872.83008L153.185,872.7334ZM149.23000000000002,881.0303L149.23000000000002,878.06836L147.736,878.06836L147.736,881.0303L149.23000000000002,881.0303ZM149.23000000000002,877.55859L149.23000000000002,874.58789L147.736,874.58789L147.736,877.55859L149.23000000000002,877.55859ZM149.23000000000002,884.001L149.23000000000002,881.54L147.736,881.54L147.736,884.291Q147.877,884.2734,148.04399999999998,884.2383Q148.615,884.1328,149.23000000000002,884.001ZM173.074,887.1387Q173.074,887.9297,172.859,888.4966Q172.644,889.0635,171.989,889.3975Q171.334,889.7314,169.963,889.8193Q169.946,889.2568,169.884,888.8525Q169.822,888.4482,169.638,888.2197Q169.48,887.9824,169.198,887.7847Q168.917,887.5869,168.276,887.4814L168.276,887.2793L168.504,887.2969Q168.724,887.3145,169.036,887.3232Q169.348,887.332,169.647,887.3496Q169.946,887.3672,170.069,887.3672Q170.253,887.3672,170.315,887.2881Q170.376,887.209,170.376,887.0859L170.376,883.1924Q168.451,883.5527,166.184,883.9131Q165.982,884.2031,165.736,884.3086L164.531,881.6455L164.909,881.5928Q165.27,881.54,165.516,881.4697Q166.474,881.2324,167.59,880.7842Q168.706,880.3359,169.858,879.73828Q170.939,879.20215,171.941,878.58691Q171.528,878.69238,171.097,878.79785Q169.207,879.30762,166.852,879.82617Q166.685,879.99316,166.509,880.0811L165.322,877.43555L165.586,877.38281Q165.841,877.34766,166.026,877.28613Q166.614,877.16309,167.282,876.83789Q167.95,876.5127,168.592,876.09961Q169.049,875.81836,169.445,875.51074Q168.451,875.5459,167.458,875.56348Q165.569,875.61621,163.846,875.59863L163.811,875.32617Q165.428,875.11523,167.221,874.78125Q169.014,874.44727,170.776,874.06055Q172.538,873.67383,174.068,873.26953Q175.597,872.86523,176.678,872.4873L179.086,874.93066Q178.91,875.05371,178.568,875.05371Q178.225,875.05371,177.724,874.86035Q176.388,875.03613,174.718,875.18555Q173.417,875.29102,172.02,875.37891L173.347,876.11719Q173.277,876.28418,173.004,876.33691Q172.846,876.37207,172.626,876.31934Q172.213,876.49512,171.659,876.67969Q170.868,876.95215,169.959,877.18506Q169.049,877.41797,168.126,877.59375Q167.783,877.66406,167.476,877.72559Q167.713,877.72559,167.986,877.72559Q169.242,877.74316,170.868,877.72559Q172.055,877.72559,173.294,877.70801Q173.637,877.48828,173.945,877.25098Q174.788,876.62695,175.289,876.11719L177.917,878.12109Q177.794,878.26172,177.504,878.31445Q177.311,878.34961,177.038,878.26172Q176.502,878.58691,175.746,878.92969Q174.753,879.37793,173.518,879.8481400000001Q172.283,880.3184,170.943,880.749Q169.603,881.1797,168.276,881.54Q167.783,881.6631,167.3,881.7861Q168.504,881.7686,170.033,881.7334Q171.58,881.6982,173.364,881.6455Q174.604,881.6104,175.887,881.5576Q175.667,881.3027,175.456,881.0742Q174.806,880.3711,174.155,879.86133L174.305,879.73828Q176.063,879.89648,177.161,880.3755Q178.26,880.8545,178.818,881.4653Q179.376,882.0762,179.477,882.6782Q179.578,883.2803,179.323,883.7329Q179.069,884.1855,178.576,884.3086Q178.084,884.4316,177.434,884.0977Q177.144,883.3418,176.625,882.542Q176.423,882.2783,176.23,881.9883Q174.911,882.2959,173.074,882.6738L173.074,887.1387ZM173.848,884.001Q175.702,884.2031,176.849,884.7261Q177.996,885.249,178.563,885.9126Q179.13,886.5762,179.209,887.2178Q179.288,887.8594,179.02,888.3252Q178.752,888.791,178.212,888.9097Q177.671,889.0283,177.003,888.6504Q176.783,888.0352,176.441,887.4155Q176.098,886.7959,175.65,886.2026Q175.201,885.6094,174.705,885.0776Q174.208,884.5459,173.707,884.1328L173.848,884.001ZM169.981,885.4775Q169.91,885.6094,169.757,885.6797Q169.603,885.75,169.278,885.7148Q168.618,886.3652,167.7,887.0024Q166.781,887.6396,165.7,888.1802Q164.619,888.7207,163.433,889.0986L163.301,888.9141Q164.118,888.2197,164.852,887.3188Q165.586,886.418,166.175,885.4907Q166.764,884.5635,167.08,883.79L169.981,885.4775ZM188.235,888.9756Q188.235,889.0635,187.993,889.2437Q187.751,889.4238,187.281,889.5776Q186.811,889.7314,186.161,889.7314L185.695,889.7314L185.695,884.3262Q183.946,884.8359,182.118,885.1172L182.021,884.959Q183.858,884.3789,185.488,883.5615Q187.119,882.7441,188.472,881.7686Q188.868,881.4873,189.246,881.1973Q188.507,880.4062,187.927,879.39551Q187.409,879.82617,186.829,880.1865Q185.027,881.3203,183.102,881.9707L182.961,881.7861Q183.823,881.1094,184.697,880.125Q185.572,879.14062,186.328,877.93652Q187.031,876.83789,187.514,875.63379L185.176,875.63379Q185.194,875.81836,185.211,875.97656Q185.229,876.83789,184.957,877.43115Q184.684,878.02441,184.236,878.31445Q183.911,878.5166,183.524,878.50781Q183.137,878.49902,182.816,878.30127Q182.496,878.10352,182.346,877.70801Q182.17,877.12793,182.447,876.71484Q182.724,876.30176,183.19,876.06445Q183.498,875.90625,183.805,875.59863Q184.113,875.29102,184.319,874.87793Q184.526,874.46484,184.508,874.03418L184.728,874.03418Q184.957,874.60547,185.088,875.13281L189.799,875.13281Q189.694,875.08008,189.606,875.01855Q189.544,874.37695,189.215,873.76172Q188.885,873.14648,188.428,872.78613L188.542,872.69824Q189.905,872.54004,190.678,872.73779Q191.452,872.93555,191.759,873.33105Q192.067,873.72656,191.997,874.16602Q191.926,874.60547,191.583,874.93066Q191.452,875.03613,191.311,875.13281L195.635,875.13281L196.857,873.88477L199.001,875.90625Q198.817,876.11719,198.298,876.13477Q197.789,876.54785,197.041,877.02686Q196.294,877.50586,195.635,877.81348L195.503,877.70801Q195.574,877.33008,195.64,876.85986Q195.706,876.38965,195.758,875.92383Q195.776,875.77441,195.793,875.63379L188.112,875.63379L190.845,876.78516Q190.775,876.95215,190.586,877.04883Q190.397,877.14551,190.072,877.11035Q189.887,877.36523,189.694,877.59375L192.102,877.59375L193.728,876.16992L196.119,878.48145Q195.996,878.60449,195.798,878.6748Q195.6,878.74512,195.24,878.78027Q194.282,879.93164,192.893,880.9424Q192.647,881.127,192.392,881.3027Q193.904,881.8037,195.6,882.0586Q197.323,882.3486,199.054,882.4541L199.037,882.6914Q198.202,882.9023,197.718,883.5264Q197.235,884.1504,197.033,885.082Q196.479,884.959,195.952,884.8359Q195.899,884.8535,195.864,884.8887Q195.741,884.9766,195.503,885.0293L195.503,888.958Q195.503,889.0107,195.134,889.1514Q194.765,889.292,194.273,889.4106Q193.781,889.5293,193.368,889.5293L192.893,889.5293L192.893,888.3076L188.235,888.3076L188.235,888.9756ZM192.893,884.7217L188.235,884.7217L188.235,887.7979L192.893,887.7979L192.893,884.7217ZM192.735,884.2207L193.095,883.8428Q192.99,883.8076,192.875,883.7549Q191.619,883.1924,190.573,882.3838Q190.177,882.6035,189.782,882.7793Q188.613,883.3594,187.338,883.8076L188.49,884.2207L192.735,884.2207ZM190.195,880.3535Q190.52,880.0459,190.81,879.73828Q191.566,878.92969,192.067,878.10352L189.263,878.10352Q188.824,878.58691,188.358,879.01758Q188.868,879.50098,189.474,879.91406Q189.817,880.1514,190.195,880.3535ZM208.59,872.86523L211.27,873.84961L214.241,873.84961L215.454,872.75098L217.519,874.42969Q217.431,874.53516,217.269,874.62744Q217.106,874.71973,216.851,874.75488Q216.834,875.85352,216.755,876.55225Q216.676,877.25098,216.487,877.66846Q216.298,878.08594,215.92,878.31445Q215.524,878.56934,215.019,878.66602Q214.513,878.7627,213.687,878.7627Q213.687,878.2793,213.626,877.9541Q213.564,877.62891,213.344,877.40039Q213.142,877.14551,212.782,876.9917Q212.422,876.83789,211.921,876.71484L211.921,876.5127Q212.211,876.53027,212.58,876.55225Q212.949,876.57422,213.274,876.5918Q213.599,876.60938,213.74,876.60938Q213.942,876.60938,214.021,876.57861Q214.1,876.54785,214.171,876.49512Q214.294,876.37207,214.355,875.72168Q214.39,875.2207,214.408,874.35938L211.024,874.35938L211.024,879.84375L214.461,879.84375L215.682,878.56934L217.862,880.3887Q217.792,880.5293,217.647,880.5996Q217.502,880.6699,217.194,880.7139Q216.869,882.3486,216.166,883.9482Q215.77,884.8535,215.217,885.6973Q215.594,885.9697,216.008,886.1982Q217.018,886.7959,218.135,887.2441L218.099,887.4639Q217.308,887.5869,216.711,888.1538Q216.113,888.7207,215.788,889.6348Q214.856,888.8789,214.153,888.0176Q213.942,887.7627,213.74,887.4814Q212.677,888.501,211.2,889.292L211.059,889.1162Q212.211,887.9473,212.949,886.418Q212.984,886.3301,213.037,886.2334Q212.984,886.1455,212.949,886.0576Q212.448,884.959,212.14,883.4648Q211.85,882.1289,211.666,880.3535L211.024,880.3535L211.024,888.958Q211.024,889.0459,210.791,889.2261Q210.558,889.4062,210.115,889.5601Q209.671,889.7139,209.038,889.7139L208.59,889.7139L208.59,872.86523ZM201.734,873.67383L201.734,872.91797L204.432,873.84961L204.995,873.84961L206.076,872.64551L208.229,874.35938Q208.159,874.44727,208.005,874.54395Q207.851,874.64062,207.605,874.67578L207.605,886.9014Q207.605,887.71,207.425,888.2856Q207.245,888.8613,206.652,889.1865Q206.058,889.5117,204.828,889.6172Q204.81,889.0459,204.749,888.5933Q204.687,888.1406,204.538,887.9121Q204.397,887.6396,204.147,887.4419Q203.896,887.2441,203.369,887.1387L203.369,886.9014L203.571,886.9014Q203.747,886.9189,204.002,886.9365Q204.257,886.9541,204.498,886.9629Q204.74,886.9717,204.845,886.9717Q205.048,886.9717,205.109,886.8838Q205.171,886.7959,205.171,886.6465L205.171,882.8848L203.914,882.8848Q203.826,883.6758,203.659,884.4932Q203.351,885.9258,202.688,887.2617Q202.024,888.5977,200.838,889.7139L200.653,889.5996Q201.216,888.0352,201.44,886.2466Q201.664,884.458,201.699,882.6035Q201.734,880.749,201.734,879.03516L201.734,873.67383ZM213.775,884.3438Q213.96,883.7725,214.1,883.1924Q214.461,881.751,214.601,880.3535L211.956,880.3535Q212.246,881.6982,212.747,882.7266Q213.204,883.6406,213.775,884.3438ZM205.171,882.3838L205.171,878.58691L204.072,878.58691L204.072,879.03516Q204.072,880.2744,204.019,881.6631Q204.002,882.0234,203.967,882.3838L205.171,882.3838ZM205.171,878.08594L205.171,874.35938L204.072,874.35938L204.072,878.08594L205.171,878.08594Z" fill="#000000" fill-opacity="1"/></g></g><g><g><path d="M44.855199999999996,916L44.855199999999996,915.4463L46.8942,915.1211Q46.9294,913.4072,46.9294,911.7373L46.9294,903.83594L44.82,904.08203L44.82,903.43164L49.6804,902.3418L49.9528,902.51758L49.8825,905.45312L49.8825,911.7373Q49.8825,912.7744,49.9177,913.8555Q49.9177,914.4883,49.9353,915.1211L51.8073,915.5166L51.8073,916.0527L44.855199999999996,916ZM59.8687,916.3076Q57.979,916.3076,56.8892,915.4419Q55.7993,914.5762,55.6939,913.0996Q55.8345,912.6865,56.1597,912.4888Q56.4849,912.291,56.8628,912.291Q57.4165,912.291,57.7417,912.625Q58.0669,912.959,58.1372,913.75L58.3921,915.5342Q58.48,915.5693,58.5503,915.5869Q58.8579,915.6748,59.3501,915.6748Q60.5894,915.6748,61.3452,914.7827Q62.1011,913.8906,62.1011,912.1855Q62.1011,910.6387,61.3628,909.7905Q60.6245,908.9424,59.3677,908.9424Q58.8579,908.9424,58.3921,909.0259Q57.9263,909.1094,57.4517,909.25L56.9155,908.8896L57.3462,902.55273L64.7114,902.55273L64.7114,904.78516L58.0845,904.78516L57.8296,908.292Q58.2339,908.1689,58.6294,908.0986Q59.4028,907.97559,60.2642,907.97559Q62.5493,907.97559,63.8633,909.0083Q65.1773,910.041,65.1773,912.0537Q65.1773,913.4424,64.49170000000001,914.3872Q63.8062,915.332,62.6109,915.8198Q61.4155,916.3076,59.8687,916.3076ZM69.81960000000001,916L69.81960000000001,914.3828Q70.61070000000001,913.5303,71.3489,912.6953Q72.0872,911.8604,72.7552,911.1045Q73.7396,909.9883,74.36359999999999,909.1533Q74.9876,908.3184,75.29079999999999,907.51416Q75.5941,906.70996,75.5941,905.74316Q75.5941,904.35449,75.0008,903.60742Q74.4075,902.86035,73.36160000000001,902.86035Q73.0189,902.86035,72.6585,902.93066L72.29820000000001,904.78516Q72.1575,905.70801,71.762,906.00244Q71.3665,906.29688,70.9534,906.29688Q70.55789999999999,906.29688,70.2415,906.08154Q69.9251,905.86621,69.78450000000001,905.52344Q69.8372,904.44238,70.4832,903.71289Q71.1292,902.9834,72.1575,902.61426Q73.1859,902.24512,74.3724,902.24512Q76.51689999999999,902.24512,77.5233,903.28223Q78.5296,904.31934,78.5296,905.91895Q78.5296,906.89453,77.97149999999999,907.75586Q77.4134,908.6172,76.306,909.6016Q75.1985,910.5859,73.5286,911.8955Q73.2034,912.168,72.77279999999999,912.5195Q72.3421,912.8711,71.8675,913.2666Q71.5599,913.5127,71.261,913.7852L78.8548,913.7852L78.8548,916L69.81960000000001,916ZM72.03450000000001,903.13281Q71.9026,903.18555,71.7796,903.23828L72.03450000000001,903.13281ZM83.295,911.4648L83.295,910.1465L88.5509,910.1465L88.5509,911.4648L83.295,911.4648ZM93.123,916L93.123,914.3828Q93.914,913.5303,94.6523,912.6953Q95.3905,911.8604,96.0585,911.1045Q97.0429,909.9883,97.6669,909.1533Q98.2909,908.3184,98.5942,907.51416Q98.8974,906.70996,98.8974,905.74316Q98.8974,904.35449,98.3041,903.60742Q97.7109,902.86035,96.665,902.86035Q96.3222,902.86035,95.9618,902.93066L95.6015,904.78516Q95.4609,905.70801,95.0653,906.00244Q94.6698,906.29688,94.2568,906.29688Q93.8612,906.29688,93.5448,906.08154Q93.2284,905.86621,93.0878,905.52344Q93.1405,904.44238,93.7865,903.71289Q94.4325,902.9834,95.4609,902.61426Q96.4892,902.24512,97.6757,902.24512Q99.8202,902.24512,100.8266,903.28223Q101.8329,904.31934,101.8329,905.91895Q101.8329,906.89453,101.2748,907.75586Q100.7167,908.6172,99.6093,909.6016Q98.5019,910.5859,96.8319,911.8955Q96.5068,912.168,96.0761,912.5195Q95.6454,912.8711,95.1708,913.2666Q94.8632,913.5127,94.5644,913.7852L102.1581,913.7852L102.1581,916L93.123,916ZM95.3378,903.13281Q95.206,903.18555,95.0829,903.23828L95.3378,903.13281ZM106.6511,916L106.6511,915.4463L108.6902,915.1211Q108.7253,913.4072,108.7253,911.7373L108.7253,903.83594L106.6159,904.08203L106.6159,903.43164L111.4763,902.3418L111.7487,902.51758L111.6784,905.45312L111.6784,911.7373Q111.6784,912.7744,111.7136,913.8555Q111.7136,914.4883,111.7312,915.1211L113.6032,915.5166L113.6032,916.0527L106.6511,916ZM122.333,916.3076Q121.084,916.3076,120.008,915.5693Q118.931,914.8311,118.263,913.2666Q117.595,911.7021,117.595,909.25Q117.595,906.79785,118.263,905.25977Q118.931,903.72168,120.008,902.9834Q121.084,902.24512,122.333,902.24512Q123.572,902.24512,124.662,902.9834Q125.751,903.72168,126.415,905.25977Q127.079,906.79785,127.079,909.25Q127.079,911.7021,126.415,913.2666Q125.751,914.8311,124.662,915.5693Q123.572,916.3076,122.333,916.3076ZM122.333,915.6748Q122.728,915.6748,123.088,915.3804Q123.449,915.0859,123.726,914.3564Q124.002,913.627,124.165,912.3833Q124.328,911.1396,124.328,909.25Q124.328,907.37793,124.165,906.13428Q124.002,904.89062,123.726,904.18311Q123.449,903.47559,123.088,903.17676Q122.728,902.87793,122.333,902.87793Q121.937,902.87793,121.577,903.17676Q121.216,903.47559,120.935,904.18311Q120.654,904.89062,120.5,906.12549Q120.346,907.36035,120.346,909.25Q120.346,911.1396,120.5,912.3921Q120.654,913.6445,120.935,914.3652Q121.216,915.0859,121.577,915.3804Q121.937,915.6748,122.333,915.6748ZM136.04500000000002,916.3076Q134.797,916.3076,133.721,915.5693Q132.644,914.8311,131.976,913.2666Q131.308,911.7021,131.308,909.25Q131.308,906.79785,131.976,905.25977Q132.644,903.72168,133.721,902.9834Q134.797,902.24512,136.04500000000002,902.24512Q137.284,902.24512,138.374,902.9834Q139.464,903.72168,140.128,905.25977Q140.791,906.79785,140.791,909.25Q140.791,911.7021,140.128,913.2666Q139.464,914.8311,138.374,915.5693Q137.284,916.3076,136.04500000000002,916.3076ZM136.04500000000002,915.6748Q136.441,915.6748,136.801,915.3804Q137.161,915.0859,137.438,914.3564Q137.715,913.627,137.878,912.3833Q138.04000000000002,911.1396,138.04000000000002,909.25Q138.04000000000002,907.37793,137.878,906.13428Q137.715,904.89062,137.438,904.18311Q137.161,903.47559,136.801,903.17676Q136.441,902.87793,136.04500000000002,902.87793Q135.65,902.87793,135.289,903.17676Q134.929,903.47559,134.648,904.18311Q134.36700000000002,904.89062,134.213,906.12549Q134.059,907.36035,134.059,909.25Q134.059,911.1396,134.213,912.3921Q134.36700000000002,913.6445,134.648,914.3652Q134.929,915.0859,135.289,915.3804Q135.65,915.6748,136.04500000000002,915.6748ZM145.056,911.4648L145.056,910.1465L150.312,910.1465L150.312,911.4648L145.056,911.4648ZM155.745,916.3604L155.64,915.8418Q157.617,915.1562,158.843,914.084Q160.069,913.0117,160.623,911.4121Q160.843,910.7969,160.983,910.0586Q160.772,910.2256,160.535,910.3486Q159.726,910.7793,158.558,910.7793Q157.389,910.7793,156.479,910.3135Q155.569,909.8477,155.046,908.9556Q154.523,908.0635,154.523,906.79785Q154.523,905.28613,155.169,904.271Q155.815,903.25586,156.879,902.75049Q157.942,902.24512,159.199,902.24512Q160.79,902.24512,161.875,902.93066Q162.961,903.61621,163.537,904.90381Q164.112,906.19141,164.112,907.99316Q164.112,910.1289,163.062,911.8604Q162.012,913.5918,160.131,914.7432Q158.25,915.8945,155.745,916.3604ZM161.054,909.5049Q161.185,908.6172,161.185,907.59766Q161.185,905.81348,160.939,904.77637Q160.693,903.73926,160.263,903.2998Q159.832,902.86035,159.278,902.86035Q158.768,902.86035,158.338,903.22949Q157.907,903.59863,157.648,904.38086Q157.389,905.16309,157.389,906.40234Q157.389,908.0635,158.008,908.9995Q158.628,909.9355,159.691,909.9355Q160.245,909.9355,160.658,909.7334Q160.86,909.6455,161.054,909.5049ZM173.562,916.2725L173.562,912.959L168.166,912.959L168.166,911.4473L174.116,902.32422L176.137,902.32422L176.137,911.0869L178.097,911.0869L178.097,912.959L176.137,912.959L176.137,916.2725L173.562,916.2725ZM173.562,911.0869L173.562,904.24902L171.532,907.39551L169.133,911.0869L173.562,911.0869ZM186.792,916.3076Q185.543,916.3076,184.467,915.5693Q183.39,914.8311,182.722,913.2666Q182.054,911.7021,182.054,909.25Q182.054,906.79785,182.722,905.25977Q183.39,903.72168,184.467,902.9834Q185.543,902.24512,186.792,902.24512Q188.031,902.24512,189.121,902.9834Q190.21,903.72168,190.874,905.25977Q191.538,906.79785,191.538,909.25Q191.538,911.7021,190.874,913.2666Q190.21,914.8311,189.121,915.5693Q188.031,916.3076,186.792,916.3076ZM186.792,915.6748Q187.187,915.6748,187.547,915.3804Q187.908,915.0859,188.185,914.3564Q188.461,913.627,188.624,912.3833Q188.787,911.1396,188.787,909.25Q188.787,907.37793,188.624,906.13428Q188.461,904.89062,188.185,904.18311Q187.908,903.47559,187.547,903.17676Q187.187,902.87793,186.792,902.87793Q186.396,902.87793,186.036,903.17676Q185.675,903.47559,185.394,904.18311Q185.113,904.89062,184.959,906.12549Q184.805,907.36035,184.805,909.25Q184.805,911.1396,184.959,912.3921Q185.113,913.6445,185.394,914.3652Q185.675,915.0859,186.036,915.3804Q186.396,915.6748,186.792,915.6748ZM200.988,916.2725L200.988,912.959L195.591,912.959L195.591,911.4473L201.541,902.32422L203.563,902.32422L203.563,911.0869L205.523,911.0869L205.523,912.959L203.563,912.959L203.563,916.2725L200.988,916.2725ZM200.988,911.0869L200.988,904.24902L198.957,907.39551L196.558,911.0869L200.988,911.0869Z" fill="#8945FF" fill-opacity="1"/></g></g></g></g></svg>