<svg xmlns="http://www.w3.org/2000/svg" xmlns:xlink="http://www.w3.org/1999/xlink" fill="none" version="1.1" width="544" height="457" viewBox="0 0 544 457"><defs><linearGradient x1="-0.377703994512558" y1="2.2343363761901855" x2="1.0274913311004639" y2="-0.5497299432754518" id="master_svg0_20_71380"><stop offset="0%" stop-color="#FFFFFF" stop-opacity="1"/><stop offset="24.657529592514038%" stop-color="#FFFFFF" stop-opacity="1"/><stop offset="39.20890390872955%" stop-color="#FEFEFE" stop-opacity="0.9980370998382568"/><stop offset="61.9712233543396%" stop-color="#FFFFFF" stop-opacity="0.28999999165534973"/><stop offset="77.21440196037292%" stop-color="#E8E8E8" stop-opacity="0.8201808929443359"/><stop offset="100%" stop-color="#E5E5E5" stop-opacity="1"/></linearGradient><linearGradient x1="0.5" y1="0" x2="0.5" y2="1" id="master_svg1_20_71342"><stop offset="0%" stop-color="#FFFFFF" stop-opacity="1"/><stop offset="100%" stop-color="#8D8D8D" stop-opacity="0.15000000596046448"/></linearGradient><clipPath id="master_svg2_71_5088"><rect x="237" y="157" width="70" height="70" rx="0"/></clipPath><clipPath id="master_svg3_71_5096"><rect x="172" y="207" width="200" height="200" rx="0"/></clipPath></defs><g><g><path d="M33.6828,36.6152Q32.2766,36.6152,31.3274,35.6396Q30.3782,34.6641,30.3782,33.3281Q30.3782,31.9746,31.3274,30.9814Q32.2766,29.9883,33.6828,29.9883Q35.0891,29.9883,36.0471,30.9814Q37.0051,31.9746,37.0051,33.3281Q37.0051,34.6641,36.0471,35.6396Q35.0891,36.6152,33.6828,36.6152ZM12.6242,36L12.6242,34.8926L16.7024,34.2422Q16.7727,30.8145,16.7727,27.4746L16.7727,11.6719L12.5539,12.1641L12.5539,10.8633L22.2746,8.68359L22.8196,9.03516L22.6789,14.9062L22.6789,27.4746Q22.6789,29.5488,22.7492,31.7109Q22.7492,32.9766,22.7844,34.2422L26.5285,35.0332L26.5285,36.1055L12.6242,36ZM72.9207,37.7227Q72.9207,37.9863,72.2879,38.3643Q71.6551,38.7422,70.6883,39.041Q69.7215,39.3398,68.6317,39.3398L67.8758,39.3398L67.8758,19.6523L73.1317,21.709L80.5496,21.709L82.6766,19.3008L65.7137,19.3008L65.4324,18.2812L73.6414,18.2812L73.6414,14.8711L67.8758,14.8711L67.5946,13.8516L73.6414,13.8516L73.6414,10.6172L66.5926,10.6172L66.2938,9.61523L73.6414,9.61523L73.6414,5.18555L79.9344,5.69531Q79.8992,6.04688,79.6707,6.28418Q79.4422,6.52148,78.7918,6.62695L78.7918,9.61523L81.7098,9.61523L84.1883,6.32812L84.6629,6.69727Q85.1199,7.04883,85.8231,7.62891Q86.5262,8.20898,87.2996,8.8418Q88.0731,9.47461,88.7235,10.0371Q88.5828,10.6172,87.6864,10.6172L78.7918,10.6172L78.7918,13.8516L80.7957,13.8516L83.116,10.8281L85.5594,12.7793Q86.5262,13.5703,87.3172,14.291Q87.1766,14.8711,86.3153,14.8711L78.7918,14.8711L78.7918,18.2812L81.991,18.2812L84.5399,14.9766L85.0145,15.3281Q85.4891,15.6973,86.1922,16.2686Q86.8953,16.8398,87.6864,17.4902Q88.4774,18.1406,89.1278,18.7207Q88.9696,19.3008,88.0731,19.3008L82.8524,19.3008L87.4578,22.7461Q87.2821,22.9746,86.9393,23.1855Q86.5965,23.3965,86.0164,23.5371L86.0164,33.873Q86.0164,35.4902,85.6209,36.6592Q85.2254,37.8281,83.9334,38.5137Q82.6414,39.1992,79.9696,39.4629Q79.9344,38.1973,79.7938,37.3184Q79.6532,36.4395,79.2489,35.8594Q78.8973,35.2793,78.3172,34.9014Q77.7371,34.5234,76.4891,34.2773L76.4891,33.8027L76.9461,33.8379Q77.4207,33.873,78.1063,33.8906Q78.7918,33.9082,79.3983,33.9434Q80.0047,33.9785,80.2684,33.9785Q80.6551,33.9785,80.7869,33.8027Q80.9188,33.627,80.9188,33.293L80.9188,30.9551L72.9207,30.9551L72.9207,37.7227ZM59.4559,14.9766L61.6883,12.7793L65.7137,16.1367Q65.5731,16.3477,65.1864,16.5234Q64.8172,16.6992,64.1668,16.7695L64.1668,29.5488Q65.6082,28.7578,67.0848,27.9316L67.2606,28.1953Q66.7684,29.0566,65.8455,30.498Q64.9227,31.9395,63.7098,33.6973Q63.0946,34.5938,62.3739,35.5254Q62.2332,36.3164,61.8992,36.8613Q61.4422,37.6523,60.8973,38.0566L57.2586,32.8008Q58.6297,32.0098,59.0076,31.5791Q59.3856,31.1484,59.3856,30.498L59.3856,15.9785L55.3074,15.9785L54.991,14.9766L59.4559,14.9766ZM57.7332,5.60742Q60.5282,5.83594,62.1541,6.5918Q63.7801,7.34766,64.4657,8.31445Q65.1512,9.28125,65.0721,10.2393Q64.993,11.1973,64.369,11.8652Q63.7449,12.5332,62.7694,12.6387Q61.7938,12.7441,60.6864,12.0234Q60.4227,10.916,59.8866,9.78223Q59.3504,8.64844,58.7176,7.62012Q58.0848,6.5918,57.4344,5.80078L57.7332,5.60742ZM80.9188,29.9531L80.9188,26.8242L72.9207,26.8242L72.9207,29.9531L80.9188,29.9531ZM80.9188,25.8047L80.9188,22.7109L72.9207,22.7109L72.9207,25.8047L80.9188,25.8047ZM104.92,21.6035Q104.709,22.0957,103.777,22.3242L103.777,37.9512Q103.742,38.127,103.092,38.4521Q102.441,38.7773,101.483,39.041Q100.525,39.3047,99.4883,39.3047L98.4864,39.3047L98.4864,25.998Q95.9903,27.9316,92.9668,29.4082L92.6856,29.0918Q95.3399,26.7188,97.3965,23.7656Q99.4532,20.8125,100.965,17.5605Q101.861,15.6973,102.582,13.8164L93.8282,13.8164L93.5469,12.8145L102.951,12.8145Q103.232,11.9883,103.514,11.1621Q104.533,7.96289,105.061,5.11523L112.338,6.94336Q112.268,7.27734,111.978,7.48828Q111.688,7.69922,110.967,7.76953Q110.07,10.2305,108.805,12.8145L118.525,12.8145L121.443,9.10547L121.988,9.50977Q122.498,9.93164,123.324,10.5645Q124.15,11.1973,125.047,11.918Q125.943,12.6387,126.699,13.2539Q126.559,13.8164,125.662,13.8164L108.313,13.8164Q106.801,16.8047,104.674,19.6172Q104.129,20.373,103.514,21.0938L104.92,21.6035ZM117.84,15.9082Q117.805,16.2773,117.576,16.5059Q117.348,16.7344,116.697,16.8398L116.697,23.9062L117.664,23.9062L120.23,20.6719L120.688,21.0234Q121.162,21.3926,121.883,21.9463Q122.604,22.5,123.395,23.1328Q124.186,23.7656,124.836,24.3281Q124.801,24.627,124.511,24.7676Q124.221,24.9082,123.816,24.9082L116.697,24.9082L116.697,35.9648L119.281,35.9648L122.059,32.4668L122.568,32.8359Q123.061,33.2227,123.834,33.8379Q124.607,34.4531,125.478,35.1211Q126.348,35.7891,127.068,36.4043Q126.928,36.9668,125.979,36.9668L104.34,36.9668L104.059,35.9648L111.406,35.9648L111.406,24.9082L105.254,24.9082L104.955,23.9062L111.406,23.9062L111.406,15.3633L117.84,15.9082ZM146.939,8.38477L146.939,6.80273L152.616,8.75391L154.708,8.75391L157.116,5.87109L161.652,9.58008Q161.476,9.79102,161.151,9.97559Q160.825,10.1602,160.228,10.2656L160.228,32.9766Q160.228,33.3281,160.298,33.4951Q160.368,33.6621,160.579,33.6621L161.265,33.6621Q161.406,33.6621,161.608,33.5918Q161.81,33.5215,161.986,33.293Q162.161,32.9766,162.416,32.3086Q162.671,31.6406,162.917,30.7969Q163.163,29.9531,163.392,29.1621L163.708,29.1621L163.884,33.5566Q164.693,34.0137,164.974,34.4707Q165.255,34.9277,165.255,35.5957Q165.255,37.002,164.033,37.7051Q162.812,38.4082,160.263,38.4082L158.716,38.4082Q157.204,38.4082,156.448,38.0303Q155.693,37.6523,155.438,36.7734Q155.183,35.8945,155.183,34.418L155.183,9.75586L151.861,9.75586L151.861,21.2695Q151.861,23.8711,151.579,26.4287Q151.298,28.9863,150.305,31.377Q149.312,33.7676,147.202,35.8594Q145.093,37.9512,141.437,39.5684L141.138,39.3047Q143.775,36.8613,144.996,34.0049Q146.218,31.1484,146.578,27.958Q146.939,24.7676,146.939,21.3047L146.939,8.38477ZM130.697,14.3965L135.777,14.3965L135.777,5.18555L142.034,5.76562Q141.999,6.15234,141.736,6.4248Q141.472,6.69727,140.716,6.80273L140.716,14.3965L140.892,14.3965L143.019,11.0918L143.406,11.4434Q143.81,11.8477,144.372,12.4277L145.603,13.6406Q146.253,14.291,146.728,14.8359Q146.57,15.416,145.743,15.416L140.716,15.416L140.716,17.9297Q143.054,18.5449,144.276,19.459Q145.497,20.373,145.875,21.3662Q146.253,22.3594,145.981,23.1855Q145.708,24.0117,145.023,24.4775Q144.337,24.9434,143.441,24.873Q142.544,24.8027,141.648,23.9414Q141.718,22.9395,141.551,21.8936Q141.384,20.8477,141.103,19.8281Q140.927,19.3008,140.716,18.791L140.716,38.0566Q140.716,38.2676,140.118,38.5928Q139.521,38.918,138.624,39.1904Q137.728,39.4629,136.779,39.4629L135.777,39.4629L135.777,25.8047Q133.685,28.6172,130.837,30.9199L130.45,30.5684Q131.822,28.4062,132.788,25.7432Q133.755,23.0801,134.406,20.1621Q134.915,17.7539,135.232,15.416L130.995,15.416L130.697,14.3965ZM188.184,18.3164Q187.973,19.0723,186.707,18.9668Q186.18,19.916,185.459,20.8125L191.506,20.8125Q191.067,20.707,190.645,20.4082Q190.539,19.4062,189.959,18.3516Q189.696,17.8945,189.379,17.5254Q188.588,17.7188,187.762,17.7188L187.112,17.7188L187.112,6.22266L191.928,8.06836L194.67,8.06836L196.797,5.73047L201.262,9.07031Q201.122,9.28125,200.761,9.51855Q200.401,9.75586,199.821,9.86133L199.821,16.7695Q199.821,16.8926,199.135,17.1211Q198.45,17.3496,197.536,17.5693Q196.622,17.7891,195.866,17.7891L195.039,17.7891L195.039,15.9082L191.788,15.9082L191.788,16.3125Q191.788,16.4531,191.471,16.6641Q191.893,16.7344,192.227,16.8047Q193.405,17.209,193.862,17.8418Q194.319,18.4746,194.205,19.1514Q194.09,19.8281,193.598,20.3027Q193.229,20.6719,192.737,20.8125L195.795,20.8125L198.239,17.7188L198.696,18.0352Q199.135,18.4043,199.838,18.9404Q200.541,19.4766,201.315,20.0918Q202.088,20.707,202.739,21.2344Q202.598,21.8145,201.684,21.8145L189.59,21.8145Q191.471,23.0098,194.161,23.6953Q197.87,24.627,202.985,24.8027L202.95,25.207Q202.159,25.6992,201.675,27.0176Q201.192,28.3359,201.086,30.1289Q200.137,29.8828,199.311,29.584L199.311,37.9512Q199.311,38.0566,198.625,38.3027Q197.94,38.5488,197.026,38.7686Q196.112,38.9883,195.356,38.9883L194.53,38.9883L194.53,36.6855L191.366,36.6855L191.366,37.7227Q191.366,37.916,190.768,38.2764Q190.17,38.6367,189.256,38.9004Q188.342,39.1641,187.323,39.1641L186.672,39.1641L186.672,25.8926L191.506,27.7559L194.161,27.7559L194.459,27.4395Q192.403,26.209,190.926,24.7324Q189.625,23.3965,188.518,21.8145L184.563,21.8145Q183.913,22.5,183.192,23.1504Q180.889,25.207,177.356,26.8594Q176.776,27.1055,176.196,27.3516L177.25,27.7559L179.694,27.7559L181.786,25.5586L186.004,28.7227Q185.846,28.916,185.547,29.1094Q185.248,29.3027,184.739,29.4082L184.739,37.5469Q184.739,37.6875,184.088,37.9951Q183.438,38.3027,182.559,38.5576Q181.68,38.8125,180.889,38.8125L180.063,38.8125L180.063,36.6855L177.11,36.6855L177.11,38.0215Q177.11,38.2324,176.53,38.5752Q175.95,38.918,175.053,39.1904Q174.157,39.4629,173.172,39.4629L172.539,39.4629L172.539,28.6523Q170.764,29.1973,168.76,29.6367L168.567,29.2324Q172.68,27.5449,175.37,25.3828Q177.532,23.6602,179.008,21.8145L168.901,21.8145L168.602,20.8125L179.764,20.8125Q181.065,18.9316,181.856,17.1738Q181.206,17.3145,180.59,17.3145L179.764,17.3145L179.764,15.9082L176.741,15.9082L176.741,17.4902Q176.741,17.6836,176.169,18.0176Q175.598,18.3516,174.693,18.6064Q173.788,18.8613,172.821,18.8613L172.17,18.8613L172.17,6.22266L176.881,8.06836L179.413,8.06836L181.452,5.87109L185.706,9.03516Q185.565,9.21094,185.257,9.41309Q184.95,9.61523,184.44,9.7207L184.44,16.084Q184.44,16.2422,183.807,16.5234Q183.579,16.6289,183.332,16.6992L188.184,18.3164ZM194.53,28.7578L191.366,28.7578L191.366,35.6836L194.53,35.6836L194.53,28.7578ZM180.063,35.6836L180.063,28.7578L177.11,28.7578L177.11,35.6836L180.063,35.6836ZM195.039,14.9062L195.039,9.07031L191.788,9.07031L191.788,14.9062L195.039,14.9062ZM179.764,14.9062L179.764,9.07031L176.741,9.07031L176.741,14.9062L179.764,14.9062ZM225.457,37.8633Q225.457,38.0566,224.894,38.4346Q224.332,38.8125,223.33,39.1201Q222.328,39.4277,220.922,39.4277L219.867,39.4277L219.867,9.89648L206.595,9.89648L206.297,8.89453L232.295,8.89453L235.318,5.00977L235.898,5.39648Q236.425,5.83594,237.278,6.50391Q238.131,7.17188,239.08,7.92773Q240.029,8.68359,240.785,9.31641Q240.644,9.89648,239.677,9.89648L225.457,9.89648L225.457,16.1367Q229.06,16.6289,231.574,17.5605Q234.316,18.6152,235.968,19.8896Q237.621,21.1641,238.377,22.5176Q239.132,23.8711,239.115,25.04Q239.097,26.209,238.464,27Q237.832,27.791,236.768,27.9932Q235.705,28.1953,234.386,27.5449Q233.56,26.0332,232.426,24.5039Q231.293,22.9746,229.974,21.5156Q228.656,20.0566,227.285,18.7207Q226.353,17.8242,225.457,17.0684L225.457,37.8633ZM266.895,20.1973L269.585,17.5957L274.014,21.4277Q273.804,21.6738,273.426,21.8496Q273.048,22.0254,272.432,22.1484Q272.186,26.8945,271.729,30.041Q271.272,33.1875,270.578,35.042Q269.884,36.8965,268.759,37.7578Q267.722,38.5488,266.438,38.9268Q265.155,39.3047,263.186,39.3047Q263.222,38.1621,263.055,37.2568Q262.888,36.3516,262.395,35.8594Q261.886,35.2441,260.928,34.7783Q259.97,34.3125,258.651,34.0137L258.686,33.6621Q259.548,33.6973,260.55,33.7676Q261.552,33.8379,262.439,33.873Q263.327,33.9082,263.714,33.9082Q264.188,33.9082,264.478,33.8203Q264.768,33.7324,265.014,33.5566Q265.595,33.082,266.008,31.4121Q266.421,29.7422,266.737,26.8945Q267.036,24.4512,267.212,21.1992L259.214,21.1992Q259.179,21.2695,259.179,21.3047Q258.458,25.2773,256.806,28.749Q255.153,32.2207,252.165,34.9717Q249.177,37.7227,244.431,39.5684L244.202,39.2344Q247.419,36.7559,249.414,33.7676Q251.409,30.7793,252.473,27.4131Q253.536,24.0469,253.923,20.4434Q254.257,17.2441,254.292,13.9395L244.501,13.9395L244.202,12.9199L270.376,12.9199L273.153,9.31641L273.698,9.7207Q274.19,10.1074,274.981,10.7227Q275.772,11.3379,276.642,12.041Q277.513,12.7441,278.233,13.3594Q278.163,13.6406,277.873,13.79Q277.583,13.9395,277.179,13.9395L260.093,13.9395Q259.864,17.1387,259.372,20.1973L266.895,20.1973ZM256.981,5.18555Q260.04,5.32617,261.824,6.09961Q263.608,6.87305,264.347,7.93652Q265.085,9,264.979,10.0459Q264.874,11.0918,264.171,11.8301Q263.468,12.5684,262.387,12.6738Q261.306,12.7793,260.04,11.9531Q259.829,10.7227,259.31,9.53613Q258.792,8.34961,258.124,7.26855Q257.456,6.1875,256.735,5.36133L256.981,5.18555ZM284.604,28.3008Q287.557,28.8633,289.49,29.8125Q289.859,28.6523,290.211,27.4043Q290.58,26.1387,290.932,24.9434Q291.072,24.4512,291.231,23.9766L283.637,23.9766L283.303,22.9746L291.072,22.9746L293.639,20.5137L297.488,24.293L297.488,12.8145L302.234,14.6953L302.955,14.6953Q302.955,14.1504,302.955,13.4648L302.955,9.35156L296.293,9.35156L296.012,8.34961L309.547,8.34961L312.025,5.11523L312.5,5.4668Q312.94,5.83594,313.634,6.38965Q314.328,6.94336,315.11,7.57617Q315.893,8.20898,316.525,8.78906Q316.385,9.35156,315.523,9.35156L308.44,9.35156Q307.895,10.1953,307.244,11.0918Q306.313,12.3926,305.363,13.5352Q304.871,14.1855,304.361,14.6953L309.477,14.6953L311.463,12.6035L315.453,15.627Q315.313,15.8027,315.023,15.9873Q314.732,16.1719,314.258,16.2422L314.258,29.3027Q314.258,29.4434,313.634,29.7158Q313.01,29.9883,312.157,30.2256Q311.305,30.4629,310.549,30.4629L309.793,30.4629L309.793,15.6973L302.023,15.6973L302.023,29.4082Q302.023,29.6367,301.47,29.9883Q300.916,30.3398,300.028,30.6123Q299.141,30.8848,298.174,30.8848L297.488,30.8848L297.488,24.8379Q297.383,24.873,297.277,24.9082Q296.943,25.0137,296.328,25.0488Q295.397,26.0332,294.105,27.3076Q292.813,28.582,291.477,29.8477Q291.107,30.1992,290.791,30.5332Q292.303,31.5,293.094,32.5371Q294.061,33.873,294.175,35.1123Q294.289,36.3516,293.727,37.2041Q293.164,38.0566,292.136,38.2324Q291.107,38.4082,289.895,37.6172Q289.42,36,288.541,34.3652Q287.662,32.7305,286.546,31.2188Q285.43,29.707,284.305,28.5117L284.604,28.3008ZM309.758,17.8242Q309.688,18.1758,309.362,18.4131Q309.037,18.6504,308.404,18.6504Q308.246,22.0254,308.053,24.8555Q307.859,27.6855,307.209,29.9531Q307.139,30.1992,307.033,30.498Q309.617,30.8848,311.34,31.6406Q313.467,32.5723,314.513,33.7676Q315.559,34.9629,315.743,36.1318Q315.928,37.3008,315.418,38.127Q314.908,38.9531,313.941,39.208Q312.975,39.4629,311.709,38.8125Q311.094,37.3711,310.065,35.8594Q309.037,34.3477,307.859,32.9414Q307.209,32.2207,306.594,31.5703Q306.014,32.8711,305.082,33.9785Q303.606,35.7891,300.942,37.0986Q298.279,38.4082,294.061,39.2695L293.779,38.7422Q296.838,37.5117,298.745,36.0176Q300.652,34.5234,301.698,32.6338Q302.744,30.7441,303.175,28.4062Q303.606,26.0684,303.676,23.1504Q303.746,20.2324,303.746,16.6289L309.758,17.8242ZM292.022,7.73438Q292.022,7.76953,291.986,7.83984Q293.885,8.49023,295.01,9.35156Q296.328,10.4062,296.82,11.4873Q297.313,12.5684,297.163,13.4824Q297.014,14.3965,296.407,14.9414Q295.801,15.4863,294.931,15.4863Q294.061,15.4863,293.129,14.6953Q293.059,13.5,292.698,12.2783Q292.338,11.0566,291.863,9.86133Q291.688,9.47461,291.512,9.07031Q290.791,10.916,289.719,12.8145Q289.104,13.9395,288.418,14.9766Q290.58,15.5215,291.723,16.3477Q292.988,17.2441,293.331,18.2021Q293.674,19.1602,293.331,19.9688Q292.988,20.7773,292.232,21.2256Q291.477,21.6738,290.501,21.5508Q289.525,21.4277,288.629,20.4785Q288.805,19.002,288.559,17.5605Q288.348,16.4883,288.014,15.5918Q287.188,16.7695,286.291,17.8945Q284.305,20.3379,281.897,22.1484L281.58,21.8848Q282.652,20.1621,283.558,18Q284.463,15.8379,285.157,13.5176Q285.852,11.1973,286.326,9Q286.801,6.80273,286.977,5.04492L293.463,6.87305Q293.393,7.24219,293.067,7.45312Q292.742,7.66406,292.022,7.73438ZM319.486,30.0234Q320.822,29.8477,322.948,29.5488L322.948,9.7207L320.101,9.7207L319.802,8.71875L334.357,8.71875L336.87,5.43164L337.345,5.80078Q337.767,6.15234,338.47,6.73242Q339.173,7.3125,339.947,7.93652Q340.72,8.56055,341.37,9.14062Q341.23,9.7207,340.368,9.7207L336.589,9.7207L336.589,27.3516Q338.452,27.0352,340.404,26.7188L340.474,27.1406Q338.822,28.0371,336.589,29.0918L336.589,37.7578Q336.589,37.9512,336.115,38.3467Q335.64,38.7422,334.743,39.0674Q333.847,39.3926,332.546,39.3926L331.65,39.3926L331.65,31.2891Q328.046,32.8359,323.195,34.6992Q322.825,35.4551,322.193,35.6484L319.486,30.0234ZM346.45,12.5332L349.07,9.7207L353.693,13.7812Q353.499,14.1152,353.192,14.2559Q352.884,14.3965,352.216,14.502Q351.636,18.0352,350.555,21.5596Q349.474,25.084,347.716,28.3359Q347.417,28.8281,347.171,29.2676Q347.347,29.4785,347.523,29.6719Q350.511,32.6602,354.255,34.6289L354.15,35.1035Q352.497,35.5254,351.434,36.6416Q350.37,37.7578,350.089,39.2695Q346.802,36.6504,344.534,32.9414Q343.849,33.6973,343.163,34.418Q340.404,37.2656,336.484,39.3926L336.115,39.0938Q338.628,36.6152,340.509,33.5215Q341.704,31.5,342.671,29.3379Q342.531,28.9863,342.372,28.582Q339.823,22.2891,338.962,13.5352L337.046,13.5352L336.73,12.5332L346.45,12.5332ZM344.183,25.4531Q345.115,22.6406,345.765,19.7578Q346.45,16.5938,346.802,13.5352L339.753,13.5352Q340.685,18.5801,342.531,22.4297Q343.286,24.0117,344.183,25.4531ZM331.65,22.2188L331.65,16.4531L327.8,16.4531L327.8,22.2188L331.65,22.2188ZM331.65,15.4512L331.65,9.7207L327.8,9.7207L327.8,15.4512L331.65,15.4512ZM331.65,28.1953L331.65,23.2207L327.8,23.2207L327.8,28.793Q327.87,28.793,327.976,28.7578Q329.751,28.5117,331.65,28.1953ZM371.788,7.20703L376.657,9.43945Q377.694,9.03516,378.784,8.5957Q381.086,7.69922,383.187,6.73242Q385.288,5.76562,386.623,5.00977L391.405,9.75586Q391.053,10.002,390.385,10.002Q389.717,10.002,388.821,9.65039Q387.028,9.89648,384.602,10.1074Q384.461,10.1074,384.356,10.1602Q384.25,12.3398,384.25,14.6074Q384.215,17.3496,384.426,19.9512Q384.426,20.127,384.461,20.2676L386.149,20.2676L388.346,16.9629L388.75,17.3145Q389.137,17.7188,389.752,18.29Q390.368,18.8613,391.036,19.5117Q391.704,20.1621,392.196,20.707Q392.055,21.2695,391.229,21.2695L384.567,21.2695Q384.795,23.1504,385.147,24.873Q385.622,27.2109,386.43,29.1357Q387.239,31.0605,388.381,32.3965Q388.68,32.7656,388.909,32.7305Q389.137,32.6953,389.401,32.291Q389.788,31.6055,390.332,30.4717Q390.877,29.3379,391.299,28.2305L391.668,28.3359L390.948,34.2422Q391.668,35.8945,391.827,36.9756Q391.985,38.0566,391.229,38.6719Q390.227,39.4277,389.058,39.2432Q387.889,39.0586,386.878,38.3906Q385.868,37.7227,385.252,36.9668Q383.319,34.418,382.167,31.2451Q381.016,28.0723,380.471,24.4512Q380.207,22.9043,380.067,21.2695L376.516,21.2695L376.516,32.8711Q376.868,32.7656,377.272,32.6074Q379.135,32.0801,381.051,31.4648L381.157,31.7812Q380.506,32.4668,379.408,33.583Q378.309,34.6992,376.868,36.0352Q375.901,36.9316,374.811,37.8633Q374.319,38.918,373.668,39.3398L370.539,34.6289Q371.366,34.0137,371.577,33.6006Q371.788,33.1875,371.788,32.4668L371.788,15.6621Q371.032,16.6641,369.995,17.7539Q368.518,19.2656,366.769,20.7773Q365.02,22.2891,363.262,23.5723Q362.541,24.1172,361.856,24.5918Q363.684,24.4512,366.004,24.1875Q368.413,23.9766,370.891,23.6953L370.926,24.082Q369.45,24.9785,366.707,26.4902Q364.194,27.8965,361.065,29.373Q360.661,29.9531,360.133,30.1641L357.866,24.6973L358.428,24.5566Q359.008,24.416,359.342,24.1523Q360.379,23.3965,361.61,21.9199Q362.717,20.5137,363.842,18.8262Q362.401,19.582,360.748,20.3379Q360.414,20.707,360.028,20.8828L357.76,15.4512L358.288,15.293Q358.797,15.1523,359.079,14.9766Q359.764,14.4316,360.538,13.2803Q361.311,12.1289,362.032,10.7051Q362.752,9.28125,363.315,7.90137Q363.877,6.52148,364.123,5.43164L370.416,7.96289Q370.276,8.31445,369.784,8.45508Q369.52,8.52539,369.204,8.52539Q368.518,9.43945,367.551,10.4062Q366.356,11.584,365.002,12.7441Q363.649,13.9043,362.295,14.8711Q361.75,15.2227,361.241,15.5566Q362.963,15.5215,365.125,15.416Q365.495,15.416,365.846,15.416Q365.952,15.1875,366.075,15.0117Q367.006,13.2188,367.428,11.8125L371.788,14.0449L371.788,7.20703ZM357.672,32.1152Q358.832,31.9746,360.959,31.667Q363.086,31.3594,365.732,30.8936Q368.377,30.4277,371.032,29.8828L371.102,30.1992Q369.59,31.4297,367.077,33.249Q364.563,35.0684,360.819,37.3359Q360.52,38.0918,359.729,38.3379L357.672,32.1152ZM376.516,20.2676L379.961,20.2676Q379.856,18.6504,379.786,16.998Q379.68,13.7461,379.68,10.4766Q379.61,10.4766,379.539,10.4766Q377.993,10.5469,376.516,10.6172L376.516,20.2676ZM419.132,23.1504Q419.027,23.502,418.702,23.7393Q418.377,23.9766,417.761,23.9766Q417.586,26.3848,417.252,28.4062Q417.005,29.9531,416.461,31.2891Q418.482,31.1836,420.134,31.2891L420.134,20.8125L409.957,20.8125L409.957,32.0098Q409.957,32.2207,409.324,32.5811Q408.691,32.9414,407.742,33.2314Q406.793,33.5215,405.773,33.5215L405.052,33.5215L405.052,17.8242L410.168,19.793L411.89,19.793Q411.925,18.7559,411.961,17.4199Q411.996,16.5234,411.996,15.5918L403.804,15.5918L403.804,18.7207Q403.804,21.1289,403.602,23.8887Q403.4,26.6484,402.644,29.4346Q401.888,32.2207,400.271,34.7783Q398.654,37.3359,395.806,39.3926L395.437,39.0586Q396.984,35.9648,397.67,32.4756Q398.355,28.9863,398.522,25.4004Q398.689,21.8145,398.689,18.5449L398.689,7.83984L404.226,9.58008Q405.949,9.28125,407.83,8.89453Q410.818,8.31445,413.771,7.62891Q416.724,6.94336,419.282,6.22266Q421.839,5.50195,423.632,4.85156L428.273,9.68555Q427.922,9.93164,427.236,9.91406Q426.55,9.89648,425.619,9.50977Q423.351,9.75586,420.504,9.97559Q417.656,10.1953,414.562,10.3008Q413.912,10.3359,413.261,10.3711L418.693,10.8281Q418.658,11.3027,418.28,11.5928Q417.902,11.8828,417.304,12.0234Q417.146,13.1836,416.935,14.5723L421.33,14.5723L423.949,11.3379L424.459,11.707Q424.933,12.0586,425.689,12.6211Q426.445,13.1836,427.271,13.8076Q428.097,14.4316,428.783,15.0117Q428.642,15.5918,427.728,15.5918L416.795,15.5918Q416.619,16.7344,416.461,17.8594Q416.32,18.9316,416.179,19.793L419.783,19.793L422.015,17.3145L426.726,20.8477Q426.55,21.0586,426.208,21.2783Q425.865,21.498,425.285,21.6387L425.285,30.5332Q425.285,30.6387,424.547,30.9111Q423.808,31.1836,422.841,31.3945Q422.402,31.5,421.98,31.5352Q424.248,31.9746,425.654,32.8008Q427.201,33.7324,427.825,34.8311Q428.449,35.9297,428.273,36.9404Q428.097,37.9512,427.271,38.5049Q426.445,39.0586,425.074,38.8828Q424.142,37.9512,422.877,36.9404Q421.611,35.9297,420.214,34.9717Q418.816,34.0137,417.375,33.1875Q416.619,32.7656,415.933,32.3965Q415.107,33.873,413.56,35.0684Q411.82,36.4043,408.832,37.3535Q405.843,38.3027,401.238,38.9531L401.027,38.4082Q404.437,37.4062,406.617,36.2373Q408.797,35.0684,410.018,33.6445Q411.24,32.2207,411.785,30.4893Q412.33,28.7578,412.453,26.6572Q412.576,24.5566,412.611,21.9551L419.132,23.1504ZM403.804,10.4414L403.804,14.5723L412.048,14.5723Q412.048,14.1855,412.084,13.7812Q412.119,11.9883,412.119,10.4062Q410.203,10.4414,408.252,10.4414Q405.949,10.4766,403.804,10.4414ZM467.409,10.1074Q466.829,10.6172,465.757,10.2305Q464.052,10.4766,462.056,10.5996Q460.061,10.7227,458.049,10.7578Q456.036,10.793,454.296,10.7227Q454.085,10.7227,453.909,10.7227L453.909,16.998L460.36,16.998L462.804,14.4316L467.093,18.1758Q466.899,18.5098,466.592,18.6328Q466.284,18.7559,465.651,18.8262Q464.966,22.0254,463.77,25.0488Q462.628,27.8613,460.888,30.3926Q462.013,31.4648,463.225,32.291Q465.317,33.7676,467.69,34.8926L467.62,35.2793Q466.073,35.4902,464.887,36.5186Q463.7,37.5469,463.05,39.2695Q461.028,37.582,459.552,35.6484Q458.848,34.6992,458.233,33.627Q457.143,34.6641,455.93,35.6484Q453.118,37.8281,449.233,39.4277L448.934,39.0234Q452.573,36.5098,454.981,32.9766Q455.93,31.6406,456.686,30.1992Q455.93,28.0371,455.421,25.3125Q454.805,22.1484,454.489,18L453.909,18L453.909,19.8633Q453.909,22.2891,453.689,24.917Q453.47,27.5449,452.661,30.1553Q451.852,32.7656,450.13,35.1387Q448.407,37.5117,445.419,39.4277L445.085,39.1641Q447.036,36.3516,447.915,33.1523Q448.794,29.9531,449.049,26.5693Q449.304,23.1855,449.304,19.8633L449.304,17.7188Q449.163,17.7539,448.97,17.7539L439.337,17.7539L439.337,22.6758L441.235,22.6758L443.397,20.3379L447.721,23.6953Q447.528,23.9062,447.168,24.1172Q446.807,24.3281,446.245,24.4512L446.245,36.5801Q446.245,36.7559,445.63,37.1338Q445.014,37.5117,444.136,37.8193Q443.257,38.127,442.395,38.127L441.604,38.127L441.604,23.6953L439.337,23.6953Q439.249,26.5957,438.792,29.2324Q438.212,32.2559,436.876,34.7959Q435.54,37.3359,433.202,39.3047L432.85,39.0234Q434.116,35.5605,434.476,31.5527Q434.837,27.5449,434.837,22.9043L434.837,6.22266L440.62,6.76758Q440.585,7.13672,440.312,7.41797Q440.04,7.69922,439.337,7.80469L439.337,16.7344L440.848,16.7344L440.848,5.43164L446.596,5.90625Q446.561,6.25781,446.333,6.49512Q446.104,6.73242,445.454,6.83789L445.454,16.1719L446.895,13.6758L447.423,14.2559Q447.968,14.8711,448.688,15.6621Q449.005,16.0488,449.304,16.418L449.304,7.96289L453.47,9.4043Q454.155,9.14062,454.911,8.82422Q456.897,8.0332,459.077,7.05762Q461.257,6.08203,463.296,5.15039L467.409,10.1074ZM458.198,27Q458.514,26.209,458.796,25.3828Q460.026,21.7441,460.641,18L455.052,18Q455.596,21.3926,456.651,23.9414Q457.337,25.5938,458.198,27ZM486.207,7.38281L498.916,7.38281L501.184,5.25586L505.174,8.49023Q504.77,9,503.803,9.14062Q503.592,12.7441,503.047,14.5811Q502.502,16.418,501.289,17.1738Q500.744,17.4902,500.129,17.7188L503.979,20.5137Q503.838,20.707,503.513,20.9004Q503.188,21.0938,502.695,21.1992L502.695,28.1602Q502.695,28.2656,501.975,28.5293Q501.254,28.793,500.296,29.0127Q499.338,29.2324,498.547,29.2324L497.686,29.2324L497.686,27.2812L492.904,27.2812L492.904,28.1602Q492.904,28.3359,492.289,28.6963Q491.674,29.0566,490.733,29.3203Q489.793,29.584,488.791,29.584L488.105,29.584L488.105,18.4043Q486.998,18.9668,485.697,19.4766L485.592,19.3359L485.592,27.4746Q485.592,27.6152,484.941,27.9229Q484.291,28.2305,483.395,28.459Q482.498,28.6875,481.672,28.6875L480.863,28.6875L480.863,25.8398L477.998,25.8398L477.998,28.6875Q477.998,28.9512,477.436,29.3291Q476.873,29.707,475.977,30.0059Q475.08,30.3047,474.025,30.3047L473.305,30.3047L473.305,6.62695L478.139,8.56055L480.512,8.56055L482.674,6.1875L487.033,9.58008Q486.893,9.79102,486.532,10.0107Q486.172,10.2305,485.592,10.3359L485.592,18.8613Q487.174,17.4551,488.07,16.0488Q489.037,14.5371,489.494,13.043Q489.951,11.5488,490.092,10.1074Q490.162,9.21094,490.232,8.38477L486.523,8.38477L486.207,7.38281ZM495.594,8.38477Q495.453,9.47461,495.084,10.582Q494.592,12.2344,493.493,13.8428Q492.395,15.4512,490.514,16.8926Q489.793,17.4199,488.932,17.9297L493.08,19.5117L497.316,19.5117L498.688,18.0352Q497.967,18.1406,497.105,18.1406Q497.105,17.209,497,16.4355Q496.895,15.6621,496.534,15.1963Q496.174,14.7305,495.594,14.4053Q495.014,14.0801,494.082,13.8516L494.082,13.4297Q494.592,13.4648,495.198,13.5Q495.805,13.5352,496.385,13.5527Q496.965,13.5703,497.246,13.5703Q497.967,13.5703,498.195,13.3594Q498.582,13.0605,498.863,11.584Q499.092,10.4062,499.197,8.38477L495.594,8.38477ZM495.559,29.8125Q498.916,30.4277,500.911,31.5439Q502.906,32.6602,503.803,33.9521Q504.699,35.2441,504.734,36.4482Q504.77,37.6523,504.146,38.4785Q503.521,39.3047,502.458,39.4541Q501.395,39.6035,500.129,38.7773Q499.742,37.2305,498.969,35.6396Q498.195,34.0488,497.237,32.6162Q496.279,31.1836,495.277,30.0234L495.559,29.8125ZM477.242,29.8477L477.664,29.8477Q478.525,32.291,478.314,34.1982Q478.104,36.1055,477.233,37.3447Q476.363,38.584,475.221,39.1289Q474.025,39.709,472.821,39.2959Q471.617,38.8828,471.23,37.6523Q470.932,36.5098,471.529,35.6748Q472.127,34.8398,473.094,34.418Q474.025,34.1367,474.931,33.5039Q475.836,32.8711,476.486,31.9307Q477.137,30.9902,477.242,29.8477ZM487.859,30.3398Q490.777,30.9551,492.447,32.001Q494.117,33.0469,494.785,34.251Q495.453,35.4551,495.348,36.5361Q495.242,37.6172,494.557,38.3203Q493.871,39.0234,492.86,39.0762Q491.85,39.1289,490.742,38.2324Q490.637,36.8613,490.162,35.4727Q489.688,34.084,489.02,32.8096Q488.352,31.5352,487.561,30.5332L487.859,30.3398ZM481.338,30.0938Q483.746,31.2188,484.994,32.5107Q486.242,33.8027,486.585,35.042Q486.928,36.2812,486.585,37.292Q486.242,38.3027,485.486,38.8477Q484.73,39.3926,483.737,39.2432Q482.744,39.0938,481.812,38.0566Q481.988,36.7207,481.9,35.3496Q481.812,33.9785,481.575,32.6689Q481.338,31.3594,480.986,30.2344L481.338,30.0938ZM497.686,26.2793L497.686,20.5137L492.904,20.5137L492.904,26.2793L497.686,26.2793ZM480.863,24.8379L480.863,17.5254L477.998,17.5254L477.998,24.8379L480.863,24.8379ZM480.863,16.5234L480.863,9.58008L477.998,9.58008L477.998,16.5234L480.863,16.5234ZM514.497,6.01172L520.948,6.62695Q520.896,6.97852,520.614,7.25098Q520.333,7.52344,519.612,7.62891L519.612,15.7324L526.204,15.7324L526.204,5.25586L533.077,5.76562Q533.042,6.15234,532.752,6.4248Q532.462,6.69727,531.636,6.83789L531.636,15.7324L535.275,15.7324L537.964,11.9883L538.474,12.3926Q538.948,12.8145,539.722,13.4648Q540.495,14.1152,541.321,14.8359Q542.148,15.5566,542.798,16.1719Q542.763,16.4531,542.455,16.5938Q542.148,16.7344,541.743,16.7344L519.612,16.7344L519.612,19.0723Q519.577,21.0938,519.349,23.0801L527.927,23.0801L530.3,20.4785L535.116,24.1523Q534.941,24.3633,534.598,24.583Q534.255,24.8027,533.693,24.9434L533.693,38.0566Q533.693,38.1973,532.928,38.4873Q532.163,38.7773,531.126,39.0234Q530.089,39.2695,529.193,39.2695L528.279,39.2695L528.279,24.082L519.243,24.082Q519.173,24.5918,519.103,25.0488Q518.593,28.0371,517.424,30.7441Q516.255,33.4512,514.19,35.6572Q512.124,37.8633,508.872,39.3926L508.626,39.1289Q511.105,36.4746,512.37,33.2139Q513.636,29.9531,514.067,26.3496Q514.497,22.7461,514.497,19.0723L514.497,6.01172Z" fill="#000000" fill-opacity="1"/></g><g><g><rect x="97" y="107" width="350" height="350" rx="24" fill="#F3F3F3" fill-opacity="1"/><rect x="97" y="107" width="350" height="350" rx="24" fill="url(#master_svg0_20_71380)" fill-opacity="0.8999999761581421"/><rect x="98" y="108" width="348" height="348" rx="23" stroke="url(#master_svg1_20_71342)" fill-opacity="0" fill="none" stroke-width="2"/><g clip-path="url(#master_svg2_71_5088)"><g><path d="M270.73610625,195.1544015625C271.58900625,196.0135015625,272.97840625,196.0135015625,273.83140625,195.1544015625L294.91010625,174.0756515625C295.76430625,173.2215015625,295.76430625,171.8366615625,294.91010625,170.9825215625C294.05600625,170.1283805625,292.67110625,170.1283795625,291.81700625,170.9825215625L272.28480625,190.5147015625L252.17513625,170.4072075625C251.32099625,169.5530655625,249.93615625,169.5530665625,249.08201325,170.4072085625C248.22787125,171.2613515625,248.22787125,172.6461915625,249.08201325,173.5003315625L270.73610625,195.1544015625ZM291.81700625,188.4847015625L272.28480625,208.0169015625L252.17732625,187.9094015625C251.32318625,187.0552015625,249.93834625,187.0552015625,249.08420025,187.9094015625C248.23005725,188.7635015625,248.23005725,190.1484015625,249.08420025,191.00250156250002L270.73830625,212.6566015625C271.59120625,213.5157015625,272.98060625,213.5157015625,273.83360625,212.6566015625L294.91230625000003,191.57780156249999C295.76650625,190.7231015625,295.76600625,189.3378015625,294.91120625,188.48360156249998C294.05650625,187.6295015625,292.67110625,187.6300015625,291.81700625,188.4847015625Z" fill="#000000" fill-opacity="1" style="mix-blend-mode:passthrough"/></g></g><g clip-path="url(#master_svg3_71_5096)"><g><path d="M351.2765625,339.76606103515627L351.2765625,279.28816103515624C351.2765625,271.69006103515625,345.0825625,265.49806103515624,337.48456250000004,265.49806103515624L320.8845625,265.49806103515624L320.8845625,233.86998103515626C320.8755625,228.97400103515625,316.9085625,225.00757867515625,312.0125625,225.00006103515625L231.9884625,225.00006103515625C227.0933625,225.00887507515625,223.1273625,228.97491103515625,223.1185625,233.86998103515626L223.1185625,265.49806103515624L206.5165625,265.49806103515624C198.9205125,265.49806103515624,192.7265625,271.69006103515625,192.7265625,279.28816103515624L192.7265625,339.76606103515627C192.7265625,347.3640610351563,198.9205125,353.55806103515624,206.5165625,353.55806103515624L223.1185625,353.55806103515624L223.1185625,380.13206103515626C223.1273625,385.02706103515624,227.0933625,388.99306103515624,231.9884625,389.00206103515626L312.0165625,389.00206103515626C316.9115625,388.99306103515624,320.8775625,385.02706103515624,320.88656249999997,380.13206103515626L320.88656249999997,353.52206103515624L337.4885625,353.52206103515624C345.1205625,353.52206103515624,351.2765625,347.3640610351563,351.2765625,339.76606103515627ZM229.7464625,233.86998103515626C229.7464625,232.63209103515624,230.7503625,231.62799103515624,231.9886625,231.62799103515624L312.0165625,231.62799103515624C313.2525625,231.62799103515624,314.2585625,232.63190103515626,314.2585625,233.87018103515624L314.2585625,265.49806103515624L229.7464625,265.49806103515624L229.7464625,233.86998103515626ZM314.29256250000003,380.12806103515624C314.2935625,381.3670610351562,313.2895625,382.37106103515623,312.0505625,382.37006103515625L231.9908625,382.37006103515625C230.7519625,382.37106103515623,229.74746249999998,381.3670610351562,229.7486625,380.12806103515624L229.7486625,312.86006103515626L314.2605625,312.86006103515626L314.2605625,380.13406103515626L314.2945625,380.13406103515626L314.2945625,380.12806103515624L314.29256250000003,380.12806103515624ZM344.64656249999996,339.76606103515627C344.6425625,343.7200610351563,341.4385625,346.9240610351562,337.48456250000004,346.92806103515625L320.8845625,346.92806103515625L320.8845625,309.5418610351562C320.89156249999996,307.7091610351563,319.4035625,306.22206103515623,317.5705625,306.22996103515624L226.4345625,306.22996103515624C224.6018625,306.22216103515626,223.1138625,307.7091610351563,223.1204625,309.5418610351562L223.1204625,346.9240610351562L206.5185625,346.9240610351562C202.5643725,346.92106103515624,199.3596825,343.71606103515626,199.3564525,339.76206103515625L199.3564525,279.28816103515624C199.3607625,275.33436103515623,202.5648225,272.1303610351562,206.5185625,272.1260610351562L337.48456250000004,272.1260610351562C341.4385625,272.1303610351562,344.6425625,275.33446103515627,344.64656249999996,279.28816103515624L344.64656249999996,339.76606103515627L344.64656249999996,339.76606103515627ZM216.2925625,281.11416103515626C214.1964625,281.11416103515626,212.1785625,282.00006103515625,210.6505625,283.45006103515624C209.1945625,284.9820610351562,208.3126625,286.99616103515626,208.3126625,289.09206103515623C208.3126625,291.18816103515627,209.1986625,293.2080610351562,210.6505625,294.73406103515623C212.1785625,296.18596103515625,214.1964625,297.0719610351563,216.2925625,297.0719610351563C218.3945625,297.0719610351563,220.4085625,296.18596103515625,221.9384625,294.73406103515623C223.4217625,293.22906103515623,224.2597625,291.20506103515623,224.2743625,289.09206103515623C224.2743625,286.99616103515626,223.3865625,284.9820610351562,221.9384625,283.45006103515624C220.43076250000001,281.96856103515626,218.4062625,281.13096103515625,216.2925625,281.11416103515626Z" fill="#000000" fill-opacity="1" style="mix-blend-mode:passthrough"/></g></g></g></g></g></svg>