<svg xmlns="http://www.w3.org/2000/svg" xmlns:xlink="http://www.w3.org/1999/xlink" fill="none" version="1.1" width="1024" height="91" viewBox="0 0 1024 91"><g><g><path d="M153.296,4.52L155.552,2.696L159.2,6.008L157.28,7.88L148.64,7.88L148.64,10.808L152.72,10.808L154.976,8.936L158.672,12.248L156.704,14.168L148.64,14.168L148.64,17.144L154.064,17.144L156.32,15.272L160.016,18.584L158.048,20.504L130.496,20.504L129.68,17.144L141.104,17.144L141.104,14.168L133.04,14.168L132.224,10.808L141.104,10.808L141.104,7.88L130.88,7.88L130.064,4.52L141.104,4.52L141.104,0.776001L148.64,1.736L148.64,4.52L153.296,4.52ZM133.328,21.272L140.336,22.088L140.336,23.288L150.128,23.288L153.104,20.696L158.96,25.064L157.616,26.936L157.616,42.008Q157.616,46.328,153.344,46.328L149.552,46.328Q149.552,43.304,144.656,43.304L144.704,40.328Q147.104,40.232,149.216,40.232Q150.272,40.232,150.272,39.08L150.272,38.216L140.336,38.216L140.336,45.656L133.328,46.568L133.328,21.272ZM150.272,34.76L150.272,32.408L140.336,32.408L140.336,34.76L150.272,34.76ZM150.272,28.952L150.272,26.648L140.336,26.648L140.336,28.952L150.272,28.952ZM119.168,2.216Q124.784,4.712,128.24,7.928L123.392,13.4Q120.176,9.368,116.048,6.104L119.168,2.216ZM120.032,17.768L123.392,14.216L129.584,19.064L127.184,20.984L127.184,35.096Q128.912,34.376,130.64,33.512L132.368,37.112Q128.24,41.432,122.384,45.56L118.832,38.024Q119.696,37.784,120.56,37.496L120.56,25.208L120.464,25.208L120.464,21.8L116.384,21.8L115.424,17.768L120.032,17.768ZM184.304,10.328Q180.224,17.096,175.328,21.128L172.496,19.544Q178.688,10.712,180.848,1.112L188.048,3.272Q187.328,4.856,186.608,6.248Q187.952,7.736,189.296,8.888Q191.36,10.76,193.856,12.152L193.856,9.224L199.568,9.848L199.568,10.904L200.576,10.904Q201.344,9.032,201.776,7.16L192.176,7.16L191.312,3.848L211.472,3.848L213.728,1.688L217.76,5.288L215.84,7.16L208.304,7.16Q206.72,9.128,204.752,10.904L209.408,10.904L212,8.504L216.992,12.392L215.168,13.976L215.168,35L209.264,35.72L209.264,14.6L199.568,14.6L199.568,34.952L193.856,35.72L193.856,27.8L193.088,28.376Q189.968,32.84,185.888,36.056Q188.624,37.928,190.688,39.944L186.272,45.128Q180.848,38.792,175.328,34.472L177.584,31.352Q180.176,32.552,182.384,33.848Q185.408,30.488,186.608,27.176L175.184,27.176L174.368,23.72L181.76,23.72Q180.56,21.08,179.12,18.776L182.384,16.424Q183.488,17.48,187.088,21.8Q185.648,22.76,184.304,23.72L186.992,23.72L188.96,21.416L193.856,25.832L193.856,15.56L190.832,20.024Q187.04,15.752,184.304,10.328ZM208.16,36.008Q212.24,37.256,217.616,41.192L212.624,46.088Q210.512,42.344,206.048,37.88L208.16,36.008ZM201.68,15.704L207.536,16.52L207.536,29.864Q207.536,35.48,203.888,39.224Q200.336,43.208,193.28,45.8L190.736,42.2Q196.208,39.704,198.944,36.776Q201.68,34.232,201.68,29.96L201.68,15.704ZM250.688,3.224L253.088,1.016L257.36,4.808L255.776,6.392L265.712,6.392L268.496,3.272L275.6,7.784L273.248,9.896Q272.48,20.792,267.536,30.344Q270.56,34.856,275.6,38.888L270.656,46.088Q266.528,42.392,263.504,36.968Q260.24,41.624,256.064,45.8L253.04,43.64Q257.648,37.352,260.528,30.728Q257.024,21.992,255.488,10.088L254.288,10.088L253.424,6.824L252.416,6.824L252.416,30.296Q253.664,29.96,254.912,29.624L256.16,32.168Q254.336,33.176,252.416,34.136L252.416,45.272L245.312,45.944L245.312,37.496Q239.984,39.848,233.84,42.104L230.336,34.808Q232.016,34.568,233.648,34.28L233.648,6.824L231.872,6.824L230.912,3.224L250.688,3.224ZM259.376,10.088Q260.96,16.76,263.408,22.472Q265.088,16.424,265.376,10.088L259.376,10.088ZM240.752,32.984Q243.104,32.504,245.312,32.024L245.312,26.216L240.752,26.216L240.752,32.984ZM240.752,22.568L245.312,22.568L245.312,16.664L240.752,16.664L240.752,22.568ZM240.752,13.112L245.312,13.112L245.312,6.824L240.752,6.824L240.752,13.112ZM299.072,29.768L306.464,30.68L306.464,37.688Q306.464,38.936,307.712,38.936L317.552,38.936Q318.56,38.936,318.8,38.072L320.048,32.408L323.792,33.08Q323.408,34.568,323.408,35.864Q323.408,39.56,326.048,41.24Q324.56,45.176,320.912,45.176L303.968,45.176Q299.264,45.176,299.072,40.424L299.072,29.768ZM292.976,30.632L297.392,31.928Q296.864,37.448,294.176,43.976L287.552,40.424Q291.104,35.912,292.976,30.632ZM310.304,27.608Q312.8,28.76,318.368,33.224L312.32,37.88Q309.92,33.032,307.088,30.056L310.304,27.608ZM325.76,27.848Q330.08,31.688,333.008,36.008L326.864,40.28Q325.232,34.232,322.976,29.72L325.76,27.848ZM293.264,18.968Q291.872,20.12,290.576,20.84L287.744,18.2Q294.224,10.76,296.624,1.352L305.216,2.792Q303.248,7.544,300.416,11.336L300.416,28.712L293.264,29.528L293.264,18.968ZM308,1.448L315.632,4.184Q314.576,5.672,313.472,7.016L324.464,7.016L327.296,4.424L333.2,8.792L330.56,10.088L326.24,15.032L323.504,13.928L324.416,10.568L321.104,10.568L321.104,23.96Q321.104,28.904,317.408,28.904L314.048,28.904Q314.048,25.784,309.584,25.64L309.776,22.952L312.848,22.952Q313.952,22.952,313.952,21.8L313.952,10.568L310.304,10.568Q307.328,13.688,303.872,16.52L301.136,14.312Q304.784,9.512,308,1.448ZM306.848,14.408L313.424,16.76Q309.632,22.664,304.208,27.704L301.424,25.4Q304.304,21.32,306.848,14.408ZM324.992,15.08Q330.272,19.448,333.152,23.672L326.96,27.848Q324.992,21.848,321.92,16.952L324.992,15.08ZM370.304,1.832L378.08,3.176Q377.12,6.968,375.584,10.328L381.2,10.328L384.272,7.064L390.08,11.912L388.832,13.448L388.832,26.456Q388.832,41.288,386.432,43.352Q384.944,45.512,380.576,45.512L377.072,45.512Q377.072,41.72,371.024,40.76L371.408,37.688L378.56,38.024Q380.336,38.024,380.624,37.256Q381.632,33.896,381.632,29.192L381.632,13.88L373.808,13.88Q371.12,18.632,367.28,22.472L366.08,21.512L366.08,44.12L359.216,44.744L359.216,41.96L353.648,41.96L353.648,44.696L347.072,45.56L347.072,7.544L352.88,8.168Q353.84,4.76,354.08,1.88L361.472,3.464Q359.408,7.064,357.056,9.608L359.408,9.608L361.664,7.016L367.808,11.48L366.08,13.4L366.08,16.904Q369.44,9.848,370.304,1.832ZM353.648,38.792L359.216,38.792L359.216,25.976L353.648,25.976L353.648,38.792ZM353.648,22.904L359.216,22.904L359.216,12.824L353.648,12.824L353.648,22.904ZM372.704,20.408Q376.976,24.2,379.856,28.472L373.616,32.792Q371.792,27.032,369.248,22.664L372.704,20.408ZM415.76,9.416L421.424,12.344L421.424,2.6L428.096,3.464L428.096,5.432Q436.256,4.04,441.2,0.871998L447.488,5.816Q443.552,7.592,438.416,8.6Q438.848,14.12,439.28,18.488L441.056,18.488L443.744,16.04L448.352,20.072L446.192,22.232L439.664,22.232Q441.056,34.568,442.688,37.688Q443.264,37.688,444.224,31.064L447.488,31.976Q446.864,36.68,446.864,38.792Q446.864,40.52,447.824,41.768Q446.864,45.848,442.88,45.848Q438.848,45.848,436.592,41Q434.288,34.808,432.944,22.232L428.096,22.232L428.096,37.592Q430.784,36.632,433.472,35.48L434.96,38.552Q430.112,42.68,423.392,46.616L420.176,39.944Q420.848,39.8,421.424,39.608L421.424,14.6Q417.296,20.696,412.976,25.64Q415.808,24.872,418.544,23.912L420.032,27.032Q414.416,30.872,406.496,34.52L403.328,27.896Q404.768,27.656,406.112,27.32Q408.56,23.768,410.576,20.072Q407.456,20.984,404.912,21.512L403.376,15.704L404.48,15.704Q407.408,9.08,408.416,2.072L415.856,4.28Q413.12,11.048,409.856,15.32Q411.776,15.032,413.456,14.6Q414.704,12.008,415.76,9.416ZM432.56,18.488Q432.224,14.264,431.936,9.56Q430.064,9.752,428.096,9.896L428.096,18.488L432.56,18.488ZM419.024,31.784L420.512,34.856Q414.752,39.56,406.736,44.024L403.568,37.4Q411.248,35.48,419.024,31.784ZM473.072,17.048L480.512,17.912L480.512,19.88L484.64,19.88L484.64,15.896L472.976,15.896L472.016,12.152L484.64,12.152L484.64,8.552Q478.64,8.744,471.392,8.792L471.392,25.736Q471.392,32.84,469.232,37.496Q467.36,42.104,463.616,45.992L460.4,43.736Q464,35.384,464,25.304L464,1.736L471.392,2.84L471.392,4.904Q489.68,3.608,501.776,1.256L505.376,6.68Q500.192,7.688,491.648,8.216L491.648,12.152L497.984,12.152L500.768,9.704L505.328,13.784L503.168,15.896L491.648,15.896L491.648,19.88L495.776,19.88L499.04,16.856L505.28,21.704L503.456,23.768L503.456,36.008L496.976,36.824Q501.92,38.456,505.616,40.232L500.48,46.232Q494.336,41.624,488.144,38.264Q482.96,43.592,471.392,46.184L469.472,42.392Q484.256,37.736,484.256,28.952L484.256,24.104L492.224,25.16L492.224,28.184Q492.224,31.928,490.592,34.952Q493.52,35.72,496.016,36.488L496.016,23.384L480.512,23.384L480.512,36.008L473.072,36.968L473.072,17.048ZM520.112,2.024L526.304,2.696L526.304,15.512L528.368,15.512L528.368,1.208L534.224,1.976L534.224,14.936L535.856,13.544L538.352,15.752L538.352,2.408L545.36,3.464L545.36,4.712Q554,3.512,559.856,1.448L563.216,6.536Q557.744,8.504,545.36,8.744L545.36,15.752L553.52,15.752L556.688,13.256L563.456,17.912L560.768,19.64Q559.28,28.712,556.976,33.128Q556.832,33.464,556.64,33.752Q559.52,36.632,563.792,39.176L558.704,46.664Q555.152,43.832,552.56,39.704Q548.48,44.072,542.48,46.664L540.704,44.168Q545.6,40.856,549.2,33.944Q549.296,33.752,549.392,33.512Q546.896,27.272,545.696,19.16L545.36,19.16L545.36,26.984Q545.36,33.896,543.296,38.408Q541.52,42.92,537.968,46.664L535.52,44.984Q538.352,36.632,538.352,26.6L538.352,18.44L537.92,18.872L526.304,18.872L526.304,24.824L528.224,24.824L531.296,22.136L537.248,26.744L534.992,28.664L534.992,45.848L528.8,46.568L528.8,28.28L526.256,28.28Q526.016,39.368,521.312,46.52L518.384,45.272Q520.112,39.416,520.112,29.288L520.112,2.024ZM551.84,27.032Q552.896,23.24,553.28,19.16L548.336,19.16Q549.776,23.432,551.84,27.032ZM599.84,5.48L607.04,6.296L607.04,7.928L611.072,7.928L613.52,4.856L620.336,9.8L618.272,11.864L618.272,42.296L611.024,43.016L611.024,38.696L607.04,38.696L607.04,43.88L599.84,44.792L599.84,28.664L594.896,33.704Q593.696,30.68,592.256,27.992L592.256,44.744L585.056,45.464L585.056,31.352Q582.464,35.768,579.104,39.272L576.128,36.776Q580.736,28.04,582.224,18.968L577.712,18.968L576.752,15.512L585.056,15.512L585.056,10.376Q582.032,10.52,578.48,10.52L577.712,6.92Q588.464,5.336,595.28,2.216L599.36,8.408Q596.672,9.368,592.256,9.848L592.256,15.512L593.6,15.512L596.192,12.824L599.84,16.088L599.84,5.48ZM607.04,34.952L611.024,34.952L611.024,11.672L607.04,11.672L607.04,34.952ZM592.256,18.968L592.256,20.264Q594.224,21.704,595.904,23.336Q598.448,25.64,599.84,28.136L599.84,17.912L598.64,18.968L592.256,18.968ZM635.888,6.872L643.712,7.784L643.712,9.32L650.336,9.32L650.336,2.216L658.304,3.272L658.304,9.32L665.216,9.32L668.816,6.152L675.632,11.48L673.328,13.688L673.328,32.264L676.4,33.032Q676.16,34.424,676.16,35.816Q676.16,38.936,678.656,41.096Q677.072,44.888,672.944,44.888L656.912,44.888Q650.864,44.888,650.336,40.568L650.336,32.744L643.712,32.744L643.712,35.24L635.888,36.248L635.888,6.872ZM658.304,32.744L658.304,36.824Q658.304,38.312,660.8,38.312L670.208,38.312Q671.744,38.312,672.032,36.68L672.56,34.232L665.504,35.096L665.504,32.744L658.304,32.744ZM643.712,28.856L650.336,28.856L650.336,22.808L643.712,22.808L643.712,28.856ZM658.304,22.808L658.304,28.856L665.504,28.856L665.504,22.808L658.304,22.808ZM643.712,18.92L650.336,18.92L650.336,13.208L643.712,13.208L643.712,18.92ZM658.304,13.208L658.304,18.92L665.504,18.92L665.504,13.208L658.304,13.208ZM728.72,22.232L731.552,19.592L736.112,23.72L734.096,25.736L718.208,25.736L718.208,39.08Q718.208,45.896,712.496,45.896L707.936,45.896Q707.936,39.848,700.976,39.752L701.168,36.248Q705.92,36.632,708.512,36.632Q709.952,36.632,709.952,35.24L709.952,25.736L691.952,25.736L691.088,22.232L709.952,22.232L709.952,13.112L714.56,13.736L720.128,7.832L694.736,7.832L693.872,4.232L720.608,4.232L725.408,1.208L734.48,6.44L729.056,8.6L718.208,15.176L718.208,22.232L728.72,22.232ZM750.512,2.024L756.704,2.696L756.704,15.512L758.768,15.512L758.768,1.208L764.624,1.976L764.624,14.936L766.256,13.544L768.752,15.752L768.752,2.408L775.76,3.464L775.76,4.712Q784.4,3.512,790.256,1.448L793.616,6.536Q788.144,8.504,775.76,8.744L775.76,15.752L783.92,15.752L787.088,13.256L793.856,17.912L791.168,19.64Q789.68,28.712,787.376,33.128Q787.232,33.464,787.04,33.752Q789.92,36.632,794.192,39.176L789.104,46.664Q785.552,43.832,782.96,39.704Q778.88,44.072,772.88,46.664L771.104,44.168Q776,40.856,779.6,33.944Q779.696,33.752,779.792,33.512Q777.296,27.272,776.096,19.16L775.76,19.16L775.76,26.984Q775.76,33.896,773.696,38.408Q771.92,42.92,768.368,46.664L765.92,44.984Q768.752,36.632,768.752,26.6L768.752,18.44L768.32,18.872L756.704,18.872L756.704,24.824L758.624,24.824L761.696,22.136L767.648,26.744L765.392,28.664L765.392,45.848L759.2,46.568L759.2,28.28L756.656,28.28Q756.416,39.368,751.712,46.52L748.784,45.272Q750.512,39.416,750.512,29.288L750.512,2.024ZM782.24,27.032Q783.296,23.24,783.68,19.16L778.736,19.16Q780.176,23.432,782.24,27.032ZM808.496,2.504L814.688,3.224L814.688,4.424L817.76,4.424L820.64,2.168L825.536,5.912L824.912,3.56L842.624,3.56L845.6,1.304L851.792,6.008L849.488,7.688Q849.488,15.608,847.712,17.24Q847.232,18.248,846.176,18.776L851.072,22.568L849.248,24.488L849.248,32.456L842.336,33.32L842.336,31.64L833.552,31.64L833.552,33.224L826.736,34.088L826.736,19.928Q825.968,20.264,825.248,20.552L824.24,18.872L824.24,32.072L818.096,32.792L818.096,30.776L814.688,30.776L814.688,32.792L808.496,33.608L808.496,2.504ZM833.552,28.088L842.336,28.088L842.336,24.152L833.552,24.152L833.552,28.088ZM833.552,20.696L841.952,20.696L843.296,19.496Q842.816,19.544,842.336,19.544L839.504,19.544Q839.504,15.656,835.52,15.656L836.096,12.632Q838.016,13.256,841.568,13.256Q843.2,13.256,843.2,10.664L843.392,7.016L837.536,7.016Q836.336,11.912,833.792,14.648Q831.824,17.192,828.8,18.872L833.552,19.448L833.552,20.696ZM830.72,7.016L825.776,7.016L825.776,6.92L824.24,8.264L824.24,17.576Q826.832,15.176,828.176,13.16Q829.712,10.904,830.72,7.016ZM814.688,27.224L818.096,27.224L818.096,19.064L814.688,19.064L814.688,27.224ZM814.688,15.512L818.096,15.512L818.096,7.928L814.688,7.928L814.688,15.512ZM823.568,33.8Q827.456,39.224,828.608,43.256L821.168,45.992Q821.168,41.288,819.2,34.904L823.568,33.8ZM842.72,33.512Q845.408,35.048,851.36,41.288L844.448,46.616Q842.144,40.04,839.408,36.008L842.72,33.512ZM832.832,34.184Q835.52,36.488,837.68,39.032Q839.552,41.288,840.032,42.248L833.312,46.568Q832.16,41.24,829.376,36.008L832.832,34.184ZM812.864,33.464L817.28,35.096Q815.6,42.536,811.904,46.376L805.904,41.384Q810.368,38.12,812.864,33.464ZM886.496,1.88L895.04,2.936L895.04,13.16L901.856,13.16L904.544,10.712L909.152,14.744L906.992,16.856L875.84,16.856L875.84,24.296L891.728,24.296L895.472,20.696L902.576,26.216L900.08,28.52L900.08,45.656L891.728,46.712L891.728,27.896L875.744,27.896Q875.36,33.368,873.344,37.208Q871.184,41.96,866.864,45.896L864.128,43.976Q868.064,35.24,868.064,24.728L868.064,2.12L875.84,3.272L875.84,13.16L886.496,13.16L886.496,1.88Z" fill="#000000" fill-opacity="1"/></g><g><path d="M279.619,77L281.328,69.1113Q281.766,67.10156,282.032,64.9209Q282.299,62.74023,282.299,60.89453Q282.299,60.4707,282.285,60.14258L283.789,59.45898L283.789,59.8418Q283.789,60.74414,283.625,62.75391Q283.461,64.76367,283.283,65.84375Q284.117,63.88867,285.361,62.21387Q286.606,60.53906,287.911,59.56836Q289.217,58.597656,290.283,58.597656Q291.35,58.597656,291.999,59.45215Q292.649,60.30664,292.649,61.74219Q292.649,63.54688,291.869,65.36523Q291.09,67.18359,289.743,68.7148Q288.397,70.2461,286.79,71.1279Q285.184,72.0098,283.611,72.0098Q283.256,72.0098,282.777,71.9141L283.502,70.9434Q284.172,71.1621,284.869,71.1621Q286.004,71.1621,287.146,70.4033Q288.287,69.6445,289.19,68.2637Q290.024,66.99219,290.611,65.09863Q291.199,63.20508,291.199,61.82422Q291.199,60.67578,290.81,60.0332Q290.42,59.39062,289.723,59.39062Q288.738,59.39062,287.453,60.51855Q286.168,61.64648,284.938,63.57422Q284.049,64.94141,283.454,66.52734Q282.859,68.1133,282.395,70.2051L280.918,77L279.619,77ZM298.164,57.736328L294.568,73.5L294.445,74.0332Q294.267,74.7852,294.267,75.3047Q294.267,75.7285,294.425,75.99510000000001Q294.582,76.2617,294.814,76.2617Q295.238,76.2617,296.168,75.25L296.386,75.4414L296.25,75.5918Q295.47,76.5078,295.101,76.8291Q294.732,77.1504,294.418,77.1504Q294.008,77.1504,293.7,76.69239999999999Q293.392,76.2344,293.392,75.6465Q293.392,75.2363,293.57,74.3477L296.728,58.433594L298.164,57.736328ZM304.062,74.8809L304.308,75.0859Q303.46,76.207,302.654,76.70609999999999Q301.847,77.2051,300.917,77.2051Q299.81,77.2051,299.14,76.4668Q298.47,75.7285,298.47,74.5117Q298.47,73.2812,299.119,72.0166Q299.769,70.752,300.746,69.9248Q301.724,69.0977,302.681,69.0977Q303.242,69.0977,303.604,69.4258Q303.966,69.7539,303.966,70.2734Q303.966,71.3262,302.818,72.3789Q301.669,73.4316,299.687,74.1699Q299.673,74.2793,299.673,74.416Q299.673,75.3594,300.193,75.9541Q300.712,76.5488,301.533,76.5488Q302.175,76.5488,302.777,76.1455Q303.378,75.7422,304.062,74.8809ZM299.687,73.8418Q301.163,73.1855,301.956,72.3789Q302.49,71.832,302.818,71.2031Q303.146,70.5742,303.146,70.0684Q303.146,69.4258,302.558,69.4258Q301.669,69.4258,300.76,70.8271Q299.851,72.2285,299.687,73.8418ZM314.362,68.9199L313.077,73.9238Q312.872,74.7441,312.872,75.209Q312.872,75.6191,313.05,75.9199Q313.227,76.2207,313.487,76.2207Q313.884,76.2207,314.8,75.25L314.991,75.4414L314.841,75.6191Q314.116,76.4531,313.727,76.7881Q313.337,77.123,313.05,77.123Q312.612,77.123,312.291,76.66499999999999Q311.97,76.207,311.97,75.6055Q311.97,75.168,312.298,73.623L312.407,73.1035Q311.901,74.2793,311.054,75.3594Q309.632,77.1641,308.333,77.1641Q307.554,77.1641,307.102,76.6035Q306.651,76.043,306.651,75.0996Q306.651,73.8145,307.383,72.4062Q308.114,70.998,309.201,70.0889Q310.288,69.1797,311.313,69.1797Q312.393,69.1797,312.927,69.9727L313.077,69.4531L314.362,68.9199ZM312.79,70.6699Q312.626,70.1504,312.236,69.85640000000001Q311.847,69.5625,311.341,69.5625Q310.739,69.5625,310.069,70.11619999999999Q309.399,70.6699,308.839,71.6543Q308.401,72.4336,308.107,73.377Q307.813,74.3203,307.813,74.9355Q307.813,75.6328,308.08,76.0293Q308.347,76.4258,308.839,76.4258Q309.468,76.4258,310.151,75.8379Q310.835,75.25,311.505,74.1562Q311.915,73.5273,312.147,72.8984Q312.38,72.2695,312.667,71.1484L312.79,70.6699ZM316.405,76.125L317.17,75.2227Q317.772,76.6445,319.085,76.6445Q319.768,76.6445,320.253,76.2002Q320.739,75.7559,320.739,75.168Q320.739,74.7441,320.506,74.4434Q320.274,74.1426,319.399,73.4316Q318.592,72.7754,318.312,72.3994Q318.032,72.0234,318.032,71.5312Q318.032,70.8887,318.408,70.3418Q318.784,69.7949,319.413,69.46000000000001Q320.042,69.125,320.739,69.125Q321.354,69.125,321.771,69.43260000000001Q322.188,69.7402,322.188,70.2188Q322.188,70.8477,321.655,71.0801Q321.573,70.4375,321.169,70.0752Q320.766,69.7129,320.137,69.7129Q319.577,69.7129,319.16,70.0752Q318.743,70.4375,318.743,70.9023Q318.743,71.4766,319.454,72.0371L320.247,72.6797Q321.409,73.5957,321.409,74.5527Q321.409,75.2637,321.005,75.8857Q320.602,76.5078,319.912,76.877Q319.221,77.2461,318.456,77.2461Q317.239,77.2461,316.405,76.125ZM330.109,74.8809L330.356,75.0859Q329.508,76.207,328.701,76.70609999999999Q327.895,77.2051,326.965,77.2051Q325.858,77.2051,325.188,76.4668Q324.518,75.7285,324.518,74.5117Q324.518,73.2812,325.167,72.0166Q325.817,70.752,326.794,69.9248Q327.772,69.0977,328.729,69.0977Q329.289,69.0977,329.651,69.4258Q330.014,69.7539,330.014,70.2734Q330.014,71.3262,328.865,72.3789Q327.717,73.4316,325.734,74.1699Q325.721,74.2793,325.721,74.416Q325.721,75.3594,326.24,75.9541Q326.76,76.5488,327.58,76.5488Q328.223,76.5488,328.824,76.1455Q329.426,75.7422,330.109,74.8809ZM325.734,73.8418Q327.211,73.1855,328.004,72.3789Q328.537,71.832,328.865,71.2031Q329.193,70.5742,329.193,70.0684Q329.193,69.4258,328.606,69.4258Q327.717,69.4258,326.808,70.8271Q325.899,72.2285,325.734,73.8418ZM338.009,82.4277L340.593,69.5625L341.906,69.002L341.003,72.9258Q342.015,70.8887,342.91,69.9932Q343.806,69.0977,344.872,69.0977Q345.693,69.0977,346.171,69.6992Q346.65,70.3008,346.65,71.3535Q346.65,72.4199,346.219,73.541Q345.788,74.6621,345.009,75.5781Q343.601,77.2734,341.906,77.2734Q340.839,77.2734,340.156,76.7129L338.747,82.4277L338.009,82.4277ZM340.361,75.8105Q340.935,76.9316,341.974,76.9316Q343.478,76.9316,344.599,74.4844Q345.515,72.5156,345.515,71.1758Q345.515,70.4512,345.242,70.0547Q344.968,69.6582,344.462,69.6582Q343.642,69.6582,342.74,70.7383Q341.878,71.8047,341.277,73.1172Q341.044,73.6367,340.846,74.2246Q340.648,74.8125,340.47,75.4277L340.361,75.8105ZM352.315,63.64258Q352.671,63.64258,352.89,63.86133Q353.108,64.08008,353.108,64.43555Q353.108,64.77734,352.876,65.00977Q352.643,65.24219,352.315,65.24219Q352.001,65.24219,351.755,64.99609Q351.509,64.75,351.509,64.43555Q351.509,64.10742,351.741,63.875Q351.974,63.64258,352.315,63.64258ZM351.919,69.002L350.716,73.5Q350.415,74.6074,350.415,75.2773Q350.415,75.7148,350.565,75.9883Q350.716,76.2617,350.962,76.2617Q351.386,76.2617,352.315,75.25L352.534,75.4414L352.397,75.5918Q351.618,76.5078,351.249,76.8291Q350.88,77.1504,350.565,77.1504Q350.142,77.1504,349.848,76.7197Q349.554,76.2891,349.554,75.6465Q349.554,75.2363,349.718,74.3477L350.579,69.5625L351.919,69.002ZM360.36,74.9492Q359.526,76.125,358.74,76.66499999999999Q357.954,77.2051,356.997,77.2051Q355.944,77.2051,355.281,76.4668Q354.618,75.7285,354.618,74.5527Q354.618,73.3223,355.26,72.0508Q355.903,70.7793,356.908,69.9453Q357.913,69.1113,358.842,69.1113Q359.471,69.1113,359.854,69.46000000000001Q360.237,69.8086,360.237,70.3965Q360.237,70.9297,359.834,71.41499999999999Q359.43,71.9004,358.965,71.9004Q358.76,71.9004,358.596,71.7363Q359.485,71.3398,359.485,70.2598Q359.485,69.877,359.287,69.66499999999999Q359.088,69.4531,358.76,69.4531Q358.254,69.4531,357.742,69.8633Q357.229,70.2734,356.778,71.00489999999999Q356.327,71.7363,356.074,72.5635Q355.821,73.3906,355.821,74.2383Q355.821,75.25,356.299,75.8789Q356.778,76.5078,357.557,76.5078Q358.227,76.5078,358.856,76.084Q359.485,75.6602,360.168,74.7852L360.36,74.9492ZM367.789,57.736328L364.07,73.9102Q364.385,73.1719,364.822,72.4883Q365.26,71.8047,365.82,71.1553Q366.381,70.5059,366.901,70.0957Q367.57,69.5625,368.247,69.3027Q368.924,69.043,369.772,69.002L369.526,70.0957Q369.115,70.0137,368.91,70.0137Q367.297,70.0137,365.902,71.6406Q366.463,73.1445,367.092,74.3477Q367.447,75.0449,367.714,75.4619Q367.981,75.8789,368.206,76.0703Q368.432,76.2617,368.651,76.2617Q369.17,76.2617,369.963,75.4277L370.072,75.3047L370.25,75.5098Q368.869,77.1777,368.24,77.1777Q367.817,77.1777,367.447,76.8086Q367.078,76.4395,366.586,75.5371Q365.725,73.9648,365.178,72.5566Q363.893,74.6758,363.537,76.8359L362.649,77.123L366.313,58.433594L367.789,57.736328ZM381.24,69.002L379.913,74.293Q379.736,75.0039,379.736,75.4961Q379.736,75.9746,380.036,76.2617Q380.337,76.5488,380.816,76.5488Q381.978,76.5488,383.236,74.6484L383.29,74.5664Q383.318,74.4297,383.331,74.3477L384.193,69.5625L385.533,69.002L384.329,73.5Q384.029,74.6074,384.029,75.2773Q384.029,75.7148,384.179,75.9883Q384.329,76.2617,384.576,76.2617Q384.999,76.2617,385.929,75.25L386.148,75.4414L386.011,75.5918Q385.232,76.5078,384.863,76.8291Q384.493,77.1504,384.179,77.1504Q383.755,77.1504,383.461,76.7197Q383.167,76.2891,383.167,75.6465Q383.167,75.4414,383.181,75.2637Q381.759,77.1504,380.365,77.1504Q379.667,77.1504,379.25,76.7471Q378.833,76.3438,378.833,75.6738Q378.833,75.1543,378.984,74.4023L379.913,69.5625L381.24,69.002ZM387.356,82.4277L389.94,69.5625L391.253,69.002L390.351,72.9258Q391.362,70.8887,392.258,69.9932Q393.153,69.0977,394.22,69.0977Q395.04,69.0977,395.518,69.6992Q395.997,70.3008,395.997,71.3535Q395.997,72.4199,395.566,73.541Q395.136,74.6621,394.356,75.5781Q392.948,77.2734,391.253,77.2734Q390.186,77.2734,389.503,76.7129L388.095,82.4277L387.356,82.4277ZM389.708,75.8105Q390.282,76.9316,391.321,76.9316Q392.825,76.9316,393.946,74.4844Q394.862,72.5156,394.862,71.1758Q394.862,70.4512,394.589,70.0547Q394.315,69.6582,393.81,69.6582Q392.989,69.6582,392.087,70.7383Q391.226,71.8047,390.624,73.1172Q390.392,73.6367,390.193,74.2246Q389.995,74.8125,389.817,75.4277L389.708,75.8105ZM403.568,81.8535L404.238,80.9512Q405.031,81.7988,406.029,81.7988Q407.082,81.7988,407.725,80.9648Q408.367,80.1309,408.777,78.2305L409.406,75.4004Q407.902,77.1641,406.686,77.1641Q405.975,77.1641,405.571,76.7266Q405.168,76.2891,405.168,75.5508Q405.168,75.0586,405.291,74.4707L406.221,69.5625L407.547,69.002L406.221,74.5117Q406.057,75.1816,406.057,75.5098Q406.057,75.9746,406.337,76.26859999999999Q406.617,76.5625,407.082,76.5625Q407.588,76.5625,408.196,76.1182Q408.805,75.6738,409.557,74.7852L410.733,69.5625L412.018,69.002L410.022,77.041Q409.666,78.4902,409.345,79.3105Q409.024,80.1309,408.6,80.6777Q407.26,82.4004,405.332,82.4004Q404.211,82.4004,403.568,81.8535ZM414.361,74.375Q414.361,73.1445,415.024,71.9209Q415.687,70.6973,416.74,69.9316Q417.793,69.166,418.886,69.166Q420.035,69.166,420.739,69.9248Q421.443,70.6836,421.443,71.8867Q421.443,73.1992,420.794,74.4297Q420.144,75.6602,419.085,76.44630000000001Q418.025,77.2324,416.945,77.2324Q415.783,77.2324,415.072,76.44630000000001Q414.361,75.6602,414.361,74.375ZM420.213,71.3672Q420.213,70.5469,419.809,70.0137Q419.406,69.4805,418.777,69.4805Q418.203,69.4805,417.677,69.8496Q417.15,70.2188,416.713,70.9297Q416.22,71.75,415.899,72.8438Q415.578,73.9375,415.578,74.7852Q415.578,75.7969,415.974,76.3438Q416.371,76.8906,417.109,76.8906Q418.299,76.8906,419.201,75.2363Q419.666,74.3887,419.939,73.3359Q420.213,72.2832,420.213,71.3672ZM426.74,69.002L425.413,74.293Q425.236,75.0039,425.236,75.4961Q425.236,75.9746,425.536,76.2617Q425.837,76.5488,426.316,76.5488Q427.478,76.5488,428.736,74.6484L428.79,74.5664Q428.818,74.4297,428.831,74.3477L429.693,69.5625L431.033,69.002L429.829,73.5Q429.529,74.6074,429.529,75.2773Q429.529,75.7148,429.679,75.9883Q429.829,76.2617,430.076,76.2617Q430.499,76.2617,431.429,75.25L431.648,75.4414L431.511,75.5918Q430.732,76.5078,430.363,76.8291Q429.993,77.1504,429.679,77.1504Q429.255,77.1504,428.961,76.7197Q428.667,76.2891,428.667,75.6465Q428.667,75.4414,428.681,75.2637Q427.259,77.1504,425.865,77.1504Q425.167,77.1504,424.75,76.7471Q424.333,76.3438,424.333,75.6738Q424.333,75.1543,424.484,74.4023L425.413,69.5625L426.74,69.002ZM433.8,73.1172Q434.976,71.6953,435.372,70.4648Q434.265,69.8496,434.265,68.7012Q434.265,68.1543,434.524,67.8125Q434.784,67.4707,435.181,67.4707Q435.591,67.4707,435.851,67.84667999999999Q436.11,68.2227,436.11,68.8242Q436.11,69.248,435.96,69.7676Q436.329,69.8633,436.63,69.8633Q437.477,69.8633,438.024,69.3711L438.681,69.3711L438.585,69.5625Q437.601,71.3672,436.965,73.1104Q436.329,74.8535,436.329,75.7148Q436.329,76.0293,436.493,76.24119999999999Q436.657,76.4531,436.89,76.4531Q437.45,76.4531,438.694,75.2637L438.913,75.5098Q438.53,75.9336,437.724,76.5625Q436.999,77.1367,436.37,77.1367Q435.837,77.1367,435.529,76.7812Q435.222,76.4258,435.222,75.8105Q435.222,74.7852,436.015,73.2129Q436.302,72.625,436.753,71.873Q437.204,71.1211,437.888,70.082L438.024,69.8906Q437.573,70.3008,437.156,70.4717Q436.739,70.6426,436.206,70.6426Q435.96,70.6426,435.686,70.5742Q435.249,71.9141,434.046,73.3359L433.8,73.1172ZM435.673,69.6445Q435.727,69.3027,435.727,69.0703Q435.727,68.5918,435.57,68.3184Q435.413,68.0449,435.167,68.0449Q435.03,68.0449,434.928,68.1748Q434.825,68.3047,434.825,68.4961Q434.825,69.1387,435.673,69.6445ZM446.567,82.4277L449.151,69.5625L450.463,69.002L449.561,72.9258Q450.572,70.8887,451.468,69.9932Q452.363,69.0977,453.43,69.0977Q454.25,69.0977,454.729,69.6992Q455.207,70.3008,455.207,71.3535Q455.207,72.4199,454.776,73.541Q454.346,74.6621,453.567,75.5781Q452.158,77.2734,450.463,77.2734Q449.397,77.2734,448.713,76.7129L447.305,82.4277L446.567,82.4277ZM448.918,75.8105Q449.492,76.9316,450.531,76.9316Q452.035,76.9316,453.156,74.4844Q454.072,72.5156,454.072,71.1758Q454.072,70.4512,453.799,70.0547Q453.526,69.6582,453.02,69.6582Q452.199,69.6582,451.297,70.7383Q450.436,71.8047,449.834,73.1172Q449.602,73.6367,449.403,74.2246Q449.205,74.8125,449.027,75.4277L448.918,75.8105ZM457.742,73.1172Q458.918,71.6953,459.314,70.4648Q458.207,69.8496,458.207,68.7012Q458.207,68.1543,458.466,67.8125Q458.726,67.4707,459.123,67.4707Q459.533,67.4707,459.793,67.84667999999999Q460.052,68.2227,460.052,68.8242Q460.052,69.248,459.902,69.7676Q460.271,69.8633,460.572,69.8633Q461.42,69.8633,461.966,69.3711L462.623,69.3711L462.527,69.5625Q461.543,71.3672,460.907,73.1104Q460.271,74.8535,460.271,75.7148Q460.271,76.0293,460.435,76.24119999999999Q460.599,76.4531,460.832,76.4531Q461.392,76.4531,462.636,75.2637L462.855,75.5098Q462.472,75.9336,461.666,76.5625Q460.941,77.1367,460.312,77.1367Q459.779,77.1367,459.471,76.7812Q459.164,76.4258,459.164,75.8105Q459.164,74.7852,459.957,73.2129Q460.244,72.625,460.695,71.873Q461.146,71.1211,461.83,70.082L461.966,69.8906Q461.515,70.3008,461.098,70.4717Q460.681,70.6426,460.148,70.6426Q459.902,70.6426,459.629,70.5742Q459.191,71.9141,457.988,73.3359L457.742,73.1172ZM459.615,69.6445Q459.67,69.3027,459.67,69.0703Q459.67,68.5918,459.512,68.3184Q459.355,68.0449,459.109,68.0449Q458.972,68.0449,458.87,68.1748Q458.767,68.3047,458.767,68.4961Q458.767,69.1387,459.615,69.6445ZM468.329,63.64258Q468.685,63.64258,468.904,63.86133Q469.122,64.08008,469.122,64.43555Q469.122,64.77734,468.89,65.00977Q468.658,65.24219,468.329,65.24219Q468.015,65.24219,467.769,64.99609Q467.523,64.75,467.523,64.43555Q467.523,64.10742,467.755,63.875Q467.988,63.64258,468.329,63.64258ZM467.933,69.002L466.73,73.5Q466.429,74.6074,466.429,75.2773Q466.429,75.7148,466.579,75.9883Q466.73,76.2617,466.976,76.2617Q467.4,76.2617,468.329,75.25L468.548,75.4414L468.411,75.5918Q467.632,76.5078,467.263,76.8291Q466.894,77.1504,466.579,77.1504Q466.156,77.1504,465.862,76.7197Q465.568,76.2891,465.568,75.6465Q465.568,75.2363,465.732,74.3477L466.593,69.5625L467.933,69.002ZM470.768,77.1367L472.218,69.5625L473.516,69.002L472.341,74.0195Q473.475,71.627,474.597,70.3828Q475.718,69.1387,476.743,69.1387Q477.249,69.1387,477.563,69.4736Q477.878,69.8086,477.878,70.3691Q477.878,70.6836,477.727,71.2578L477.591,71.832L477.181,73.5L477.044,74.0332Q476.839,74.8535,476.839,75.291Q476.839,75.7285,476.989,75.99510000000001Q477.14,76.2617,477.386,76.2617Q477.809,76.2617,478.739,75.25L478.958,75.4414L478.821,75.5918Q478.042,76.5078,477.673,76.8291Q477.304,77.1504,476.989,77.1504Q476.565,77.1504,476.271,76.7197Q475.977,76.2891,475.977,75.6465Q475.977,75.209,476.141,74.3477L476.675,71.4492Q476.784,70.7656,476.784,70.4922Q476.784,70.2051,476.634,70.0547Q476.483,69.9043,476.224,69.9043Q475.28,69.9043,473.899,71.9277Q473.229,72.8984,472.792,73.8486Q472.354,74.7988,471.807,76.4805L471.684,76.8496L470.768,77.1367ZM483.721,69.6992L482.682,74.252Q482.518,75.0039,482.518,75.3184Q482.518,75.8105,482.75,76.1113Q482.983,76.4121,483.366,76.4121Q483.735,76.4121,484.042,76.2002Q484.35,75.9883,484.979,75.3184L485.143,75.1543L485.348,75.3594Q484.542,76.3438,484.001,76.7471Q483.461,77.1504,482.942,77.1504Q482.286,77.1504,481.896,76.7197Q481.506,76.2891,481.506,75.5918Q481.506,75.0723,481.711,74.0879L482.6,69.6992L481.288,69.6992L481.383,69.2344L482.696,69.2344L483.461,65.54297L484.774,65.02344L483.817,69.2344L486.032,69.2344L485.936,69.6992L483.721,69.6992ZM493.119,74.8809L493.365,75.0859Q492.518,76.207,491.711,76.70609999999999Q490.904,77.2051,489.975,77.2051Q488.867,77.2051,488.197,76.4668Q487.527,75.7285,487.527,74.5117Q487.527,73.2812,488.177,72.0166Q488.826,70.752,489.804,69.9248Q490.781,69.0977,491.738,69.0977Q492.299,69.0977,492.661,69.4258Q493.023,69.7539,493.023,70.2734Q493.023,71.3262,491.875,72.3789Q490.727,73.4316,488.744,74.1699Q488.731,74.2793,488.731,74.416Q488.731,75.3594,489.25,75.9541Q489.77,76.5488,490.59,76.5488Q491.232,76.5488,491.834,76.1455Q492.436,75.7422,493.119,74.8809ZM488.744,73.8418Q490.221,73.1855,491.014,72.3789Q491.547,71.832,491.875,71.2031Q492.203,70.5742,492.203,70.0684Q492.203,69.4258,491.615,69.4258Q490.727,69.4258,489.817,70.8271Q488.908,72.2285,488.744,73.8418ZM505.634,57.736328L502.011,73.5Q501.724,74.7578,501.724,75.25Q501.724,75.6875,501.882,75.9609Q502.039,76.2344,502.312,76.2344Q502.668,76.2344,503.174,75.7012L503.57,75.3047Q503.584,75.291,503.597,75.2773Q503.611,75.2637,503.638,75.25L503.843,75.4414L503.734,75.5645Q503.215,76.1387,503.201,76.1523L502.75,76.6035Q502.408,76.9453,502.251,77.0342Q502.093,77.123,501.902,77.123Q501.451,77.123,501.15,76.6582Q500.849,76.1934,500.849,75.5918Q500.849,75.2363,501.041,74.293L501.191,73.5137Q500.836,74.375,500.07,75.3867Q498.689,77.1641,497.39,77.1641Q496.611,77.1641,496.16,76.5967Q495.709,76.0293,495.709,75.0586Q495.709,73.7051,496.42,72.31739999999999Q497.131,70.9297,498.231,70.0273Q499.332,69.125,500.425,69.125Q501.232,69.125,501.929,69.6035L504.158,58.433594L505.634,57.736328ZM501.806,70.2871Q501.683,69.918,501.3,69.69239999999999Q500.918,69.4668,500.48,69.4668Q499.838,69.4668,499.161,70.041Q498.484,70.6152,497.883,71.668Q497.445,72.4473,497.165,73.37010000000001Q496.884,74.293,496.884,75.0449Q496.884,75.7012,497.165,76.0977Q497.445,76.4941,497.937,76.4941Q498.511,76.4941,499.174,75.9062Q499.838,75.3184,500.508,74.2109Q500.959,73.459,501.218,72.6523Q501.533,71.6133,501.67,70.9844L501.806,70.2871ZM511.319,82.4277L513.903,69.5625L515.216,69.002L514.313,72.9258Q515.325,70.8887,516.221,69.9932Q517.116,69.0977,518.182,69.0977Q519.003,69.0977,519.481,69.6992Q519.96,70.3008,519.96,71.3535Q519.96,72.4199,519.529,73.541Q519.099,74.6621,518.319,75.5781Q516.911,77.2734,515.216,77.2734Q514.149,77.2734,513.466,76.7129L512.057,82.4277L511.319,82.4277ZM513.671,75.8105Q514.245,76.9316,515.284,76.9316Q516.788,76.9316,517.909,74.4844Q518.825,72.5156,518.825,71.1758Q518.825,70.4512,518.552,70.0547Q518.278,69.6582,517.772,69.6582Q516.952,69.6582,516.05,70.7383Q515.188,71.8047,514.587,73.1172Q514.354,73.6367,514.156,74.2246Q513.958,74.8125,513.78,75.4277L513.671,75.8105ZM522.44,77.1367L526.077,58.433594L527.512,57.736328L523.725,74.3887Q523.78,74.293,523.78,74.2656L524.094,73.5547Q524.901,71.7227,526.118,70.3828Q527.266,69.1387,528.237,69.1387Q528.756,69.1387,529.071,69.4736Q529.385,69.8086,529.385,70.3691Q529.385,70.6836,529.235,71.2578L529.098,71.832L528.674,73.5L528.551,74.0332Q528.346,74.8535,528.346,75.291Q528.346,75.7285,528.497,75.99510000000001Q528.647,76.2617,528.893,76.2617Q529.317,76.2617,530.247,75.25L530.452,75.4414L530.329,75.5918Q529.549,76.5078,529.173,76.8291Q528.797,77.1504,528.497,77.1504Q528.073,77.1504,527.772,76.6992Q527.471,76.248,527.471,75.6465Q527.471,75.2773,527.649,74.3477L528.168,71.4492Q528.291,70.8066,528.291,70.4922Q528.291,70.2051,528.141,70.0547Q527.991,69.9043,527.731,69.9043Q527.225,69.9043,526.569,70.499Q525.913,71.0938,525.249,72.1465Q524.586,73.1992,524.094,74.3955Q523.602,75.5918,523.356,76.8496L522.44,77.1367ZM532.617,74.375Q532.617,73.1445,533.28,71.9209Q533.943,70.6973,534.996,69.9316Q536.049,69.166,537.143,69.166Q538.291,69.166,538.995,69.9248Q539.699,70.6836,539.699,71.8867Q539.699,73.1992,539.05,74.4297Q538.4,75.6602,537.341,76.44630000000001Q536.281,77.2324,535.201,77.2324Q534.039,77.2324,533.328,76.44630000000001Q532.617,75.6602,532.617,74.375ZM538.469,71.3672Q538.469,70.5469,538.065,70.0137Q537.662,69.4805,537.033,69.4805Q536.459,69.4805,535.933,69.8496Q535.406,70.2188,534.969,70.9297Q534.477,71.75,534.155,72.8438Q533.834,73.9375,533.834,74.7852Q533.834,75.7969,534.231,76.3438Q534.627,76.8906,535.365,76.8906Q536.555,76.8906,537.457,75.2363Q537.922,74.3887,538.195,73.3359Q538.469,72.2832,538.469,71.3672ZM544.832,69.6992L543.793,74.252Q543.629,75.0039,543.629,75.3184Q543.629,75.8105,543.861,76.1113Q544.093,76.4121,544.476,76.4121Q544.845,76.4121,545.153,76.2002Q545.461,75.9883,546.089,75.3184L546.254,75.1543L546.459,75.3594Q545.652,76.3438,545.112,76.7471Q544.572,77.1504,544.052,77.1504Q543.396,77.1504,543.006,76.7197Q542.617,76.2891,542.617,75.5918Q542.617,75.0723,542.822,74.0879L543.711,69.6992L542.398,69.6992L542.494,69.2344L543.806,69.2344L544.572,65.54297L545.884,65.02344L544.927,69.2344L547.142,69.2344L547.047,69.6992L544.832,69.6992ZM548.638,74.375Q548.638,73.1445,549.301,71.9209Q549.964,70.6973,551.017,69.9316Q552.07,69.166,553.163,69.166Q554.312,69.166,555.016,69.9248Q555.72,70.6836,555.72,71.8867Q555.72,73.1992,555.071,74.4297Q554.421,75.6602,553.362,76.44630000000001Q552.302,77.2324,551.222,77.2324Q550.06,77.2324,549.349,76.44630000000001Q548.638,75.6602,548.638,74.375ZM554.49,71.3672Q554.49,70.5469,554.086,70.0137Q553.683,69.4805,553.054,69.4805Q552.48,69.4805,551.953,69.8496Q551.427,70.2188,550.99,70.9297Q550.497,71.75,550.176,72.8438Q549.855,73.9375,549.855,74.7852Q549.855,75.7969,550.251,76.3438Q550.648,76.8906,551.386,76.8906Q552.575,76.8906,553.478,75.2363Q553.943,74.3887,554.216,73.3359Q554.49,72.2832,554.49,71.3672ZM557.489,76.125L558.255,75.2227Q558.856,76.6445,560.169,76.6445Q560.852,76.6445,561.338,76.2002Q561.823,75.7559,561.823,75.168Q561.823,74.7441,561.591,74.4434Q561.358,74.1426,560.483,73.4316Q559.677,72.7754,559.396,72.3994Q559.116,72.0234,559.116,71.5312Q559.116,70.8887,559.492,70.3418Q559.868,69.7949,560.497,69.46000000000001Q561.126,69.125,561.823,69.125Q562.438,69.125,562.855,69.43260000000001Q563.272,69.7402,563.272,70.2188Q563.272,70.8477,562.739,71.0801Q562.657,70.4375,562.254,70.0752Q561.85,69.7129,561.222,69.7129Q560.661,69.7129,560.244,70.0752Q559.827,70.4375,559.827,70.9023Q559.827,71.4766,560.538,72.0371L561.331,72.6797Q562.493,73.5957,562.493,74.5527Q562.493,75.2637,562.09,75.8857Q561.686,76.5078,560.996,76.877Q560.306,77.2461,559.54,77.2461Q558.323,77.2461,557.489,76.125ZM579.566,68.9199L578.281,73.9238Q578.076,74.7441,578.076,75.209Q578.076,75.6191,578.254,75.9199Q578.432,76.2207,578.691,76.2207Q579.088,76.2207,580.004,75.25L580.195,75.4414L580.045,75.6191Q579.32,76.4531,578.931,76.7881Q578.541,77.123,578.254,77.123Q577.816,77.123,577.495,76.66499999999999Q577.174,76.207,577.174,75.6055Q577.174,75.168,577.502,73.623L577.611,73.1035Q577.105,74.2793,576.258,75.3594Q574.836,77.1641,573.537,77.1641Q572.758,77.1641,572.307,76.6035Q571.855,76.043,571.855,75.0996Q571.855,73.8145,572.587,72.4062Q573.318,70.998,574.405,70.0889Q575.492,69.1797,576.518,69.1797Q577.598,69.1797,578.131,69.9727L578.281,69.4531L579.566,68.9199ZM577.994,70.6699Q577.83,70.1504,577.44,69.85640000000001Q577.051,69.5625,576.545,69.5625Q575.943,69.5625,575.273,70.11619999999999Q574.604,70.6699,574.043,71.6543Q573.605,72.4336,573.312,73.377Q573.018,74.3203,573.018,74.9355Q573.018,75.6328,573.284,76.0293Q573.551,76.4258,574.043,76.4258Q574.672,76.4258,575.355,75.8379Q576.039,75.25,576.709,74.1562Q577.119,73.5273,577.352,72.8984Q577.584,72.2695,577.871,71.1484L577.994,70.6699ZM582.498,77.1367L583.947,69.5625L585.246,69.002L584.07,74.0195Q585.205,71.627,586.326,70.3828Q587.447,69.1387,588.472,69.1387Q588.978,69.1387,589.293,69.4736Q589.607,69.8086,589.607,70.3691Q589.607,70.6836,589.457,71.2578L589.32,71.832L588.91,73.5L588.773,74.0332Q588.568,74.8535,588.568,75.291Q588.568,75.7285,588.718,75.99510000000001Q588.869,76.2617,589.115,76.2617Q589.539,76.2617,590.468,75.25L590.687,75.4414L590.55,75.5918Q589.771,76.5078,589.402,76.8291Q589.033,77.1504,588.718,77.1504Q588.295,77.1504,588.001,76.7197Q587.707,76.2891,587.707,75.6465Q587.707,75.209,587.871,74.3477L588.404,71.4492Q588.513,70.7656,588.513,70.4922Q588.513,70.2051,588.363,70.0547Q588.213,69.9043,587.953,69.9043Q587.009,69.9043,585.629,71.9277Q584.959,72.8984,584.521,73.8486Q584.084,74.7988,583.537,76.4805L583.414,76.8496L582.498,77.1367ZM602.765,57.736328L599.142,73.5Q598.855,74.7578,598.855,75.25Q598.855,75.6875,599.012,75.9609Q599.169,76.2344,599.443,76.2344Q599.798,76.2344,600.304,75.7012L600.7,75.3047Q600.714,75.291,600.728,75.2773Q600.741,75.2637,600.769,75.25L600.974,75.4414L600.865,75.5645Q600.345,76.1387,600.331,76.1523L599.88,76.6035Q599.538,76.9453,599.381,77.0342Q599.224,77.123,599.032,77.123Q598.581,77.123,598.281,76.6582Q597.98,76.1934,597.98,75.5918Q597.98,75.2363,598.171,74.293L598.322,73.5137Q597.966,74.375,597.2,75.3867Q595.82,77.1641,594.521,77.1641Q593.741,77.1641,593.29,76.5967Q592.839,76.0293,592.839,75.0586Q592.839,73.7051,593.55,72.31739999999999Q594.261,70.9297,595.362,70.0273Q596.462,69.125,597.556,69.125Q598.363,69.125,599.06,69.6035L601.288,58.433594L602.765,57.736328ZM598.937,70.2871Q598.814,69.918,598.431,69.69239999999999Q598.048,69.4668,597.611,69.4668Q596.968,69.4668,596.291,70.041Q595.615,70.6152,595.013,71.668Q594.575,72.4473,594.295,73.37010000000001Q594.015,74.293,594.015,75.0449Q594.015,75.7012,594.295,76.0977Q594.575,76.4941,595.068,76.4941Q595.642,76.4941,596.305,75.9062Q596.968,75.3184,597.638,74.2109Q598.089,73.459,598.349,72.6523Q598.663,71.6133,598.8,70.9844L598.937,70.2871ZM614.985,74.8809L615.231,75.0859Q614.383,76.207,613.577,76.70609999999999Q612.77,77.2051,611.84,77.2051Q610.733,77.2051,610.063,76.4668Q609.393,75.7285,609.393,74.5117Q609.393,73.2812,610.042,72.0166Q610.692,70.752,611.669,69.9248Q612.647,69.0977,613.604,69.0977Q614.164,69.0977,614.527,69.4258Q614.889,69.7539,614.889,70.2734Q614.889,71.3262,613.741,72.3789Q612.592,73.4316,610.61,74.1699Q610.596,74.2793,610.596,74.416Q610.596,75.3594,611.116,75.9541Q611.635,76.5488,612.455,76.5488Q613.098,76.5488,613.7,76.1455Q614.301,75.7422,614.985,74.8809ZM610.61,73.8418Q612.086,73.1855,612.879,72.3789Q613.412,71.832,613.741,71.2031Q614.069,70.5742,614.069,70.0684Q614.069,69.4258,613.481,69.4258Q612.592,69.4258,611.683,70.8271Q610.774,72.2285,610.61,73.8418ZM622.701,57.736328L619.105,73.5L618.982,74.0332Q618.805,74.7852,618.805,75.3047Q618.805,75.7285,618.962,75.99510000000001Q619.119,76.2617,619.352,76.2617Q619.775,76.2617,620.705,75.25L620.924,75.4414L620.787,75.5918Q620.008,76.5078,619.639,76.8291Q619.27,77.1504,618.955,77.1504Q618.545,77.1504,618.237,76.69239999999999Q617.93,76.2344,617.93,75.6465Q617.93,75.2363,618.107,74.3477L621.266,58.433594L622.701,57.736328ZM628.599,74.8809L628.845,75.0859Q627.998,76.207,627.191,76.70609999999999Q626.384,77.2051,625.455,77.2051Q624.347,77.2051,623.677,76.4668Q623.007,75.7285,623.007,74.5117Q623.007,73.2812,623.657,72.0166Q624.306,70.752,625.284,69.9248Q626.261,69.0977,627.218,69.0977Q627.779,69.0977,628.141,69.4258Q628.504,69.7539,628.504,70.2734Q628.504,71.3262,627.355,72.3789Q626.207,73.4316,624.224,74.1699Q624.211,74.2793,624.211,74.416Q624.211,75.3594,624.73,75.9541Q625.25,76.5488,626.07,76.5488Q626.713,76.5488,627.314,76.1455Q627.916,75.7422,628.599,74.8809ZM624.224,73.8418Q625.701,73.1855,626.494,72.3789Q627.027,71.832,627.355,71.2031Q627.683,70.5742,627.683,70.0684Q627.683,69.4258,627.095,69.4258Q626.207,69.4258,625.297,70.8271Q624.388,72.2285,624.224,73.8418ZM636.931,74.9492Q636.097,76.125,635.311,76.66499999999999Q634.525,77.2051,633.568,77.2051Q632.515,77.2051,631.852,76.4668Q631.189,75.7285,631.189,74.5527Q631.189,73.3223,631.831,72.0508Q632.474,70.7793,633.479,69.9453Q634.484,69.1113,635.413,69.1113Q636.042,69.1113,636.425,69.46000000000001Q636.808,69.8086,636.808,70.3965Q636.808,70.9297,636.404,71.41499999999999Q636.001,71.9004,635.536,71.9004Q635.331,71.9004,635.167,71.7363Q636.056,71.3398,636.056,70.2598Q636.056,69.877,635.858,69.66499999999999Q635.659,69.4531,635.331,69.4531Q634.825,69.4531,634.313,69.8633Q633.8,70.2734,633.349,71.00489999999999Q632.898,71.7363,632.645,72.5635Q632.392,73.3906,632.392,74.2383Q632.392,75.25,632.87,75.8789Q633.349,76.5078,634.128,76.5078Q634.798,76.5078,635.427,76.084Q636.056,75.6602,636.739,74.7852L636.931,74.9492ZM641.885,69.6992L640.846,74.252Q640.682,75.0039,640.682,75.3184Q640.682,75.8105,640.915,76.1113Q641.147,76.4121,641.53,76.4121Q641.899,76.4121,642.207,76.2002Q642.514,75.9883,643.143,75.3184L643.307,75.1543L643.512,75.3594Q642.706,76.3438,642.166,76.7471Q641.626,77.1504,641.106,77.1504Q640.45,77.1504,640.06,76.7197Q639.671,76.2891,639.671,75.5918Q639.671,75.0723,639.876,74.0879L640.764,69.6992L639.452,69.6992L639.548,69.2344L640.86,69.2344L641.626,65.54297L642.938,65.02344L641.981,69.2344L644.196,69.2344L644.1,69.6992L641.885,69.6992ZM645.692,73.1172Q646.868,71.6953,647.264,70.4648Q646.157,69.8496,646.157,68.7012Q646.157,68.1543,646.416,67.8125Q646.676,67.4707,647.073,67.4707Q647.483,67.4707,647.743,67.84667999999999Q648.002,68.2227,648.002,68.8242Q648.002,69.248,647.852,69.7676Q648.221,69.8633,648.522,69.8633Q649.37,69.8633,649.916,69.3711L650.573,69.3711L650.477,69.5625Q649.493,71.3672,648.857,73.1104Q648.221,74.8535,648.221,75.7148Q648.221,76.0293,648.385,76.24119999999999Q648.549,76.4531,648.782,76.4531Q649.342,76.4531,650.586,75.2637L650.805,75.5098Q650.422,75.9336,649.616,76.5625Q648.891,77.1367,648.262,77.1367Q647.729,77.1367,647.421,76.7812Q647.114,76.4258,647.114,75.8105Q647.114,74.7852,647.907,73.2129Q648.194,72.625,648.645,71.873Q649.096,71.1211,649.78,70.082L649.916,69.8906Q649.465,70.3008,649.048,70.4717Q648.631,70.6426,648.098,70.6426Q647.852,70.6426,647.578,70.5742Q647.141,71.9141,645.938,73.3359L645.692,73.1172ZM647.565,69.6445Q647.62,69.3027,647.62,69.0703Q647.62,68.5918,647.462,68.3184Q647.305,68.0449,647.059,68.0449Q646.922,68.0449,646.82,68.1748Q646.717,68.3047,646.717,68.4961Q646.717,69.1387,647.565,69.6445ZM653.148,74.375Q653.148,73.1445,653.812,71.9209Q654.475,70.6973,655.527,69.9316Q656.58,69.166,657.674,69.166Q658.822,69.166,659.526,69.9248Q660.23,70.6836,660.23,71.8867Q660.23,73.1992,659.581,74.4297Q658.932,75.6602,657.872,76.44630000000001Q656.812,77.2324,655.732,77.2324Q654.57,77.2324,653.859,76.44630000000001Q653.148,75.6602,653.148,74.375ZM659,71.3672Q659,70.5469,658.597,70.0137Q658.193,69.4805,657.564,69.4805Q656.99,69.4805,656.464,69.8496Q655.938,70.2188,655.5,70.9297Q655.008,71.75,654.687,72.8438Q654.365,73.9375,654.365,74.7852Q654.365,75.7969,654.762,76.3438Q655.158,76.8906,655.896,76.8906Q657.086,76.8906,657.988,75.2363Q658.453,74.3887,658.727,73.3359Q659,72.2832,659,71.3672ZM662.888,77.1367L664.337,69.5625L665.636,69.002L664.461,74.0195Q665.595,71.627,666.716,70.3828Q667.837,69.1387,668.863,69.1387Q669.369,69.1387,669.683,69.4736Q669.998,69.8086,669.998,70.3691Q669.998,70.6836,669.847,71.2578L669.711,71.832L669.3,73.5L669.164,74.0332Q668.959,74.8535,668.959,75.291Q668.959,75.7285,669.109,75.99510000000001Q669.259,76.2617,669.505,76.2617Q669.929,76.2617,670.859,75.25L671.078,75.4414L670.941,75.5918Q670.162,76.5078,669.793,76.8291Q669.423,77.1504,669.109,77.1504Q668.685,77.1504,668.391,76.7197Q668.097,76.2891,668.097,75.6465Q668.097,75.209,668.261,74.3477L668.794,71.4492Q668.904,70.7656,668.904,70.4922Q668.904,70.2051,668.753,70.0547Q668.603,69.9043,668.343,69.9043Q667.4,69.9043,666.019,71.9277Q665.349,72.8984,664.912,73.8486Q664.474,74.7988,663.927,76.4805L663.804,76.8496L662.888,77.1367ZM676.36,63.64258Q676.716,63.64258,676.935,63.86133Q677.153,64.08008,677.153,64.43555Q677.153,64.77734,676.921,65.00977Q676.689,65.24219,676.36,65.24219Q676.046,65.24219,675.8,64.99609Q675.554,64.75,675.554,64.43555Q675.554,64.10742,675.786,63.875Q676.019,63.64258,676.36,63.64258ZM675.964,69.002L674.761,73.5Q674.46,74.6074,674.46,75.2773Q674.46,75.7148,674.61,75.9883Q674.761,76.2617,675.007,76.2617Q675.431,76.2617,676.36,75.25L676.579,75.4414L676.443,75.5918Q675.663,76.5078,675.294,76.8291Q674.925,77.1504,674.61,77.1504Q674.187,77.1504,673.893,76.7197Q673.599,76.2891,673.599,75.6465Q673.599,75.2363,673.763,74.3477L674.624,69.5625L675.964,69.002ZM684.405,74.9492Q683.571,76.125,682.785,76.66499999999999Q681.999,77.2051,681.042,77.2051Q679.989,77.2051,679.326,76.4668Q678.663,75.7285,678.663,74.5527Q678.663,73.3223,679.305,72.0508Q679.948,70.7793,680.953,69.9453Q681.958,69.1113,682.887,69.1113Q683.516,69.1113,683.899,69.46000000000001Q684.282,69.8086,684.282,70.3965Q684.282,70.9297,683.879,71.41499999999999Q683.475,71.9004,683.01,71.9004Q682.805,71.9004,682.641,71.7363Q683.53,71.3398,683.53,70.2598Q683.53,69.877,683.332,69.66499999999999Q683.134,69.4531,682.805,69.4531Q682.3,69.4531,681.787,69.8633Q681.274,70.2734,680.823,71.00489999999999Q680.372,71.7363,680.119,72.5635Q679.866,73.3906,679.866,74.2383Q679.866,75.25,680.344,75.8789Q680.823,76.5078,681.602,76.5078Q682.272,76.5078,682.901,76.084Q683.53,75.6602,684.214,74.7852L684.405,74.9492ZM692.059,82.4277L694.643,69.5625L695.955,69.002L695.053,72.9258Q696.064,70.8887,696.96,69.9932Q697.855,69.0977,698.922,69.0977Q699.742,69.0977,700.221,69.6992Q700.699,70.3008,700.699,71.3535Q700.699,72.4199,700.268,73.541Q699.838,74.6621,699.059,75.5781Q697.65,77.2734,695.955,77.2734Q694.889,77.2734,694.205,76.7129L692.797,82.4277L692.059,82.4277ZM694.41,75.8105Q694.984,76.9316,696.023,76.9316Q697.527,76.9316,698.648,74.4844Q699.564,72.5156,699.564,71.1758Q699.564,70.4512,699.291,70.0547Q699.018,69.6582,698.512,69.6582Q697.691,69.6582,696.789,70.7383Q695.928,71.8047,695.326,73.1172Q695.094,73.6367,694.895,74.2246Q694.697,74.8125,694.519,75.4277L694.41,75.8105ZM703.179,77.1367L706.816,58.433594L708.251,57.736328L704.464,74.3887Q704.519,74.293,704.519,74.2656L704.833,73.5547Q705.64,71.7227,706.857,70.3828Q708.005,69.1387,708.976,69.1387Q709.496,69.1387,709.81,69.4736Q710.125,69.8086,710.125,70.3691Q710.125,70.6836,709.974,71.2578L709.837,71.832L709.414,73.5L709.291,74.0332Q709.085,74.8535,709.085,75.291Q709.085,75.7285,709.236,75.99510000000001Q709.386,76.2617,709.632,76.2617Q710.056,76.2617,710.986,75.25L711.191,75.4414L711.068,75.5918Q710.289,76.5078,709.913,76.8291Q709.537,77.1504,709.236,77.1504Q708.812,77.1504,708.511,76.6992Q708.21,76.248,708.21,75.6465Q708.21,75.2773,708.388,74.3477L708.908,71.4492Q709.031,70.8066,709.031,70.4922Q709.031,70.2051,708.88,70.0547Q708.73,69.9043,708.47,69.9043Q707.964,69.9043,707.308,70.499Q706.652,71.0938,705.989,72.1465Q705.326,73.1992,704.833,74.3955Q704.341,75.5918,704.095,76.8496L703.179,77.1367ZM713.357,74.375Q713.357,73.1445,714.02,71.9209Q714.683,70.6973,715.735,69.9316Q716.788,69.166,717.882,69.166Q719.03,69.166,719.734,69.9248Q720.439,70.6836,720.439,71.8867Q720.439,73.1992,719.789,74.4297Q719.14,75.6602,718.08,76.44630000000001Q717.021,77.2324,715.941,77.2324Q714.778,77.2324,714.068,76.44630000000001Q713.357,75.6602,713.357,74.375ZM719.208,71.3672Q719.208,70.5469,718.805,70.0137Q718.401,69.4805,717.773,69.4805Q717.198,69.4805,716.672,69.8496Q716.146,70.2188,715.708,70.9297Q715.216,71.75,714.895,72.8438Q714.573,73.9375,714.573,74.7852Q714.573,75.7969,714.97,76.3438Q715.366,76.8906,716.105,76.8906Q717.294,76.8906,718.196,75.2363Q718.661,74.3887,718.935,73.3359Q719.208,72.2832,719.208,71.3672ZM725.571,69.6992L724.532,74.252Q724.368,75.0039,724.368,75.3184Q724.368,75.8105,724.6,76.1113Q724.833,76.4121,725.216,76.4121Q725.585,76.4121,725.892,76.2002Q726.2,75.9883,726.829,75.3184L726.993,75.1543L727.198,75.3594Q726.391,76.3438,725.851,76.7471Q725.311,77.1504,724.792,77.1504Q724.135,77.1504,723.746,76.7197Q723.356,76.2891,723.356,75.5918Q723.356,75.0723,723.561,74.0879L724.45,69.6992L723.137,69.6992L723.233,69.2344L724.546,69.2344L725.311,65.54297L726.624,65.02344L725.667,69.2344L727.882,69.2344L727.786,69.6992L725.571,69.6992ZM729.377,74.375Q729.377,73.1445,730.04,71.9209Q730.703,70.6973,731.756,69.9316Q732.809,69.166,733.903,69.166Q735.051,69.166,735.755,69.9248Q736.459,70.6836,736.459,71.8867Q736.459,73.1992,735.81,74.4297Q735.16,75.6602,734.101,76.44630000000001Q733.041,77.2324,731.961,77.2324Q730.799,77.2324,730.088,76.44630000000001Q729.377,75.6602,729.377,74.375ZM735.229,71.3672Q735.229,70.5469,734.826,70.0137Q734.422,69.4805,733.793,69.4805Q733.219,69.4805,732.693,69.8496Q732.166,70.2188,731.729,70.9297Q731.237,71.75,730.915,72.8438Q730.594,73.9375,730.594,74.7852Q730.594,75.7969,730.991,76.3438Q731.387,76.8906,732.125,76.8906Q733.315,76.8906,734.217,75.2363Q734.682,74.3887,734.955,73.3359Q735.229,72.2832,735.229,71.3672ZM738.228,76.125L738.994,75.2227Q739.596,76.6445,740.908,76.6445Q741.592,76.6445,742.077,76.2002Q742.562,75.7559,742.562,75.168Q742.562,74.7441,742.33,74.4434Q742.098,74.1426,741.223,73.4316Q740.416,72.7754,740.136,72.3994Q739.855,72.0234,739.855,71.5312Q739.855,70.8887,740.231,70.3418Q740.607,69.7949,741.236,69.46000000000001Q741.865,69.125,742.562,69.125Q743.178,69.125,743.595,69.43260000000001Q744.012,69.7402,744.012,70.2188Q744.012,70.8477,743.478,71.0801Q743.396,70.4375,742.993,70.0752Q742.59,69.7129,741.961,69.7129Q741.4,69.7129,740.983,70.0752Q740.566,70.4375,740.566,70.9023Q740.566,71.4766,741.277,72.0371L742.07,72.6797Q743.232,73.5957,743.232,74.5527Q743.232,75.2637,742.829,75.8857Q742.426,76.5078,741.735,76.877Q741.045,77.2461,740.279,77.2461Q739.062,77.2461,738.228,76.125Z" fill="#000000" fill-opacity="1"/></g></g></svg>