<svg xmlns="http://www.w3.org/2000/svg" xmlns:xlink="http://www.w3.org/1999/xlink" fill="none" version="1.1" width="1024" height="91" viewBox="0 0 1024 91"><g><g><path d="M326.096,4.52L328.352,2.696L332,6.008L330.08,7.88L321.44,7.88L321.44,10.808L325.52,10.808L327.776,8.936L331.472,12.248L329.504,14.168L321.44,14.168L321.44,17.144L326.864,17.144L329.12,15.272L332.816,18.584L330.848,20.504L303.296,20.504L302.48,17.144L313.904,17.144L313.904,14.168L305.84,14.168L305.024,10.808L313.904,10.808L313.904,7.88L303.68,7.88L302.864,4.52L313.904,4.52L313.904,0.776001L321.44,1.736L321.44,4.52L326.096,4.52ZM306.128,21.272L313.136,22.088L313.136,23.288L322.928,23.288L325.904,20.696L331.76,25.064L330.416,26.936L330.416,42.008Q330.416,46.328,326.144,46.328L322.352,46.328Q322.352,43.304,317.456,43.304L317.504,40.328Q319.904,40.232,322.016,40.232Q323.072,40.232,323.072,39.08L323.072,38.216L313.136,38.216L313.136,45.656L306.128,46.568L306.128,21.272ZM323.072,34.76L323.072,32.408L313.136,32.408L313.136,34.76L323.072,34.76ZM323.072,28.952L323.072,26.648L313.136,26.648L313.136,28.952L323.072,28.952ZM291.968,2.216Q297.584,4.712,301.04,7.928L296.192,13.4Q292.976,9.368,288.848,6.104L291.968,2.216ZM292.832,17.768L296.192,14.216L302.384,19.064L299.984,20.984L299.984,35.096Q301.712,34.376,303.44,33.512L305.168,37.112Q301.04,41.432,295.184,45.56L291.632,38.024Q292.496,37.784,293.36,37.496L293.36,25.208L293.264,25.208L293.264,21.8L289.184,21.8L288.224,17.768L292.832,17.768ZM363.536,2.552L370.4,4.616Q369.632,6.344,368.816,7.784L371.024,7.784L371.024,1.64L378.656,2.6L378.656,7.784L380.288,7.784L383.024,5.288L387.632,9.32L385.472,11.432L378.656,11.432L378.656,16.424L382.448,16.424L385.184,13.976L389.744,18.008L387.584,20.168L381.872,20.168L381.872,29.144Q381.872,30.008,382.352,30.008L383.312,30.008Q384.272,30.008,384.416,29.432L385.28,25.592L387.92,25.976Q387.872,27.032,387.872,27.8Q387.872,30.92,390.56,31.976Q389.12,35.96,385.28,35.96L379.328,35.96Q375.2,35.96,374.96,31.352L374.96,20.168L371.936,20.168L371.936,22.568Q371.936,32.072,361.136,36.44L359.264,33.8Q365.024,29.288,365.024,21.848L365.024,20.168L359.984,20.168L359.024,16.424L371.024,16.424L371.024,11.432L366.464,11.432Q364.592,13.976,362.576,15.704L359.6,14.072Q362.528,8.552,363.536,2.552ZM350.576,3.416Q356.192,6.536,359.552,9.704L353.744,15.608Q350.72,9.992,347.312,6.44L350.576,3.416ZM350.72,20.648L353.984,17.672L360.176,22.616L358.16,24.632L358.16,34.04Q358.832,38.456,364.832,38.456L390.896,38.456L388.832,44.936L365.072,44.936Q358.112,44.936,354.368,38.504Q353.36,41.24,349.616,46.28L345.152,40.616Q350.912,35.48,350.912,33.848L350.912,24.248L346.592,24.248L345.68,20.648L350.72,20.648ZM439.472,24.632L441.824,22.664L445.712,26.12L443.696,28.088L436.64,28.088L436.64,32.984L440.576,32.984L443.408,30.296L447.968,34.424L446,36.44L436.64,36.44L436.64,44.984L428.768,45.992L428.768,36.44L418.736,36.44L417.872,32.984L428.768,32.984L428.768,28.088L421.664,28.088L420.8,24.632L428.768,24.632L428.768,20.072Q424.736,21.368,419.936,21.704L418.784,18.44Q425.168,17,428.816,15.08Q425.264,12.008,422.72,7.64L420.416,7.64L419.6,4.088L438.08,4.088L440.816,1.448L447.824,6.536L444.992,7.496Q442.544,11.432,439.52,14.168Q442.976,15.128,448.256,15.368L445.904,21.8Q438.848,21.128,433.472,18.248Q432.032,18.968,430.496,19.496L436.64,20.216L436.64,24.632L439.472,24.632ZM427.328,7.64Q430.4,10.088,433.616,11.768Q435.776,9.848,436.88,7.64L427.328,7.64ZM415.76,10.28L418.304,7.736L422.816,11.768L420.656,13.736L415.472,13.736L415.472,22.04Q417.344,21.368,418.736,20.696L420.224,23.768Q418.352,25.496,415.472,27.32L415.472,40.472Q415.472,46.472,410.096,46.472L406.976,46.472Q406.976,42.392,402.944,42.2L403.184,38.6Q405.104,39.464,406.688,39.464Q407.936,39.464,407.936,38.12L407.936,31.496Q406.496,32.168,404.96,32.888L402.704,25.832Q404.912,25.304,407.936,24.392L407.936,13.736L403.856,13.736L402.944,10.28L407.936,10.28L407.936,1.256L415.472,2.216L415.472,10.28L415.76,10.28ZM498.56,3.752L501.2,1.4L505.472,5.24L503.456,7.256L499.616,7.256L503.696,10.904L501.728,12.824L496.208,12.824L502.064,17.288L500.528,18.824L500.528,24.632L495.536,25.496L497.552,26.504Q495.488,27.848,493.424,29L498.608,29L501.44,26.312L506.096,30.488L504.08,32.552L497.072,32.552L503.072,37.16L501.152,38.744L501.152,45.176L493.184,46.52L493.184,44.504L472.448,44.504L472.448,45.704L464.672,46.712L464.672,32.792L472.448,33.704L472.448,34.76L493.952,34.76L495.824,32.552L461.6,32.552L460.736,29L472.976,29Q471.392,27.464,469.376,25.88L469.952,25.352L464.864,25.976L464.864,12.824L463.52,12.824L462.656,9.416L478.256,9.416L478.256,7.256L462.032,7.256L461.168,3.752L478.256,3.752L478.256,1.112L486.608,2.168L486.608,3.752L498.56,3.752ZM492.56,21.032L492.56,18.152L472.592,18.152L472.592,21.032L492.56,21.032ZM472.592,14.6L493.184,14.6L494.864,12.824L466.064,12.824L472.592,13.592L472.592,14.6ZM489.296,24.344L473.12,24.344Q476.432,25.16,480.272,26.84L478.064,29L485.888,29Q487.856,26.696,489.296,24.344ZM486.608,7.256L486.608,9.416L496.88,9.416L499.328,7.256L486.608,7.256ZM493.184,41.192L493.184,38.312L472.448,38.312L472.448,41.192L493.184,41.192ZM521.264,16.376Q525.152,18.824,528.272,21.272Q529.664,16.28,529.952,11.288L520.832,11.288L519.92,7.784L530.288,7.784L532.592,6.008L538.592,10.136L536.624,11.912Q536.096,19.16,533.216,25.64Q536.72,29.24,538.784,32.792L533.888,38.6Q532.304,35.288,529.904,31.784Q526.592,36.872,521.84,41.48L518.576,39.128Q523.472,33.176,526.208,26.888Q523.232,23.192,519.488,19.4L521.264,16.376ZM542.144,1.64L549.728,2.984Q549.008,6.248,547.952,9.176L555.104,9.176L557.984,6.872L563.072,11.528L561.44,12.68L556.88,20.456L553.904,19.88L555.296,12.728L546.56,12.728Q544.064,18.392,540.224,22.808L536.912,20.12Q541.184,11.672,542.144,1.64ZM545.744,15.608L552.896,16.616L552.896,21.512Q552.896,24.536,552.368,27.224Q553.76,29.624,555.488,31.784Q558.128,35.048,562.448,37.448L558.128,45.224Q553.952,42.44,550.832,36.152Q550.256,35.048,549.824,33.944Q549.44,34.568,549.008,35.144Q545.648,40.52,538.928,44.984L534.992,42.248Q545.744,32.648,545.744,21.128L545.744,15.608ZM600.704,1.832L608.48,3.176Q607.52,6.968,605.984,10.328L611.6,10.328L614.672,7.064L620.48,11.912L619.232,13.448L619.232,26.456Q619.232,41.288,616.832,43.352Q615.344,45.512,610.976,45.512L607.472,45.512Q607.472,41.72,601.424,40.76L601.808,37.688L608.96,38.024Q610.736,38.024,611.024,37.256Q612.032,33.896,612.032,29.192L612.032,13.88L604.208,13.88Q601.52,18.632,597.68,22.472L596.48,21.512L596.48,44.12L589.616,44.744L589.616,41.96L584.048,41.96L584.048,44.696L577.472,45.56L577.472,7.544L583.28,8.168Q584.24,4.76,584.48,1.88L591.872,3.464Q589.808,7.064,587.456,9.608L589.808,9.608L592.064,7.016L598.208,11.48L596.48,13.4L596.48,16.904Q599.84,9.848,600.704,1.832ZM584.048,38.792L589.616,38.792L589.616,25.976L584.048,25.976L584.048,38.792ZM584.048,22.904L589.616,22.904L589.616,12.824L584.048,12.824L584.048,22.904ZM603.104,20.408Q607.376,24.2,610.256,28.472L604.016,32.792Q602.192,27.032,599.648,22.664L603.104,20.408ZM666.896,15.704L668.864,13.736L669.44,14.168L670.016,12.776L664.4,12.776L664.4,15.944L666.896,15.704ZM658.16,16.616L658.16,12.776L653.984,12.776L653.984,17.048L658.16,16.616ZM653.984,20.024Q653.792,35.576,646.112,45.464L642.848,44.072Q643.52,42.824,644.048,41.528L639.488,45.08Q637.952,37.832,634.544,32.408L644.384,17.528L647.216,18.92L647.216,7.064L653.984,7.736L653.984,9.56L657.008,9.56L657.008,1.88L663.296,2.696L663.296,4.856L670.16,4.856L672.56,2.504L676.592,6.056L674.672,7.784L672.992,7.784L677.84,11.384L675.44,12.536L671.984,16.184L672.8,16.808L671.072,18.488L664.4,19.064L664.4,19.976Q664.4,20.984,665.12,20.984L670.832,20.984Q671.888,20.984,672.176,20.456L673.52,17.048L675.968,17.48Q675.68,18.488,675.68,19.304Q675.68,21.704,677.408,22.76Q676.256,25.784,673.424,25.784L665.84,25.784Q668.672,28.808,670.64,32.216L665.36,35.864Q664.544,32.648,663.584,30.056L663.584,38.552Q663.584,39.656,663.872,39.656L666.224,39.656Q667.328,39.656,667.616,38.888L668.96,33.8L671.84,34.328Q671.552,35.48,671.552,36.488Q671.552,40.04,673.664,41.672Q672.368,45.08,669.2,45.08L660.08,45.08Q657.584,45.08,657.488,40.952L657.488,37.448Q656.768,40.76,655.616,44.312L650.144,41.384Q653.168,35.96,654.848,29.672L657.488,30.488L657.488,28.52L663.248,29.192Q662.816,28.04,662.384,27.08L664.352,25.784L661.568,25.784Q658.256,25.784,658.16,22.088L658.16,19.64L653.984,20.024ZM647.216,19.592L641.744,32.888Q643.52,34.712,645.44,37.448Q647.216,30.824,647.216,21.944L647.216,19.592ZM663.296,9.56L670.064,9.56L672.176,7.784L663.296,7.784L663.296,9.56ZM673.472,27.992Q676.88,32.312,679.136,37.16L673.904,40.808Q672.512,34.616,670.496,29.96L673.472,27.992ZM638.528,2.648Q643.472,4.904,646.4,7.208L640.592,13.112Q638.288,8.264,635.696,5.24L638.528,2.648ZM636.224,12.488Q640.496,14.84,643.04,17.192L637.328,23Q635.6,18.008,633.632,14.84L636.224,12.488ZM729.296,14.6L731.792,12.392L735.92,16.088L733.904,18.104L728.48,18.104L734.144,22.472L732.944,23.912L732.944,34.328L727.808,35.192L727.808,38.696Q727.808,39.992,728.144,39.992L729.248,39.992Q730.976,39.992,730.976,38.936L731.648,35.192L734.96,35.816Q734.864,37.208,734.816,38.312Q734.816,40.952,735.92,42.536Q735.536,45.608,731.744,45.608L724.4,45.608Q721.52,45.608,721.232,41.144L721.232,34.04L720.848,34.04Q719.696,38.072,717.296,40.424Q714.32,43.88,708.656,45.848L706.976,43.064Q710,40.712,711.536,38.744Q712.688,37.352,713.504,35.288L710,35.72L710,27.608L708.8,28.76L703.664,28.76L703.664,36.056Q705.968,35.096,708.176,33.944L709.664,37.064Q705.536,41.192,699.68,45.176L696.512,38.504Q696.896,38.408,697.232,38.312L697.232,28.76L693.008,28.76L692.192,25.304L697.232,25.304L697.232,19.88L695.84,19.88L695.648,19.16Q694.544,20.504,693.44,21.56L691.136,19.352Q694.64,12.44,697.232,2.024L704.336,3.56Q703.28,6.44,702.08,8.984L704.096,8.984L706.112,7.304L709.712,10.52L707.984,12.44L700.304,12.44Q699.056,14.744,697.664,16.616L702.416,16.616L704.624,14.792L708.224,18.056L706.304,19.88L703.664,19.88L703.664,25.304L705.008,25.304L707.216,23.576L710,26.072L710,18.632L716.912,19.448L716.912,20.312L725.984,20.312L727.856,18.104L708.272,18.104L707.408,14.6L714.416,14.6Q713.216,12.68,711.824,11L713.072,9.464L709.52,9.464L708.608,5.816L717.968,5.816Q717.056,4.952,716.048,4.136L718.352,1.256Q722.24,2.648,724.64,4.52L723.488,5.816L727.232,5.816L729.872,3.464L734.192,7.352L732.08,9.464L727.952,9.464L731.024,10.712Q729.392,12.776,727.472,14.6L729.296,14.6ZM721.664,14.6Q723.152,12.2,724.064,9.464L715.904,9.464Q718.496,10.712,720.272,12.2L718.16,14.6L721.664,14.6ZM725.984,30.488L725.984,28.904L716.912,28.904L716.912,30.488L725.984,30.488ZM725.984,25.592L725.984,23.864L716.912,23.864L716.912,25.592L725.984,25.592Z" fill="#000000" fill-opacity="1"/></g><g><path d="M358.528,77L360.237,69.1113Q360.674,67.10156,360.941,64.9209Q361.207,62.74023,361.207,60.89453Q361.207,60.4707,361.194,60.14258L362.698,59.45898L362.698,59.8418Q362.698,60.74414,362.534,62.75391Q362.37,64.76367,362.192,65.84375Q363.026,63.88867,364.27,62.21387Q365.514,60.53906,366.82,59.56836Q368.125,58.597656,369.192,58.597656Q370.258,58.597656,370.908,59.45215Q371.557,60.30664,371.557,61.74219Q371.557,63.54688,370.778,65.36523Q369.999,67.18359,368.652,68.7148Q367.305,70.2461,365.699,71.1279Q364.092,72.0098,362.52,72.0098Q362.165,72.0098,361.686,71.9141L362.411,70.9434Q363.081,71.1621,363.778,71.1621Q364.913,71.1621,366.054,70.4033Q367.196,69.6445,368.098,68.2637Q368.932,66.99219,369.52,65.09863Q370.108,63.20508,370.108,61.82422Q370.108,60.67578,369.718,60.0332Q369.329,59.39062,368.631,59.39062Q367.647,59.39062,366.362,60.51855Q365.077,61.64648,363.846,63.57422Q362.957,64.94141,362.363,66.52734Q361.768,68.1133,361.303,70.2051L359.827,77L358.528,77ZM377.072,57.736328L373.477,73.5L373.354,74.0332Q373.176,74.7852,373.176,75.3047Q373.176,75.7285,373.333,75.99510000000001Q373.49,76.2617,373.723,76.2617Q374.147,76.2617,375.076,75.25L375.295,75.4414L375.158,75.5918Q374.379,76.5078,374.01,76.8291Q373.641,77.1504,373.326,77.1504Q372.916,77.1504,372.608,76.69239999999999Q372.301,76.2344,372.301,75.6465Q372.301,75.2363,372.479,74.3477L375.637,58.433594L377.072,57.736328ZM382.97,74.8809L383.216,75.0859Q382.369,76.207,381.562,76.70609999999999Q380.756,77.2051,379.826,77.2051Q378.718,77.2051,378.048,76.4668Q377.379,75.7285,377.379,74.5117Q377.379,73.2812,378.028,72.0166Q378.677,70.752,379.655,69.9248Q380.632,69.0977,381.59,69.0977Q382.15,69.0977,382.512,69.4258Q382.875,69.7539,382.875,70.2734Q382.875,71.3262,381.726,72.3789Q380.578,73.4316,378.595,74.1699Q378.582,74.2793,378.582,74.416Q378.582,75.3594,379.101,75.9541Q379.621,76.5488,380.441,76.5488Q381.084,76.5488,381.685,76.1455Q382.287,75.7422,382.97,74.8809ZM378.595,73.8418Q380.072,73.1855,380.865,72.3789Q381.398,71.832,381.726,71.2031Q382.054,70.5742,382.054,70.0684Q382.054,69.4258,381.466,69.4258Q380.578,69.4258,379.669,70.8271Q378.759,72.2285,378.595,73.8418ZM393.271,68.9199L391.986,73.9238Q391.781,74.7441,391.781,75.209Q391.781,75.6191,391.958,75.9199Q392.136,76.2207,392.396,76.2207Q392.792,76.2207,393.708,75.25L393.9,75.4414L393.749,75.6191Q393.025,76.4531,392.635,76.7881Q392.245,77.123,391.958,77.123Q391.521,77.123,391.199,76.66499999999999Q390.878,76.207,390.878,75.6055Q390.878,75.168,391.206,73.623L391.316,73.1035Q390.81,74.2793,389.962,75.3594Q388.54,77.1641,387.241,77.1641Q386.462,77.1641,386.011,76.6035Q385.56,76.043,385.56,75.0996Q385.56,73.8145,386.291,72.4062Q387.023,70.998,388.11,70.0889Q389.197,69.1797,390.222,69.1797Q391.302,69.1797,391.835,69.9727L391.986,69.4531L393.271,68.9199ZM391.699,70.6699Q391.534,70.1504,391.145,69.85640000000001Q390.755,69.5625,390.249,69.5625Q389.648,69.5625,388.978,70.11619999999999Q388.308,70.6699,387.747,71.6543Q387.31,72.4336,387.016,73.377Q386.722,74.3203,386.722,74.9355Q386.722,75.6328,386.989,76.0293Q387.255,76.4258,387.747,76.4258Q388.376,76.4258,389.06,75.8379Q389.743,75.25,390.413,74.1562Q390.824,73.5273,391.056,72.8984Q391.288,72.2695,391.575,71.1484L391.699,70.6699ZM395.313,76.125L396.079,75.2227Q396.681,76.6445,397.993,76.6445Q398.677,76.6445,399.162,76.2002Q399.647,75.7559,399.647,75.168Q399.647,74.7441,399.415,74.4434Q399.182,74.1426,398.307,73.4316Q397.501,72.7754,397.221,72.3994Q396.94,72.0234,396.94,71.5312Q396.94,70.8887,397.316,70.3418Q397.692,69.7949,398.321,69.46000000000001Q398.95,69.125,399.647,69.125Q400.263,69.125,400.68,69.43260000000001Q401.097,69.7402,401.097,70.2188Q401.097,70.8477,400.563,71.0801Q400.481,70.4375,400.078,70.0752Q399.675,69.7129,399.046,69.7129Q398.485,69.7129,398.068,70.0752Q397.651,70.4375,397.651,70.9023Q397.651,71.4766,398.362,72.0371L399.155,72.6797Q400.317,73.5957,400.317,74.5527Q400.317,75.2637,399.914,75.8857Q399.511,76.5078,398.82,76.877Q398.13,77.2461,397.364,77.2461Q396.147,77.2461,395.313,76.125ZM409.018,74.8809L409.264,75.0859Q408.416,76.207,407.61,76.70609999999999Q406.803,77.2051,405.874,77.2051Q404.766,77.2051,404.096,76.4668Q403.426,75.7285,403.426,74.5117Q403.426,73.2812,404.076,72.0166Q404.725,70.752,405.703,69.9248Q406.68,69.0977,407.637,69.0977Q408.198,69.0977,408.56,69.4258Q408.922,69.7539,408.922,70.2734Q408.922,71.3262,407.774,72.3789Q406.625,73.4316,404.643,74.1699Q404.629,74.2793,404.629,74.416Q404.629,75.3594,405.149,75.9541Q405.668,76.5488,406.489,76.5488Q407.131,76.5488,407.733,76.1455Q408.334,75.7422,409.018,74.8809ZM404.643,73.8418Q406.12,73.1855,406.913,72.3789Q407.446,71.832,407.774,71.2031Q408.102,70.5742,408.102,70.0684Q408.102,69.4258,407.514,69.4258Q406.625,69.4258,405.716,70.8271Q404.807,72.2285,404.643,73.8418ZM423.603,74.9492Q422.769,76.125,421.983,76.66499999999999Q421.197,77.2051,420.24,77.2051Q419.187,77.2051,418.524,76.4668Q417.861,75.7285,417.861,74.5527Q417.861,73.3223,418.504,72.0508Q419.146,70.7793,420.151,69.9453Q421.156,69.1113,422.086,69.1113Q422.715,69.1113,423.097,69.46000000000001Q423.48,69.8086,423.48,70.3965Q423.48,70.9297,423.077,71.41499999999999Q422.674,71.9004,422.209,71.9004Q422.004,71.9004,421.84,71.7363Q422.728,71.3398,422.728,70.2598Q422.728,69.877,422.53,69.66499999999999Q422.332,69.4531,422.004,69.4531Q421.498,69.4531,420.985,69.8633Q420.472,70.2734,420.021,71.00489999999999Q419.57,71.7363,419.317,72.5635Q419.064,73.3906,419.064,74.2383Q419.064,75.25,419.543,75.8789Q420.021,76.5078,420.8,76.5078Q421.47,76.5078,422.099,76.084Q422.728,75.6602,423.412,74.7852L423.603,74.9492ZM425.892,77.1367L429.529,58.433594L430.964,57.736328L427.177,74.3887Q427.232,74.293,427.232,74.2656L427.546,73.5547Q428.353,71.7227,429.57,70.3828Q430.718,69.1387,431.689,69.1387Q432.208,69.1387,432.523,69.4736Q432.837,69.8086,432.837,70.3691Q432.837,70.6836,432.687,71.2578L432.55,71.832L432.126,73.5L432.003,74.0332Q431.798,74.8535,431.798,75.291Q431.798,75.7285,431.949,75.99510000000001Q432.099,76.2617,432.345,76.2617Q432.769,76.2617,433.699,75.25L433.904,75.4414L433.781,75.5918Q433.001,76.5078,432.625,76.8291Q432.249,77.1504,431.949,77.1504Q431.525,77.1504,431.224,76.6992Q430.923,76.248,430.923,75.6465Q430.923,75.2773,431.101,74.3477L431.62,71.4492Q431.743,70.8066,431.743,70.4922Q431.743,70.2051,431.593,70.0547Q431.443,69.9043,431.183,69.9043Q430.677,69.9043,430.021,70.499Q429.365,71.0938,428.701,72.1465Q428.038,73.1992,427.546,74.3955Q427.054,75.5918,426.808,76.8496L425.892,77.1367ZM436.069,74.375Q436.069,73.1445,436.732,71.9209Q437.395,70.6973,438.448,69.9316Q439.501,69.166,440.595,69.166Q441.743,69.166,442.447,69.9248Q443.151,70.6836,443.151,71.8867Q443.151,73.1992,442.502,74.4297Q441.852,75.6602,440.793,76.44630000000001Q439.733,77.2324,438.653,77.2324Q437.491,77.2324,436.78,76.44630000000001Q436.069,75.6602,436.069,74.375ZM441.921,71.3672Q441.921,70.5469,441.517,70.0137Q441.114,69.4805,440.485,69.4805Q439.911,69.4805,439.385,69.8496Q438.858,70.2188,438.421,70.9297Q437.929,71.75,437.607,72.8438Q437.286,73.9375,437.286,74.7852Q437.286,75.7969,437.682,76.3438Q438.079,76.8906,438.817,76.8906Q440.007,76.8906,440.909,75.2363Q441.374,74.3887,441.647,73.3359Q441.921,72.2832,441.921,71.3672ZM445.672,74.375Q445.672,73.1445,446.335,71.9209Q446.999,70.6973,448.051,69.9316Q449.104,69.166,450.198,69.166Q451.346,69.166,452.05,69.9248Q452.754,70.6836,452.754,71.8867Q452.754,73.1992,452.105,74.4297Q451.456,75.6602,450.396,76.44630000000001Q449.336,77.2324,448.256,77.2324Q447.094,77.2324,446.383,76.44630000000001Q445.672,75.6602,445.672,74.375ZM451.524,71.3672Q451.524,70.5469,451.121,70.0137Q450.717,69.4805,450.088,69.4805Q449.514,69.4805,448.988,69.8496Q448.461,70.2188,448.024,70.9297Q447.532,71.75,447.21,72.8438Q446.889,73.9375,446.889,74.7852Q446.889,75.7969,447.286,76.3438Q447.682,76.8906,448.42,76.8906Q449.61,76.8906,450.512,75.2363Q450.977,74.3887,451.25,73.3359Q451.524,72.2832,451.524,71.3672ZM454.523,76.125L455.289,75.2227Q455.891,76.6445,457.203,76.6445Q457.887,76.6445,458.372,76.2002Q458.857,75.7559,458.857,75.168Q458.857,74.7441,458.625,74.4434Q458.393,74.1426,457.518,73.4316Q456.711,72.7754,456.431,72.3994Q456.15,72.0234,456.15,71.5312Q456.15,70.8887,456.526,70.3418Q456.902,69.7949,457.531,69.46000000000001Q458.16,69.125,458.857,69.125Q459.473,69.125,459.89,69.43260000000001Q460.307,69.7402,460.307,70.2188Q460.307,70.8477,459.773,71.0801Q459.691,70.4375,459.288,70.0752Q458.885,69.7129,458.256,69.7129Q457.695,69.7129,457.278,70.0752Q456.861,70.4375,456.861,70.9023Q456.861,71.4766,457.572,72.0371L458.365,72.6797Q459.527,73.5957,459.527,74.5527Q459.527,75.2637,459.124,75.8857Q458.721,76.5078,458.03,76.877Q457.34,77.2461,456.574,77.2461Q455.357,77.2461,454.523,76.125ZM468.228,74.8809L468.474,75.0859Q467.627,76.207,466.82,76.70609999999999Q466.013,77.2051,465.084,77.2051Q463.976,77.2051,463.306,76.4668Q462.636,75.7285,462.636,74.5117Q462.636,73.2812,463.286,72.0166Q463.935,70.752,464.913,69.9248Q465.89,69.0977,466.847,69.0977Q467.408,69.0977,467.77,69.4258Q468.133,69.7539,468.133,70.2734Q468.133,71.3262,466.984,72.3789Q465.836,73.4316,463.853,74.1699Q463.84,74.2793,463.84,74.416Q463.84,75.3594,464.359,75.9541Q464.879,76.5488,465.699,76.5488Q466.341,76.5488,466.943,76.1455Q467.545,75.7422,468.228,74.8809ZM463.853,73.8418Q465.33,73.1855,466.123,72.3789Q466.656,71.832,466.984,71.2031Q467.312,70.5742,467.312,70.0684Q467.312,69.4258,466.724,69.4258Q465.836,69.4258,464.926,70.8271Q464.017,72.2285,463.853,73.8418ZM484.782,68.9199L483.497,73.9238Q483.292,74.7441,483.292,75.209Q483.292,75.6191,483.47,75.9199Q483.647,76.2207,483.907,76.2207Q484.304,76.2207,485.22,75.25L485.411,75.4414L485.261,75.6191Q484.536,76.4531,484.146,76.7881Q483.757,77.123,483.47,77.123Q483.032,77.123,482.711,76.66499999999999Q482.39,76.207,482.39,75.6055Q482.39,75.168,482.718,73.623L482.827,73.1035Q482.321,74.2793,481.474,75.3594Q480.052,77.1641,478.753,77.1641Q477.974,77.1641,477.522,76.6035Q477.071,76.043,477.071,75.0996Q477.071,73.8145,477.803,72.4062Q478.534,70.998,479.621,70.0889Q480.708,69.1797,481.733,69.1797Q482.813,69.1797,483.347,69.9727L483.497,69.4531L484.782,68.9199ZM483.21,70.6699Q483.046,70.1504,482.656,69.85640000000001Q482.266,69.5625,481.761,69.5625Q481.159,69.5625,480.489,70.11619999999999Q479.819,70.6699,479.259,71.6543Q478.821,72.4336,478.527,73.377Q478.233,74.3203,478.233,74.9355Q478.233,75.6328,478.5,76.0293Q478.766,76.4258,479.259,76.4258Q479.888,76.4258,480.571,75.8379Q481.255,75.25,481.925,74.1562Q482.335,73.5273,482.567,72.8984Q482.8,72.2695,483.087,71.1484L483.21,70.6699ZM497.44,58.433594L498.889,57.736328L494.951,74.5938Q497.412,69.0977,499.777,69.0977Q500.256,69.0977,500.632,69.3506Q501.008,69.6035,501.22,70.0957Q501.432,70.5879,501.432,71.1348Q501.432,72.1738,500.94,73.4385Q500.447,74.7031,499.695,75.6055Q498.356,77.2324,496.742,77.2324Q496.236,77.2324,495.772,77.0615Q495.307,76.8906,494.732,76.4941L493.775,77.0684L497.44,58.433594ZM494.951,75.6055Q495.566,76.8906,496.715,76.8906Q497.535,76.8906,498.239,76.1797Q498.943,75.4688,499.49,74.1152Q499.805,73.3496,500.01,72.4541Q500.215,71.5586,500.215,71.0254Q500.215,69.7402,499.313,69.7402Q498.711,69.7402,497.945,70.4785Q497.18,71.2168,496.407,72.5361Q495.635,73.8555,494.951,75.6055ZM509.545,74.8809L509.791,75.0859Q508.943,76.207,508.136,76.70609999999999Q507.33,77.2051,506.4,77.2051Q505.293,77.2051,504.623,76.4668Q503.953,75.7285,503.953,74.5117Q503.953,73.2812,504.602,72.0166Q505.252,70.752,506.229,69.9248Q507.207,69.0977,508.164,69.0977Q508.724,69.0977,509.087,69.4258Q509.449,69.7539,509.449,70.2734Q509.449,71.3262,508.3,72.3789Q507.152,73.4316,505.17,74.1699Q505.156,74.2793,505.156,74.416Q505.156,75.3594,505.675,75.9541Q506.195,76.5488,507.015,76.5488Q507.658,76.5488,508.259,76.1455Q508.861,75.7422,509.545,74.8809ZM505.17,73.8418Q506.646,73.1855,507.439,72.3789Q507.972,71.832,508.3,71.2031Q508.629,70.5742,508.629,70.0684Q508.629,69.4258,508.041,69.4258Q507.152,69.4258,506.243,70.8271Q505.334,72.2285,505.17,73.8418ZM519.845,68.9199L518.56,73.9238Q518.355,74.7441,518.355,75.209Q518.355,75.6191,518.532,75.9199Q518.71,76.2207,518.97,76.2207Q519.366,76.2207,520.282,75.25L520.474,75.4414L520.323,75.6191Q519.599,76.4531,519.209,76.7881Q518.82,77.123,518.532,77.123Q518.095,77.123,517.774,76.66499999999999Q517.452,76.207,517.452,75.6055Q517.452,75.168,517.781,73.623L517.89,73.1035Q517.384,74.2793,516.536,75.3594Q515.115,77.1641,513.816,77.1641Q513.036,77.1641,512.585,76.6035Q512.134,76.043,512.134,75.0996Q512.134,73.8145,512.865,72.4062Q513.597,70.998,514.684,70.0889Q515.771,69.1797,516.796,69.1797Q517.876,69.1797,518.409,69.9727L518.56,69.4531L519.845,68.9199ZM518.273,70.6699Q518.109,70.1504,517.719,69.85640000000001Q517.329,69.5625,516.823,69.5625Q516.222,69.5625,515.552,70.11619999999999Q514.882,70.6699,514.322,71.6543Q513.884,72.4336,513.59,73.377Q513.296,74.3203,513.296,74.9355Q513.296,75.6328,513.563,76.0293Q513.829,76.4258,514.322,76.4258Q514.95,76.4258,515.634,75.8379Q516.318,75.25,516.988,74.1562Q517.398,73.5273,517.63,72.8984Q517.863,72.2695,518.15,71.1484L518.273,70.6699ZM525.415,69.002L524.089,74.293Q523.911,75.0039,523.911,75.4961Q523.911,75.9746,524.212,76.2617Q524.513,76.5488,524.991,76.5488Q526.153,76.5488,527.411,74.6484L527.466,74.5664Q527.493,74.4297,527.507,74.3477L528.368,69.5625L529.708,69.002L528.505,73.5Q528.204,74.6074,528.204,75.2773Q528.204,75.7148,528.354,75.9883Q528.505,76.2617,528.751,76.2617Q529.175,76.2617,530.104,75.25L530.323,75.4414L530.186,75.5918Q529.407,76.5078,529.038,76.8291Q528.669,77.1504,528.354,77.1504Q527.931,77.1504,527.637,76.7197Q527.343,76.2891,527.343,75.6465Q527.343,75.4414,527.356,75.2637Q525.934,77.1504,524.54,77.1504Q523.843,77.1504,523.426,76.7471Q523.009,76.3438,523.009,75.6738Q523.009,75.1543,523.159,74.4023L524.089,69.5625L525.415,69.002ZM535.086,69.6992L534.047,74.252Q533.883,75.0039,533.883,75.3184Q533.883,75.8105,534.116,76.1113Q534.348,76.4121,534.731,76.4121Q535.1,76.4121,535.408,76.2002Q535.715,75.9883,536.344,75.3184L536.508,75.1543L536.713,75.3594Q535.907,76.3438,535.367,76.7471Q534.827,77.1504,534.307,77.1504Q533.651,77.1504,533.261,76.7197Q532.872,76.2891,532.872,75.5918Q532.872,75.0723,533.077,74.0879L533.965,69.6992L532.653,69.6992L532.748,69.2344L534.061,69.2344L534.827,65.54297L536.139,65.02344L535.182,69.2344L537.397,69.2344L537.301,69.6992L535.086,69.6992ZM537.676,81.8535L538.346,80.9512Q539.139,81.7988,540.137,81.7988Q541.189,81.7988,541.832,80.9648Q542.475,80.1309,542.885,78.2305L543.514,75.4004Q542.01,77.1641,540.793,77.1641Q540.082,77.1641,539.679,76.7266Q539.275,76.2891,539.275,75.5508Q539.275,75.0586,539.398,74.4707L540.328,69.5625L541.654,69.002L540.328,74.5117Q540.164,75.1816,540.164,75.5098Q540.164,75.9746,540.444,76.26859999999999Q540.725,76.5625,541.189,76.5625Q541.695,76.5625,542.304,76.1182Q542.912,75.6738,543.664,74.7852L544.84,69.5625L546.125,69.002L544.129,77.041Q543.773,78.4902,543.452,79.3105Q543.131,80.1309,542.707,80.6777Q541.367,82.4004,539.439,82.4004Q538.318,82.4004,537.676,81.8535ZM560.314,74.8809L560.56,75.0859Q559.712,76.207,558.906,76.70609999999999Q558.099,77.2051,557.169,77.2051Q556.062,77.2051,555.392,76.4668Q554.722,75.7285,554.722,74.5117Q554.722,73.2812,555.371,72.0166Q556.021,70.752,556.998,69.9248Q557.976,69.0977,558.933,69.0977Q559.493,69.0977,559.856,69.4258Q560.218,69.7539,560.218,70.2734Q560.218,71.3262,559.07,72.3789Q557.921,73.4316,555.939,74.1699Q555.925,74.2793,555.925,74.416Q555.925,75.3594,556.445,75.9541Q556.964,76.5488,557.784,76.5488Q558.427,76.5488,559.029,76.1455Q559.63,75.7422,560.314,74.8809ZM555.939,73.8418Q557.415,73.1855,558.208,72.3789Q558.741,71.832,559.07,71.2031Q559.398,70.5742,559.398,70.0684Q559.398,69.4258,558.81,69.4258Q557.921,69.4258,557.012,70.8271Q556.103,72.2285,555.939,73.8418ZM564.598,69.6992L563.259,69.6992L563.354,69.2344L564.708,69.2344L565.993,63.23242Q566.321,61.74219,566.663,60.85352Q567.005,59.96484,567.483,59.32227Q568.659,57.75,570.409,57.75Q570.997,57.75,571.489,57.9414062L570.997,59.18555Q570.45,58.419922,569.602,58.419922Q568.96,58.419922,568.556,58.918945Q568.153,59.41797,567.866,60.56641L565.774,69.2344L567.975,69.2344L567.88,69.6992L565.665,69.6992L563.792,77.4648Q563.423,79.0234,563.074,79.7891Q562.725,80.5547,562.124,81.2109Q561.03,82.4004,559.731,82.4004Q559.102,82.4004,558.61,82.1816L559.28,81.1973Q559.854,81.6621,560.524,81.6621Q561.536,81.6621,562.042,80.5957Q562.411,79.8027,562.821,77.9707L564.598,69.6992ZM570.483,69.6992L569.143,69.6992L569.239,69.2344L570.592,69.2344L571.877,63.23242Q572.205,61.74219,572.547,60.85352Q572.889,59.96484,573.368,59.32227Q574.543,57.75,576.293,57.75Q576.881,57.75,577.373,57.9414062L576.881,59.18555Q576.334,58.419922,575.487,58.419922Q574.844,58.419922,574.441,58.918945Q574.037,59.41797,573.75,60.56641L571.659,69.2344L573.86,69.2344L573.764,69.6992L571.549,69.6992L569.676,77.4648Q569.307,79.0234,568.958,79.7891Q568.61,80.5547,568.008,81.2109Q566.914,82.4004,565.616,82.4004Q564.987,82.4004,564.495,82.1816L565.164,81.1973Q565.739,81.6621,566.409,81.6621Q567.42,81.6621,567.926,80.5957Q568.295,79.8027,568.705,77.9707L570.483,69.6992ZM580.264,74.8809L580.51,75.0859Q579.662,76.207,578.855,76.70609999999999Q578.049,77.2051,577.119,77.2051Q576.012,77.2051,575.342,76.4668Q574.672,75.7285,574.672,74.5117Q574.672,73.2812,575.321,72.0166Q575.971,70.752,576.948,69.9248Q577.926,69.0977,578.883,69.0977Q579.443,69.0977,579.806,69.4258Q580.168,69.7539,580.168,70.2734Q580.168,71.3262,579.02,72.3789Q577.871,73.4316,575.889,74.1699Q575.875,74.2793,575.875,74.416Q575.875,75.3594,576.395,75.9541Q576.914,76.5488,577.734,76.5488Q578.377,76.5488,578.979,76.1455Q579.58,75.7422,580.264,74.8809ZM575.889,73.8418Q577.365,73.1855,578.158,72.3789Q578.691,71.832,579.02,71.2031Q579.348,70.5742,579.348,70.0684Q579.348,69.4258,578.76,69.4258Q577.871,69.4258,576.962,70.8271Q576.053,72.2285,575.889,73.8418ZM588.595,74.9492Q587.761,76.125,586.975,76.66499999999999Q586.189,77.2051,585.232,77.2051Q584.179,77.2051,583.516,76.4668Q582.853,75.7285,582.853,74.5527Q582.853,73.3223,583.496,72.0508Q584.138,70.7793,585.143,69.9453Q586.148,69.1113,587.078,69.1113Q587.707,69.1113,588.089,69.46000000000001Q588.472,69.8086,588.472,70.3965Q588.472,70.9297,588.069,71.41499999999999Q587.666,71.9004,587.201,71.9004Q586.996,71.9004,586.832,71.7363Q587.72,71.3398,587.72,70.2598Q587.72,69.877,587.522,69.66499999999999Q587.324,69.4531,586.996,69.4531Q586.49,69.4531,585.977,69.8633Q585.464,70.2734,585.013,71.00489999999999Q584.562,71.7363,584.309,72.5635Q584.056,73.3906,584.056,74.2383Q584.056,75.25,584.535,75.8789Q585.013,76.5078,585.793,76.5078Q586.463,76.5078,587.091,76.084Q587.72,75.6602,588.404,74.7852L588.595,74.9492ZM593.55,69.6992L592.511,74.252Q592.347,75.0039,592.347,75.3184Q592.347,75.8105,592.579,76.1113Q592.812,76.4121,593.195,76.4121Q593.564,76.4121,593.871,76.2002Q594.179,75.9883,594.808,75.3184L594.972,75.1543L595.177,75.3594Q594.37,76.3438,593.83,76.7471Q593.29,77.1504,592.771,77.1504Q592.114,77.1504,591.725,76.7197Q591.335,76.2891,591.335,75.5918Q591.335,75.0723,591.54,74.0879L592.429,69.6992L591.116,69.6992L591.212,69.2344L592.525,69.2344L593.29,65.54297L594.603,65.02344L593.646,69.2344L595.861,69.2344L595.765,69.6992L593.55,69.6992ZM602.393,81.8535L603.063,80.9512Q603.856,81.7988,604.854,81.7988Q605.907,81.7988,606.549,80.9648Q607.192,80.1309,607.602,78.2305L608.231,75.4004Q606.727,77.1641,605.51,77.1641Q604.799,77.1641,604.396,76.7266Q603.993,76.2891,603.993,75.5508Q603.993,75.0586,604.116,74.4707L605.045,69.5625L606.371,69.002L605.045,74.5117Q604.881,75.1816,604.881,75.5098Q604.881,75.9746,605.161,76.26859999999999Q605.442,76.5625,605.907,76.5625Q606.412,76.5625,607.021,76.1182Q607.629,75.6738,608.381,74.7852L609.557,69.5625L610.842,69.002L608.846,77.041Q608.491,78.4902,608.169,79.3105Q607.848,80.1309,607.424,80.6777Q606.084,82.4004,604.157,82.4004Q603.036,82.4004,602.393,81.8535ZM613.186,74.375Q613.186,73.1445,613.849,71.9209Q614.512,70.6973,615.564,69.9316Q616.617,69.166,617.711,69.166Q618.859,69.166,619.563,69.9248Q620.268,70.6836,620.268,71.8867Q620.268,73.1992,619.618,74.4297Q618.969,75.6602,617.909,76.44630000000001Q616.85,77.2324,615.77,77.2324Q614.607,77.2324,613.896,76.44630000000001Q613.186,75.6602,613.186,74.375ZM619.037,71.3672Q619.037,70.5469,618.634,70.0137Q618.23,69.4805,617.602,69.4805Q617.027,69.4805,616.501,69.8496Q615.975,70.2188,615.537,70.9297Q615.045,71.75,614.724,72.8438Q614.402,73.9375,614.402,74.7852Q614.402,75.7969,614.799,76.3438Q615.195,76.8906,615.934,76.8906Q617.123,76.8906,618.025,75.2363Q618.49,74.3887,618.764,73.3359Q619.037,72.2832,619.037,71.3672ZM625.564,69.002L624.238,74.293Q624.06,75.0039,624.06,75.4961Q624.06,75.9746,624.361,76.2617Q624.662,76.5488,625.14,76.5488Q626.302,76.5488,627.56,74.6484L627.615,74.5664Q627.642,74.4297,627.656,74.3477L628.517,69.5625L629.857,69.002L628.654,73.5Q628.353,74.6074,628.353,75.2773Q628.353,75.7148,628.503,75.9883Q628.654,76.2617,628.9,76.2617Q629.324,76.2617,630.253,75.25L630.472,75.4414L630.336,75.5918Q629.556,76.5078,629.187,76.8291Q628.818,77.1504,628.503,77.1504Q628.08,77.1504,627.786,76.7197Q627.492,76.2891,627.492,75.6465Q627.492,75.4414,627.505,75.2637Q626.084,77.1504,624.689,77.1504Q623.992,77.1504,623.575,76.7471Q623.158,76.3438,623.158,75.6738Q623.158,75.1543,623.308,74.4023L624.238,69.5625L625.564,69.002ZM644.005,57.736328L640.409,73.5L640.286,74.0332Q640.108,74.7852,640.108,75.3047Q640.108,75.7285,640.265,75.99510000000001Q640.423,76.2617,640.655,76.2617Q641.079,76.2617,642.009,75.25L642.227,75.4414L642.091,75.5918Q641.311,76.5078,640.942,76.8291Q640.573,77.1504,640.259,77.1504Q639.848,77.1504,639.541,76.69239999999999Q639.233,76.2344,639.233,75.6465Q639.233,75.2363,639.411,74.3477L642.569,58.433594L644.005,57.736328ZM647.442,63.64258Q647.797,63.64258,648.016,63.86133Q648.235,64.08008,648.235,64.43555Q648.235,64.77734,648.002,65.00977Q647.77,65.24219,647.442,65.24219Q647.127,65.24219,646.881,64.99609Q646.635,64.75,646.635,64.43555Q646.635,64.10742,646.868,63.875Q647.1,63.64258,647.442,63.64258ZM647.045,69.002L645.842,73.5Q645.541,74.6074,645.541,75.2773Q645.541,75.7148,645.692,75.9883Q645.842,76.2617,646.088,76.2617Q646.512,76.2617,647.442,75.25L647.661,75.4414L647.524,75.5918Q646.745,76.5078,646.375,76.8291Q646.006,77.1504,645.692,77.1504Q645.268,77.1504,644.974,76.7197Q644.68,76.2891,644.68,75.6465Q644.68,75.2363,644.844,74.3477L645.705,69.5625L647.045,69.002ZM654.83,57.736328L651.111,73.9102Q651.426,73.1719,651.863,72.4883Q652.301,71.8047,652.861,71.1553Q653.422,70.5059,653.941,70.0957Q654.611,69.5625,655.288,69.3027Q655.965,69.043,656.812,69.002L656.566,70.0957Q656.156,70.0137,655.951,70.0137Q654.338,70.0137,652.943,71.6406Q653.504,73.1445,654.133,74.3477Q654.488,75.0449,654.755,75.4619Q655.021,75.8789,655.247,76.0703Q655.473,76.2617,655.691,76.2617Q656.211,76.2617,657.004,75.4277L657.113,75.3047L657.291,75.5098Q655.91,77.1777,655.281,77.1777Q654.857,77.1777,654.488,76.8086Q654.119,76.4395,653.627,75.5371Q652.766,73.9648,652.219,72.5566Q650.934,74.6758,650.578,76.8359L649.689,77.123L653.353,58.433594L654.83,57.736328ZM664.843,74.8809L665.089,75.0859Q664.242,76.207,663.435,76.70609999999999Q662.628,77.2051,661.699,77.2051Q660.591,77.2051,659.921,76.4668Q659.251,75.7285,659.251,74.5117Q659.251,73.2812,659.901,72.0166Q660.55,70.752,661.528,69.9248Q662.505,69.0977,663.462,69.0977Q664.023,69.0977,664.385,69.4258Q664.748,69.7539,664.748,70.2734Q664.748,71.3262,663.599,72.3789Q662.451,73.4316,660.468,74.1699Q660.455,74.2793,660.455,74.416Q660.455,75.3594,660.974,75.9541Q661.494,76.5488,662.314,76.5488Q662.957,76.5488,663.558,76.1455Q664.16,75.7422,664.843,74.8809ZM660.468,73.8418Q661.945,73.1855,662.738,72.3789Q663.271,71.832,663.599,71.2031Q663.927,70.5742,663.927,70.0684Q663.927,69.4258,663.339,69.4258Q662.451,69.4258,661.542,70.8271Q660.632,72.2285,660.468,73.8418Z" fill="#000000" fill-opacity="1"/></g></g></svg>