<svg xmlns="http://www.w3.org/2000/svg" xmlns:xlink="http://www.w3.org/1999/xlink" fill="none" version="1.1" width="111" height="65" viewBox="0 0 111 65"><g><path d="M17.0514,12.3135Q16.8404,12.6826,16.3922,12.8936Q16.2867,12.9727,16.1813,12.9727L22.984,13.9746L22.984,8.41113L29.7867,9.07031Q29.734,9.49219,29.4176,9.82178Q29.1012,10.1514,28.2838,10.3096L28.2838,24.416L30.024,24.416L30.024,13.1309L36.484,13.7109Q36.4313,14.1064,36.1412,14.4229Q35.8512,14.7393,35.0865,14.8447L35.0865,25.8662Q35.0865,26.0244,34.4405,26.3276Q33.7945,26.6309,32.8717,26.8418Q32.107,27.0527,31.3688,27.1055Q32.107,27.8174,33.1354,28.7402Q34.1637,29.7422,34.9283,30.6123Q34.7174,31.4824,33.5309,31.4824L16.2867,31.4824L15.8648,29.9795L28.1256,29.9795L30.0768,27.1055L30.024,27.1055L30.024,25.9189L21.4283,25.9189L20.1363,27.5273L15.1529,25.2598Q15.5484,24.7852,16.0758,24.2578L16.0758,23.7568Q15.9176,23.7568,15.7594,23.7568Q14.0719,26.0244,11.8043,28.6611Q11.4352,29.1094,11.1188,29.4785L15.3902,31.1133Q15.1529,31.7988,13.7027,32.1416L13.7027,56.874Q13.7027,57.1377,12.9513,57.7046Q12.1998,58.2715,10.9869,58.7329Q9.77402,59.1943,8.3502,59.1943L7.11094,59.1943L7.11094,33.6973Q6.95274,33.8555,6.79453,33.9609Q4.10508,36.624,1.07285,38.7598L0.519142,38.2324Q2.41758,35.3057,4.19736,31.7461Q5.97715,28.1865,7.38779,24.6797Q8.79844,21.1729,9.58945,18.5889L16.0758,22.043L16.0758,13.0254Q15.6539,13.0781,14.942,13.0254Q13.3863,14.6338,11.3033,16.4927Q9.22031,18.3516,6.79453,20.105Q4.36875,21.8584,1.7584,23.2822L1.28379,22.7285Q2.89219,20.5664,4.43467,17.8638Q5.97715,15.1611,7.21641,12.498Q8.45567,9.83496,9.16758,7.77832L17.0514,12.3135ZM47.2945,16.5322L48.3229,17.2705Q49.2984,18.0352,50.6959,19.1162Q52.0934,20.1973,53.2271,21.2256Q53.0162,22.0957,51.777,22.0957L50.3268,22.0957Q49.8258,27.8701,48.692,33.0381Q47.4,38.8389,44.816,43.7432Q44.6578,44.0068,44.4732,44.3232Q45.7916,46.1689,47.2945,47.7246Q49.9313,50.5459,53.4908,52.6025L53.3326,53.1299Q50.8541,53.7363,49.4303,55.2129Q48.0064,56.6895,47.4,59.1943Q43.7877,55.6611,41.7311,50.4932Q41.4146,49.834,41.1773,49.1484Q39.6744,50.9678,37.8551,52.6025Q33.4781,56.5312,26.7809,59.4053L26.3326,58.7988Q31.4742,55.3447,34.8229,51.126Q37.6705,47.5664,39.5162,43.5322Q39.0416,41.3174,38.6461,38.8916Q38.1188,35.0947,37.7232,31.0605Q36.2203,33.6445,34.3746,35.8066L33.6363,35.4111Q34.8756,31.7461,35.8512,27.2373Q36.8268,22.7285,37.4728,17.7847Q38.1188,12.8408,38.277,8.04199L46.6354,9.49219Q46.3717,10.7051,44.6578,10.8633Q43.6822,15.9258,42.2584,20.4609Q42.2057,20.5137,42.2057,20.5664L44.0514,20.5664L47.2945,16.5322ZM17.526,33.2227L24.5133,35.7012L27.15,35.7012L29.6813,33.1436L34.6646,37.3096Q34.4273,37.5732,33.9,37.8633Q33.4781,38.0742,32.8189,38.2324L32.8189,46.4326Q34.8229,45.6943,36.8795,44.877L37.0904,45.457Q36.4313,46.2744,35.2184,47.6587Q34.0055,49.043,32.4498,50.6514Q31.4742,51.7324,30.3932,52.7607Q29.6285,54.2637,28.7057,54.8174L25.0934,48.8584Q26.2799,48.1201,26.5831,47.6323Q26.8863,47.1445,26.8863,46.3799L26.8863,37.2041L23.5904,37.2041L23.5904,39.6299Q23.5904,41.4756,23.2872,43.8223Q22.984,46.1689,22.048,48.7134Q21.1119,51.2578,19.2135,53.6045Q17.315,55.9512,14.1246,57.7705L13.65,57.2959Q15.4957,54.5273,16.2999,51.4292Q17.1041,48.3311,17.315,45.2856Q17.526,42.2402,17.526,39.6299L17.526,33.2227ZM41.4146,38.5488Q42.3902,35.4111,42.9703,32.0098Q43.735,27.2637,43.9459,22.0957L41.7311,22.0957Q40.4918,25.7607,38.857,28.8984Q38.7516,29.1094,38.6988,29.2676Q39.0943,31.377,39.6217,33.3809Q40.3863,36.123,41.4146,38.5488ZM21.1646,19.4326L21.1646,24.416L22.984,24.416L22.984,14.5283Q22.8785,14.6865,22.7203,14.792Q22.2457,15.1084,21.1646,15.293L21.1646,19.4326ZM96.7436,40.6582L100.224,36.9404L107.238,42.2402Q107.027,42.5566,106.513,42.8994Q105.998,43.2422,105.128,43.4268L105.128,56.373Q105.128,56.584,104.047,57.0718Q102.966,57.5596,101.476,57.9683Q99.9867,58.377,98.642,58.377L97.2973,58.377L97.2973,54.2637L85.3529,54.2637L85.3529,56.6895Q85.3529,57.0322,84.3905,57.5991Q83.4281,58.166,81.912,58.6274Q80.3959,59.0889,78.7611,59.0889L77.7065,59.0889L77.7065,37.5732L85.7484,40.6582L96.7436,40.6582ZM78.0229,10.626Q77.8647,11.1797,77.3241,11.5093Q76.7836,11.8389,75.808,11.8389Q73.8041,17.6133,71.2201,22.3066Q71.0092,22.6758,70.7719,23.0449L73.5404,24.0732Q73.435,24.4688,73.0526,24.7324Q72.6703,24.9961,71.8529,25.1543L71.8529,56.9268Q71.8002,57.1904,70.8642,57.731Q69.9281,58.2715,68.5175,58.7065Q67.1068,59.1416,65.6039,59.1416L64.1273,59.1416L64.1273,32.1943Q61.4379,35.1475,58.3002,37.5205L57.7201,37.1514Q59.724,33.4863,61.5829,28.6743Q63.4418,23.8623,64.9579,18.4438Q66.474,13.0254,67.265,7.62012L78.0229,10.626ZM97.2973,52.7607L97.2973,42.1611L85.3529,42.1611L85.3529,52.7607L97.2973,52.7607ZM103.441,13.0254L104.153,13.5527Q104.865,14.1592,105.919,15.0688Q106.974,15.9785,108.134,16.9805Q109.294,17.9824,110.191,18.8525Q109.98,19.7227,108.688,19.7227L74.226,19.7227L73.8041,18.1934L99.6703,18.1934L103.441,13.0254ZM84.9311,7.56738Q89.308,7.67285,91.7865,8.70117Q94.265,9.72949,95.2406,11.1797Q96.2162,12.6299,96.0316,14.0933Q95.8471,15.5566,94.766,16.585Q93.685,17.6133,92.0898,17.7451Q90.4945,17.877,88.7016,16.6377Q88.5434,15.0029,87.9237,13.3813Q87.3041,11.7598,86.4472,10.3359Q85.5902,8.91211,84.6147,7.83105L84.9311,7.56738ZM100.593,21.0146L101.226,21.542Q101.832,22.0957,102.808,22.8999Q103.784,23.7041,104.838,24.6533Q105.893,25.6025,106.737,26.3936Q106.579,27.2637,105.234,27.2637L77.4691,27.2637L77.0473,25.7607L97.1391,25.7607L100.593,21.0146ZM100.488,28.9512L102.755,30.8232Q103.731,31.6406,104.786,32.5898Q105.84,33.5391,106.684,34.3564Q106.473,35.2002,105.181,35.2002L77.9174,35.2002L77.4691,33.6973L97.0336,33.6973L100.488,28.9512Z" fill="#060606" fill-opacity="1"/></g></svg>