<svg xmlns="http://www.w3.org/2000/svg" xmlns:xlink="http://www.w3.org/1999/xlink" fill="none" version="1.1" width="168" height="65" viewBox="0 0 168 65"><g><path d="M6.99727,28.6611L23.0285,28.6611L23.0285,19.2217L3.33223,19.2217L2.88399,17.7188L23.0285,17.7188L23.0285,7.88379L32.9689,8.64844Q32.9162,9.22852,32.5339,9.63721Q32.1516,10.0459,31.0178,10.2041L31.0178,17.7188L39.8772,17.7188L44.2014,12.208L45.0188,12.7881Q45.757,13.3945,47.0095,14.3438Q48.2619,15.293,49.5803,16.374Q50.8986,17.4551,52.0324,18.3516Q51.8215,19.2217,50.424,19.2217L31.0178,19.2217L31.0178,28.6611L34.8147,28.6611L39.4025,24.4688L46.3635,31.0605Q46.0471,31.5352,45.5065,31.7197Q44.966,31.9043,43.8322,32.0098Q39.6662,39.7354,32.8635,45.6416Q37.0295,47.5664,41.6174,48.8584Q47.3918,50.5459,53.3244,51.4688L53.2189,52.1016Q50.5822,52.6553,48.8288,54.4351Q47.0754,56.2148,46.258,59.0098Q38.6906,56.7949,32.5471,53.1299Q29.9367,51.5742,27.6164,49.623Q17.465,56.4258,2.04024,58.957L1.7502,58.377Q9.97676,55.4502,16.7268,51.0205Q20.4445,48.542,23.635,45.6943Q22.7648,44.7188,21.9475,43.6377Q17.8078,38.127,15.4084,30.1904L7.47188,30.1904L6.99727,28.6611ZM16.4367,30.1904Q18.4934,34.6729,21.842,38.0215Q24.215,40.4473,27.0363,42.3457Q27.6164,41.6338,28.2756,40.9219Q32.5471,35.9121,35.0256,30.1904L16.4367,30.1904ZM74.2178,22.4121L93.5449,22.4121L93.5449,8.5957L103.644,9.49219Q103.591,10.0986,103.169,10.481Q102.747,10.8633,101.719,11.0215L101.719,21.4893L104.619,16.9014L105.278,17.5078Q105.911,18.1406,106.887,19.0898Q107.862,20.0391,108.943,21.0938Q110.024,22.1484,110.842,23.0449Q110.631,23.915,109.339,23.915L101.719,23.915L101.719,49.7812Q101.719,52.4971,101.007,54.4087Q100.295,56.3203,98.001,57.4541Q95.707,58.5879,91.0137,59.0098Q90.8027,56.9795,90.394,55.5688Q89.9854,54.1582,89.0757,53.2485Q88.166,52.3389,86.8345,51.6533Q85.5029,50.9678,82.708,50.4404L82.708,49.7812L83.5254,49.834Q84.3164,49.8867,85.5952,49.9395Q86.874,49.9922,88.2188,50.0581Q89.5635,50.124,90.6709,50.1768Q91.7783,50.2295,92.2529,50.2295Q93.0176,50.2295,93.2812,49.979Q93.5449,49.7285,93.5449,49.2012L93.5449,23.915L74.666,23.915L74.2178,22.4121ZM68.5488,7.77832L78.9111,10.8633Q78.7002,11.3906,78.1597,11.7202Q77.6191,12.0498,76.7227,11.9971Q74.6133,17.5605,71.8975,22.043Q71.3174,22.9922,70.7109,23.8623L74.165,25.1016Q74.0596,25.4971,73.6772,25.7607Q73.2949,26.0244,72.5039,26.1826L72.5039,57.0322Q72.4512,57.2959,71.502,57.8101Q70.5527,58.3242,69.1289,58.7593Q67.7051,59.1943,66.123,59.1943L64.6729,59.1943L64.6729,31.4297Q61.9043,34.1719,58.7402,36.4395L58.1338,36.0703Q60.2959,32.6162,62.3262,28.0283Q64.3564,23.4404,65.9912,18.2329Q67.626,13.0254,68.5488,7.77832ZM77.6191,28.3447Q82.1543,29.584,84.7778,31.4297Q87.4014,33.2754,88.4561,35.2397Q89.5107,37.2041,89.4053,38.9575Q89.2998,40.7109,88.2715,41.8184Q87.2432,42.9258,85.6743,43.0049Q84.1055,43.084,82.3916,41.6865Q82.1016,39.4189,81.2974,37.0986Q80.4932,34.7783,79.4121,32.5898Q78.3311,30.4014,77.1445,28.6084L77.6191,28.3447ZM155.808,17.2705L159.658,13.3945L166.408,19.7227Q166.039,20.0918,165.604,20.1973Q165.169,20.3027,164.246,20.4082Q162.743,21.5947,160.423,22.9922Q158.63,24.0732,157.074,24.8379Q157.918,25.5498,158.841,26.2354Q159.974,27.2109,160.95,28.0283Q160.739,28.8984,159.447,28.8984L144.576,28.8984L144.576,39.4189L149.823,39.4189L153.435,34.7783L154.147,35.2529Q154.806,35.8066,155.848,36.6108Q156.889,37.415,158.023,38.3379Q159.157,39.2607,160.08,40.0781Q159.869,40.9219,158.577,40.9219L144.576,40.9219L144.576,54.8701L155.492,54.8701L159.289,49.9395L159.974,50.4932Q160.686,51.0205,161.741,51.8906Q162.796,52.7607,163.982,53.71Q165.169,54.6592,166.144,55.5029Q165.907,56.373,164.562,56.373L116.389,56.373L115.968,54.8701L136.587,54.8701L136.587,40.9219L123.377,40.9219L122.929,39.4189L136.587,39.4189L136.587,28.8984L121.953,28.8984L121.531,27.3691L150.429,27.3691L154.147,22.623L154.859,23.124Q155.281,23.4404,155.808,23.8623Q155.94,23.2295,156.046,22.4648Q156.151,21.0674,156.257,19.6436Q156.309,19.2217,156.309,18.7998L124.405,18.7998Q124.458,19.3799,124.511,19.9336Q124.669,22.623,123.825,24.4819Q122.981,26.3408,121.531,27.2109Q120.503,27.8174,119.132,27.7119Q117.761,27.6064,116.6,26.7891Q115.44,25.9717,114.992,24.5215Q114.465,22.4648,115.519,20.9751Q116.574,19.4854,118.235,18.7998Q119.105,18.3516,120.081,17.6001Q121.056,16.8486,121.729,15.873Q122.401,14.8975,122.348,13.8691L122.876,13.8691Q123.64,15.6621,124.062,17.2705L140.278,17.2705Q139.25,16.9541,138.221,16.1895Q138.274,13.9219,137.351,11.7729Q136.429,9.62402,134.873,8.25293L135.137,7.98926Q139.777,7.72559,142.348,8.58252Q144.919,9.43945,145.855,10.9028Q146.791,12.3662,146.474,13.856Q146.158,15.3457,144.971,16.374Q144.26,17.0068,143.337,17.2705L155.808,17.2705ZM147.45,42.3984Q151.405,42.873,153.554,44.0596Q155.703,45.2461,156.468,46.6831Q157.232,48.1201,156.903,49.4385Q156.573,50.7568,155.492,51.6006Q154.411,52.4443,152.934,52.418Q151.458,52.3916,149.876,51.126Q149.876,49.5703,149.467,48.0278Q149.058,46.4854,148.412,45.1143Q147.766,43.7432,147.028,42.6621L147.45,42.3984Z" fill="#060606" fill-opacity="1"/></g></svg>