<svg xmlns="http://www.w3.org/2000/svg" xmlns:xlink="http://www.w3.org/1999/xlink" fill="none" version="1.1" width="264" height="77" viewBox="0 0 264 77"><g><g><path d="M42.8125,64.3125Q42.8125,64.5625,41.0469,65.2031Q39.2812,65.8438,36.1562,65.8438L34.625,65.8438L34.625,48.4375L30.0938,48.4375L30.0938,65.4688Q30.0312,65.6562,28.2969,66.3281Q26.5625,67,23.4375,67L21.9375,67L21.9375,48.4375L17.5938,48.4375L17.5938,67.4062Q17.5938,67.7812,16.5156,68.3906Q15.4375,69,13.7656,69.5156Q12.0938,70.0312,10.375,70.0312L9.15625,70.0312L9.15625,43.1875L18.1875,46.6562L24.9062,46.6562Q25.0938,45.3125,25.3438,43.6562Q25.4688,42.625,25.5938,41.7188L3.71875,41.7188L3.1875,39.9375L49.7188,39.9375L53.9375,34.875L55.2812,35.8438Q56.5625,36.8125,58.3594,38.1562Q60.1562,39.5,61.625,40.7188Q61.375,41.7188,59.8438,41.7188L35.5938,41.7188Q35.0625,42.1875,34.625,42.5625Q32.9688,44.0312,31.2188,45.375Q30.4062,46.0938,29.5625,46.6562L46.8438,46.6562L50.5625,42.5L58.5625,48.4375Q58.3125,48.8438,57.7031,49.2188Q57.0938,49.5938,56.125,49.7812L56.125,60.75Q56.125,63.5625,55.5156,65.5781Q54.9062,67.5938,52.8906,68.7344Q50.875,69.875,46.7188,70.2812Q46.6562,68.1562,46.5312,66.625Q46.4062,65.0938,46.0312,64.125Q45.5625,63.1562,44.875,62.4688Q44.1562,61.8125,42.8125,61.5L42.8125,64.3125ZM36.2188,36.2812Q36.2188,36.5312,34.2656,37.2812Q32.3125,38.0312,28.8125,38.0312L27.125,38.0312L27.125,23.2188L9.96875,23.2188Q10.1875,24,10.3125,24.7188Q10.625,27.8438,9.82812,29.9844Q9.03125,32.125,7.5,33.1562Q5.8125,34.1875,3.76562,33.6094Q1.71875,33.0312,1.03125,30.9688Q0.4375,29,1.40625,27.5625Q2.375,26.125,4.03125,25.2812Q5.3125,24.3125,6.4375,22.2344Q7.5625,20.1562,7.15625,17.8438L7.9375,17.7812Q8.90625,19.7188,9.53125,21.4375L27.125,21.4375L27.125,16L9.15625,16L8.625,14.2188L45.3125,14.2188L49.6562,8.71875L50.5,9.28125Q51.25,9.90625,52.5,10.875Q53.75,11.8438,55.0938,12.9375Q56.4375,14.0312,57.5938,14.9688Q57.3438,16,55.8125,16L36.2188,16L36.2188,21.4375L51.9688,21.4375L56.1875,17.1562L63.5625,24.125Q62.9062,24.9062,61.0625,24.9688Q59.4688,26.6875,57,28.7969Q54.5312,30.9062,52.2812,32.3125L51.7812,31.9375Q52.0312,30.4062,52.1875,28.4844Q52.3438,26.5625,52.4688,24.625Q52.5312,23.9375,52.5312,23.2188L36.2188,23.2188L36.2188,36.2812ZM42.8125,60.6875L43.4688,60.6875Q44.2188,60.75,45.1562,60.8125Q46.0938,60.875,46.5312,60.875Q47.5,60.875,47.5,59.8438L47.5,48.4375L42.8125,48.4375L42.8125,60.6875ZM25.1562,32.9688L25.1562,34.75L13.0625,34.75L13.0625,32.9688L25.1562,32.9688ZM49.7188,33.0312L49.7188,34.8125L38.2812,34.8125L38.2812,33.0312L49.7188,33.0312ZM24.9688,27.25L24.9688,29.0625L14.0938,29.0625L14.0938,27.25L24.9688,27.25ZM48.8438,27.3125L48.8438,29.125L38.2812,29.125L38.2812,27.3125L48.8438,27.3125ZM74.4975,33.9688L93.4975,33.9688L93.4975,22.7812L70.1537,22.7812L69.6225,21L93.4975,21L93.4975,9.34375L105.279,10.25Q105.216,10.9375,104.763,11.4219Q104.31,11.9062,102.966,12.0938L102.966,21L113.466,21L118.591,14.4688L119.56,15.1562Q120.435,15.875,121.919,17Q123.404,18.125,124.966,19.4062Q126.529,20.6875,127.872,21.75Q127.622,22.7812,125.966,22.7812L102.966,22.7812L102.966,33.9688L107.466,33.9688L112.904,29L121.154,36.8125Q120.779,37.375,120.138,37.5938Q119.497,37.8125,118.154,37.9375Q113.216,47.0938,105.154,54.0938Q110.091,56.375,115.529,57.9062Q122.372,59.9062,129.404,61L129.279,61.75Q126.154,62.4062,124.076,64.5156Q121.997,66.625,121.029,69.9375Q112.06,67.3125,104.779,62.9688Q101.685,61.125,98.935,58.8125Q86.9037,66.875,68.6225,69.875L68.2787,69.1875Q78.0287,65.7188,86.0287,60.4688Q90.435,57.5312,94.2162,54.1562Q93.185,53,92.2162,51.7188Q87.31,45.1875,84.4662,35.7812L75.06,35.7812L74.4975,33.9688ZM85.685,35.7812Q88.1225,41.0938,92.0912,45.0625Q94.9037,47.9375,98.2475,50.1875Q98.935,49.3438,99.7162,48.5Q104.779,42.5625,107.716,35.7812L85.685,35.7812ZM153.526,26.5625L176.432,26.5625L176.432,10.1875L188.401,11.25Q188.339,11.9688,187.839,12.4219Q187.339,12.875,186.12,13.0625L186.12,25.4688L189.557,20.0312L190.339,20.75Q191.089,21.5,192.245,22.625Q193.401,23.75,194.682,25Q195.964,26.25,196.932,27.3125Q196.682,28.3438,195.151,28.3438L186.12,28.3438L186.12,59Q186.12,62.2188,185.276,64.4844Q184.432,66.75,181.714,68.0938Q178.995,69.4375,173.432,69.9375Q173.182,67.5312,172.698,65.8594Q172.214,64.1875,171.136,63.1094Q170.057,62.0312,168.479,61.2188Q166.901,60.4062,163.589,59.7812L163.589,59L164.557,59.0625Q165.495,59.125,167.011,59.1875Q168.526,59.25,170.12,59.3281Q171.714,59.4062,173.026,59.4688Q174.339,59.5312,174.901,59.5312Q175.807,59.5312,176.12,59.2344Q176.432,58.9375,176.432,58.3125L176.432,28.3438L154.057,28.3438L153.526,26.5625ZM146.807,9.21875L159.089,12.875Q158.839,13.5,158.198,13.8906Q157.557,14.2812,156.495,14.2188Q153.995,20.8125,150.776,26.125Q150.089,27.25,149.37,28.2812L153.464,29.75Q153.339,30.2188,152.886,30.5312Q152.432,30.8438,151.495,31.0312L151.495,67.5938Q151.432,67.9062,150.307,68.5156Q149.182,69.125,147.495,69.6406Q145.807,70.1562,143.932,70.1562L142.214,70.1562L142.214,37.25Q138.932,40.5,135.182,43.1875L134.464,42.75Q137.026,38.6562,139.432,33.2188Q141.839,27.7812,143.776,21.6094Q145.714,15.4375,146.807,9.21875ZM157.557,33.5938Q162.932,35.0625,166.042,37.25Q169.151,39.4375,170.401,41.7656Q171.651,44.0938,171.526,46.1719Q171.401,48.25,170.182,49.5625Q168.964,50.875,167.104,50.9688Q165.245,51.0625,163.214,49.4062Q162.87,46.7188,161.917,43.9688Q160.964,41.2188,159.682,38.625Q158.401,36.0312,156.995,33.9062L157.557,33.5938ZM217.992,62.6562Q215.242,62.6562,213.321,60.7656Q211.399,58.875,211.399,56.25Q211.399,53.5,213.321,51.5469Q215.242,49.5938,217.992,49.5938Q220.805,49.5938,222.696,51.5469Q224.586,53.5,224.586,56.25Q224.586,58.875,222.696,60.7656Q220.805,62.6562,217.992,62.6562ZM217.992,38.4688Q215.242,38.4688,213.321,36.5781Q211.399,34.6875,211.399,32Q211.399,29.3125,213.321,27.3594Q215.242,25.4062,217.992,25.4062Q220.805,25.4062,222.696,27.3594Q224.586,29.3125,224.586,32Q224.586,34.6875,222.696,36.5781Q220.805,38.4688,217.992,38.4688Z" fill="#000000" fill-opacity="1"/></g></g></svg>