<svg xmlns="http://www.w3.org/2000/svg" xmlns:xlink="http://www.w3.org/1999/xlink" fill="none" version="1.1" width="1024" height="91" viewBox="0 0 1024 91"><g><g><path d="M354.896,4.52L357.152,2.696L360.8,6.008L358.88,7.88L350.24,7.88L350.24,10.808L354.32,10.808L356.576,8.936L360.272,12.248L358.304,14.168L350.24,14.168L350.24,17.144L355.664,17.144L357.92,15.272L361.616,18.584L359.648,20.504L332.096,20.504L331.28,17.144L342.704,17.144L342.704,14.168L334.64,14.168L333.824,10.808L342.704,10.808L342.704,7.88L332.48,7.88L331.664,4.52L342.704,4.52L342.704,0.776001L350.24,1.736L350.24,4.52L354.896,4.52ZM334.928,21.272L341.936,22.088L341.936,23.288L351.728,23.288L354.704,20.696L360.56,25.064L359.216,26.936L359.216,42.008Q359.216,46.328,354.944,46.328L351.152,46.328Q351.152,43.304,346.256,43.304L346.304,40.328Q348.704,40.232,350.816,40.232Q351.872,40.232,351.872,39.08L351.872,38.216L341.936,38.216L341.936,45.656L334.928,46.568L334.928,21.272ZM351.872,34.76L351.872,32.408L341.936,32.408L341.936,34.76L351.872,34.76ZM351.872,28.952L351.872,26.648L341.936,26.648L341.936,28.952L351.872,28.952ZM320.768,2.216Q326.384,4.712,329.84,7.928L324.992,13.4Q321.776,9.368,317.648,6.104L320.768,2.216ZM321.632,17.768L324.992,14.216L331.184,19.064L328.784,20.984L328.784,35.096Q330.512,34.376,332.24,33.512L333.968,37.112Q329.84,41.432,323.984,45.56L320.432,38.024Q321.296,37.784,322.16,37.496L322.16,25.208L322.064,25.208L322.064,21.8L317.984,21.8L317.024,17.768L321.632,17.768ZM392.336,2.552L399.2,4.616Q398.432,6.344,397.616,7.784L399.824,7.784L399.824,1.64L407.456,2.6L407.456,7.784L409.088,7.784L411.824,5.288L416.432,9.32L414.272,11.432L407.456,11.432L407.456,16.424L411.248,16.424L413.984,13.976L418.544,18.008L416.384,20.168L410.672,20.168L410.672,29.144Q410.672,30.008,411.152,30.008L412.112,30.008Q413.072,30.008,413.216,29.432L414.08,25.592L416.72,25.976Q416.672,27.032,416.672,27.8Q416.672,30.92,419.36,31.976Q417.92,35.96,414.08,35.96L408.128,35.96Q404,35.96,403.76,31.352L403.76,20.168L400.736,20.168L400.736,22.568Q400.736,32.072,389.936,36.44L388.064,33.8Q393.824,29.288,393.824,21.848L393.824,20.168L388.784,20.168L387.824,16.424L399.824,16.424L399.824,11.432L395.264,11.432Q393.392,13.976,391.376,15.704L388.4,14.072Q391.328,8.552,392.336,2.552ZM379.376,3.416Q384.992,6.536,388.352,9.704L382.544,15.608Q379.52,9.992,376.112,6.44L379.376,3.416ZM379.52,20.648L382.784,17.672L388.976,22.616L386.96,24.632L386.96,34.04Q387.632,38.456,393.632,38.456L419.696,38.456L417.632,44.936L393.872,44.936Q386.912,44.936,383.168,38.504Q382.16,41.24,378.416,46.28L373.952,40.616Q379.712,35.48,379.712,33.848L379.712,24.248L375.392,24.248L374.48,20.648L379.52,20.648ZM468.272,24.632L470.624,22.664L474.512,26.12L472.496,28.088L465.44,28.088L465.44,32.984L469.376,32.984L472.208,30.296L476.768,34.424L474.8,36.44L465.44,36.44L465.44,44.984L457.568,45.992L457.568,36.44L447.536,36.44L446.672,32.984L457.568,32.984L457.568,28.088L450.464,28.088L449.6,24.632L457.568,24.632L457.568,20.072Q453.536,21.368,448.736,21.704L447.584,18.44Q453.968,17,457.616,15.08Q454.064,12.008,451.52,7.64L449.216,7.64L448.4,4.088L466.88,4.088L469.616,1.448L476.624,6.536L473.792,7.496Q471.344,11.432,468.32,14.168Q471.776,15.128,477.056,15.368L474.704,21.8Q467.648,21.128,462.272,18.248Q460.832,18.968,459.296,19.496L465.44,20.216L465.44,24.632L468.272,24.632ZM456.128,7.64Q459.2,10.088,462.416,11.768Q464.576,9.848,465.68,7.64L456.128,7.64ZM444.56,10.28L447.104,7.736L451.616,11.768L449.456,13.736L444.272,13.736L444.272,22.04Q446.144,21.368,447.536,20.696L449.024,23.768Q447.152,25.496,444.272,27.32L444.272,40.472Q444.272,46.472,438.896,46.472L435.776,46.472Q435.776,42.392,431.744,42.2L431.984,38.6Q433.904,39.464,435.488,39.464Q436.736,39.464,436.736,38.12L436.736,31.496Q435.296,32.168,433.76,32.888L431.504,25.832Q433.712,25.304,436.736,24.392L436.736,13.736L432.656,13.736L431.744,10.28L436.736,10.28L436.736,1.256L444.272,2.216L444.272,10.28L444.56,10.28ZM527.312,8.264L530.144,5.576L534.704,9.704L532.736,11.672L516.608,11.672L516.608,19.448L521.552,19.448L525.488,16.424L532.736,21.128L529.52,23.72Q526.88,30.584,520.832,35.48Q526.88,37.496,534.704,38.696L529.664,46.184Q520.448,43.592,513.824,40.04Q506.048,43.736,491.936,46.04L489.776,42.344Q500.576,40.088,507.824,36.344Q500.096,30.584,497.6,23L492.944,23L492.128,19.448L507.92,19.448L507.92,11.672L490.928,11.672L490.064,8.264L507.92,8.264L507.92,1.304L516.608,2.408L516.608,8.264L527.312,8.264ZM502.208,23Q506.384,29,513.776,32.552Q519.056,28.376,521.36,23L502.208,23ZM552.32,22.904Q551.12,24.056,550.016,24.824L547.28,22.28Q553.664,13.256,555.968,1.832L564.224,3.224Q562.304,8.792,559.664,13.304L559.664,44.504L552.32,45.32L552.32,22.904ZM576.656,12.584L576.656,1.976L584.72,3.032L584.72,12.056L586.976,10.04L591.584,14.168L589.424,16.328L584.72,16.328L584.72,38.888Q584.72,45.368,578.72,45.368L575.264,45.368Q575.264,41.144,570.032,40.952L570.224,37.736Q573.056,37.784,575.264,37.784Q576.656,37.784,576.656,36.344L576.656,16.328L561.68,16.328L560.768,12.584L576.656,12.584ZM565.52,19.208Q571.424,24.344,574.4,28.184L568.352,33.416Q565.136,26.408,561.776,21.8L565.52,19.208ZM642.368,8.6L645.2,6.008L649.76,10.136L647.648,12.248L623.408,12.248L623.408,19.88L636.128,19.88L639.584,17L646.448,22.232L644.096,24.2Q644.096,28.28,643.76,32.744Q643.28,41.432,640.544,43.544Q638.144,45.8,633.776,45.8L630.176,45.8Q630.176,40.472,624.32,40.328L624.704,37.352Q627.776,38.12,633.248,38.12Q634.4,38.12,634.736,37.016Q635.36,36.2,635.744,31.016Q636.128,27.752,636.128,23.48L623.36,23.48Q622.784,37.304,607.04,45.896L604.64,42.968Q615.248,34.616,615.248,21.656L615.248,12.248L605.6,12.248L604.688,8.6L624.368,8.6Q622.544,5.912,620.672,3.992L624.992,0.919998Q629.84,3.944,632.288,6.248L629.552,8.6L642.368,8.6ZM695.792,2.264Q698.864,4.088,702.32,7.112L696.896,11.048Q694.784,7.4,692.48,4.664L695.792,2.264ZM679.184,21.992L681.824,19.544L686.48,23.672L684.224,25.88L677.648,25.88L677.648,34.376Q681.776,33.32,685.904,32.072L687.728,35.816Q678.704,40.088,666.032,44.12L662.864,37.496Q666.8,36.872,670.688,36.008L670.688,25.88L665.072,25.88L664.016,21.992L679.184,21.992ZM700.256,11.384L703.04,8.84L707.648,12.968L705.488,15.128L692.816,15.128Q693.584,19.352,694.784,23.576Q698.48,35.048,700.784,36.248Q701.552,36.248,703.136,27.944L705.968,29.048Q705.2,31.16,705.2,32.888Q705.2,37.784,706.688,40.52Q705.776,42.872,704.528,44.024Q703.568,45.368,701.216,45.368Q699.248,45.368,696.56,43.352Q694.16,41.336,692.048,37.352Q687.728,28.856,685.472,15.128L663.824,15.128L662.864,11.384L684.896,11.384Q684.272,6.728,683.84,1.592L691.28,2.6Q691.52,6.968,692.192,11.384L700.256,11.384Z" fill="#000000" fill-opacity="1"/></g><g><path d="M373.009,77L374.718,69.1113Q375.156,67.10156,375.422,64.9209Q375.689,62.74023,375.689,60.89453Q375.689,60.4707,375.675,60.14258L377.179,59.45898L377.179,59.8418Q377.179,60.74414,377.015,62.75391Q376.851,64.76367,376.673,65.84375Q377.507,63.88867,378.751,62.21387Q379.995,60.53906,381.301,59.56836Q382.607,58.597656,383.673,58.597656Q384.74,58.597656,385.389,59.45215Q386.038,60.30664,386.038,61.74219Q386.038,63.54688,385.259,65.36523Q384.48,67.18359,383.133,68.7148Q381.786,70.2461,380.18,71.1279Q378.573,72.0098,377.001,72.0098Q376.646,72.0098,376.167,71.9141L376.892,70.9434Q377.562,71.1621,378.259,71.1621Q379.394,71.1621,380.535,70.4033Q381.677,69.6445,382.579,68.2637Q383.413,66.99219,384.001,65.09863Q384.589,63.20508,384.589,61.82422Q384.589,60.67578,384.199,60.0332Q383.81,59.39062,383.113,59.39062Q382.128,59.39062,380.843,60.51855Q379.558,61.64648,378.327,63.57422Q377.439,64.94141,376.844,66.52734Q376.249,68.1133,375.784,70.2051L374.308,77L373.009,77ZM391.554,57.736328L387.958,73.5L387.835,74.0332Q387.657,74.7852,387.657,75.3047Q387.657,75.7285,387.814,75.99510000000001Q387.972,76.2617,388.204,76.2617Q388.628,76.2617,389.557,75.25L389.776,75.4414L389.639,75.5918Q388.86,76.5078,388.491,76.8291Q388.122,77.1504,387.807,77.1504Q387.397,77.1504,387.09,76.69239999999999Q386.782,76.2344,386.782,75.6465Q386.782,75.2363,386.96,74.3477L390.118,58.433594L391.554,57.736328ZM397.452,74.8809L397.698,75.0859Q396.85,76.207,396.043,76.70609999999999Q395.237,77.2051,394.307,77.2051Q393.2,77.2051,392.53,76.4668Q391.86,75.7285,391.86,74.5117Q391.86,73.2812,392.509,72.0166Q393.159,70.752,394.136,69.9248Q395.114,69.0977,396.071,69.0977Q396.631,69.0977,396.994,69.4258Q397.356,69.7539,397.356,70.2734Q397.356,71.3262,396.207,72.3789Q395.059,73.4316,393.077,74.1699Q393.063,74.2793,393.063,74.416Q393.063,75.3594,393.582,75.9541Q394.102,76.5488,394.922,76.5488Q395.565,76.5488,396.166,76.1455Q396.768,75.7422,397.452,74.8809ZM393.077,73.8418Q394.553,73.1855,395.346,72.3789Q395.879,71.832,396.207,71.2031Q396.536,70.5742,396.536,70.0684Q396.536,69.4258,395.948,69.4258Q395.059,69.4258,394.15,70.8271Q393.241,72.2285,393.077,73.8418ZM407.752,68.9199L406.467,73.9238Q406.262,74.7441,406.262,75.209Q406.262,75.6191,406.44,75.9199Q406.617,76.2207,406.877,76.2207Q407.273,76.2207,408.19,75.25L408.381,75.4414L408.231,75.6191Q407.506,76.4531,407.116,76.7881Q406.727,77.123,406.44,77.123Q406.002,77.123,405.681,76.66499999999999Q405.359,76.207,405.359,75.6055Q405.359,75.168,405.688,73.623L405.797,73.1035Q405.291,74.2793,404.443,75.3594Q403.022,77.1641,401.723,77.1641Q400.943,77.1641,400.492,76.6035Q400.041,76.043,400.041,75.0996Q400.041,73.8145,400.773,72.4062Q401.504,70.998,402.591,70.0889Q403.678,69.1797,404.703,69.1797Q405.783,69.1797,406.316,69.9727L406.467,69.4531L407.752,68.9199ZM406.18,70.6699Q406.016,70.1504,405.626,69.85640000000001Q405.236,69.5625,404.731,69.5625Q404.129,69.5625,403.459,70.11619999999999Q402.789,70.6699,402.229,71.6543Q401.791,72.4336,401.497,73.377Q401.203,74.3203,401.203,74.9355Q401.203,75.6328,401.47,76.0293Q401.736,76.4258,402.229,76.4258Q402.857,76.4258,403.541,75.8379Q404.225,75.25,404.895,74.1562Q405.305,73.5273,405.537,72.8984Q405.77,72.2695,406.057,71.1484L406.18,70.6699ZM409.795,76.125L410.56,75.2227Q411.162,76.6445,412.474,76.6445Q413.158,76.6445,413.643,76.2002Q414.129,75.7559,414.129,75.168Q414.129,74.7441,413.896,74.4434Q413.664,74.1426,412.789,73.4316Q411.982,72.7754,411.702,72.3994Q411.422,72.0234,411.422,71.5312Q411.422,70.8887,411.798,70.3418Q412.173,69.7949,412.802,69.46000000000001Q413.431,69.125,414.129,69.125Q414.744,69.125,415.161,69.43260000000001Q415.578,69.7402,415.578,70.2188Q415.578,70.8477,415.045,71.0801Q414.963,70.4375,414.559,70.0752Q414.156,69.7129,413.527,69.7129Q412.966,69.7129,412.549,70.0752Q412.132,70.4375,412.132,70.9023Q412.132,71.4766,412.843,72.0371L413.636,72.6797Q414.798,73.5957,414.798,74.5527Q414.798,75.2637,414.395,75.8857Q413.992,76.5078,413.301,76.877Q412.611,77.2461,411.845,77.2461Q410.629,77.2461,409.795,76.125ZM423.499,74.8809L423.745,75.0859Q422.898,76.207,422.091,76.70609999999999Q421.284,77.2051,420.355,77.2051Q419.247,77.2051,418.577,76.4668Q417.907,75.7285,417.907,74.5117Q417.907,73.2812,418.557,72.0166Q419.206,70.752,420.184,69.9248Q421.161,69.0977,422.118,69.0977Q422.679,69.0977,423.041,69.4258Q423.404,69.7539,423.404,70.2734Q423.404,71.3262,422.255,72.3789Q421.107,73.4316,419.124,74.1699Q419.111,74.2793,419.111,74.416Q419.111,75.3594,419.63,75.9541Q420.15,76.5488,420.97,76.5488Q421.613,76.5488,422.214,76.1455Q422.816,75.7422,423.499,74.8809ZM419.124,73.8418Q420.601,73.1855,421.394,72.3789Q421.927,71.832,422.255,71.2031Q422.583,70.5742,422.583,70.0684Q422.583,69.4258,421.995,69.4258Q421.107,69.4258,420.198,70.8271Q419.288,72.2285,419.124,73.8418ZM438.084,74.9492Q437.25,76.125,436.464,76.66499999999999Q435.678,77.2051,434.721,77.2051Q433.668,77.2051,433.005,76.4668Q432.342,75.7285,432.342,74.5527Q432.342,73.3223,432.985,72.0508Q433.627,70.7793,434.632,69.9453Q435.637,69.1113,436.567,69.1113Q437.196,69.1113,437.579,69.46000000000001Q437.961,69.8086,437.961,70.3965Q437.961,70.9297,437.558,71.41499999999999Q437.155,71.9004,436.69,71.9004Q436.485,71.9004,436.321,71.7363Q437.209,71.3398,437.209,70.2598Q437.209,69.877,437.011,69.66499999999999Q436.813,69.4531,436.485,69.4531Q435.979,69.4531,435.466,69.8633Q434.954,70.2734,434.502,71.00489999999999Q434.051,71.7363,433.798,72.5635Q433.545,73.3906,433.545,74.2383Q433.545,75.25,434.024,75.8789Q434.502,76.5078,435.282,76.5078Q435.952,76.5078,436.581,76.084Q437.209,75.6602,437.893,74.7852L438.084,74.9492ZM440.373,77.1367L444.01,58.433594L445.445,57.736328L441.658,74.3887Q441.713,74.293,441.713,74.2656L442.027,73.5547Q442.834,71.7227,444.051,70.3828Q445.199,69.1387,446.17,69.1387Q446.69,69.1387,447.004,69.4736Q447.318,69.8086,447.318,70.3691Q447.318,70.6836,447.168,71.2578L447.031,71.832L446.607,73.5L446.484,74.0332Q446.279,74.8535,446.279,75.291Q446.279,75.7285,446.43,75.99510000000001Q446.58,76.2617,446.826,76.2617Q447.25,76.2617,448.18,75.25L448.385,75.4414L448.262,75.5918Q447.482,76.5078,447.107,76.8291Q446.731,77.1504,446.43,77.1504Q446.006,77.1504,445.705,76.6992Q445.404,76.248,445.404,75.6465Q445.404,75.2773,445.582,74.3477L446.102,71.4492Q446.225,70.8066,446.225,70.4922Q446.225,70.2051,446.074,70.0547Q445.924,69.9043,445.664,69.9043Q445.158,69.9043,444.502,70.499Q443.846,71.0938,443.183,72.1465Q442.52,73.1992,442.027,74.3955Q441.535,75.5918,441.289,76.8496L440.373,77.1367ZM450.55,74.375Q450.55,73.1445,451.214,71.9209Q451.877,70.6973,452.929,69.9316Q453.982,69.166,455.076,69.166Q456.224,69.166,456.928,69.9248Q457.632,70.6836,457.632,71.8867Q457.632,73.1992,456.983,74.4297Q456.334,75.6602,455.274,76.44630000000001Q454.215,77.2324,453.134,77.2324Q451.972,77.2324,451.261,76.44630000000001Q450.55,75.6602,450.55,74.375ZM456.402,71.3672Q456.402,70.5469,455.999,70.0137Q455.595,69.4805,454.966,69.4805Q454.392,69.4805,453.866,69.8496Q453.34,70.2188,452.902,70.9297Q452.41,71.75,452.089,72.8438Q451.767,73.9375,451.767,74.7852Q451.767,75.7969,452.164,76.3438Q452.56,76.8906,453.298,76.8906Q454.488,76.8906,455.39,75.2363Q455.855,74.3887,456.129,73.3359Q456.402,72.2832,456.402,71.3672ZM460.154,74.375Q460.154,73.1445,460.817,71.9209Q461.48,70.6973,462.532,69.9316Q463.585,69.166,464.679,69.166Q465.827,69.166,466.531,69.9248Q467.236,70.6836,467.236,71.8867Q467.236,73.1992,466.586,74.4297Q465.937,75.6602,464.877,76.44630000000001Q463.818,77.2324,462.738,77.2324Q461.575,77.2324,460.865,76.44630000000001Q460.154,75.6602,460.154,74.375ZM466.005,71.3672Q466.005,70.5469,465.602,70.0137Q465.198,69.4805,464.57,69.4805Q463.995,69.4805,463.469,69.8496Q462.943,70.2188,462.505,70.9297Q462.013,71.75,461.692,72.8438Q461.37,73.9375,461.37,74.7852Q461.37,75.7969,461.767,76.3438Q462.163,76.8906,462.902,76.8906Q464.091,76.8906,464.993,75.2363Q465.458,74.3887,465.732,73.3359Q466.005,72.2832,466.005,71.3672ZM469.005,76.125L469.77,75.2227Q470.372,76.6445,471.684,76.6445Q472.368,76.6445,472.853,76.2002Q473.339,75.7559,473.339,75.168Q473.339,74.7441,473.106,74.4434Q472.874,74.1426,471.999,73.4316Q471.192,72.7754,470.912,72.3994Q470.632,72.0234,470.632,71.5312Q470.632,70.8887,471.008,70.3418Q471.384,69.7949,472.013,69.46000000000001Q472.641,69.125,473.339,69.125Q473.954,69.125,474.371,69.43260000000001Q474.788,69.7402,474.788,70.2188Q474.788,70.8477,474.255,71.0801Q474.173,70.4375,473.769,70.0752Q473.366,69.7129,472.737,69.7129Q472.177,69.7129,471.76,70.0752Q471.343,70.4375,471.343,70.9023Q471.343,71.4766,472.054,72.0371L472.847,72.6797Q474.009,73.5957,474.009,74.5527Q474.009,75.2637,473.605,75.8857Q473.202,76.5078,472.512,76.877Q471.821,77.2461,471.056,77.2461Q469.839,77.2461,469.005,76.125ZM482.709,74.8809L482.956,75.0859Q482.108,76.207,481.301,76.70609999999999Q480.495,77.2051,479.565,77.2051Q478.457,77.2051,477.788,76.4668Q477.118,75.7285,477.118,74.5117Q477.118,73.2812,477.767,72.0166Q478.416,70.752,479.394,69.9248Q480.372,69.0977,481.329,69.0977Q481.889,69.0977,482.251,69.4258Q482.614,69.7539,482.614,70.2734Q482.614,71.3262,481.465,72.3789Q480.317,73.4316,478.334,74.1699Q478.321,74.2793,478.321,74.416Q478.321,75.3594,478.84,75.9541Q479.36,76.5488,480.18,76.5488Q480.823,76.5488,481.424,76.1455Q482.026,75.7422,482.709,74.8809ZM478.334,73.8418Q479.811,73.1855,480.604,72.3789Q481.137,71.832,481.465,71.2031Q481.793,70.5742,481.793,70.0684Q481.793,69.4258,481.206,69.4258Q480.317,69.4258,479.408,70.8271Q478.499,72.2285,478.334,73.8418ZM494.164,69.6992L493.125,74.252Q492.961,75.0039,492.961,75.3184Q492.961,75.8105,493.193,76.1113Q493.425,76.4121,493.808,76.4121Q494.177,76.4121,494.485,76.2002Q494.793,75.9883,495.422,75.3184L495.586,75.1543L495.791,75.3594Q494.984,76.3438,494.444,76.7471Q493.904,77.1504,493.384,77.1504Q492.728,77.1504,492.339,76.7197Q491.949,76.2891,491.949,75.5918Q491.949,75.0723,492.154,74.0879L493.043,69.6992L491.73,69.6992L491.826,69.2344L493.138,69.2344L493.904,65.54297L495.216,65.02344L494.259,69.2344L496.474,69.2344L496.379,69.6992L494.164,69.6992ZM497.915,77.1367L501.552,58.433594L502.988,57.736328L499.2,74.3887Q499.255,74.293,499.255,74.2656L499.57,73.5547Q500.376,71.7227,501.593,70.3828Q502.741,69.1387,503.712,69.1387Q504.232,69.1387,504.546,69.4736Q504.861,69.8086,504.861,70.3691Q504.861,70.6836,504.71,71.2578L504.573,71.832L504.15,73.5L504.027,74.0332Q503.822,74.8535,503.822,75.291Q503.822,75.7285,503.972,75.99510000000001Q504.122,76.2617,504.368,76.2617Q504.792,76.2617,505.722,75.25L505.927,75.4414L505.804,75.5918Q505.025,76.5078,504.649,76.8291Q504.273,77.1504,503.972,77.1504Q503.548,77.1504,503.247,76.6992Q502.947,76.248,502.947,75.6465Q502.947,75.2773,503.124,74.3477L503.644,71.4492Q503.767,70.8066,503.767,70.4922Q503.767,70.2051,503.616,70.0547Q503.466,69.9043,503.206,69.9043Q502.7,69.9043,502.044,70.499Q501.388,71.0938,500.725,72.1465Q500.062,73.1992,499.57,74.3955Q499.077,75.5918,498.831,76.8496L497.915,77.1367ZM513.684,74.8809L513.931,75.0859Q513.083,76.207,512.276,76.70609999999999Q511.47,77.2051,510.54,77.2051Q509.432,77.2051,508.763,76.4668Q508.093,75.7285,508.093,74.5117Q508.093,73.2812,508.742,72.0166Q509.391,70.752,510.369,69.9248Q511.347,69.0977,512.304,69.0977Q512.864,69.0977,513.226,69.4258Q513.589,69.7539,513.589,70.2734Q513.589,71.3262,512.44,72.3789Q511.292,73.4316,509.309,74.1699Q509.296,74.2793,509.296,74.416Q509.296,75.3594,509.815,75.9541Q510.335,76.5488,511.155,76.5488Q511.798,76.5488,512.399,76.1455Q513.001,75.7422,513.684,74.8809ZM509.309,73.8418Q510.786,73.1855,511.579,72.3789Q512.112,71.832,512.44,71.2031Q512.768,70.5742,512.768,70.0684Q512.768,69.4258,512.181,69.4258Q511.292,69.4258,510.383,70.8271Q509.474,72.2285,509.309,73.8418ZM522.897,69.5625L524.127,69.002L524.127,69.248L524.127,69.3574Q524.127,70.3281,524.182,71.1621Q524.236,71.9961,524.387,73.541Q524.578,75.3457,524.674,75.7422Q524.77,76.1387,525.002,76.1387Q525.303,76.1387,525.986,75.1748Q526.67,74.2109,527.326,72.8438L526.902,69.5625L528.147,69.002L528.16,69.3438Q528.27,72.2695,528.393,73.541Q528.434,73.8691,528.475,74.23140000000001Q528.516,74.5938,528.536,74.7988Q528.557,75.0039,528.598,75.2705Q528.639,75.5371,528.652,75.6191Q528.762,76.0703,529.008,76.0703Q529.5,76.0703,530.703,74.1152Q531.838,72.3105,531.838,71.0664Q531.838,70.0684,531.182,69.6172L532.221,68.6602Q532.699,69.207,532.699,70.082Q532.699,71.0391,532.166,72.2559Q531.633,73.4727,530.58,74.9766Q529.924,75.8926,529.377,76.4941Q528.775,77.1777,528.393,77.1777Q528.092,77.1777,527.941,76.89750000000001Q527.791,76.6172,527.709,75.9473L527.408,73.5Q526.807,74.7168,526.027,75.7695Q525.002,77.1777,524.387,77.1777Q524.1,77.1777,523.963,76.9248Q523.826,76.6719,523.717,75.9883L522.897,69.5625ZM542.548,68.9199L541.263,73.9238Q541.058,74.7441,541.058,75.209Q541.058,75.6191,541.236,75.9199Q541.414,76.2207,541.673,76.2207Q542.07,76.2207,542.986,75.25L543.177,75.4414L543.027,75.6191Q542.302,76.4531,541.913,76.7881Q541.523,77.123,541.236,77.123Q540.798,77.123,540.477,76.66499999999999Q540.156,76.207,540.156,75.6055Q540.156,75.168,540.484,73.623L540.593,73.1035Q540.088,74.2793,539.24,75.3594Q537.818,77.1641,536.519,77.1641Q535.74,77.1641,535.289,76.6035Q534.838,76.043,534.838,75.0996Q534.838,73.8145,535.569,72.4062Q536.3,70.998,537.387,70.0889Q538.474,69.1797,539.5,69.1797Q540.58,69.1797,541.113,69.9727L541.263,69.4531L542.548,68.9199ZM540.976,70.6699Q540.812,70.1504,540.422,69.85640000000001Q540.033,69.5625,539.527,69.5625Q538.925,69.5625,538.255,70.11619999999999Q537.586,70.6699,537.025,71.6543Q536.588,72.4336,536.294,73.377Q536,74.3203,536,74.9355Q536,75.6328,536.266,76.0293Q536.533,76.4258,537.025,76.4258Q537.654,76.4258,538.338,75.8379Q539.021,75.25,539.691,74.1562Q540.101,73.5273,540.334,72.8984Q540.566,72.2695,540.853,71.1484L540.976,70.6699ZM544.126,81.8535L544.796,80.9512Q545.589,81.7988,546.587,81.7988Q547.64,81.7988,548.282,80.9648Q548.925,80.1309,549.335,78.2305L549.964,75.4004Q548.46,77.1641,547.243,77.1641Q546.532,77.1641,546.129,76.7266Q545.726,76.2891,545.726,75.5508Q545.726,75.0586,545.849,74.4707L546.779,69.5625L548.105,69.002L546.779,74.5117Q546.615,75.1816,546.615,75.5098Q546.615,75.9746,546.895,76.26859999999999Q547.175,76.5625,547.64,76.5625Q548.146,76.5625,548.754,76.1182Q549.363,75.6738,550.115,74.7852L551.29,69.5625L552.575,69.002L550.579,77.041Q550.224,78.4902,549.903,79.3105Q549.581,80.1309,549.157,80.6777Q547.818,82.4004,545.89,82.4004Q544.769,82.4004,544.126,81.8535ZM561.172,74.375Q561.172,73.1445,561.835,71.9209Q562.498,70.6973,563.551,69.9316Q564.604,69.166,565.698,69.166Q566.846,69.166,567.55,69.9248Q568.254,70.6836,568.254,71.8867Q568.254,73.1992,567.605,74.4297Q566.956,75.6602,565.896,76.44630000000001Q564.836,77.2324,563.756,77.2324Q562.594,77.2324,561.883,76.44630000000001Q561.172,75.6602,561.172,74.375ZM567.024,71.3672Q567.024,70.5469,566.621,70.0137Q566.217,69.4805,565.588,69.4805Q565.014,69.4805,564.488,69.8496Q563.961,70.2188,563.524,70.9297Q563.032,71.75,562.71,72.8438Q562.389,73.9375,562.389,74.7852Q562.389,75.7969,562.786,76.3438Q563.182,76.8906,563.92,76.8906Q565.11,76.8906,566.012,75.2363Q566.477,74.3887,566.75,73.3359Q567.024,72.2832,567.024,71.3672ZM572.471,69.6992L571.131,69.6992L571.227,69.2344L572.58,69.2344L573.865,63.23242Q574.193,61.74219,574.535,60.85352Q574.877,59.96484,575.355,59.32227Q576.531,57.75,578.281,57.75Q578.869,57.75,579.361,57.9414062L578.869,59.18555Q578.322,58.419922,577.475,58.419922Q576.832,58.419922,576.429,58.918945Q576.025,59.41797,575.738,60.56641L573.646,69.2344L575.848,69.2344L575.752,69.6992L573.537,69.6992L571.664,77.4648Q571.295,79.0234,570.946,79.7891Q570.598,80.5547,569.996,81.2109Q568.902,82.4004,567.604,82.4004Q566.975,82.4004,566.482,82.1816L567.152,81.1973Q567.727,81.6621,568.396,81.6621Q569.408,81.6621,569.914,80.5957Q570.283,79.8027,570.693,77.9707L572.471,69.6992ZM581.97,82.4277L584.554,69.5625L585.866,69.002L584.964,72.9258Q585.976,70.8887,586.871,69.9932Q587.767,69.0977,588.833,69.0977Q589.654,69.0977,590.132,69.6992Q590.611,70.3008,590.611,71.3535Q590.611,72.4199,590.18,73.541Q589.749,74.6621,588.97,75.5781Q587.562,77.2734,585.866,77.2734Q584.8,77.2734,584.116,76.7129L582.708,82.4277L581.97,82.4277ZM584.321,75.8105Q584.896,76.9316,585.935,76.9316Q587.439,76.9316,588.56,74.4844Q589.476,72.5156,589.476,71.1758Q589.476,70.4512,589.202,70.0547Q588.929,69.6582,588.423,69.6582Q587.603,69.6582,586.7,70.7383Q585.839,71.8047,585.237,73.1172Q585.005,73.6367,584.807,74.2246Q584.609,74.8125,584.431,75.4277L584.321,75.8105ZM600.856,68.9199L599.571,73.9238Q599.366,74.7441,599.366,75.209Q599.366,75.6191,599.544,75.9199Q599.721,76.2207,599.981,76.2207Q600.378,76.2207,601.294,75.25L601.485,75.4414L601.335,75.6191Q600.61,76.4531,600.221,76.7881Q599.831,77.123,599.544,77.123Q599.106,77.123,598.785,76.66499999999999Q598.464,76.207,598.464,75.6055Q598.464,75.168,598.792,73.623L598.901,73.1035Q598.395,74.2793,597.548,75.3594Q596.126,77.1641,594.827,77.1641Q594.048,77.1641,593.596,76.6035Q593.145,76.043,593.145,75.0996Q593.145,73.8145,593.877,72.4062Q594.608,70.998,595.695,70.0889Q596.782,69.1797,597.807,69.1797Q598.888,69.1797,599.421,69.9727L599.571,69.4531L600.856,68.9199ZM599.284,70.6699Q599.12,70.1504,598.73,69.85640000000001Q598.341,69.5625,597.835,69.5625Q597.233,69.5625,596.563,70.11619999999999Q595.893,70.6699,595.333,71.6543Q594.895,72.4336,594.601,73.377Q594.307,74.3203,594.307,74.9355Q594.307,75.6328,594.574,76.0293Q594.841,76.4258,595.333,76.4258Q595.962,76.4258,596.645,75.8379Q597.329,75.25,597.999,74.1562Q598.409,73.5273,598.641,72.8984Q598.874,72.2695,599.161,71.1484L599.284,70.6699ZM602.434,81.8535L603.104,80.9512Q603.897,81.7988,604.895,81.7988Q605.948,81.7988,606.59,80.9648Q607.233,80.1309,607.643,78.2305L608.272,75.4004Q606.768,77.1641,605.551,77.1641Q604.84,77.1641,604.437,76.7266Q604.034,76.2891,604.034,75.5508Q604.034,75.0586,604.157,74.4707L605.086,69.5625L606.412,69.002L605.086,74.5117Q604.922,75.1816,604.922,75.5098Q604.922,75.9746,605.203,76.26859999999999Q605.483,76.5625,605.948,76.5625Q606.453,76.5625,607.062,76.1182Q607.67,75.6738,608.422,74.7852L609.598,69.5625L610.883,69.002L608.887,77.041Q608.532,78.4902,608.21,79.3105Q607.889,80.1309,607.465,80.6777Q606.125,82.4004,604.198,82.4004Q603.077,82.4004,602.434,81.8535ZM618.736,76.8496L617.834,77.1367L618.914,71.5723Q618.914,71.5723,619.01,71.0938Q619.092,70.6973,619.092,70.4375Q619.092,69.8359,618.613,69.8359Q618.162,69.8359,617.52,70.4443Q616.877,71.0527,616.166,72.2012Q615.701,72.9395,615.366,73.623Q615.031,74.3066,614.751,75.0791Q614.471,75.8516,614.211,76.8496L613.363,77.1367L614.771,69.5625L616.084,69.002L614.895,73.9648Q615.811,71.8457,616.993,70.4854Q618.176,69.125,619.119,69.125Q620.145,69.125,620.145,70.2871Q620.145,70.6836,619.939,71.6953L619.488,73.7324Q620.814,71.1895,621.73,70.14359999999999Q622.646,69.0977,623.549,69.0977Q624.055,69.0977,624.342,69.3984Q624.629,69.6992,624.629,70.2598Q624.629,70.7109,624.355,71.8184L623.932,73.5L623.795,74.0332Q623.604,74.8809,623.604,75.291Q623.604,75.7285,623.754,75.99510000000001Q623.904,76.2617,624.137,76.2617Q624.574,76.2617,625.504,75.25L625.709,75.4414L625.586,75.5918Q624.807,76.5078,624.431,76.8291Q624.055,77.1504,623.74,77.1504Q623.316,77.1504,623.022,76.7197Q622.729,76.2891,622.729,75.6465Q622.729,75.25,622.906,74.3477L623.412,71.5176L623.494,71.0254Q623.576,70.6152,623.576,70.3691Q623.576,70.123,623.426,69.9727Q623.275,69.8223,623.016,69.8223Q622.715,69.8223,622.353,70.0752Q621.99,70.3281,621.58,70.8477Q621.17,71.3672,620.664,72.2148Q619.98,73.377,619.557,74.3818Q619.133,75.3867,618.736,76.8496ZM633.466,74.8809L633.713,75.0859Q632.865,76.207,632.058,76.70609999999999Q631.252,77.2051,630.322,77.2051Q629.214,77.2051,628.545,76.4668Q627.875,75.7285,627.875,74.5117Q627.875,73.2812,628.524,72.0166Q629.173,70.752,630.151,69.9248Q631.129,69.0977,632.086,69.0977Q632.646,69.0977,633.008,69.4258Q633.371,69.7539,633.371,70.2734Q633.371,71.3262,632.222,72.3789Q631.074,73.4316,629.091,74.1699Q629.078,74.2793,629.078,74.416Q629.078,75.3594,629.597,75.9541Q630.117,76.5488,630.937,76.5488Q631.58,76.5488,632.181,76.1455Q632.783,75.7422,633.466,74.8809ZM629.091,73.8418Q630.568,73.1855,631.361,72.3789Q631.894,71.832,632.222,71.2031Q632.55,70.5742,632.55,70.0684Q632.55,69.4258,631.963,69.4258Q631.074,69.4258,630.165,70.8271Q629.255,72.2285,629.091,73.8418ZM636.193,77.1367L637.642,69.5625L638.941,69.002L637.765,74.0195Q638.9,71.627,640.021,70.3828Q641.142,69.1387,642.167,69.1387Q642.673,69.1387,642.987,69.4736Q643.302,69.8086,643.302,70.3691Q643.302,70.6836,643.152,71.2578L643.015,71.832L642.605,73.5L642.468,74.0332Q642.263,74.8535,642.263,75.291Q642.263,75.7285,642.413,75.99510000000001Q642.564,76.2617,642.81,76.2617Q643.234,76.2617,644.163,75.25L644.382,75.4414L644.245,75.5918Q643.466,76.5078,643.097,76.8291Q642.728,77.1504,642.413,77.1504Q641.989,77.1504,641.695,76.7197Q641.402,76.2891,641.402,75.6465Q641.402,75.209,641.566,74.3477L642.099,71.4492Q642.208,70.7656,642.208,70.4922Q642.208,70.2051,642.058,70.0547Q641.907,69.9043,641.648,69.9043Q640.704,69.9043,639.323,71.9277Q638.654,72.8984,638.216,73.8486Q637.779,74.7988,637.232,76.4805L637.109,76.8496L636.193,77.1367ZM649.145,69.6992L648.106,74.252Q647.942,75.0039,647.942,75.3184Q647.942,75.8105,648.175,76.1113Q648.407,76.4121,648.79,76.4121Q649.159,76.4121,649.467,76.2002Q649.774,75.9883,650.403,75.3184L650.567,75.1543L650.772,75.3594Q649.966,76.3438,649.426,76.7471Q648.885,77.1504,648.366,77.1504Q647.71,77.1504,647.32,76.7197Q646.93,76.2891,646.93,75.5918Q646.93,75.0723,647.135,74.0879L648.024,69.6992L646.712,69.6992L646.807,69.2344L648.12,69.2344L648.885,65.54297L650.198,65.02344L649.241,69.2344L651.456,69.2344L651.36,69.6992L649.145,69.6992Z" fill="#000000" fill-opacity="1"/></g></g></svg>