<svg xmlns="http://www.w3.org/2000/svg" xmlns:xlink="http://www.w3.org/1999/xlink" fill="none" version="1.1" width="149" height="43" viewBox="0 0 149 43"><g><path d="M2.16211,21.9199L14.8711,21.9199L14.8711,17.5605L5.83594,17.5605L5.53711,16.5586L14.8711,16.5586L14.8711,12.498L3.5332,12.498L3.23438,11.4785L20.1973,11.4785Q20.4434,10.7227,20.707,9.82617Q21.0586,8.56055,21.3486,7.28613Q21.6387,6.01172,21.8145,5.00977L28.3359,6.87305Q28.1074,7.59375,26.9648,7.55859Q25.7344,8.56055,23.9414,9.82617Q22.6406,10.7227,21.4277,11.4785L26.3848,11.4785L28.9863,8.20898L29.4434,8.56055Q29.918,8.92969,30.6562,9.50098Q31.3945,10.0723,32.2031,10.7051Q33.0117,11.3379,33.6973,11.918Q33.5566,12.498,32.6602,12.498L20.2676,12.498L20.2676,16.5586L24.293,16.5586L26.7539,13.5352L27.2109,13.8516Q27.6504,14.1855,28.3535,14.7217Q29.0566,15.2578,29.8301,15.8555Q30.6035,16.4531,31.2539,16.998Q31.0957,17.5605,30.1992,17.5605L20.2676,17.5605L20.2676,21.9199L26.8242,21.9199L29.4785,18.4395L29.9883,18.791Q30.4629,19.1953,31.2188,19.8018Q31.9746,20.4082,32.8008,21.0762Q33.627,21.7441,34.2773,22.3594Q34.2422,22.6406,33.9521,22.79Q33.6621,22.9395,33.2578,22.9395L2.44336,22.9395L2.16211,21.9199ZM1.37109,28.0371L13.8164,28.0371Q13.8516,27.7207,13.9395,27.4043Q14.1504,25.5586,14.2207,23.4668L21.3926,23.9414Q21.3398,24.3281,21.041,24.6006Q20.7422,24.873,20.127,24.9434Q19.9512,26.5605,19.6523,28.0371L27.3516,28.0371L30.0586,24.627L30.5684,24.9785Q31.0605,25.3828,31.8164,25.9717Q32.5723,26.5605,33.4248,27.2285Q34.2773,27.8965,34.9629,28.4766Q34.8047,29.0566,33.9082,29.0566L20.4082,29.0566Q21.6387,30.709,23.6074,31.6758Q26.0684,32.9062,29.1445,33.4072Q32.2207,33.9082,35.4199,34.0488L35.4199,34.4531Q33.9434,34.9629,33.0293,36.2197Q32.1152,37.4766,31.7461,39.3926Q28.6875,38.4785,26.2969,37.1865Q23.9062,35.8945,22.2188,33.8027Q20.6719,31.9395,19.6523,29.0566L19.4414,29.0566Q19.0371,30.9199,18,32.502Q16.9629,34.1367,14.9238,35.4287Q12.8848,36.7207,9.50098,37.749Q6.11719,38.7773,0.966797,39.498L0.791016,38.9883Q4.53516,37.8281,6.9873,36.5537Q9.43945,35.2793,10.8721,33.8555Q12.3047,32.4316,12.9902,30.8145Q13.3594,29.9883,13.6055,29.0566L1.65234,29.0566L1.37109,28.0371ZM8.75391,5.39648Q11.5137,5.39648,13.0605,5.99414Q14.6074,6.5918,15.1875,7.4707Q15.7676,8.34961,15.5918,9.25488Q15.416,10.1602,14.6953,10.7666Q13.9746,11.373,12.9287,11.4258Q11.8828,11.4785,10.7227,10.6875Q10.6523,9.7207,10.3096,8.78027Q9.9668,7.83984,9.51855,7.01367Q9.07031,6.1875,8.52539,5.57227L8.75391,5.39648ZM60.0806,29.5488Q60.0806,29.7773,59.5621,30.1025Q59.0435,30.4277,58.2349,30.6738Q57.4263,30.9199,56.5123,30.9199L55.9146,30.9199L55.9146,13.2539L60.2564,15.0117L60.8013,15.0117Q60.8013,14.3613,60.8013,13.5703L60.8013,9.4043L55.6861,9.4043L55.4048,8.38477L65.7408,8.38477L68.2193,5.15039L68.6939,5.50195Q69.1158,5.87109,69.8189,6.4248Q70.522,6.97852,71.2779,7.62891Q72.0338,8.2793,72.649,8.82422Q72.5084,9.4043,71.647,9.4043L66.0923,9.4043Q65.6002,10.2305,65.0201,11.0918Q64.1236,12.4629,63.1744,13.6406Q62.6119,14.3965,62.067,15.0117L65.8463,15.0117L67.7095,13.0254L71.524,15.9082Q71.3834,16.084,71.0933,16.2686Q70.8033,16.4531,70.3463,16.5234L70.3463,29.373Q70.3463,29.4785,69.7486,29.751Q69.1509,30.0234,68.3599,30.2432Q67.5689,30.4629,66.8834,30.4629L66.1627,30.4629L66.1627,18.4395Q66.1275,18.4746,66.0572,18.5098Q65.7408,18.7207,65.1255,18.7207Q65.0201,22.0957,64.8531,24.873Q64.6861,27.6504,64.1236,29.8828Q64.0357,30.0586,64.0005,30.2344Q66.8482,30.709,68.6236,31.6406Q70.4517,32.6074,71.3658,33.7676Q72.2798,34.9277,72.3941,35.9824Q72.5084,37.0371,72.0162,37.793Q71.524,38.5488,70.6451,38.7334Q69.7662,38.918,68.6588,38.2676Q68.1841,36.8965,67.3052,35.4727Q66.4263,34.0488,65.3716,32.7305Q64.5455,31.6758,63.7896,30.8496Q63.2095,32.502,62.2076,33.8379Q60.8716,35.5957,58.5162,36.9141Q56.1607,38.2324,52.4166,39.1289L52.1002,38.5137Q54.9302,37.3711,56.6968,35.9297Q58.4634,34.4883,59.4214,32.6865Q60.3795,30.8848,60.775,28.582Q61.1705,26.2793,61.2408,23.3789Q61.3111,20.4785,61.3111,16.8398L66.1627,17.8594L66.1627,16.0137L60.0806,16.0137L60.0806,29.5488ZM54.4029,12.2695Q54.2798,12.6387,53.9459,12.8496Q53.6119,13.0605,53.0318,13.0605Q52.0123,14.5371,50.8697,15.9434Q49.9732,17.0684,49.1119,17.9297L50.2545,17.9297L52.2056,15.416L52.8033,15.873Q53.4185,16.3828,54.2535,17.0684Q55.0884,17.7539,55.7212,18.3516Q55.5806,18.9316,54.7545,18.9316L50.0084,18.9316L53.6822,20.9531Q53.524,21.1992,53.2603,21.2959Q52.9966,21.3926,52.3814,21.3047Q51.0455,22.8516,49.0152,24.0469Q46.9849,25.2422,44.9283,25.9629L44.6119,25.418Q46.1236,24.1172,47.231,22.2891Q48.1627,20.7422,48.8482,18.9316L44.3482,18.9316L44.3482,23.1855Q44.3482,24.9082,44.19,27.0176Q44.0318,29.127,43.4693,31.3418Q42.9068,33.5566,41.7027,35.6396Q40.4986,37.7227,38.442,39.4277L38.0904,39.1289Q39.1627,36.6855,39.6197,33.9346Q40.0767,31.1836,40.1646,28.4062Q40.2525,25.6289,40.2525,23.1855L40.2525,16.2422L44.9986,17.9297L48.0923,17.9297Q48.3912,16.6289,48.7076,14.7656Q49.024,12.8496,49.2877,11.0566L39.567,11.0566L39.2681,10.0371L46.4752,10.0371Q46.0005,9.86133,45.5084,9.50977Q45.4732,8.34961,44.9634,7.18066Q44.4537,6.01172,43.856,5.25586L44.1021,5.08008Q46.44,5.11523,47.732,5.63379Q49.024,6.15234,49.4986,6.9082Q49.9732,7.66406,49.7711,8.41992Q49.5689,9.17578,48.9185,9.68555Q48.6373,9.89648,48.2681,10.0371L50.2896,10.0371L52.522,7.17188L53.2076,7.69922Q53.8931,8.24414,54.8248,9.01758Q55.7564,9.79102,56.5123,10.4766Q56.3716,11.0566,55.5103,11.0566L50.0787,11.0566L54.4029,12.2695ZM56.1255,31.2891Q55.9498,31.5703,55.6246,31.6582Q55.2994,31.7461,54.6841,31.6406Q51.8365,34.418,48.4175,36.1406Q44.9986,37.8633,41.0435,38.8125L40.7798,38.2676Q44.067,36.6504,46.6246,34.251Q49.1822,31.8516,51.1158,28.5117L56.1255,31.2891ZM55.1939,25.7695Q55.0357,26.0332,54.7369,26.1387Q54.438,26.2441,53.8228,26.1738Q51.942,28.1602,49.4107,29.5576Q46.8795,30.9551,44.067,31.7461L43.7681,31.2188Q45.9654,29.8125,47.6089,27.791Q49.2525,25.7695,50.3951,23.2207L55.1939,25.7695ZM42.2564,11.3027Q44.3834,11.8477,45.5171,12.6562Q46.6509,13.4648,47.0113,14.3262Q47.3716,15.1875,47.1431,15.9258Q46.9146,16.6641,46.2994,17.0947Q45.6841,17.5254,44.8755,17.4551Q44.067,17.3848,43.2759,16.6641Q43.2759,15.293,42.8453,13.8955Q42.4146,12.498,41.9048,11.4785L42.2564,11.3027ZM94.3917,28.8281Q94.3917,29.0215,93.838,29.3291Q93.2843,29.6367,92.4318,29.8828Q91.5792,30.1289,90.6827,30.1289L90.0675,30.1289L90.0675,17.5605L94.6027,19.3359L96.6593,19.3359L96.6593,14.8711L95.3585,14.8711L95.3585,15.7324Q95.3585,15.9082,94.7697,16.251Q94.1808,16.5938,93.2579,16.8486Q92.3351,17.1035,91.4034,17.1035L90.7531,17.1035L90.7531,5.76562L95.5519,7.59375L102.196,7.59375L104.253,5.39648L108.507,8.56055Q108.366,8.75391,108.076,8.94727Q107.786,9.14062,107.312,9.21094L107.312,15.5215Q107.312,15.627,106.626,15.8818Q105.941,16.1367,105.026,16.3477Q104.112,16.5586,103.357,16.5586L102.53,16.5586L102.53,14.8711L101.265,14.8711L101.265,19.3359L103.146,19.3359L105.114,17.209L109.263,20.3027Q109.122,20.4434,108.832,20.6455Q108.542,20.8477,108.032,20.9531L108.032,28.1953Q108.032,28.3008,107.382,28.5469Q106.732,28.793,105.853,28.9951Q104.974,29.1973,104.253,29.1973L103.462,29.1973L103.462,27.7559L101.265,27.7559L101.265,33.416Q102.776,33.293,104.323,33.2227Q104.148,32.7656,103.937,32.291Q103.251,30.9551,102.39,29.918L102.671,29.707Q105.624,30.3926,107.276,31.5264Q108.929,32.6602,109.579,33.9346Q110.23,35.209,110.089,36.3428Q109.948,37.4766,109.245,38.1973Q108.542,38.918,107.496,38.9531Q106.45,38.9883,105.343,38.0215Q105.378,36.5801,104.974,35.1035Q104.903,34.7695,104.798,34.4531Q103.146,35.0332,101.124,35.6836Q97.38,36.8613,91.6847,38.4434Q91.5089,38.8125,91.2189,38.9883Q90.9288,39.1641,90.6124,39.2344L88.0284,33.9082Q89.7159,33.873,92.7042,33.7676Q94.5323,33.6973,96.6593,33.627L96.6593,27.7559L94.3917,27.7559L94.3917,28.8281ZM82.1925,16.0137L83.7745,16.0137L83.7745,8.89453L76.6027,8.89453L76.2863,7.89258L83.3702,7.89258L85.4269,5.57227L89.8566,8.89453Q89.6808,9.14062,89.2853,9.37793Q88.8898,9.61523,88.2745,9.7207L88.2745,17.6836Q88.2745,17.7891,87.6241,18.0176Q86.9738,18.2461,86.1124,18.4482Q85.2511,18.6504,84.5304,18.6504L83.7745,18.6504L83.7745,17.0332L81.2433,17.0332Q81.2433,17.3496,81.2433,17.6836Q81.173,18.8262,81.0851,20.1094Q80.9972,21.3926,80.8917,22.5703Q80.8566,23.1152,80.7863,23.6074L83.6691,23.6074L86.007,21.3926L89.962,24.7324Q89.7863,24.9434,89.4435,25.1279Q89.1007,25.3125,88.5206,25.3828Q88.3448,29.1973,88.0197,31.7549Q87.6945,34.3125,87.1407,35.8066Q86.587,37.3008,85.673,38.0215Q84.8116,38.707,83.6779,39.0059Q82.5441,39.3047,80.8917,39.3047Q80.8917,38.3379,80.7511,37.5645Q80.6105,36.791,80.1359,36.3164Q79.6613,35.8242,78.7823,35.4463Q77.9034,35.0684,76.7433,34.8047L76.7433,34.3828Q77.5167,34.418,78.4484,34.4883Q79.38,34.5586,80.1886,34.5938Q80.9972,34.6289,81.3663,34.6289Q82.1573,34.6289,82.4738,34.3125Q82.9132,33.9434,83.2208,32.6338Q83.5284,31.3242,83.7394,29.0566Q83.9152,27.1406,84.0206,24.627L80.9269,24.627L79.5558,26.3848L75.671,24.2578Q76.0402,23.8711,76.5675,23.502Q76.6378,23.4668,76.7433,23.4316Q76.8312,22.8164,76.9015,22.0605Q77.007,20.707,77.0948,19.1777Q77.1827,17.6484,77.2355,16.2246Q77.2882,14.8008,77.2882,13.7812L82.1925,16.0137ZM95.3585,13.8516L102.53,13.8516L102.53,8.5957L95.3585,8.5957L95.3585,13.8516ZM96.6593,26.7539L96.6593,20.3379L94.3917,20.3379L94.3917,26.7539L96.6593,26.7539ZM101.265,20.3379L101.265,26.7539L103.462,26.7539L103.462,20.3379L101.265,20.3379ZM127.648,5.18555Q130.461,4.93945,132.087,5.40527Q133.713,5.87109,134.389,6.71484Q135.066,7.55859,134.978,8.48145Q134.89,9.4043,134.24,10.0723Q134.064,10.3008,133.818,10.4414L140.586,10.4414L143.064,7.01367L143.539,7.38281Q143.961,7.76953,144.664,8.36719Q145.367,8.96484,146.123,9.63281Q146.879,10.3008,147.494,10.8633Q147.353,11.4434,146.492,11.4434L121.759,11.4434L121.759,19.9512Q121.759,22.2891,121.54,24.8994Q121.32,27.5098,120.547,30.1201Q119.773,32.7305,118.094,35.1211Q116.416,37.5117,113.515,39.4277L113.216,39.1992Q114.799,36.4043,115.502,33.1611Q116.205,29.918,116.372,26.5342Q116.539,23.1504,116.539,19.9512L116.539,8.41992L122.515,10.4414L130.425,10.4414Q130.355,10.4062,130.285,10.3711Q130.004,8.96484,129.169,7.59375Q128.334,6.22266,127.437,5.36133L127.648,5.18555ZM136.578,25.8926L139.461,23.3262L143.75,27.3164Q143.574,27.6152,143.249,27.7207Q142.924,27.8262,142.203,27.8965Q140.287,30.8145,137.597,32.9766Q139.215,33.293,140.937,33.4863Q144.295,33.873,147.74,33.9434L147.74,34.3828Q146.123,34.8926,145.147,36.1846Q144.172,37.4766,143.82,39.3926Q139.355,38.584,135.752,37.1602Q134.275,36.5801,132.992,35.7891Q132.763,35.8945,132.517,36Q126.259,38.8125,117.541,39.4277L117.4,38.9883Q122.181,37.916,126.101,36.1055Q128.369,35.0684,130.285,33.7676Q129.916,33.4512,129.564,33.082Q127.191,30.6738,125.715,26.8945L123.377,26.8945L123.043,25.8926L136.578,25.8926ZM142.888,12.8848L145.015,15.0117Q145.877,15.873,146.492,16.6289Q146.334,17.209,145.508,17.209L139.935,17.209L139.935,22.8516Q139.935,23.0098,139.302,23.2559Q138.67,23.502,137.738,23.7041Q136.806,23.9062,135.857,23.9062L134.996,23.9062L134.996,22.9746L130.355,22.9746L130.355,23.6953Q130.355,23.8359,129.722,24.082Q129.09,24.3281,128.175,24.5303Q127.261,24.7324,126.33,24.7324L125.468,24.7324L125.468,17.209L122.181,17.209L121.9,16.207L125.468,16.207L125.468,12.2344L131.515,12.7441Q131.48,13.0605,131.243,13.3154Q131.006,13.5703,130.355,13.6406L130.355,16.207L134.996,16.207L134.996,12.2344L141.078,12.7441Q141.043,13.0605,140.814,13.2979Q140.586,13.5352,139.935,13.6406L139.935,16.207L140.832,16.207L142.888,12.8848ZM132.957,31.6406Q135.259,29.5137,136.613,26.8945L126.47,26.8945Q127.683,28.6172,129.459,29.8125Q131.041,30.8848,132.957,31.6406ZM130.355,17.209L130.355,21.9551L134.996,21.9551L134.996,17.209L130.355,17.209Z" fill="#000000" fill-opacity="1"/></g></svg>