<svg xmlns="http://www.w3.org/2000/svg" xmlns:xlink="http://www.w3.org/1999/xlink" fill="none" version="1.1" width="1024" height="91" viewBox="0 0 1024 91"><g><g><path d="M354.896,4.52L357.152,2.696L360.8,6.008L358.88,7.88L350.24,7.88L350.24,10.808L354.32,10.808L356.576,8.936L360.272,12.248L358.304,14.168L350.24,14.168L350.24,17.144L355.664,17.144L357.92,15.272L361.616,18.584L359.648,20.504L332.096,20.504L331.28,17.144L342.704,17.144L342.704,14.168L334.64,14.168L333.824,10.808L342.704,10.808L342.704,7.88L332.48,7.88L331.664,4.52L342.704,4.52L342.704,0.776001L350.24,1.736L350.24,4.52L354.896,4.52ZM334.928,21.272L341.936,22.088L341.936,23.288L351.728,23.288L354.704,20.696L360.56,25.064L359.216,26.936L359.216,42.008Q359.216,46.328,354.944,46.328L351.152,46.328Q351.152,43.304,346.256,43.304L346.304,40.328Q348.704,40.232,350.816,40.232Q351.872,40.232,351.872,39.08L351.872,38.216L341.936,38.216L341.936,45.656L334.928,46.568L334.928,21.272ZM351.872,34.76L351.872,32.408L341.936,32.408L341.936,34.76L351.872,34.76ZM351.872,28.952L351.872,26.648L341.936,26.648L341.936,28.952L351.872,28.952ZM320.768,2.216Q326.384,4.712,329.84,7.928L324.992,13.4Q321.776,9.368,317.648,6.104L320.768,2.216ZM321.632,17.768L324.992,14.216L331.184,19.064L328.784,20.984L328.784,35.096Q330.512,34.376,332.24,33.512L333.968,37.112Q329.84,41.432,323.984,45.56L320.432,38.024Q321.296,37.784,322.16,37.496L322.16,25.208L322.064,25.208L322.064,21.8L317.984,21.8L317.024,17.768L321.632,17.768ZM397.04,23.912L401.552,24.44L401.552,25.496L404.288,25.496L406.496,23.768L410.192,27.08L410.192,22.424L409.904,22.76L396.848,22.76L395.936,19.448L400.208,19.448L400.208,15.656L397.28,15.656L396.416,12.488L400.208,12.488L400.208,8.504L405.584,9.176L405.584,12.488L405.68,12.488L407.456,11.096L410.192,13.592L410.192,8.216L395.84,8.216L395.888,26.888Q395.888,39.752,389.6,46.424L386.912,44.264Q387.824,42.2,388.448,39.848Q385.376,42.776,381.632,45.56L378.08,38.024Q378.512,37.88,378.896,37.736L378.896,20.216L375.488,20.216L374.528,16.232L378.848,16.232L382.16,12.728L388.352,17.528L385.664,19.496L385.664,35.096Q387.584,34.232,389.504,33.176Q389.552,32.312,389.552,31.544L389.504,2.36L395.84,3.272L395.84,4.664L409.664,4.664L412.208,2.264L418.784,6.344L416.624,8.12L416.624,41.576Q416.624,45.896,412.64,45.896L409.136,45.896Q409.136,42.248,404.672,42.248L404.816,39.608Q406.784,39.752,409.376,39.752Q410.192,39.752,410.192,38.36L410.192,28.376L408.896,29.624L408.896,38.312L404.336,38.792L404.336,37.112L401.552,37.112L401.552,39.512L397.04,40.088L397.04,23.912ZM404.336,33.704L404.336,28.952L401.552,28.952L401.552,33.704L404.336,33.704ZM410.192,19.832L410.192,14.36L409.088,15.656L405.584,15.656L405.584,19.448L406.544,19.448L408.272,18.152L410.192,19.832ZM380.672,1.4Q383.12,3.32,385.136,5.432Q386.864,7.256,387.344,8.072L380.384,12.584Q379.088,8.168,376.112,3.848L380.672,1.4ZM470.528,5.864L472.832,3.896L476.72,7.352L474.896,9.272L473.12,9.272Q472.784,14.456,470.624,18.248Q474.128,20.504,477.296,21.848L472.736,27.224L475.136,29.384L473.264,31.304L458.72,31.304L458.72,34.664L468.416,34.664L471.056,32.168L475.52,36.104L473.408,38.024L458.72,38.024L458.72,41.768L470.24,41.768L472.88,39.272L477.2,43.16L475.328,45.08L433.04,45.08L432.224,41.768L436.736,41.768L436.736,33.224L443.792,34.136L443.792,41.768L451.04,41.768L451.04,31.304L434.768,31.304L433.904,27.992L468.128,27.992L470.336,25.88Q468.416,24.488,466.832,22.904Q463.328,25.976,458.048,27.752L456.272,24.872Q460.784,22.328,463.472,19.064Q462.128,17.192,461.312,15.176Q460.112,17.288,458.768,19.112L455.984,16.856Q459.008,9.656,459.632,1.112L465.872,2.216Q465.536,4.136,465.056,5.864L470.528,5.864ZM463.424,10.808Q464.432,12.776,466.112,14.552Q467.12,12.056,467.408,9.272L464,9.272Q463.712,10.088,463.424,10.808ZM452.432,5.096L454.832,2.984L458.768,6.488L456.896,8.36L451.952,8.36L457.328,12.488L455.984,13.736L455.984,20.12L453.68,20.504Q455.552,21.512,457.28,22.76L452.816,27.992Q451.52,24.344,448.4,21.656L448.4,26.744L442.4,27.512L442.4,23.096Q439.52,26.264,433.616,27.8L432.032,25.208Q436.352,23.192,437.984,20.552L434.864,20.936L434.864,8.888L440.24,9.512L440.24,10.712L442.4,10.712L442.4,8.36L433.04,8.36L432.224,5.096L442.4,5.096L442.4,1.256L448.4,1.928L448.4,5.096L452.432,5.096ZM448.4,8.36L448.4,10.712L450.032,10.712L451.856,8.36L448.4,8.36ZM440.24,16.808L442.4,16.808L442.4,13.736L440.24,13.736L440.24,16.808ZM448.4,13.736L448.4,16.808L450.32,16.808L450.32,13.736L448.4,13.736ZM526.832,8.312L529.664,5.576L534.32,9.752L532.304,11.816L515.408,11.816L515.408,14.984L524.384,14.984L527.36,12.2L532.112,16.52L530.048,18.632L515.408,18.632L515.408,22.184L526.832,22.184L529.664,19.496L534.224,23.624L532.304,25.592L490.784,25.592L489.968,22.184L507.056,22.184L507.056,18.632L492.704,18.632L491.792,14.984L507.056,14.984L507.056,11.816L490.784,11.816L489.92,8.312L501.488,8.312Q499.136,6.296,496.496,4.568L499.088,1.304Q505.136,3.368,508.88,6.056L506.864,8.312L514.64,8.312Q517.088,5,518.864,1.256L527.168,2.936Q524.096,6.056,521.072,8.312L526.832,8.312ZM526.016,30.2L528.8,27.608L533.408,31.736L531.344,33.752L516.704,33.752Q519.2,35.384,522.752,36.392Q527.312,37.832,534.608,38.552L529.568,46.04Q516.8,42.488,512.432,35.96Q509.792,39.416,505.328,41.432Q499.952,44.12,491.984,45.848L489.824,42.152Q498.608,39.56,502.256,36.488Q503.792,35.336,504.848,33.752L491.6,33.752L490.688,30.2L506.48,30.2Q507.056,28.376,507.248,26.216L515.984,27.08Q515.744,28.712,515.312,30.2L526.016,30.2ZM563.696,6.152L566.144,4.088L570.08,7.592L568.112,9.56L563.792,9.56L567.296,11Q565.136,14.744,562.448,17.816L563.792,17.816L566.432,15.368L570.128,18.68L570.128,9.032L575.648,9.656L575.648,10.568L577.184,10.568Q577.712,8.456,578,6.392L570.224,6.392L569.36,3.128L585.728,3.128L587.984,0.919998L592.016,4.52L590.096,6.392L584.288,6.392Q582.992,8.648,581.312,10.568L584.288,10.568L586.64,8.456L591.152,11.96L589.952,13.4L589.952,37.544L586.448,37.976Q589.184,39.32,592.208,41.432L587.216,46.328Q585.296,42.824,581.168,38.6L583.28,36.728Q583.712,36.872,584.048,36.968L584.048,14.072L575.648,14.072L575.648,36.68Q577.184,34.232,577.184,30.776L577.184,14.84L582.704,15.608L582.704,30.68Q582.704,36.248,578.96,39.896Q575.312,43.832,568.016,46.376L566.336,43.976Q571.76,41.288,574.496,38.168Q574.928,37.736,575.264,37.256L570.128,37.88L570.128,19.88L568.832,21.224L565.04,21.224L568.352,24.152Q563.216,28.376,555.488,29.384L554.672,26.504Q559.424,24.584,562.448,21.224L554.24,21.224L554.24,30.392Q554.24,35.72,552.704,39.176Q551.36,42.632,548.672,45.512L546.896,44.264Q548.432,37.832,548.432,30.056L548.432,16.136L554.24,17L554.24,17.816L558.128,17.816Q559.952,14.12,561.104,9.56L554.72,9.56Q556.736,11.096,558.944,13.256L554.336,16.616Q552.848,13.016,551.168,10.424L552.368,9.56L549.392,9.56L548.528,6.152L556.64,6.152Q555.2,4.808,553.616,3.656L556.016,0.728001Q559.904,2.312,562.304,4.376L560.72,6.152L563.696,6.152ZM565.52,35.288L570.464,39.656Q563.312,44.312,552.608,45.464L551.744,42.392Q560.288,40.04,565.52,35.288ZM564.224,27.512L569.024,31.784Q563.36,36.44,554.96,37.592L554.144,34.664Q560.384,32.312,564.224,27.512ZM616.064,15.272L616.064,7.64L605.696,7.64L604.784,4.184L616.112,4.184L619.04,1.736L624.368,5.864L622.736,7.544L622.736,19.88L616.064,20.744L616.064,18.776L613.232,18.776L612.32,25.592L615.2,25.592L618.416,22.136L624.176,26.84L622.16,28.712Q622.16,46.28,614.912,46.28L611.456,46.28Q611.36,42.92,607.088,42.056L607.328,39.032Q609.968,39.656,613.52,39.656Q614.96,39.656,615.104,36.584L615.296,29.048L611.84,29.048L611.84,29.144L605.36,29.144Q606.464,20.408,607.376,14.168L613.712,15.176L613.712,15.272L616.064,15.272ZM625.328,2.072L631.136,2.744L631.136,3.56L640.88,3.56L643.376,1.496L648.416,6.008L646.4,8.168L646.4,15.752L640.688,16.28L640.688,14.888L639.008,14.888L639.008,19.496L642.128,19.496L644.576,17.336L649.424,21.656L647.6,23.768L647.6,34.712L641.504,35.24L641.504,33.656L639.008,33.656L639.008,38.888Q640.64,38.744,642.128,38.6Q641.792,37.592,641.408,36.632L645.2,35.144Q647.696,38.744,649.376,43.496L643.808,45.56Q643.616,44.216,643.328,42.968Q633.92,44.984,624.032,46.184L622.544,39.752Q628.064,39.656,633.008,39.368L633.008,33.656L630.608,33.656L630.608,35.048L624.32,35.816L624.32,18.056L630.608,18.776L630.608,19.496L633.008,19.496L633.008,14.888L631.136,14.888L631.136,15.752L625.328,16.472L625.328,2.072ZM630.608,30.152L633.008,30.152L633.008,23.096L630.608,23.096L630.608,30.152ZM639.008,30.152L641.504,30.152L641.504,23.096L639.008,23.096L639.008,30.152ZM631.136,11.48L640.688,11.48L640.688,7.112L631.136,7.112L631.136,11.48ZM700.304,6.776L702.992,4.184L707.6,8.216L705.44,10.232L694.448,10.232L699.344,10.808L699.344,14.168L699.872,14.168L702.608,11.576L707.168,15.608L705.008,17.576L699.344,17.576L699.344,24.632L691.616,25.64L691.616,24.248L684.752,24.248L684.752,25.352L677.216,26.312L677.216,17.576L673.088,17.576L673.088,25.16Q673.088,26.312,673.04,27.32L693.728,27.32L697.76,25.16L704.624,30.152L701.408,31.928Q698.816,34.904,695.6,37.304Q699.68,38.792,707.12,39.176L704.624,45.992Q695.312,45.176,688.64,41.384Q681.056,44.888,670.928,46.088L669.632,42.632Q677.744,40.472,683.36,37.592Q680.096,34.712,677.744,30.872L673.856,30.872L672.992,28.376Q672.608,33.704,671.072,37.352Q669.296,42.104,665.792,46.136L662.576,43.88Q665.36,35.192,665.36,24.728L665.36,3.992L673.088,5.144L673.088,6.776L685.52,6.776Q683.744,5.288,681.872,4.088L685.712,1.304Q689.408,2.6,693.584,4.664L690.656,6.776L700.304,6.776ZM683.936,30.872Q686.336,32.792,688.88,34.232Q691.04,32.648,692.576,30.872L683.936,30.872ZM684.752,20.696L691.616,20.696L691.616,17.576L684.752,17.576L684.752,20.696ZM691.616,14.168L691.616,10.232L680,10.232L684.752,10.808L684.752,14.168L691.616,14.168ZM677.216,14.168L677.216,10.232L673.088,10.232L673.088,14.168L677.216,14.168Z" fill="#000000" fill-opacity="1"/></g><g><path d="M374.589,77L376.298,69.1113Q376.736,67.10156,377.003,64.9209Q377.269,62.74023,377.269,60.89453Q377.269,60.4707,377.255,60.14258L378.759,59.45898L378.759,59.8418Q378.759,60.74414,378.595,62.75391Q378.431,64.76367,378.254,65.84375Q379.088,63.88867,380.332,62.21387Q381.576,60.53906,382.881,59.56836Q384.187,58.597656,385.254,58.597656Q386.32,58.597656,386.969,59.45215Q387.619,60.30664,387.619,61.74219Q387.619,63.54688,386.839,65.36523Q386.06,67.18359,384.714,68.7148Q383.367,70.2461,381.76,71.1279Q380.154,72.0098,378.582,72.0098Q378.226,72.0098,377.748,71.9141L378.472,70.9434Q379.142,71.1621,379.839,71.1621Q380.974,71.1621,382.116,70.4033Q383.257,69.6445,384.16,68.2637Q384.994,66.99219,385.582,65.09863Q386.17,63.20508,386.17,61.82422Q386.17,60.67578,385.78,60.0332Q385.39,59.39062,384.693,59.39062Q383.709,59.39062,382.423,60.51855Q381.138,61.64648,379.908,63.57422Q379.019,64.94141,378.424,66.52734Q377.83,68.1133,377.365,70.2051L375.888,77L374.589,77ZM393.134,57.736328L389.538,73.5L389.415,74.0332Q389.238,74.7852,389.238,75.3047Q389.238,75.7285,389.395,75.99510000000001Q389.552,76.2617,389.784,76.2617Q390.208,76.2617,391.138,75.25L391.357,75.4414L391.22,75.5918Q390.441,76.5078,390.072,76.8291Q389.702,77.1504,389.388,77.1504Q388.978,77.1504,388.67,76.69239999999999Q388.363,76.2344,388.363,75.6465Q388.363,75.2363,388.54,74.3477L391.698,58.433594L393.134,57.736328ZM399.032,74.8809L399.278,75.0859Q398.43,76.207,397.624,76.70609999999999Q396.817,77.2051,395.888,77.2051Q394.78,77.2051,394.11,76.4668Q393.44,75.7285,393.44,74.5117Q393.44,73.2812,394.09,72.0166Q394.739,70.752,395.717,69.9248Q396.694,69.0977,397.651,69.0977Q398.212,69.0977,398.574,69.4258Q398.936,69.7539,398.936,70.2734Q398.936,71.3262,397.788,72.3789Q396.639,73.4316,394.657,74.1699Q394.643,74.2793,394.643,74.416Q394.643,75.3594,395.163,75.9541Q395.682,76.5488,396.503,76.5488Q397.145,76.5488,397.747,76.1455Q398.348,75.7422,399.032,74.8809ZM394.657,73.8418Q396.134,73.1855,396.927,72.3789Q397.46,71.832,397.788,71.2031Q398.116,70.5742,398.116,70.0684Q398.116,69.4258,397.528,69.4258Q396.639,69.4258,395.73,70.8271Q394.821,72.2285,394.657,73.8418ZM409.332,68.9199L408.047,73.9238Q407.842,74.7441,407.842,75.209Q407.842,75.6191,408.02,75.9199Q408.198,76.2207,408.457,76.2207Q408.854,76.2207,409.77,75.25L409.961,75.4414L409.811,75.6191Q409.086,76.4531,408.697,76.7881Q408.307,77.123,408.02,77.123Q407.582,77.123,407.261,76.66499999999999Q406.94,76.207,406.94,75.6055Q406.94,75.168,407.268,73.623L407.377,73.1035Q406.872,74.2793,406.024,75.3594Q404.602,77.1641,403.303,77.1641Q402.524,77.1641,402.073,76.6035Q401.622,76.043,401.622,75.0996Q401.622,73.8145,402.353,72.4062Q403.084,70.998,404.171,70.0889Q405.258,69.1797,406.284,69.1797Q407.364,69.1797,407.897,69.9727L408.047,69.4531L409.332,68.9199ZM407.76,70.6699Q407.596,70.1504,407.206,69.85640000000001Q406.817,69.5625,406.311,69.5625Q405.709,69.5625,405.039,70.11619999999999Q404.37,70.6699,403.809,71.6543Q403.372,72.4336,403.078,73.377Q402.784,74.3203,402.784,74.9355Q402.784,75.6328,403.05,76.0293Q403.317,76.4258,403.809,76.4258Q404.438,76.4258,405.122,75.8379Q405.805,75.25,406.475,74.1562Q406.885,73.5273,407.118,72.8984Q407.35,72.2695,407.637,71.1484L407.76,70.6699ZM411.375,76.125L412.141,75.2227Q412.742,76.6445,414.055,76.6445Q414.738,76.6445,415.224,76.2002Q415.709,75.7559,415.709,75.168Q415.709,74.7441,415.477,74.4434Q415.244,74.1426,414.369,73.4316Q413.563,72.7754,413.282,72.3994Q413.002,72.0234,413.002,71.5312Q413.002,70.8887,413.378,70.3418Q413.754,69.7949,414.383,69.46000000000001Q415.012,69.125,415.709,69.125Q416.324,69.125,416.741,69.43260000000001Q417.158,69.7402,417.158,70.2188Q417.158,70.8477,416.625,71.0801Q416.543,70.4375,416.14,70.0752Q415.736,69.7129,415.107,69.7129Q414.547,69.7129,414.13,70.0752Q413.713,70.4375,413.713,70.9023Q413.713,71.4766,414.424,72.0371L415.217,72.6797Q416.379,73.5957,416.379,74.5527Q416.379,75.2637,415.976,75.8857Q415.572,76.5078,414.882,76.877Q414.191,77.2461,413.426,77.2461Q412.209,77.2461,411.375,76.125ZM425.08,74.8809L425.326,75.0859Q424.478,76.207,423.672,76.70609999999999Q422.865,77.2051,421.935,77.2051Q420.828,77.2051,420.158,76.4668Q419.488,75.7285,419.488,74.5117Q419.488,73.2812,420.137,72.0166Q420.787,70.752,421.764,69.9248Q422.742,69.0977,423.699,69.0977Q424.259,69.0977,424.622,69.4258Q424.984,69.7539,424.984,70.2734Q424.984,71.3262,423.836,72.3789Q422.687,73.4316,420.705,74.1699Q420.691,74.2793,420.691,74.416Q420.691,75.3594,421.211,75.9541Q421.73,76.5488,422.55,76.5488Q423.193,76.5488,423.795,76.1455Q424.396,75.7422,425.08,74.8809ZM420.705,73.8418Q422.181,73.1855,422.974,72.3789Q423.507,71.832,423.836,71.2031Q424.164,70.5742,424.164,70.0684Q424.164,69.4258,423.576,69.4258Q422.687,69.4258,421.778,70.8271Q420.869,72.2285,420.705,73.8418ZM441.634,68.9199L440.348,73.9238Q440.143,74.7441,440.143,75.209Q440.143,75.6191,440.321,75.9199Q440.499,76.2207,440.759,76.2207Q441.155,76.2207,442.071,75.25L442.263,75.4414L442.112,75.6191Q441.388,76.4531,440.998,76.7881Q440.608,77.123,440.321,77.123Q439.884,77.123,439.562,76.66499999999999Q439.241,76.207,439.241,75.6055Q439.241,75.168,439.569,73.623L439.679,73.1035Q439.173,74.2793,438.325,75.3594Q436.903,77.1641,435.604,77.1641Q434.825,77.1641,434.374,76.6035Q433.923,76.043,433.923,75.0996Q433.923,73.8145,434.654,72.4062Q435.386,70.998,436.472,70.0889Q437.559,69.1797,438.585,69.1797Q439.665,69.1797,440.198,69.9727L440.348,69.4531L441.634,68.9199ZM440.061,70.6699Q439.897,70.1504,439.508,69.85640000000001Q439.118,69.5625,438.612,69.5625Q438.011,69.5625,437.341,70.11619999999999Q436.671,70.6699,436.11,71.6543Q435.673,72.4336,435.379,73.377Q435.085,74.3203,435.085,74.9355Q435.085,75.6328,435.351,76.0293Q435.618,76.4258,436.11,76.4258Q436.739,76.4258,437.423,75.8379Q438.106,75.25,438.776,74.1562Q439.186,73.5273,439.419,72.8984Q439.651,72.2695,439.938,71.1484L440.061,70.6699ZM454.354,57.736328L450.731,73.5Q450.444,74.7578,450.444,75.25Q450.444,75.6875,450.601,75.9609Q450.758,76.2344,451.032,76.2344Q451.387,76.2344,451.893,75.7012L452.289,75.3047Q452.303,75.291,452.317,75.2773Q452.331,75.2637,452.358,75.25L452.563,75.4414L452.454,75.5645Q451.934,76.1387,451.92,76.1523L451.469,76.6035Q451.127,76.9453,450.97,77.0342Q450.813,77.123,450.622,77.123Q450.17,77.123,449.87,76.6582Q449.569,76.1934,449.569,75.5918Q449.569,75.2363,449.76,74.293L449.911,73.5137Q449.555,74.375,448.789,75.3867Q447.409,77.1641,446.11,77.1641Q445.331,77.1641,444.879,76.5967Q444.428,76.0293,444.428,75.0586Q444.428,73.7051,445.139,72.31739999999999Q445.85,70.9297,446.951,70.0273Q448.051,69.125,449.145,69.125Q449.952,69.125,450.649,69.6035L452.877,58.433594L454.354,57.736328ZM450.526,70.2871Q450.403,69.918,450.02,69.69239999999999Q449.637,69.4668,449.2,69.4668Q448.557,69.4668,447.88,70.041Q447.204,70.6152,446.602,71.668Q446.164,72.4473,445.884,73.37010000000001Q445.604,74.293,445.604,75.0449Q445.604,75.7012,445.884,76.0977Q446.164,76.4941,446.657,76.4941Q447.231,76.4941,447.894,75.9062Q448.557,75.3184,449.227,74.2109Q449.678,73.459,449.938,72.6523Q450.252,71.6133,450.389,70.9844L450.526,70.2871ZM457.449,69.002L455.289,78.1758Q455.029,79.3105,454.811,79.8779Q454.592,80.4453,454.223,80.9375Q453.717,81.6211,452.972,81.9971Q452.227,82.373,451.393,82.373Q450.846,82.373,450.477,82.209L451.133,81.252Q451.693,81.6758,452.309,81.6758Q452.814,81.6758,453.266,81.3545Q453.717,81.0332,453.977,80.459Q454.168,80.0488,454.373,78.9141L456.123,69.5625L457.449,69.002ZM457.846,63.64258Q458.201,63.64258,458.42,63.86133Q458.639,64.08008,458.639,64.43555Q458.639,64.77734,458.406,65.00977Q458.174,65.24219,457.846,65.24219Q457.531,65.24219,457.285,64.99609Q457.039,64.75,457.039,64.43555Q457.039,64.10742,457.272,63.875Q457.504,63.64258,457.846,63.64258ZM462.636,69.002L461.31,74.293Q461.132,75.0039,461.132,75.4961Q461.132,75.9746,461.433,76.2617Q461.734,76.5488,462.213,76.5488Q463.375,76.5488,464.632,74.6484L464.687,74.5664Q464.714,74.4297,464.728,74.3477L465.589,69.5625L466.929,69.002L465.726,73.5Q465.425,74.6074,465.425,75.2773Q465.425,75.7148,465.576,75.9883Q465.726,76.2617,465.972,76.2617Q466.396,76.2617,467.326,75.25L467.545,75.4414L467.408,75.5918Q466.629,76.5078,466.259,76.8291Q465.89,77.1504,465.576,77.1504Q465.152,77.1504,464.858,76.7197Q464.564,76.2891,464.564,75.6465Q464.564,75.4414,464.578,75.2637Q463.156,77.1504,461.761,77.1504Q461.064,77.1504,460.647,76.7471Q460.23,76.3438,460.23,75.6738Q460.23,75.1543,460.38,74.4023L461.31,69.5625L462.636,69.002ZM468.945,76.125L469.71,75.2227Q470.312,76.6445,471.624,76.6445Q472.308,76.6445,472.793,76.2002Q473.279,75.7559,473.279,75.168Q473.279,74.7441,473.046,74.4434Q472.814,74.1426,471.939,73.4316Q471.132,72.7754,470.852,72.3994Q470.572,72.0234,470.572,71.5312Q470.572,70.8887,470.948,70.3418Q471.323,69.7949,471.952,69.46000000000001Q472.581,69.125,473.279,69.125Q473.894,69.125,474.311,69.43260000000001Q474.728,69.7402,474.728,70.2188Q474.728,70.8477,474.195,71.0801Q474.113,70.4375,473.709,70.0752Q473.306,69.7129,472.677,69.7129Q472.116,69.7129,471.699,70.0752Q471.282,70.4375,471.282,70.9023Q471.282,71.4766,471.993,72.0371L472.786,72.6797Q473.948,73.5957,473.948,74.5527Q473.948,75.2637,473.545,75.8857Q473.142,76.5078,472.451,76.877Q471.761,77.2461,470.995,77.2461Q469.779,77.2461,468.945,76.125ZM479.669,69.6992L478.63,74.252Q478.466,75.0039,478.466,75.3184Q478.466,75.8105,478.698,76.1113Q478.931,76.4121,479.313,76.4121Q479.682,76.4121,479.99,76.2002Q480.298,75.9883,480.927,75.3184L481.091,75.1543L481.296,75.3594Q480.489,76.3438,479.949,76.7471Q479.409,77.1504,478.889,77.1504Q478.233,77.1504,477.844,76.7197Q477.454,76.2891,477.454,75.5918Q477.454,75.0723,477.659,74.0879L478.548,69.6992L477.235,69.6992L477.331,69.2344L478.643,69.2344L479.409,65.54297L480.722,65.02344L479.764,69.2344L481.979,69.2344L481.884,69.6992L479.669,69.6992ZM492.34,69.6992L491.301,74.252Q491.137,75.0039,491.137,75.3184Q491.137,75.8105,491.369,76.1113Q491.602,76.4121,491.984,76.4121Q492.354,76.4121,492.661,76.2002Q492.969,75.9883,493.598,75.3184L493.762,75.1543L493.967,75.3594Q493.16,76.3438,492.62,76.7471Q492.08,77.1504,491.561,77.1504Q490.904,77.1504,490.515,76.7197Q490.125,76.2891,490.125,75.5918Q490.125,75.0723,490.33,74.0879L491.219,69.6992L489.906,69.6992L490.002,69.2344L491.314,69.2344L492.08,65.54297L493.393,65.02344L492.436,69.2344L494.65,69.2344L494.555,69.6992L492.34,69.6992ZM496.091,77.1367L499.728,58.433594L501.164,57.736328L497.377,74.3887Q497.431,74.293,497.431,74.2656L497.746,73.5547Q498.552,71.7227,499.769,70.3828Q500.918,69.1387,501.888,69.1387Q502.408,69.1387,502.722,69.4736Q503.037,69.8086,503.037,70.3691Q503.037,70.6836,502.886,71.2578L502.75,71.832L502.326,73.5L502.203,74.0332Q501.998,74.8535,501.998,75.291Q501.998,75.7285,502.148,75.99510000000001Q502.298,76.2617,502.545,76.2617Q502.968,76.2617,503.898,75.25L504.103,75.4414L503.98,75.5918Q503.201,76.5078,502.825,76.8291Q502.449,77.1504,502.148,77.1504Q501.724,77.1504,501.423,76.6992Q501.123,76.248,501.123,75.6465Q501.123,75.2773,501.3,74.3477L501.82,71.4492Q501.943,70.8066,501.943,70.4922Q501.943,70.2051,501.793,70.0547Q501.642,69.9043,501.382,69.9043Q500.877,69.9043,500.22,70.499Q499.564,71.0938,498.901,72.1465Q498.238,73.1992,497.746,74.3955Q497.254,75.5918,497.007,76.8496L496.091,77.1367ZM511.861,74.8809L512.107,75.0859Q511.259,76.207,510.452,76.70609999999999Q509.646,77.2051,508.716,77.2051Q507.609,77.2051,506.939,76.4668Q506.269,75.7285,506.269,74.5117Q506.269,73.2812,506.918,72.0166Q507.568,70.752,508.545,69.9248Q509.523,69.0977,510.48,69.0977Q511.04,69.0977,511.403,69.4258Q511.765,69.7539,511.765,70.2734Q511.765,71.3262,510.616,72.3789Q509.468,73.4316,507.486,74.1699Q507.472,74.2793,507.472,74.416Q507.472,75.3594,507.991,75.9541Q508.511,76.5488,509.331,76.5488Q509.974,76.5488,510.575,76.1455Q511.177,75.7422,511.861,74.8809ZM507.486,73.8418Q508.962,73.1855,509.755,72.3789Q510.288,71.832,510.616,71.2031Q510.945,70.5742,510.945,70.0684Q510.945,69.4258,510.357,69.4258Q509.468,69.4258,508.559,70.8271Q507.65,72.2285,507.486,73.8418ZM524.313,58.433594L525.762,57.736328L521.825,74.5938Q524.286,69.0977,526.651,69.0977Q527.129,69.0977,527.505,69.3506Q527.881,69.6035,528.093,70.0957Q528.305,70.5879,528.305,71.1348Q528.305,72.1738,527.813,73.4385Q527.321,74.7031,526.569,75.6055Q525.229,77.2324,523.616,77.2324Q523.11,77.2324,522.645,77.0615Q522.18,76.8906,521.606,76.4941L520.649,77.0684L524.313,58.433594ZM521.825,75.6055Q522.44,76.8906,523.588,76.8906Q524.409,76.8906,525.113,76.1797Q525.817,75.4688,526.364,74.1152Q526.678,73.3496,526.883,72.4541Q527.088,71.5586,527.088,71.0254Q527.088,69.7402,526.186,69.7402Q525.584,69.7402,524.819,70.4785Q524.053,71.2168,523.281,72.5361Q522.508,73.8555,521.825,75.6055ZM536.418,74.8809L536.664,75.0859Q535.816,76.207,535.01,76.70609999999999Q534.203,77.2051,533.273,77.2051Q532.166,77.2051,531.496,76.4668Q530.826,75.7285,530.826,74.5117Q530.826,73.2812,531.476,72.0166Q532.125,70.752,533.103,69.9248Q534.08,69.0977,535.037,69.0977Q535.598,69.0977,535.96,69.4258Q536.322,69.7539,536.322,70.2734Q536.322,71.3262,535.174,72.3789Q534.025,73.4316,532.043,74.1699Q532.029,74.2793,532.029,74.416Q532.029,75.3594,532.549,75.9541Q533.068,76.5488,533.889,76.5488Q534.531,76.5488,535.133,76.1455Q535.734,75.7422,536.418,74.8809ZM532.043,73.8418Q533.52,73.1855,534.312,72.3789Q534.846,71.832,535.174,71.2031Q535.502,70.5742,535.502,70.0684Q535.502,69.4258,534.914,69.4258Q534.025,69.4258,533.116,70.8271Q532.207,72.2285,532.043,73.8418ZM546.718,68.9199L545.433,73.9238Q545.228,74.7441,545.228,75.209Q545.228,75.6191,545.406,75.9199Q545.584,76.2207,545.843,76.2207Q546.24,76.2207,547.156,75.25L547.347,75.4414L547.197,75.6191Q546.472,76.4531,546.083,76.7881Q545.693,77.123,545.406,77.123Q544.968,77.123,544.647,76.66499999999999Q544.326,76.207,544.326,75.6055Q544.326,75.168,544.654,73.623L544.763,73.1035Q544.257,74.2793,543.41,75.3594Q541.988,77.1641,540.689,77.1641Q539.91,77.1641,539.459,76.6035Q539.007,76.043,539.007,75.0996Q539.007,73.8145,539.739,72.4062Q540.47,70.998,541.557,70.0889Q542.644,69.1797,543.67,69.1797Q544.75,69.1797,545.283,69.9727L545.433,69.4531L546.718,68.9199ZM545.146,70.6699Q544.982,70.1504,544.592,69.85640000000001Q544.203,69.5625,543.697,69.5625Q543.095,69.5625,542.425,70.11619999999999Q541.755,70.6699,541.195,71.6543Q540.757,72.4336,540.464,73.377Q540.17,74.3203,540.17,74.9355Q540.17,75.6328,540.436,76.0293Q540.703,76.4258,541.195,76.4258Q541.824,76.4258,542.507,75.8379Q543.191,75.25,543.861,74.1562Q544.271,73.5273,544.504,72.8984Q544.736,72.2695,545.023,71.1484L545.146,70.6699ZM552.288,69.002L550.962,74.293Q550.784,75.0039,550.784,75.4961Q550.784,75.9746,551.085,76.2617Q551.386,76.5488,551.864,76.5488Q553.027,76.5488,554.284,74.6484L554.339,74.5664Q554.366,74.4297,554.38,74.3477L555.241,69.5625L556.581,69.002L555.378,73.5Q555.077,74.6074,555.077,75.2773Q555.077,75.7148,555.228,75.9883Q555.378,76.2617,555.624,76.2617Q556.048,76.2617,556.978,75.25L557.196,75.4414L557.06,75.5918Q556.28,76.5078,555.911,76.8291Q555.542,77.1504,555.228,77.1504Q554.804,77.1504,554.51,76.7197Q554.216,76.2891,554.216,75.6465Q554.216,75.4414,554.23,75.2637Q552.808,77.1504,551.413,77.1504Q550.716,77.1504,550.299,76.7471Q549.882,76.3438,549.882,75.6738Q549.882,75.1543,550.032,74.4023L550.962,69.5625L552.288,69.002ZM561.96,69.6992L560.921,74.252Q560.757,75.0039,560.757,75.3184Q560.757,75.8105,560.989,76.1113Q561.221,76.4121,561.604,76.4121Q561.973,76.4121,562.281,76.2002Q562.589,75.9883,563.218,75.3184L563.382,75.1543L563.587,75.3594Q562.78,76.3438,562.24,76.7471Q561.7,77.1504,561.18,77.1504Q560.524,77.1504,560.135,76.7197Q559.745,76.2891,559.745,75.5918Q559.745,75.0723,559.95,74.0879L560.839,69.6992L559.526,69.6992L559.622,69.2344L560.934,69.2344L561.7,65.54297L563.013,65.02344L562.055,69.2344L564.27,69.2344L564.175,69.6992L561.96,69.6992ZM564.549,81.8535L565.219,80.9512Q566.012,81.7988,567.01,81.7988Q568.063,81.7988,568.705,80.9648Q569.348,80.1309,569.758,78.2305L570.387,75.4004Q568.883,77.1641,567.666,77.1641Q566.955,77.1641,566.552,76.7266Q566.149,76.2891,566.149,75.5508Q566.149,75.0586,566.272,74.4707L567.202,69.5625L568.528,69.002L567.202,74.5117Q567.037,75.1816,567.037,75.5098Q567.037,75.9746,567.318,76.26859999999999Q567.598,76.5625,568.063,76.5625Q568.569,76.5625,569.177,76.1182Q569.786,75.6738,570.537,74.7852L571.713,69.5625L572.998,69.002L571.002,77.041Q570.647,78.4902,570.326,79.3105Q570.004,80.1309,569.58,80.6777Q568.241,82.4004,566.313,82.4004Q565.192,82.4004,564.549,81.8535ZM584.726,63.64258Q585.082,63.64258,585.3,63.86133Q585.519,64.08008,585.519,64.43555Q585.519,64.77734,585.287,65.00977Q585.054,65.24219,584.726,65.24219Q584.412,65.24219,584.166,64.99609Q583.919,64.75,583.919,64.43555Q583.919,64.10742,584.152,63.875Q584.384,63.64258,584.726,63.64258ZM584.33,69.002L583.127,73.5Q582.826,74.6074,582.826,75.2773Q582.826,75.7148,582.976,75.9883Q583.127,76.2617,583.373,76.2617Q583.796,76.2617,584.726,75.25L584.945,75.4414L584.808,75.5918Q584.029,76.5078,583.66,76.8291Q583.291,77.1504,582.976,77.1504Q582.552,77.1504,582.258,76.7197Q581.964,76.2891,581.964,75.6465Q581.964,75.2363,582.128,74.3477L582.99,69.5625L584.33,69.002ZM587.165,77.1367L588.614,69.5625L589.913,69.002L588.737,74.0195Q589.872,71.627,590.993,70.3828Q592.114,69.1387,593.14,69.1387Q593.646,69.1387,593.96,69.4736Q594.275,69.8086,594.275,70.3691Q594.275,70.6836,594.124,71.2578L593.987,71.832L593.577,73.5L593.441,74.0332Q593.236,74.8535,593.236,75.291Q593.236,75.7285,593.386,75.99510000000001Q593.536,76.2617,593.782,76.2617Q594.206,76.2617,595.136,75.25L595.355,75.4414L595.218,75.5918Q594.439,76.5078,594.07,76.8291Q593.7,77.1504,593.386,77.1504Q592.962,77.1504,592.668,76.7197Q592.374,76.2891,592.374,75.6465Q592.374,75.209,592.538,74.3477L593.071,71.4492Q593.181,70.7656,593.181,70.4922Q593.181,70.2051,593.03,70.0547Q592.88,69.9043,592.62,69.9043Q591.677,69.9043,590.296,71.9277Q589.626,72.8984,589.189,73.8486Q588.751,74.7988,588.204,76.4805L588.081,76.8496L587.165,77.1367ZM600.118,69.6992L599.079,74.252Q598.915,75.0039,598.915,75.3184Q598.915,75.8105,599.147,76.1113Q599.38,76.4121,599.762,76.4121Q600.132,76.4121,600.439,76.2002Q600.747,75.9883,601.376,75.3184L601.54,75.1543L601.745,75.3594Q600.938,76.3438,600.398,76.7471Q599.858,77.1504,599.339,77.1504Q598.682,77.1504,598.293,76.7197Q597.903,76.2891,597.903,75.5918Q597.903,75.0723,598.108,74.0879L598.997,69.6992L597.684,69.6992L597.78,69.2344L599.093,69.2344L599.858,65.54297L601.171,65.02344L600.214,69.2344L602.428,69.2344L602.333,69.6992L600.118,69.6992ZM609.516,74.8809L609.762,75.0859Q608.914,76.207,608.108,76.70609999999999Q607.301,77.2051,606.371,77.2051Q605.264,77.2051,604.594,76.4668Q603.924,75.7285,603.924,74.5117Q603.924,73.2812,604.574,72.0166Q605.223,70.752,606.201,69.9248Q607.178,69.0977,608.135,69.0977Q608.696,69.0977,609.058,69.4258Q609.42,69.7539,609.42,70.2734Q609.42,71.3262,608.272,72.3789Q607.123,73.4316,605.141,74.1699Q605.127,74.2793,605.127,74.416Q605.127,75.3594,605.647,75.9541Q606.166,76.5488,606.987,76.5488Q607.629,76.5488,608.231,76.1455Q608.832,75.7422,609.516,74.8809ZM605.141,73.8418Q606.618,73.1855,607.411,72.3789Q607.944,71.832,608.272,71.2031Q608.6,70.5742,608.6,70.0684Q608.6,69.4258,608.012,69.4258Q607.123,69.4258,606.214,70.8271Q605.305,72.2285,605.141,73.8418ZM612.242,77.1367L613.691,69.5625L614.99,69.002L613.814,74.0195Q614.949,71.627,616.07,70.3828Q617.191,69.1387,618.217,69.1387Q618.723,69.1387,619.037,69.4736Q619.352,69.8086,619.352,70.3691Q619.352,70.6836,619.201,71.2578L619.064,71.832L618.654,73.5L618.518,74.0332Q618.312,74.8535,618.312,75.291Q618.312,75.7285,618.463,75.99510000000001Q618.613,76.2617,618.859,76.2617Q619.283,76.2617,620.213,75.25L620.432,75.4414L620.295,75.5918Q619.516,76.5078,619.146,76.8291Q618.777,77.1504,618.463,77.1504Q618.039,77.1504,617.745,76.7197Q617.451,76.2891,617.451,75.6465Q617.451,75.209,617.615,74.3477L618.148,71.4492Q618.258,70.7656,618.258,70.4922Q618.258,70.2051,618.107,70.0547Q617.957,69.9043,617.697,69.9043Q616.754,69.9043,615.373,71.9277Q614.703,72.8984,614.266,73.8486Q613.828,74.7988,613.281,76.4805L613.158,76.8496L612.242,77.1367ZM621.832,76.125L622.597,75.2227Q623.199,76.6445,624.511,76.6445Q625.195,76.6445,625.68,76.2002Q626.166,75.7559,626.166,75.168Q626.166,74.7441,625.933,74.4434Q625.701,74.1426,624.826,73.4316Q624.019,72.7754,623.739,72.3994Q623.459,72.0234,623.459,71.5312Q623.459,70.8887,623.835,70.3418Q624.211,69.7949,624.839,69.46000000000001Q625.468,69.125,626.166,69.125Q626.781,69.125,627.198,69.43260000000001Q627.615,69.7402,627.615,70.2188Q627.615,70.8477,627.082,71.0801Q627,70.4375,626.596,70.0752Q626.193,69.7129,625.564,69.7129Q625.003,69.7129,624.586,70.0752Q624.169,70.4375,624.169,70.9023Q624.169,71.4766,624.88,72.0371L625.673,72.6797Q626.836,73.5957,626.836,74.5527Q626.836,75.2637,626.432,75.8857Q626.029,76.5078,625.338,76.877Q624.648,77.2461,623.882,77.2461Q622.666,77.2461,621.832,76.125ZM633.075,63.64258Q633.431,63.64258,633.65,63.86133Q633.868,64.08008,633.868,64.43555Q633.868,64.77734,633.636,65.00977Q633.403,65.24219,633.075,65.24219Q632.761,65.24219,632.515,64.99609Q632.269,64.75,632.269,64.43555Q632.269,64.10742,632.501,63.875Q632.734,63.64258,633.075,63.64258ZM632.679,69.002L631.476,73.5Q631.175,74.6074,631.175,75.2773Q631.175,75.7148,631.325,75.9883Q631.476,76.2617,631.722,76.2617Q632.146,76.2617,633.075,75.25L633.294,75.4414L633.157,75.5918Q632.378,76.5078,632.009,76.8291Q631.64,77.1504,631.325,77.1504Q630.901,77.1504,630.608,76.7197Q630.314,76.2891,630.314,75.6465Q630.314,75.2363,630.478,74.3477L631.339,69.5625L632.679,69.002ZM637.989,69.6992L636.95,74.252Q636.786,75.0039,636.786,75.3184Q636.786,75.8105,637.018,76.1113Q637.251,76.4121,637.634,76.4121Q638.003,76.4121,638.31,76.2002Q638.618,75.9883,639.247,75.3184L639.411,75.1543L639.616,75.3594Q638.809,76.3438,638.269,76.7471Q637.729,77.1504,637.21,77.1504Q636.553,77.1504,636.164,76.7197Q635.774,76.2891,635.774,75.5918Q635.774,75.0723,635.979,74.0879L636.868,69.6992L635.555,69.6992L635.651,69.2344L636.964,69.2344L637.729,65.54297L639.042,65.02344L638.085,69.2344L640.3,69.2344L640.204,69.6992L637.989,69.6992ZM640.578,81.8535L641.248,80.9512Q642.041,81.7988,643.039,81.7988Q644.092,81.7988,644.735,80.9648Q645.377,80.1309,645.787,78.2305L646.416,75.4004Q644.912,77.1641,643.696,77.1641Q642.985,77.1641,642.581,76.7266Q642.178,76.2891,642.178,75.5508Q642.178,75.0586,642.301,74.4707L643.231,69.5625L644.557,69.002L643.231,74.5117Q643.067,75.1816,643.067,75.5098Q643.067,75.9746,643.347,76.26859999999999Q643.627,76.5625,644.092,76.5625Q644.598,76.5625,645.206,76.1182Q645.815,75.6738,646.567,74.7852L647.743,69.5625L649.028,69.002L647.032,77.041Q646.676,78.4902,646.355,79.3105Q646.034,80.1309,645.61,80.6777Q644.27,82.4004,642.342,82.4004Q641.221,82.4004,640.578,81.8535Z" fill="#000000" fill-opacity="1"/></g></g></svg>