<svg xmlns="http://www.w3.org/2000/svg" xmlns:xlink="http://www.w3.org/1999/xlink" fill="none" version="1.1" width="1024" height="91" viewBox="0 0 1024 91"><g><g><path d="M326.096,4.52L328.352,2.696L332,6.008L330.08,7.88L321.44,7.88L321.44,10.808L325.52,10.808L327.776,8.936L331.472,12.248L329.504,14.168L321.44,14.168L321.44,17.144L326.864,17.144L329.12,15.272L332.816,18.584L330.848,20.504L303.296,20.504L302.48,17.144L313.904,17.144L313.904,14.168L305.84,14.168L305.024,10.808L313.904,10.808L313.904,7.88L303.68,7.88L302.864,4.52L313.904,4.52L313.904,0.776001L321.44,1.736L321.44,4.52L326.096,4.52ZM306.128,21.272L313.136,22.088L313.136,23.288L322.928,23.288L325.904,20.696L331.76,25.064L330.416,26.936L330.416,42.008Q330.416,46.328,326.144,46.328L322.352,46.328Q322.352,43.304,317.456,43.304L317.504,40.328Q319.904,40.232,322.016,40.232Q323.072,40.232,323.072,39.08L323.072,38.216L313.136,38.216L313.136,45.656L306.128,46.568L306.128,21.272ZM323.072,34.76L323.072,32.408L313.136,32.408L313.136,34.76L323.072,34.76ZM323.072,28.952L323.072,26.648L313.136,26.648L313.136,28.952L323.072,28.952ZM291.968,2.216Q297.584,4.712,301.04,7.928L296.192,13.4Q292.976,9.368,288.848,6.104L291.968,2.216ZM292.832,17.768L296.192,14.216L302.384,19.064L299.984,20.984L299.984,35.096Q301.712,34.376,303.44,33.512L305.168,37.112Q301.04,41.432,295.184,45.56L291.632,38.024Q292.496,37.784,293.36,37.496L293.36,25.208L293.264,25.208L293.264,21.8L289.184,21.8L288.224,17.768L292.832,17.768ZM363.536,2.552L370.4,4.616Q369.632,6.344,368.816,7.784L371.024,7.784L371.024,1.64L378.656,2.6L378.656,7.784L380.288,7.784L383.024,5.288L387.632,9.32L385.472,11.432L378.656,11.432L378.656,16.424L382.448,16.424L385.184,13.976L389.744,18.008L387.584,20.168L381.872,20.168L381.872,29.144Q381.872,30.008,382.352,30.008L383.312,30.008Q384.272,30.008,384.416,29.432L385.28,25.592L387.92,25.976Q387.872,27.032,387.872,27.8Q387.872,30.92,390.56,31.976Q389.12,35.96,385.28,35.96L379.328,35.96Q375.2,35.96,374.96,31.352L374.96,20.168L371.936,20.168L371.936,22.568Q371.936,32.072,361.136,36.44L359.264,33.8Q365.024,29.288,365.024,21.848L365.024,20.168L359.984,20.168L359.024,16.424L371.024,16.424L371.024,11.432L366.464,11.432Q364.592,13.976,362.576,15.704L359.6,14.072Q362.528,8.552,363.536,2.552ZM350.576,3.416Q356.192,6.536,359.552,9.704L353.744,15.608Q350.72,9.992,347.312,6.44L350.576,3.416ZM350.72,20.648L353.984,17.672L360.176,22.616L358.16,24.632L358.16,34.04Q358.832,38.456,364.832,38.456L390.896,38.456L388.832,44.936L365.072,44.936Q358.112,44.936,354.368,38.504Q353.36,41.24,349.616,46.28L345.152,40.616Q350.912,35.48,350.912,33.848L350.912,24.248L346.592,24.248L345.68,20.648L350.72,20.648ZM439.472,24.632L441.824,22.664L445.712,26.12L443.696,28.088L436.64,28.088L436.64,32.984L440.576,32.984L443.408,30.296L447.968,34.424L446,36.44L436.64,36.44L436.64,44.984L428.768,45.992L428.768,36.44L418.736,36.44L417.872,32.984L428.768,32.984L428.768,28.088L421.664,28.088L420.8,24.632L428.768,24.632L428.768,20.072Q424.736,21.368,419.936,21.704L418.784,18.44Q425.168,17,428.816,15.08Q425.264,12.008,422.72,7.64L420.416,7.64L419.6,4.088L438.08,4.088L440.816,1.448L447.824,6.536L444.992,7.496Q442.544,11.432,439.52,14.168Q442.976,15.128,448.256,15.368L445.904,21.8Q438.848,21.128,433.472,18.248Q432.032,18.968,430.496,19.496L436.64,20.216L436.64,24.632L439.472,24.632ZM427.328,7.64Q430.4,10.088,433.616,11.768Q435.776,9.848,436.88,7.64L427.328,7.64ZM415.76,10.28L418.304,7.736L422.816,11.768L420.656,13.736L415.472,13.736L415.472,22.04Q417.344,21.368,418.736,20.696L420.224,23.768Q418.352,25.496,415.472,27.32L415.472,40.472Q415.472,46.472,410.096,46.472L406.976,46.472Q406.976,42.392,402.944,42.2L403.184,38.6Q405.104,39.464,406.688,39.464Q407.936,39.464,407.936,38.12L407.936,31.496Q406.496,32.168,404.96,32.888L402.704,25.832Q404.912,25.304,407.936,24.392L407.936,13.736L403.856,13.736L402.944,10.28L407.936,10.28L407.936,1.256L415.472,2.216L415.472,10.28L415.76,10.28ZM498.56,3.752L501.2,1.4L505.472,5.24L503.456,7.256L499.616,7.256L503.696,10.904L501.728,12.824L496.208,12.824L502.064,17.288L500.528,18.824L500.528,24.632L495.536,25.496L497.552,26.504Q495.488,27.848,493.424,29L498.608,29L501.44,26.312L506.096,30.488L504.08,32.552L497.072,32.552L503.072,37.16L501.152,38.744L501.152,45.176L493.184,46.52L493.184,44.504L472.448,44.504L472.448,45.704L464.672,46.712L464.672,32.792L472.448,33.704L472.448,34.76L493.952,34.76L495.824,32.552L461.6,32.552L460.736,29L472.976,29Q471.392,27.464,469.376,25.88L469.952,25.352L464.864,25.976L464.864,12.824L463.52,12.824L462.656,9.416L478.256,9.416L478.256,7.256L462.032,7.256L461.168,3.752L478.256,3.752L478.256,1.112L486.608,2.168L486.608,3.752L498.56,3.752ZM492.56,21.032L492.56,18.152L472.592,18.152L472.592,21.032L492.56,21.032ZM472.592,14.6L493.184,14.6L494.864,12.824L466.064,12.824L472.592,13.592L472.592,14.6ZM489.296,24.344L473.12,24.344Q476.432,25.16,480.272,26.84L478.064,29L485.888,29Q487.856,26.696,489.296,24.344ZM486.608,7.256L486.608,9.416L496.88,9.416L499.328,7.256L486.608,7.256ZM493.184,41.192L493.184,38.312L472.448,38.312L472.448,41.192L493.184,41.192ZM521.264,16.376Q525.152,18.824,528.272,21.272Q529.664,16.28,529.952,11.288L520.832,11.288L519.92,7.784L530.288,7.784L532.592,6.008L538.592,10.136L536.624,11.912Q536.096,19.16,533.216,25.64Q536.72,29.24,538.784,32.792L533.888,38.6Q532.304,35.288,529.904,31.784Q526.592,36.872,521.84,41.48L518.576,39.128Q523.472,33.176,526.208,26.888Q523.232,23.192,519.488,19.4L521.264,16.376ZM542.144,1.64L549.728,2.984Q549.008,6.248,547.952,9.176L555.104,9.176L557.984,6.872L563.072,11.528L561.44,12.68L556.88,20.456L553.904,19.88L555.296,12.728L546.56,12.728Q544.064,18.392,540.224,22.808L536.912,20.12Q541.184,11.672,542.144,1.64ZM545.744,15.608L552.896,16.616L552.896,21.512Q552.896,24.536,552.368,27.224Q553.76,29.624,555.488,31.784Q558.128,35.048,562.448,37.448L558.128,45.224Q553.952,42.44,550.832,36.152Q550.256,35.048,549.824,33.944Q549.44,34.568,549.008,35.144Q545.648,40.52,538.928,44.984L534.992,42.248Q545.744,32.648,545.744,21.128L545.744,15.608ZM600.704,1.832L608.48,3.176Q607.52,6.968,605.984,10.328L611.6,10.328L614.672,7.064L620.48,11.912L619.232,13.448L619.232,26.456Q619.232,41.288,616.832,43.352Q615.344,45.512,610.976,45.512L607.472,45.512Q607.472,41.72,601.424,40.76L601.808,37.688L608.96,38.024Q610.736,38.024,611.024,37.256Q612.032,33.896,612.032,29.192L612.032,13.88L604.208,13.88Q601.52,18.632,597.68,22.472L596.48,21.512L596.48,44.12L589.616,44.744L589.616,41.96L584.048,41.96L584.048,44.696L577.472,45.56L577.472,7.544L583.28,8.168Q584.24,4.76,584.48,1.88L591.872,3.464Q589.808,7.064,587.456,9.608L589.808,9.608L592.064,7.016L598.208,11.48L596.48,13.4L596.48,16.904Q599.84,9.848,600.704,1.832ZM584.048,38.792L589.616,38.792L589.616,25.976L584.048,25.976L584.048,38.792ZM584.048,22.904L589.616,22.904L589.616,12.824L584.048,12.824L584.048,22.904ZM603.104,20.408Q607.376,24.2,610.256,28.472L604.016,32.792Q602.192,27.032,599.648,22.664L603.104,20.408ZM648.512,10.856L650.72,8.936L653.552,11.48L653.552,2.696L660.944,3.56L660.944,5.432L668.864,5.432L672.176,2.264L678.512,7.208L676.64,9.224L676.64,44.84L669.152,45.752L669.152,41.912L660.944,41.912L660.944,45.08L653.552,45.992L653.552,25.784L649.328,29.24Q648.656,26.456,647.792,23.576L647.792,45.224L640.352,46.136L640.352,29.576Q638.672,32.792,636.56,35.48L633.536,32.936Q637.76,23.864,639.152,14.456L634.64,14.456L633.68,10.856L640.352,10.856L640.352,1.4L647.792,2.264L647.792,10.856L648.512,10.856ZM660.944,38.648L669.152,38.648L669.152,30.296L660.944,30.296L660.944,38.648ZM660.944,27.032L669.152,27.032L669.152,18.968L660.944,18.968L660.944,27.032ZM660.944,15.656L669.152,15.656L669.152,8.552L660.944,8.552L660.944,15.656ZM653.552,23.288L653.552,13.592L652.736,14.456L647.792,14.456L647.792,14.792Q650.864,19.064,653.552,23.288ZM704.288,10.808L706.4,8.984L709.28,11.576L709.28,1.928L715.952,2.792L715.952,3.704L728.96,3.704L731.648,1.16L736.256,5.192L734.096,7.208L715.952,7.208L715.952,33.8L721.712,33.8L721.712,25.16L717.248,25.16L716.288,21.704L721.712,21.704L721.712,13.832L717.152,13.832L716.192,10.328L728.672,10.328L731.216,7.88L735.68,11.816L733.52,13.832L728.384,13.832L728.384,21.704L728.432,21.704L730.88,19.256L735.296,23.192L733.184,25.16L728.384,25.16L728.384,33.8L729.152,33.8L731.696,31.4L736.112,35.384L734,37.4L716.816,37.4L715.952,34.184L715.952,41.144L729.248,41.144L731.936,38.6L736.544,42.632L734.384,44.696L709.28,44.696L709.28,25.832L705.296,30.44Q704.672,26.936,703.664,23.912L703.664,45.272L696.992,46.088L696.992,30.92Q695.216,34.376,693.44,36.68L690.992,34.136Q694.688,24.632,696.176,14.312L692.336,14.312L691.424,10.808L696.992,10.808L696.992,1.64L703.664,2.408L703.664,10.808L704.288,10.808ZM709.28,22.568L709.28,13.304L708.368,14.312L703.664,14.312L703.664,14.504Q706.496,17.72,709.28,22.568Z" fill="#000000" fill-opacity="1"/></g><g><path d="M356.856,77L358.565,69.1113Q359.002,67.10156,359.269,64.9209Q359.535,62.74023,359.535,60.89453Q359.535,60.4707,359.522,60.14258L361.026,59.45898L361.026,59.8418Q361.026,60.74414,360.862,62.75391Q360.698,64.76367,360.52,65.84375Q361.354,63.88867,362.598,62.21387Q363.842,60.53906,365.148,59.56836Q366.453,58.597656,367.52,58.597656Q368.586,58.597656,369.236,59.45215Q369.885,60.30664,369.885,61.74219Q369.885,63.54688,369.106,65.36523Q368.326,67.18359,366.98,68.7148Q365.633,70.2461,364.027,71.1279Q362.42,72.0098,360.848,72.0098Q360.492,72.0098,360.014,71.9141L360.739,70.9434Q361.408,71.1621,362.106,71.1621Q363.24,71.1621,364.382,70.4033Q365.524,69.6445,366.426,68.2637Q367.26,66.99219,367.848,65.09863Q368.436,63.20508,368.436,61.82422Q368.436,60.67578,368.046,60.0332Q367.656,59.39062,366.959,59.39062Q365.975,59.39062,364.69,60.51855Q363.405,61.64648,362.174,63.57422Q361.285,64.94141,360.691,66.52734Q360.096,68.1133,359.631,70.2051L358.155,77L356.856,77ZM375.4,57.736328L371.805,73.5L371.681,74.0332Q371.504,74.7852,371.504,75.3047Q371.504,75.7285,371.661,75.99510000000001Q371.818,76.2617,372.051,76.2617Q372.474,76.2617,373.404,75.25L373.623,75.4414L373.486,75.5918Q372.707,76.5078,372.338,76.8291Q371.969,77.1504,371.654,77.1504Q371.244,77.1504,370.936,76.69239999999999Q370.629,76.2344,370.629,75.6465Q370.629,75.2363,370.806,74.3477L373.965,58.433594L375.4,57.736328ZM381.298,74.8809L381.544,75.0859Q380.697,76.207,379.89,76.70609999999999Q379.083,77.2051,378.154,77.2051Q377.046,77.2051,376.376,76.4668Q375.706,75.7285,375.706,74.5117Q375.706,73.2812,376.356,72.0166Q377.005,70.752,377.983,69.9248Q378.96,69.0977,379.917,69.0977Q380.478,69.0977,380.84,69.4258Q381.203,69.7539,381.203,70.2734Q381.203,71.3262,380.054,72.3789Q378.906,73.4316,376.923,74.1699Q376.91,74.2793,376.91,74.416Q376.91,75.3594,377.429,75.9541Q377.949,76.5488,378.769,76.5488Q379.412,76.5488,380.013,76.1455Q380.615,75.7422,381.298,74.8809ZM376.923,73.8418Q378.4,73.1855,379.193,72.3789Q379.726,71.832,380.054,71.2031Q380.382,70.5742,380.382,70.0684Q380.382,69.4258,379.794,69.4258Q378.906,69.4258,377.997,70.8271Q377.087,72.2285,376.923,73.8418ZM391.599,68.9199L390.314,73.9238Q390.108,74.7441,390.108,75.209Q390.108,75.6191,390.286,75.9199Q390.464,76.2207,390.724,76.2207Q391.12,76.2207,392.036,75.25L392.228,75.4414L392.077,75.6191Q391.353,76.4531,390.963,76.7881Q390.573,77.123,390.286,77.123Q389.849,77.123,389.527,76.66499999999999Q389.206,76.207,389.206,75.6055Q389.206,75.168,389.534,73.623L389.644,73.1035Q389.138,74.2793,388.29,75.3594Q386.868,77.1641,385.569,77.1641Q384.79,77.1641,384.339,76.6035Q383.888,76.043,383.888,75.0996Q383.888,73.8145,384.619,72.4062Q385.351,70.998,386.438,70.0889Q387.524,69.1797,388.55,69.1797Q389.63,69.1797,390.163,69.9727L390.314,69.4531L391.599,68.9199ZM390.026,70.6699Q389.862,70.1504,389.473,69.85640000000001Q389.083,69.5625,388.577,69.5625Q387.976,69.5625,387.306,70.11619999999999Q386.636,70.6699,386.075,71.6543Q385.638,72.4336,385.344,73.377Q385.05,74.3203,385.05,74.9355Q385.05,75.6328,385.316,76.0293Q385.583,76.4258,386.075,76.4258Q386.704,76.4258,387.388,75.8379Q388.071,75.25,388.741,74.1562Q389.151,73.5273,389.384,72.8984Q389.616,72.2695,389.903,71.1484L390.026,70.6699ZM393.641,76.125L394.407,75.2227Q395.008,76.6445,396.321,76.6445Q397.005,76.6445,397.49,76.2002Q397.975,75.7559,397.975,75.168Q397.975,74.7441,397.743,74.4434Q397.51,74.1426,396.635,73.4316Q395.829,72.7754,395.548,72.3994Q395.268,72.0234,395.268,71.5312Q395.268,70.8887,395.644,70.3418Q396.02,69.7949,396.649,69.46000000000001Q397.278,69.125,397.975,69.125Q398.59,69.125,399.007,69.43260000000001Q399.424,69.7402,399.424,70.2188Q399.424,70.8477,398.891,71.0801Q398.809,70.4375,398.406,70.0752Q398.003,69.7129,397.374,69.7129Q396.813,69.7129,396.396,70.0752Q395.979,70.4375,395.979,70.9023Q395.979,71.4766,396.69,72.0371L397.483,72.6797Q398.645,73.5957,398.645,74.5527Q398.645,75.2637,398.242,75.8857Q397.839,76.5078,397.148,76.877Q396.458,77.2461,395.692,77.2461Q394.475,77.2461,393.641,76.125ZM407.346,74.8809L407.592,75.0859Q406.744,76.207,405.938,76.70609999999999Q405.131,77.2051,404.201,77.2051Q403.094,77.2051,402.424,76.4668Q401.754,75.7285,401.754,74.5117Q401.754,73.2812,402.404,72.0166Q403.053,70.752,404.031,69.9248Q405.008,69.0977,405.965,69.0977Q406.526,69.0977,406.888,69.4258Q407.25,69.7539,407.25,70.2734Q407.25,71.3262,406.102,72.3789Q404.953,73.4316,402.971,74.1699Q402.957,74.2793,402.957,74.416Q402.957,75.3594,403.477,75.9541Q403.996,76.5488,404.817,76.5488Q405.459,76.5488,406.061,76.1455Q406.662,75.7422,407.346,74.8809ZM402.971,73.8418Q404.448,73.1855,405.24,72.3789Q405.774,71.832,406.102,71.2031Q406.43,70.5742,406.43,70.0684Q406.43,69.4258,405.842,69.4258Q404.953,69.4258,404.044,70.8271Q403.135,72.2285,402.971,73.8418ZM421.931,74.9492Q421.097,76.125,420.311,76.66499999999999Q419.525,77.2051,418.568,77.2051Q417.515,77.2051,416.852,76.4668Q416.189,75.7285,416.189,74.5527Q416.189,73.3223,416.831,72.0508Q417.474,70.7793,418.479,69.9453Q419.484,69.1113,420.414,69.1113Q421.042,69.1113,421.425,69.46000000000001Q421.808,69.8086,421.808,70.3965Q421.808,70.9297,421.405,71.41499999999999Q421.001,71.9004,420.537,71.9004Q420.331,71.9004,420.167,71.7363Q421.056,71.3398,421.056,70.2598Q421.056,69.877,420.858,69.66499999999999Q420.66,69.4531,420.331,69.4531Q419.826,69.4531,419.313,69.8633Q418.8,70.2734,418.349,71.00489999999999Q417.898,71.7363,417.645,72.5635Q417.392,73.3906,417.392,74.2383Q417.392,75.25,417.871,75.8789Q418.349,76.5078,419.128,76.5078Q419.798,76.5078,420.427,76.084Q421.056,75.6602,421.74,74.7852L421.931,74.9492ZM424.22,77.1367L427.857,58.433594L429.292,57.736328L425.505,74.3887Q425.56,74.293,425.56,74.2656L425.874,73.5547Q426.681,71.7227,427.898,70.3828Q429.046,69.1387,430.017,69.1387Q430.536,69.1387,430.851,69.4736Q431.165,69.8086,431.165,70.3691Q431.165,70.6836,431.015,71.2578L430.878,71.832L430.454,73.5L430.331,74.0332Q430.126,74.8535,430.126,75.291Q430.126,75.7285,430.276,75.99510000000001Q430.427,76.2617,430.673,76.2617Q431.097,76.2617,432.026,75.25L432.232,75.4414L432.108,75.5918Q431.329,76.5078,430.953,76.8291Q430.577,77.1504,430.276,77.1504Q429.853,77.1504,429.552,76.6992Q429.251,76.248,429.251,75.6465Q429.251,75.2773,429.429,74.3477L429.948,71.4492Q430.071,70.8066,430.071,70.4922Q430.071,70.2051,429.921,70.0547Q429.771,69.9043,429.511,69.9043Q429.005,69.9043,428.349,70.499Q427.692,71.0938,427.029,72.1465Q426.366,73.1992,425.874,74.3955Q425.382,75.5918,425.136,76.8496L424.22,77.1367ZM434.397,74.375Q434.397,73.1445,435.06,71.9209Q435.723,70.6973,436.776,69.9316Q437.829,69.166,438.923,69.166Q440.071,69.166,440.775,69.9248Q441.479,70.6836,441.479,71.8867Q441.479,73.1992,440.83,74.4297Q440.18,75.6602,439.121,76.44630000000001Q438.061,77.2324,436.981,77.2324Q435.819,77.2324,435.108,76.44630000000001Q434.397,75.6602,434.397,74.375ZM440.249,71.3672Q440.249,70.5469,439.845,70.0137Q439.442,69.4805,438.813,69.4805Q438.239,69.4805,437.713,69.8496Q437.186,70.2188,436.749,70.9297Q436.257,71.75,435.935,72.8438Q435.614,73.9375,435.614,74.7852Q435.614,75.7969,436.01,76.3438Q436.407,76.8906,437.145,76.8906Q438.335,76.8906,439.237,75.2363Q439.702,74.3887,439.975,73.3359Q440.249,72.2832,440.249,71.3672ZM444,74.375Q444,73.1445,444.663,71.9209Q445.326,70.6973,446.379,69.9316Q447.432,69.166,448.526,69.166Q449.674,69.166,450.378,69.9248Q451.082,70.6836,451.082,71.8867Q451.082,73.1992,450.433,74.4297Q449.783,75.6602,448.724,76.44630000000001Q447.664,77.2324,446.584,77.2324Q445.422,77.2324,444.711,76.44630000000001Q444,75.6602,444,74.375ZM449.852,71.3672Q449.852,70.5469,449.448,70.0137Q449.045,69.4805,448.416,69.4805Q447.842,69.4805,447.316,69.8496Q446.789,70.2188,446.352,70.9297Q445.86,71.75,445.538,72.8438Q445.217,73.9375,445.217,74.7852Q445.217,75.7969,445.614,76.3438Q446.01,76.8906,446.748,76.8906Q447.938,76.8906,448.84,75.2363Q449.305,74.3887,449.578,73.3359Q449.852,72.2832,449.852,71.3672ZM452.851,76.125L453.617,75.2227Q454.219,76.6445,455.531,76.6445Q456.215,76.6445,456.7,76.2002Q457.185,75.7559,457.185,75.168Q457.185,74.7441,456.953,74.4434Q456.721,74.1426,455.846,73.4316Q455.039,72.7754,454.759,72.3994Q454.478,72.0234,454.478,71.5312Q454.478,70.8887,454.854,70.3418Q455.23,69.7949,455.859,69.46000000000001Q456.488,69.125,457.185,69.125Q457.801,69.125,458.218,69.43260000000001Q458.635,69.7402,458.635,70.2188Q458.635,70.8477,458.101,71.0801Q458.019,70.4375,457.616,70.0752Q457.213,69.7129,456.584,69.7129Q456.023,69.7129,455.606,70.0752Q455.189,70.4375,455.189,70.9023Q455.189,71.4766,455.9,72.0371L456.693,72.6797Q457.855,73.5957,457.855,74.5527Q457.855,75.2637,457.452,75.8857Q457.049,76.5078,456.358,76.877Q455.668,77.2461,454.902,77.2461Q453.685,77.2461,452.851,76.125ZM466.556,74.8809L466.802,75.0859Q465.955,76.207,465.148,76.70609999999999Q464.341,77.2051,463.412,77.2051Q462.304,77.2051,461.634,76.4668Q460.964,75.7285,460.964,74.5117Q460.964,73.2812,461.614,72.0166Q462.263,70.752,463.241,69.9248Q464.218,69.0977,465.175,69.0977Q465.736,69.0977,466.098,69.4258Q466.46,69.7539,466.46,70.2734Q466.46,71.3262,465.312,72.3789Q464.164,73.4316,462.181,74.1699Q462.167,74.2793,462.167,74.416Q462.167,75.3594,462.687,75.9541Q463.207,76.5488,464.027,76.5488Q464.669,76.5488,465.271,76.1455Q465.873,75.7422,466.556,74.8809ZM462.181,73.8418Q463.658,73.1855,464.451,72.3789Q464.984,71.832,465.312,71.2031Q465.64,70.5742,465.64,70.0684Q465.64,69.4258,465.052,69.4258Q464.164,69.4258,463.254,70.8271Q462.345,72.2285,462.181,73.8418ZM478.01,69.6992L476.971,74.252Q476.807,75.0039,476.807,75.3184Q476.807,75.8105,477.04,76.1113Q477.272,76.4121,477.655,76.4121Q478.024,76.4121,478.332,76.2002Q478.639,75.9883,479.268,75.3184L479.432,75.1543L479.637,75.3594Q478.831,76.3438,478.291,76.7471Q477.751,77.1504,477.231,77.1504Q476.575,77.1504,476.185,76.7197Q475.796,76.2891,475.796,75.5918Q475.796,75.0723,476.001,74.0879L476.889,69.6992L475.577,69.6992L475.673,69.2344L476.985,69.2344L477.751,65.54297L479.063,65.02344L478.106,69.2344L480.321,69.2344L480.225,69.6992L478.01,69.6992ZM481.762,77.1367L485.399,58.433594L486.834,57.736328L483.047,74.3887Q483.102,74.293,483.102,74.2656L483.416,73.5547Q484.223,71.7227,485.44,70.3828Q486.588,69.1387,487.559,69.1387Q488.078,69.1387,488.393,69.4736Q488.707,69.8086,488.707,70.3691Q488.707,70.6836,488.557,71.2578L488.42,71.832L487.996,73.5L487.873,74.0332Q487.668,74.8535,487.668,75.291Q487.668,75.7285,487.819,75.99510000000001Q487.969,76.2617,488.215,76.2617Q488.639,76.2617,489.569,75.25L489.774,75.4414L489.651,75.5918Q488.871,76.5078,488.495,76.8291Q488.119,77.1504,487.819,77.1504Q487.395,77.1504,487.094,76.6992Q486.793,76.248,486.793,75.6465Q486.793,75.2773,486.971,74.3477L487.49,71.4492Q487.614,70.8066,487.614,70.4922Q487.614,70.2051,487.463,70.0547Q487.313,69.9043,487.053,69.9043Q486.547,69.9043,485.891,70.499Q485.235,71.0938,484.572,72.1465Q483.908,73.1992,483.416,74.3955Q482.924,75.5918,482.678,76.8496L481.762,77.1367ZM497.531,74.8809L497.777,75.0859Q496.93,76.207,496.123,76.70609999999999Q495.316,77.2051,494.387,77.2051Q493.279,77.2051,492.609,76.4668Q491.939,75.7285,491.939,74.5117Q491.939,73.2812,492.589,72.0166Q493.238,70.752,494.216,69.9248Q495.193,69.0977,496.15,69.0977Q496.711,69.0977,497.073,69.4258Q497.435,69.7539,497.435,70.2734Q497.435,71.3262,496.287,72.3789Q495.139,73.4316,493.156,74.1699Q493.142,74.2793,493.142,74.416Q493.142,75.3594,493.662,75.9541Q494.182,76.5488,495.002,76.5488Q495.644,76.5488,496.246,76.1455Q496.848,75.7422,497.531,74.8809ZM493.156,73.8418Q494.633,73.1855,495.426,72.3789Q495.959,71.832,496.287,71.2031Q496.615,70.5742,496.615,70.0684Q496.615,69.4258,496.027,69.4258Q495.139,69.4258,494.229,70.8271Q493.32,72.2285,493.156,73.8418ZM505.431,82.4277L508.015,69.5625L509.327,69.002L508.425,72.9258Q509.437,70.8887,510.332,69.9932Q511.228,69.0977,512.294,69.0977Q513.114,69.0977,513.593,69.6992Q514.071,70.3008,514.071,71.3535Q514.071,72.4199,513.641,73.541Q513.21,74.6621,512.431,75.5781Q511.023,77.2734,509.327,77.2734Q508.261,77.2734,507.577,76.7129L506.169,82.4277L505.431,82.4277ZM507.782,75.8105Q508.357,76.9316,509.396,76.9316Q510.899,76.9316,512.021,74.4844Q512.937,72.5156,512.937,71.1758Q512.937,70.4512,512.663,70.0547Q512.39,69.6582,511.884,69.6582Q511.064,69.6582,510.161,70.7383Q509.3,71.8047,508.698,73.1172Q508.466,73.6367,508.268,74.2246Q508.069,74.8125,507.892,75.4277L507.782,75.8105ZM516.551,77.1367L520.188,58.433594L521.624,57.736328L517.837,74.3887Q517.891,74.293,517.891,74.2656L518.206,73.5547Q519.012,71.7227,520.229,70.3828Q521.378,69.1387,522.348,69.1387Q522.868,69.1387,523.182,69.4736Q523.497,69.8086,523.497,70.3691Q523.497,70.6836,523.346,71.2578L523.21,71.832L522.786,73.5L522.663,74.0332Q522.458,74.8535,522.458,75.291Q522.458,75.7285,522.608,75.99510000000001Q522.758,76.2617,523.005,76.2617Q523.428,76.2617,524.358,75.25L524.563,75.4414L524.44,75.5918Q523.661,76.5078,523.285,76.8291Q522.909,77.1504,522.608,77.1504Q522.184,77.1504,521.883,76.6992Q521.583,76.248,521.583,75.6465Q521.583,75.2773,521.76,74.3477L522.28,71.4492Q522.403,70.8066,522.403,70.4922Q522.403,70.2051,522.253,70.0547Q522.102,69.9043,521.842,69.9043Q521.337,69.9043,520.68,70.499Q520.024,71.0938,519.361,72.1465Q518.698,73.1992,518.206,74.3955Q517.714,75.5918,517.467,76.8496L516.551,77.1367ZM526.729,74.375Q526.729,73.1445,527.392,71.9209Q528.055,70.6973,529.108,69.9316Q530.16,69.166,531.254,69.166Q532.403,69.166,533.107,69.9248Q533.811,70.6836,533.811,71.8867Q533.811,73.1992,533.161,74.4297Q532.512,75.6602,531.452,76.44630000000001Q530.393,77.2324,529.313,77.2324Q528.151,77.2324,527.44,76.44630000000001Q526.729,75.6602,526.729,74.375ZM532.58,71.3672Q532.58,70.5469,532.177,70.0137Q531.774,69.4805,531.145,69.4805Q530.571,69.4805,530.044,69.8496Q529.518,70.2188,529.08,70.9297Q528.588,71.75,528.267,72.8438Q527.946,73.9375,527.946,74.7852Q527.946,75.7969,528.342,76.3438Q528.739,76.8906,529.477,76.8906Q530.666,76.8906,531.569,75.2363Q532.033,74.3887,532.307,73.3359Q532.58,72.2832,532.58,71.3672ZM538.943,69.6992L537.904,74.252Q537.74,75.0039,537.74,75.3184Q537.74,75.8105,537.972,76.1113Q538.205,76.4121,538.588,76.4121Q538.957,76.4121,539.264,76.2002Q539.572,75.9883,540.201,75.3184L540.365,75.1543L540.57,75.3594Q539.763,76.3438,539.223,76.7471Q538.683,77.1504,538.164,77.1504Q537.508,77.1504,537.118,76.7197Q536.728,76.2891,536.728,75.5918Q536.728,75.0723,536.933,74.0879L537.822,69.6992L536.51,69.6992L536.605,69.2344L537.918,69.2344L538.683,65.54297L539.996,65.02344L539.039,69.2344L541.254,69.2344L541.158,69.6992L538.943,69.6992ZM542.749,74.375Q542.749,73.1445,543.413,71.9209Q544.076,70.6973,545.128,69.9316Q546.181,69.166,547.275,69.166Q548.423,69.166,549.127,69.9248Q549.831,70.6836,549.831,71.8867Q549.831,73.1992,549.182,74.4297Q548.533,75.6602,547.473,76.44630000000001Q546.414,77.2324,545.333,77.2324Q544.171,77.2324,543.46,76.44630000000001Q542.749,75.6602,542.749,74.375ZM548.601,71.3672Q548.601,70.5469,548.198,70.0137Q547.794,69.4805,547.165,69.4805Q546.591,69.4805,546.065,69.8496Q545.539,70.2188,545.101,70.9297Q544.609,71.75,544.288,72.8438Q543.966,73.9375,543.966,74.7852Q543.966,75.7969,544.363,76.3438Q544.759,76.8906,545.497,76.8906Q546.687,76.8906,547.589,75.2363Q548.054,74.3887,548.328,73.3359Q548.601,72.2832,548.601,71.3672ZM554.048,69.6992L552.708,69.6992L552.804,69.2344L554.157,69.2344L555.442,63.23242Q555.771,61.74219,556.112,60.85352Q556.454,59.96484,556.933,59.32227Q558.108,57.75,559.858,57.75Q560.446,57.75,560.938,57.9414062L560.446,59.18555Q559.899,58.419922,559.052,58.419922Q558.409,58.419922,558.006,58.918945Q557.603,59.41797,557.315,60.56641L555.224,69.2344L557.425,69.2344L557.329,69.6992L555.114,69.6992L553.241,77.4648Q552.872,79.0234,552.523,79.7891Q552.175,80.5547,551.573,81.2109Q550.479,82.4004,549.181,82.4004Q548.552,82.4004,548.06,82.1816L548.729,81.1973Q549.304,81.6621,549.974,81.6621Q550.985,81.6621,551.491,80.5957Q551.86,79.8027,552.271,77.9707L554.048,69.6992ZM558.237,73.1172Q559.413,71.6953,559.809,70.4648Q558.702,69.8496,558.702,68.7012Q558.702,68.1543,558.962,67.8125Q559.221,67.4707,559.618,67.4707Q560.028,67.4707,560.288,67.84667999999999Q560.547,68.2227,560.547,68.8242Q560.547,69.248,560.397,69.7676Q560.766,69.8633,561.067,69.8633Q561.915,69.8633,562.462,69.3711L563.118,69.3711L563.022,69.5625Q562.038,71.3672,561.402,73.1104Q560.766,74.8535,560.766,75.7148Q560.766,76.0293,560.93,76.24119999999999Q561.094,76.4531,561.327,76.4531Q561.887,76.4531,563.131,75.2637L563.35,75.5098Q562.967,75.9336,562.161,76.5625Q561.436,77.1367,560.807,77.1367Q560.274,77.1367,559.966,76.7812Q559.659,76.4258,559.659,75.8105Q559.659,74.7852,560.452,73.2129Q560.739,72.625,561.19,71.873Q561.641,71.1211,562.325,70.082L562.462,69.8906Q562.01,70.3008,561.593,70.4717Q561.176,70.6426,560.643,70.6426Q560.397,70.6426,560.124,70.5742Q559.686,71.9141,558.483,73.3359L558.237,73.1172ZM560.11,69.6445Q560.165,69.3027,560.165,69.0703Q560.165,68.5918,560.007,68.3184Q559.85,68.0449,559.604,68.0449Q559.467,68.0449,559.365,68.1748Q559.262,68.3047,559.262,68.4961Q559.262,69.1387,560.11,69.6445ZM573.404,68.9199L572.119,73.9238Q571.914,74.7441,571.914,75.209Q571.914,75.6191,572.092,75.9199Q572.27,76.2207,572.529,76.2207Q572.926,76.2207,573.842,75.25L574.033,75.4414L573.883,75.6191Q573.158,76.4531,572.769,76.7881Q572.379,77.123,572.092,77.123Q571.654,77.123,571.333,76.66499999999999Q571.012,76.207,571.012,75.6055Q571.012,75.168,571.34,73.623L571.449,73.1035Q570.944,74.2793,570.096,75.3594Q568.674,77.1641,567.375,77.1641Q566.596,77.1641,566.145,76.6035Q565.694,76.043,565.694,75.0996Q565.694,73.8145,566.425,72.4062Q567.156,70.998,568.243,70.0889Q569.33,69.1797,570.356,69.1797Q571.436,69.1797,571.969,69.9727L572.119,69.4531L573.404,68.9199ZM571.832,70.6699Q571.668,70.1504,571.279,69.85640000000001Q570.889,69.5625,570.383,69.5625Q569.781,69.5625,569.112,70.11619999999999Q568.442,70.6699,567.881,71.6543Q567.444,72.4336,567.15,73.377Q566.856,74.3203,566.856,74.9355Q566.856,75.6328,567.122,76.0293Q567.389,76.4258,567.881,76.4258Q568.51,76.4258,569.194,75.8379Q569.877,75.25,570.547,74.1562Q570.957,73.5273,571.19,72.8984Q571.422,72.2695,571.709,71.1484L571.832,70.6699ZM581.709,76.8496L580.806,77.1367L581.887,71.5723Q581.887,71.5723,581.982,71.0938Q582.064,70.6973,582.064,70.4375Q582.064,69.8359,581.586,69.8359Q581.135,69.8359,580.492,70.4443Q579.849,71.0527,579.138,72.2012Q578.674,72.9395,578.339,73.623Q578.004,74.3066,577.723,75.0791Q577.443,75.8516,577.183,76.8496L576.336,77.1367L577.744,69.5625L579.056,69.002L577.867,73.9648Q578.783,71.8457,579.966,70.4854Q581.148,69.125,582.092,69.125Q583.117,69.125,583.117,70.2871Q583.117,70.6836,582.912,71.6953L582.461,73.7324Q583.787,71.1895,584.703,70.14359999999999Q585.619,69.0977,586.521,69.0977Q587.027,69.0977,587.314,69.3984Q587.601,69.6992,587.601,70.2598Q587.601,70.7109,587.328,71.8184L586.904,73.5L586.767,74.0332Q586.576,74.8809,586.576,75.291Q586.576,75.7285,586.726,75.99510000000001Q586.877,76.2617,587.109,76.2617Q587.547,76.2617,588.476,75.25L588.681,75.4414L588.558,75.5918Q587.779,76.5078,587.403,76.8291Q587.027,77.1504,586.713,77.1504Q586.289,77.1504,585.995,76.7197Q585.701,76.2891,585.701,75.6465Q585.701,75.25,585.879,74.3477L586.385,71.5176L586.467,71.0254Q586.549,70.6152,586.549,70.3691Q586.549,70.123,586.398,69.9727Q586.248,69.8223,585.988,69.8223Q585.687,69.8223,585.325,70.0752Q584.963,70.3281,584.553,70.8477Q584.142,71.3672,583.637,72.2148Q582.953,73.377,582.529,74.3818Q582.105,75.3867,581.709,76.8496ZM596.439,74.8809L596.685,75.0859Q595.837,76.207,595.031,76.70609999999999Q594.224,77.2051,593.294,77.2051Q592.187,77.2051,591.517,76.4668Q590.847,75.7285,590.847,74.5117Q590.847,73.2812,591.496,72.0166Q592.146,70.752,593.123,69.9248Q594.101,69.0977,595.058,69.0977Q595.619,69.0977,595.981,69.4258Q596.343,69.7539,596.343,70.2734Q596.343,71.3262,595.195,72.3789Q594.046,73.4316,592.064,74.1699Q592.05,74.2793,592.05,74.416Q592.05,75.3594,592.57,75.9541Q593.089,76.5488,593.91,76.5488Q594.552,76.5488,595.154,76.1455Q595.755,75.7422,596.439,74.8809ZM592.064,73.8418Q593.54,73.1855,594.333,72.3789Q594.867,71.832,595.195,71.2031Q595.523,70.5742,595.523,70.0684Q595.523,69.4258,594.935,69.4258Q594.046,69.4258,593.137,70.8271Q592.228,72.2285,592.064,73.8418ZM604.065,81.8535L604.735,80.9512Q605.528,81.7988,606.526,81.7988Q607.579,81.7988,608.221,80.9648Q608.864,80.1309,609.274,78.2305L609.903,75.4004Q608.399,77.1641,607.182,77.1641Q606.471,77.1641,606.068,76.7266Q605.665,76.2891,605.665,75.5508Q605.665,75.0586,605.788,74.4707L606.717,69.5625L608.044,69.002L606.717,74.5117Q606.553,75.1816,606.553,75.5098Q606.553,75.9746,606.834,76.26859999999999Q607.114,76.5625,607.579,76.5625Q608.085,76.5625,608.693,76.1182Q609.301,75.6738,610.053,74.7852L611.229,69.5625L612.514,69.002L610.518,77.041Q610.163,78.4902,609.841,79.3105Q609.52,80.1309,609.096,80.6777Q607.756,82.4004,605.829,82.4004Q604.708,82.4004,604.065,81.8535ZM614.858,74.375Q614.858,73.1445,615.521,71.9209Q616.184,70.6973,617.236,69.9316Q618.289,69.166,619.383,69.166Q620.531,69.166,621.235,69.9248Q621.94,70.6836,621.94,71.8867Q621.94,73.1992,621.29,74.4297Q620.641,75.6602,619.581,76.44630000000001Q618.522,77.2324,617.442,77.2324Q616.279,77.2324,615.568,76.44630000000001Q614.858,75.6602,614.858,74.375ZM620.709,71.3672Q620.709,70.5469,620.306,70.0137Q619.902,69.4805,619.274,69.4805Q618.699,69.4805,618.173,69.8496Q617.647,70.2188,617.209,70.9297Q616.717,71.75,616.396,72.8438Q616.074,73.9375,616.074,74.7852Q616.074,75.7969,616.471,76.3438Q616.867,76.8906,617.606,76.8906Q618.795,76.8906,619.697,75.2363Q620.162,74.3887,620.436,73.3359Q620.709,72.2832,620.709,71.3672ZM627.236,69.002L625.91,74.293Q625.732,75.0039,625.732,75.4961Q625.732,75.9746,626.033,76.2617Q626.334,76.5488,626.812,76.5488Q627.974,76.5488,629.232,74.6484L629.287,74.5664Q629.314,74.4297,629.328,74.3477L630.189,69.5625L631.529,69.002L630.326,73.5Q630.025,74.6074,630.025,75.2773Q630.025,75.7148,630.176,75.9883Q630.326,76.2617,630.572,76.2617Q630.996,76.2617,631.926,75.25L632.144,75.4414L632.008,75.5918Q631.228,76.5078,630.859,76.8291Q630.49,77.1504,630.176,77.1504Q629.752,77.1504,629.458,76.7197Q629.164,76.2891,629.164,75.6465Q629.164,75.4414,629.177,75.2637Q627.756,77.1504,626.361,77.1504Q625.664,77.1504,625.247,76.7471Q624.83,76.3438,624.83,75.6738Q624.83,75.1543,624.98,74.4023L625.91,69.5625L627.236,69.002ZM645.677,57.736328L642.081,73.5L641.958,74.0332Q641.78,74.7852,641.78,75.3047Q641.78,75.7285,641.937,75.99510000000001Q642.095,76.2617,642.327,76.2617Q642.751,76.2617,643.681,75.25L643.899,75.4414L643.763,75.5918Q642.983,76.5078,642.614,76.8291Q642.245,77.1504,641.931,77.1504Q641.52,77.1504,641.213,76.69239999999999Q640.905,76.2344,640.905,75.6465Q640.905,75.2363,641.083,74.3477L644.241,58.433594L645.677,57.736328ZM649.114,63.64258Q649.469,63.64258,649.688,63.86133Q649.907,64.08008,649.907,64.43555Q649.907,64.77734,649.674,65.00977Q649.442,65.24219,649.114,65.24219Q648.799,65.24219,648.553,64.99609Q648.307,64.75,648.307,64.43555Q648.307,64.10742,648.54,63.875Q648.772,63.64258,649.114,63.64258ZM648.717,69.002L647.514,73.5Q647.213,74.6074,647.213,75.2773Q647.213,75.7148,647.364,75.9883Q647.514,76.2617,647.76,76.2617Q648.184,76.2617,649.114,75.25L649.333,75.4414L649.196,75.5918Q648.417,76.5078,648.047,76.8291Q647.678,77.1504,647.364,77.1504Q646.94,77.1504,646.646,76.7197Q646.352,76.2891,646.352,75.6465Q646.352,75.2363,646.516,74.3477L647.377,69.5625L648.717,69.002ZM656.502,57.736328L652.783,73.9102Q653.098,73.1719,653.535,72.4883Q653.973,71.8047,654.533,71.1553Q655.094,70.5059,655.613,70.0957Q656.283,69.5625,656.96,69.3027Q657.637,69.043,658.484,69.002L658.238,70.0957Q657.828,70.0137,657.623,70.0137Q656.01,70.0137,654.615,71.6406Q655.176,73.1445,655.805,74.3477Q656.16,75.0449,656.427,75.4619Q656.693,75.8789,656.919,76.0703Q657.145,76.2617,657.363,76.2617Q657.883,76.2617,658.676,75.4277L658.785,75.3047L658.963,75.5098Q657.582,77.1777,656.953,77.1777Q656.529,77.1777,656.16,76.8086Q655.791,76.4395,655.299,75.5371Q654.438,73.9648,653.891,72.5566Q652.606,74.6758,652.25,76.8359L651.361,77.123L655.026,58.433594L656.502,57.736328ZM666.515,74.8809L666.761,75.0859Q665.914,76.207,665.107,76.70609999999999Q664.301,77.2051,663.371,77.2051Q662.263,77.2051,661.594,76.4668Q660.924,75.7285,660.924,74.5117Q660.924,73.2812,661.573,72.0166Q662.222,70.752,663.2,69.9248Q664.177,69.0977,665.135,69.0977Q665.695,69.0977,666.057,69.4258Q666.42,69.7539,666.42,70.2734Q666.42,71.3262,665.271,72.3789Q664.123,73.4316,662.14,74.1699Q662.127,74.2793,662.127,74.416Q662.127,75.3594,662.646,75.9541Q663.166,76.5488,663.986,76.5488Q664.629,76.5488,665.23,76.1455Q665.832,75.7422,666.515,74.8809ZM662.14,73.8418Q663.617,73.1855,664.41,72.3789Q664.943,71.832,665.271,71.2031Q665.599,70.5742,665.599,70.0684Q665.599,69.4258,665.011,69.4258Q664.123,69.4258,663.214,70.8271Q662.304,72.2285,662.14,73.8418Z" fill="#000000" fill-opacity="1"/></g></g></svg>